G04*
G04 #@! TF.GenerationSoftware,Altium Limited,Altium Designer,26.3.0 (6)*
G04*
G04 Layer_Color=32896*
%FSLAX44Y44*%
%MOMM*%
G71*
G04*
G04 #@! TF.SameCoordinates,39B7BE71-6630-4ACF-B712-52817520196C*
G04*
G04*
G04 #@! TF.FilePolarity,Positive*
G04*
G01*
G75*
%ADD10C,0.5080*%
%ADD11C,0.2000*%
%ADD12C,0.1270*%
%ADD13C,0.1524*%
%ADD14C,0.1000*%
%ADD86C,0.2500*%
D10*
X1067201Y1375750D02*
G03*
X1067201Y1375750I-3810J0D01*
G01*
X1253451Y1375500D02*
G03*
X1253451Y1375500I-3810J0D01*
G01*
D11*
X953825Y1461250D02*
G03*
X953825Y1461250I-1000J0D01*
G01*
X774875Y1461440D02*
G03*
X774875Y1461440I-1000J0D01*
G01*
X994860Y1080640D02*
G03*
X994860Y1080640I-1000J0D01*
G01*
X1409950Y1098750D02*
G03*
X1409950Y1098750I-1000J0D01*
G01*
X965050Y1185800D02*
G03*
X965050Y1185800I-1000J0D01*
G01*
X862550Y1083750D02*
G03*
X862550Y1083750I-1000J0D01*
G01*
X778850Y1097700D02*
G03*
X778850Y1097700I-1000J0D01*
G01*
X752200Y633100D02*
G03*
X752200Y633100I-1000J0D01*
G01*
X782350Y720150D02*
G03*
X782350Y720150I-1000J0D01*
G01*
X1314750Y485100D02*
G03*
X1314750Y485100I-1000J0D01*
G01*
X1397000Y563100D02*
G03*
X1397000Y563100I-1000J0D01*
G01*
X992450Y599500D02*
G03*
X992450Y599500I-1000J0D01*
G01*
X936000Y552100D02*
G03*
X936000Y552100I-1000J0D01*
G01*
X1365250Y396450D02*
G03*
X1365250Y396450I-1000J0D01*
G01*
X1242780Y589260D02*
G03*
X1242780Y589260I-1000J0D01*
G01*
X1164600Y564500D02*
G03*
X1164600Y564500I-1000J0D01*
G01*
X1397000Y387000D02*
G03*
X1397000Y387000I-1000J0D01*
G01*
X770250Y659000D02*
G03*
X770250Y659000I-1000J0D01*
G01*
X1014000Y418500D02*
G03*
X1014000Y418500I-1000J0D01*
G01*
X828250Y512500D02*
G03*
X828250Y512500I-1000J0D01*
G01*
X761750Y512750D02*
G03*
X761750Y512750I-1000J0D01*
G01*
X901750Y386800D02*
G03*
X901750Y386800I-1000J0D01*
G01*
X876200Y1250650D02*
X1029450D01*
Y1453850D01*
X876200D02*
X1029450D01*
X876200Y1250650D02*
Y1453850D01*
X711000Y1190000D02*
Y1192000D01*
X699500Y1190000D02*
Y1192000D01*
X981500Y1421250D02*
X983500D01*
X981500Y1409750D02*
X983500D01*
X697250Y1250840D02*
Y1454040D01*
X850500D01*
Y1250840D02*
Y1454040D01*
X697250Y1250840D02*
X850500D01*
X714750Y1465750D02*
X716750D01*
X714750Y1477250D02*
X716750D01*
X858500Y1445500D02*
Y1447500D01*
X870000Y1445500D02*
Y1447500D01*
X982000Y1347250D02*
X984000D01*
X982000Y1358750D02*
X984000D01*
X981500Y1389500D02*
X983500D01*
X981500Y1401000D02*
X983500D01*
X805000Y1345500D02*
X807000D01*
X805000Y1357000D02*
X807000D01*
X804750Y1407500D02*
X806750D01*
X804750Y1419000D02*
X806750D01*
X805000Y1387500D02*
X807000D01*
X805000Y1399000D02*
X807000D01*
X825000Y1169000D02*
X827000D01*
X825000Y1180500D02*
X827000D01*
X893750Y1079750D02*
Y1081750D01*
X882250Y1079750D02*
Y1081750D01*
X914000Y1079750D02*
Y1081750D01*
X902500Y1079750D02*
Y1081750D01*
X784500Y1158750D02*
Y1160750D01*
X796000Y1158750D02*
Y1160750D01*
X784500Y1119500D02*
Y1121500D01*
X796000Y1119500D02*
Y1121500D01*
X784000Y1075250D02*
Y1077250D01*
X795500Y1075250D02*
Y1077250D01*
X1343000Y1203500D02*
Y1205500D01*
X1331500Y1203500D02*
Y1205500D01*
X1315250Y1061750D02*
Y1159750D01*
X1063250Y1061750D02*
Y1159750D01*
Y1061750D02*
X1315250D01*
Y1245750D02*
Y1343750D01*
X1063250Y1245750D02*
Y1343750D01*
X1315250D01*
X1192000Y566250D02*
Y568250D01*
X1180500Y566250D02*
Y568250D01*
X1082250Y578250D02*
Y580250D01*
X1093750Y578250D02*
Y580250D01*
X974500Y770750D02*
X976500D01*
X974500Y759250D02*
X976500D01*
X1018000Y770250D02*
X1020000D01*
X1018000Y758750D02*
X1020000D01*
X941750Y668750D02*
Y670750D01*
X953250Y668750D02*
Y670750D01*
X1345250Y464250D02*
Y466250D01*
X1333750Y464250D02*
Y466250D01*
X1301050Y478600D02*
X1326450D01*
X1301050Y402400D02*
X1326450D01*
X1301050D02*
Y478600D01*
X1326450Y402400D02*
Y478600D01*
X1383300Y556600D02*
X1408700D01*
X1383300Y480400D02*
X1408700D01*
X1383300D02*
Y556600D01*
X1408700Y480400D02*
Y556600D01*
X984950Y586800D02*
Y612200D01*
X832550Y586800D02*
Y612200D01*
X984950D01*
X832550Y586800D02*
X984950D01*
X780750Y526000D02*
X782750D01*
X780750Y514500D02*
X782750D01*
X947700Y469400D02*
Y545600D01*
X922300Y469400D02*
Y545600D01*
Y469400D02*
X947700D01*
X922300Y545600D02*
X947700D01*
X867000Y527500D02*
Y529500D01*
X878500Y527500D02*
Y529500D01*
X1032750Y395500D02*
X1034750D01*
X1032750Y407000D02*
X1034750D01*
X1239750Y517250D02*
X1241750D01*
X1239750Y528750D02*
X1241750D01*
X1240250Y491500D02*
X1242250D01*
X1240250Y503000D02*
X1242250D01*
X1351550Y402950D02*
X1376950D01*
X1351550Y504550D02*
X1376950D01*
Y402950D02*
Y504550D01*
X1351550Y402950D02*
Y504550D01*
X1248280Y601960D02*
X1400680D01*
X1248280Y576560D02*
X1400680D01*
Y601960D01*
X1248280Y576560D02*
Y601960D01*
X1200500Y566250D02*
Y568250D01*
X1212000Y566250D02*
Y568250D01*
X1115000Y572000D02*
Y574000D01*
X1103500Y572000D02*
Y574000D01*
X1135500Y595500D02*
X1137500D01*
X1135500Y584000D02*
X1137500D01*
X1344500Y413500D02*
Y415500D01*
X1333000Y413500D02*
Y415500D01*
X1383300Y393500D02*
Y469700D01*
X1408700Y393500D02*
Y469700D01*
X1383300D02*
X1408700D01*
X1383300Y393500D02*
X1408700D01*
X1247610Y434590D02*
Y436590D01*
X1259110Y434590D02*
Y436590D01*
X1224750Y434590D02*
Y436590D01*
X1236250Y434590D02*
Y436590D01*
X1079000Y530750D02*
Y532750D01*
X1067500Y530750D02*
Y532750D01*
X838500Y635000D02*
Y637000D01*
X850000Y635000D02*
Y637000D01*
X803250Y671750D02*
X805250D01*
X803250Y660250D02*
X805250D01*
X826000Y696250D02*
Y698250D01*
X837500Y696250D02*
Y698250D01*
X805250Y696750D02*
Y698750D01*
X816750Y696750D02*
Y698750D01*
X784750Y696750D02*
Y698750D01*
X796250Y696750D02*
Y698750D01*
X897500Y803750D02*
Y805750D01*
X909000Y803750D02*
Y805750D01*
X775750Y837750D02*
Y839750D01*
X787250Y837750D02*
Y839750D01*
X837250Y773000D02*
X839250D01*
X837250Y784500D02*
X839250D01*
X887250Y769500D02*
Y771500D01*
X875750Y769500D02*
Y771500D01*
X795500Y771750D02*
Y773750D01*
X807000Y771750D02*
Y773750D01*
X846500Y527750D02*
Y529750D01*
X858000Y527750D02*
Y529750D01*
X888050Y393300D02*
Y545700D01*
X913450Y393300D02*
Y545700D01*
X888050D02*
X913450D01*
X888050Y393300D02*
X913450D01*
X1068750Y403750D02*
Y405750D01*
X1080250Y403750D02*
Y405750D01*
X1103250Y402250D02*
X1105250D01*
X1103250Y390750D02*
X1105250D01*
X862250Y895500D02*
X864250D01*
X862250Y907000D02*
X864250D01*
D12*
X1108030Y539040D02*
G03*
X1108030Y539040I-1000J0D01*
G01*
X1108444Y538040D02*
G03*
X1108444Y538040I-1414J0D01*
G01*
X1108030D02*
G03*
X1108030Y538040I-1000J0D01*
G01*
X1108444D02*
G03*
X1108444Y538040I-1414J0D01*
G01*
X1109266D02*
G03*
X1109266Y538040I-2236J0D01*
G01*
X1109858D02*
G03*
X1109858Y538040I-2828J0D01*
G01*
X1122030Y514040D02*
G03*
X1122030Y514040I-1000J0D01*
G01*
X1123266Y513040D02*
G03*
X1123266Y513040I-2236J0D01*
G01*
X1122444D02*
G03*
X1122444Y513040I-1414J0D01*
G01*
X1124635D02*
G03*
X1124635Y513040I-3605J0D01*
G01*
X1123858D02*
G03*
X1123858Y513040I-2828J0D01*
G01*
X1125273D02*
G03*
X1125273Y513040I-4243J0D01*
G01*
X1126030D02*
G03*
X1126030Y513040I-5000J0D01*
G01*
X1126687D02*
G03*
X1126687Y513040I-5657J0D01*
G01*
X1126861D02*
G03*
X1126861Y513040I-5831J0D01*
G01*
X867250Y450000D02*
G03*
X867250Y450000I-17500J0D01*
G01*
X800750Y450250D02*
G03*
X800750Y450250I-17500J0D01*
G01*
X922000Y1098810D02*
X990000D01*
X922000D02*
Y1161010D01*
X927540D01*
X990000Y1098810D02*
Y1161010D01*
X984460D02*
X990000D01*
X1326450Y1063150D02*
Y1159750D01*
X1356450D01*
X1381450D02*
X1397450D01*
Y1136350D02*
Y1159750D01*
Y1063150D02*
Y1086550D01*
X1381450Y1063150D02*
X1397450D01*
X1326450D02*
X1356450D01*
X999650Y1222700D02*
Y1239300D01*
X725250Y1222700D02*
Y1239300D01*
X999650D01*
Y1190800D02*
Y1198300D01*
X725250Y1190800D02*
Y1198300D01*
Y1190800D02*
X999650D01*
X811250Y1106300D02*
Y1146200D01*
X861750Y1106300D02*
Y1146200D01*
X695350Y1062100D02*
Y1158700D01*
X725350D01*
X750350D02*
X766350D01*
Y1135300D02*
Y1158700D01*
Y1062100D02*
Y1085500D01*
X750350Y1062100D02*
X766350D01*
X695350D02*
X725350D01*
X1001640Y1062690D02*
Y1133810D01*
Y1062690D02*
X1047360D01*
Y1133810D01*
X1001640D02*
X1047360D01*
X1107030Y526040D02*
X1199030D01*
Y434040D02*
Y526040D01*
X1107030Y434040D02*
X1199030D01*
X1107030D02*
Y526040D01*
X697700Y668700D02*
X714300D01*
X697700Y394300D02*
X714300D01*
X697700D02*
Y668700D01*
X738700D02*
X746200D01*
X738700Y394300D02*
X746200D01*
Y668700D01*
X698850Y684550D02*
Y781150D01*
X728850D01*
X753850D02*
X769850D01*
Y757750D02*
Y781150D01*
Y684550D02*
Y707950D01*
X753850Y684550D02*
X769850D01*
X698850D02*
X728850D01*
X824750Y595500D02*
Y630500D01*
X812350Y595500D02*
X824750D01*
X759750D02*
Y630500D01*
Y595500D02*
X772150D01*
X1032150Y423000D02*
X1033850D01*
X1032150Y414000D02*
X1033850D01*
X879747Y419977D02*
Y479921D01*
X819778Y419977D02*
X879747D01*
X819778D02*
Y479997D01*
X879722D01*
X813247Y420227D02*
Y480171D01*
X753278Y420227D02*
X813247D01*
X753278D02*
Y480247D01*
X813222D01*
D13*
X803571Y780649D02*
G03*
X803571Y780649I-1270J0D01*
G01*
X862756Y754750D02*
G03*
X862756Y754750I-762J0D01*
G01*
X1069741Y1361880D02*
Y1482022D01*
Y1361880D02*
X1213759D01*
Y1482022D01*
X1069741D02*
X1213759D01*
X1255991Y1361630D02*
Y1481772D01*
Y1361630D02*
X1400009D01*
Y1481772D01*
X1255991D02*
X1400009D01*
X819065Y792079D02*
Y861421D01*
X858435D01*
Y792079D02*
Y861421D01*
X819065Y792079D02*
X858435D01*
X844341Y742825D02*
Y748375D01*
X827831Y729344D02*
X844341D01*
X827831D02*
Y739225D01*
Y761856D02*
X844341D01*
X827831Y751975D02*
Y761856D01*
D14*
X1024416Y1460251D02*
Y1464249D01*
X1022416D01*
X1021750Y1463583D01*
Y1462250D01*
X1022416Y1461584D01*
X1024416D01*
X1020417Y1460251D02*
X1019084D01*
X1019751D01*
Y1464249D01*
X1020417Y1463583D01*
X709498Y1209751D02*
Y1213749D01*
X707499D01*
X706833Y1213083D01*
Y1211750D01*
X707499Y1211084D01*
X709498D01*
X708166D02*
X706833Y1209751D01*
X705500D02*
X704167D01*
X704833D01*
Y1213749D01*
X705500Y1213083D01*
X702167D02*
X701501Y1213749D01*
X700168D01*
X699502Y1213083D01*
Y1212417D01*
X700168Y1211750D01*
X700835D01*
X700168D01*
X699502Y1211084D01*
Y1210417D01*
X700168Y1209751D01*
X701501D01*
X702167Y1210417D01*
X962917Y1440499D02*
X962251Y1441166D01*
Y1442499D01*
X962917Y1443165D01*
X963584D01*
X964250Y1442499D01*
Y1441166D01*
X964916Y1440499D01*
X965583D01*
X966249Y1441166D01*
Y1442499D01*
X965583Y1443165D01*
X962251Y1439166D02*
X966249D01*
Y1437167D01*
X965583Y1436501D01*
X964916D01*
X964250Y1437167D01*
Y1439166D01*
Y1437167D01*
X963584Y1436501D01*
X962917D01*
X962251Y1437167D01*
Y1439166D01*
X966249Y1435168D02*
Y1433835D01*
Y1434501D01*
X962251D01*
X962917Y1435168D01*
X964499Y1420248D02*
X960501D01*
Y1418249D01*
X961167Y1417583D01*
X962500D01*
X963167Y1418249D01*
Y1420248D01*
Y1418916D02*
X964499Y1417583D01*
Y1416250D02*
Y1414917D01*
Y1415583D01*
X960501D01*
X961167Y1416250D01*
X964499Y1410918D02*
X960501D01*
X962500Y1412917D01*
Y1410252D01*
X1060251Y1435833D02*
Y1437166D01*
Y1436499D01*
X1063583D01*
X1064249Y1437166D01*
Y1437832D01*
X1063583Y1438498D01*
X1064249Y1434500D02*
Y1433167D01*
Y1433833D01*
X1060251D01*
X1060917Y1434500D01*
X1060251Y1428502D02*
X1060917Y1429834D01*
X1062250Y1431167D01*
X1063583D01*
X1064249Y1430501D01*
Y1429168D01*
X1063583Y1428502D01*
X1062916D01*
X1062250Y1429168D01*
Y1431167D01*
X785917Y1332166D02*
X785251Y1332832D01*
Y1334165D01*
X785917Y1334832D01*
X786583D01*
X787250Y1334165D01*
Y1332832D01*
X787916Y1332166D01*
X788583D01*
X789249Y1332832D01*
Y1334165D01*
X788583Y1334832D01*
X785251Y1330833D02*
X789249D01*
Y1328833D01*
X788583Y1328167D01*
X787916D01*
X787250Y1328833D01*
Y1330833D01*
Y1328833D01*
X786583Y1328167D01*
X785917D01*
X785251Y1328833D01*
Y1330833D01*
Y1324168D02*
X785917Y1325501D01*
X787250Y1326834D01*
X788583D01*
X789249Y1326168D01*
Y1324835D01*
X788583Y1324168D01*
X787916D01*
X787250Y1324835D01*
Y1326834D01*
X1367833Y1167749D02*
X1369165D01*
X1368499D01*
Y1164417D01*
X1369165Y1163751D01*
X1369832D01*
X1370498Y1164417D01*
X1366500Y1163751D02*
X1365167D01*
X1365833D01*
Y1167749D01*
X1366500Y1167083D01*
X1361168Y1163751D02*
Y1167749D01*
X1363167Y1165750D01*
X1360502D01*
X701833Y1167249D02*
X703166D01*
X702499D01*
Y1163917D01*
X703166Y1163251D01*
X703832D01*
X704498Y1163917D01*
X700500Y1163251D02*
X699167D01*
X699833D01*
Y1167249D01*
X700500Y1166583D01*
X697167D02*
X696501Y1167249D01*
X695168D01*
X694502Y1166583D01*
Y1165917D01*
X695168Y1165250D01*
X695835D01*
X695168D01*
X694502Y1164584D01*
Y1163917D01*
X695168Y1163251D01*
X696501D01*
X697167Y1163917D01*
X779654Y794701D02*
X780987D01*
X780321D01*
Y791368D01*
X780987Y790702D01*
X781654D01*
X782320Y791368D01*
X778321Y790702D02*
X776988D01*
X777655D01*
Y794701D01*
X778321Y794034D01*
X976183Y1186499D02*
X977515D01*
X976849D01*
Y1183167D01*
X977515Y1182501D01*
X978182D01*
X978848Y1183167D01*
X974850Y1182501D02*
X973517D01*
X974183D01*
Y1186499D01*
X974850Y1185833D01*
X971517Y1186499D02*
X968852D01*
Y1185833D01*
X971517Y1183167D01*
Y1182501D01*
X703666Y678349D02*
X704999D01*
X704333D01*
Y675017D01*
X704999Y674351D01*
X705666D01*
X706332Y675017D01*
X702333Y674351D02*
X701000D01*
X701667D01*
Y678349D01*
X702333Y677683D01*
X699001Y674351D02*
X697668D01*
X698335D01*
Y678349D01*
X699001Y677683D01*
X1161449Y552944D02*
X1157451Y555610D01*
X1161449D02*
X1157451Y552944D01*
Y556943D02*
Y558276D01*
Y557609D01*
X1161449D01*
X1160783Y556943D01*
X855832Y1086249D02*
Y1082917D01*
X855166Y1082251D01*
X853833D01*
X853166Y1082917D01*
Y1086249D01*
X849168D02*
X851834D01*
Y1084250D01*
X850501Y1084916D01*
X849834D01*
X849168Y1084250D01*
Y1082917D01*
X849834Y1082251D01*
X851167D01*
X851834Y1082917D01*
X1092862Y553159D02*
Y549827D01*
X1092196Y549161D01*
X1090863D01*
X1090196Y549827D01*
Y553159D01*
X1088864Y552493D02*
X1088197Y553159D01*
X1086864D01*
X1086198Y552493D01*
Y551827D01*
X1086864Y551160D01*
X1087531D01*
X1086864D01*
X1086198Y550494D01*
Y549827D01*
X1086864Y549161D01*
X1088197D01*
X1088864Y549827D01*
X881389Y850088D02*
X878057D01*
X877391Y850754D01*
Y852087D01*
X878057Y852754D01*
X881389D01*
X877391Y856752D02*
Y854086D01*
X880057Y856752D01*
X880723D01*
X881389Y856086D01*
Y854753D01*
X880723Y854086D01*
X814844Y571421D02*
Y574753D01*
X815511Y575419D01*
X816844D01*
X817510Y574753D01*
Y571421D01*
X818843Y575419D02*
X820176D01*
X819509D01*
Y571421D01*
X818843Y572087D01*
X849916Y388833D02*
X850582Y389499D01*
X851915D01*
X852582Y388833D01*
Y388167D01*
X851915Y387500D01*
X850582D01*
X849916Y386833D01*
Y386167D01*
X850582Y385501D01*
X851915D01*
X852582Y386167D01*
X848583Y389499D02*
Y385501D01*
X847250Y386833D01*
X845917Y385501D01*
Y389499D01*
X841918Y385501D02*
X844584D01*
X841918Y388167D01*
Y388833D01*
X842585Y389499D01*
X843918D01*
X844584Y388833D01*
X787249Y389083D02*
X787916Y389749D01*
X789249D01*
X789915Y389083D01*
Y388416D01*
X789249Y387750D01*
X787916D01*
X787249Y387084D01*
Y386417D01*
X787916Y385751D01*
X789249D01*
X789915Y386417D01*
X785916Y389749D02*
Y385751D01*
X784584Y387084D01*
X783251Y385751D01*
Y389749D01*
X781918Y385751D02*
X780585D01*
X781251D01*
Y389749D01*
X781918Y389083D01*
X786747Y1375166D02*
X786081Y1375832D01*
Y1377165D01*
X786747Y1377832D01*
X787413D01*
X788080Y1377165D01*
Y1375832D01*
X788746Y1375166D01*
X789413D01*
X790079Y1375832D01*
Y1377165D01*
X789413Y1377832D01*
X786081Y1373833D02*
X790079D01*
Y1371833D01*
X789413Y1371167D01*
X788746D01*
X788080Y1371833D01*
Y1373833D01*
Y1371833D01*
X787413Y1371167D01*
X786747D01*
X786081Y1371833D01*
Y1373833D01*
Y1367168D02*
Y1369834D01*
X788080D01*
X787413Y1368501D01*
Y1367835D01*
X788080Y1367168D01*
X789413D01*
X790079Y1367835D01*
Y1369168D01*
X789413Y1369834D01*
X786167Y1437916D02*
X785501Y1438582D01*
Y1439915D01*
X786167Y1440582D01*
X786833D01*
X787500Y1439915D01*
Y1438582D01*
X788166Y1437916D01*
X788833D01*
X789499Y1438582D01*
Y1439915D01*
X788833Y1440582D01*
X785501Y1436583D02*
X789499D01*
Y1434584D01*
X788833Y1433917D01*
X788166D01*
X787500Y1434584D01*
Y1436583D01*
Y1434584D01*
X786833Y1433917D01*
X786167D01*
X785501Y1434584D01*
Y1436583D01*
X789499Y1430585D02*
X785501D01*
X787500Y1432584D01*
Y1429918D01*
X963667Y1334916D02*
X963001Y1335582D01*
Y1336915D01*
X963667Y1337582D01*
X964333D01*
X965000Y1336915D01*
Y1335582D01*
X965666Y1334916D01*
X966333D01*
X966999Y1335582D01*
Y1336915D01*
X966333Y1337582D01*
X963001Y1333583D02*
X966999D01*
Y1331584D01*
X966333Y1330917D01*
X965666D01*
X965000Y1331584D01*
Y1333583D01*
Y1331584D01*
X964333Y1330917D01*
X963667D01*
X963001Y1331584D01*
Y1333583D01*
X963667Y1329584D02*
X963001Y1328918D01*
Y1327585D01*
X963667Y1326918D01*
X964333D01*
X965000Y1327585D01*
Y1328251D01*
Y1327585D01*
X965666Y1326918D01*
X966333D01*
X966999Y1327585D01*
Y1328918D01*
X966333Y1329584D01*
X963917Y1376666D02*
X963251Y1377332D01*
Y1378665D01*
X963917Y1379332D01*
X964584D01*
X965250Y1378665D01*
Y1377332D01*
X965916Y1376666D01*
X966583D01*
X967249Y1377332D01*
Y1378665D01*
X966583Y1379332D01*
X963251Y1375333D02*
X967249D01*
Y1373333D01*
X966583Y1372667D01*
X965916D01*
X965250Y1373333D01*
Y1375333D01*
Y1373333D01*
X964584Y1372667D01*
X963917D01*
X963251Y1373333D01*
Y1375333D01*
X967249Y1368668D02*
Y1371334D01*
X964584Y1368668D01*
X963917D01*
X963251Y1369335D01*
Y1370668D01*
X963917Y1371334D01*
X787499Y1357082D02*
X783501D01*
Y1355082D01*
X784167Y1354416D01*
X785500D01*
X786166Y1355082D01*
Y1357082D01*
Y1355749D02*
X787499Y1354416D01*
Y1350417D02*
Y1353083D01*
X784834Y1350417D01*
X784167D01*
X783501Y1351084D01*
Y1352416D01*
X784167Y1353083D01*
Y1349084D02*
X783501Y1348418D01*
Y1347085D01*
X784167Y1346418D01*
X786833D01*
X787499Y1347085D01*
Y1348418D01*
X786833Y1349084D01*
X784167D01*
X787499Y1398748D02*
X783501D01*
Y1396749D01*
X784167Y1396083D01*
X785500D01*
X786166Y1396749D01*
Y1398748D01*
Y1397415D02*
X787499Y1396083D01*
Y1394750D02*
Y1393417D01*
Y1394083D01*
X783501D01*
X784167Y1394750D01*
X786833Y1391417D02*
X787499Y1390751D01*
Y1389418D01*
X786833Y1388752D01*
X784167D01*
X783501Y1389418D01*
Y1390751D01*
X784167Y1391417D01*
X784834D01*
X785500Y1390751D01*
Y1388752D01*
X787249Y1418748D02*
X783251D01*
Y1416749D01*
X783917Y1416083D01*
X785250D01*
X785916Y1416749D01*
Y1418748D01*
Y1417415D02*
X787249Y1416083D01*
Y1414750D02*
Y1413417D01*
Y1414083D01*
X783251D01*
X783917Y1414750D01*
Y1411417D02*
X783251Y1410751D01*
Y1409418D01*
X783917Y1408752D01*
X784584D01*
X785250Y1409418D01*
X785916Y1408752D01*
X786583D01*
X787249Y1409418D01*
Y1410751D01*
X786583Y1411417D01*
X785916D01*
X785250Y1410751D01*
X784584Y1411417D01*
X783917D01*
X785250Y1410751D02*
Y1409418D01*
X844501Y1169502D02*
X848499D01*
Y1171501D01*
X847833Y1172168D01*
X846500D01*
X845834Y1171501D01*
Y1169502D01*
Y1170835D02*
X844501Y1172168D01*
Y1173500D02*
Y1174833D01*
Y1174167D01*
X848499D01*
X847833Y1173500D01*
X848499Y1176833D02*
Y1179498D01*
X847833D01*
X845167Y1176833D01*
X844501D01*
X964999Y1357998D02*
X961001D01*
Y1355999D01*
X961667Y1355333D01*
X963000D01*
X963666Y1355999D01*
Y1357998D01*
Y1356665D02*
X964999Y1355333D01*
Y1354000D02*
Y1352667D01*
Y1353333D01*
X961001D01*
X961667Y1354000D01*
X961001Y1348002D02*
X961667Y1349335D01*
X963000Y1350667D01*
X964333D01*
X964999Y1350001D01*
Y1348668D01*
X964333Y1348002D01*
X963666D01*
X963000Y1348668D01*
Y1350667D01*
X964749Y1400748D02*
X960751D01*
Y1398749D01*
X961417Y1398082D01*
X962750D01*
X963416Y1398749D01*
Y1400748D01*
Y1399415D02*
X964749Y1398082D01*
Y1396750D02*
Y1395417D01*
Y1396083D01*
X960751D01*
X961417Y1396750D01*
X960751Y1390752D02*
Y1393417D01*
X962750D01*
X962084Y1392085D01*
Y1391418D01*
X962750Y1390752D01*
X964083D01*
X964749Y1391418D01*
Y1392751D01*
X964083Y1393417D01*
X1055999Y406248D02*
X1052001D01*
Y404249D01*
X1052667Y403583D01*
X1054000D01*
X1054666Y404249D01*
Y406248D01*
Y404916D02*
X1055999Y403583D01*
Y402250D02*
Y400917D01*
Y401583D01*
X1052001D01*
X1052667Y402250D01*
X1055999Y396252D02*
Y398917D01*
X1053334Y396252D01*
X1052667D01*
X1052001Y396918D01*
Y398251D01*
X1052667Y398917D01*
X876582Y547751D02*
Y551749D01*
X874583D01*
X873916Y551083D01*
Y549750D01*
X874583Y549084D01*
X876582D01*
X875249D02*
X873916Y547751D01*
X872583D02*
X871250D01*
X871917D01*
Y551749D01*
X872583Y551083D01*
X869251Y547751D02*
X867918D01*
X868585D01*
Y551749D01*
X869251Y551083D01*
X1343748Y432931D02*
Y436929D01*
X1341749D01*
X1341083Y436263D01*
Y434930D01*
X1341749Y434263D01*
X1343748D01*
X1342415D02*
X1341083Y432931D01*
X1339750D02*
X1338417D01*
X1339083D01*
Y436929D01*
X1339750Y436263D01*
X1336417D02*
X1335751Y436929D01*
X1334418D01*
X1333752Y436263D01*
Y433597D01*
X1334418Y432931D01*
X1335751D01*
X1336417Y433597D01*
Y436263D01*
X1342832Y483461D02*
Y487459D01*
X1340833D01*
X1340166Y486793D01*
Y485460D01*
X1340833Y484794D01*
X1342832D01*
X1341499D02*
X1340166Y483461D01*
X1338833Y484127D02*
X1338167Y483461D01*
X1336834D01*
X1336168Y484127D01*
Y486793D01*
X1336834Y487459D01*
X1338167D01*
X1338833Y486793D01*
Y486127D01*
X1338167Y485460D01*
X1336168D01*
X1084668Y561039D02*
Y557041D01*
X1086667D01*
X1087334Y557707D01*
Y559040D01*
X1086667Y559706D01*
X1084668D01*
X1086001D02*
X1087334Y561039D01*
X1088666Y557707D02*
X1089333Y557041D01*
X1090666D01*
X1091332Y557707D01*
Y558373D01*
X1090666Y559040D01*
X1091332Y559706D01*
Y560373D01*
X1090666Y561039D01*
X1089333D01*
X1088666Y560373D01*
Y559706D01*
X1089333Y559040D01*
X1088666Y558373D01*
Y557707D01*
X1089333Y559040D02*
X1090666D01*
X884832Y788821D02*
Y792819D01*
X882833D01*
X882166Y792153D01*
Y790820D01*
X882833Y790154D01*
X884832D01*
X883499D02*
X882166Y788821D01*
X878834D02*
Y792819D01*
X880834Y790820D01*
X878168D01*
X804582Y749051D02*
Y753049D01*
X802583D01*
X801917Y752383D01*
Y751050D01*
X802583Y750384D01*
X804582D01*
X803249D02*
X801917Y749051D01*
X800584Y752383D02*
X799917Y753049D01*
X798584D01*
X797918Y752383D01*
Y751717D01*
X798584Y751050D01*
X799251D01*
X798584D01*
X797918Y750384D01*
Y749717D01*
X798584Y749051D01*
X799917D01*
X800584Y749717D01*
X879094Y917194D02*
Y921193D01*
X877095D01*
X876428Y920526D01*
Y919193D01*
X877095Y918527D01*
X879094D01*
X877761D02*
X876428Y917194D01*
X875095D02*
X873762D01*
X874429D01*
Y921193D01*
X875095Y920526D01*
X992667Y1089250D02*
X995333D01*
X995999Y1088584D01*
Y1087251D01*
X995333Y1086584D01*
X992667D01*
X992001Y1087251D01*
Y1088584D01*
X993334Y1087917D02*
X992001Y1089250D01*
Y1088584D02*
X992667Y1089250D01*
X992001Y1090583D02*
Y1091916D01*
Y1091249D01*
X995999D01*
X995333Y1090583D01*
X845332Y1459751D02*
Y1463749D01*
X843333D01*
X842666Y1463083D01*
Y1461750D01*
X843333Y1461084D01*
X845332D01*
X838668Y1459751D02*
X841333D01*
X838668Y1462417D01*
Y1463083D01*
X839334Y1463749D01*
X840667D01*
X841333Y1463083D01*
X1060704Y1355279D02*
Y1351280D01*
X1058038D01*
X1056705D02*
X1055372D01*
X1056039D01*
Y1355279D01*
X1056705Y1354612D01*
X1246501Y1443083D02*
Y1444415D01*
Y1443749D01*
X1249833D01*
X1250499Y1444415D01*
Y1445082D01*
X1249833Y1445748D01*
X1250499Y1441750D02*
Y1440417D01*
Y1441083D01*
X1246501D01*
X1247167Y1441750D01*
X1246501Y1435752D02*
Y1438417D01*
X1248500D01*
X1247833Y1437085D01*
Y1436418D01*
X1248500Y1435752D01*
X1249833D01*
X1250499Y1436418D01*
Y1437751D01*
X1249833Y1438417D01*
X989712Y625029D02*
X991045D01*
X990379D01*
Y621696D01*
X991045Y621030D01*
X991712D01*
X992378Y621696D01*
X988379Y621030D02*
X987046D01*
X987713D01*
Y625029D01*
X988379Y624362D01*
X982381Y621030D02*
X985047D01*
X982381Y623696D01*
Y624362D01*
X983048Y625029D01*
X984381D01*
X985047Y624362D01*
X1358186Y398609D02*
X1359519D01*
X1358853D01*
Y395277D01*
X1359519Y394611D01*
X1360186D01*
X1360852Y395277D01*
X1356853D02*
X1356187Y394611D01*
X1354854D01*
X1354188Y395277D01*
Y397943D01*
X1354854Y398609D01*
X1356187D01*
X1356853Y397943D01*
Y397276D01*
X1356187Y396610D01*
X1354188D01*
X901416Y553749D02*
X902749D01*
X902083D01*
Y550417D01*
X902749Y549751D01*
X903416D01*
X904082Y550417D01*
X900083Y553083D02*
X899417Y553749D01*
X898084D01*
X897418Y553083D01*
Y552416D01*
X898084Y551750D01*
X897418Y551084D01*
Y550417D01*
X898084Y549751D01*
X899417D01*
X900083Y550417D01*
Y551084D01*
X899417Y551750D01*
X900083Y552416D01*
Y553083D01*
X899417Y551750D02*
X898084D01*
X1238661Y598816D02*
Y600149D01*
Y599483D01*
X1241993D01*
X1242659Y600149D01*
Y600816D01*
X1241993Y601482D01*
X1238661Y597484D02*
Y594818D01*
X1239327D01*
X1241993Y597484D01*
X1242659D01*
X1305526Y488219D02*
X1306859D01*
X1306193D01*
Y484887D01*
X1306859Y484221D01*
X1307526D01*
X1308192Y484887D01*
X1301528Y488219D02*
X1302861Y487553D01*
X1304194Y486220D01*
Y484887D01*
X1303527Y484221D01*
X1302194D01*
X1301528Y484887D01*
Y485554D01*
X1302194Y486220D01*
X1304194D01*
X1405916Y388409D02*
X1407249D01*
X1406583D01*
Y385077D01*
X1407249Y384411D01*
X1407916D01*
X1408582Y385077D01*
X1401918Y388409D02*
X1404584D01*
Y386410D01*
X1403251Y387076D01*
X1402584D01*
X1401918Y386410D01*
Y385077D01*
X1402584Y384411D01*
X1403917D01*
X1404584Y385077D01*
X1404286Y566219D02*
X1405619D01*
X1404953D01*
Y562887D01*
X1405619Y562221D01*
X1406286D01*
X1406952Y562887D01*
X1402954Y565553D02*
X1402287Y566219D01*
X1400954D01*
X1400288Y565553D01*
Y564887D01*
X1400954Y564220D01*
X1401621D01*
X1400954D01*
X1400288Y563554D01*
Y562887D01*
X1400954Y562221D01*
X1402287D01*
X1402954Y562887D01*
X926777Y556489D02*
X928109D01*
X927443D01*
Y553157D01*
X928109Y552491D01*
X928776D01*
X929442Y553157D01*
X922778Y552491D02*
X925444D01*
X922778Y555157D01*
Y555823D01*
X923444Y556489D01*
X924777D01*
X925444Y555823D01*
X933251Y706166D02*
Y708832D01*
X935250D01*
Y707499D01*
Y708832D01*
X937249D01*
X933251Y704833D02*
X937249D01*
Y702167D01*
Y698168D02*
Y700834D01*
X934584Y698168D01*
X933917D01*
X933251Y698835D01*
Y700168D01*
X933917Y700834D01*
X1227519Y585799D02*
X1230185D01*
Y583800D01*
X1228852D01*
X1230185D01*
Y581801D01*
X1226186Y585799D02*
Y581801D01*
X1223521D01*
X1222188D02*
X1220855D01*
X1221521D01*
Y585799D01*
X1222188Y585133D01*
X1008634Y1144459D02*
Y1140460D01*
X1006635D01*
X1005968Y1141126D01*
Y1143792D01*
X1006635Y1144459D01*
X1008634D01*
X1004635Y1143792D02*
X1003969Y1144459D01*
X1002636D01*
X1001970Y1143792D01*
Y1143126D01*
X1002636Y1142459D01*
X1003302D01*
X1002636D01*
X1001970Y1141793D01*
Y1141126D01*
X1002636Y1140460D01*
X1003969D01*
X1004635Y1141126D01*
X1054049Y415168D02*
X1050051D01*
Y417167D01*
X1050717Y417834D01*
X1053383D01*
X1054049Y417167D01*
Y415168D01*
X1050051Y421832D02*
Y419166D01*
X1052716Y421832D01*
X1053383D01*
X1054049Y421166D01*
Y419833D01*
X1053383Y419166D01*
X865009Y742674D02*
X861011D01*
Y744674D01*
X861677Y745340D01*
X864343D01*
X865009Y744674D01*
Y742674D01*
X861011Y746673D02*
Y748006D01*
Y747339D01*
X865009D01*
X864343Y746673D01*
X1336422Y1230660D02*
X1337089Y1231327D01*
X1338422D01*
X1339088Y1230660D01*
Y1227994D01*
X1338422Y1227328D01*
X1337089D01*
X1336422Y1227994D01*
X1335089Y1230660D02*
X1334423Y1231327D01*
X1333090D01*
X1332424Y1230660D01*
Y1229994D01*
X1333090Y1229327D01*
X1333756D01*
X1333090D01*
X1332424Y1228661D01*
Y1227994D01*
X1333090Y1227328D01*
X1334423D01*
X1335089Y1227994D01*
X1329091Y1227328D02*
Y1231327D01*
X1331091Y1229327D01*
X1328425D01*
X886084Y1059417D02*
X885418Y1058751D01*
X884085D01*
X883418Y1059417D01*
Y1062083D01*
X884085Y1062749D01*
X885418D01*
X886084Y1062083D01*
X887417Y1059417D02*
X888084Y1058751D01*
X889417D01*
X890083Y1059417D01*
Y1060083D01*
X889417Y1060750D01*
X888750D01*
X889417D01*
X890083Y1061416D01*
Y1062083D01*
X889417Y1062749D01*
X888084D01*
X887417Y1062083D01*
X891416Y1059417D02*
X892082Y1058751D01*
X893415D01*
X894082Y1059417D01*
Y1060083D01*
X893415Y1060750D01*
X892749D01*
X893415D01*
X894082Y1061416D01*
Y1062083D01*
X893415Y1062749D01*
X892082D01*
X891416Y1062083D01*
X905084Y1059167D02*
X904418Y1058501D01*
X903085D01*
X902418Y1059167D01*
Y1061833D01*
X903085Y1062499D01*
X904418D01*
X905084Y1061833D01*
X906417Y1059167D02*
X907084Y1058501D01*
X908417D01*
X909083Y1059167D01*
Y1059834D01*
X908417Y1060500D01*
X907750D01*
X908417D01*
X909083Y1061166D01*
Y1061833D01*
X908417Y1062499D01*
X907084D01*
X906417Y1061833D01*
X913082Y1062499D02*
X910416D01*
X913082Y1059834D01*
Y1059167D01*
X912415Y1058501D01*
X911082D01*
X910416Y1059167D01*
X738333Y1469001D02*
X738999Y1468334D01*
Y1467001D01*
X738333Y1466335D01*
X735667D01*
X735001Y1467001D01*
Y1468334D01*
X735667Y1469001D01*
X738333Y1470334D02*
X738999Y1471000D01*
Y1472333D01*
X738333Y1472999D01*
X737666D01*
X737000Y1472333D01*
Y1471666D01*
Y1472333D01*
X736333Y1472999D01*
X735667D01*
X735001Y1472333D01*
Y1471000D01*
X735667Y1470334D01*
X735001Y1474332D02*
Y1475665D01*
Y1474999D01*
X738999D01*
X738333Y1474332D01*
X792666Y1097583D02*
X793332Y1098249D01*
X794665D01*
X795332Y1097583D01*
Y1094917D01*
X794665Y1094251D01*
X793332D01*
X792666Y1094917D01*
X791333Y1097583D02*
X790666Y1098249D01*
X789333D01*
X788667Y1097583D01*
Y1096917D01*
X789333Y1096250D01*
X790000D01*
X789333D01*
X788667Y1095584D01*
Y1094917D01*
X789333Y1094251D01*
X790666D01*
X791333Y1094917D01*
X787334Y1097583D02*
X786668Y1098249D01*
X785335D01*
X784668Y1097583D01*
Y1094917D01*
X785335Y1094251D01*
X786668D01*
X787334Y1094917D01*
Y1097583D01*
X793416Y1141333D02*
X794082Y1141999D01*
X795415D01*
X796082Y1141333D01*
Y1138667D01*
X795415Y1138001D01*
X794082D01*
X793416Y1138667D01*
X789417Y1138001D02*
X792083D01*
X789417Y1140667D01*
Y1141333D01*
X790083Y1141999D01*
X791416D01*
X792083Y1141333D01*
X788084Y1138667D02*
X787418Y1138001D01*
X786085D01*
X785418Y1138667D01*
Y1141333D01*
X786085Y1141999D01*
X787418D01*
X788084Y1141333D01*
Y1140667D01*
X787418Y1140000D01*
X785418D01*
X792916Y1181083D02*
X793582Y1181749D01*
X794915D01*
X795582Y1181083D01*
Y1178417D01*
X794915Y1177751D01*
X793582D01*
X792916Y1178417D01*
X788917Y1177751D02*
X791583D01*
X788917Y1180416D01*
Y1181083D01*
X789584Y1181749D01*
X790917D01*
X791583Y1181083D01*
X787584D02*
X786918Y1181749D01*
X785585D01*
X784918Y1181083D01*
Y1180416D01*
X785585Y1179750D01*
X784918Y1179083D01*
Y1178417D01*
X785585Y1177751D01*
X786918D01*
X787584Y1178417D01*
Y1179083D01*
X786918Y1179750D01*
X787584Y1180416D01*
Y1181083D01*
X786918Y1179750D02*
X785585D01*
X867166Y1469833D02*
X867832Y1470499D01*
X869165D01*
X869832Y1469833D01*
Y1467167D01*
X869165Y1466501D01*
X867832D01*
X867166Y1467167D01*
X863167Y1466501D02*
X865833D01*
X863167Y1469167D01*
Y1469833D01*
X863834Y1470499D01*
X865166D01*
X865833Y1469833D01*
X861834Y1470499D02*
X859168D01*
Y1469833D01*
X861834Y1467167D01*
Y1466501D01*
X855166Y550583D02*
X855832Y551249D01*
X857165D01*
X857832Y550583D01*
Y547917D01*
X857165Y547251D01*
X855832D01*
X855166Y547917D01*
X851167Y547251D02*
X853833D01*
X851167Y549916D01*
Y550583D01*
X851834Y551249D01*
X853167D01*
X853833Y550583D01*
X847168Y551249D02*
X848501Y550583D01*
X849834Y549250D01*
Y547917D01*
X849168Y547251D01*
X847835D01*
X847168Y547917D01*
Y548584D01*
X847835Y549250D01*
X849834D01*
X953917Y767416D02*
X953251Y768082D01*
Y769415D01*
X953917Y770082D01*
X956583D01*
X957249Y769415D01*
Y768082D01*
X956583Y767416D01*
X957249Y763417D02*
Y766083D01*
X954584Y763417D01*
X953917D01*
X953251Y764083D01*
Y765416D01*
X953917Y766083D01*
X953251Y759418D02*
Y762084D01*
X955250D01*
X954584Y760751D01*
Y760085D01*
X955250Y759418D01*
X956583D01*
X957249Y760085D01*
Y761418D01*
X956583Y762084D01*
X996417Y766916D02*
X995751Y767582D01*
Y768915D01*
X996417Y769582D01*
X999083D01*
X999749Y768915D01*
Y767582D01*
X999083Y766916D01*
X999749Y762917D02*
Y765583D01*
X997084Y762917D01*
X996417D01*
X995751Y763584D01*
Y764917D01*
X996417Y765583D01*
X999749Y759585D02*
X995751D01*
X997750Y761584D01*
Y758918D01*
X949416Y650833D02*
X950082Y651499D01*
X951415D01*
X952082Y650833D01*
Y648167D01*
X951415Y647501D01*
X950082D01*
X949416Y648167D01*
X945417Y647501D02*
X948083D01*
X945417Y650166D01*
Y650833D01*
X946084Y651499D01*
X947416D01*
X948083Y650833D01*
X944084D02*
X943418Y651499D01*
X942085D01*
X941418Y650833D01*
Y650166D01*
X942085Y649500D01*
X942751D01*
X942085D01*
X941418Y648834D01*
Y648167D01*
X942085Y647501D01*
X943418D01*
X944084Y648167D01*
X1208916Y588903D02*
X1209582Y589569D01*
X1210915D01*
X1211582Y588903D01*
Y586237D01*
X1210915Y585571D01*
X1209582D01*
X1208916Y586237D01*
X1204917Y585571D02*
X1207583D01*
X1204917Y588237D01*
Y588903D01*
X1205583Y589569D01*
X1206916D01*
X1207583Y588903D01*
X1203584D02*
X1202918Y589569D01*
X1201585D01*
X1200918Y588903D01*
Y586237D01*
X1201585Y585571D01*
X1202918D01*
X1203584Y586237D01*
Y588903D01*
X1188583Y588793D02*
X1189249Y589459D01*
X1190582D01*
X1191248Y588793D01*
Y586127D01*
X1190582Y585461D01*
X1189249D01*
X1188583Y586127D01*
X1187250Y585461D02*
X1185917D01*
X1186583D01*
Y589459D01*
X1187250Y588793D01*
X1183917Y586127D02*
X1183251Y585461D01*
X1181918D01*
X1181252Y586127D01*
Y588793D01*
X1181918Y589459D01*
X1183251D01*
X1183917Y588793D01*
Y588126D01*
X1183251Y587460D01*
X1181252D01*
X1075083Y553083D02*
X1075749Y553749D01*
X1077082D01*
X1077748Y553083D01*
Y550417D01*
X1077082Y549751D01*
X1075749D01*
X1075083Y550417D01*
X1073750Y549751D02*
X1072417D01*
X1073083D01*
Y553749D01*
X1073750Y553083D01*
X1070417D02*
X1069751Y553749D01*
X1068418D01*
X1067752Y553083D01*
Y552416D01*
X1068418Y551750D01*
X1067752Y551084D01*
Y550417D01*
X1068418Y549751D01*
X1069751D01*
X1070417Y550417D01*
Y551084D01*
X1069751Y551750D01*
X1070417Y552416D01*
Y553083D01*
X1069751Y551750D02*
X1068418D01*
X1261833Y521417D02*
X1262499Y520751D01*
Y519418D01*
X1261833Y518752D01*
X1259167D01*
X1258501Y519418D01*
Y520751D01*
X1259167Y521417D01*
X1258501Y522750D02*
Y524083D01*
Y523417D01*
X1262499D01*
X1261833Y522750D01*
X1262499Y526083D02*
Y528748D01*
X1261833D01*
X1259167Y526083D01*
X1258501D01*
X1232833Y416603D02*
X1233499Y417269D01*
X1234832D01*
X1235498Y416603D01*
Y413937D01*
X1234832Y413271D01*
X1233499D01*
X1232833Y413937D01*
X1231500Y413271D02*
X1230167D01*
X1230833D01*
Y417269D01*
X1231500Y416603D01*
X1225502Y417269D02*
X1226834Y416603D01*
X1228167Y415270D01*
Y413937D01*
X1227501Y413271D01*
X1226168D01*
X1225502Y413937D01*
Y414604D01*
X1226168Y415270D01*
X1228167D01*
X1059917Y407833D02*
X1059251Y408499D01*
Y409832D01*
X1059917Y410499D01*
X1062583D01*
X1063249Y409832D01*
Y408499D01*
X1062583Y407833D01*
X1063249Y406500D02*
Y405167D01*
Y405834D01*
X1059251D01*
X1059917Y406500D01*
X1059251Y400502D02*
Y403168D01*
X1061250D01*
X1060583Y401835D01*
Y401169D01*
X1061250Y400502D01*
X1062583D01*
X1063249Y401169D01*
Y402501D01*
X1062583Y403168D01*
X1106083Y410583D02*
X1106749Y411249D01*
X1108082D01*
X1108748Y410583D01*
Y407917D01*
X1108082Y407251D01*
X1106749D01*
X1106083Y407917D01*
X1104750Y407251D02*
X1103417D01*
X1104083D01*
Y411249D01*
X1104750Y410583D01*
X1099418Y407251D02*
Y411249D01*
X1101417Y409250D01*
X1098752D01*
X1255693Y415443D02*
X1256359Y416109D01*
X1257692D01*
X1258358Y415443D01*
Y412777D01*
X1257692Y412111D01*
X1256359D01*
X1255693Y412777D01*
X1254360Y412111D02*
X1253027D01*
X1253693D01*
Y416109D01*
X1254360Y415443D01*
X1251027D02*
X1250361Y416109D01*
X1249028D01*
X1248362Y415443D01*
Y414776D01*
X1249028Y414110D01*
X1249695D01*
X1249028D01*
X1248362Y413443D01*
Y412777D01*
X1249028Y412111D01*
X1250361D01*
X1251027Y412777D01*
X1263223Y495298D02*
X1263889Y494631D01*
Y493298D01*
X1263223Y492632D01*
X1260557D01*
X1259891Y493298D01*
Y494631D01*
X1260557Y495298D01*
X1259891Y496630D02*
Y497963D01*
Y497297D01*
X1263889D01*
X1263223Y496630D01*
X1259891Y502628D02*
Y499963D01*
X1262557Y502628D01*
X1263223D01*
X1263889Y501962D01*
Y500629D01*
X1263223Y499963D01*
X803513Y518584D02*
X804179Y517917D01*
Y516585D01*
X803513Y515918D01*
X800847D01*
X800181Y516585D01*
Y517917D01*
X800847Y518584D01*
X800181Y519917D02*
Y521250D01*
Y520583D01*
X804179D01*
X803513Y519917D01*
X800181Y523249D02*
Y524582D01*
Y523915D01*
X804179D01*
X803513Y523249D01*
X1158263Y587417D02*
X1158929Y586751D01*
Y585418D01*
X1158263Y584752D01*
X1155597D01*
X1154931Y585418D01*
Y586751D01*
X1155597Y587417D01*
X1154931Y588750D02*
Y590083D01*
Y589417D01*
X1158929D01*
X1158263Y588750D01*
Y592083D02*
X1158929Y592749D01*
Y594082D01*
X1158263Y594748D01*
X1155597D01*
X1154931Y594082D01*
Y592749D01*
X1155597Y592083D01*
X1158263D01*
X1109916Y594543D02*
X1110583Y595209D01*
X1111916D01*
X1112582Y594543D01*
Y591877D01*
X1111916Y591211D01*
X1110583D01*
X1109916Y591877D01*
X1108584D02*
X1107917Y591211D01*
X1106584D01*
X1105918Y591877D01*
Y594543D01*
X1106584Y595209D01*
X1107917D01*
X1108584Y594543D01*
Y593876D01*
X1107917Y593210D01*
X1105918D01*
X903916Y826403D02*
X904583Y827069D01*
X905916D01*
X906582Y826403D01*
Y823737D01*
X905916Y823071D01*
X904583D01*
X903916Y823737D01*
X902584Y826403D02*
X901917Y827069D01*
X900584D01*
X899918Y826403D01*
Y825736D01*
X900584Y825070D01*
X899918Y824404D01*
Y823737D01*
X900584Y823071D01*
X901917D01*
X902584Y823737D01*
Y824404D01*
X901917Y825070D01*
X902584Y825736D01*
Y826403D01*
X901917Y825070D02*
X900584D01*
X858507Y779417D02*
X857841Y780083D01*
Y781416D01*
X858507Y782082D01*
X861173D01*
X861839Y781416D01*
Y780083D01*
X861173Y779417D01*
X857841Y778084D02*
Y775418D01*
X858507D01*
X861173Y778084D01*
X861839D01*
X782167Y860403D02*
X782833Y861069D01*
X784166D01*
X784832Y860403D01*
Y857737D01*
X784166Y857071D01*
X782833D01*
X782167Y857737D01*
X778168Y861069D02*
X779501Y860403D01*
X780834Y859070D01*
Y857737D01*
X780167Y857071D01*
X778834D01*
X778168Y857737D01*
Y858404D01*
X778834Y859070D01*
X780834D01*
X844916Y657653D02*
X845583Y658319D01*
X846916D01*
X847582Y657653D01*
Y654987D01*
X846916Y654321D01*
X845583D01*
X844916Y654987D01*
X840918Y658319D02*
X843584D01*
Y656320D01*
X842251Y656986D01*
X841584D01*
X840918Y656320D01*
Y654987D01*
X841584Y654321D01*
X842917D01*
X843584Y654987D01*
X825903Y666603D02*
X826569Y665937D01*
Y664604D01*
X825903Y663938D01*
X823237D01*
X822571Y664604D01*
Y665937D01*
X823237Y666603D01*
X822571Y669936D02*
X826569D01*
X824570Y667936D01*
Y670602D01*
X831666Y719083D02*
X832333Y719749D01*
X833666D01*
X834332Y719083D01*
Y716417D01*
X833666Y715751D01*
X832333D01*
X831666Y716417D01*
X830333Y719083D02*
X829667Y719749D01*
X828334D01*
X827668Y719083D01*
Y718417D01*
X828334Y717750D01*
X829001D01*
X828334D01*
X827668Y717084D01*
Y716417D01*
X828334Y715751D01*
X829667D01*
X830333Y716417D01*
X811666Y719293D02*
X812333Y719959D01*
X813666D01*
X814332Y719293D01*
Y716627D01*
X813666Y715961D01*
X812333D01*
X811666Y716627D01*
X807668Y715961D02*
X810334D01*
X807668Y718626D01*
Y719293D01*
X808334Y719959D01*
X809667D01*
X810334Y719293D01*
X790500Y719513D02*
X791166Y720179D01*
X792499D01*
X793166Y719513D01*
Y716847D01*
X792499Y716181D01*
X791166D01*
X790500Y716847D01*
X789167Y716181D02*
X787834D01*
X788501D01*
Y720179D01*
X789167Y719513D01*
D86*
X1058000Y1202750D02*
G03*
X1058000Y1202750I-1250J0D01*
G01*
M02*
