G04*
G04 #@! TF.GenerationSoftware,Altium Limited,Altium Designer,26.3.0 (6)*
G04*
G04 Layer_Color=65535*
%FSLAX44Y44*%
%MOMM*%
G71*
G04*
G04 #@! TF.SameCoordinates,39B7BE71-6630-4ACF-B712-52817520196C*
G04*
G04*
G04 #@! TF.FilePolarity,Positive*
G04*
G01*
G75*
%ADD10C,0.5080*%
%ADD11C,0.2000*%
%ADD12C,0.1270*%
%ADD13C,0.1524*%
%ADD14C,0.1000*%
D10*
X1067201Y1375750D02*
G03*
X1067201Y1375750I-3810J0D01*
G01*
X1253451Y1375500D02*
G03*
X1253451Y1375500I-3810J0D01*
G01*
D11*
X1335277Y796408D02*
G03*
X1335277Y796408I-1000J0D01*
G01*
Y694808D02*
G03*
X1335277Y694808I-1000J0D01*
G01*
X913500Y857700D02*
G03*
X913500Y857700I-1000J0D01*
G01*
X1242250Y558500D02*
G03*
X1242250Y558500I-1000J0D01*
G01*
X956500Y859500D02*
Y861500D01*
X945000Y859500D02*
Y861500D01*
X921750Y921250D02*
X923750D01*
X921750Y909750D02*
X923750D01*
X1247750Y545800D02*
Y571200D01*
X1374750Y545800D02*
Y571200D01*
X1247750D02*
X1374750D01*
X1247750Y545800D02*
X1374750D01*
X899750Y885500D02*
Y887500D01*
X888250Y885500D02*
Y887500D01*
X923250Y841750D02*
Y843750D01*
X934750Y841750D02*
Y843750D01*
X977250Y862000D02*
X979250D01*
X977250Y873500D02*
X979250D01*
D12*
X964977Y840408D02*
X995777D01*
X1317177D02*
X1347977D01*
X964977Y815408D02*
X970377D01*
X1342577D02*
X1347977D01*
Y840408D01*
X964977Y815408D02*
Y840408D01*
Y713808D02*
Y738808D01*
Y713808D02*
X970377D01*
X964977Y738808D02*
X995777D01*
X1317177D02*
X1347977D01*
X1342577Y713808D02*
X1347977D01*
Y738808D01*
X906800Y873900D02*
Y891500D01*
X938200Y873900D02*
Y891500D01*
D13*
X1148326Y789478D02*
X1163814D01*
X1148326Y766872D02*
X1163814D01*
D14*
X948944Y866837D02*
Y862838D01*
X950943D01*
X951610Y863504D01*
Y864171D01*
X950943Y864837D01*
X948944D01*
X950943D01*
X951610Y865504D01*
Y866170D01*
X950943Y866837D01*
X948944D01*
X952943Y862838D02*
X954276D01*
X953609D01*
Y866837D01*
X952943Y866170D01*
X1384499Y568833D02*
Y570165D01*
Y569499D01*
X1381167D01*
X1380501Y570165D01*
Y570832D01*
X1381167Y571498D01*
X1380501Y567500D02*
Y566167D01*
Y566833D01*
X1384499D01*
X1383833Y567500D01*
Y564167D02*
X1384499Y563501D01*
Y562168D01*
X1383833Y561502D01*
X1381167D01*
X1380501Y562168D01*
Y563501D01*
X1381167Y564167D01*
X1383833D01*
X1186909Y781842D02*
X1183577D01*
X1182911Y781176D01*
Y779843D01*
X1183577Y779176D01*
X1186909D01*
X1182911Y775844D02*
X1186909D01*
X1184910Y777844D01*
Y775178D01*
X949168Y879001D02*
Y882999D01*
X951167D01*
X951834Y882333D01*
Y881000D01*
X951167Y880333D01*
X949168D01*
X950501D02*
X951834Y879001D01*
X953166Y882999D02*
X955832D01*
Y882333D01*
X953166Y879667D01*
Y879001D01*
X998001Y870832D02*
X1001999D01*
Y868833D01*
X1001333Y868166D01*
X1000000D01*
X999333Y868833D01*
Y870832D01*
Y869499D02*
X998001Y868166D01*
X1001999Y864168D02*
X1001333Y865501D01*
X1000000Y866833D01*
X998667D01*
X998001Y866167D01*
Y864834D01*
X998667Y864168D01*
X999333D01*
X1000000Y864834D01*
Y866833D01*
X926168Y819251D02*
Y823249D01*
X928167D01*
X928833Y822583D01*
Y821250D01*
X928167Y820584D01*
X926168D01*
X927501D02*
X928833Y819251D01*
X932832Y823249D02*
X930166D01*
Y821250D01*
X931499Y821917D01*
X932166D01*
X932832Y821250D01*
Y819917D01*
X932166Y819251D01*
X930833D01*
X930166Y819917D01*
X943249Y900166D02*
Y901499D01*
Y900833D01*
X939917D01*
X939251Y901499D01*
Y902166D01*
X939917Y902832D01*
X939251Y896834D02*
X943249D01*
X941250Y898833D01*
Y896168D01*
X891334Y908083D02*
X890668Y908749D01*
X889335D01*
X888668Y908083D01*
Y905417D01*
X889335Y904751D01*
X890668D01*
X891334Y905417D01*
X895333Y904751D02*
X892667D01*
X895333Y907417D01*
Y908083D01*
X894667Y908749D01*
X893334D01*
X892667Y908083D01*
X899332Y904751D02*
X896666D01*
X899332Y907417D01*
Y908083D01*
X898665Y908749D01*
X897332D01*
X896666Y908083D01*
X945583Y915499D02*
X946249Y916166D01*
Y917499D01*
X945583Y918165D01*
X942917D01*
X942251Y917499D01*
Y916166D01*
X942917Y915499D01*
X942251Y911501D02*
Y914166D01*
X944917Y911501D01*
X945583D01*
X946249Y912167D01*
Y913500D01*
X945583Y914166D01*
X942251Y910168D02*
Y908835D01*
Y909501D01*
X946249D01*
X945583Y910168D01*
M02*
