G04*
G04 #@! TF.GenerationSoftware,Altium Limited,Altium Designer,26.3.0 (6)*
G04*
G04 Layer_Physical_Order=2*
G04 Layer_Color=32768*
%FSLAX44Y44*%
%MOMM*%
G71*
G04*
G04 #@! TF.SameCoordinates,39B7BE71-6630-4ACF-B712-52817520196C*
G04*
G04*
G04 #@! TF.FilePolarity,Negative*
G04*
G01*
G75*
%ADD41C,0.6000*%
%ADD42C,1.0160*%
%ADD43C,1.0000*%
%ADD44C,2.0320*%
G04:AMPARAMS|DCode=45|XSize=2.54mm|YSize=2.54mm|CornerRadius=0mm|HoleSize=0mm|Usage=FLASHONLY|Rotation=0.000|XOffset=0mm|YOffset=0mm|HoleType=Round|Shape=Relief|Width=0.254mm|Gap=0.254mm|Entries=4|*
%AMTHD45*
7,0,0,2.5400,2.0320,0.2540,45*
%
%ADD45THD45*%
%ADD46C,2.4130*%
%ADD47C,2.2160*%
G04:AMPARAMS|DCode=48|XSize=2.724mm|YSize=2.724mm|CornerRadius=0mm|HoleSize=0mm|Usage=FLASHONLY|Rotation=0.000|XOffset=0mm|YOffset=0mm|HoleType=Round|Shape=Relief|Width=0.254mm|Gap=0.254mm|Entries=4|*
%AMTHD48*
7,0,0,2.7240,2.2160,0.2540,45*
%
%ADD48THD48*%
G04:AMPARAMS|DCode=49|XSize=1.824mm|YSize=1.824mm|CornerRadius=0mm|HoleSize=0mm|Usage=FLASHONLY|Rotation=0.000|XOffset=0mm|YOffset=0mm|HoleType=Round|Shape=Relief|Width=0.254mm|Gap=0.254mm|Entries=4|*
%AMTHD49*
7,0,0,1.8240,1.3160,0.2540,45*
%
%ADD49THD49*%
%ADD50C,1.3160*%
G36*
X1421718Y945508D02*
Y879508D01*
X1019121D01*
X1013990Y880321D01*
X1009050Y881926D01*
X1004422Y884284D01*
X1000220Y887337D01*
X996547Y891010D01*
X993494Y895212D01*
X991136Y899840D01*
X989530Y904781D01*
X988718Y909911D01*
Y915105D01*
X989530Y920236D01*
X991136Y925176D01*
X993494Y929804D01*
X996547Y934006D01*
X1000220Y937679D01*
X1004422Y940732D01*
X1009050Y943090D01*
X1013990Y944695D01*
X1019121Y945508D01*
X1021718D01*
X1421718Y945508D01*
D02*
G37*
G36*
Y676808D02*
Y610808D01*
X1019121D01*
X1013990Y611620D01*
X1009050Y613226D01*
X1004422Y615584D01*
X1000220Y618637D01*
X996547Y622310D01*
X993494Y626512D01*
X991136Y631140D01*
X989530Y636081D01*
X988718Y641211D01*
Y646405D01*
X989530Y651535D01*
X991136Y656476D01*
X993494Y661104D01*
X996547Y665306D01*
X1000220Y668979D01*
X1004422Y672032D01*
X1009050Y674390D01*
X1013990Y675995D01*
X1019121Y676808D01*
X1021718D01*
X1421718Y676808D01*
D02*
G37*
D41*
X682750Y1191000D02*
X789250D01*
X805000Y1175250D01*
Y1089500D02*
Y1175250D01*
Y1089500D02*
X814500Y1080000D01*
X828250D01*
X837500Y1089250D01*
Y1152500D01*
X866500Y1181500D01*
X876250D01*
X1015000D01*
X1044500Y1211000D01*
Y1422500D01*
X1026250Y1440750D02*
X1044500Y1422500D01*
X972750Y1440750D02*
X1026250D01*
X952500Y1420500D02*
X972750Y1440750D01*
X952500Y1316750D02*
Y1420500D01*
X919250Y1283500D02*
X952500Y1316750D01*
X877500Y1283500D02*
X919250D01*
X862500Y1298500D02*
X877500Y1283500D01*
X862500Y1298500D02*
Y1413750D01*
X846000Y1430250D02*
X862500Y1413750D01*
X792750Y1430250D02*
X846000D01*
X774250Y1411750D02*
X792750Y1430250D01*
X774250Y1331750D02*
Y1411750D01*
X727250Y1284750D02*
X774250Y1331750D01*
X682500Y1284750D02*
X727250D01*
X1166000Y575000D02*
X1179000Y588000D01*
X1228250D01*
X1235750Y580500D01*
Y559500D02*
Y580500D01*
X1222000Y545750D02*
X1235750Y559500D01*
X908500Y588000D02*
Y613750D01*
Y588000D02*
X928250Y568250D01*
X915750Y775500D02*
Y826000D01*
X908500Y768250D02*
X915750Y775500D01*
X908500Y613750D02*
Y681750D01*
X1005957Y687000D02*
X1016556Y676402D01*
X953750Y687000D02*
X1005957D01*
X935750Y669000D02*
X953750Y687000D01*
X935750Y637000D02*
Y669000D01*
Y637000D02*
X1067000Y505750D01*
X1132250D01*
X1166000Y539500D01*
Y575000D01*
X1193250Y545750D02*
X1222000D01*
X1185000Y537500D02*
X1193250Y545750D01*
X1185000Y525000D02*
Y537500D01*
Y525000D02*
X1200500Y509500D01*
X1262250D01*
X1270750Y501000D01*
Y488000D02*
Y501000D01*
X1251750Y469000D02*
X1270750Y488000D01*
X1027500Y469000D02*
X1251750D01*
X928250Y568250D02*
X1027500Y469000D01*
X908500Y681750D02*
Y768250D01*
X863500Y878250D02*
X915750Y826000D01*
X863500Y878250D02*
Y917000D01*
X888411Y941911D01*
X1006736D01*
D42*
X1418000Y945508D02*
Y1499000D01*
X682670D02*
X1418000D01*
X682670Y381450D02*
Y1499000D01*
Y381450D02*
X1418000D01*
Y610808D01*
X1019121D02*
X1418000D01*
X1021718Y676808D02*
X1418000Y676808D01*
Y879508D01*
X1019121D02*
X1418000D01*
X1021718Y945508D02*
X1418000Y945508D01*
X1013990Y611620D02*
X1019121Y610808D01*
X1009050Y613226D02*
X1013990Y611620D01*
X1004422Y615584D02*
X1009050Y613226D01*
X1000220Y618637D02*
X1004422Y615584D01*
X996547Y622310D02*
X1000220Y618637D01*
X993494Y626512D02*
X996547Y622310D01*
X991136Y631140D02*
X993494Y626512D01*
X989530Y636081D02*
X991136Y631140D01*
X988718Y641211D02*
X989530Y636081D01*
X988718Y641211D02*
Y646405D01*
X989530Y651535D01*
X991136Y656476D01*
X993494Y661104D01*
X996547Y665306D01*
X1000220Y668979D01*
X1004422Y672032D01*
X1009050Y674390D01*
X1013990Y675995D01*
X1019121Y676808D01*
X1021718D01*
X1013990Y880321D02*
X1019121Y879508D01*
X1009050Y881926D02*
X1013990Y880321D01*
X1004422Y884284D02*
X1009050Y881926D01*
X1000220Y887337D02*
X1004422Y884284D01*
X996547Y891010D02*
X1000220Y887337D01*
X993494Y895212D02*
X996547Y891010D01*
X991136Y899840D02*
X993494Y895212D01*
X989530Y904781D02*
X991136Y899840D01*
X988718Y909911D02*
X989530Y904781D01*
X988718Y909911D02*
Y915105D01*
X989530Y920236D01*
X991136Y925176D01*
X993494Y929804D01*
X996547Y934006D01*
X1000220Y937679D01*
X1004422Y940732D01*
X1009050Y943090D01*
X1013990Y944695D01*
X1019121Y945508D01*
X1021718D01*
D43*
X682750Y1050250D02*
X1417750D01*
D44*
X1016750Y1314150D02*
D03*
Y1339550D02*
D03*
Y1441150D02*
D03*
Y1415750D02*
D03*
Y1390350D02*
D03*
Y1364950D02*
D03*
X889750Y1441150D02*
D03*
X889750Y1288750D02*
D03*
X1016750Y1288750D02*
D03*
Y1263350D02*
D03*
X889750Y1314150D02*
D03*
Y1364950D02*
D03*
Y1339550D02*
D03*
Y1390350D02*
D03*
X837800Y1263540D02*
D03*
X710800Y1288940D02*
D03*
X837800Y1288940D02*
D03*
X710800Y1441340D02*
D03*
X710800Y1365140D02*
D03*
Y1390540D02*
D03*
Y1339740D02*
D03*
Y1314340D02*
D03*
X837800Y1365140D02*
D03*
Y1390540D02*
D03*
Y1415940D02*
D03*
Y1441340D02*
D03*
Y1339740D02*
D03*
Y1314340D02*
D03*
X935000Y507500D02*
D03*
X1260980Y589260D02*
D03*
X1260450Y558500D02*
D03*
X1396000Y543900D02*
D03*
X1364250Y466450D02*
D03*
X870650Y599500D02*
D03*
X935000Y532900D02*
D03*
X900750Y406000D02*
D03*
X921450Y599500D02*
D03*
X896050D02*
D03*
X1285850Y558500D02*
D03*
X1396000Y518500D02*
D03*
X1286380Y589260D02*
D03*
X1362580D02*
D03*
X1313750Y440500D02*
D03*
X946850Y599500D02*
D03*
X1311250Y558500D02*
D03*
X1364250Y441050D02*
D03*
X1311780Y589260D02*
D03*
X1396000Y431600D02*
D03*
X1364250Y415650D02*
D03*
X972250Y599500D02*
D03*
X1337180Y589260D02*
D03*
X900750Y431400D02*
D03*
Y456800D02*
D03*
Y482200D02*
D03*
X1313750Y465900D02*
D03*
X900750Y507600D02*
D03*
X1336650Y558500D02*
D03*
X1396000Y406200D02*
D03*
D45*
X889750Y1415750D02*
D03*
Y1263350D02*
D03*
X710800Y1415940D02*
D03*
Y1263540D02*
D03*
X1387980Y589260D02*
D03*
X1362050Y558500D02*
D03*
X1396000Y493100D02*
D03*
Y457000D02*
D03*
X1364250Y491850D02*
D03*
X1313750Y415100D02*
D03*
X845250Y599500D02*
D03*
X935000Y482100D02*
D03*
X900750Y533000D02*
D03*
D46*
X1345500Y1375500D02*
D03*
X1310500D02*
D03*
X1345500Y1400500D02*
D03*
X1310500D02*
D03*
X1159250Y1400750D02*
D03*
Y1375750D02*
D03*
X1124250Y1400750D02*
D03*
Y1375750D02*
D03*
D47*
X887850Y1210500D02*
D03*
X913250D02*
D03*
X862450D02*
D03*
X786250D02*
D03*
X964050D02*
D03*
X811650D02*
D03*
X837050D02*
D03*
X763150Y1097700D02*
D03*
X1394250Y1098750D02*
D03*
X938650Y1210500D02*
D03*
X726500Y480700D02*
D03*
Y455300D02*
D03*
Y633100D02*
D03*
Y531500D02*
D03*
Y556900D02*
D03*
Y582300D02*
D03*
Y506100D02*
D03*
Y607700D02*
D03*
X766650Y745550D02*
D03*
D48*
X989450Y1210500D02*
D03*
X735450D02*
D03*
X760850D02*
D03*
X1368850Y1149550D02*
D03*
X1394250Y1124150D02*
D03*
X1368850Y1073350D02*
D03*
X737750Y1148500D02*
D03*
X763150Y1123100D02*
D03*
X737750Y1072300D02*
D03*
X741250Y770950D02*
D03*
X766650Y720150D02*
D03*
X741250Y694750D02*
D03*
X726500Y658500D02*
D03*
Y429900D02*
D03*
Y404500D02*
D03*
D49*
X1014250Y1070250D02*
D03*
X1035000Y1070750D02*
D03*
X796750Y1350250D02*
D03*
Y1393000D02*
D03*
X796500Y1413250D02*
D03*
X705000Y1181000D02*
D03*
X705250Y1200000D02*
D03*
X973500Y1395250D02*
D03*
Y1415000D02*
D03*
X974000Y1353000D02*
D03*
X1337250Y1195500D02*
D03*
X908250Y1071750D02*
D03*
X888000D02*
D03*
X817450Y1152950D02*
D03*
Y1099550D02*
D03*
X864250Y1437500D02*
D03*
X725250Y1471250D02*
D03*
X854500Y901250D02*
D03*
X872250D02*
D03*
X1010250Y764750D02*
D03*
X1004077Y742808D02*
D03*
X978677Y709808D02*
D03*
X967000Y764750D02*
D03*
X1156500Y742750D02*
D03*
X1182000Y708500D02*
D03*
X1207500Y742250D02*
D03*
X1232750Y709250D02*
D03*
X1258500Y742750D02*
D03*
X1283500Y710250D02*
D03*
X1335500Y709000D02*
D03*
X1308500Y743500D02*
D03*
X1334250Y810500D02*
D03*
X1308500Y844000D02*
D03*
X1284000Y810500D02*
D03*
X1258750Y843500D02*
D03*
X1232500Y811250D02*
D03*
X1207750Y844250D02*
D03*
X1182250Y810500D02*
D03*
X1156750Y844750D02*
D03*
X1130750Y809750D02*
D03*
X1105500Y844500D02*
D03*
X1080500Y810500D02*
D03*
X1029500D02*
D03*
X1003750Y843750D02*
D03*
X979250Y810250D02*
D03*
X1206500Y576250D02*
D03*
X1186250Y575250D02*
D03*
X827250Y404250D02*
D03*
X760500Y404500D02*
D03*
X760250Y496000D02*
D03*
X772500Y520500D02*
D03*
X827000Y496250D02*
D03*
X852250Y537000D02*
D03*
X843500Y627250D02*
D03*
X768750Y641000D02*
D03*
X794750Y665250D02*
D03*
X790000Y688500D02*
D03*
X811250Y689000D02*
D03*
X831250Y688250D02*
D03*
X902500Y795500D02*
D03*
X801250Y763250D02*
D03*
X847750Y779500D02*
D03*
X781250Y830000D02*
D03*
X978750Y623500D02*
D03*
X946750Y660250D02*
D03*
X1127250Y589250D02*
D03*
X1109250Y582000D02*
D03*
X1073500Y522500D02*
D03*
X1113250Y395000D02*
D03*
X1253500Y426500D02*
D03*
X1230750Y443750D02*
D03*
X1231500Y523000D02*
D03*
X1186500Y484250D02*
D03*
X1156000Y505000D02*
D03*
D50*
X855550Y1099550D02*
D03*
Y1152950D02*
D03*
X933140Y1078350D02*
D03*
X908250Y1089750D02*
D03*
X888000D02*
D03*
X817000Y1174750D02*
D03*
X864250Y1455500D02*
D03*
X706250Y1471250D02*
D03*
X889250Y1116000D02*
D03*
X844250Y644750D02*
D03*
X959750Y631000D02*
D03*
X936500Y624250D02*
D03*
X1111250Y690000D02*
D03*
X1073250Y540250D02*
D03*
X1133750Y396250D02*
D03*
X997000Y452500D02*
D03*
X1236250Y539500D02*
D03*
X982750Y493540D02*
D03*
X1008500Y420000D02*
D03*
X872500Y537250D02*
D03*
X1088000Y569500D02*
D03*
X1338750Y404750D02*
D03*
X1339750Y474250D02*
D03*
X1224750Y573750D02*
D03*
X1250250Y523250D02*
D03*
X1230500Y426250D02*
D03*
X1094500Y395250D02*
D03*
X1074500Y395750D02*
D03*
X1041500Y418750D02*
D03*
X792000Y642000D02*
D03*
X800500Y583000D02*
D03*
X782500D02*
D03*
X1200250Y771500D02*
D03*
X1169750Y494000D02*
D03*
X1155750Y478250D02*
D03*
X1027500Y509250D02*
D03*
X977500Y462750D02*
D03*
X958250Y481500D02*
D03*
X1235500Y459000D02*
D03*
X1271500Y470000D02*
D03*
X966250Y487000D02*
D03*
X1176750Y512750D02*
D03*
X986750Y457500D02*
D03*
X1156250Y406508D02*
D03*
X1088500Y794500D02*
D03*
X842250Y392500D02*
D03*
X1322250Y525250D02*
D03*
X1002000Y509750D02*
D03*
X1102000Y784750D02*
D03*
X1144500Y402008D02*
D03*
X953250Y401000D02*
D03*
X1170250Y521500D02*
D03*
X879750Y564500D02*
D03*
X810500Y564250D02*
D03*
X1076750Y776000D02*
D03*
X1126000Y390008D02*
D03*
X947750Y712250D02*
D03*
X947250Y678500D02*
D03*
X947750Y695250D02*
D03*
X1029000Y709500D02*
D03*
X1055000Y742250D02*
D03*
X913250Y895250D02*
D03*
X914000Y915750D02*
D03*
X894000Y895500D02*
D03*
X814000Y666000D02*
D03*
X815750Y641500D02*
D03*
X831250Y706500D02*
D03*
X811000D02*
D03*
X790250D02*
D03*
X825500Y745250D02*
D03*
X881500Y779500D02*
D03*
X781250Y848250D02*
D03*
X805500Y827000D02*
D03*
X806000Y849750D02*
D03*
X903500Y814000D02*
D03*
X872250Y816500D02*
D03*
X872000Y834750D02*
D03*
X1047250Y764000D02*
D03*
M02*
