G04*
G04 #@! TF.GenerationSoftware,Altium Limited,Altium Designer,26.4.1 (12)*
G04*
G04 Layer_Color=32896*
%FSLAX44Y44*%
%MOMM*%
G71*
G04*
G04 #@! TF.SameCoordinates,DF97135C-EA84-44B9-BAFA-11E43E9B2FB1*
G04*
G04*
G04 #@! TF.FilePolarity,Positive*
G04*
G01*
G75*
%ADD10C,0.2000*%
%ADD11C,0.1270*%
%ADD12C,0.1524*%
%ADD13C,0.0500*%
%ADD45C,0.6000*%
D10*
X774875Y1461440D02*
G03*
X774875Y1461440I-1000J0D01*
G01*
X901140Y1157360D02*
G03*
X901140Y1157360I-1000J0D01*
G01*
X780100Y1100450D02*
G03*
X780100Y1100450I-1000J0D01*
G01*
X1317900Y1349300D02*
G03*
X1317900Y1349300I-1000J0D01*
G01*
X770250Y659000D02*
G03*
X770250Y659000I-1000J0D01*
G01*
X782350Y720150D02*
G03*
X782350Y720150I-1000J0D01*
G01*
X946750Y427750D02*
G03*
X946750Y427750I-1000J0D01*
G01*
X900000Y393550D02*
G03*
X900000Y393550I-1000J0D01*
G01*
X752450Y636100D02*
G03*
X752450Y636100I-1000J0D01*
G01*
X807250Y391500D02*
G03*
X807250Y391500I-1000J0D01*
G01*
X873750D02*
G03*
X873750Y391500I-1000J0D01*
G01*
X938000Y420000D02*
G03*
X938000Y420000I-1000J0D01*
G01*
X1291000Y416050D02*
G03*
X1291000Y416050I-1000J0D01*
G01*
X1364450Y541500D02*
G03*
X1364450Y541500I-1000J0D01*
G01*
X1090100Y562500D02*
G03*
X1090100Y562500I-1000J0D01*
G01*
X1390750Y512300D02*
G03*
X1390750Y512300I-1000J0D01*
G01*
X992450Y599500D02*
G03*
X992450Y599500I-1000J0D01*
G01*
X965050Y1185800D02*
G03*
X965050Y1185800I-1000J0D01*
G01*
X953825Y1461250D02*
G03*
X953825Y1461250I-1000J0D01*
G01*
X862550Y1083750D02*
G03*
X862550Y1083750I-1000J0D01*
G01*
X1349500Y390600D02*
G03*
X1349500Y390600I-1000J0D01*
G01*
X1364450Y582500D02*
G03*
X1364450Y582500I-1000J0D01*
G01*
X1390750Y415900D02*
G03*
X1390750Y415900I-1000J0D01*
G01*
X880500Y1150000D02*
Y1152000D01*
X892000Y1150000D02*
Y1152000D01*
X1322750Y1153250D02*
Y1161250D01*
X1295250Y1153250D02*
X1322750D01*
X1295250Y1063250D02*
Y1153250D01*
X1250750Y1063250D02*
X1295250D01*
X1250750D02*
Y1071250D01*
X1142750D02*
X1250750D01*
X1142750Y1063250D02*
Y1071250D01*
X1098250Y1063250D02*
X1142750D01*
X1098250D02*
Y1153250D01*
X1070750D02*
X1098250D01*
X1070750D02*
Y1161250D01*
X1322750Y1247250D02*
Y1255250D01*
X1295250D02*
X1322750D01*
X1295250D02*
Y1345250D01*
X1250750D02*
X1295250D01*
X1250750Y1337250D02*
Y1345250D01*
X1142750Y1337250D02*
X1250750D01*
X1142750D02*
Y1345250D01*
X1098250D02*
X1142750D01*
X1098250Y1255250D02*
Y1345250D01*
X1070750Y1255250D02*
X1098250D01*
X1070750Y1247250D02*
Y1255250D01*
X697250Y1250840D02*
Y1454040D01*
X850500D01*
Y1250840D02*
Y1454040D01*
X697250Y1250840D02*
X850500D01*
X1341750Y1274750D02*
X1343750D01*
X1341750Y1263250D02*
X1343750D01*
X1035250Y1183250D02*
X1037250D01*
X1035250Y1194750D02*
X1037250D01*
X796000Y694000D02*
Y696000D01*
X784500Y694000D02*
Y696000D01*
X837500Y693500D02*
Y695500D01*
X826000Y693500D02*
Y695500D01*
X816750Y693750D02*
Y695750D01*
X805250Y693750D02*
Y695750D01*
X850000Y635000D02*
Y637000D01*
X838500Y635000D02*
Y637000D01*
X803250Y660250D02*
X805250D01*
X803250Y671750D02*
X805250D01*
X862250Y907000D02*
X864250D01*
X862250Y895500D02*
X864250D01*
X962250Y407500D02*
Y409500D01*
X973750Y407500D02*
Y409500D01*
X886300Y400050D02*
X911700D01*
X886300Y552450D02*
X911700D01*
Y400050D02*
Y552450D01*
X886300Y400050D02*
Y552450D01*
X924300Y426500D02*
X949700D01*
X924300Y502700D02*
X949700D01*
Y426500D02*
Y502700D01*
X924300Y426500D02*
Y502700D01*
X1277300Y422550D02*
Y498750D01*
X1302700Y422550D02*
Y498750D01*
X1277300D02*
X1302700D01*
X1277300Y422550D02*
X1302700D01*
X1229950Y528800D02*
X1356950D01*
X1229950Y554200D02*
X1356950D01*
X1229950Y528800D02*
Y554200D01*
X1356950Y528800D02*
Y554200D01*
X1377050Y518800D02*
Y595000D01*
X1402450Y518800D02*
Y595000D01*
X1377050D02*
X1402450D01*
X1377050Y518800D02*
X1402450D01*
X832550Y586800D02*
X984950D01*
X832550Y612200D02*
X984950D01*
X832550Y586800D02*
Y612200D01*
X984950Y586800D02*
Y612200D01*
X833500Y779000D02*
X835500D01*
X833500Y767500D02*
X835500D01*
X876200Y1250650D02*
X1029450D01*
Y1453850D01*
X876200D02*
X1029450D01*
X876200Y1250650D02*
Y1453850D01*
X711000Y1190000D02*
Y1192000D01*
X699500Y1190000D02*
Y1192000D01*
X981500Y1421250D02*
X983500D01*
X981500Y1409750D02*
X983500D01*
X714750Y1465750D02*
X716750D01*
X714750Y1477250D02*
X716750D01*
X858500Y1445500D02*
Y1447500D01*
X870000Y1445500D02*
Y1447500D01*
X982000Y1347250D02*
X984000D01*
X982000Y1358750D02*
X984000D01*
X981500Y1389500D02*
X983500D01*
X981500Y1401000D02*
X983500D01*
X804500Y1347000D02*
X806500D01*
X804500Y1358500D02*
X806500D01*
X805000Y1409500D02*
X807000D01*
X805000Y1421000D02*
X807000D01*
X805000Y1389000D02*
X807000D01*
X805000Y1400500D02*
X807000D01*
X1035000Y1170750D02*
X1037000D01*
X1035000Y1159250D02*
X1037000D01*
X784500Y1158750D02*
Y1160750D01*
X796000Y1158750D02*
Y1160750D01*
X784500Y1119500D02*
Y1121500D01*
X796000Y1119500D02*
Y1121500D01*
X795500Y1081000D02*
Y1083000D01*
X784000Y1081000D02*
Y1083000D01*
X1115750Y569750D02*
Y571750D01*
X1104250Y569750D02*
Y571750D01*
X1005500Y580750D02*
Y582750D01*
X1017000Y580750D02*
Y582750D01*
X974500Y770750D02*
X976500D01*
X974500Y759250D02*
X976500D01*
X1018000Y770250D02*
X1020000D01*
X1018000Y758750D02*
X1020000D01*
X941750Y668750D02*
Y670750D01*
X953250Y668750D02*
Y670750D01*
X1328250Y448750D02*
Y450750D01*
X1316750Y448750D02*
Y450750D01*
X808500Y534000D02*
Y536000D01*
X797000Y534000D02*
Y536000D01*
X846250Y534000D02*
Y536000D01*
X857750Y534000D02*
Y536000D01*
X1174000Y523500D02*
X1176000D01*
X1174000Y535000D02*
X1176000D01*
X1174750Y490250D02*
X1176750D01*
X1174750Y501750D02*
X1176750D01*
X1335800Y397100D02*
X1361200D01*
X1335800Y498700D02*
X1361200D01*
Y397100D02*
Y498700D01*
X1335800Y397100D02*
Y498700D01*
X1204550Y569800D02*
X1356950D01*
X1204550Y595200D02*
X1356950D01*
X1204550Y569800D02*
Y595200D01*
X1356950Y569800D02*
Y595200D01*
X1124250Y569750D02*
Y571750D01*
X1135750Y569750D02*
Y571750D01*
X1039750Y563000D02*
Y565000D01*
X1028250Y563000D02*
Y565000D01*
X1061750Y593750D02*
X1063750D01*
X1061750Y582250D02*
X1063750D01*
X1327500Y413500D02*
Y415500D01*
X1316000Y413500D02*
Y415500D01*
X1377050Y422400D02*
Y498600D01*
X1402450Y422400D02*
Y498600D01*
X1377050D02*
X1402450D01*
X1377050Y422400D02*
X1402450D01*
X1173000Y439500D02*
X1175000D01*
X1173000Y451000D02*
X1175000D01*
X1173000Y431500D02*
X1175000D01*
X1173000Y420000D02*
X1175000D01*
X1004750Y526500D02*
Y528500D01*
X993250Y526500D02*
Y528500D01*
X861000Y771750D02*
Y773750D01*
X872500Y771750D02*
Y773750D01*
X759500Y829250D02*
Y831250D01*
X771000Y829250D02*
Y831250D01*
X872250Y733500D02*
Y735500D01*
X860750Y733500D02*
Y735500D01*
X794000Y766750D02*
Y768750D01*
X805500Y766750D02*
Y768750D01*
X821750Y533750D02*
Y535750D01*
X833250Y533750D02*
Y535750D01*
X986500Y405000D02*
Y407000D01*
X998000Y405000D02*
Y407000D01*
X1019750Y404500D02*
X1021750D01*
X1019750Y393000D02*
X1021750D01*
D11*
X1051831Y512500D02*
G03*
X1051831Y512500I-5831J0D01*
G01*
X1051657D02*
G03*
X1051657Y512500I-5657J0D01*
G01*
X1051000D02*
G03*
X1051000Y512500I-5000J0D01*
G01*
X1050243D02*
G03*
X1050243Y512500I-4243J0D01*
G01*
X1048828D02*
G03*
X1048828Y512500I-2828J0D01*
G01*
X1049605D02*
G03*
X1049605Y512500I-3605J0D01*
G01*
X1047414D02*
G03*
X1047414Y512500I-1414J0D01*
G01*
X1048236D02*
G03*
X1048236Y512500I-2236J0D01*
G01*
X1047000Y513500D02*
G03*
X1047000Y513500I-1000J0D01*
G01*
X1034828Y537500D02*
G03*
X1034828Y537500I-2828J0D01*
G01*
X1034236D02*
G03*
X1034236Y537500I-2236J0D01*
G01*
X1033414D02*
G03*
X1033414Y537500I-1414J0D01*
G01*
X1033000D02*
G03*
X1033000Y537500I-1000J0D01*
G01*
X1033414D02*
G03*
X1033414Y537500I-1414J0D01*
G01*
X1033000Y538500D02*
G03*
X1033000Y538500I-1000J0D01*
G01*
X801250Y454000D02*
G03*
X801250Y454000I-17500J0D01*
G01*
X867750D02*
G03*
X867750Y454000I-17500J0D01*
G01*
X904000Y1139190D02*
X972000D01*
Y1076990D02*
Y1139190D01*
X966460Y1076990D02*
X972000D01*
X904000D02*
Y1139190D01*
Y1076990D02*
X909540D01*
X696600Y1064850D02*
X726600D01*
X751600D02*
X767600D01*
Y1088250D01*
Y1138050D02*
Y1161450D01*
X751600D02*
X767600D01*
X696600D02*
X726600D01*
X696600Y1064850D02*
Y1161450D01*
X1012040Y1074190D02*
X1057760D01*
X1012040D02*
Y1145310D01*
X1057760D01*
Y1074190D02*
Y1145310D01*
X1369400Y1384900D02*
X1399400D01*
X1328400D02*
X1344400D01*
X1328400Y1361500D02*
Y1384900D01*
Y1288300D02*
Y1311700D01*
Y1288300D02*
X1344400D01*
X1369400D02*
X1399400D01*
Y1384900D01*
X759750Y595500D02*
X772150D01*
X759750D02*
Y630500D01*
X812350Y595500D02*
X824750D01*
Y630500D01*
X698850Y684550D02*
Y781150D01*
X728850D01*
X753850D02*
X769850D01*
Y757750D02*
Y781150D01*
Y684550D02*
Y707950D01*
X753850Y684550D02*
X769850D01*
X698850D02*
X728850D01*
X1032000Y433500D02*
Y525500D01*
Y433500D02*
X1124000D01*
Y525500D01*
X1032000D02*
X1124000D01*
X941250Y406900D02*
Y408600D01*
X950250Y406900D02*
Y408600D01*
X746450Y397300D02*
Y671700D01*
X738950Y397300D02*
X746450D01*
X738950Y671700D02*
X746450D01*
X697950Y397300D02*
Y671700D01*
Y397300D02*
X714550D01*
X697950Y671700D02*
X714550D01*
X753778Y424003D02*
X813722D01*
Y484023D01*
X753753D02*
X813722D01*
X753753Y424079D02*
Y484023D01*
X820278Y424003D02*
X880222D01*
Y484023D01*
X820253D02*
X880222D01*
X820253Y424079D02*
Y484023D01*
X999650Y1222700D02*
Y1239300D01*
X725250Y1222700D02*
Y1239300D01*
X999650D01*
Y1190800D02*
Y1198300D01*
X725250Y1190800D02*
Y1198300D01*
Y1190800D02*
X999650D01*
X811250Y1106300D02*
Y1146200D01*
X861750Y1106300D02*
Y1146200D01*
D12*
X1142792Y564000D02*
G03*
X1142792Y564000I-762J0D01*
G01*
X948512Y726426D02*
G03*
X948512Y726426I-762J0D01*
G01*
X797571Y778649D02*
G03*
X797571Y778649I-1270J0D01*
G01*
X852920Y749650D02*
G03*
X852920Y749650I-762J0D01*
G01*
X1162169Y569270D02*
X1165832D01*
X1162169Y558730D02*
X1165832D01*
X953020Y702625D02*
Y706288D01*
X942480Y702625D02*
Y706288D01*
X813065Y790079D02*
Y859421D01*
X852435D01*
Y790079D02*
Y859421D01*
X813065Y790079D02*
X852435D01*
X1252241Y1398130D02*
Y1518272D01*
Y1398130D02*
X1396259D01*
Y1518272D01*
X1252241D02*
X1396259D01*
X1083241Y1397880D02*
Y1518022D01*
Y1397880D02*
X1227259D01*
Y1518022D01*
X1083241D02*
X1227259D01*
X834505Y737725D02*
Y743275D01*
X817995Y724244D02*
X834505D01*
X817995D02*
Y734125D01*
Y756756D02*
X834505D01*
X817995Y746875D02*
Y756756D01*
D13*
X689750Y1101346D02*
X691443D01*
X690596Y1102193D02*
Y1100500D01*
X961943Y1244384D02*
X961520Y1243961D01*
X960673D01*
X960250Y1244384D01*
Y1244807D01*
X960673Y1245230D01*
X961520D01*
X961943Y1245654D01*
Y1246077D01*
X961520Y1246500D01*
X960673D01*
X960250Y1246077D01*
X962789Y1243961D02*
X964482D01*
X963636D01*
Y1246500D01*
X967021Y1243961D02*
X965328D01*
Y1246500D01*
X967021D01*
X965328Y1245230D02*
X966175D01*
X967868Y1246500D02*
Y1243961D01*
X969137D01*
X969560Y1244384D01*
Y1245230D01*
X969137Y1245654D01*
X967868D01*
X932250Y1246250D02*
Y1243711D01*
X933520D01*
X933943Y1244134D01*
Y1244980D01*
X933520Y1245404D01*
X932250D01*
X936482Y1243711D02*
X934789D01*
Y1246250D01*
X936482D01*
X934789Y1244980D02*
X935636D01*
X937328Y1243711D02*
Y1246250D01*
X939021D01*
X941560Y1244134D02*
X941137Y1243711D01*
X940291D01*
X939867Y1244134D01*
Y1245827D01*
X940291Y1246250D01*
X941137D01*
X941560Y1245827D01*
X942407Y1243711D02*
X944100D01*
X943253D01*
Y1246250D01*
X944946D02*
Y1243711D01*
X946216D01*
X946639Y1244134D01*
Y1244980D01*
X946216Y1245404D01*
X944946D01*
X945792D02*
X946639Y1246250D01*
X947485Y1243711D02*
Y1246250D01*
X949178D01*
X907750Y1246500D02*
Y1243961D01*
X909443Y1246500D01*
Y1243961D01*
X911982D02*
X910289D01*
Y1246500D01*
X911982D01*
X910289Y1245230D02*
X911136D01*
X912828Y1246500D02*
Y1243961D01*
X914521Y1246500D01*
Y1243961D01*
X915368D02*
Y1246500D01*
X916637D01*
X917060Y1246077D01*
Y1245654D01*
X916637Y1245230D01*
X915368D01*
X916637D01*
X917060Y1244807D01*
Y1244384D01*
X916637Y1243961D01*
X915368D01*
X917907D02*
Y1246500D01*
X919600D01*
X920446D02*
X921292D01*
X920869D01*
Y1243961D01*
X920446Y1244384D01*
X881750Y1246250D02*
Y1243711D01*
X883443Y1246250D01*
Y1243711D01*
X885982Y1244134D02*
X885559Y1243711D01*
X884712D01*
X884289Y1244134D01*
Y1244557D01*
X884712Y1244980D01*
X885559D01*
X885982Y1245404D01*
Y1245827D01*
X885559Y1246250D01*
X884712D01*
X884289Y1245827D01*
X886828Y1243711D02*
Y1246250D01*
X888521D01*
X889368D02*
Y1243711D01*
X890637D01*
X891060Y1244134D01*
Y1244980D01*
X890637Y1245404D01*
X889368D01*
X891907Y1246250D02*
X892753D01*
X892330D01*
Y1243711D01*
X891907Y1244134D01*
X859750Y1243461D02*
Y1246000D01*
X861020D01*
X861443Y1245577D01*
Y1243884D01*
X861020Y1243461D01*
X859750D01*
X862289D02*
X863136D01*
X862712D01*
Y1246000D01*
X862289D01*
X863136D01*
X864405D02*
Y1243461D01*
X865675D01*
X866098Y1243884D01*
Y1244730D01*
X865675Y1245154D01*
X864405D01*
X865251D02*
X866098Y1246000D01*
X829000Y1245750D02*
Y1243211D01*
X830693Y1245750D01*
Y1243211D01*
X833232D02*
X831539D01*
Y1245750D01*
X833232D01*
X831539Y1244480D02*
X832386D01*
X834078Y1245750D02*
Y1243211D01*
X835771Y1245750D01*
Y1243211D01*
X836618D02*
Y1245750D01*
X837887D01*
X838310Y1245327D01*
Y1244904D01*
X837887Y1244480D01*
X836618D01*
X837887D01*
X838310Y1244057D01*
Y1243634D01*
X837887Y1243211D01*
X836618D01*
X839157D02*
Y1245750D01*
X840850D01*
X843389D02*
X841696D01*
X843389Y1244057D01*
Y1243634D01*
X842965Y1243211D01*
X842119D01*
X841696Y1243634D01*
X806250Y1245750D02*
Y1243211D01*
X807943Y1245750D01*
Y1243211D01*
X810482Y1243634D02*
X810059Y1243211D01*
X809212D01*
X808789Y1243634D01*
Y1244057D01*
X809212Y1244480D01*
X810059D01*
X810482Y1244904D01*
Y1245327D01*
X810059Y1245750D01*
X809212D01*
X808789Y1245327D01*
X811328Y1243211D02*
Y1245750D01*
X813021D01*
X813867D02*
Y1243211D01*
X815137D01*
X815560Y1243634D01*
Y1244480D01*
X815137Y1244904D01*
X813867D01*
X818100Y1245750D02*
X816407D01*
X818100Y1244057D01*
Y1243634D01*
X817676Y1243211D01*
X816830D01*
X816407Y1243634D01*
X783000Y1243211D02*
Y1244904D01*
X783846Y1245750D01*
X784693Y1244904D01*
Y1243211D01*
X785539D02*
Y1245750D01*
X786809D01*
X787232Y1245327D01*
Y1243634D01*
X786809Y1243211D01*
X785539D01*
X788078D02*
Y1245750D01*
X789348D01*
X789771Y1245327D01*
Y1243634D01*
X789348Y1243211D01*
X788078D01*
X760193Y1243634D02*
X759770Y1243211D01*
X758923D01*
X758500Y1243634D01*
Y1245327D01*
X758923Y1245750D01*
X759770D01*
X760193Y1245327D01*
Y1244480D01*
X759346D01*
X761039Y1245750D02*
Y1243211D01*
X762732Y1245750D01*
Y1243211D01*
X763578D02*
Y1245750D01*
X764848D01*
X765271Y1245327D01*
Y1243634D01*
X764848Y1243211D01*
X763578D01*
X718711Y1240750D02*
Y1239057D01*
Y1239904D01*
X721250D01*
X718711Y1236941D02*
Y1237788D01*
X719134Y1238211D01*
X720827D01*
X721250Y1237788D01*
Y1236941D01*
X720827Y1236518D01*
X719134D01*
X718711Y1236941D01*
Y1233132D02*
X721250D01*
Y1231863D01*
X720827Y1231440D01*
X720404D01*
X719980Y1231863D01*
Y1233132D01*
Y1231863D01*
X719557Y1231440D01*
X719134D01*
X718711Y1231863D01*
Y1233132D01*
Y1229324D02*
Y1230170D01*
X719134Y1230593D01*
X720827D01*
X721250Y1230170D01*
Y1229324D01*
X720827Y1228901D01*
X719134D01*
X718711Y1229324D01*
X721250Y1228054D02*
X719557D01*
X718711Y1227208D01*
X719557Y1226361D01*
X721250D01*
X719980D01*
Y1228054D01*
X721250Y1225515D02*
X718711D01*
Y1224245D01*
X719134Y1223822D01*
X719980D01*
X720404Y1224245D01*
Y1225515D01*
Y1224669D02*
X721250Y1223822D01*
X718711Y1222976D02*
X721250D01*
Y1221706D01*
X720827Y1221283D01*
X719134D01*
X718711Y1221706D01*
Y1222976D01*
X721250Y1217897D02*
X719557D01*
X718711Y1217051D01*
X719557Y1216205D01*
X721250D01*
X719980D01*
Y1217897D01*
X1338693Y1529000D02*
X1337000D01*
X1338693Y1527307D01*
Y1526884D01*
X1338270Y1526461D01*
X1337423D01*
X1337000Y1526884D01*
X1300000Y1529000D02*
X1300846D01*
X1300423D01*
Y1526461D01*
X1300000Y1526884D01*
X1168443Y1529000D02*
X1166750D01*
X1168443Y1527307D01*
Y1526884D01*
X1168020Y1526461D01*
X1167173D01*
X1166750Y1526884D01*
X1130750Y1529000D02*
X1131596D01*
X1131173D01*
Y1526461D01*
X1130750Y1526884D01*
X1316250Y1394000D02*
Y1391461D01*
X1317096Y1392307D01*
X1317943Y1391461D01*
Y1394000D01*
X1320059Y1391461D02*
X1319212D01*
X1318789Y1391884D01*
Y1393577D01*
X1319212Y1394000D01*
X1320059D01*
X1320482Y1393577D01*
Y1391884D01*
X1320059Y1391461D01*
X1321328D02*
X1323021D01*
X1322175D01*
Y1394000D01*
X1325560D02*
X1323867D01*
X1325560Y1392307D01*
Y1391884D01*
X1325137Y1391461D01*
X1324291D01*
X1323867Y1391884D01*
X1147500Y1393750D02*
Y1391211D01*
X1148346Y1392057D01*
X1149193Y1391211D01*
Y1393750D01*
X1151309Y1391211D02*
X1150462D01*
X1150039Y1391634D01*
Y1393327D01*
X1150462Y1393750D01*
X1151309D01*
X1151732Y1393327D01*
Y1391634D01*
X1151309Y1391211D01*
X1152578D02*
X1154271D01*
X1153425D01*
Y1393750D01*
X1155117D02*
X1155964D01*
X1155541D01*
Y1391211D01*
X1155117Y1391634D01*
X1411000Y1100000D02*
Y1101693D01*
X1409250Y1129904D02*
X1410943D01*
X1410096Y1129057D02*
Y1130750D01*
X1404750Y1328750D02*
X1407289D01*
Y1330020D01*
X1406866Y1330443D01*
X1406020D01*
X1405596Y1330020D01*
Y1328750D01*
X1407289Y1332982D02*
Y1331289D01*
X1404750D01*
Y1332982D01*
X1406020Y1331289D02*
Y1332135D01*
X1407289Y1333828D02*
X1404750D01*
Y1335521D01*
X1407289Y1336367D02*
Y1338060D01*
Y1337214D01*
X1404750D01*
X1407289Y1338907D02*
Y1339753D01*
Y1339330D01*
X1404750D01*
Y1338907D01*
Y1339753D01*
X1407289Y1342715D02*
Y1341023D01*
X1404750D01*
Y1342715D01*
X1406020Y1341023D02*
Y1341869D01*
X1404750Y1343562D02*
X1407289D01*
Y1344831D01*
X1406866Y1345255D01*
X1406020D01*
X1405596Y1344831D01*
Y1343562D01*
Y1344408D02*
X1404750Y1345255D01*
X690750Y1123750D02*
Y1125443D01*
X689461Y1116250D02*
X691154D01*
X692000Y1115404D01*
X691154Y1114557D01*
X689461D01*
Y1113711D02*
X692000D01*
Y1112441D01*
X691577Y1112018D01*
X691154D01*
X690730Y1112441D01*
Y1113711D01*
Y1112441D01*
X690307Y1112018D01*
X689884D01*
X689461Y1112441D01*
Y1113711D01*
Y1111172D02*
X692000D01*
Y1109902D01*
X691577Y1109479D01*
X691154D01*
X690730Y1109902D01*
Y1111172D01*
Y1109902D01*
X690307Y1109479D01*
X689884D01*
X689461Y1109902D01*
Y1111172D01*
X943500Y509039D02*
Y506500D01*
X942230D01*
X941807Y506923D01*
Y507346D01*
X942230Y507770D01*
X943500D01*
X942230D01*
X941807Y508193D01*
Y508616D01*
X942230Y509039D01*
X943500D01*
X939691D02*
X940538D01*
X940961Y508616D01*
Y506923D01*
X940538Y506500D01*
X939691D01*
X939268Y506923D01*
Y508616D01*
X939691Y509039D01*
X937152D02*
X937999D01*
X938422Y508616D01*
Y506923D01*
X937999Y506500D01*
X937152D01*
X936729Y506923D01*
Y508616D01*
X937152Y509039D01*
X935882D02*
X934190D01*
X935036D01*
Y506500D01*
X933343Y508616D02*
X932920Y509039D01*
X932074D01*
X931650Y508616D01*
Y506923D01*
X932074Y506500D01*
X932920D01*
X933343Y506923D01*
Y508616D01*
X956250Y486596D02*
X955404Y485750D01*
X954557D01*
X953711Y486596D01*
X954134Y487866D02*
X953711Y488289D01*
Y489136D01*
X954134Y489559D01*
X955827D01*
X956250Y489136D01*
Y488289D01*
X955827Y487866D01*
X954134D01*
X956250Y490405D02*
X955404Y491251D01*
X954557D01*
X953711Y490405D01*
X953711Y456750D02*
X956250D01*
Y458019D01*
X955827Y458443D01*
X955404D01*
X954980Y458019D01*
Y456750D01*
Y458019D01*
X954557Y458443D01*
X954134D01*
X953711Y458019D01*
Y456750D01*
Y460559D02*
Y459712D01*
X954134Y459289D01*
X955827D01*
X956250Y459712D01*
Y460559D01*
X955827Y460982D01*
X954134D01*
X953711Y460559D01*
Y463098D02*
Y462252D01*
X954134Y461828D01*
X955827D01*
X956250Y462252D01*
Y463098D01*
X955827Y463521D01*
X954134D01*
X953711Y463098D01*
Y464367D02*
Y466060D01*
Y465214D01*
X956250D01*
X954134Y466907D02*
X953711Y467330D01*
Y468176D01*
X954134Y468600D01*
X955827D01*
X956250Y468176D01*
Y467330D01*
X955827Y466907D01*
X954134D01*
X956500Y436096D02*
X955654Y435250D01*
X954807D01*
X953961Y436096D01*
X956500Y437366D02*
Y438212D01*
Y437789D01*
X953961D01*
X954384Y437366D01*
X956500Y439482D02*
X955654Y440328D01*
X954807D01*
X953961Y439482D01*
X1395750Y601539D02*
Y599000D01*
X1394480D01*
X1394057Y599423D01*
Y599846D01*
X1394480Y600270D01*
X1395750D01*
X1394480D01*
X1394057Y600693D01*
Y601116D01*
X1394480Y601539D01*
X1395750D01*
X1391941D02*
X1392788D01*
X1393211Y601116D01*
Y599423D01*
X1392788Y599000D01*
X1391941D01*
X1391518Y599423D01*
Y601116D01*
X1391941Y601539D01*
X1389402D02*
X1390249D01*
X1390672Y601116D01*
Y599423D01*
X1390249Y599000D01*
X1389402D01*
X1388979Y599423D01*
Y601116D01*
X1389402Y601539D01*
X1388132D02*
X1386440D01*
X1387286D01*
Y599000D01*
X1385593Y601116D02*
X1385170Y601539D01*
X1384324D01*
X1383900Y601116D01*
Y599423D01*
X1384324Y599000D01*
X1385170D01*
X1385593Y599423D01*
Y601116D01*
X1247000Y524289D02*
Y521750D01*
X1246154Y522596D01*
X1245307Y521750D01*
Y524289D01*
X1244461D02*
Y521750D01*
Y522596D01*
X1242768Y524289D01*
X1244038Y523020D01*
X1242768Y521750D01*
X1241922Y524289D02*
Y522173D01*
X1241498Y521750D01*
X1240652D01*
X1240229Y522173D01*
Y524289D01*
X1239382Y521750D02*
Y524289D01*
X1238113D01*
X1237690Y523866D01*
Y523020D01*
X1238113Y522596D01*
X1239382D01*
X1272250Y521750D02*
Y524289D01*
X1270980D01*
X1270557Y523866D01*
Y523020D01*
X1270980Y522596D01*
X1272250D01*
X1271404D02*
X1270557Y521750D01*
X1268018Y524289D02*
X1269711D01*
Y521750D01*
X1268018D01*
X1269711Y523020D02*
X1268864D01*
X1265479Y523866D02*
X1265902Y524289D01*
X1266749D01*
X1267172Y523866D01*
Y523443D01*
X1266749Y523020D01*
X1265902D01*
X1265479Y522596D01*
Y522173D01*
X1265902Y521750D01*
X1266749D01*
X1267172Y522173D01*
X1264632Y521750D02*
X1263786D01*
X1264209D01*
Y524289D01*
X1264632Y523866D01*
X1225500Y550250D02*
X1222961D01*
Y548980D01*
X1223384Y548557D01*
X1224230D01*
X1224654Y548980D01*
Y550250D01*
Y549404D02*
X1225500Y548557D01*
X1222961Y546018D02*
Y547711D01*
X1225500D01*
Y546018D01*
X1224230Y547711D02*
Y546864D01*
X1223384Y543479D02*
X1222961Y543902D01*
Y544748D01*
X1223384Y545172D01*
X1223807D01*
X1224230Y544748D01*
Y543902D01*
X1224654Y543479D01*
X1225077D01*
X1225500Y543902D01*
Y544748D01*
X1225077Y545172D01*
X1222961Y540940D02*
Y542632D01*
X1225500D01*
Y540940D01*
X1224230Y542632D02*
Y541786D01*
X1225500Y540093D02*
X1222961D01*
Y538824D01*
X1223384Y538400D01*
X1224230D01*
X1224654Y538824D01*
Y540093D01*
Y539247D02*
X1225500Y538400D01*
X1222961Y537554D02*
X1224654D01*
X1225500Y536708D01*
X1224654Y535861D01*
X1222961D01*
Y533322D02*
Y535015D01*
X1225500D01*
Y533322D01*
X1224230Y535015D02*
Y534169D01*
X1222961Y532476D02*
X1225500D01*
Y531206D01*
X1225077Y530783D01*
X1223384D01*
X1222961Y531206D01*
Y532476D01*
X1298000Y521750D02*
Y524289D01*
X1296730D01*
X1296307Y523866D01*
Y523020D01*
X1296730Y522596D01*
X1298000D01*
X1297154D02*
X1296307Y521750D01*
X1293768Y524289D02*
X1295461D01*
Y521750D01*
X1293768D01*
X1295461Y523020D02*
X1294615D01*
X1291229Y523866D02*
X1291652Y524289D01*
X1292498D01*
X1292922Y523866D01*
Y523443D01*
X1292498Y523020D01*
X1291652D01*
X1291229Y522596D01*
Y522173D01*
X1291652Y521750D01*
X1292498D01*
X1292922Y522173D01*
X1288690Y521750D02*
X1290383D01*
X1288690Y523443D01*
Y523866D01*
X1289113Y524289D01*
X1289959D01*
X1290383Y523866D01*
X1323750Y521750D02*
Y524289D01*
X1322480D01*
X1322057Y523866D01*
Y523020D01*
X1322480Y522596D01*
X1323750D01*
X1322904D02*
X1322057Y521750D01*
X1319518Y524289D02*
X1321211D01*
Y521750D01*
X1319518D01*
X1321211Y523020D02*
X1320364D01*
X1316979Y523866D02*
X1317402Y524289D01*
X1318248D01*
X1318672Y523866D01*
Y523443D01*
X1318248Y523020D01*
X1317402D01*
X1316979Y522596D01*
Y522173D01*
X1317402Y521750D01*
X1318248D01*
X1318672Y522173D01*
X1316133Y523866D02*
X1315709Y524289D01*
X1314863D01*
X1314440Y523866D01*
Y523443D01*
X1314863Y523020D01*
X1315286D01*
X1314863D01*
X1314440Y522596D01*
Y522173D01*
X1314863Y521750D01*
X1315709D01*
X1316133Y522173D01*
X1346557Y523866D02*
X1346980Y524289D01*
X1347827D01*
X1348250Y523866D01*
Y522173D01*
X1347827Y521750D01*
X1346980D01*
X1346557Y522173D01*
Y523020D01*
X1347404D01*
X1345711Y521750D02*
Y524289D01*
X1344018Y521750D01*
Y524289D01*
X1343172D02*
Y521750D01*
X1341902D01*
X1341479Y522173D01*
Y523866D01*
X1341902Y524289D01*
X1343172D01*
X1272866Y484443D02*
X1273289Y484020D01*
Y483173D01*
X1272866Y482750D01*
X1271173D01*
X1270750Y483173D01*
Y484020D01*
X1271173Y484443D01*
X1272020D01*
Y483596D01*
X1270750Y485289D02*
X1273289D01*
X1270750Y486982D01*
X1273289D01*
Y487828D02*
X1270750D01*
Y489098D01*
X1271173Y489521D01*
X1272866D01*
X1273289Y489098D01*
Y487828D01*
X1270750Y432250D02*
X1273289D01*
Y433520D01*
X1272866Y433943D01*
X1272020D01*
X1271596Y433520D01*
Y432250D01*
Y433096D02*
X1270750Y433943D01*
X1273289Y434789D02*
X1270750Y436482D01*
X1273289D02*
X1270750Y434789D01*
X1273289Y458250D02*
Y459943D01*
Y459096D01*
X1270750D01*
X1273289Y460789D02*
X1270750Y462482D01*
X1273289D02*
X1270750Y460789D01*
X1365634Y411807D02*
X1365211Y412230D01*
Y413077D01*
X1365634Y413500D01*
X1366057D01*
X1366480Y413077D01*
Y412230D01*
X1366904Y411807D01*
X1367327D01*
X1367750Y412230D01*
Y413077D01*
X1367327Y413500D01*
X1365634Y409268D02*
X1365211Y409691D01*
Y410538D01*
X1365634Y410961D01*
X1367327D01*
X1367750Y410538D01*
Y409691D01*
X1367327Y409268D01*
X1365211Y408422D02*
X1367750D01*
Y406729D01*
X1365634Y437057D02*
X1365211Y437480D01*
Y438327D01*
X1365634Y438750D01*
X1366057D01*
X1366480Y438327D01*
Y437480D01*
X1366904Y437057D01*
X1367327D01*
X1367750Y437480D01*
Y438327D01*
X1367327Y438750D01*
X1365211Y436211D02*
X1367750D01*
Y434941D01*
X1367327Y434518D01*
X1365634D01*
X1365211Y434941D01*
Y436211D01*
X1367750Y433672D02*
X1366057D01*
X1365211Y432825D01*
X1366057Y431979D01*
X1367750D01*
X1366480D01*
Y433672D01*
X1365211Y464000D02*
X1366904D01*
X1367750Y463154D01*
X1366904Y462307D01*
X1365211D01*
Y461461D02*
X1367750D01*
Y460191D01*
X1367327Y459768D01*
X1365634D01*
X1365211Y460191D01*
Y461461D01*
Y458922D02*
X1367750D01*
Y457652D01*
X1367327Y457229D01*
X1365634D01*
X1365211Y457652D01*
Y458922D01*
X1409500Y533154D02*
X1408654Y534000D01*
X1407807D01*
X1406961Y533154D01*
X1409500Y531884D02*
Y531038D01*
Y531461D01*
X1406961D01*
X1407384Y531884D01*
X1409500Y529768D02*
X1408654Y528922D01*
X1407807D01*
X1406961Y529768D01*
X1406711Y562750D02*
X1409250D01*
Y561480D01*
X1408827Y561057D01*
X1408404D01*
X1407980Y561480D01*
Y562750D01*
Y561480D01*
X1407557Y561057D01*
X1407134D01*
X1406711Y561480D01*
Y562750D01*
Y558941D02*
Y559788D01*
X1407134Y560211D01*
X1408827D01*
X1409250Y559788D01*
Y558941D01*
X1408827Y558518D01*
X1407134D01*
X1406711Y558941D01*
Y556402D02*
Y557248D01*
X1407134Y557672D01*
X1408827D01*
X1409250Y557248D01*
Y556402D01*
X1408827Y555979D01*
X1407134D01*
X1406711Y556402D01*
Y555132D02*
Y553440D01*
Y554286D01*
X1409250D01*
Y552593D02*
Y551747D01*
Y552170D01*
X1406711D01*
X1407134Y552593D01*
X1409500Y583904D02*
X1408654Y584750D01*
X1407807D01*
X1406961Y583904D01*
X1407384Y582634D02*
X1406961Y582211D01*
Y581364D01*
X1407384Y580941D01*
X1409077D01*
X1409500Y581364D01*
Y582211D01*
X1409077Y582634D01*
X1407384D01*
X1409500Y580095D02*
X1408654Y579248D01*
X1407807D01*
X1406961Y580095D01*
X1409000Y437500D02*
X1406461D01*
Y436230D01*
X1406884Y435807D01*
X1407730D01*
X1408154Y436230D01*
Y437500D01*
Y436654D02*
X1409000Y435807D01*
X1406461Y434961D02*
X1409000Y433268D01*
X1406461D02*
X1409000Y434961D01*
X1406461Y463500D02*
Y461807D01*
Y462654D01*
X1409000D01*
X1406461Y460961D02*
X1409000Y459268D01*
X1406461D02*
X1409000Y460961D01*
X1407134Y487557D02*
X1406711Y487980D01*
Y488827D01*
X1407134Y489250D01*
X1408827D01*
X1409250Y488827D01*
Y487980D01*
X1408827Y487557D01*
X1407980D01*
Y488404D01*
X1409250Y486711D02*
X1406711D01*
X1409250Y485018D01*
X1406711D01*
Y484172D02*
X1409250D01*
Y482902D01*
X1408827Y482479D01*
X1407134D01*
X1406711Y482902D01*
Y484172D01*
X916384Y540057D02*
X915961Y540480D01*
Y541327D01*
X916384Y541750D01*
X918077D01*
X918500Y541327D01*
Y540480D01*
X918077Y540057D01*
X917230D01*
Y540904D01*
X918500Y539211D02*
X915961D01*
X918500Y537518D01*
X915961D01*
Y536672D02*
X918500D01*
Y535402D01*
X918077Y534979D01*
X916384D01*
X915961Y535402D01*
Y536672D01*
X918500Y517500D02*
X915961D01*
X918500Y515807D01*
X915961D01*
X918500Y514961D02*
X915961D01*
Y513691D01*
X916384Y513268D01*
X917230D01*
X917654Y513691D01*
Y514961D01*
Y514114D02*
X918500Y513268D01*
X916384Y510729D02*
X915961Y511152D01*
Y511998D01*
X916384Y512422D01*
X916807D01*
X917230Y511998D01*
Y511152D01*
X917654Y510729D01*
X918077D01*
X918500Y511152D01*
Y511998D01*
X918077Y512422D01*
X915961Y509883D02*
Y508190D01*
Y509036D01*
X918500D01*
X916384Y489307D02*
X915961Y489730D01*
Y490577D01*
X916384Y491000D01*
X916807D01*
X917230Y490577D01*
Y489730D01*
X917654Y489307D01*
X918077D01*
X918500Y489730D01*
Y490577D01*
X918077Y491000D01*
X915961Y488461D02*
X918500D01*
X917654Y487614D01*
X918500Y486768D01*
X915961D01*
Y484652D02*
Y485499D01*
X916384Y485922D01*
X918077D01*
X918500Y485499D01*
Y484652D01*
X918077Y484229D01*
X916384D01*
X915961Y484652D01*
X916384Y440807D02*
X915961Y441230D01*
Y442077D01*
X916384Y442500D01*
X916807D01*
X917230Y442077D01*
Y441230D01*
X917654Y440807D01*
X918077D01*
X918500Y441230D01*
Y442077D01*
X918077Y442500D01*
X915961Y439961D02*
X918500D01*
X917654Y439114D01*
X918500Y438268D01*
X915961D01*
Y437422D02*
X918500D01*
Y436152D01*
X918077Y435729D01*
X916384D01*
X915961Y436152D01*
Y437422D01*
Y434882D02*
Y434036D01*
Y434459D01*
X918500D01*
Y434882D01*
Y434036D01*
X915961Y431497D02*
Y432343D01*
X916384Y432766D01*
X918077D01*
X918500Y432343D01*
Y431497D01*
X918077Y431074D01*
X916384D01*
X915961Y431497D01*
X916211Y415000D02*
X917904D01*
X918750Y414154D01*
X917904Y413307D01*
X916211D01*
Y412461D02*
X918750D01*
Y411191D01*
X918327Y410768D01*
X916634D01*
X916211Y411191D01*
Y412461D01*
Y409922D02*
X918750D01*
Y408652D01*
X918327Y408229D01*
X916634D01*
X916211Y408652D01*
Y409922D01*
X692866Y633193D02*
X693289Y632770D01*
Y631923D01*
X692866Y631500D01*
X692443D01*
X692020Y631923D01*
Y632770D01*
X691596Y633193D01*
X691173D01*
X690750Y632770D01*
Y631923D01*
X691173Y631500D01*
X693289Y634039D02*
Y635732D01*
Y634885D01*
X690750D01*
X693289Y638271D02*
Y636578D01*
X690750D01*
Y638271D01*
X692020Y636578D02*
Y637425D01*
X690750Y639118D02*
X693289D01*
Y640387D01*
X692866Y640810D01*
X692020D01*
X691596Y640387D01*
Y639118D01*
X691000Y578500D02*
X693539D01*
X691000Y580193D01*
X693539D01*
Y582732D02*
Y581039D01*
X691000D01*
Y582732D01*
X692270Y581039D02*
Y581886D01*
X691000Y583578D02*
X693539D01*
X691000Y585271D01*
X693539D01*
Y586118D02*
X691000D01*
Y587387D01*
X691423Y587810D01*
X691846D01*
X692270Y587387D01*
Y586118D01*
Y587387D01*
X692693Y587810D01*
X693116D01*
X693539Y587387D01*
Y586118D01*
Y588657D02*
X691000D01*
Y590350D01*
Y591196D02*
Y592042D01*
Y591619D01*
X693539D01*
X693116Y591196D01*
X691000Y602750D02*
X693539D01*
Y604020D01*
X693116Y604443D01*
X692270D01*
X691846Y604020D01*
Y602750D01*
X693539Y606982D02*
Y605289D01*
X691000D01*
Y606982D01*
X692270Y605289D02*
Y606136D01*
X693539Y607828D02*
X691000D01*
Y609521D01*
X693539Y610368D02*
Y612060D01*
Y611214D01*
X691000D01*
X693539Y612907D02*
Y613753D01*
Y613330D01*
X691000D01*
Y612907D01*
Y613753D01*
X693539Y616716D02*
Y615023D01*
X691000D01*
Y616716D01*
X692270Y615023D02*
Y615869D01*
X691000Y617562D02*
X693539D01*
Y618831D01*
X693116Y619255D01*
X692270D01*
X691846Y618831D01*
Y617562D01*
Y618408D02*
X691000Y619255D01*
Y555250D02*
X693539D01*
X691000Y556943D01*
X693539D01*
X693116Y559482D02*
X693539Y559059D01*
Y558212D01*
X693116Y557789D01*
X692693D01*
X692270Y558212D01*
Y559059D01*
X691846Y559482D01*
X691423D01*
X691000Y559059D01*
Y558212D01*
X691423Y557789D01*
X693539Y560328D02*
X691000D01*
Y562021D01*
Y562868D02*
X693539D01*
Y564137D01*
X693116Y564560D01*
X692270D01*
X691846Y564137D01*
Y562868D01*
X691000Y565407D02*
Y566253D01*
Y565830D01*
X693539D01*
X693116Y565407D01*
X693539Y532250D02*
X691000D01*
Y533520D01*
X691423Y533943D01*
X693116D01*
X693539Y533520D01*
Y532250D01*
Y534789D02*
Y535635D01*
Y535212D01*
X691000D01*
Y534789D01*
Y535635D01*
Y536905D02*
X693539D01*
Y538175D01*
X693116Y538598D01*
X692270D01*
X691846Y538175D01*
Y536905D01*
Y537752D02*
X691000Y538598D01*
Y501500D02*
X693539D01*
X691000Y503193D01*
X693539D01*
Y505732D02*
Y504039D01*
X691000D01*
Y505732D01*
X692270Y504039D02*
Y504885D01*
X691000Y506578D02*
X693539D01*
X691000Y508271D01*
X693539D01*
Y509118D02*
X691000D01*
Y510387D01*
X691423Y510810D01*
X691846D01*
X692270Y510387D01*
Y509118D01*
Y510387D01*
X692693Y510810D01*
X693116D01*
X693539Y510387D01*
Y509118D01*
Y511657D02*
X691000D01*
Y513349D01*
Y515889D02*
Y514196D01*
X692693Y515889D01*
X693116D01*
X693539Y515466D01*
Y514619D01*
X693116Y514196D01*
X691000Y476500D02*
X693539D01*
X691000Y478193D01*
X693539D01*
X693116Y480732D02*
X693539Y480309D01*
Y479462D01*
X693116Y479039D01*
X692693D01*
X692270Y479462D01*
Y480309D01*
X691846Y480732D01*
X691423D01*
X691000Y480309D01*
Y479462D01*
X691423Y479039D01*
X693539Y481578D02*
X691000D01*
Y483271D01*
Y484118D02*
X693539D01*
Y485387D01*
X693116Y485810D01*
X692270D01*
X691846Y485387D01*
Y484118D01*
X691000Y488349D02*
Y486657D01*
X692693Y488349D01*
X693116D01*
X693539Y487926D01*
Y487080D01*
X693116Y486657D01*
X693539Y455250D02*
X691846D01*
X691000Y456096D01*
X691846Y456943D01*
X693539D01*
Y457789D02*
X691000D01*
Y459059D01*
X691423Y459482D01*
X693116D01*
X693539Y459059D01*
Y457789D01*
Y460328D02*
X691000D01*
Y461598D01*
X691423Y462021D01*
X693116D01*
X693539Y461598D01*
Y460328D01*
X693116Y430943D02*
X693539Y430519D01*
Y429673D01*
X693116Y429250D01*
X691423D01*
X691000Y429673D01*
Y430519D01*
X691423Y430943D01*
X692270D01*
Y430096D01*
X691000Y431789D02*
X693539D01*
X691000Y433482D01*
X693539D01*
Y434328D02*
X691000D01*
Y435598D01*
X691423Y436021D01*
X693116D01*
X693539Y435598D01*
Y434328D01*
X765711Y577250D02*
X767404D01*
X768250Y578096D01*
X767404Y578943D01*
X765711D01*
Y579789D02*
X768250D01*
Y581059D01*
X767827Y581482D01*
X766134D01*
X765711Y581059D01*
Y579789D01*
Y582328D02*
X768250D01*
Y583598D01*
X767827Y584021D01*
X766134D01*
X765711Y583598D01*
Y582328D01*
X890961Y819000D02*
X892654D01*
X893500Y819846D01*
X892654Y820693D01*
X890961D01*
Y821539D02*
Y823232D01*
Y822386D01*
X893500D01*
X891384Y825771D02*
X890961Y825348D01*
Y824501D01*
X891384Y824078D01*
X893077D01*
X893500Y824501D01*
Y825348D01*
X893077Y825771D01*
X890961Y826618D02*
X893500D01*
Y827887D01*
X893077Y828310D01*
X891384D01*
X890961Y827887D01*
Y826618D01*
X690250Y770346D02*
X691943D01*
X691096Y771193D02*
Y769500D01*
X731500Y791039D02*
Y789346D01*
X732346Y788500D01*
X733193Y789346D01*
Y791039D01*
X735732Y790616D02*
X735309Y791039D01*
X734462D01*
X734039Y790616D01*
Y788923D01*
X734462Y788500D01*
X735309D01*
X735732Y788923D01*
X738271Y790616D02*
X737848Y791039D01*
X737001D01*
X736578Y790616D01*
Y788923D01*
X737001Y788500D01*
X737848D01*
X738271Y788923D01*
X736000Y392289D02*
X734307D01*
X735154D01*
Y389750D01*
X732191Y392289D02*
X733038D01*
X733461Y391866D01*
Y390173D01*
X733038Y389750D01*
X732191D01*
X731768Y390173D01*
Y391866D01*
X732191Y392289D01*
X728382D02*
Y389750D01*
X727113D01*
X726690Y390173D01*
Y390596D01*
X727113Y391020D01*
X728382D01*
X727113D01*
X726690Y391443D01*
Y391866D01*
X727113Y392289D01*
X728382D01*
X724574D02*
X725420D01*
X725843Y391866D01*
Y390173D01*
X725420Y389750D01*
X724574D01*
X724150Y390173D01*
Y391866D01*
X724574Y392289D01*
X723304Y389750D02*
Y391443D01*
X722458Y392289D01*
X721611Y391443D01*
Y389750D01*
Y391020D01*
X723304D01*
X720765Y389750D02*
Y392289D01*
X719495D01*
X719072Y391866D01*
Y391020D01*
X719495Y390596D01*
X720765D01*
X719919D02*
X719072Y389750D01*
X718226Y392289D02*
Y389750D01*
X716956D01*
X716533Y390173D01*
Y391866D01*
X716956Y392289D01*
X718226D01*
X713147D02*
Y389750D01*
X711878D01*
X711455Y390173D01*
Y390596D01*
X711878Y391020D01*
X713147D01*
X711878D01*
X711455Y391443D01*
Y391866D01*
X711878Y392289D01*
X713147D01*
X788500Y514500D02*
Y517039D01*
X787230D01*
X786807Y516616D01*
Y515770D01*
X787230Y515346D01*
X788500D01*
X787654D02*
X786807Y514500D01*
X784268Y516616D02*
X784691Y517039D01*
X785538D01*
X785961Y516616D01*
Y516193D01*
X785538Y515770D01*
X784691D01*
X784268Y515346D01*
Y514923D01*
X784691Y514500D01*
X785538D01*
X785961Y514923D01*
X783422Y517039D02*
X781729D01*
X782575D01*
Y514500D01*
X854500Y517039D02*
X852807D01*
X853654D01*
Y514500D01*
X850268Y517039D02*
X851961D01*
Y514500D01*
X850268D01*
X851961Y515770D02*
X851114D01*
X847729Y516616D02*
X848152Y517039D01*
X848998D01*
X849422Y516616D01*
Y516193D01*
X848998Y515770D01*
X848152D01*
X847729Y515346D01*
Y514923D01*
X848152Y514500D01*
X848998D01*
X849422Y514923D01*
X846882Y517039D02*
X845190D01*
X846036D01*
Y514500D01*
X900807Y558366D02*
X901230Y558789D01*
X902077D01*
X902500Y558366D01*
Y557943D01*
X902077Y557520D01*
X901230D01*
X900807Y557096D01*
Y556673D01*
X901230Y556250D01*
X902077D01*
X902500Y556673D01*
X899961Y558789D02*
Y556250D01*
X899115Y557096D01*
X898268Y556250D01*
Y558789D01*
X897422D02*
Y556250D01*
X896152D01*
X895729Y556673D01*
Y558366D01*
X896152Y558789D01*
X897422D01*
X916384Y466307D02*
X915961Y466730D01*
Y467577D01*
X916384Y468000D01*
X916807D01*
X917230Y467577D01*
Y466730D01*
X917654Y466307D01*
X918077D01*
X918500Y466730D01*
Y467577D01*
X918077Y468000D01*
X915961Y465461D02*
X918500D01*
X917654Y464614D01*
X918500Y463768D01*
X915961D01*
X916384Y461229D02*
X915961Y461652D01*
Y462499D01*
X916384Y462922D01*
X918077D01*
X918500Y462499D01*
Y461652D01*
X918077Y461229D01*
X915961Y460382D02*
X918500D01*
Y458690D01*
X915961Y457843D02*
X918500D01*
X917654D01*
X915961Y456151D01*
X917230Y457420D01*
X918500Y456151D01*
X1346057Y565366D02*
X1346480Y565789D01*
X1347327D01*
X1347750Y565366D01*
Y563673D01*
X1347327Y563250D01*
X1346480D01*
X1346057Y563673D01*
Y564520D01*
X1346904D01*
X1345211Y563250D02*
Y565789D01*
X1343518Y563250D01*
Y565789D01*
X1342672D02*
Y563250D01*
X1341402D01*
X1340979Y563673D01*
Y565366D01*
X1341402Y565789D01*
X1342672D01*
X1323500Y563250D02*
Y565789D01*
X1322654Y564943D01*
X1321807Y565789D01*
Y563250D01*
X1319691Y565789D02*
X1320538D01*
X1320961Y565366D01*
Y563673D01*
X1320538Y563250D01*
X1319691D01*
X1319268Y563673D01*
Y565366D01*
X1319691Y565789D01*
X1316729Y565366D02*
X1317152Y565789D01*
X1317999D01*
X1318422Y565366D01*
Y564943D01*
X1317999Y564520D01*
X1317152D01*
X1316729Y564096D01*
Y563673D01*
X1317152Y563250D01*
X1317999D01*
X1318422Y563673D01*
X1315883Y565789D02*
X1315036D01*
X1315459D01*
Y563250D01*
X1315883D01*
X1315036D01*
X1297750Y563000D02*
Y565539D01*
X1296904Y564693D01*
X1296057Y565539D01*
Y563000D01*
X1295211Y565539D02*
X1294364D01*
X1294788D01*
Y563000D01*
X1295211D01*
X1294364D01*
X1291402Y565116D02*
X1291825Y565539D01*
X1292672D01*
X1293095Y565116D01*
Y564693D01*
X1292672Y564270D01*
X1291825D01*
X1291402Y563846D01*
Y563423D01*
X1291825Y563000D01*
X1292672D01*
X1293095Y563423D01*
X1289286Y565539D02*
X1290132D01*
X1290556Y565116D01*
Y563423D01*
X1290132Y563000D01*
X1289286D01*
X1288863Y563423D01*
Y565116D01*
X1289286Y565539D01*
X1270807Y565366D02*
X1271230Y565789D01*
X1272077D01*
X1272500Y565366D01*
Y564943D01*
X1272077Y564520D01*
X1271230D01*
X1270807Y564096D01*
Y563673D01*
X1271230Y563250D01*
X1272077D01*
X1272500Y563673D01*
X1268268Y565366D02*
X1268691Y565789D01*
X1269538D01*
X1269961Y565366D01*
Y563673D01*
X1269538Y563250D01*
X1268691D01*
X1268268Y563673D01*
X1267422Y565789D02*
Y563250D01*
X1265729D01*
X1264883Y565789D02*
Y563250D01*
Y564096D01*
X1263190Y565789D01*
X1264459Y564520D01*
X1263190Y563250D01*
X1244057Y565366D02*
X1244480Y565789D01*
X1245327D01*
X1245750Y565366D01*
Y563673D01*
X1245327Y563250D01*
X1244480D01*
X1244057Y563673D01*
X1241518Y565366D02*
X1241941Y565789D01*
X1242788D01*
X1243211Y565366D01*
Y564943D01*
X1242788Y564520D01*
X1241941D01*
X1241518Y564096D01*
Y563673D01*
X1241941Y563250D01*
X1242788D01*
X1243211Y563673D01*
X1240672Y563250D02*
X1239825D01*
X1240248D01*
Y565789D01*
X1240672Y565366D01*
X1218307Y565116D02*
X1218730Y565539D01*
X1219577D01*
X1220000Y565116D01*
Y563423D01*
X1219577Y563000D01*
X1218730D01*
X1218307Y563423D01*
X1215768Y565116D02*
X1216191Y565539D01*
X1217038D01*
X1217461Y565116D01*
Y564693D01*
X1217038Y564270D01*
X1216191D01*
X1215768Y563846D01*
Y563423D01*
X1216191Y563000D01*
X1217038D01*
X1217461Y563423D01*
X1213229Y563000D02*
X1214922D01*
X1213229Y564693D01*
Y565116D01*
X1213652Y565539D01*
X1214499D01*
X1214922Y565116D01*
X1297750Y505039D02*
Y502923D01*
X1297327Y502500D01*
X1296480D01*
X1296057Y502923D01*
Y505039D01*
X1295211Y502500D02*
Y504193D01*
X1294364Y505039D01*
X1293518Y504193D01*
Y502500D01*
Y503770D01*
X1295211D01*
X1292672Y502500D02*
Y505039D01*
X1291402D01*
X1290979Y504616D01*
Y503770D01*
X1291402Y503346D01*
X1292672D01*
X1291825D02*
X1290979Y502500D01*
X1290132Y505039D02*
X1288440D01*
X1289286D01*
Y502500D01*
X1286747D02*
X1287593Y503346D01*
Y504193D01*
X1286747Y505039D01*
X1285477D02*
Y502500D01*
X1284208D01*
X1283784Y502923D01*
Y504616D01*
X1284208Y505039D01*
X1285477D01*
X1282938Y502500D02*
X1282092Y503346D01*
Y504193D01*
X1282938Y505039D01*
X1365634Y487557D02*
X1365211Y487980D01*
Y488827D01*
X1365634Y489250D01*
X1367327D01*
X1367750Y488827D01*
Y487980D01*
X1367327Y487557D01*
X1366480D01*
Y488404D01*
X1367750Y486711D02*
X1365211D01*
X1367750Y485018D01*
X1365211D01*
Y484172D02*
X1367750D01*
Y482902D01*
X1367327Y482479D01*
X1365634D01*
X1365211Y482902D01*
Y484172D01*
X1352250Y504789D02*
X1351404D01*
X1351827D01*
Y502250D01*
X1352250D01*
X1351404D01*
X1348441D02*
X1350134D01*
X1348441Y503943D01*
Y504366D01*
X1348864Y504789D01*
X1349711D01*
X1350134Y504366D01*
X1345902D02*
X1346325Y504789D01*
X1347172D01*
X1347595Y504366D01*
Y502673D01*
X1347172Y502250D01*
X1346325D01*
X1345902Y502673D01*
X1398000Y504789D02*
Y502673D01*
X1397577Y502250D01*
X1396730D01*
X1396307Y502673D01*
Y504789D01*
X1395461Y502250D02*
Y503943D01*
X1394615Y504789D01*
X1393768Y503943D01*
Y502250D01*
Y503520D01*
X1395461D01*
X1392922Y502250D02*
Y504789D01*
X1391652D01*
X1391229Y504366D01*
Y503520D01*
X1391652Y503096D01*
X1392922D01*
X1392075D02*
X1391229Y502250D01*
X1390383Y504789D02*
X1388690D01*
X1389536D01*
Y502250D01*
X1386997D02*
X1387843Y503096D01*
Y503943D01*
X1386997Y504789D01*
X1385727Y502250D02*
Y504789D01*
X1384458D01*
X1384034Y504366D01*
Y503520D01*
X1384458Y503096D01*
X1385727D01*
X1383188Y502250D02*
X1382342Y503096D01*
Y503943D01*
X1383188Y504789D01*
X1198384Y583557D02*
X1197961Y583980D01*
Y584827D01*
X1198384Y585250D01*
X1198807D01*
X1199230Y584827D01*
Y583980D01*
X1199654Y583557D01*
X1200077D01*
X1200500Y583980D01*
Y584827D01*
X1200077Y585250D01*
X1200500Y582711D02*
X1197961D01*
Y581441D01*
X1198384Y581018D01*
X1199230D01*
X1199654Y581441D01*
Y582711D01*
X1197961Y580172D02*
Y579325D01*
Y579748D01*
X1200500D01*
Y580172D01*
Y579325D01*
X943187Y736091D02*
X944880D01*
Y734822D01*
X944034D01*
X944880D01*
Y733552D01*
X942341Y736091D02*
Y733552D01*
X940648D01*
X938109D02*
X939802D01*
X938109Y735245D01*
Y735668D01*
X938532Y736091D01*
X939378D01*
X939802Y735668D01*
X1180770Y578270D02*
X1182462D01*
Y577000D01*
X1181616D01*
X1182462D01*
Y575730D01*
X1179923Y578270D02*
Y575730D01*
X1178230D01*
X1177384D02*
X1176538D01*
X1176961D01*
Y578270D01*
X1177384Y577846D01*
X888347Y1168910D02*
Y1171449D01*
X887077D01*
X886654Y1171026D01*
Y1170179D01*
X887077Y1169756D01*
X888347D01*
X887501D02*
X886654Y1168910D01*
X884115Y1171449D02*
X885808D01*
Y1170179D01*
X884961Y1170603D01*
X884538D01*
X884115Y1170179D01*
Y1169333D01*
X884538Y1168910D01*
X885385D01*
X885808Y1169333D01*
X702231Y1169270D02*
X703077D01*
X702654D01*
Y1167154D01*
X703077Y1166730D01*
X703501D01*
X703924Y1167154D01*
X701385Y1166730D02*
X700538D01*
X700962D01*
Y1169270D01*
X701385Y1168846D01*
X699269D02*
X698846Y1169270D01*
X697999D01*
X697576Y1168846D01*
Y1168423D01*
X697999Y1168000D01*
X698422D01*
X697999D01*
X697576Y1167577D01*
Y1167154D01*
X697999Y1166730D01*
X698846D01*
X699269Y1167154D01*
X1057346Y1187557D02*
X1057770Y1187134D01*
Y1186288D01*
X1057346Y1185864D01*
X1055654D01*
X1055230Y1186288D01*
Y1187134D01*
X1055654Y1187557D01*
X1057346Y1188404D02*
X1057770Y1188827D01*
Y1189673D01*
X1057346Y1190096D01*
X1056923D01*
X1056500Y1189673D01*
Y1189250D01*
Y1189673D01*
X1056077Y1190096D01*
X1055654D01*
X1055230Y1189673D01*
Y1188827D01*
X1055654Y1188404D01*
X1057346Y1190943D02*
X1057770Y1191366D01*
Y1192212D01*
X1057346Y1192636D01*
X1056923D01*
X1056500Y1192212D01*
Y1191789D01*
Y1192212D01*
X1056077Y1192636D01*
X1055654D01*
X1055230Y1192212D01*
Y1191366D01*
X1055654Y1190943D01*
X1051784Y1148980D02*
Y1151519D01*
X1053054D01*
X1053477Y1151096D01*
Y1149404D01*
X1053054Y1148980D01*
X1051784D01*
X1054323Y1149404D02*
X1054746Y1148980D01*
X1055593D01*
X1056016Y1149404D01*
Y1149827D01*
X1055593Y1150250D01*
X1055170D01*
X1055593D01*
X1056016Y1150673D01*
Y1151096D01*
X1055593Y1151519D01*
X1054746D01*
X1054323Y1151096D01*
X794193Y568770D02*
Y566654D01*
X793770Y566230D01*
X792923D01*
X792500Y566654D01*
Y568770D01*
X791654Y566230D02*
X790807D01*
X791230D01*
Y568770D01*
X791654Y568346D01*
X1017836Y550730D02*
Y548614D01*
X1017413Y548190D01*
X1016566D01*
X1016143Y548614D01*
Y550730D01*
X1015297Y550306D02*
X1014874Y550730D01*
X1014027D01*
X1013604Y550306D01*
Y549883D01*
X1014027Y549460D01*
X1014450D01*
X1014027D01*
X1013604Y549037D01*
Y548614D01*
X1014027Y548190D01*
X1014874D01*
X1015297Y548614D01*
X1364970Y548019D02*
Y547172D01*
Y547596D01*
X1362854D01*
X1362430Y547172D01*
Y546749D01*
X1362854Y546326D01*
X1362430Y548865D02*
Y549712D01*
Y549288D01*
X1364970D01*
X1364546Y548865D01*
Y550981D02*
X1364970Y551404D01*
Y552251D01*
X1364546Y552674D01*
X1362854D01*
X1362430Y552251D01*
Y551404D01*
X1362854Y550981D01*
X1364546D01*
X898846Y1077000D02*
X897154D01*
X896730Y1077423D01*
Y1078270D01*
X897154Y1078693D01*
X898846D01*
X899270Y1078270D01*
Y1077423D01*
X898423Y1077846D02*
X899270Y1077000D01*
Y1077423D02*
X898846Y1077000D01*
X899270Y1076154D02*
Y1075307D01*
Y1075730D01*
X896730D01*
X897154Y1076154D01*
X1233520Y1452519D02*
Y1451672D01*
Y1452096D01*
X1231404D01*
X1230980Y1451672D01*
Y1451249D01*
X1231404Y1450826D01*
X1230980Y1453365D02*
Y1454212D01*
Y1453788D01*
X1233520D01*
X1233096Y1453365D01*
X1233520Y1457174D02*
X1233096Y1456328D01*
X1232250Y1455481D01*
X1231404D01*
X1230980Y1455904D01*
Y1456751D01*
X1231404Y1457174D01*
X1231827D01*
X1232250Y1456751D01*
Y1455481D01*
X784154Y1332693D02*
X783730Y1333116D01*
Y1333962D01*
X784154Y1334386D01*
X784577D01*
X785000Y1333962D01*
Y1333116D01*
X785423Y1332693D01*
X785846D01*
X786270Y1333116D01*
Y1333962D01*
X785846Y1334386D01*
X783730Y1331846D02*
X786270D01*
Y1330577D01*
X785846Y1330154D01*
X785423D01*
X785000Y1330577D01*
Y1331846D01*
Y1330577D01*
X784577Y1330154D01*
X784154D01*
X783730Y1330577D01*
Y1331846D01*
Y1327614D02*
X784154Y1328461D01*
X785000Y1329307D01*
X785846D01*
X786270Y1328884D01*
Y1328038D01*
X785846Y1327614D01*
X785423D01*
X785000Y1328038D01*
Y1329307D01*
X1397731Y1392520D02*
X1398578D01*
X1398154D01*
Y1390404D01*
X1398578Y1389980D01*
X1399001D01*
X1399424Y1390404D01*
X1396885Y1389980D02*
X1396038D01*
X1396462D01*
Y1392520D01*
X1396885Y1392096D01*
X1393499Y1389980D02*
Y1392520D01*
X1394769Y1391250D01*
X1393076D01*
X698250Y788270D02*
X699096D01*
X698673D01*
Y786154D01*
X699096Y785730D01*
X699520D01*
X699943Y786154D01*
X697404Y785730D02*
X696557D01*
X696980D01*
Y788270D01*
X697404Y787846D01*
X1006770Y1235519D02*
Y1234672D01*
Y1235096D01*
X1004654D01*
X1004230Y1234672D01*
Y1234249D01*
X1004654Y1233826D01*
X1004230Y1236365D02*
Y1237212D01*
Y1236788D01*
X1006770D01*
X1006346Y1236365D01*
X1006770Y1238481D02*
Y1240174D01*
X1006346D01*
X1004654Y1238481D01*
X1004230D01*
X752770Y643442D02*
Y642596D01*
Y643019D01*
X750654D01*
X750230Y642596D01*
Y642172D01*
X750654Y641749D01*
X750230Y644288D02*
Y645135D01*
Y644712D01*
X752770D01*
X752346Y644288D01*
X750230Y646404D02*
Y647251D01*
Y646828D01*
X752770D01*
X752346Y646404D01*
X1090770Y553807D02*
X1088230Y555500D01*
X1090770D02*
X1088230Y553807D01*
Y556346D02*
Y557193D01*
Y556770D01*
X1090770D01*
X1090346Y556346D01*
X854616Y1085520D02*
Y1083404D01*
X854193Y1082980D01*
X853346D01*
X852923Y1083404D01*
Y1085520D01*
X850384D02*
X852077D01*
Y1084250D01*
X851230Y1084673D01*
X850807D01*
X850384Y1084250D01*
Y1083404D01*
X850807Y1082980D01*
X851654D01*
X852077Y1083404D01*
X835616Y865520D02*
Y863404D01*
X835193Y862980D01*
X834346D01*
X833923Y863404D01*
Y865520D01*
X831384Y862980D02*
X833077D01*
X831384Y864673D01*
Y865096D01*
X831807Y865520D01*
X832654D01*
X833077Y865096D01*
X865443Y392596D02*
X865866Y393020D01*
X866712D01*
X867136Y392596D01*
Y392173D01*
X866712Y391750D01*
X865866D01*
X865443Y391327D01*
Y390904D01*
X865866Y390480D01*
X866712D01*
X867136Y390904D01*
X864596Y393020D02*
Y390480D01*
X863750Y391327D01*
X862904Y390480D01*
Y393020D01*
X860364Y390480D02*
X862057D01*
X860364Y392173D01*
Y392596D01*
X860788Y393020D01*
X861634D01*
X862057Y392596D01*
X799270Y392096D02*
X799693Y392520D01*
X800539D01*
X800962Y392096D01*
Y391673D01*
X800539Y391250D01*
X799693D01*
X799270Y390827D01*
Y390404D01*
X799693Y389980D01*
X800539D01*
X800962Y390404D01*
X798423Y392520D02*
Y389980D01*
X797577Y390827D01*
X796730Y389980D01*
Y392520D01*
X795884Y389980D02*
X795038D01*
X795461D01*
Y392520D01*
X795884Y392096D01*
X786484Y1376193D02*
X786060Y1376616D01*
Y1377462D01*
X786484Y1377886D01*
X786907D01*
X787330Y1377462D01*
Y1376616D01*
X787753Y1376193D01*
X788176D01*
X788600Y1376616D01*
Y1377462D01*
X788176Y1377886D01*
X786060Y1375346D02*
X788600D01*
Y1374077D01*
X788176Y1373654D01*
X787753D01*
X787330Y1374077D01*
Y1375346D01*
Y1374077D01*
X786907Y1373654D01*
X786484D01*
X786060Y1374077D01*
Y1375346D01*
Y1371114D02*
Y1372807D01*
X787330D01*
X786907Y1371961D01*
Y1371538D01*
X787330Y1371114D01*
X788176D01*
X788600Y1371538D01*
Y1372384D01*
X788176Y1372807D01*
X786404Y1439193D02*
X785980Y1439616D01*
Y1440462D01*
X786404Y1440886D01*
X786827D01*
X787250Y1440462D01*
Y1439616D01*
X787673Y1439193D01*
X788096D01*
X788520Y1439616D01*
Y1440462D01*
X788096Y1440886D01*
X785980Y1438346D02*
X788520D01*
Y1437077D01*
X788096Y1436654D01*
X787673D01*
X787250Y1437077D01*
Y1438346D01*
Y1437077D01*
X786827Y1436654D01*
X786404D01*
X785980Y1437077D01*
Y1438346D01*
X788520Y1434538D02*
X785980D01*
X787250Y1435807D01*
Y1434114D01*
X964154Y1333943D02*
X963730Y1334366D01*
Y1335212D01*
X964154Y1335636D01*
X964577D01*
X965000Y1335212D01*
Y1334366D01*
X965423Y1333943D01*
X965846D01*
X966270Y1334366D01*
Y1335212D01*
X965846Y1335636D01*
X963730Y1333096D02*
X966270D01*
Y1331827D01*
X965846Y1331404D01*
X965423D01*
X965000Y1331827D01*
Y1333096D01*
Y1331827D01*
X964577Y1331404D01*
X964154D01*
X963730Y1331827D01*
Y1333096D01*
X964154Y1330557D02*
X963730Y1330134D01*
Y1329288D01*
X964154Y1328864D01*
X964577D01*
X965000Y1329288D01*
Y1329711D01*
Y1329288D01*
X965423Y1328864D01*
X965846D01*
X966270Y1329288D01*
Y1330134D01*
X965846Y1330557D01*
X964404Y1375693D02*
X963980Y1376116D01*
Y1376962D01*
X964404Y1377386D01*
X964827D01*
X965250Y1376962D01*
Y1376116D01*
X965673Y1375693D01*
X966096D01*
X966520Y1376116D01*
Y1376962D01*
X966096Y1377386D01*
X963980Y1374846D02*
X966520D01*
Y1373577D01*
X966096Y1373154D01*
X965673D01*
X965250Y1373577D01*
Y1374846D01*
Y1373577D01*
X964827Y1373154D01*
X964404D01*
X963980Y1373577D01*
Y1374846D01*
X966520Y1370614D02*
Y1372307D01*
X964827Y1370614D01*
X964404D01*
X963980Y1371038D01*
Y1371884D01*
X964404Y1372307D01*
X963404Y1439770D02*
X962980Y1440193D01*
Y1441039D01*
X963404Y1441462D01*
X963827D01*
X964250Y1441039D01*
Y1440193D01*
X964673Y1439770D01*
X965096D01*
X965520Y1440193D01*
Y1441039D01*
X965096Y1441462D01*
X962980Y1438923D02*
X965520D01*
Y1437654D01*
X965096Y1437230D01*
X964673D01*
X964250Y1437654D01*
Y1438923D01*
Y1437654D01*
X963827Y1437230D01*
X963404D01*
X962980Y1437654D01*
Y1438923D01*
X965520Y1436384D02*
Y1435538D01*
Y1435961D01*
X962980D01*
X963404Y1436384D01*
X786270Y1356636D02*
X783730D01*
Y1355366D01*
X784154Y1354943D01*
X785000D01*
X785423Y1355366D01*
Y1356636D01*
Y1355789D02*
X786270Y1354943D01*
Y1352404D02*
Y1354096D01*
X784577Y1352404D01*
X784154D01*
X783730Y1352827D01*
Y1353673D01*
X784154Y1354096D01*
Y1351557D02*
X783730Y1351134D01*
Y1350288D01*
X784154Y1349864D01*
X785846D01*
X786270Y1350288D01*
Y1351134D01*
X785846Y1351557D01*
X784154D01*
X786769Y1398424D02*
X784230D01*
Y1397154D01*
X784653Y1396731D01*
X785500D01*
X785923Y1397154D01*
Y1398424D01*
Y1397578D02*
X786769Y1396731D01*
Y1395885D02*
Y1395038D01*
Y1395461D01*
X784230D01*
X784653Y1395885D01*
X786346Y1393769D02*
X786769Y1393346D01*
Y1392499D01*
X786346Y1392076D01*
X784653D01*
X784230Y1392499D01*
Y1393346D01*
X784653Y1393769D01*
X785077D01*
X785500Y1393346D01*
Y1392076D01*
X786769Y1418924D02*
X784230D01*
Y1417654D01*
X784653Y1417231D01*
X785500D01*
X785923Y1417654D01*
Y1418924D01*
Y1418078D02*
X786769Y1417231D01*
Y1416385D02*
Y1415538D01*
Y1415962D01*
X784230D01*
X784653Y1416385D01*
Y1414269D02*
X784230Y1413846D01*
Y1412999D01*
X784653Y1412576D01*
X785077D01*
X785500Y1412999D01*
X785923Y1412576D01*
X786346D01*
X786769Y1412999D01*
Y1413846D01*
X786346Y1414269D01*
X785923D01*
X785500Y1413846D01*
X785077Y1414269D01*
X784653D01*
X785500Y1413846D02*
Y1412999D01*
X964270Y1356174D02*
X961730D01*
Y1354904D01*
X962154Y1354481D01*
X963000D01*
X963423Y1354904D01*
Y1356174D01*
Y1355328D02*
X964270Y1354481D01*
Y1353635D02*
Y1352788D01*
Y1353212D01*
X961730D01*
X962154Y1353635D01*
X961730Y1349826D02*
X962154Y1350672D01*
X963000Y1351519D01*
X963846D01*
X964270Y1351096D01*
Y1350249D01*
X963846Y1349826D01*
X963423D01*
X963000Y1350249D01*
Y1351519D01*
X964020Y1398924D02*
X961480D01*
Y1397654D01*
X961904Y1397231D01*
X962750D01*
X963173Y1397654D01*
Y1398924D01*
Y1398078D02*
X964020Y1397231D01*
Y1396385D02*
Y1395538D01*
Y1395961D01*
X961480D01*
X961904Y1396385D01*
X961480Y1392576D02*
Y1394269D01*
X962750D01*
X962327Y1393422D01*
Y1392999D01*
X962750Y1392576D01*
X963596D01*
X964020Y1392999D01*
Y1393846D01*
X963596Y1394269D01*
X963770Y1418424D02*
X961230D01*
Y1417154D01*
X961654Y1416731D01*
X962500D01*
X962923Y1417154D01*
Y1418424D01*
Y1417578D02*
X963770Y1416731D01*
Y1415885D02*
Y1415038D01*
Y1415461D01*
X961230D01*
X961654Y1415885D01*
X963770Y1412499D02*
X961230D01*
X962500Y1413769D01*
Y1412076D01*
X707674Y1210480D02*
Y1213020D01*
X706404D01*
X705981Y1212596D01*
Y1211750D01*
X706404Y1211327D01*
X707674D01*
X706827D02*
X705981Y1210480D01*
X705135D02*
X704288D01*
X704712D01*
Y1213020D01*
X705135Y1212596D01*
X703019D02*
X702596Y1213020D01*
X701749D01*
X701326Y1212596D01*
Y1212173D01*
X701749Y1211750D01*
X702172D01*
X701749D01*
X701326Y1211327D01*
Y1210904D01*
X701749Y1210480D01*
X702596D01*
X703019Y1210904D01*
X971174Y388480D02*
Y391020D01*
X969904D01*
X969481Y390596D01*
Y389750D01*
X969904Y389327D01*
X971174D01*
X970328D02*
X969481Y388480D01*
X968635D02*
X967788D01*
X968212D01*
Y391020D01*
X968635Y390596D01*
X964826Y388480D02*
X966519D01*
X964826Y390173D01*
Y390596D01*
X965249Y391020D01*
X966096D01*
X966519Y390596D01*
X841270Y537251D02*
X838730D01*
Y535981D01*
X839154Y535558D01*
X840000D01*
X840423Y535981D01*
Y537251D01*
Y536404D02*
X841270Y535558D01*
Y534712D02*
Y533865D01*
Y534288D01*
X838730D01*
X839154Y534712D01*
X841270Y532596D02*
Y531749D01*
Y532172D01*
X838730D01*
X839154Y532596D01*
X1324174Y432230D02*
Y434770D01*
X1322904D01*
X1322481Y434346D01*
Y433500D01*
X1322904Y433077D01*
X1324174D01*
X1323328D02*
X1322481Y432230D01*
X1321635D02*
X1320788D01*
X1321212D01*
Y434770D01*
X1321635Y434346D01*
X1319519D02*
X1319096Y434770D01*
X1318249D01*
X1317826Y434346D01*
Y432654D01*
X1318249Y432230D01*
X1319096D01*
X1319519Y432654D01*
Y434346D01*
X1324616Y468690D02*
Y471230D01*
X1323346D01*
X1322923Y470806D01*
Y469960D01*
X1323346Y469537D01*
X1324616D01*
X1323770D02*
X1322923Y468690D01*
X1322077Y469114D02*
X1321654Y468690D01*
X1320807D01*
X1320384Y469114D01*
Y470806D01*
X1320807Y471230D01*
X1321654D01*
X1322077Y470806D01*
Y470383D01*
X1321654Y469960D01*
X1320384D01*
X1012616Y599730D02*
Y602270D01*
X1011346D01*
X1010923Y601846D01*
Y601000D01*
X1011346Y600577D01*
X1012616D01*
X1011770D02*
X1010923Y599730D01*
X1010077Y601846D02*
X1009654Y602270D01*
X1008807D01*
X1008384Y601846D01*
Y601423D01*
X1008807Y601000D01*
X1008384Y600577D01*
Y600154D01*
X1008807Y599730D01*
X1009654D01*
X1010077Y600154D01*
Y600577D01*
X1009654Y601000D01*
X1010077Y601423D01*
Y601846D01*
X1009654Y601000D02*
X1008807D01*
X877980Y732634D02*
X880520D01*
Y733904D01*
X880096Y734327D01*
X879250D01*
X878827Y733904D01*
Y732634D01*
Y733480D02*
X877980Y734327D01*
Y736443D02*
X880520D01*
X879250Y735173D01*
Y736866D01*
X801366Y785980D02*
Y788520D01*
X800096D01*
X799673Y788096D01*
Y787250D01*
X800096Y786827D01*
X801366D01*
X800520D02*
X799673Y785980D01*
X798827Y788096D02*
X798404Y788520D01*
X797557D01*
X797134Y788096D01*
Y787673D01*
X797557Y787250D01*
X797980D01*
X797557D01*
X797134Y786827D01*
Y786404D01*
X797557Y785980D01*
X798404D01*
X798827Y786404D01*
X879602Y916686D02*
Y919225D01*
X878332D01*
X877909Y918802D01*
Y917956D01*
X878332Y917532D01*
X879602D01*
X878756D02*
X877909Y916686D01*
X877063D02*
X876216D01*
X876640D01*
Y919225D01*
X877063Y918802D01*
X844116Y1460480D02*
Y1463020D01*
X842846D01*
X842423Y1462596D01*
Y1461750D01*
X842846Y1461327D01*
X844116D01*
X839884Y1460480D02*
X841577D01*
X839884Y1462173D01*
Y1462596D01*
X840307Y1463020D01*
X841154D01*
X841577Y1462596D01*
X1023443Y1460980D02*
Y1463520D01*
X1022173D01*
X1021750Y1463096D01*
Y1462250D01*
X1022173Y1461827D01*
X1023443D01*
X1020904Y1460980D02*
X1020057D01*
X1020480D01*
Y1463520D01*
X1020904Y1463096D01*
X1295193Y1353520D02*
Y1350980D01*
X1293500D01*
X1292654D02*
X1291807D01*
X1292230D01*
Y1353520D01*
X1292654Y1353096D01*
X1402770Y1449269D02*
Y1448423D01*
Y1448846D01*
X1400654D01*
X1400230Y1448423D01*
Y1447999D01*
X1400654Y1447576D01*
X1400230Y1450115D02*
Y1450962D01*
Y1450538D01*
X1402770D01*
X1402346Y1450115D01*
X1402770Y1453924D02*
Y1452231D01*
X1401500D01*
X1401923Y1453078D01*
Y1453501D01*
X1401500Y1453924D01*
X1400654D01*
X1400230Y1453501D01*
Y1452654D01*
X1400654Y1452231D01*
X992020Y607019D02*
Y606172D01*
Y606596D01*
X989904D01*
X989480Y606172D01*
Y605749D01*
X989904Y605326D01*
X989480Y607865D02*
Y608712D01*
Y608288D01*
X992020D01*
X991596Y607865D01*
X989480Y611674D02*
Y609981D01*
X991173Y611674D01*
X991596D01*
X992020Y611251D01*
Y610404D01*
X991596Y609981D01*
X1360423Y392270D02*
X1361270D01*
X1360846D01*
Y390154D01*
X1361270Y389730D01*
X1361693D01*
X1362116Y390154D01*
X1359577D02*
X1359154Y389730D01*
X1358307D01*
X1357884Y390154D01*
Y391846D01*
X1358307Y392270D01*
X1359154D01*
X1359577Y391846D01*
Y391423D01*
X1359154Y391000D01*
X1357884D01*
X910423Y394770D02*
X911270D01*
X910846D01*
Y392654D01*
X911270Y392230D01*
X911693D01*
X912116Y392654D01*
X909577Y394346D02*
X909154Y394770D01*
X908307D01*
X907884Y394346D01*
Y393923D01*
X908307Y393500D01*
X907884Y393077D01*
Y392654D01*
X908307Y392230D01*
X909154D01*
X909577Y392654D01*
Y393077D01*
X909154Y393500D01*
X909577Y393923D01*
Y394346D01*
X909154Y393500D02*
X908307D01*
X1364520Y573077D02*
Y572230D01*
Y572654D01*
X1362404D01*
X1361980Y572230D01*
Y571807D01*
X1362404Y571384D01*
X1364520Y573923D02*
Y575616D01*
X1364096D01*
X1362404Y573923D01*
X1361980D01*
X1278827Y415381D02*
X1277980D01*
X1278404D01*
Y417496D01*
X1277980Y417920D01*
X1277557D01*
X1277134Y417496D01*
X1281366Y415381D02*
X1280520Y415804D01*
X1279673Y416650D01*
Y417496D01*
X1280096Y417920D01*
X1280943D01*
X1281366Y417496D01*
Y417073D01*
X1280943Y416650D01*
X1279673D01*
X1402173Y418020D02*
X1403020D01*
X1402596D01*
Y415904D01*
X1403020Y415480D01*
X1403443D01*
X1403866Y415904D01*
X1399634Y418020D02*
X1401327D01*
Y416750D01*
X1400480Y417173D01*
X1400057D01*
X1399634Y416750D01*
Y415904D01*
X1400057Y415480D01*
X1400904D01*
X1401327Y415904D01*
X1401173Y513520D02*
X1402020D01*
X1401596D01*
Y511404D01*
X1402020Y510980D01*
X1402443D01*
X1402866Y511404D01*
X1400327Y513096D02*
X1399904Y513520D01*
X1399057D01*
X1398634Y513096D01*
Y512673D01*
X1399057Y512250D01*
X1399480D01*
X1399057D01*
X1398634Y511827D01*
Y511404D01*
X1399057Y510980D01*
X1399904D01*
X1400327Y511404D01*
X930423Y421520D02*
X931270D01*
X930846D01*
Y419404D01*
X931270Y418980D01*
X931693D01*
X932116Y419404D01*
X927884Y418980D02*
X929577D01*
X927884Y420673D01*
Y421096D01*
X928307Y421520D01*
X929154D01*
X929577Y421096D01*
X947616Y390020D02*
Y387480D01*
X946346D01*
X945923Y387904D01*
Y389596D01*
X946346Y390020D01*
X947616D01*
X943384Y387480D02*
X945077D01*
X943384Y389173D01*
Y389596D01*
X943807Y390020D01*
X944654D01*
X945077Y389596D01*
X854444Y738547D02*
X851904D01*
Y739817D01*
X852328Y740240D01*
X854020D01*
X854444Y739817D01*
Y738547D01*
X851904Y741086D02*
Y741933D01*
Y741510D01*
X854444D01*
X854020Y741086D01*
X1365346Y1267057D02*
X1365770Y1266634D01*
Y1265788D01*
X1365346Y1265364D01*
X1363654D01*
X1363230Y1265788D01*
Y1266634D01*
X1363654Y1267057D01*
X1365346Y1267904D02*
X1365770Y1268327D01*
Y1269173D01*
X1365346Y1269596D01*
X1364923D01*
X1364500Y1269173D01*
Y1268750D01*
Y1269173D01*
X1364077Y1269596D01*
X1363654D01*
X1363230Y1269173D01*
Y1268327D01*
X1363654Y1267904D01*
X1363230Y1271712D02*
X1365770D01*
X1364500Y1270443D01*
Y1272136D01*
X1057346Y1163807D02*
X1057770Y1163384D01*
Y1162538D01*
X1057346Y1162114D01*
X1055654D01*
X1055230Y1162538D01*
Y1163384D01*
X1055654Y1163807D01*
X1057346Y1164654D02*
X1057770Y1165077D01*
Y1165923D01*
X1057346Y1166346D01*
X1056923D01*
X1056500Y1165923D01*
Y1165500D01*
Y1165923D01*
X1056077Y1166346D01*
X1055654D01*
X1055230Y1165923D01*
Y1165077D01*
X1055654Y1164654D01*
X1055230Y1168886D02*
Y1167193D01*
X1056923Y1168886D01*
X1057346D01*
X1057770Y1168462D01*
Y1167616D01*
X1057346Y1167193D01*
X716270Y1483846D02*
X716693Y1484270D01*
X717539D01*
X717962Y1483846D01*
Y1482154D01*
X717539Y1481730D01*
X716693D01*
X716270Y1482154D01*
X715423Y1483846D02*
X715000Y1484270D01*
X714154D01*
X713730Y1483846D01*
Y1483423D01*
X714154Y1483000D01*
X714577D01*
X714154D01*
X713730Y1482577D01*
Y1482154D01*
X714154Y1481730D01*
X715000D01*
X715423Y1482154D01*
X712884Y1481730D02*
X712038D01*
X712461D01*
Y1484270D01*
X712884Y1483846D01*
X787807Y1061154D02*
X787384Y1060730D01*
X786538D01*
X786115Y1061154D01*
Y1062846D01*
X786538Y1063270D01*
X787384D01*
X787807Y1062846D01*
X788654Y1061154D02*
X789077Y1060730D01*
X789923D01*
X790346Y1061154D01*
Y1061577D01*
X789923Y1062000D01*
X789500D01*
X789923D01*
X790346Y1062423D01*
Y1062846D01*
X789923Y1063270D01*
X789077D01*
X788654Y1062846D01*
X791193Y1061154D02*
X791616Y1060730D01*
X792462D01*
X792886Y1061154D01*
Y1062846D01*
X792462Y1063270D01*
X791616D01*
X791193Y1062846D01*
Y1061154D01*
X792443Y1140846D02*
X792866Y1141270D01*
X793712D01*
X794136Y1140846D01*
Y1139154D01*
X793712Y1138730D01*
X792866D01*
X792443Y1139154D01*
X789904Y1138730D02*
X791596D01*
X789904Y1140423D01*
Y1140846D01*
X790327Y1141270D01*
X791173D01*
X791596Y1140846D01*
X789057Y1139154D02*
X788634Y1138730D01*
X787788D01*
X787364Y1139154D01*
Y1140846D01*
X787788Y1141270D01*
X788634D01*
X789057Y1140846D01*
Y1140423D01*
X788634Y1140000D01*
X787364D01*
X791943Y1180596D02*
X792366Y1181020D01*
X793212D01*
X793636Y1180596D01*
Y1178904D01*
X793212Y1178480D01*
X792366D01*
X791943Y1178904D01*
X789404Y1178480D02*
X791096D01*
X789404Y1180173D01*
Y1180596D01*
X789827Y1181020D01*
X790673D01*
X791096Y1180596D01*
X788557D02*
X788134Y1181020D01*
X787288D01*
X786864Y1180596D01*
Y1180173D01*
X787288Y1179750D01*
X786864Y1179327D01*
Y1178904D01*
X787288Y1178480D01*
X788134D01*
X788557Y1178904D01*
Y1179327D01*
X788134Y1179750D01*
X788557Y1180173D01*
Y1180596D01*
X788134Y1179750D02*
X787288D01*
X865693Y1467346D02*
X866116Y1467770D01*
X866962D01*
X867386Y1467346D01*
Y1465654D01*
X866962Y1465230D01*
X866116D01*
X865693Y1465654D01*
X863154Y1465230D02*
X864846D01*
X863154Y1466923D01*
Y1467346D01*
X863577Y1467770D01*
X864423D01*
X864846Y1467346D01*
X862307Y1467770D02*
X860614D01*
Y1467346D01*
X862307Y1465654D01*
Y1465230D01*
X815154Y536193D02*
X814730Y536616D01*
Y537462D01*
X815154Y537886D01*
X816846D01*
X817270Y537462D01*
Y536616D01*
X816846Y536193D01*
X817270Y533654D02*
Y535346D01*
X815577Y533654D01*
X815154D01*
X814730Y534077D01*
Y534923D01*
X815154Y535346D01*
X814730Y531114D02*
X815154Y531961D01*
X816000Y532807D01*
X816846D01*
X817270Y532384D01*
Y531538D01*
X816846Y531114D01*
X816423D01*
X816000Y531538D01*
Y532807D01*
X954404Y766443D02*
X953980Y766866D01*
Y767712D01*
X954404Y768136D01*
X956096D01*
X956520Y767712D01*
Y766866D01*
X956096Y766443D01*
X956520Y763904D02*
Y765596D01*
X954827Y763904D01*
X954404D01*
X953980Y764327D01*
Y765173D01*
X954404Y765596D01*
X953980Y761364D02*
Y763057D01*
X955250D01*
X954827Y762211D01*
Y761788D01*
X955250Y761364D01*
X956096D01*
X956520Y761788D01*
Y762634D01*
X956096Y763057D01*
X996904Y765943D02*
X996480Y766366D01*
Y767212D01*
X996904Y767636D01*
X998596D01*
X999020Y767212D01*
Y766366D01*
X998596Y765943D01*
X999020Y763404D02*
Y765096D01*
X997327Y763404D01*
X996904D01*
X996480Y763827D01*
Y764673D01*
X996904Y765096D01*
X999020Y761288D02*
X996480D01*
X997750Y762557D01*
Y760864D01*
X948443Y650346D02*
X948866Y650770D01*
X949712D01*
X950136Y650346D01*
Y648654D01*
X949712Y648230D01*
X948866D01*
X948443Y648654D01*
X945904Y648230D02*
X947596D01*
X945904Y649923D01*
Y650346D01*
X946327Y650770D01*
X947173D01*
X947596Y650346D01*
X945057D02*
X944634Y650770D01*
X943788D01*
X943364Y650346D01*
Y649923D01*
X943788Y649500D01*
X944211D01*
X943788D01*
X943364Y649077D01*
Y648654D01*
X943788Y648230D01*
X944634D01*
X945057Y648654D01*
X1131693Y591916D02*
X1132116Y592340D01*
X1132962D01*
X1133386Y591916D01*
Y590224D01*
X1132962Y589800D01*
X1132116D01*
X1131693Y590224D01*
X1129154Y589800D02*
X1130846D01*
X1129154Y591493D01*
Y591916D01*
X1129577Y592340D01*
X1130423D01*
X1130846Y591916D01*
X1128307D02*
X1127884Y592340D01*
X1127038D01*
X1126614Y591916D01*
Y590224D01*
X1127038Y589800D01*
X1127884D01*
X1128307Y590224D01*
Y591916D01*
X1111481Y591806D02*
X1111904Y592230D01*
X1112751D01*
X1113174Y591806D01*
Y590114D01*
X1112751Y589690D01*
X1111904D01*
X1111481Y590114D01*
X1110635Y589690D02*
X1109788D01*
X1110212D01*
Y592230D01*
X1110635Y591806D01*
X1108519Y590114D02*
X1108096Y589690D01*
X1107249D01*
X1106826Y590114D01*
Y591806D01*
X1107249Y592230D01*
X1108096D01*
X1108519Y591806D01*
Y591383D01*
X1108096Y590960D01*
X1106826D01*
X999981Y548346D02*
X1000404Y548770D01*
X1001251D01*
X1001674Y548346D01*
Y546654D01*
X1001251Y546230D01*
X1000404D01*
X999981Y546654D01*
X999135Y546230D02*
X998288D01*
X998712D01*
Y548770D01*
X999135Y548346D01*
X997019D02*
X996596Y548770D01*
X995749D01*
X995326Y548346D01*
Y547923D01*
X995749Y547500D01*
X995326Y547077D01*
Y546654D01*
X995749Y546230D01*
X996596D01*
X997019Y546654D01*
Y547077D01*
X996596Y547500D01*
X997019Y547923D01*
Y548346D01*
X996596Y547500D02*
X995749D01*
X1195596Y528519D02*
X1196020Y528096D01*
Y527249D01*
X1195596Y526826D01*
X1193904D01*
X1193480Y527249D01*
Y528096D01*
X1193904Y528519D01*
X1193480Y529365D02*
Y530212D01*
Y529788D01*
X1196020D01*
X1195596Y529365D01*
X1196020Y531481D02*
Y533174D01*
X1195596D01*
X1193904Y531481D01*
X1193480D01*
X1154526Y424269D02*
X1154950Y423846D01*
Y422999D01*
X1154526Y422576D01*
X1152834D01*
X1152410Y422999D01*
Y423846D01*
X1152834Y424269D01*
X1152410Y425115D02*
Y425962D01*
Y425538D01*
X1154950D01*
X1154526Y425115D01*
X1154950Y428924D02*
X1154526Y428078D01*
X1153680Y427231D01*
X1152834D01*
X1152410Y427654D01*
Y428501D01*
X1152834Y428924D01*
X1153257D01*
X1153680Y428501D01*
Y427231D01*
X993481Y425596D02*
X993904Y426020D01*
X994751D01*
X995174Y425596D01*
Y423904D01*
X994751Y423480D01*
X993904D01*
X993481Y423904D01*
X992635Y423480D02*
X991788D01*
X992212D01*
Y426020D01*
X992635Y425596D01*
X988826Y426020D02*
X990519D01*
Y424750D01*
X989672Y425173D01*
X989249D01*
X988826Y424750D01*
Y423904D01*
X989249Y423480D01*
X990096D01*
X990519Y423904D01*
X1042096Y396769D02*
X1042520Y396346D01*
Y395499D01*
X1042096Y395076D01*
X1040404D01*
X1039980Y395499D01*
Y396346D01*
X1040404Y396769D01*
X1039980Y397615D02*
Y398462D01*
Y398038D01*
X1042520D01*
X1042096Y397615D01*
X1039980Y401001D02*
X1042520D01*
X1041250Y399731D01*
Y401424D01*
X1193244Y446871D02*
X1192820Y447294D01*
Y448141D01*
X1193244Y448564D01*
X1194936D01*
X1195359Y448141D01*
Y447294D01*
X1194936Y446871D01*
X1195359Y446025D02*
Y445178D01*
Y445602D01*
X1192820D01*
X1193244Y446025D01*
Y443909D02*
X1192820Y443486D01*
Y442639D01*
X1193244Y442216D01*
X1193667D01*
X1194090Y442639D01*
Y443062D01*
Y442639D01*
X1194513Y442216D01*
X1194936D01*
X1195359Y442639D01*
Y443486D01*
X1194936Y443909D01*
X1197236Y494899D02*
X1197660Y494476D01*
Y493629D01*
X1197236Y493206D01*
X1195544D01*
X1195120Y493629D01*
Y494476D01*
X1195544Y494899D01*
X1195120Y495745D02*
Y496592D01*
Y496168D01*
X1197660D01*
X1197236Y495745D01*
X1195120Y499554D02*
Y497861D01*
X1196813Y499554D01*
X1197236D01*
X1197660Y499131D01*
Y498284D01*
X1197236Y497861D01*
X790154Y536058D02*
X789730Y536481D01*
Y537328D01*
X790154Y537751D01*
X791846D01*
X792270Y537328D01*
Y536481D01*
X791846Y536058D01*
X792270Y535212D02*
Y534365D01*
Y534788D01*
X789730D01*
X790154Y535212D01*
X792270Y533096D02*
Y532249D01*
Y532672D01*
X789730D01*
X790154Y533096D01*
X1083096Y587269D02*
X1083520Y586846D01*
Y585999D01*
X1083096Y585576D01*
X1081404D01*
X1080980Y585999D01*
Y586846D01*
X1081404Y587269D01*
X1080980Y588115D02*
Y588962D01*
Y588538D01*
X1083520D01*
X1083096Y588115D01*
Y590231D02*
X1083520Y590654D01*
Y591501D01*
X1083096Y591924D01*
X1081404D01*
X1080980Y591501D01*
Y590654D01*
X1081404Y590231D01*
X1083096D01*
X1034423Y585056D02*
X1034846Y585480D01*
X1035693D01*
X1036116Y585056D01*
Y583364D01*
X1035693Y582940D01*
X1034846D01*
X1034423Y583364D01*
X1033577D02*
X1033154Y582940D01*
X1032307D01*
X1031884Y583364D01*
Y585056D01*
X1032307Y585480D01*
X1033154D01*
X1033577Y585056D01*
Y584633D01*
X1033154Y584210D01*
X1031884D01*
X879346Y773327D02*
X879770Y772904D01*
Y772057D01*
X879346Y771634D01*
X877654D01*
X877230Y772057D01*
Y772904D01*
X877654Y773327D01*
X879346Y774173D02*
X879770Y774596D01*
Y775443D01*
X879346Y775866D01*
X878923D01*
X878500Y775443D01*
X878077Y775866D01*
X877654D01*
X877230Y775443D01*
Y774596D01*
X877654Y774173D01*
X878077D01*
X878500Y774596D01*
X878923Y774173D01*
X879346D01*
X878500Y774596D02*
Y775443D01*
X856346Y772827D02*
X856770Y772404D01*
Y771557D01*
X856346Y771134D01*
X854654D01*
X854230Y771557D01*
Y772404D01*
X854654Y772827D01*
X856770Y773673D02*
Y775366D01*
X856346D01*
X854654Y773673D01*
X854230D01*
X765673Y851416D02*
X766096Y851840D01*
X766943D01*
X767366Y851416D01*
Y849724D01*
X766943Y849300D01*
X766096D01*
X765673Y849724D01*
X763134Y851840D02*
X763980Y851416D01*
X764827Y850570D01*
Y849724D01*
X764404Y849300D01*
X763557D01*
X763134Y849724D01*
Y850147D01*
X763557Y850570D01*
X764827D01*
X844673Y657166D02*
X845096Y657590D01*
X845943D01*
X846366Y657166D01*
Y655474D01*
X845943Y655050D01*
X845096D01*
X844673Y655474D01*
X842134Y657590D02*
X843827D01*
Y656320D01*
X842980Y656743D01*
X842557D01*
X842134Y656320D01*
Y655474D01*
X842557Y655050D01*
X843404D01*
X843827Y655474D01*
X825416Y666847D02*
X825840Y666424D01*
Y665577D01*
X825416Y665154D01*
X823724D01*
X823300Y665577D01*
Y666424D01*
X823724Y666847D01*
X823300Y668963D02*
X825840D01*
X824570Y667693D01*
Y669386D01*
X831423Y715846D02*
X831846Y716270D01*
X832693D01*
X833116Y715846D01*
Y714154D01*
X832693Y713730D01*
X831846D01*
X831423Y714154D01*
X830577Y715846D02*
X830154Y716270D01*
X829307D01*
X828884Y715846D01*
Y715423D01*
X829307Y715000D01*
X829730D01*
X829307D01*
X828884Y714577D01*
Y714154D01*
X829307Y713730D01*
X830154D01*
X830577Y714154D01*
X811423Y715806D02*
X811846Y716230D01*
X812693D01*
X813116Y715806D01*
Y714114D01*
X812693Y713690D01*
X811846D01*
X811423Y714114D01*
X808884Y713690D02*
X810577D01*
X808884Y715383D01*
Y715806D01*
X809307Y716230D01*
X810154D01*
X810577Y715806D01*
X790250Y716276D02*
X790673Y716700D01*
X791520D01*
X791943Y716276D01*
Y714584D01*
X791520Y714160D01*
X790673D01*
X790250Y714584D01*
X789404Y714160D02*
X788557D01*
X788980D01*
Y716700D01*
X789404Y716276D01*
D45*
X1079750Y1269250D02*
G03*
X1079750Y1269250I-3000J0D01*
G01*
M02*
