G04*
G04 #@! TF.GenerationSoftware,Altium Limited,Altium Designer,26.4.1 (12)*
G04*
G04 Layer_Color=128*
%FSLAX44Y44*%
%MOMM*%
G71*
G04*
G04 #@! TF.SameCoordinates,DF97135C-EA84-44B9-BAFA-11E43E9B2FB1*
G04*
G04*
G04 #@! TF.FilePolarity,Positive*
G04*
G01*
G75*
%ADD14C,0.2540*%
%ADD15R,1.3500X1.0000*%
%ADD17R,1.0000X1.3500*%
%ADD54R,1.5000X0.3000*%
%ADD55R,0.3000X1.5000*%
%ADD56R,0.8588X0.8508*%
%ADD57R,0.8508X0.8588*%
%ADD58R,0.9300X0.8100*%
%ADD59R,3.2500X2.1500*%
%ADD60R,0.9500X2.1500*%
%ADD62R,1.8542X0.6604*%
G04:AMPARAMS|DCode=63|XSize=1.58mm|YSize=0.6mm|CornerRadius=0.075mm|HoleSize=0mm|Usage=FLASHONLY|Rotation=90.000|XOffset=0mm|YOffset=0mm|HoleType=Round|Shape=RoundedRectangle|*
%AMROUNDEDRECTD63*
21,1,1.5800,0.4500,0,0,90.0*
21,1,1.4300,0.6000,0,0,90.0*
1,1,0.1500,0.2250,0.7150*
1,1,0.1500,0.2250,-0.7150*
1,1,0.1500,-0.2250,-0.7150*
1,1,0.1500,-0.2250,0.7150*
%
%ADD63ROUNDEDRECTD63*%
%ADD64R,8.5000X8.0000*%
%ADD65R,4.1500X4.6500*%
%ADD67R,1.5000X1.2000*%
G04:AMPARAMS|DCode=68|XSize=3.02mm|YSize=0.97mm|CornerRadius=0.2425mm|HoleSize=0mm|Usage=FLASHONLY|Rotation=90.000|XOffset=0mm|YOffset=0mm|HoleType=Round|Shape=RoundedRectangle|*
%AMROUNDEDRECTD68*
21,1,3.0200,0.4850,0,0,90.0*
21,1,2.5350,0.9700,0,0,90.0*
1,1,0.4850,0.2425,1.2675*
1,1,0.4850,0.2425,-1.2675*
1,1,0.4850,-0.2425,-1.2675*
1,1,0.4850,-0.2425,1.2675*
%
%ADD68ROUNDEDRECTD68*%
%ADD69R,1.4000X2.1000*%
%ADD70R,1.3700X2.4300*%
%ADD71R,1.5748X0.6096*%
G36*
X959300Y1107650D02*
X942100D01*
Y1123250D01*
X959300D01*
Y1107650D01*
D02*
G37*
G36*
X933900D02*
X916700D01*
Y1123250D01*
X933900D01*
Y1107650D01*
D02*
G37*
G36*
X959300Y1086550D02*
X942100D01*
Y1102150D01*
X959300D01*
Y1086550D01*
D02*
G37*
G36*
X933900D02*
X916700D01*
Y1102150D01*
X933900D01*
Y1086550D01*
D02*
G37*
G36*
X959300Y1065450D02*
X942100D01*
Y1081050D01*
X959300D01*
Y1065450D01*
D02*
G37*
G36*
X933900D02*
X916700D01*
Y1081050D01*
X933900D01*
Y1065450D01*
D02*
G37*
G36*
X874787Y808240D02*
X856245D01*
Y841260D01*
X874787D01*
Y808240D01*
D02*
G37*
D14*
X811330Y1437250D02*
D03*
X810330Y1331000D02*
D03*
X800170D02*
D03*
X978170Y1437000D02*
D03*
X978920Y1374250D02*
D03*
Y1331750D02*
D03*
X801420Y1374000D02*
D03*
X801170Y1437250D02*
D03*
X811580Y1374000D02*
D03*
X988330Y1437000D02*
D03*
X989080Y1331750D02*
D03*
Y1374250D02*
D03*
D15*
X1130000Y579750D02*
D03*
X1110000D02*
D03*
Y561750D02*
D03*
X1130000D02*
D03*
X1322500Y458750D02*
D03*
X1321750Y405500D02*
D03*
X1011250Y572750D02*
D03*
X852000Y544000D02*
D03*
X999000Y536500D02*
D03*
X992250Y397000D02*
D03*
X844250Y645000D02*
D03*
X886250Y1160000D02*
D03*
Y1142000D02*
D03*
X705250Y1200000D02*
D03*
X864250Y1437500D02*
D03*
X790250Y1168750D02*
D03*
X705250Y1182000D02*
D03*
X790250Y1129500D02*
D03*
X789750Y1073000D02*
D03*
X864250Y1455500D02*
D03*
X790250Y1150750D02*
D03*
Y1111500D02*
D03*
X789750Y1091000D02*
D03*
X790250Y704000D02*
D03*
Y686000D02*
D03*
X831750Y703500D02*
D03*
Y685500D02*
D03*
X811000Y703750D02*
D03*
Y685750D02*
D03*
X802750Y544000D02*
D03*
X827500Y543750D02*
D03*
X844250Y627000D02*
D03*
X992250Y415000D02*
D03*
X999000Y518500D02*
D03*
X799750Y758750D02*
D03*
X765250Y821250D02*
D03*
X947500Y660750D02*
D03*
X866750Y763750D02*
D03*
X1034000Y573000D02*
D03*
X765250Y839250D02*
D03*
X1034000Y555000D02*
D03*
X802750Y526000D02*
D03*
X1011250Y590750D02*
D03*
X852000Y526000D02*
D03*
X827500Y525750D02*
D03*
X1321750Y423500D02*
D03*
X1322500Y440750D02*
D03*
X968000Y417500D02*
D03*
Y399500D02*
D03*
X799750Y776750D02*
D03*
X866500Y725500D02*
D03*
X866750Y781750D02*
D03*
X947500Y678750D02*
D03*
X866500Y743500D02*
D03*
D17*
X872250Y901250D02*
D03*
X1184750Y496000D02*
D03*
X1010000Y764500D02*
D03*
X966500Y765000D02*
D03*
X1184000Y529250D02*
D03*
X1165000Y425750D02*
D03*
X1011750Y398750D02*
D03*
X1028000Y764500D02*
D03*
X984500Y765000D02*
D03*
X815000Y1415250D02*
D03*
X797000D02*
D03*
X796500Y1352750D02*
D03*
X797000Y1394750D02*
D03*
X973500Y1415500D02*
D03*
Y1395250D02*
D03*
X974000Y1353000D02*
D03*
X814500Y1352750D02*
D03*
X1333750Y1269000D02*
D03*
X1351750D02*
D03*
X1045250Y1189000D02*
D03*
X1045000Y1165000D02*
D03*
X724750Y1471500D02*
D03*
X1027250Y1189000D02*
D03*
X1027000Y1165000D02*
D03*
X706750Y1471500D02*
D03*
X795250Y666000D02*
D03*
X843500Y773250D02*
D03*
X854250Y901250D02*
D03*
X1029750Y398750D02*
D03*
X1183000Y425750D02*
D03*
X1183000Y445250D02*
D03*
X1166000Y529250D02*
D03*
X1053750Y588000D02*
D03*
X813250Y666000D02*
D03*
X1165000Y445250D02*
D03*
X1071750Y588000D02*
D03*
X1166750Y496000D02*
D03*
X825500Y773250D02*
D03*
X815000Y1394750D02*
D03*
X992000Y1353000D02*
D03*
X991500Y1395250D02*
D03*
Y1415500D02*
D03*
D54*
X1135000Y502000D02*
D03*
Y492000D02*
D03*
Y507000D02*
D03*
Y442000D02*
D03*
X1021000Y517000D02*
D03*
Y512000D02*
D03*
X1135000Y447000D02*
D03*
Y512000D02*
D03*
X1021000Y467000D02*
D03*
X1135000Y487000D02*
D03*
X1021000Y462000D02*
D03*
Y482000D02*
D03*
Y502000D02*
D03*
Y457000D02*
D03*
Y477000D02*
D03*
X1135000Y517000D02*
D03*
Y497000D02*
D03*
Y482000D02*
D03*
Y477000D02*
D03*
Y472000D02*
D03*
Y467000D02*
D03*
Y457000D02*
D03*
Y452000D02*
D03*
X1021000Y442000D02*
D03*
Y447000D02*
D03*
Y452000D02*
D03*
Y472000D02*
D03*
Y487000D02*
D03*
Y492000D02*
D03*
Y507000D02*
D03*
Y497000D02*
D03*
X1135000Y462000D02*
D03*
D55*
X1095500Y536500D02*
D03*
X1100500D02*
D03*
X1040500Y422500D02*
D03*
X1045500D02*
D03*
X1075500D02*
D03*
X1080500D02*
D03*
X1090500D02*
D03*
X1095500D02*
D03*
X1040500Y536500D02*
D03*
X1045500D02*
D03*
X1050500D02*
D03*
X1055500D02*
D03*
X1060500D02*
D03*
X1065500D02*
D03*
X1075500D02*
D03*
X1080500D02*
D03*
X1085500D02*
D03*
X1090500D02*
D03*
X1105500D02*
D03*
X1115500D02*
D03*
X1110500Y422500D02*
D03*
X1105500D02*
D03*
X1100500D02*
D03*
X1085500D02*
D03*
X1070500D02*
D03*
X1065500D02*
D03*
X1060500D02*
D03*
X1055500D02*
D03*
X1050500D02*
D03*
X1115500D02*
D03*
X1070500Y536500D02*
D03*
X1110500D02*
D03*
D56*
X1154706Y564000D02*
D03*
X1173294D02*
D03*
D57*
X947750Y713750D02*
D03*
Y695162D02*
D03*
D58*
X945750Y399650D02*
D03*
Y415850D02*
D03*
D59*
X792250Y584000D02*
D03*
D60*
Y642000D02*
D03*
X815250D02*
D03*
X769250D02*
D03*
D62*
X799984Y824750D02*
D03*
Y801763D02*
D03*
Y847737D02*
D03*
D63*
X817450Y1099550D02*
D03*
Y1152950D02*
D03*
X855550D02*
D03*
Y1099550D02*
D03*
X830150Y1152950D02*
D03*
X842850D02*
D03*
Y1099550D02*
D03*
X830150D02*
D03*
D64*
X1281750Y1204250D02*
D03*
X1111750D02*
D03*
D65*
X1034900Y1099750D02*
D03*
D67*
X1044750Y1137250D02*
D03*
X1025050D02*
D03*
D68*
X960860Y1159650D02*
D03*
X915140D02*
D03*
D69*
X806500Y408500D02*
D03*
X873000D02*
D03*
Y499500D02*
D03*
X806500D02*
D03*
X761000D02*
D03*
Y408500D02*
D03*
X827500Y499500D02*
D03*
Y408500D02*
D03*
D70*
X1054250Y562500D02*
D03*
X1072250D02*
D03*
D71*
X836664Y749650D02*
D03*
X815836Y740500D02*
D03*
X836664Y731350D02*
D03*
M02*
