G04*
G04 #@! TF.GenerationSoftware,Altium Limited,Altium Designer,26.5.0 (11)*
G04*
G04 Layer_Physical_Order=4*
G04 Layer_Color=16711680*
G04 Board_Origin=25805118|26780118*
%FSLAX44Y44*%
%MOMM*%
G71*
G04*
G04 #@! TF.SameCoordinates,65A94B93-1730-4F76-93CD-A5B1C849D6C6*
G04*
G04*
G04 #@! TF.FilePolarity,Positive*
G04*
G01*
G75*
%ADD17R,1.3500X1.0000*%
%ADD19R,1.0000X1.3500*%
%ADD20R,0.8508X0.8588*%
%ADD33C,0.3000*%
%ADD34C,0.6000*%
%ADD35C,0.3810*%
%ADD36C,0.2540*%
%ADD37O,1.5500X0.7750*%
%ADD38O,0.9500X1.3000*%
%ADD39C,1.5240*%
%ADD40R,1.5240X1.5240*%
%ADD41C,1.8000*%
%ADD42R,1.8000X1.8000*%
%ADD43R,1.5240X1.5240*%
%ADD44C,6.0000*%
%ADD45C,0.6000*%
%AMCUSTOMSHAPE57*
4,1,4,1.6510,0.9271,1.6510,-0.9271,-1.6510,-0.9271,-1.6510,0.9271,1.6510,0.9271,0.0*%
%ADD57CUSTOMSHAPE57*%

%ADD58R,0.6604X1.8542*%
%ADD59R,1.5748X0.6096*%
%ADD60R,0.9500X2.1500*%
%ADD61R,2.0066X2.0066*%
%ADD62R,1.6002X1.1176*%
%ADD63R,1.3400X0.6000*%
G04:AMPARAMS|DCode=64|XSize=0.26mm|YSize=0.97mm|CornerRadius=0.065mm|HoleSize=0mm|Usage=FLASHONLY|Rotation=270.000|XOffset=0mm|YOffset=0mm|HoleType=Round|Shape=RoundedRectangle|*
%AMROUNDEDRECTD64*
21,1,0.2600,0.8400,0,0,270.0*
21,1,0.1300,0.9700,0,0,270.0*
1,1,0.1300,-0.4200,-0.0650*
1,1,0.1300,-0.4200,0.0650*
1,1,0.1300,0.4200,0.0650*
1,1,0.1300,0.4200,-0.0650*
%
%ADD64ROUNDEDRECTD64*%
%ADD65R,0.6096X1.7272*%
%ADD66R,0.3000X1.5000*%
%ADD67R,1.5000X0.3000*%
%ADD68R,1.0008X1.2088*%
%ADD69R,1.1723X0.5580*%
%ADD70R,1.5500X1.5000*%
%ADD71R,3.1500X3.1500*%
%ADD72R,1.3500X0.4000*%
G04:AMPARAMS|DCode=73|XSize=0.26mm|YSize=0.97mm|CornerRadius=0.065mm|HoleSize=0mm|Usage=FLASHONLY|Rotation=0.000|XOffset=0mm|YOffset=0mm|HoleType=Round|Shape=RoundedRectangle|*
%AMROUNDEDRECTD73*
21,1,0.2600,0.8400,0,0,0.0*
21,1,0.1300,0.9700,0,0,0.0*
1,1,0.1300,0.0650,-0.4200*
1,1,0.1300,-0.0650,-0.4200*
1,1,0.1300,-0.0650,0.4200*
1,1,0.1300,0.0650,0.4200*
%
%ADD73ROUNDEDRECTD73*%
%ADD74R,0.8000X1.7000*%
%ADD75R,1.7000X0.8000*%
%ADD76R,1.3700X2.4300*%
%ADD77R,0.9300X0.8100*%
%ADD78R,3.2500X2.1500*%
%ADD79C,0.2500*%
%ADD80C,0.5080*%
G36*
X794902Y641072D02*
X378603D01*
X378208Y640993D01*
X377805Y641009D01*
X372477Y640165D01*
X372099Y640026D01*
X371699Y639978D01*
X366569Y638312D01*
X366218Y638115D01*
X365830Y638005D01*
X361024Y635557D01*
X360707Y635307D01*
X360341Y635139D01*
X355977Y631968D01*
X355704Y631673D01*
X355369Y631449D01*
X351554Y627635D01*
X351330Y627300D01*
X351035Y627026D01*
X347864Y622663D01*
X347695Y622297D01*
X347446Y621981D01*
X344996Y617174D01*
X344887Y616787D01*
X344690Y616435D01*
X343023Y611305D01*
X342975Y610905D01*
X342836Y610527D01*
X342648Y609342D01*
X342600Y609268D01*
X341767Y608462D01*
X340788Y607948D01*
X252984D01*
X251818Y607464D01*
X251334Y606298D01*
Y588898D01*
X215827D01*
X214237Y590285D01*
Y619442D01*
X214376Y619535D01*
X272796D01*
X273962Y620018D01*
X274446Y621184D01*
Y691261D01*
X276987D01*
Y699221D01*
X287636D01*
Y696912D01*
X304184D01*
Y698829D01*
X308464D01*
Y696912D01*
X325012D01*
Y709960D01*
X321351D01*
Y715772D01*
X321262Y716217D01*
Y716672D01*
X321088Y717092D01*
X320999Y717537D01*
X320747Y717915D01*
X320573Y718335D01*
X320252Y718656D01*
X320000Y719034D01*
X319622Y719286D01*
X319301Y719607D01*
X318881Y719781D01*
X318503Y720033D01*
X318058Y720122D01*
X317638Y720296D01*
X317183D01*
X316738Y720385D01*
X316292Y720296D01*
X315838D01*
X315418Y720122D01*
X314973Y720033D01*
X314595Y719781D01*
X314175Y719607D01*
X313854Y719286D01*
X313476Y719034D01*
X313224Y718656D01*
X312903Y718335D01*
X312729Y717915D01*
X312477Y717537D01*
X312388Y717092D01*
X312214Y716672D01*
Y716217D01*
X312125Y715772D01*
Y709960D01*
X308464D01*
Y708055D01*
X304184D01*
Y709960D01*
X298999D01*
Y716280D01*
X298910Y716725D01*
Y717180D01*
X298736Y717600D01*
X298647Y718045D01*
X298395Y718423D01*
X298221Y718843D01*
X297900Y719164D01*
X297648Y719542D01*
X297270Y719794D01*
X296949Y720115D01*
X296529Y720289D01*
X296151Y720542D01*
X295706Y720630D01*
X295286Y720804D01*
X294832D01*
X294386Y720893D01*
X293941Y720804D01*
X293486D01*
X293066Y720630D01*
X292621Y720542D01*
X292243Y720289D01*
X291823Y720115D01*
X291502Y719794D01*
X291124Y719542D01*
X290872Y719164D01*
X290551Y718843D01*
X290377Y718423D01*
X290124Y718045D01*
X290036Y717600D01*
X289862Y717180D01*
Y716725D01*
X289773Y716280D01*
Y709960D01*
X287636D01*
Y708447D01*
X276987D01*
Y712851D01*
X274446D01*
Y727456D01*
X273962Y728622D01*
X272796Y729106D01*
X101600D01*
X100434Y728622D01*
X99950Y727456D01*
Y622046D01*
X100434Y620880D01*
X101600Y620396D01*
X133096D01*
X134262Y620880D01*
X134746Y622046D01*
Y625456D01*
X144368D01*
X145773Y623956D01*
X146029Y623646D01*
X146184Y623274D01*
X146416Y623177D01*
X146577Y622983D01*
X148216Y622113D01*
X148617Y622075D01*
X148990Y621920D01*
X153332D01*
X153857Y622138D01*
X154398Y622311D01*
X155879Y623565D01*
X155912Y623630D01*
X155979Y623658D01*
X156197Y624183D01*
X156457Y624688D01*
X157939Y625840D01*
X168520D01*
X169285Y623992D01*
X160945Y615652D01*
X160943Y615646D01*
X160937Y615644D01*
X160702Y615065D01*
X160462Y614485D01*
X160464Y614479D01*
X160462Y614474D01*
X160657Y587236D01*
X160900Y586660D01*
X161140Y586082D01*
X161145Y586079D01*
X161148Y586073D01*
X161728Y585838D01*
X162306Y585598D01*
X165938D01*
Y579716D01*
X173482D01*
X181026D01*
Y585598D01*
X186036D01*
Y581042D01*
X195326D01*
X204616D01*
Y585598D01*
X209042D01*
X209424Y583751D01*
Y528190D01*
X207836Y527196D01*
X207424Y527196D01*
X201566D01*
Y517906D01*
Y508616D01*
X207424D01*
X207836Y508616D01*
X209424Y507622D01*
Y391081D01*
X172514Y354171D01*
X172471Y354066D01*
X172372Y354009D01*
X172235Y353496D01*
X172031Y353005D01*
X170389Y352690D01*
X170101Y352673D01*
X169606Y352806D01*
X167198D01*
X164872Y352183D01*
X162787Y350979D01*
X161085Y349277D01*
X159881Y347192D01*
X159258Y344866D01*
Y342458D01*
X159881Y340132D01*
X161085Y338047D01*
X162787Y336345D01*
X164872Y335141D01*
X167198Y334518D01*
X169606D01*
X170816Y333589D01*
Y297421D01*
X168969Y296656D01*
X143404Y322220D01*
X142404Y322888D01*
X141224Y323123D01*
X141224Y323123D01*
X105417D01*
X51164Y377376D01*
Y394064D01*
X30116D01*
Y373016D01*
X46804D01*
X99675Y320145D01*
X98909Y318297D01*
X84843D01*
X49940Y353200D01*
X50447Y354078D01*
X51164Y356754D01*
Y359525D01*
X50447Y362202D01*
X49061Y364602D01*
X47102Y366561D01*
X44702Y367947D01*
X42025Y368664D01*
X39255D01*
X36578Y367947D01*
X34178Y366561D01*
X32219Y364602D01*
X30833Y362202D01*
X30116Y359525D01*
Y356754D01*
X30833Y354078D01*
X32219Y351678D01*
X34178Y349719D01*
X36578Y348333D01*
X39255Y347616D01*
X42025D01*
X44702Y348333D01*
X45580Y348840D01*
X81386Y313034D01*
X82386Y312365D01*
X83566Y312131D01*
X83566Y312131D01*
X138169D01*
X162122Y288178D01*
X161293Y286178D01*
X155194D01*
Y279908D01*
X163214D01*
Y284257D01*
X165214Y285086D01*
X171637Y278663D01*
X171616Y277364D01*
X171300Y276387D01*
X171174Y276084D01*
X170942Y275852D01*
Y275524D01*
X170816Y275221D01*
Y230378D01*
X171300Y229212D01*
X216512Y184000D01*
X217678Y183516D01*
X223209D01*
X224898Y182766D01*
Y179887D01*
X199637D01*
X198651Y180873D01*
X196988Y181562D01*
X195188D01*
X193525Y180873D01*
X192793Y180141D01*
X184143D01*
X182903Y181381D01*
X181240Y182070D01*
X179440D01*
X177777Y181381D01*
X176791Y180395D01*
X162384D01*
Y182556D01*
X150036D01*
Y171408D01*
X162384D01*
Y174697D01*
X176791D01*
X177777Y173711D01*
X179440Y173022D01*
X181240D01*
X182903Y173711D01*
X183635Y174443D01*
X192285D01*
X193525Y173203D01*
X195188Y172514D01*
X196988D01*
X198651Y173203D01*
X199637Y174189D01*
X224898D01*
Y169718D01*
X237417D01*
X239506Y167630D01*
X238740Y165782D01*
X234442D01*
Y159512D01*
X242462D01*
Y161055D01*
X244462Y162003D01*
X245380Y161283D01*
Y159500D01*
X255420D01*
Y156960D01*
X245380D01*
Y154190D01*
X246396D01*
Y146313D01*
X217727D01*
X217195Y147597D01*
X215923Y148869D01*
X214260Y149558D01*
X212460D01*
X210797Y148869D01*
X209525Y147597D01*
X208836Y145934D01*
Y144134D01*
X209176Y143313D01*
X208070Y141313D01*
X182274D01*
X182264Y141324D01*
Y150178D01*
X165716D01*
Y137130D01*
X164054Y136313D01*
X140834D01*
Y141414D01*
X133893D01*
Y145396D01*
X137952D01*
Y161944D01*
X133893D01*
Y165716D01*
X137444D01*
Y182264D01*
X124396D01*
Y165716D01*
X127727D01*
Y161944D01*
X124904D01*
Y145396D01*
X127727D01*
Y141414D01*
X120786D01*
Y131313D01*
X105457D01*
X81411Y155359D01*
Y295052D01*
X81411Y295052D01*
X81177Y296232D01*
X80508Y297232D01*
X80508Y297232D01*
X49940Y327800D01*
X50447Y328678D01*
X51164Y331354D01*
Y334126D01*
X50447Y336802D01*
X49061Y339202D01*
X47102Y341161D01*
X44702Y342547D01*
X42025Y343264D01*
X39255D01*
X36578Y342547D01*
X34178Y341161D01*
X32219Y339202D01*
X30833Y336802D01*
X30116Y334126D01*
Y331354D01*
X30833Y328678D01*
X32219Y326278D01*
X34178Y324319D01*
X36578Y322933D01*
X39255Y322216D01*
X42025D01*
X44702Y322933D01*
X45580Y323440D01*
X75245Y293775D01*
Y155972D01*
X73245Y155144D01*
X68018Y160370D01*
Y283045D01*
X68018Y283045D01*
X67784Y284225D01*
X67115Y285225D01*
X67115Y285225D01*
X49940Y302400D01*
X50447Y303278D01*
X51164Y305954D01*
Y308725D01*
X50447Y311402D01*
X49061Y313802D01*
X47102Y315761D01*
X44702Y317147D01*
X42025Y317864D01*
X39255D01*
X36578Y317147D01*
X34178Y315761D01*
X32219Y313802D01*
X30833Y311402D01*
X30116Y308725D01*
Y305954D01*
X30833Y303278D01*
X32219Y300878D01*
X34178Y298919D01*
X36578Y297533D01*
X39255Y296816D01*
X42025D01*
X44702Y297533D01*
X45580Y298040D01*
X61852Y281768D01*
Y159093D01*
X61852Y159093D01*
X62087Y157913D01*
X62755Y156913D01*
X98618Y121050D01*
X98618Y121050D01*
X99618Y120381D01*
X100798Y120147D01*
X100798Y120147D01*
X118253D01*
X119019Y118299D01*
X104500Y103780D01*
X103832Y102780D01*
X103597Y101600D01*
X103597Y101600D01*
Y41152D01*
X103151Y41033D01*
X101066Y39829D01*
X99363Y38126D01*
X98159Y36042D01*
X97536Y33716D01*
Y31308D01*
X98159Y28983D01*
X99363Y26897D01*
X101066Y25195D01*
X102406Y24421D01*
X101870Y22421D01*
X92032D01*
X90424Y23368D01*
X90424Y24421D01*
Y41656D01*
X87091D01*
Y61576D01*
X90200D01*
Y78124D01*
X88234D01*
Y81896D01*
X90090D01*
Y98444D01*
X77042D01*
Y81896D01*
X79008D01*
Y78124D01*
X77152D01*
Y61576D01*
X77865D01*
Y41656D01*
X72136D01*
Y37125D01*
X64113D01*
X63900Y37337D01*
Y43862D01*
X47352D01*
Y30814D01*
X57377D01*
X58940Y29250D01*
X60437Y28251D01*
X62202Y27899D01*
X70722D01*
X72136Y26485D01*
X72136Y23368D01*
X70528Y22421D01*
X63900D01*
Y25862D01*
X47352D01*
Y12814D01*
X63900D01*
Y16255D01*
X144306D01*
X144306Y16255D01*
X145486Y16489D01*
X146486Y17158D01*
X153551Y24222D01*
X153951Y23991D01*
X156276Y23368D01*
X158684D01*
X161010Y23991D01*
X163095Y25195D01*
X164797Y26897D01*
X166001Y28983D01*
X166624Y31308D01*
Y33716D01*
X166001Y36042D01*
X165770Y36442D01*
X175934Y46606D01*
X175934Y46606D01*
X176602Y47606D01*
X176837Y48786D01*
Y55762D01*
X179278D01*
X179797Y53977D01*
Y41152D01*
X179350Y41033D01*
X177265Y39829D01*
X175563Y38126D01*
X174359Y36042D01*
X173736Y33716D01*
Y31308D01*
X174359Y28983D01*
X175563Y26897D01*
X177265Y25195D01*
X179350Y23991D01*
X181676Y23368D01*
X184084D01*
X186409Y23991D01*
X188494Y25195D01*
X190197Y26897D01*
X191401Y28983D01*
X192024Y31308D01*
Y33716D01*
X191401Y36042D01*
X190197Y38126D01*
X188494Y39829D01*
X186409Y41033D01*
X185963Y41152D01*
Y64001D01*
X197159Y75197D01*
X201214D01*
Y67056D01*
X207754D01*
X214294D01*
Y75197D01*
X265144D01*
X265145Y75197D01*
X266324Y75431D01*
X267325Y76100D01*
X268660Y77435D01*
X271896D01*
Y69028D01*
X271837Y68730D01*
Y64007D01*
X264364Y56534D01*
X254986D01*
Y40681D01*
X241046D01*
X240600Y40592D01*
X240146D01*
X239726Y40418D01*
X239281Y40329D01*
X238903Y40077D01*
X238483Y39903D01*
X238162Y39582D01*
X237784Y39330D01*
X237532Y38952D01*
X237211Y38631D01*
X237037Y38211D01*
X236784Y37833D01*
X236696Y37388D01*
X236522Y36968D01*
Y36514D01*
X236433Y36068D01*
X236522Y35622D01*
Y35168D01*
X236696Y34748D01*
X236784Y34303D01*
X237037Y33925D01*
X237211Y33505D01*
X237532Y33184D01*
X237784Y32806D01*
X238162Y32554D01*
X238483Y32233D01*
X238903Y32059D01*
X239281Y31806D01*
X239726Y31718D01*
X240146Y31544D01*
X240600D01*
X241046Y31455D01*
X253076D01*
X254732Y30626D01*
Y14078D01*
X267780D01*
Y30626D01*
X267349D01*
X265940Y32045D01*
X265967Y35780D01*
X265967Y35780D01*
X265967Y35780D01*
X265969Y36020D01*
X265979Y36068D01*
X265970Y36113D01*
X265998Y39986D01*
X268034D01*
Y51484D01*
X270122Y53572D01*
X271970Y52807D01*
Y49530D01*
X279510D01*
X287050D01*
Y57550D01*
X287050D01*
X285891Y59550D01*
X285943Y59706D01*
X296837D01*
Y47307D01*
X295000Y45470D01*
X294331Y44470D01*
X294097Y43290D01*
X294097Y43290D01*
Y40814D01*
X288906D01*
Y40814D01*
X287050Y41161D01*
Y46990D01*
X280780D01*
Y38970D01*
X287050D01*
Y38970D01*
X288906Y38622D01*
Y27766D01*
X301526D01*
X302296Y25766D01*
X300250Y23720D01*
X299644Y22814D01*
X288906D01*
Y9766D01*
X305454D01*
Y19492D01*
X305513Y19790D01*
X306896Y21047D01*
X309226D01*
Y8716D01*
X325774D01*
Y10125D01*
X609106D01*
X609106Y10125D01*
X610286Y10359D01*
X611286Y11028D01*
X620856Y20598D01*
X622856Y19769D01*
Y19602D01*
X623545Y17939D01*
X624817Y16667D01*
X626480Y15978D01*
X628280D01*
X629943Y16667D01*
X630695Y17419D01*
X648828D01*
X650647Y15600D01*
X650647Y15600D01*
X651647Y14931D01*
X652827Y14697D01*
X674740D01*
X674740Y14697D01*
X675920Y14931D01*
X676920Y15600D01*
X685050Y23730D01*
X693738D01*
Y40278D01*
X680690D01*
Y28090D01*
X678788Y26188D01*
X676940Y26953D01*
Y40278D01*
X672379D01*
Y48968D01*
X677520D01*
Y58016D01*
X661072D01*
Y48968D01*
X666213D01*
Y40278D01*
X663892D01*
Y23730D01*
X672581D01*
X673560Y21730D01*
X672888Y20863D01*
X654984D01*
X654330Y21730D01*
X655326Y23730D01*
X658940D01*
Y40278D01*
X650199D01*
X647640Y42837D01*
Y45580D01*
X652418D01*
Y53684D01*
X656795Y58061D01*
X657553Y59195D01*
X657819Y60533D01*
Y76443D01*
X659603Y77517D01*
X660997Y76727D01*
X661172Y75924D01*
Y67968D01*
X668951D01*
X669396Y67879D01*
X679023D01*
X680872Y67516D01*
X680872Y65879D01*
Y58468D01*
X697320D01*
Y58468D01*
X698270Y58861D01*
X702131Y55001D01*
Y40278D01*
X698690D01*
Y23730D01*
X711738D01*
Y40278D01*
X708297D01*
Y56278D01*
X708297Y56278D01*
X708063Y57458D01*
X707394Y58458D01*
X700719Y65134D01*
X699718Y65802D01*
X698539Y66037D01*
X697320Y67445D01*
Y67516D01*
X687921D01*
X687485Y68130D01*
X687038Y69476D01*
X687038Y69516D01*
X687349Y69827D01*
X687523Y70247D01*
X687775Y70625D01*
X687864Y71070D01*
X688038Y71490D01*
Y71944D01*
X688127Y72390D01*
Y83566D01*
X687775Y85331D01*
X687132Y86295D01*
X687095Y86383D01*
X687028Y86450D01*
X686776Y86828D01*
X686522Y87082D01*
X686144Y87334D01*
X685823Y87655D01*
X685403Y87829D01*
X685025Y88082D01*
X684580Y88170D01*
X684160Y88344D01*
X683706D01*
X683260Y88433D01*
X682814Y88344D01*
X682360D01*
X681940Y88170D01*
X681495Y88082D01*
X681117Y87829D01*
X680697Y87655D01*
X680376Y87334D01*
X679998Y87082D01*
X679746Y86704D01*
X679425Y86383D01*
X679251Y85963D01*
X678998Y85585D01*
X678910Y85140D01*
X678736Y84720D01*
Y84265D01*
X678647Y83820D01*
X678736Y83375D01*
Y82920D01*
X678901Y82521D01*
Y77105D01*
X669396D01*
X668951Y77016D01*
X665573D01*
X664788Y79016D01*
X665505Y79733D01*
X666194Y81396D01*
Y83196D01*
X666172Y83249D01*
X668398Y85476D01*
X669066Y86476D01*
X669301Y87656D01*
X669301Y87656D01*
Y92710D01*
X681990D01*
Y101854D01*
X663194D01*
Y96032D01*
X663135Y95734D01*
X663135Y95734D01*
Y88933D01*
X661022Y86820D01*
X660770D01*
X659354Y86233D01*
X659081Y86138D01*
X656831Y86683D01*
X656795Y86737D01*
X641617Y101915D01*
Y121000D01*
X646940Y126323D01*
X682850D01*
X684187Y126589D01*
X685322Y127347D01*
X699961Y141986D01*
X699961Y141986D01*
X700719Y143120D01*
X700985Y144458D01*
Y153139D01*
X702621Y154775D01*
X704469Y154010D01*
Y139446D01*
X705958D01*
Y128404D01*
X702982Y125428D01*
X701918D01*
X700255Y124739D01*
X698983Y123467D01*
X698294Y121804D01*
Y120004D01*
X698983Y118341D01*
X700255Y117069D01*
X701918Y116380D01*
X703718D01*
X705381Y117069D01*
X706653Y118341D01*
X707342Y120004D01*
Y121068D01*
X711221Y124947D01*
X711221Y124947D01*
X711889Y125947D01*
X711994Y126472D01*
X713994Y126275D01*
Y119126D01*
X715483D01*
Y108350D01*
X712440D01*
Y103159D01*
X705879D01*
X702818Y106220D01*
Y111004D01*
X684022D01*
Y101860D01*
X698458D01*
X702422Y97896D01*
X702422Y97896D01*
X703422Y97227D01*
X704602Y96993D01*
X704602Y96993D01*
X712440D01*
Y91802D01*
X725488D01*
Y108350D01*
X721649D01*
Y119126D01*
X723138D01*
Y137604D01*
X723519Y139446D01*
X725138Y139446D01*
X732663D01*
Y159766D01*
X727286D01*
X726948Y159833D01*
X720292D01*
X715982Y164143D01*
X714847Y164901D01*
X713509Y165167D01*
X704573D01*
X703235Y164901D01*
X702101Y164143D01*
X702100Y164143D01*
X697161Y159204D01*
X696969Y159187D01*
X695458Y160300D01*
X695627Y161148D01*
Y162448D01*
X695458Y163296D01*
X695083Y164298D01*
X695458Y165300D01*
X695627Y166148D01*
Y167448D01*
X695458Y168296D01*
X695083Y169298D01*
X695458Y170300D01*
X695627Y171148D01*
Y172448D01*
X695458Y173296D01*
X695083Y174298D01*
X695458Y175300D01*
X695627Y176148D01*
Y177448D01*
X695458Y178296D01*
X694977Y179015D01*
X694258Y179496D01*
X693410Y179664D01*
X693022Y181665D01*
X693443Y181839D01*
X694556Y182952D01*
X696602D01*
X697461Y182093D01*
X699124Y181404D01*
X700924D01*
X702587Y182093D01*
X703859Y183365D01*
X704548Y185028D01*
Y186828D01*
X703859Y188491D01*
X702587Y189763D01*
X700924Y190452D01*
X699124D01*
X697461Y189763D01*
X696348Y188650D01*
X694302D01*
X693443Y189509D01*
X691780Y190198D01*
X689980D01*
X688317Y189509D01*
X687331Y188523D01*
X683377D01*
Y189698D01*
X683208Y190546D01*
X682727Y191265D01*
X682008Y191746D01*
X681160Y191915D01*
X679860D01*
X678593Y193689D01*
Y197653D01*
X688374Y207434D01*
X711054D01*
Y204406D01*
X727602D01*
Y217454D01*
X711054D01*
Y214426D01*
X686926D01*
X685588Y214160D01*
X684454Y213402D01*
X675441Y204389D01*
X673593Y205155D01*
Y219921D01*
X679126Y225454D01*
X686465D01*
Y234082D01*
X687981Y235251D01*
X688860D01*
X689472Y234998D01*
X691272D01*
X692935Y235687D01*
X694207Y236959D01*
X694896Y238622D01*
Y240422D01*
X694516Y241340D01*
Y247610D01*
X694896Y248528D01*
Y250328D01*
X694207Y251991D01*
X692935Y253263D01*
X691272Y253952D01*
X689472D01*
X688403Y253509D01*
X686465Y253082D01*
Y253082D01*
X686465Y253082D01*
X671694D01*
Y252455D01*
X669930Y251851D01*
X668750Y251616D01*
X667750Y250948D01*
X667750Y250948D01*
X663584Y246782D01*
X662915Y245782D01*
X662681Y244602D01*
X662681Y244602D01*
Y194687D01*
X661780Y193659D01*
Y185498D01*
X659240D01*
Y192827D01*
X658615Y192703D01*
X657560Y191998D01*
X657273Y191569D01*
X657008Y191746D01*
X656160Y191915D01*
X654860D01*
X654012Y191746D01*
X653293Y191265D01*
X652727D01*
X652008Y191746D01*
X651160Y191915D01*
X649860D01*
X649012Y191746D01*
X648293Y191265D01*
X647812Y190546D01*
X647643Y189698D01*
Y181298D01*
X647566Y181076D01*
X646232Y179742D01*
X646010Y179664D01*
X642899D01*
X641810Y179881D01*
X637321D01*
X632241Y184960D01*
Y188802D01*
X637432D01*
Y201850D01*
X620884D01*
Y188802D01*
X626075D01*
Y183683D01*
X626075Y183683D01*
X626310Y182503D01*
X626978Y181503D01*
X633863Y174618D01*
X633863Y174618D01*
X633985Y174536D01*
X634914Y173806D01*
X635393Y172448D01*
Y171148D01*
X633619Y169881D01*
X629574D01*
X628394Y169646D01*
X627393Y168978D01*
X627393Y168978D01*
X622154Y163739D01*
X622064Y163679D01*
X622064Y163678D01*
X618644Y160259D01*
X617976Y159258D01*
X617741Y158078D01*
X617741Y158078D01*
Y34358D01*
X604198Y20815D01*
X353669D01*
X352332Y22815D01*
X352504Y23230D01*
Y25030D01*
X352485Y25075D01*
X353821Y27075D01*
X366783D01*
X367769Y26089D01*
X369432Y25400D01*
X371232D01*
X372895Y26089D01*
X374167Y27361D01*
X374856Y29024D01*
Y30824D01*
X374753Y31071D01*
X376090Y33071D01*
X538226D01*
Y23876D01*
X556514D01*
Y42164D01*
X538226D01*
Y38769D01*
X534361D01*
X533595Y40617D01*
X543230Y50251D01*
X543840Y49899D01*
X546166Y49276D01*
X548574D01*
X550900Y49899D01*
X552985Y51103D01*
X554687Y52806D01*
X555891Y54890D01*
X556514Y57216D01*
Y59624D01*
X555891Y61950D01*
X554687Y64035D01*
X552985Y65737D01*
X552499Y66017D01*
X553035Y68017D01*
X591566D01*
X591566Y68017D01*
X592656Y68234D01*
X593376Y68715D01*
X594160Y68518D01*
X595376Y67819D01*
Y60706D01*
X604266D01*
Y69596D01*
X597153D01*
X596325Y71596D01*
X601396Y76667D01*
X602006Y76315D01*
X604332Y75692D01*
X606740D01*
X609066Y76315D01*
X611151Y77519D01*
X612853Y79222D01*
X614057Y81306D01*
X614680Y83632D01*
Y86040D01*
X614057Y88365D01*
X612853Y90450D01*
X611151Y92153D01*
X609066Y93357D01*
X606740Y93980D01*
X604332D01*
X602006Y93357D01*
X599921Y92153D01*
X598219Y90450D01*
X597015Y88365D01*
X596392Y86040D01*
Y83632D01*
X597015Y81306D01*
X597368Y80696D01*
X590386Y73715D01*
X554187D01*
X553635Y75599D01*
X553633Y75715D01*
X555500Y77582D01*
X556838Y79898D01*
X557530Y82482D01*
Y82550D01*
X547370D01*
X537210D01*
Y82482D01*
X537902Y79898D01*
X539240Y77582D01*
X541107Y75715D01*
X541105Y75599D01*
X540553Y73715D01*
X540004D01*
X540004Y73715D01*
X538914Y73498D01*
X537990Y72880D01*
X512878Y47769D01*
X498403D01*
X497637Y49616D01*
X535857Y87837D01*
X537650Y86801D01*
X537210Y85158D01*
Y85090D01*
X546100D01*
Y93980D01*
X546032D01*
X544389Y93540D01*
X543354Y95333D01*
X553266Y105245D01*
X597859D01*
X598219Y104621D01*
X599921Y102919D01*
X602006Y101715D01*
X604332Y101092D01*
X606740D01*
X609066Y101715D01*
X611151Y102919D01*
X612853Y104621D01*
X614057Y106706D01*
X614680Y109032D01*
Y111440D01*
X614057Y113765D01*
X612853Y115850D01*
X611151Y117553D01*
X609066Y118757D01*
X606740Y119380D01*
X604332D01*
X602006Y118757D01*
X599921Y117553D01*
X598219Y115850D01*
X597015Y113765D01*
X596392Y111440D01*
Y110943D01*
X587485D01*
X586719Y112790D01*
X601396Y127467D01*
X602006Y127115D01*
X604332Y126492D01*
X606740D01*
X609066Y127115D01*
X611151Y128319D01*
X612853Y130021D01*
X614057Y132107D01*
X614680Y134432D01*
Y136840D01*
X614057Y139165D01*
X612853Y141250D01*
X611151Y142953D01*
X609066Y144157D01*
X606740Y144780D01*
X604332D01*
X602006Y144157D01*
X599921Y142953D01*
X598219Y141250D01*
X597015Y139165D01*
X596392Y136840D01*
Y134432D01*
X597015Y132107D01*
X597368Y131496D01*
X581314Y115443D01*
X571157D01*
X570391Y117290D01*
X604266Y151166D01*
X604266Y151166D01*
X604752Y151892D01*
X606740D01*
X609066Y152515D01*
X611151Y153719D01*
X612853Y155421D01*
X614057Y157507D01*
X614680Y159832D01*
Y162240D01*
X614057Y164566D01*
X612853Y166651D01*
X611151Y168353D01*
X609066Y169557D01*
X606740Y170180D01*
X604332D01*
X602006Y169557D01*
X599921Y168353D01*
X598219Y166651D01*
X597015Y164566D01*
X596392Y162240D01*
Y159832D01*
X597015Y157507D01*
X598219Y155421D01*
X599342Y154299D01*
X564986Y119943D01*
X546862D01*
X545772Y119726D01*
X544848Y119108D01*
X544848Y119108D01*
X538908Y113169D01*
X536908Y113997D01*
Y114946D01*
X536219Y116609D01*
X534947Y117881D01*
X533284Y118570D01*
X531484D01*
X529821Y117881D01*
X528549Y116609D01*
X527860Y114946D01*
Y113882D01*
X514343Y100365D01*
X489364D01*
X489305Y100444D01*
X488677Y102365D01*
X489917Y103605D01*
X491121Y105690D01*
X491744Y108016D01*
Y110424D01*
X491121Y112750D01*
X489917Y114834D01*
X488214Y116537D01*
X486129Y117741D01*
X484764Y118107D01*
X485027Y120107D01*
X493268D01*
X493268Y120107D01*
X494448Y120342D01*
X495448Y121010D01*
X531629Y157191D01*
X539052D01*
X539103Y156999D01*
X540307Y154914D01*
X542010Y153211D01*
X544095Y152007D01*
X546420Y151384D01*
X548828D01*
X551153Y152007D01*
X553238Y153211D01*
X554941Y154914D01*
X556145Y156999D01*
X556768Y159324D01*
Y161732D01*
X556145Y164058D01*
X554941Y166143D01*
X554717Y166367D01*
X555545Y168367D01*
X590550D01*
X590550Y168367D01*
X591730Y168601D01*
X592730Y169270D01*
X601606Y178146D01*
X602006Y177915D01*
X604332Y177292D01*
X606740D01*
X609066Y177915D01*
X611151Y179119D01*
X612853Y180821D01*
X614057Y182906D01*
X614680Y185232D01*
Y187640D01*
X614057Y189965D01*
X612853Y192050D01*
X611151Y193753D01*
X609066Y194957D01*
X606740Y195580D01*
X604332D01*
X602006Y194957D01*
X599921Y193753D01*
X598219Y192050D01*
X597015Y189965D01*
X596392Y187640D01*
Y185232D01*
X597015Y182906D01*
X597246Y182507D01*
X589273Y174533D01*
X552551D01*
X551614Y176345D01*
X551672Y176533D01*
X553862Y177798D01*
X555754Y179690D01*
X557092Y182006D01*
X557784Y184590D01*
Y184658D01*
X547624D01*
Y185928D01*
D01*
Y184658D01*
X537464D01*
Y184590D01*
X538156Y182006D01*
X539494Y179690D01*
X541386Y177798D01*
X543576Y176533D01*
X543633Y176345D01*
X542697Y174533D01*
X485027D01*
X484764Y176533D01*
X486129Y176899D01*
X488214Y178103D01*
X489917Y179806D01*
X491121Y181891D01*
X491744Y184216D01*
Y186624D01*
X491121Y188950D01*
X489917Y191035D01*
X488214Y192737D01*
X486129Y193941D01*
X483804Y194564D01*
X481396D01*
X479071Y193941D01*
X478671Y193710D01*
X472505Y199875D01*
X472592Y200592D01*
X473197Y201875D01*
X505213D01*
X506199Y200889D01*
X507862Y200200D01*
X509662D01*
X511325Y200889D01*
X512597Y202161D01*
X513286Y203824D01*
Y205624D01*
X512597Y207287D01*
X511325Y208559D01*
X510827Y208765D01*
X511225Y210765D01*
X518421D01*
X519407Y209779D01*
X521070Y209090D01*
X522870D01*
X524533Y209779D01*
X525805Y211051D01*
X526494Y212714D01*
Y214514D01*
X525805Y216177D01*
X524533Y217449D01*
X522870Y218138D01*
X521070D01*
X519407Y217449D01*
X518421Y216463D01*
X438314D01*
X386062Y268714D01*
X385138Y269332D01*
X384048Y269549D01*
X384048Y269549D01*
X358558D01*
X316793Y311314D01*
Y363564D01*
X339242Y386013D01*
X340541Y385992D01*
X341517Y385676D01*
X341821Y385550D01*
X342053Y385318D01*
X342381D01*
X342684Y385192D01*
X375286D01*
Y373666D01*
X375019Y373029D01*
X374369Y372032D01*
X373956Y371699D01*
X372477Y371465D01*
X372099Y371326D01*
X371699Y371278D01*
X366568Y369611D01*
X366217Y369414D01*
X365829Y369305D01*
X361022Y366856D01*
X360706Y366606D01*
X360340Y366438D01*
X355976Y363267D01*
X355702Y362971D01*
X355367Y362747D01*
X351553Y358933D01*
X351329Y358598D01*
X351033Y358324D01*
X347862Y353960D01*
X347693Y353594D01*
X347444Y353278D01*
X344995Y348471D01*
X344886Y348083D01*
X344689Y347732D01*
X343022Y342601D01*
X342974Y342201D01*
X342835Y341823D01*
X341991Y336495D01*
X342007Y336092D01*
X341928Y335697D01*
Y330303D01*
X342007Y329907D01*
X341991Y329505D01*
X342835Y324177D01*
X342974Y323799D01*
X343022Y323399D01*
X344689Y318268D01*
X344886Y317917D01*
X344995Y317529D01*
X347444Y312722D01*
X347693Y312406D01*
X347862Y312040D01*
X351033Y307676D01*
X351329Y307402D01*
X351553Y307067D01*
X355367Y303253D01*
X355702Y303029D01*
X355976Y302733D01*
X360340Y299562D01*
X360706Y299394D01*
X361022Y299144D01*
X365829Y296695D01*
X366217Y296586D01*
X366568Y296389D01*
X371699Y294722D01*
X372099Y294674D01*
X372477Y294535D01*
X377805Y293691D01*
X378208Y293707D01*
X378603Y293628D01*
X794902D01*
Y5098D01*
X5098D01*
Y744902D01*
X794902D01*
Y641072D01*
D02*
G37*
G36*
X220345Y703326D02*
X226187D01*
Y702056D01*
X227457D01*
Y690245D01*
X232029D01*
X232792Y688561D01*
Y657224D01*
X184627D01*
X183460Y656740D01*
X182977Y655574D01*
Y631062D01*
X177038D01*
X176110Y631682D01*
X165354D01*
X154813D01*
Y624824D01*
X153332Y623570D01*
X148990D01*
X147350Y624440D01*
Y632460D01*
X139810D01*
Y633730D01*
X138540D01*
Y643020D01*
X134746D01*
Y656590D01*
X147828D01*
Y665734D01*
X129247D01*
X129182Y665890D01*
X128750Y666069D01*
X128366Y666336D01*
X128270Y666416D01*
Y673874D01*
X137160D01*
Y679462D01*
Y685050D01*
X134746D01*
Y712344D01*
X220345D01*
Y703326D01*
D02*
G37*
G36*
X272796Y712851D02*
X267335D01*
Y691261D01*
X272796D01*
Y621184D01*
X214376D01*
Y624332D01*
X205378D01*
Y630030D01*
X196088D01*
X186798D01*
Y624332D01*
X184627D01*
Y655574D01*
X234442D01*
Y713994D01*
X133096D01*
Y684034D01*
X129032D01*
Y677479D01*
X128016Y675900D01*
X127032Y675900D01*
X118872D01*
Y670312D01*
Y664724D01*
X127032D01*
X128016Y664724D01*
X129032Y663145D01*
Y656590D01*
X133096D01*
Y622046D01*
X101600D01*
Y727456D01*
X272796D01*
Y712851D01*
D02*
G37*
G36*
X182977Y624332D02*
X183460Y623166D01*
X184627Y622682D01*
X186418D01*
X186798Y620840D01*
X186798Y620682D01*
Y614570D01*
X196088D01*
X205378D01*
Y620682D01*
X205378Y620840D01*
X205758Y622682D01*
X212587D01*
Y590285D01*
X211200Y588898D01*
X211074D01*
X209908Y588414D01*
X209042Y587248D01*
X181026D01*
Y593764D01*
X173482D01*
X165938D01*
Y587248D01*
X162306D01*
X162111Y614485D01*
X173466Y625840D01*
X174879D01*
Y627253D01*
X177038Y629412D01*
X182977D01*
Y624332D01*
D02*
G37*
G36*
X341912Y604429D02*
X341929Y604298D01*
X341928Y599007D01*
X342006Y598613D01*
X341991Y598210D01*
X342834Y592882D01*
X342973Y592504D01*
X343020Y592104D01*
X344687Y586973D01*
X344883Y586622D01*
X344993Y586235D01*
X347441Y581428D01*
X347690Y581111D01*
X347859Y580746D01*
X351029Y576381D01*
X351324Y576107D01*
X351548Y575773D01*
X355362Y571957D01*
X355697Y571734D01*
X355970Y571438D01*
X360334Y568266D01*
X360699Y568097D01*
X361016Y567848D01*
X365821Y565398D01*
X366209Y565289D01*
X366560Y565092D01*
X371690Y563424D01*
X372090Y563376D01*
X372468Y563237D01*
X377796Y562392D01*
X378198Y562408D01*
X378593Y562329D01*
X381291Y562328D01*
X381295Y562329D01*
X381300Y562328D01*
X794902D01*
Y372372D01*
X381300Y372372D01*
X378603D01*
X376936Y373666D01*
Y386842D01*
X342684D01*
X341918Y388690D01*
X381926Y428697D01*
X441678D01*
X441678Y428697D01*
X442768Y428914D01*
X443693Y429532D01*
X475745Y461584D01*
X477140D01*
X478803Y462273D01*
X480075Y463545D01*
X480764Y465208D01*
Y467008D01*
X480075Y468671D01*
X478803Y469943D01*
X477140Y470632D01*
X475340D01*
X474649Y470346D01*
X473516Y472041D01*
X475746Y474271D01*
X477141D01*
X478804Y474960D01*
X480076Y476232D01*
X480765Y477895D01*
Y479695D01*
X480076Y481357D01*
X478804Y482630D01*
X477141Y483319D01*
X475341D01*
X473678Y482630D01*
X472406Y481357D01*
X471717Y479695D01*
Y478300D01*
X432384Y438967D01*
X381678D01*
X380913Y440815D01*
X384055Y443957D01*
X427215D01*
X427967Y443205D01*
X429630Y442516D01*
X431430D01*
X433093Y443205D01*
X434365Y444477D01*
X435054Y446140D01*
Y447940D01*
X434365Y449603D01*
X433093Y450875D01*
X431430Y451564D01*
X429630D01*
X427967Y450875D01*
X427215Y450123D01*
X382778D01*
X381598Y449888D01*
X380598Y449220D01*
X380598Y449220D01*
X318220Y386842D01*
X281432D01*
X280924Y387350D01*
X252222Y358648D01*
X217678D01*
X217591Y352697D01*
X215672Y352183D01*
X213587Y350979D01*
X211885Y349277D01*
X210681Y347192D01*
X210058Y344866D01*
Y342458D01*
X210681Y340132D01*
X211885Y338047D01*
X213587Y336345D01*
X215672Y335141D01*
X217327Y334698D01*
X216118Y252112D01*
X214265Y251360D01*
X172466Y293158D01*
Y335450D01*
X174016Y336345D01*
X175719Y338047D01*
X176923Y340132D01*
X177546Y342458D01*
Y344866D01*
X176923Y347192D01*
X175719Y349277D01*
X174016Y350979D01*
X173942Y351022D01*
X173681Y353005D01*
X211074Y390398D01*
Y508616D01*
X217026D01*
Y517906D01*
Y527196D01*
X211074D01*
Y587248D01*
X252984D01*
Y606298D01*
X340788D01*
X341912Y604429D01*
D02*
G37*
G36*
X281432Y385192D02*
X313957D01*
X314722Y383345D01*
X301350Y369972D01*
X300681Y368972D01*
X300447Y367792D01*
X300447Y367792D01*
Y282448D01*
X300447Y282448D01*
X300681Y281268D01*
X301350Y280268D01*
X316837Y264781D01*
Y259110D01*
X308864D01*
Y251570D01*
Y244030D01*
X316837D01*
Y241693D01*
X315868Y240094D01*
X299320D01*
Y227046D01*
X302684D01*
Y223224D01*
X297806D01*
Y223224D01*
X296554D01*
Y223224D01*
X291263D01*
Y227046D01*
X295802D01*
Y240094D01*
X279254D01*
Y227046D01*
X285097D01*
Y223224D01*
X279806D01*
Y195876D01*
X291837D01*
Y191754D01*
X271896D01*
X270291Y192708D01*
Y194056D01*
X270056Y195236D01*
X269388Y196236D01*
X269388Y196236D01*
X216950Y248675D01*
X216960Y249939D01*
X217267Y250928D01*
X217399Y251235D01*
X217637Y251469D01*
X217640Y251792D01*
X217767Y252087D01*
X218974Y334518D01*
X220406D01*
X222731Y335141D01*
X224816Y336345D01*
X226519Y338047D01*
X227723Y340132D01*
X228346Y342458D01*
Y344866D01*
X227723Y347192D01*
X226519Y349277D01*
X224816Y350979D01*
X222731Y352183D01*
X220406Y352806D01*
X219259Y353969D01*
X219304Y356998D01*
X252222D01*
X253388Y357482D01*
X281197Y385290D01*
X281432Y385192D01*
D02*
G37*
G36*
X394716Y245605D02*
Y232918D01*
X383984D01*
Y236370D01*
X377190D01*
X370396D01*
Y230806D01*
X370840D01*
Y205486D01*
X337434D01*
Y195592D01*
X337071Y195050D01*
X336837Y193870D01*
X336190Y193392D01*
Y182730D01*
X333650D01*
Y192770D01*
X333003D01*
Y211436D01*
X336614D01*
Y227984D01*
X334703D01*
Y231756D01*
X336504D01*
Y248304D01*
X334703D01*
Y254185D01*
X338836Y258318D01*
X382003D01*
X394716Y245605D01*
D02*
G37*
G36*
X462640Y169270D02*
X462640Y169270D01*
X463640Y168601D01*
X464820Y168367D01*
X475187D01*
X476015Y166367D01*
X475283Y165634D01*
X474079Y163549D01*
X473456Y161224D01*
Y158816D01*
X474079Y156490D01*
X474310Y156090D01*
X440942Y122722D01*
X422020D01*
Y153011D01*
X424434D01*
X426199Y153363D01*
X427696Y154362D01*
X428695Y155859D01*
X428923Y157005D01*
X428958Y157088D01*
Y157178D01*
X429047Y157624D01*
X428958Y158069D01*
Y158888D01*
X428269Y160551D01*
X426997Y161823D01*
X425334Y162512D01*
X423534D01*
X422869Y162237D01*
X409340D01*
X408062Y162766D01*
X406262D01*
X404984Y162237D01*
X398672D01*
Y164148D01*
X382124D01*
Y156313D01*
X379460D01*
Y156960D01*
X369420D01*
Y159500D01*
X379460D01*
Y162270D01*
X378444D01*
Y166254D01*
X369718D01*
X369420Y166313D01*
X352002D01*
X350822Y166078D01*
X349822Y165410D01*
X349822Y165410D01*
X347663Y163252D01*
X347610Y163274D01*
X345810D01*
X344147Y162585D01*
X342875Y161313D01*
X342186Y159650D01*
Y157850D01*
X342588Y156880D01*
X341698Y155132D01*
X341416Y154880D01*
X309626D01*
X308460Y154396D01*
X307976Y153230D01*
Y152526D01*
X301933D01*
X298499Y156000D01*
X298494Y156016D01*
X298167Y157700D01*
X298265Y158269D01*
X307100Y167104D01*
X307100Y167104D01*
X307768Y168104D01*
X308003Y169284D01*
Y173706D01*
X337771D01*
X338051Y173440D01*
X338756Y171706D01*
X338111Y170894D01*
X336920D01*
X335257Y170205D01*
X333985Y168933D01*
X333296Y167270D01*
Y165470D01*
X333985Y163807D01*
X335257Y162535D01*
X336920Y161846D01*
X338720D01*
X340383Y162535D01*
X341655Y163807D01*
X342344Y165470D01*
Y165722D01*
X347100Y170478D01*
X347769Y171478D01*
X348003Y172658D01*
X349525Y173706D01*
X352944D01*
Y182432D01*
X353003Y182730D01*
Y183861D01*
X379397D01*
X381108Y183164D01*
X381108Y181861D01*
Y176894D01*
X399688D01*
Y181861D01*
X399688Y183164D01*
X401399Y183861D01*
X448049D01*
X462640Y169270D01*
D02*
G37*
G36*
X259601Y190699D02*
Y173288D01*
X257753Y172523D01*
X245110Y185166D01*
X217678D01*
X172466Y230378D01*
Y275221D01*
X174314Y275986D01*
X259601Y190699D01*
D02*
G37*
G36*
X297326Y154841D02*
X301244Y150876D01*
X309626D01*
Y153230D01*
X357778D01*
X359380Y152270D01*
Y149500D01*
X369420D01*
X379460D01*
Y150147D01*
X384254D01*
X384254Y150147D01*
X385434Y150381D01*
X386174Y150876D01*
X386434Y151050D01*
X386484Y151100D01*
X398672D01*
Y153011D01*
X420370D01*
Y122722D01*
X383049D01*
X380361Y125410D01*
X379360Y126079D01*
X378444Y126261D01*
Y130206D01*
Y134190D01*
X379460D01*
Y136960D01*
X369420D01*
X359380D01*
Y134190D01*
X360396D01*
Y121412D01*
X293913D01*
Y153577D01*
X295187Y154848D01*
X297326Y154841D01*
D02*
G37*
G36*
X161101Y113463D02*
X161084Y113422D01*
Y111622D01*
X161773Y109959D01*
X163045Y108687D01*
X164708Y107998D01*
X166508D01*
X167876Y108565D01*
X168791Y108003D01*
X169489Y107233D01*
X169212Y106564D01*
Y104764D01*
X169901Y103101D01*
X171173Y101829D01*
X172836Y101140D01*
X174636D01*
X176299Y101829D01*
X177571Y103101D01*
X178260Y104764D01*
Y105136D01*
X178270Y105147D01*
X181140D01*
X181538Y103147D01*
X180317Y102641D01*
X179045Y101369D01*
X178356Y99706D01*
Y97906D01*
X179045Y96243D01*
X180317Y94971D01*
X181980Y94282D01*
X183780D01*
X185443Y94971D01*
X186715Y96243D01*
X187404Y97906D01*
Y98158D01*
X189393Y100147D01*
X246396D01*
Y91313D01*
X154016D01*
X152836Y91079D01*
X151836Y90410D01*
X151836Y90410D01*
X138774Y77348D01*
X138105Y76348D01*
X137871Y75168D01*
X137871Y75168D01*
Y72671D01*
X133224D01*
Y63381D01*
Y54091D01*
X137887D01*
Y42679D01*
X136010Y40802D01*
X135610Y41033D01*
X133284Y41656D01*
X130876D01*
X128551Y41033D01*
X126466Y39829D01*
X124763Y38126D01*
X123559Y36042D01*
X122936Y33716D01*
Y31308D01*
X123559Y28983D01*
X124763Y26897D01*
X126466Y25195D01*
X127806Y24421D01*
X127270Y22421D01*
X111490D01*
X110954Y24421D01*
X112295Y25195D01*
X113997Y26897D01*
X115201Y28983D01*
X115824Y31308D01*
Y33716D01*
X115201Y36042D01*
X113997Y38126D01*
X112295Y39829D01*
X110210Y41033D01*
X109763Y41152D01*
Y100323D01*
X117770Y108330D01*
X119770Y107501D01*
X119770Y106815D01*
Y103160D01*
X129540D01*
Y108430D01*
X121454D01*
X120699Y108430D01*
X119870Y110430D01*
X124903Y115463D01*
X159765D01*
X161101Y113463D01*
D02*
G37*
G36*
X324415Y117762D02*
X324406Y117740D01*
Y115940D01*
X325095Y114277D01*
X326367Y113005D01*
X328030Y112316D01*
X329830D01*
X331493Y113005D01*
X332765Y114277D01*
X333125Y115147D01*
X360396D01*
Y110206D01*
Y97270D01*
X359380D01*
Y94500D01*
X369420D01*
X379460D01*
Y95147D01*
X397226D01*
Y83928D01*
X410274D01*
Y100147D01*
X414210D01*
Y93472D01*
X421750D01*
X429290D01*
Y100147D01*
X453892D01*
X454720Y98147D01*
X451776Y95202D01*
X450712D01*
X449049Y94513D01*
X447777Y93241D01*
X447088Y91578D01*
Y89778D01*
X447777Y88115D01*
X449049Y86843D01*
X450712Y86154D01*
X452512D01*
X454175Y86843D01*
X455447Y88115D01*
X456136Y89778D01*
Y90842D01*
X459493Y94199D01*
X470531D01*
X472440Y93980D01*
X472440Y92199D01*
Y85090D01*
X482600D01*
X492760D01*
Y92199D01*
X492760Y93980D01*
X494669Y94199D01*
X515620D01*
X515620Y94199D01*
X516800Y94433D01*
X517800Y95102D01*
X530840Y108141D01*
X531017Y108106D01*
X531675Y105936D01*
X487008Y61269D01*
X414812D01*
Y68834D01*
X407272D01*
X399732D01*
Y61269D01*
X397564D01*
X395796Y61830D01*
Y78378D01*
X390806D01*
X388855Y78713D01*
X388620Y79893D01*
X387952Y80894D01*
X387952Y80894D01*
X379460Y89386D01*
Y91960D01*
X369420D01*
X359380D01*
Y91313D01*
X353489D01*
X352575Y92227D01*
X350912Y92916D01*
X350102D01*
X343868Y99150D01*
Y100214D01*
X343179Y101877D01*
X341907Y103149D01*
X340244Y103838D01*
X338444D01*
X336781Y103149D01*
X335509Y101877D01*
X334820Y100214D01*
Y98414D01*
X335509Y96751D01*
X336781Y95479D01*
X338444Y94790D01*
X339508D01*
X345488Y88810D01*
Y87492D01*
X346177Y85829D01*
X347449Y84557D01*
X349112Y83868D01*
X350912D01*
X352575Y84557D01*
X353165Y85147D01*
X374978D01*
X382689Y77436D01*
Y73604D01*
X382689Y73604D01*
X382748Y73306D01*
Y61830D01*
X380980Y61269D01*
X355510D01*
X352944Y63835D01*
Y77754D01*
X317769D01*
Y92663D01*
X319047Y93193D01*
X320319Y94465D01*
X321008Y96128D01*
Y97928D01*
X320319Y99591D01*
X319047Y100863D01*
X317384Y101552D01*
X315584D01*
X313921Y100863D01*
X312649Y99591D01*
X311960Y97928D01*
Y96128D01*
X312234Y95468D01*
X312071Y94652D01*
X312071Y94652D01*
Y83351D01*
X310071Y82522D01*
X305514Y87080D01*
Y88475D01*
X304825Y90138D01*
X303553Y91410D01*
X301890Y92099D01*
X300090D01*
X298427Y91410D01*
X297155Y90138D01*
X296466Y88475D01*
Y86675D01*
X297155Y85012D01*
X298427Y83740D01*
X300090Y83051D01*
X301485D01*
X304935Y79602D01*
X304169Y77754D01*
X287855D01*
X287768Y78186D01*
X287100Y79187D01*
X283589Y82698D01*
X282589Y83366D01*
X281409Y83601D01*
X281409Y83601D01*
X271007D01*
X270242Y85449D01*
X293010Y108217D01*
X293010Y108217D01*
X293678Y109218D01*
X293913Y110397D01*
X293913Y110398D01*
Y119762D01*
X323079D01*
X324415Y117762D01*
D02*
G37*
%LPC*%
G36*
X53335Y713088D02*
X53086D01*
Y701548D01*
X50546D01*
Y713088D01*
X50297D01*
X47362Y712301D01*
X44730Y710782D01*
X42582Y708634D01*
X41062Y706002D01*
X40311Y703198D01*
X10594D01*
X10593Y703197D01*
X10592Y703198D01*
X10006Y702954D01*
X9428Y702714D01*
X9427Y702713D01*
X9426Y702713D01*
X8014Y701296D01*
X8013Y701295D01*
X8012Y701294D01*
X7772Y700710D01*
X7533Y700129D01*
X7533Y700128D01*
X7533Y700126D01*
X7998Y553461D01*
X8240Y552880D01*
X8481Y552300D01*
X8483Y552299D01*
X8484Y552296D01*
X9066Y552057D01*
X9647Y551816D01*
X56294D01*
X56388Y551816D01*
X58294Y550441D01*
Y541908D01*
X31750D01*
X30584Y541424D01*
X30100Y540258D01*
Y533456D01*
X30010Y531494D01*
X28100Y531494D01*
X23990D01*
Y518204D01*
Y504914D01*
X30010Y504914D01*
X30100Y502952D01*
Y500760D01*
X13716D01*
X12550Y500276D01*
X12066Y499110D01*
Y432054D01*
X12550Y430888D01*
X13716Y430404D01*
X76308D01*
Y417690D01*
X79969D01*
Y402082D01*
X80321Y400317D01*
X81320Y398820D01*
X93001Y387140D01*
X93512Y386374D01*
X110022Y369864D01*
X134104Y345783D01*
X133858Y344866D01*
Y342458D01*
X134481Y340132D01*
X135685Y338047D01*
X137388Y336345D01*
X139473Y335141D01*
X141798Y334518D01*
X144206D01*
X146531Y335141D01*
X148617Y336345D01*
X150319Y338047D01*
X151523Y340132D01*
X152146Y342458D01*
Y344866D01*
X151523Y347192D01*
X150319Y349277D01*
X148617Y350979D01*
X146531Y352183D01*
X144206Y352806D01*
X141798D01*
X140480Y352453D01*
X116546Y376388D01*
X101101Y391832D01*
X101035Y392163D01*
X100783Y392541D01*
X100609Y392961D01*
X100288Y393282D01*
X100036Y393660D01*
X99658Y393912D01*
X99337Y394233D01*
X98917Y394407D01*
X98539Y394660D01*
X98525Y394662D01*
X89195Y403993D01*
Y417690D01*
X92856D01*
Y420089D01*
X101098Y428331D01*
X102946Y427566D01*
Y423760D01*
X110490D01*
X118034D01*
Y431074D01*
X117018Y431510D01*
Y446646D01*
X112401D01*
X111748Y447624D01*
X100779Y458592D01*
X100730Y458838D01*
Y466916D01*
X84182D01*
X83692Y468713D01*
Y470852D01*
X91186D01*
Y478392D01*
X92456D01*
Y479662D01*
X101746D01*
Y485932D01*
X101746D01*
X102000Y486888D01*
X102000Y486888D01*
X102000Y487827D01*
Y493158D01*
X92710D01*
Y495698D01*
X102000D01*
Y500449D01*
X102216Y500839D01*
X103112Y501735D01*
X103489Y502024D01*
X103516Y502025D01*
X103519Y502024D01*
X103991Y501796D01*
X104989Y500932D01*
X105264Y500491D01*
Y495588D01*
X113284D01*
Y501858D01*
X107411D01*
X107169Y502177D01*
X106532Y503858D01*
X106623Y504076D01*
X106890Y504501D01*
X108307Y505794D01*
X122828D01*
Y518842D01*
X110532D01*
X109854Y519858D01*
Y558879D01*
X111173Y560198D01*
X156972D01*
X158138Y560682D01*
X158622Y561848D01*
Y571852D01*
X158528Y572076D01*
X158554Y572318D01*
X158296Y572638D01*
X158138Y573018D01*
X157914Y573111D01*
X157761Y573300D01*
X156356Y574065D01*
Y577994D01*
X147066D01*
Y580534D01*
X156356D01*
Y584463D01*
X157761Y585228D01*
X157914Y585417D01*
X158138Y585510D01*
X158296Y585890D01*
X158554Y586210D01*
X158528Y586452D01*
X158622Y586676D01*
Y587979D01*
X158512Y588243D01*
X158527Y588528D01*
X157911Y590273D01*
X157664Y590549D01*
X157522Y590890D01*
X157259Y591000D01*
X157067Y591212D01*
X156698Y591232D01*
X156356Y591374D01*
X155340D01*
Y603788D01*
X155087D01*
X153874Y605788D01*
X154007Y606041D01*
X154029Y606298D01*
X154168Y606515D01*
X154082Y606903D01*
X154117Y607299D01*
X153952Y607496D01*
X153897Y607748D01*
X153896Y607748D01*
X153540Y608258D01*
X153412Y608340D01*
X153354Y608480D01*
X152895Y608671D01*
X152477Y608938D01*
X152476Y608938D01*
X152328Y608905D01*
X152188Y608964D01*
X60038D01*
X59944Y608964D01*
X58038Y610339D01*
Y613607D01*
X57994Y613713D01*
X58024Y613823D01*
X58580Y615809D01*
X58778Y616009D01*
X58882Y616102D01*
X58902Y616114D01*
X61050Y618262D01*
X62569Y620894D01*
X63356Y623829D01*
Y624078D01*
X51816D01*
Y626618D01*
X63356D01*
Y626867D01*
X62569Y629802D01*
X61050Y632434D01*
X58902Y634582D01*
X58855Y634609D01*
X57554Y635922D01*
X57758Y636413D01*
X58024Y636873D01*
X57994Y636983D01*
X58038Y637089D01*
Y647320D01*
X65676D01*
Y639208D01*
X75946D01*
Y650748D01*
X78486D01*
Y639208D01*
X88756D01*
Y647320D01*
X90678D01*
X91844Y647804D01*
X92328Y648970D01*
Y674074D01*
X92124Y674565D01*
X91987Y675079D01*
X91858Y676148D01*
X91987Y677217D01*
X92124Y677731D01*
X92328Y678222D01*
Y701548D01*
X91844Y702714D01*
X90678Y703198D01*
X63321D01*
X62569Y706002D01*
X61050Y708634D01*
X58902Y710782D01*
X56270Y712301D01*
X53335Y713088D01*
D02*
G37*
G36*
X305200Y692976D02*
X297180D01*
Y686706D01*
X305200D01*
Y692976D01*
D02*
G37*
G36*
X326028D02*
X318008D01*
Y686706D01*
X326028D01*
Y692976D01*
D02*
G37*
G36*
X294640D02*
X286620D01*
Y686706D01*
X294640D01*
Y692976D01*
D02*
G37*
G36*
X315468D02*
X307448D01*
Y686706D01*
X315468D01*
Y692976D01*
D02*
G37*
G36*
X326028Y684166D02*
X318008D01*
Y677896D01*
X326028D01*
Y684166D01*
D02*
G37*
G36*
X315468D02*
X307448D01*
Y677896D01*
X315468D01*
Y684166D01*
D02*
G37*
G36*
X305200D02*
X297180D01*
Y677896D01*
X305200D01*
Y684166D01*
D02*
G37*
G36*
X294640D02*
X286620D01*
Y677896D01*
X294640D01*
Y684166D01*
D02*
G37*
G36*
X752481Y716524D02*
X747519D01*
X742618Y715748D01*
X737899Y714214D01*
X733478Y711962D01*
X729464Y709045D01*
X725955Y705536D01*
X723038Y701522D01*
X720786Y697101D01*
X719252Y692382D01*
X718476Y687481D01*
Y682519D01*
X719252Y677618D01*
X720786Y672899D01*
X723038Y668478D01*
X725955Y664464D01*
X729464Y660955D01*
X733478Y658038D01*
X737899Y655786D01*
X742618Y654252D01*
X747519Y653476D01*
X752481D01*
X757382Y654252D01*
X762101Y655786D01*
X766522Y658038D01*
X770536Y660955D01*
X774045Y664464D01*
X776962Y668478D01*
X779214Y672899D01*
X780748Y677618D01*
X781524Y682519D01*
Y687481D01*
X780748Y692382D01*
X779214Y697101D01*
X776962Y701522D01*
X774045Y705536D01*
X770536Y709045D01*
X766522Y711962D01*
X762101Y714214D01*
X757382Y715748D01*
X752481Y716524D01*
D02*
G37*
G36*
X204616Y578502D02*
X196596D01*
Y572232D01*
X204616D01*
Y578502D01*
D02*
G37*
G36*
X194056D02*
X186036D01*
Y572232D01*
X194056D01*
Y578502D01*
D02*
G37*
G36*
X181026Y577176D02*
X174752D01*
Y569862D01*
X181026D01*
Y577176D01*
D02*
G37*
G36*
X172212D02*
X165938D01*
Y569862D01*
X172212D01*
Y577176D01*
D02*
G37*
G36*
X21450Y531494D02*
X15430D01*
Y519474D01*
X21450D01*
Y531494D01*
D02*
G37*
G36*
X199026Y527196D02*
X192756D01*
Y519176D01*
X199026D01*
Y527196D01*
D02*
G37*
G36*
Y516636D02*
X192756D01*
Y508616D01*
X199026D01*
Y516636D01*
D02*
G37*
G36*
X21450Y516934D02*
X15430D01*
Y504914D01*
X21450D01*
Y516934D01*
D02*
G37*
G36*
X123844Y501858D02*
X115824D01*
Y495588D01*
X123844D01*
Y501858D01*
D02*
G37*
G36*
Y493048D02*
X115824D01*
Y486778D01*
X123844D01*
Y493048D01*
D02*
G37*
G36*
X113284D02*
X105264D01*
Y486778D01*
X113284D01*
Y493048D01*
D02*
G37*
G36*
X101746Y477122D02*
X93726D01*
Y470852D01*
X101746D01*
Y477122D01*
D02*
G37*
G36*
X162481Y498874D02*
X157519D01*
X152618Y498098D01*
X147899Y496564D01*
X143478Y494312D01*
X139464Y491395D01*
X135955Y487887D01*
X133038Y483872D01*
X130786Y479451D01*
X129252Y474732D01*
X128476Y469831D01*
Y464869D01*
X129252Y459968D01*
X130786Y455249D01*
X133038Y450828D01*
X135955Y446814D01*
X139464Y443305D01*
X143478Y440388D01*
X147899Y438135D01*
X152618Y436602D01*
X157519Y435826D01*
X162481D01*
X167382Y436602D01*
X172101Y438135D01*
X176522Y440388D01*
X180536Y443305D01*
X184045Y446814D01*
X186962Y450828D01*
X189214Y455249D01*
X190748Y459968D01*
X191524Y464869D01*
Y469831D01*
X190748Y474732D01*
X189214Y479451D01*
X186962Y483872D01*
X184045Y487887D01*
X180536Y491395D01*
X176522Y494312D01*
X172101Y496564D01*
X167382Y498098D01*
X162481Y498874D01*
D02*
G37*
G36*
X118034Y421220D02*
X111760D01*
Y413906D01*
X118034D01*
Y421220D01*
D02*
G37*
G36*
X109220D02*
X102946D01*
Y413906D01*
X109220D01*
Y421220D01*
D02*
G37*
G36*
X42159Y420480D02*
X41910D01*
Y410210D01*
X52180D01*
Y410459D01*
X51393Y413394D01*
X49874Y416026D01*
X47726Y418174D01*
X45094Y419693D01*
X42159Y420480D01*
D02*
G37*
G36*
X39370D02*
X39121D01*
X36186Y419693D01*
X33554Y418174D01*
X31406Y416026D01*
X29887Y413394D01*
X29100Y410459D01*
Y410210D01*
X39370D01*
Y420480D01*
D02*
G37*
G36*
X52180Y407670D02*
X41910D01*
Y397400D01*
X42159D01*
X45094Y398186D01*
X47726Y399706D01*
X49874Y401854D01*
X51393Y404486D01*
X52180Y407421D01*
Y407670D01*
D02*
G37*
G36*
X39370D02*
X29100D01*
Y407421D01*
X29887Y404486D01*
X31406Y401854D01*
X33554Y399706D01*
X36186Y398186D01*
X39121Y397400D01*
X39370D01*
Y407670D01*
D02*
G37*
G36*
X118940Y353822D02*
X118872D01*
Y344932D01*
X127762D01*
Y345000D01*
X127070Y347584D01*
X125732Y349900D01*
X123840Y351792D01*
X121524Y353130D01*
X118940Y353822D01*
D02*
G37*
G36*
X116332D02*
X116264D01*
X113680Y353130D01*
X111364Y351792D01*
X109472Y349900D01*
X108134Y347584D01*
X107442Y345000D01*
Y344932D01*
X116332D01*
Y353822D01*
D02*
G37*
G36*
X127762Y342392D02*
X118872D01*
Y333502D01*
X118940D01*
X121524Y334194D01*
X123840Y335532D01*
X125732Y337424D01*
X127070Y339740D01*
X127762Y342324D01*
Y342392D01*
D02*
G37*
G36*
X116332D02*
X107442D01*
Y342324D01*
X108134Y339740D01*
X109472Y337424D01*
X111364Y335532D01*
X113680Y334194D01*
X116264Y333502D01*
X116332D01*
Y342392D01*
D02*
G37*
G36*
X121988Y298450D02*
X121920D01*
Y289560D01*
X130810D01*
Y289628D01*
X130118Y292212D01*
X128780Y294528D01*
X126888Y296420D01*
X124572Y297758D01*
X121988Y298450D01*
D02*
G37*
G36*
X119380D02*
X119312D01*
X116728Y297758D01*
X114412Y296420D01*
X112520Y294528D01*
X111182Y292212D01*
X110490Y289628D01*
Y289560D01*
X119380D01*
Y298450D01*
D02*
G37*
G36*
X152654Y286178D02*
X144634D01*
Y279908D01*
X152654D01*
Y286178D01*
D02*
G37*
G36*
X130810Y287020D02*
X121920D01*
Y278130D01*
X121988D01*
X124572Y278822D01*
X126888Y280160D01*
X128780Y282052D01*
X130118Y284368D01*
X130810Y286952D01*
Y287020D01*
D02*
G37*
G36*
X119380D02*
X110490D01*
Y286952D01*
X111182Y284368D01*
X112520Y282052D01*
X114412Y280160D01*
X116728Y278822D01*
X119312Y278130D01*
X119380D01*
Y287020D01*
D02*
G37*
G36*
X42025Y292464D02*
X39255D01*
X36578Y291747D01*
X34178Y290361D01*
X32219Y288402D01*
X30833Y286002D01*
X30116Y283326D01*
Y280555D01*
X30833Y277878D01*
X32219Y275478D01*
X34178Y273519D01*
X36578Y272133D01*
X39255Y271416D01*
X42025D01*
X44702Y272133D01*
X47102Y273519D01*
X49061Y275478D01*
X50447Y277878D01*
X51164Y280555D01*
Y283326D01*
X50447Y286002D01*
X49061Y288402D01*
X47102Y290361D01*
X44702Y291747D01*
X42025Y292464D01*
D02*
G37*
G36*
X163214Y277368D02*
X155194D01*
Y271098D01*
X163214D01*
Y277368D01*
D02*
G37*
G36*
X152654D02*
X144634D01*
Y271098D01*
X152654D01*
Y277368D01*
D02*
G37*
G36*
X121854Y272034D02*
X119446D01*
X117121Y271411D01*
X115035Y270207D01*
X113333Y268505D01*
X112129Y266420D01*
X111506Y264094D01*
Y261686D01*
X112129Y259361D01*
X113333Y257276D01*
X115035Y255573D01*
X117121Y254369D01*
X119446Y253746D01*
X121854D01*
X124179Y254369D01*
X126264Y255573D01*
X127967Y257276D01*
X129171Y259361D01*
X129290Y259807D01*
X145650D01*
Y254114D01*
X162198D01*
Y267162D01*
X145650D01*
Y265973D01*
X129290D01*
X129171Y266420D01*
X127967Y268505D01*
X126264Y270207D01*
X124179Y271411D01*
X121854Y272034D01*
D02*
G37*
G36*
X42025Y267064D02*
X39255D01*
X36578Y266347D01*
X34178Y264961D01*
X32219Y263002D01*
X30833Y260602D01*
X30116Y257925D01*
Y255154D01*
X30833Y252478D01*
X32219Y250078D01*
X34178Y248119D01*
X36578Y246733D01*
X39255Y246016D01*
X42025D01*
X44702Y246733D01*
X47102Y248119D01*
X49061Y250078D01*
X50447Y252478D01*
X51164Y255154D01*
Y257925D01*
X50447Y260602D01*
X49061Y263002D01*
X47102Y264961D01*
X44702Y266347D01*
X42025Y267064D01*
D02*
G37*
G36*
X790986Y252368D02*
X784716D01*
Y244348D01*
X790986D01*
Y252368D01*
D02*
G37*
G36*
X782176D02*
X775906D01*
Y244348D01*
X782176D01*
Y252368D01*
D02*
G37*
G36*
X790986Y241808D02*
X784716D01*
Y233788D01*
X790986D01*
Y241808D01*
D02*
G37*
G36*
X782176D02*
X775906D01*
Y233788D01*
X782176D01*
Y241808D01*
D02*
G37*
G36*
X129794Y246634D02*
X111506D01*
Y228346D01*
X129794D01*
Y246634D01*
D02*
G37*
G36*
X791748Y230270D02*
X785478D01*
Y222250D01*
X791748D01*
Y230270D01*
D02*
G37*
G36*
X782938D02*
X776668D01*
Y222250D01*
X782938D01*
Y230270D01*
D02*
G37*
G36*
X42025Y241664D02*
X39255D01*
X36578Y240947D01*
X34178Y239561D01*
X32219Y237602D01*
X30833Y235202D01*
X30116Y232526D01*
Y229755D01*
X30833Y227078D01*
X32219Y224678D01*
X34178Y222719D01*
X36578Y221333D01*
X39255Y220616D01*
X42025D01*
X44702Y221333D01*
X47102Y222719D01*
X49061Y224678D01*
X50447Y227078D01*
X51164Y229755D01*
Y232526D01*
X50447Y235202D01*
X49061Y237602D01*
X47102Y239561D01*
X44702Y240947D01*
X42025Y241664D01*
D02*
G37*
G36*
X766064Y275631D02*
X765619Y275542D01*
X765164D01*
X764744Y275368D01*
X764299Y275280D01*
X763921Y275027D01*
X763501Y274853D01*
X763180Y274532D01*
X762802Y274280D01*
X762550Y273902D01*
X762229Y273581D01*
X762055Y273161D01*
X761803Y272783D01*
X761714Y272338D01*
X761540Y271918D01*
Y271464D01*
X761451Y271018D01*
Y251352D01*
X758922D01*
Y234804D01*
X761214D01*
Y229254D01*
X759684D01*
Y214304D01*
X759684Y213721D01*
X758803Y213356D01*
X757684Y212892D01*
X719628Y250948D01*
X718628Y251616D01*
X717448Y251851D01*
X715714Y252605D01*
Y253082D01*
X700943D01*
Y244598D01*
X699927D01*
Y240538D01*
X708328D01*
Y237998D01*
X699927D01*
Y233938D01*
X700943D01*
Y225454D01*
X715714D01*
Y226685D01*
X728567D01*
X757603Y197648D01*
X757512Y197257D01*
X755284Y196507D01*
X754708Y196948D01*
X752935Y197682D01*
X752302Y197766D01*
Y188830D01*
X751032D01*
Y187560D01*
X743679D01*
Y187080D01*
X743930Y185177D01*
X744664Y183403D01*
X745400Y182445D01*
X744719Y180654D01*
X743008Y180354D01*
X741129Y180646D01*
X739532Y181308D01*
X737732D01*
X736069Y180619D01*
X735681Y180231D01*
X732693D01*
X732559Y180365D01*
X730896Y181054D01*
X729096D01*
X727433Y180365D01*
X726161Y179093D01*
X725472Y177430D01*
Y175630D01*
X726161Y173967D01*
X727433Y172695D01*
X729096Y172006D01*
X730896D01*
X732559Y172695D01*
X733103Y173239D01*
X735779D01*
X736069Y172949D01*
X737732Y172260D01*
X739532D01*
X741008Y172871D01*
X742470Y172343D01*
X743008Y172088D01*
Y166806D01*
Y155370D01*
X741992D01*
Y152100D01*
X751282D01*
X760572D01*
Y155370D01*
X759556D01*
Y159297D01*
X759886Y161247D01*
X761066Y161481D01*
X762067Y162150D01*
X765894Y165977D01*
X767742Y165212D01*
Y155100D01*
X778032D01*
X788322D01*
Y163790D01*
Y172560D01*
X778032D01*
Y173830D01*
X776762D01*
Y183870D01*
X769353D01*
Y191919D01*
X770282Y192416D01*
Y198280D01*
X770292Y198540D01*
X770312Y198800D01*
X770342Y199060D01*
X770392Y199320D01*
X770452Y199570D01*
X770522Y199830D01*
X770612Y200070D01*
X770712Y200310D01*
X770822Y200550D01*
X770952Y200780D01*
X771092Y201000D01*
X771232Y201220D01*
X771392Y201430D01*
X771562Y201630D01*
X771742Y201820D01*
X771932Y202000D01*
X772132Y202170D01*
X772342Y202330D01*
X772562Y202470D01*
X772782Y202610D01*
X773012Y202740D01*
X773252Y202850D01*
X773492Y202950D01*
X773732Y203040D01*
X773992Y203110D01*
X774242Y203170D01*
X774502Y203220D01*
X774762Y203250D01*
X775022Y203270D01*
X775282Y203280D01*
X776762D01*
Y205371D01*
X774157D01*
X771654Y204873D01*
X769532Y203455D01*
X767125Y203452D01*
X759870Y210706D01*
X760699Y212706D01*
X761264Y212706D01*
X772732D01*
Y229254D01*
X770440D01*
Y234804D01*
X771970D01*
Y251352D01*
X770677D01*
Y271018D01*
X770588Y271464D01*
Y271918D01*
X770414Y272338D01*
X770325Y272783D01*
X770073Y273161D01*
X769899Y273581D01*
X769578Y273902D01*
X769326Y274280D01*
X768948Y274532D01*
X768627Y274853D01*
X768207Y275027D01*
X767829Y275280D01*
X767384Y275368D01*
X766964Y275542D01*
X766509D01*
X766064Y275631D01*
D02*
G37*
G36*
X791748Y219710D02*
X785478D01*
Y211690D01*
X791748D01*
Y219710D01*
D02*
G37*
G36*
X782938D02*
X776668D01*
Y211690D01*
X782938D01*
Y219710D01*
D02*
G37*
G36*
X652048Y238652D02*
X639000D01*
Y222104D01*
X641823D01*
Y215405D01*
X641071Y214653D01*
X640382Y212990D01*
Y211190D01*
X641071Y209527D01*
X642343Y208255D01*
X644006Y207566D01*
X645806D01*
X647469Y208255D01*
X648741Y209527D01*
X649430Y211190D01*
Y212990D01*
X648741Y214653D01*
X647989Y215405D01*
Y222104D01*
X652048D01*
Y238652D01*
D02*
G37*
G36*
X634048D02*
X621000D01*
Y222104D01*
X626075D01*
Y219850D01*
X620884D01*
Y206802D01*
X637432D01*
Y219850D01*
X632241D01*
Y222104D01*
X634048D01*
Y238652D01*
D02*
G37*
G36*
X781907Y205371D02*
X779302D01*
Y203280D01*
X780782D01*
X781042Y203270D01*
X781302Y203250D01*
X781562Y203220D01*
X781822Y203170D01*
X782072Y203110D01*
X782332Y203040D01*
X782572Y202950D01*
X782812Y202850D01*
X783052Y202740D01*
X783282Y202610D01*
X783502Y202470D01*
X783722Y202330D01*
X783932Y202170D01*
X784132Y202000D01*
X784322Y201820D01*
X784502Y201630D01*
X784672Y201430D01*
X784832Y201220D01*
X784972Y201000D01*
X785112Y200780D01*
X785242Y200550D01*
X785352Y200310D01*
X785440Y200100D01*
X788195D01*
X787950Y201333D01*
X786532Y203455D01*
X784410Y204873D01*
X781907Y205371D01*
D02*
G37*
G36*
X42025Y216264D02*
X39255D01*
X36578Y215547D01*
X34178Y214161D01*
X32219Y212202D01*
X30833Y209802D01*
X30116Y207125D01*
Y204354D01*
X30833Y201678D01*
X32219Y199278D01*
X34178Y197319D01*
X36578Y195933D01*
X39255Y195216D01*
X42025D01*
X44702Y195933D01*
X47102Y197319D01*
X49061Y199278D01*
X50447Y201678D01*
X51164Y204354D01*
Y207125D01*
X50447Y209802D01*
X49061Y212202D01*
X47102Y214161D01*
X44702Y215547D01*
X42025Y216264D01*
D02*
G37*
G36*
X728618Y200470D02*
X720598D01*
Y194200D01*
X728618D01*
Y200470D01*
D02*
G37*
G36*
X718058D02*
X710038D01*
Y194200D01*
X718058D01*
Y200470D01*
D02*
G37*
G36*
X788195Y197560D02*
X785782D01*
Y193704D01*
X786532Y194205D01*
X787950Y196327D01*
X788195Y197560D01*
D02*
G37*
G36*
X749762Y197766D02*
X749129Y197682D01*
X747355Y196948D01*
X745833Y195779D01*
X744664Y194256D01*
X743930Y192483D01*
X743679Y190580D01*
Y190100D01*
X749762D01*
Y197766D01*
D02*
G37*
G36*
X548962Y196088D02*
X548894D01*
Y187198D01*
X557784D01*
Y187266D01*
X557092Y189850D01*
X555754Y192166D01*
X553862Y194058D01*
X551546Y195396D01*
X548962Y196088D01*
D02*
G37*
G36*
X546354D02*
X546286D01*
X543702Y195396D01*
X541386Y194058D01*
X539494Y192166D01*
X538156Y189850D01*
X537464Y187266D01*
Y187198D01*
X546354D01*
Y196088D01*
D02*
G37*
G36*
X728618Y191660D02*
X720598D01*
Y185390D01*
X728618D01*
Y191660D01*
D02*
G37*
G36*
X718058D02*
X710038D01*
Y185390D01*
X718058D01*
Y191660D01*
D02*
G37*
G36*
X42159Y191880D02*
X41910D01*
Y181610D01*
X52180D01*
Y181859D01*
X51393Y184794D01*
X49874Y187426D01*
X47726Y189574D01*
X45094Y191094D01*
X42159Y191880D01*
D02*
G37*
G36*
X39370D02*
X39121D01*
X36186Y191094D01*
X33554Y189574D01*
X31406Y187426D01*
X29887Y184794D01*
X29100Y181859D01*
Y181610D01*
X39370D01*
Y191880D01*
D02*
G37*
G36*
X788322Y183870D02*
X779302D01*
Y175100D01*
X788322D01*
Y183870D01*
D02*
G37*
G36*
X52180Y179070D02*
X41910D01*
Y168800D01*
X42159D01*
X45094Y169587D01*
X47726Y171106D01*
X49874Y173254D01*
X51393Y175886D01*
X52180Y178821D01*
Y179070D01*
D02*
G37*
G36*
X39370D02*
X29100D01*
Y178821D01*
X29887Y175886D01*
X31406Y173254D01*
X33554Y171106D01*
X36186Y169587D01*
X39121Y168800D01*
X39370D01*
Y179070D01*
D02*
G37*
G36*
X113676Y200358D02*
X111876D01*
X110213Y199669D01*
X108941Y198397D01*
X108252Y196734D01*
Y194934D01*
X108941Y193271D01*
X110071Y192141D01*
Y189875D01*
X108941Y188745D01*
X108252Y187082D01*
Y185282D01*
X108674Y184264D01*
X107841Y182584D01*
X107502Y182264D01*
X106396D01*
Y165716D01*
X119444D01*
Y182264D01*
X118050D01*
X117711Y182584D01*
X116878Y184264D01*
X117300Y185282D01*
Y187082D01*
X116611Y188745D01*
X115769Y189587D01*
Y192429D01*
X116611Y193271D01*
X117300Y194934D01*
Y196734D01*
X116611Y198397D01*
X115339Y199669D01*
X113676Y200358D01*
D02*
G37*
G36*
X182264Y168178D02*
X165716D01*
Y163865D01*
X162384D01*
Y166356D01*
X150036D01*
Y155208D01*
X162384D01*
Y157699D01*
X165716D01*
Y155130D01*
X182264D01*
Y168178D01*
D02*
G37*
G36*
X231902Y165782D02*
X223882D01*
Y159512D01*
X231902D01*
Y165782D01*
D02*
G37*
G36*
X42159Y166480D02*
X41910D01*
Y156210D01*
X52180D01*
Y156459D01*
X51393Y159394D01*
X49874Y162026D01*
X47726Y164174D01*
X45094Y165693D01*
X42159Y166480D01*
D02*
G37*
G36*
X39370D02*
X39121D01*
X36186Y165693D01*
X33554Y164174D01*
X31406Y162026D01*
X29887Y159394D01*
X29100Y156459D01*
Y156210D01*
X39370D01*
Y166480D01*
D02*
G37*
G36*
X120968Y162960D02*
X114698D01*
Y154940D01*
X120968D01*
Y162960D01*
D02*
G37*
G36*
X112158D02*
X105888D01*
Y154940D01*
X112158D01*
Y162960D01*
D02*
G37*
G36*
X242462Y156972D02*
X234442D01*
Y150702D01*
X242462D01*
Y156972D01*
D02*
G37*
G36*
X231902D02*
X223882D01*
Y150702D01*
X231902D01*
Y156972D01*
D02*
G37*
G36*
X120968Y152400D02*
X114698D01*
Y144380D01*
X120968D01*
Y152400D01*
D02*
G37*
G36*
X112158D02*
X105888D01*
Y144380D01*
X112158D01*
Y152400D01*
D02*
G37*
G36*
X788322Y152560D02*
X779302D01*
Y143790D01*
X788322D01*
Y152560D01*
D02*
G37*
G36*
X776762D02*
X767742D01*
Y143790D01*
X776762D01*
Y152560D01*
D02*
G37*
G36*
X52180Y153670D02*
X41910D01*
Y143400D01*
X42159D01*
X45094Y144186D01*
X47726Y145706D01*
X49874Y147854D01*
X51393Y150486D01*
X52180Y153421D01*
Y153670D01*
D02*
G37*
G36*
X39370D02*
X29100D01*
Y153421D01*
X29887Y150486D01*
X31406Y147854D01*
X33554Y145706D01*
X36186Y144186D01*
X39121Y143400D01*
X39370D01*
Y153670D01*
D02*
G37*
G36*
X760572Y149560D02*
X751282D01*
X741992D01*
Y146290D01*
X743704D01*
X744690Y144290D01*
X744664Y144256D01*
X743930Y142483D01*
X743679Y140580D01*
Y140100D01*
X751032D01*
Y138830D01*
D01*
Y140100D01*
X758385D01*
Y140580D01*
X758134Y142483D01*
X757400Y144256D01*
X757374Y144290D01*
X758360Y146290D01*
X760572D01*
Y149560D01*
D02*
G37*
G36*
X785782Y133956D02*
Y130100D01*
X788195D01*
X787950Y131333D01*
X786532Y133455D01*
X785782Y133956D01*
D02*
G37*
G36*
X770282D02*
X769532Y133455D01*
X768114Y131333D01*
X767869Y130100D01*
X770282D01*
Y133956D01*
D02*
G37*
G36*
X749762Y137560D02*
X743679D01*
Y137080D01*
X743930Y135177D01*
X744664Y133404D01*
X745833Y131881D01*
X747355Y130712D01*
X749129Y129978D01*
X749762Y129894D01*
Y137560D01*
D02*
G37*
G36*
X758385D02*
X752302D01*
Y129894D01*
X752935Y129978D01*
X754708Y130712D01*
X756231Y131881D01*
X757400Y133404D01*
X758134Y135177D01*
X758385Y137080D01*
Y137560D01*
D02*
G37*
G36*
X556768Y144272D02*
X538480D01*
Y125984D01*
X556768D01*
Y144272D01*
D02*
G37*
G36*
X788195Y127560D02*
X785440D01*
X785352Y127350D01*
X785242Y127110D01*
X785112Y126880D01*
X784972Y126660D01*
X784832Y126440D01*
X784672Y126230D01*
X784502Y126030D01*
X784322Y125840D01*
X784132Y125660D01*
X783932Y125490D01*
X783722Y125330D01*
X783502Y125190D01*
X783282Y125050D01*
X783052Y124920D01*
X782812Y124810D01*
X782572Y124710D01*
X782332Y124620D01*
X782072Y124550D01*
X781822Y124490D01*
X781562Y124440D01*
X781302Y124410D01*
X781042Y124390D01*
X780782Y124380D01*
X779302D01*
Y122289D01*
X781907D01*
X784410Y122787D01*
X786532Y124205D01*
X787950Y126327D01*
X788195Y127560D01*
D02*
G37*
G36*
X770624D02*
X767869D01*
X768114Y126327D01*
X769532Y124205D01*
X771654Y122787D01*
X774157Y122289D01*
X776762D01*
Y124380D01*
X775282D01*
X775022Y124390D01*
X774762Y124410D01*
X774502Y124440D01*
X774242Y124490D01*
X773992Y124550D01*
X773732Y124620D01*
X773492Y124710D01*
X773252Y124810D01*
X773012Y124920D01*
X772782Y125050D01*
X772562Y125190D01*
X772342Y125330D01*
X772132Y125490D01*
X771932Y125660D01*
X771742Y125840D01*
X771562Y126030D01*
X771392Y126230D01*
X771232Y126440D01*
X771092Y126660D01*
X770952Y126880D01*
X770822Y127110D01*
X770712Y127350D01*
X770624Y127560D01*
D02*
G37*
G36*
X681990Y120154D02*
X663194D01*
Y111010D01*
X681990D01*
Y120154D01*
D02*
G37*
G36*
X32834Y116840D02*
X32766D01*
Y107950D01*
X41656D01*
Y108018D01*
X40964Y110602D01*
X39626Y112918D01*
X37734Y114810D01*
X35418Y116148D01*
X32834Y116840D01*
D02*
G37*
G36*
X30226D02*
X30158D01*
X27574Y116148D01*
X25258Y114810D01*
X23366Y112918D01*
X22028Y110602D01*
X21336Y108018D01*
Y107950D01*
X30226D01*
Y116840D01*
D02*
G37*
G36*
X41656Y105410D02*
X32766D01*
Y96520D01*
X32834D01*
X35418Y97212D01*
X37734Y98550D01*
X39626Y100442D01*
X40964Y102758D01*
X41656Y105342D01*
Y105410D01*
D02*
G37*
G36*
X30226D02*
X21336D01*
Y105342D01*
X22028Y102758D01*
X23366Y100442D01*
X25258Y98550D01*
X27574Y97212D01*
X30158Y96520D01*
X30226D01*
Y105410D01*
D02*
G37*
G36*
X743488Y108350D02*
X730440D01*
Y91802D01*
X743488D01*
Y95463D01*
X764511D01*
X764910Y95298D01*
X765365D01*
X765810Y95209D01*
X766255Y95298D01*
X766710D01*
X767130Y95472D01*
X767575Y95561D01*
X767953Y95813D01*
X768373Y95987D01*
X768694Y96308D01*
X769072Y96560D01*
X769324Y96938D01*
X769645Y97259D01*
X769819Y97679D01*
X770071Y98057D01*
X770160Y98502D01*
X770334Y98922D01*
Y99376D01*
X770423Y99822D01*
X770334Y100267D01*
Y100722D01*
X770160Y101142D01*
X770071Y101587D01*
X769819Y101965D01*
X769645Y102385D01*
X769324Y102706D01*
X769072Y103084D01*
X768818Y103338D01*
X768440Y103590D01*
X768373Y103657D01*
X768285Y103694D01*
X767321Y104338D01*
X765556Y104689D01*
X743488D01*
Y108350D01*
D02*
G37*
G36*
X548708Y93980D02*
X548640D01*
Y85090D01*
X557530D01*
Y85158D01*
X556838Y87742D01*
X555500Y90058D01*
X553608Y91950D01*
X551292Y93288D01*
X548708Y93980D01*
D02*
G37*
G36*
X32700Y90424D02*
X30292D01*
X27966Y89801D01*
X25882Y88597D01*
X24179Y86895D01*
X22975Y84810D01*
X22352Y82484D01*
Y80076D01*
X22975Y77751D01*
X24179Y75665D01*
X25882Y73963D01*
X27966Y72759D01*
X30292Y72136D01*
X32700D01*
X35025Y72759D01*
X37111Y73963D01*
X38813Y75665D01*
X40017Y77751D01*
X40640Y80076D01*
Y82484D01*
X40017Y84810D01*
X38813Y86895D01*
X37111Y88597D01*
X35025Y89801D01*
X32700Y90424D01*
D02*
G37*
G36*
X72090Y98444D02*
X59042D01*
Y83810D01*
X37770Y62538D01*
X37111Y63197D01*
X35025Y64401D01*
X32700Y65024D01*
X30292D01*
X27966Y64401D01*
X25882Y63197D01*
X24179Y61494D01*
X22975Y59409D01*
X22352Y57084D01*
Y54676D01*
X22975Y52351D01*
X24179Y50265D01*
X25882Y48563D01*
X27966Y47359D01*
X30292Y46736D01*
X32700D01*
X33138Y46853D01*
X34174Y45060D01*
X31970Y42857D01*
X31353Y41933D01*
X31136Y40843D01*
X29728Y39624D01*
X22352D01*
Y21336D01*
X40640D01*
Y39624D01*
X39623D01*
X38795Y41624D01*
X57658Y60487D01*
X59152Y61576D01*
Y61576D01*
X59152Y61576D01*
X72200D01*
Y78124D01*
X64026D01*
X63261Y79972D01*
X64485Y81196D01*
X64485Y81196D01*
X64953Y81896D01*
X72090D01*
Y98444D01*
D02*
G37*
G36*
X615696Y69596D02*
X606806D01*
Y60706D01*
X615696D01*
Y69596D01*
D02*
G37*
G36*
X214294Y64516D02*
X209024D01*
Y54746D01*
X214294D01*
Y64516D01*
D02*
G37*
G36*
X206484D02*
X201214D01*
Y54746D01*
X206484D01*
Y64516D01*
D02*
G37*
G36*
X615696Y58166D02*
X606806D01*
Y49276D01*
X615696D01*
Y58166D01*
D02*
G37*
G36*
X604266D02*
X595376D01*
Y49276D01*
X604266D01*
Y58166D01*
D02*
G37*
G36*
X278240Y46990D02*
X271970D01*
Y38970D01*
X278240D01*
Y46990D01*
D02*
G37*
G36*
X209618Y42672D02*
X209550D01*
Y33782D01*
X218440D01*
Y33850D01*
X217748Y36434D01*
X216410Y38750D01*
X214518Y40642D01*
X212202Y41980D01*
X209618Y42672D01*
D02*
G37*
G36*
X207010D02*
X206942D01*
X204358Y41980D01*
X202042Y40642D01*
X200150Y38750D01*
X198812Y36434D01*
X198120Y33850D01*
Y33782D01*
X207010D01*
Y42672D01*
D02*
G37*
G36*
X286796Y31642D02*
X280526D01*
Y23622D01*
X286796D01*
Y31642D01*
D02*
G37*
G36*
X277986D02*
X271716D01*
Y23622D01*
X277986D01*
Y31642D01*
D02*
G37*
G36*
X218440Y31242D02*
X209550D01*
Y22352D01*
X209618D01*
X212202Y23044D01*
X214518Y24382D01*
X216410Y26274D01*
X217748Y28590D01*
X218440Y31174D01*
Y31242D01*
D02*
G37*
G36*
X207010D02*
X198120D01*
Y31174D01*
X198812Y28590D01*
X200150Y26274D01*
X202042Y24382D01*
X204358Y23044D01*
X206942Y22352D01*
X207010D01*
Y31242D01*
D02*
G37*
G36*
X752481Y81524D02*
X747519D01*
X742618Y80748D01*
X737899Y79214D01*
X733478Y76962D01*
X729464Y74045D01*
X725955Y70536D01*
X723038Y66522D01*
X720786Y62101D01*
X719252Y57382D01*
X718476Y52481D01*
Y47519D01*
X719252Y42618D01*
X720786Y37899D01*
X723038Y33478D01*
X725955Y29464D01*
X729464Y25955D01*
X733478Y23038D01*
X737899Y20786D01*
X742618Y19252D01*
X747519Y18476D01*
X752481D01*
X757382Y19252D01*
X762101Y20786D01*
X766522Y23038D01*
X770536Y25955D01*
X774045Y29464D01*
X776962Y33478D01*
X779214Y37899D01*
X780748Y42618D01*
X781524Y47519D01*
Y52481D01*
X780748Y57382D01*
X779214Y62101D01*
X776962Y66522D01*
X774045Y70536D01*
X770536Y74045D01*
X766522Y76962D01*
X762101Y79214D01*
X757382Y80748D01*
X752481Y81524D01*
D02*
G37*
G36*
X286796Y21082D02*
X280526D01*
Y13062D01*
X286796D01*
Y21082D01*
D02*
G37*
G36*
X277986D02*
X271716D01*
Y13062D01*
X277986D01*
Y21082D01*
D02*
G37*
%LPD*%
G36*
X90678Y678222D02*
X88678Y677958D01*
X87970Y680602D01*
X86450Y683234D01*
X84302Y685382D01*
X81670Y686901D01*
X78735Y687688D01*
X78486D01*
Y676148D01*
Y664608D01*
X78735D01*
X81670Y665395D01*
X84302Y666914D01*
X86450Y669062D01*
X87970Y671694D01*
X88678Y674338D01*
X90678Y674074D01*
Y648970D01*
X87740D01*
Y661272D01*
X66692D01*
Y648970D01*
X56388D01*
Y637089D01*
X54388Y635554D01*
X53201Y635872D01*
X50430D01*
X47754Y635155D01*
X45354Y633769D01*
X43395Y631810D01*
X42009Y629410D01*
X41292Y626734D01*
Y623963D01*
X42009Y621286D01*
X43395Y618886D01*
X45354Y616927D01*
X47754Y615541D01*
X50430Y614824D01*
X53201D01*
X54388Y615142D01*
X56388Y613607D01*
Y553466D01*
X9647D01*
X9182Y700132D01*
X10594Y701548D01*
X41292D01*
Y700163D01*
X42009Y697486D01*
X43395Y695086D01*
X45354Y693127D01*
X47754Y691741D01*
X50430Y691024D01*
X53201D01*
X55878Y691741D01*
X58278Y693127D01*
X60237Y695086D01*
X61623Y697486D01*
X62340Y700163D01*
Y701548D01*
X90678D01*
Y678222D01*
D02*
G37*
G36*
X152544Y606804D02*
X151501Y604804D01*
X148336D01*
Y597264D01*
Y589724D01*
X156356D01*
X156972Y587979D01*
Y586676D01*
X155340Y585788D01*
X154972Y585788D01*
X138792D01*
Y583877D01*
X135528D01*
Y585932D01*
X118980D01*
Y583877D01*
X115208D01*
Y585788D01*
X98660D01*
Y572740D01*
X115208D01*
Y574651D01*
X118980D01*
Y572884D01*
X135528D01*
Y574651D01*
X138792D01*
Y572740D01*
X154972D01*
X155340Y572740D01*
X156972Y571852D01*
Y561848D01*
X110490D01*
X108204Y559562D01*
Y519858D01*
X105264D01*
Y513588D01*
X114554D01*
Y511048D01*
X105264D01*
Y504778D01*
X103718Y503682D01*
X103500D01*
X102000Y504888D01*
X102000Y505682D01*
Y511158D01*
X92710D01*
X83420D01*
Y505682D01*
X83420Y504888D01*
X81919Y503682D01*
X77500D01*
X76010Y504914D01*
X76010Y505682D01*
Y516934D01*
X68720D01*
Y518204D01*
X67450D01*
Y531494D01*
X61944D01*
X61430Y531494D01*
X59944Y532735D01*
Y559435D01*
X68961D01*
Y572008D01*
Y584581D01*
X59944D01*
Y607314D01*
X152188D01*
X152544Y606804D01*
D02*
G37*
G36*
X58294Y532735D02*
X58324Y532662D01*
X58301Y532587D01*
X58562Y532089D01*
X58674Y531819D01*
Y501142D01*
X82042D01*
Y451866D01*
X92935D01*
X92986Y451754D01*
X91696Y449754D01*
X85852D01*
Y442214D01*
Y434674D01*
X89852D01*
X90909Y432674D01*
X90487Y432054D01*
X13716D01*
Y499110D01*
X31750D01*
Y527304D01*
Y540258D01*
X58294D01*
Y532735D01*
D02*
G37*
%LPC*%
G36*
X75946Y687688D02*
X75697D01*
X72762Y686901D01*
X70130Y685382D01*
X67982Y683234D01*
X66462Y680602D01*
X65676Y677667D01*
Y677418D01*
X75946D01*
Y687688D01*
D02*
G37*
G36*
Y674878D02*
X65676D01*
Y674629D01*
X66462Y671694D01*
X67982Y669062D01*
X70130Y666914D01*
X72762Y665395D01*
X75697Y664608D01*
X75946D01*
Y674878D01*
D02*
G37*
G36*
X42926Y584581D02*
X31623D01*
Y573278D01*
X42926D01*
Y584581D01*
D02*
G37*
G36*
X29083D02*
X17780D01*
Y573278D01*
X29083D01*
Y584581D01*
D02*
G37*
G36*
X42926Y570738D02*
X31623D01*
Y559435D01*
X42926D01*
Y570738D01*
D02*
G37*
G36*
X29083D02*
X17780D01*
Y559435D01*
X29083D01*
Y570738D01*
D02*
G37*
G36*
X136544Y604948D02*
X135836Y604948D01*
X128524D01*
Y597408D01*
Y589868D01*
X135836D01*
X137776Y589724D01*
X138484Y589724D01*
X145796D01*
Y597264D01*
Y604804D01*
X138484D01*
X136544Y604948D01*
D02*
G37*
G36*
X105664Y604804D02*
X97644D01*
Y598534D01*
X105664D01*
Y604804D01*
D02*
G37*
G36*
X117964Y604948D02*
X116024Y604804D01*
X108204D01*
Y597264D01*
Y589724D01*
X116024D01*
X116224Y589724D01*
X118164Y589868D01*
X125984D01*
Y597408D01*
Y604948D01*
X118164D01*
X117964Y604948D01*
D02*
G37*
G36*
X105664Y595994D02*
X97644D01*
Y589724D01*
X105664D01*
Y595994D01*
D02*
G37*
G36*
X82804Y584581D02*
X71501D01*
Y573278D01*
X82804D01*
Y584581D01*
D02*
G37*
G36*
Y570738D02*
X71501D01*
Y559435D01*
X82804D01*
Y570738D01*
D02*
G37*
G36*
X69990Y531494D02*
Y519474D01*
X76010D01*
Y531494D01*
X69990D01*
D02*
G37*
G36*
X102000Y519968D02*
X93980D01*
Y513698D01*
X102000D01*
Y519968D01*
D02*
G37*
G36*
X91440D02*
X83420D01*
Y513698D01*
X91440D01*
Y519968D01*
D02*
G37*
G36*
X53010Y531494D02*
X46990D01*
Y519474D01*
X53010D01*
Y531494D01*
D02*
G37*
G36*
X44450D02*
X38430D01*
Y519474D01*
X44450D01*
Y531494D01*
D02*
G37*
G36*
X53010Y516934D02*
X46990D01*
Y504914D01*
X53010D01*
Y516934D01*
D02*
G37*
G36*
X44450D02*
X38430D01*
Y504914D01*
X44450D01*
Y516934D01*
D02*
G37*
G36*
X64510Y473494D02*
X46990D01*
Y461474D01*
X64510D01*
Y473494D01*
D02*
G37*
G36*
X44450D02*
X26930D01*
Y461474D01*
X44450D01*
Y473494D01*
D02*
G37*
G36*
X64510Y458934D02*
X46990D01*
Y446914D01*
X64510D01*
Y458934D01*
D02*
G37*
G36*
X44450D02*
X26930D01*
Y446914D01*
X44450D01*
Y458934D01*
D02*
G37*
G36*
X83312Y449754D02*
X75292D01*
Y443484D01*
X83312D01*
Y449754D01*
D02*
G37*
G36*
Y440944D02*
X75292D01*
Y434674D01*
X83312D01*
Y440944D01*
D02*
G37*
G36*
X196742Y702848D02*
X188722D01*
Y696578D01*
X196742D01*
Y702848D01*
D02*
G37*
G36*
X186182D02*
X178162D01*
Y696578D01*
X186182D01*
Y702848D01*
D02*
G37*
G36*
X174390Y702086D02*
X166370D01*
Y695816D01*
X174390D01*
Y702086D01*
D02*
G37*
G36*
X163830D02*
X155810D01*
Y695816D01*
X163830D01*
Y702086D01*
D02*
G37*
G36*
X224917Y700786D02*
X220345D01*
Y690245D01*
X224917D01*
Y700786D01*
D02*
G37*
G36*
X196742Y694038D02*
X188722D01*
Y687768D01*
X196742D01*
Y694038D01*
D02*
G37*
G36*
X186182D02*
X178162D01*
Y687768D01*
X186182D01*
Y694038D01*
D02*
G37*
G36*
X174390Y693276D02*
X166370D01*
Y687006D01*
X174390D01*
Y693276D01*
D02*
G37*
G36*
X163830D02*
X155810D01*
Y687006D01*
X163830D01*
Y693276D01*
D02*
G37*
G36*
X148844Y685050D02*
X139700D01*
Y680732D01*
X148844D01*
Y685050D01*
D02*
G37*
G36*
X195726Y683832D02*
X179178D01*
Y680651D01*
X173374D01*
Y683070D01*
X156826D01*
Y670022D01*
X160614D01*
Y668004D01*
X155829D01*
Y653780D01*
X174879D01*
Y668004D01*
X169840D01*
Y670022D01*
X173374D01*
Y671425D01*
X179178D01*
Y670784D01*
X195726D01*
Y672695D01*
X200619D01*
Y665226D01*
X200708Y664781D01*
Y664326D01*
X200882Y663906D01*
X200970Y663461D01*
X201223Y663083D01*
X201397Y662663D01*
X201718Y662342D01*
X201970Y661964D01*
X202348Y661712D01*
X202669Y661391D01*
X203089Y661217D01*
X203467Y660965D01*
X203912Y660876D01*
X204332Y660702D01*
X204786D01*
X205232Y660613D01*
X205678Y660702D01*
X206132D01*
X206552Y660876D01*
X206997Y660965D01*
X207375Y661217D01*
X207795Y661391D01*
X208116Y661712D01*
X208494Y661964D01*
X208746Y662342D01*
X209067Y662663D01*
X209241Y663083D01*
X209494Y663461D01*
X209582Y663906D01*
X209756Y664326D01*
Y664781D01*
X209845Y665226D01*
Y676910D01*
X209756Y677355D01*
Y677810D01*
X209582Y678230D01*
X209494Y678675D01*
X209241Y679053D01*
X209067Y679473D01*
X208746Y679794D01*
X208494Y680172D01*
X208096Y680570D01*
X206599Y681570D01*
X204834Y681921D01*
X195726D01*
Y683832D01*
D02*
G37*
G36*
X148844Y678192D02*
X139700D01*
Y673874D01*
X148844D01*
Y678192D01*
D02*
G37*
G36*
X147350Y643020D02*
X141080D01*
Y635000D01*
X147350D01*
Y643020D01*
D02*
G37*
G36*
X175895Y641080D02*
X166624D01*
Y634222D01*
X175895D01*
Y641080D01*
D02*
G37*
G36*
X164084D02*
X154813D01*
Y634222D01*
X164084D01*
Y641080D01*
D02*
G37*
G36*
X255016Y713867D02*
X250444D01*
Y703326D01*
X255016D01*
Y713867D01*
D02*
G37*
G36*
X247904D02*
X243332D01*
Y703326D01*
X247904D01*
Y713867D01*
D02*
G37*
G36*
X255016Y700786D02*
X250444D01*
Y690245D01*
X255016D01*
Y700786D01*
D02*
G37*
G36*
X247904D02*
X243332D01*
Y690245D01*
X247904D01*
Y700786D01*
D02*
G37*
G36*
X116332Y675900D02*
X107188D01*
Y671582D01*
X116332D01*
Y675900D01*
D02*
G37*
G36*
Y669042D02*
X107188D01*
Y664724D01*
X116332D01*
Y669042D01*
D02*
G37*
G36*
X265684Y648385D02*
X250444D01*
Y637794D01*
X268274D01*
Y645795D01*
X268077Y646786D01*
X267515Y647626D01*
X266675Y648188D01*
X265684Y648385D01*
D02*
G37*
G36*
X247904D02*
X232664D01*
X231673Y648188D01*
X230833Y647626D01*
X230271Y646786D01*
X230074Y645795D01*
Y637794D01*
X247904D01*
Y648385D01*
D02*
G37*
G36*
X129350Y643020D02*
X123080D01*
Y635000D01*
X129350D01*
Y643020D01*
D02*
G37*
G36*
X120540D02*
X114270D01*
Y635000D01*
X120540D01*
Y643020D01*
D02*
G37*
G36*
X205378Y638840D02*
X197358D01*
Y632570D01*
X205378D01*
Y638840D01*
D02*
G37*
G36*
X194818D02*
X186798D01*
Y632570D01*
X194818D01*
Y638840D01*
D02*
G37*
G36*
X268274Y635254D02*
X250444D01*
Y624663D01*
X265684D01*
X266675Y624860D01*
X267515Y625422D01*
X268077Y626262D01*
X268274Y627253D01*
Y635254D01*
D02*
G37*
G36*
X247904D02*
X230074D01*
Y627253D01*
X230271Y626262D01*
X230833Y625422D01*
X231673Y624860D01*
X232664Y624663D01*
X247904D01*
Y635254D01*
D02*
G37*
G36*
X129350Y632460D02*
X123080D01*
Y624440D01*
X129350D01*
Y632460D01*
D02*
G37*
G36*
X120540D02*
X114270D01*
Y624440D01*
X120540D01*
Y632460D01*
D02*
G37*
G36*
X205378Y612030D02*
X196088D01*
X186798D01*
Y606996D01*
X186036Y605312D01*
X186036Y604076D01*
Y599042D01*
X195326D01*
X204616D01*
Y604076D01*
X205378Y605760D01*
X205378Y606996D01*
Y612030D01*
D02*
G37*
G36*
X181026Y603618D02*
X174752D01*
Y596304D01*
X181026D01*
Y603618D01*
D02*
G37*
G36*
X172212D02*
X165938D01*
Y596304D01*
X172212D01*
Y603618D01*
D02*
G37*
G36*
X204616Y596502D02*
X196596D01*
Y590232D01*
X204616D01*
Y596502D01*
D02*
G37*
G36*
X194056D02*
X186036D01*
Y590232D01*
X194056D01*
Y596502D01*
D02*
G37*
G36*
X225836Y527196D02*
X219566D01*
Y519176D01*
X225836D01*
Y527196D01*
D02*
G37*
G36*
Y516636D02*
X219566D01*
Y508616D01*
X225836D01*
Y516636D01*
D02*
G37*
G36*
X272680Y495252D02*
X270880D01*
X269217Y494563D01*
X267945Y493291D01*
X267256Y491628D01*
Y489828D01*
X267945Y488165D01*
X269217Y486893D01*
X270880Y486204D01*
X272680D01*
X274343Y486893D01*
X275615Y488165D01*
X276304Y489828D01*
Y491628D01*
X275615Y493291D01*
X274343Y494563D01*
X272680Y495252D01*
D02*
G37*
G36*
X295286Y494744D02*
X293486D01*
X291823Y494055D01*
X290551Y492783D01*
X289862Y491120D01*
Y489320D01*
X290551Y487657D01*
X291823Y486385D01*
X293486Y485696D01*
X295286D01*
X296949Y486385D01*
X298221Y487657D01*
X298910Y489320D01*
Y491120D01*
X298221Y492783D01*
X296949Y494055D01*
X295286Y494744D01*
D02*
G37*
G36*
X516520Y486616D02*
X514720D01*
X513057Y485927D01*
X511785Y484655D01*
X511096Y482992D01*
Y481192D01*
X511785Y479529D01*
X513057Y478257D01*
X514720Y477568D01*
X516520D01*
X518183Y478257D01*
X519455Y479529D01*
X520144Y481192D01*
Y482992D01*
X519455Y484655D01*
X518183Y485927D01*
X516520Y486616D01*
D02*
G37*
G36*
X447940Y476964D02*
X446140D01*
X444477Y476275D01*
X443205Y475003D01*
X443169Y474917D01*
X441005D01*
X440969Y475003D01*
X439697Y476275D01*
X438034Y476964D01*
X436234D01*
X434571Y476275D01*
X433299Y475003D01*
X432610Y473340D01*
Y471540D01*
X433299Y469877D01*
X434571Y468605D01*
X436234Y467916D01*
X438034D01*
X439697Y468605D01*
X440969Y469877D01*
X441005Y469963D01*
X443169D01*
X443205Y469877D01*
X444477Y468605D01*
X446140Y467916D01*
X447940D01*
X449603Y468605D01*
X450875Y469877D01*
X451564Y471540D01*
Y473340D01*
X450875Y475003D01*
X449603Y476275D01*
X447940Y476964D01*
D02*
G37*
G36*
X574432Y480012D02*
X572632D01*
X570969Y479323D01*
X569697Y478051D01*
X569008Y476388D01*
Y474588D01*
X569697Y472925D01*
X570969Y471653D01*
X572632Y470964D01*
X574432D01*
X576095Y471653D01*
X576289Y471847D01*
X577868Y472574D01*
X578903Y471847D01*
X579351Y471399D01*
X581014Y470710D01*
X582814D01*
X584477Y471399D01*
X585749Y472671D01*
X586438Y474334D01*
Y476134D01*
X585749Y477797D01*
X584477Y479069D01*
X582814Y479758D01*
X581014D01*
X579351Y479069D01*
X579157Y478875D01*
X577578Y478148D01*
X576543Y478875D01*
X576095Y479323D01*
X574432Y480012D01*
D02*
G37*
G36*
X249820Y502014D02*
X248020D01*
X246357Y501325D01*
X245085Y500053D01*
X244396Y498390D01*
Y496590D01*
X245085Y494927D01*
X245837Y494175D01*
Y400057D01*
X197731Y351952D01*
X197332Y352183D01*
X195006Y352806D01*
X192598D01*
X190273Y352183D01*
X188188Y350979D01*
X186485Y349277D01*
X185281Y347192D01*
X184658Y344866D01*
Y342458D01*
X185281Y340132D01*
X186485Y338047D01*
X188188Y336345D01*
X190273Y335141D01*
X192598Y334518D01*
X195006D01*
X197332Y335141D01*
X199417Y336345D01*
X201119Y338047D01*
X202323Y340132D01*
X202946Y342458D01*
Y344866D01*
X202323Y347192D01*
X202092Y347592D01*
X251100Y396600D01*
X251100Y396600D01*
X251768Y397600D01*
X252003Y398780D01*
Y459207D01*
X254003Y459605D01*
X254483Y458447D01*
X255755Y457175D01*
X257418Y456486D01*
X259218D01*
X260881Y457175D01*
X262153Y458447D01*
X262842Y460110D01*
Y461910D01*
X262153Y463573D01*
X260881Y464845D01*
X259218Y465534D01*
X257418D01*
X255755Y464845D01*
X254483Y463573D01*
X254003Y462415D01*
X252003Y462813D01*
Y494175D01*
X252755Y494927D01*
X253444Y496590D01*
Y498390D01*
X252755Y500053D01*
X251483Y501325D01*
X249820Y502014D01*
D02*
G37*
G36*
X239471Y465469D02*
X237671D01*
X236008Y464781D01*
X234736Y463508D01*
X234047Y461845D01*
Y460045D01*
X234736Y458383D01*
X236008Y457110D01*
X237671Y456421D01*
X239471D01*
X241133Y457110D01*
X242406Y458383D01*
X243095Y460045D01*
Y461845D01*
X242406Y463508D01*
X241133Y464781D01*
X239471Y465469D01*
D02*
G37*
G36*
X574178Y461724D02*
X572378D01*
X570715Y461035D01*
X569443Y459763D01*
X568754Y458100D01*
Y456300D01*
X569443Y454637D01*
X570715Y453365D01*
X572378Y452676D01*
X574178D01*
X575841Y453365D01*
X577113Y454637D01*
X577802Y456300D01*
Y458100D01*
X577113Y459763D01*
X575841Y461035D01*
X574178Y461724D01*
D02*
G37*
G36*
X586116Y461470D02*
X584316D01*
X582653Y460781D01*
X581381Y459509D01*
X580692Y457846D01*
Y456046D01*
X581381Y454383D01*
X582653Y453111D01*
X584316Y452422D01*
X586116D01*
X587779Y453111D01*
X589051Y454383D01*
X589740Y456046D01*
Y457846D01*
X589051Y459509D01*
X587779Y460781D01*
X586116Y461470D01*
D02*
G37*
G36*
X516520Y457660D02*
X514720D01*
X513057Y456971D01*
X511785Y455699D01*
X511096Y454036D01*
Y452236D01*
X511785Y450573D01*
X513057Y449301D01*
X514720Y448612D01*
X516520D01*
X518183Y449301D01*
X519455Y450573D01*
X520144Y452236D01*
Y454036D01*
X519455Y455699D01*
X518183Y456971D01*
X516520Y457660D01*
D02*
G37*
G36*
X410856Y403558D02*
X409056D01*
X407393Y402869D01*
X406121Y401597D01*
X406085Y401511D01*
X403921D01*
X403885Y401597D01*
X402613Y402869D01*
X400950Y403558D01*
X399150D01*
X397487Y402869D01*
X396215Y401597D01*
X395526Y399934D01*
Y398134D01*
X396215Y396471D01*
X397487Y395199D01*
X399150Y394510D01*
X400950D01*
X402613Y395199D01*
X403885Y396471D01*
X403921Y396557D01*
X406085D01*
X406121Y396471D01*
X407393Y395199D01*
X409056Y394510D01*
X410856D01*
X412519Y395199D01*
X413791Y396471D01*
X414480Y398134D01*
Y399934D01*
X413791Y401597D01*
X412519Y402869D01*
X410856Y403558D01*
D02*
G37*
G36*
X376058D02*
X374258D01*
X372595Y402869D01*
X371323Y401597D01*
X370634Y399934D01*
Y398134D01*
X371323Y396471D01*
X372595Y395199D01*
X374258Y394510D01*
X376058D01*
X377721Y395199D01*
X378993Y396471D01*
X379682Y398134D01*
Y399934D01*
X378993Y401597D01*
X377721Y402869D01*
X376058Y403558D01*
D02*
G37*
G36*
X253746Y352806D02*
X235458D01*
Y334518D01*
X253746D01*
Y352806D01*
D02*
G37*
G36*
X286258Y259110D02*
X278238D01*
Y252840D01*
X286258D01*
Y259110D01*
D02*
G37*
G36*
Y250300D02*
X278238D01*
Y244030D01*
X286258D01*
Y250300D01*
D02*
G37*
G36*
X298304Y259110D02*
X296818D01*
X296304Y259110D01*
X288798D01*
Y251570D01*
Y244030D01*
X296304D01*
X296818Y244030D01*
X298304D01*
X298818Y244030D01*
X306324D01*
Y251570D01*
Y259110D01*
X298818D01*
X298304Y259110D01*
D02*
G37*
G36*
X355520Y249320D02*
X349250D01*
Y241300D01*
X355520D01*
Y249320D01*
D02*
G37*
G36*
X346710D02*
X340440D01*
Y241300D01*
X346710D01*
Y249320D01*
D02*
G37*
G36*
X383984Y244474D02*
X378460D01*
Y238910D01*
X383984D01*
Y244474D01*
D02*
G37*
G36*
X375920D02*
X370396D01*
Y238910D01*
X375920D01*
Y244474D01*
D02*
G37*
G36*
X355520Y238760D02*
X347980D01*
X340440D01*
Y230954D01*
X340440Y230740D01*
X340550Y228786D01*
Y220980D01*
X348090D01*
X355630D01*
Y228785D01*
X355630Y229000D01*
X355520Y230954D01*
Y231000D01*
Y238760D01*
D02*
G37*
G36*
X355630Y218440D02*
X349360D01*
Y210420D01*
X355630D01*
Y218440D01*
D02*
G37*
G36*
X346820D02*
X340550D01*
Y210420D01*
X346820D01*
Y218440D01*
D02*
G37*
G36*
X399688Y174354D02*
X391668D01*
Y168084D01*
X399688D01*
Y174354D01*
D02*
G37*
G36*
X389128D02*
X381108D01*
Y168084D01*
X389128D01*
Y174354D01*
D02*
G37*
G36*
X379460Y146960D02*
X369420D01*
X359380D01*
Y146313D01*
X354050D01*
X354050Y146313D01*
X352870Y146079D01*
X351870Y145410D01*
X351870Y145410D01*
X343909Y137449D01*
X323863D01*
X323111Y138201D01*
X321448Y138890D01*
X319648D01*
X317985Y138201D01*
X316713Y136929D01*
X316024Y135266D01*
Y133466D01*
X316713Y131803D01*
X317985Y130531D01*
X319648Y129842D01*
X321448D01*
X323111Y130531D01*
X323863Y131283D01*
X345186D01*
X345186Y131283D01*
X346366Y131517D01*
X347366Y132186D01*
X355327Y140147D01*
X359380D01*
Y139500D01*
X369420D01*
X379460D01*
Y140147D01*
X382151D01*
X383510Y138788D01*
Y126600D01*
X396558D01*
Y143148D01*
X387870D01*
X385608Y145410D01*
X384608Y146079D01*
X383428Y146313D01*
X383428Y146313D01*
X379460D01*
Y146960D01*
D02*
G37*
G36*
X415574Y144164D02*
X409304D01*
Y136144D01*
X415574D01*
Y144164D01*
D02*
G37*
G36*
X406764D02*
X400494D01*
Y136144D01*
X406764D01*
Y144164D01*
D02*
G37*
G36*
X415574Y133604D02*
X409304D01*
Y125584D01*
X415574D01*
Y133604D01*
D02*
G37*
G36*
X406764D02*
X400494D01*
Y125584D01*
X406764D01*
Y133604D01*
D02*
G37*
G36*
X132080Y108430D02*
Y103160D01*
X141850D01*
Y108430D01*
X132080D01*
D02*
G37*
G36*
X141850Y100620D02*
X132080D01*
Y95350D01*
X141850D01*
Y100620D01*
D02*
G37*
G36*
X129540D02*
X119770D01*
Y95350D01*
X129540D01*
Y100620D01*
D02*
G37*
G36*
X130684Y72671D02*
X124414D01*
Y64651D01*
X130684D01*
Y72671D01*
D02*
G37*
G36*
Y62111D02*
X124414D01*
Y54091D01*
X130684D01*
Y62111D01*
D02*
G37*
G36*
X429290Y90932D02*
X423020D01*
Y82912D01*
X429290D01*
Y90932D01*
D02*
G37*
G36*
X420480D02*
X414210D01*
Y82912D01*
X420480D01*
Y90932D01*
D02*
G37*
G36*
X492760Y82550D02*
X483870D01*
Y73660D01*
X492760D01*
Y82550D01*
D02*
G37*
G36*
X481330D02*
X472440D01*
Y73660D01*
X481330D01*
Y82550D01*
D02*
G37*
G36*
X414812Y79394D02*
X408542D01*
Y71374D01*
X414812D01*
Y79394D01*
D02*
G37*
G36*
X406002D02*
X399732D01*
Y71374D01*
X406002D01*
Y79394D01*
D02*
G37*
%LPD*%
D17*
X196088Y631300D02*
D03*
X114554Y512318D02*
D03*
X295910Y703436D02*
D03*
X316738D02*
D03*
X92710Y512428D02*
D03*
X147066Y597264D02*
D03*
X127254Y597408D02*
D03*
X106934Y597264D02*
D03*
X187452Y695308D02*
D03*
X165100Y694546D02*
D03*
X629158Y195326D02*
D03*
Y213326D02*
D03*
X644144Y70104D02*
D03*
Y52104D02*
D03*
X196088Y613300D02*
D03*
X195326Y597772D02*
D03*
X719328Y192930D02*
D03*
X390398Y175624D02*
D03*
X316738Y685436D02*
D03*
X295910D02*
D03*
X187452Y677308D02*
D03*
X195326Y579772D02*
D03*
X165100Y676546D02*
D03*
X147066Y579264D02*
D03*
X127254Y579408D02*
D03*
X106934Y579264D02*
D03*
X114554Y494318D02*
D03*
X92710Y494428D02*
D03*
X92456Y478392D02*
D03*
X307594Y251570D02*
D03*
X287528D02*
D03*
X233172Y158242D02*
D03*
X153924Y278638D02*
D03*
X297180Y16290D02*
D03*
X287528Y233570D02*
D03*
X307594D02*
D03*
X390398Y157624D02*
D03*
X233172Y176242D02*
D03*
X719328Y210930D02*
D03*
X173990Y161654D02*
D03*
Y143654D02*
D03*
X317500Y15240D02*
D03*
Y33240D02*
D03*
X297180Y34290D02*
D03*
X92456Y460392D02*
D03*
X84582Y424214D02*
D03*
Y442214D02*
D03*
X153924Y260638D02*
D03*
X55626Y37338D02*
D03*
Y19338D02*
D03*
D19*
X121810Y633730D02*
D03*
X139810D02*
D03*
X652416Y32004D02*
D03*
X218296Y517906D02*
D03*
X329980Y240030D02*
D03*
X330090Y219710D02*
D03*
X408034Y134874D02*
D03*
X783446Y243078D02*
D03*
X784208Y220980D02*
D03*
X421750Y92202D02*
D03*
X407272Y70104D02*
D03*
X200296Y517906D02*
D03*
X279510Y48260D02*
D03*
X279256Y22352D02*
D03*
X131954Y63381D02*
D03*
X113428Y153670D02*
D03*
X765446Y243078D02*
D03*
X766208Y220980D02*
D03*
X149954Y63381D02*
D03*
X390034Y134874D02*
D03*
X403750Y92202D02*
D03*
X261256Y22352D02*
D03*
X261510Y48260D02*
D03*
X389272Y70104D02*
D03*
X348090Y219710D02*
D03*
X347980Y240030D02*
D03*
X131428Y153670D02*
D03*
X83566Y90170D02*
D03*
X65566D02*
D03*
X83676Y69850D02*
D03*
X65676D02*
D03*
X112920Y173990D02*
D03*
X130920D02*
D03*
X736964Y100076D02*
D03*
X718964D02*
D03*
X645524Y230378D02*
D03*
X627524D02*
D03*
X670416Y32004D02*
D03*
X705214D02*
D03*
X687214D02*
D03*
D20*
X377190Y219052D02*
D03*
Y237640D02*
D03*
D33*
X642394Y70104D02*
X644144D01*
X634064Y156798D02*
X641810D01*
X629920Y152654D02*
X634064Y156798D01*
X629920Y84328D02*
Y152654D01*
Y84328D02*
X638810Y75438D01*
X329920Y182730D02*
Y219540D01*
X330090Y219710D01*
X629158Y183683D02*
Y195326D01*
Y183683D02*
X636043Y176798D01*
X641810D01*
X644906Y212090D02*
Y229760D01*
X645524Y230378D01*
X629158Y213326D02*
Y228744D01*
X627524Y230378D02*
X629158Y228744D01*
X783446Y243078D02*
X783954Y243586D01*
X233172Y158242D02*
X233184Y158230D01*
X249408Y158242D02*
X249420Y158230D01*
X255420D01*
X233172Y158242D02*
X249408D01*
X625348Y29450D02*
Y155702D01*
X620824Y33081D02*
Y158078D01*
X652827Y17780D02*
X674740D01*
X650105Y20502D02*
X652827Y17780D01*
X627380Y20502D02*
X650105D01*
X609106Y13208D02*
X625348Y29450D01*
X331470Y24130D02*
X337868Y17732D01*
X319532Y13208D02*
X609106D01*
X337868Y17732D02*
X605475D01*
X317500Y15240D02*
X319532Y13208D01*
X605475Y17732D02*
X620824Y33081D01*
X689135Y62953D02*
X698539D01*
X689096Y62992D02*
X689135Y62953D01*
X698539D02*
X705214Y56278D01*
Y32004D02*
Y56278D01*
X214172Y145034D02*
X215976Y143230D01*
X213360Y145034D02*
X214172D01*
X215976Y143230D02*
X255420D01*
X179240Y139987D02*
Y140154D01*
Y139987D02*
X180997Y138230D01*
X255420D01*
X175740Y143654D02*
X179240Y140154D01*
X130810Y135890D02*
X133310Y133390D01*
X139407D01*
X139567Y133230D01*
X173990Y143654D02*
X175740D01*
X127508Y170578D02*
X130810Y173880D01*
X131428Y153670D02*
X134256Y156498D01*
X130810Y135890D02*
Y173880D01*
X131318Y153560D02*
X131428Y153670D01*
X139567Y133230D02*
X255420D01*
X78328Y154082D02*
X104180Y128230D01*
X255420D01*
X645524Y230378D02*
X645668Y230234D01*
X717448Y248768D02*
X766270Y199946D01*
Y170714D02*
Y199946D01*
X708328Y248768D02*
X717448D01*
X708328Y229768D02*
X729844D01*
X761746Y197866D01*
Y172587D02*
Y197866D01*
X620824Y158078D02*
X624244Y161498D01*
X624274D02*
X629574Y166798D01*
X641810D01*
X624244Y161498D02*
X624274D01*
X302430Y19790D02*
Y21540D01*
X297180Y16290D02*
X298930D01*
X302430Y21540D02*
X305020Y24130D01*
X298930Y16290D02*
X302430Y19790D01*
X305020Y24130D02*
X331470D01*
X679206Y239395D02*
X680369Y240558D01*
X690245Y239395D02*
X690372Y239522D01*
X679080Y239268D02*
X679206Y239395D01*
X665764Y244602D02*
X669930Y248768D01*
X670510Y221198D02*
X679080Y229768D01*
X665764Y182958D02*
Y244602D01*
X670510Y188848D02*
Y221198D01*
X751282Y170330D02*
X751782Y170830D01*
X759989D01*
X761746Y172587D01*
X347522Y158750D02*
X352002Y163230D01*
X346710Y158750D02*
X347522D01*
X352002Y163230D02*
X369420D01*
X248920Y398780D02*
Y497490D01*
X193802Y343662D02*
X248920Y398780D01*
X625348Y155702D02*
X631444Y161798D01*
X641810D01*
X759886Y164330D02*
X766270Y170714D01*
X751782Y164330D02*
X759886D01*
X385772Y73604D02*
Y78713D01*
X376255Y88230D02*
X385772Y78713D01*
X350428Y88230D02*
X376255D01*
X385772Y73604D02*
X389272Y70104D01*
Y68354D02*
Y70104D01*
X281409Y80518D02*
X284920Y77007D01*
Y68730D02*
Y77007D01*
X265145Y78280D02*
X267383Y80518D01*
X281409D01*
X195882Y78280D02*
X265145D01*
X263271Y82804D02*
X265944Y85477D01*
Y85511D01*
X144306Y19338D02*
X157480Y32512D01*
X182880Y65278D02*
X195882Y78280D01*
X181864Y82804D02*
X263271D01*
X157480Y32512D02*
X173754Y48786D01*
X175732Y76672D02*
X181864Y82804D01*
X265944Y85511D02*
X290830Y110397D01*
X265944Y155477D02*
Y165982D01*
X267208Y171116D02*
X270468Y167856D01*
Y153604D02*
Y167856D01*
X255420Y153230D02*
X263697D01*
X262684Y169242D02*
X265944Y165982D01*
X139446Y315214D02*
X262684Y191976D01*
X265095Y148230D02*
X270468Y153604D01*
X263697Y153230D02*
X265944Y155477D01*
X255420Y148230D02*
X265095D01*
X267208Y171116D02*
Y194056D01*
X262684Y169242D02*
Y191976D01*
X141224Y320040D02*
X267208Y194056D01*
X290830Y155194D02*
X304920Y169284D01*
X290830Y110397D02*
Y155194D01*
X304920Y169284D02*
Y182730D01*
X106680Y101600D02*
X123626Y118546D01*
X206108D02*
X206424Y118230D01*
X255420D01*
X167967Y113230D02*
X255420D01*
X166182Y113096D02*
X167833D01*
X167967Y113230D01*
X165608Y112522D02*
X166182Y113096D01*
X123626Y118546D02*
X206108D01*
X100798Y123230D02*
X255420D01*
X64935Y159093D02*
X100798Y123230D01*
X303530Y282448D02*
Y367792D01*
X382778Y447040D02*
X430530D01*
X303530Y367792D02*
X382778Y447040D01*
X173754Y48786D02*
Y65786D01*
X709041Y127127D02*
Y149606D01*
X702818Y120904D02*
X709041Y127127D01*
X718566Y100474D02*
Y129286D01*
Y100474D02*
X718964Y100076D01*
X693420Y106432D02*
X698246D01*
X704602Y100076D02*
X718964D01*
X698246Y106432D02*
X704602Y100076D01*
X320548Y134366D02*
X345186D01*
X354050Y143230D01*
X390053Y134893D02*
Y136605D01*
X383428Y143230D02*
X390053Y136605D01*
X354050Y143230D02*
X383428D01*
X378181Y123230D02*
X381772Y119639D01*
X369420Y123230D02*
X378181D01*
X381772Y119639D02*
X442219D01*
X482600Y160020D01*
X473298Y103230D02*
X479288Y109220D01*
X482600D01*
X369420Y103230D02*
X473298D01*
X151672Y262890D02*
X153924Y260638D01*
X120650Y262890D02*
X151672D01*
X674740Y17780D02*
X687214Y30254D01*
Y32004D01*
X451612Y90678D02*
X458216Y97282D01*
X515620D01*
X532384Y114046D01*
X331132Y118230D02*
X369420D01*
X328930Y116840D02*
X329742D01*
X331132Y118230D01*
X339920Y182730D02*
Y193870D01*
X343916Y197866D02*
X470154D01*
X339920Y193870D02*
X343916Y197866D01*
X470154D02*
X482600Y185420D01*
X130810Y173880D02*
X130920Y173990D01*
X174427Y105664D02*
X176993Y108230D01*
X255420D01*
X173736Y105664D02*
X174427D01*
X590550Y171450D02*
X607023Y187923D01*
X464820Y171450D02*
X590550D01*
X349920Y186944D02*
X449326D01*
X464820Y171450D01*
X349920Y182730D02*
Y186944D01*
X388648Y157624D02*
X390398D01*
X384254Y153230D02*
X388648Y157624D01*
X369420Y153230D02*
X384254D01*
X265700Y53510D02*
X274920Y62730D01*
Y68730D01*
X265010Y53510D02*
X265700D01*
X261510Y48260D02*
Y50010D01*
X265010Y53510D01*
X339344Y99314D02*
X350428Y88230D01*
X337820Y166370D02*
X338632D01*
X344920Y172658D02*
Y182730D01*
X338632Y166370D02*
X344920Y172658D01*
X493268Y123190D02*
X530352Y160274D01*
X469900Y123190D02*
X493268D01*
X530352Y160274D02*
X547624D01*
X369420Y108230D02*
X454940D01*
X469900Y123190D01*
X297180Y43290D02*
X299920Y46030D01*
Y68730D01*
X297180Y34290D02*
Y43290D01*
X140954Y75168D02*
X154016Y88230D01*
X140954Y63381D02*
Y75168D01*
X154016Y88230D02*
X255420D01*
X140970Y41402D02*
Y63365D01*
X140954Y63381D02*
X140970Y63365D01*
X132080Y32512D02*
X140970Y41402D01*
X40640Y383540D02*
X104140Y320040D01*
X141224D01*
X188116Y103230D02*
X255420D01*
X183692Y98806D02*
X188116Y103230D01*
X182880Y98806D02*
X183692D01*
X319920Y182730D02*
Y266058D01*
X303530Y282448D02*
X319920Y266058D01*
X182880Y32512D02*
Y65278D01*
X40640Y358140D02*
X83566Y315214D01*
X139446D01*
X288180Y204250D02*
X294920Y197510D01*
Y182730D02*
Y197510D01*
X288180Y204250D02*
Y209550D01*
Y232918D01*
X287528Y233570D02*
X288180Y232918D01*
X403750Y92202D02*
Y93952D01*
X369420Y98230D02*
X399472D01*
X403750Y93952D01*
X106680Y32512D02*
Y101600D01*
X299920Y182730D02*
Y197990D01*
X306180Y204250D01*
Y209550D01*
X452955Y113230D02*
X472310Y132585D01*
X369420Y113230D02*
X452955D01*
X40640Y332740D02*
X78328Y295052D01*
Y154082D02*
Y295052D01*
X171349Y63381D02*
X173754Y65786D01*
X149954Y63381D02*
X171349D01*
X173754Y65786D02*
X175732Y67764D01*
Y76672D01*
X55626Y19338D02*
X144306D01*
X661670Y82296D02*
Y83108D01*
X666218Y87656D01*
Y95734D01*
X667766Y97282D02*
X672592D01*
X666218Y95734D02*
X667766Y97282D01*
X64935Y159093D02*
Y283045D01*
X40640Y307340D02*
X64935Y283045D01*
X316710Y33130D02*
Y42330D01*
Y33130D02*
X319140D01*
X304920Y54120D02*
Y68730D01*
Y54120D02*
X316710Y42330D01*
X675510Y185498D02*
Y199514D01*
X669296Y33124D02*
Y53492D01*
Y33124D02*
X670416Y32004D01*
X751282Y163830D02*
X751782Y164330D01*
X669930Y248768D02*
X679080D01*
X173118Y160782D02*
X173990Y161654D01*
X156210Y160782D02*
X173118D01*
X173990Y161654D02*
X174890Y160754D01*
X348090Y217960D02*
Y219710D01*
D34*
X272161Y703532D02*
X272463Y703834D01*
X272161Y703007D02*
X272463Y703309D01*
Y703834D02*
X296308D01*
X295910Y703436D02*
X296308Y703834D01*
X272161Y702056D02*
Y703007D01*
X296380Y703442D02*
X316732D01*
X294386Y705436D02*
X296380Y703442D01*
X294386Y705436D02*
Y716280D01*
X316738Y703834D02*
Y715772D01*
X736964Y100076D02*
X765556D01*
X765810Y99822D01*
X683260Y83820D02*
X683514Y83566D01*
Y72390D02*
Y83566D01*
X765446Y243078D02*
X765827Y242697D01*
Y221361D02*
Y242697D01*
Y221361D02*
X766208Y220980D01*
X766064Y243222D02*
Y271018D01*
X330090Y219710D02*
Y269604D01*
X329692Y270002D02*
X330090Y269604D01*
X312928Y286512D02*
X329438Y270002D01*
X329692D01*
X165227Y676165D02*
X165354Y676292D01*
X165227Y661019D02*
Y676165D01*
Y661019D02*
X165354Y660892D01*
X205232Y665226D02*
Y676910D01*
X204834Y677308D02*
X205232Y676910D01*
X195707Y598153D02*
Y612919D01*
X196088Y613300D01*
X195326Y597772D02*
X195707Y598153D01*
X783446Y243078D02*
X783827Y242697D01*
Y221361D02*
X784208Y220980D01*
X775032Y150830D02*
X778032Y153830D01*
X187452Y677308D02*
X204834D01*
X165354Y676038D02*
X186182D01*
X185530Y676292D02*
X185674Y676148D01*
X199446Y518756D02*
X200296Y517906D01*
X194000Y578446D02*
X195326Y579772D01*
X106934Y579264D02*
X147066D01*
X106824D02*
X106934D01*
X106680Y579120D02*
X106824Y579264D01*
X147066D02*
X147121Y579209D01*
X106680Y579120D02*
X106735Y579065D01*
X92583Y494047D02*
X92710Y494174D01*
X22720Y512204D02*
Y518204D01*
X20970Y510454D02*
X22720Y512204D01*
X92456Y478392D02*
X92583Y478519D01*
X132802Y278638D02*
X153924D01*
X207754Y65786D02*
X208017Y65523D01*
Y32775D02*
X208280Y32512D01*
X123150Y288290D02*
X132802Y278638D01*
X120650Y288290D02*
X123150D01*
X100457Y268097D02*
X120650Y288290D01*
X90932Y259334D02*
X100076Y268478D01*
X90932Y246888D02*
Y259334D01*
X90678Y246634D02*
X90932Y246888D01*
X90678Y187960D02*
Y246634D01*
X126528Y102108D02*
X132080D01*
Y63381D02*
Y65005D01*
X129954Y67131D02*
X132080Y65005D01*
X97790Y153670D02*
X113428D01*
X90678Y160782D02*
Y187960D01*
Y160782D02*
X97790Y153670D01*
X261256Y22352D02*
X261355Y35814D01*
X683412Y72492D02*
X683514Y72390D01*
X669396Y72492D02*
X683412D01*
X57376Y37338D02*
X62202Y32512D01*
X55626Y37338D02*
X57376D01*
X62202Y32512D02*
X81280D01*
X88395Y422151D02*
X102278Y436034D01*
X108486D01*
X110490Y438038D02*
Y439078D01*
X108486Y436034D02*
X110490Y438038D01*
X84582Y402082D02*
Y424214D01*
X94206Y460392D02*
X96206Y458392D01*
Y456642D02*
X108486Y444362D01*
Y441082D02*
Y444362D01*
X92456Y460392D02*
X94206D01*
X96206Y456642D02*
Y458392D01*
X84582Y402082D02*
X96266Y390398D01*
X405026Y219052D02*
X414020Y210058D01*
X96266Y390398D02*
X96774D01*
Y389636D02*
Y390398D01*
X142748Y343662D02*
X143002D01*
X261419Y44510D02*
X261510Y48260D01*
X83621Y69905D02*
Y90115D01*
X83566Y90170D02*
X83621Y90115D01*
X82478Y68652D02*
X83676Y69850D01*
X83621Y69905D02*
X83676Y69850D01*
X82478Y33710D02*
Y68652D01*
X81280Y32512D02*
X82478Y33710D01*
X261256Y22352D02*
Y22814D01*
X241046Y36068D02*
X261357D01*
X261366D01*
X261355Y35814D02*
X261357Y36068D01*
X261419Y44510D01*
X96774Y389636D02*
X113284Y373126D01*
X142748Y343662D01*
X390398Y157624D02*
X424434D01*
X377190Y219052D02*
X405026D01*
X108486Y441082D02*
X110490Y439078D01*
X377190Y237640D02*
Y237680D01*
X347980Y240030D02*
X348035Y239975D01*
Y219765D02*
X348090Y219710D01*
D35*
X638121Y100466D02*
X654323Y84264D01*
Y60533D02*
Y84264D01*
X645894Y52104D02*
X654323Y60533D01*
X139810Y633730D02*
Y635480D01*
X139700Y679450D02*
X144526D01*
X726948Y156337D02*
X728091Y155194D01*
X718843Y156337D02*
X726948D01*
X728091Y149606D02*
Y155194D01*
X704573Y161671D02*
X713509D01*
X697489Y154587D02*
X704573Y161671D01*
X713509D02*
X718843Y156337D01*
X697489Y144458D02*
Y154587D01*
X682850Y129819D02*
X697489Y144458D01*
X649321Y36849D02*
X652416Y33754D01*
Y32004D02*
Y33754D01*
X645492Y129819D02*
X682850D01*
X638121Y100466D02*
Y122448D01*
X645492Y129819D01*
X644144Y52104D02*
X645894D01*
X644144Y41389D02*
X648684Y36849D01*
X644144Y41389D02*
Y52104D01*
X648684Y36849D02*
X649321D01*
X656112Y198090D02*
X660510Y193692D01*
Y166798D02*
Y185498D01*
Y166798D02*
X665510Y161798D01*
X657431Y209495D02*
Y216782D01*
X656303Y208367D02*
X657431Y209495D01*
X656531Y217682D02*
Y225895D01*
Y217682D02*
X657431Y216782D01*
X660510Y185498D02*
Y193692D01*
X656303Y208217D02*
Y208367D01*
X657026Y199004D02*
Y207997D01*
X656112Y226314D02*
X656531Y225895D01*
X656112Y198090D02*
X657026Y199004D01*
X657352Y169926D02*
X660116Y167162D01*
X660146D01*
X751187Y176735D02*
X751282Y176830D01*
X730201Y176735D02*
X751187D01*
X729996Y176530D02*
X730201Y176735D01*
X306180Y232156D02*
X307594Y233570D01*
X306180Y209550D02*
Y232156D01*
X480565Y132585D02*
X482600Y134620D01*
X472310Y132585D02*
X480565D01*
X675510Y199514D02*
X686926Y210930D01*
X719328D01*
D36*
X186182Y676038D02*
X187452Y677308D01*
X342029Y24704D02*
X347406D01*
X347980Y24130D01*
X343664Y29924D02*
X370332D01*
X314920Y58668D02*
X343664Y29924D01*
X180340Y177546D02*
X180594Y177292D01*
X232376Y177038D02*
X233172Y176242D01*
X195834Y177292D02*
X196088Y177038D01*
X180594Y177292D02*
X195834D01*
X196088Y177038D02*
X232376D01*
X156774Y177546D02*
X180340D01*
X233172Y176242D02*
X234922D01*
X247704Y163460D02*
X255190D01*
X234922Y176242D02*
X247704Y163460D01*
X255190D02*
X255420Y163230D01*
X156210Y176982D02*
X156774Y177546D01*
X309920Y56813D02*
X342029Y24704D01*
X691007Y185801D02*
X699897D01*
X700024Y185928D01*
X690880Y184738D02*
Y185674D01*
X680540D02*
X690880D01*
X691007Y185801D01*
X689210Y183068D02*
X690880Y184738D01*
X680510Y185644D02*
X680540Y185674D01*
X689210Y176798D02*
Y183068D01*
X680510Y185498D02*
Y185644D01*
X112920Y173990D02*
Y195690D01*
X355346Y262128D02*
X382222D01*
X357378Y266700D02*
X384048D01*
X437134Y213614D01*
X382222Y262128D02*
X439626Y204724D01*
X437134Y213614D02*
X521970D01*
X439626Y204724D02*
X508762D01*
X313944Y364744D02*
X380746Y431546D01*
X378920Y436118D02*
X433564D01*
X380746Y431546D02*
X441678D01*
X308610Y365808D02*
X378920Y436118D01*
X308610Y308864D02*
Y365808D01*
X313944Y310134D02*
Y364744D01*
X308610Y308864D02*
X355346Y262128D01*
X433564Y436118D02*
X476241Y478795D01*
X314920Y94652D02*
X316484Y96216D01*
X314920Y68825D02*
Y94652D01*
X316484Y96216D02*
Y97028D01*
X62471Y87075D02*
X65566Y90170D01*
X37084Y57823D02*
X62471Y83210D01*
X37084Y56388D02*
Y57823D01*
X62471Y83210D02*
Y87075D01*
X314920Y58668D02*
Y68730D01*
X324920Y55032D02*
X344032Y35920D01*
X324920Y55032D02*
Y68730D01*
X544470Y35920D02*
X547370Y33020D01*
X344032Y35920D02*
X544470D01*
X349920Y62730D02*
Y68730D01*
X602252Y153180D02*
Y154440D01*
X566166Y117094D02*
X602252Y153180D01*
X605536Y157724D02*
Y161036D01*
X602252Y154440D02*
X605536Y157724D01*
X349920Y62730D02*
X350020D01*
X354330Y58420D01*
X488188D01*
X546862Y117094D02*
X566166D01*
X488188Y58420D02*
X546862Y117094D01*
X329920Y56396D02*
X345896Y40420D01*
X329920Y56396D02*
Y68730D01*
X529370Y40420D02*
X547370Y58420D01*
X345896Y40420D02*
X529370D01*
X334920Y57759D02*
Y68730D01*
Y57759D02*
X347760Y44920D01*
X591566Y70866D02*
X606081Y85381D01*
X514058Y44920D02*
X540004Y70866D01*
X347760Y44920D02*
X514058D01*
X540004Y70866D02*
X591566D01*
X313944Y310134D02*
X357378Y266700D01*
X441678Y431546D02*
X476240Y466108D01*
X300990Y87575D02*
X309920Y78645D01*
Y56813D02*
Y68730D01*
Y78645D01*
X31496Y30480D02*
X33985Y32969D01*
X65676Y68635D02*
Y69850D01*
X33985Y32969D02*
Y40843D01*
X62176Y65135D02*
X65676Y68635D01*
X33985Y40843D02*
X58277Y65135D01*
X62176D01*
X339920Y59124D02*
Y68730D01*
Y59124D02*
X349623Y49420D01*
X604156Y108094D02*
X605536Y109474D01*
X349623Y49420D02*
X493412D01*
X552086Y108094D02*
X604156D01*
X493412Y49420D02*
X552086Y108094D01*
X344920Y60487D02*
Y68730D01*
Y60487D02*
X351487Y53920D01*
X582494Y112594D02*
X606161Y136261D01*
X351487Y53920D02*
X490052D01*
X548726Y112594D02*
X582494D01*
X490052Y53920D02*
X548726Y112594D01*
D37*
X778032Y198830D02*
D03*
Y128830D02*
D03*
D38*
X751032Y188830D02*
D03*
Y138830D02*
D03*
D39*
X547624Y185928D02*
D03*
X547370Y83820D02*
D03*
X208280Y32512D02*
D03*
X120650Y288290D02*
D03*
X117602Y343662D02*
D03*
X31496Y106680D02*
D03*
X605536Y186436D02*
D03*
Y161036D02*
D03*
Y135636D02*
D03*
Y110236D02*
D03*
Y84836D02*
D03*
X182880Y32512D02*
D03*
X157480D02*
D03*
X132080D02*
D03*
X106680D02*
D03*
X143002Y343662D02*
D03*
X168402D02*
D03*
X193802D02*
D03*
X219202D02*
D03*
X482600Y109220D02*
D03*
Y134620D02*
D03*
Y160020D02*
D03*
Y185420D02*
D03*
X31496Y55880D02*
D03*
Y81280D02*
D03*
X120650Y262890D02*
D03*
X547624Y160528D02*
D03*
X547370Y58420D02*
D03*
D40*
X605536Y59436D02*
D03*
X482600Y83820D02*
D03*
X31496Y30480D02*
D03*
X120650Y237490D02*
D03*
X547624Y135128D02*
D03*
X547370Y33020D02*
D03*
D41*
X51816Y701548D02*
D03*
Y625348D02*
D03*
X40640Y408940D02*
D03*
Y180340D02*
D03*
Y154940D02*
D03*
Y358140D02*
D03*
Y332740D02*
D03*
Y307340D02*
D03*
Y281940D02*
D03*
Y256540D02*
D03*
Y231140D02*
D03*
Y205740D02*
D03*
X77216Y676148D02*
D03*
D42*
Y650748D02*
D03*
X40640Y383540D02*
D03*
D43*
X81280Y32512D02*
D03*
X244602Y343662D02*
D03*
D44*
X750000Y50000D02*
D03*
X160000Y467350D02*
D03*
X750000Y685000D02*
D03*
D45*
X326644Y146558D02*
D03*
X94550Y579786D02*
D03*
Y539786D02*
D03*
X104550Y559786D02*
D03*
X294386Y716280D02*
D03*
X316738Y715772D02*
D03*
X765810Y99822D02*
D03*
X751586Y100076D02*
D03*
X683260Y83820D02*
D03*
X585216Y456946D02*
D03*
X573278Y457200D02*
D03*
X766064Y271018D02*
D03*
X258318Y461010D02*
D03*
X350520Y126746D02*
D03*
X329692Y270002D02*
D03*
X312928Y286512D02*
D03*
X184550Y259785D02*
D03*
Y299785D02*
D03*
X194550Y359786D02*
D03*
X204550Y299785D02*
D03*
X214550Y399786D02*
D03*
Y439786D02*
D03*
Y479786D02*
D03*
X224550Y219785D02*
D03*
X234550Y399786D02*
D03*
X224550Y419786D02*
D03*
X234550Y439786D02*
D03*
X224550Y579786D02*
D03*
X244550D02*
D03*
X274550Y399786D02*
D03*
Y439786D02*
D03*
X264550Y499786D02*
D03*
Y579786D02*
D03*
X294550Y399786D02*
D03*
Y439786D02*
D03*
X284550Y499786D02*
D03*
X314550Y399786D02*
D03*
Y439786D02*
D03*
X304550Y499786D02*
D03*
X314550Y559786D02*
D03*
X334551Y439786D02*
D03*
X324551Y539786D02*
D03*
X344551D02*
D03*
X364551Y499786D02*
D03*
X374551Y559786D02*
D03*
X384551Y539786D02*
D03*
X404551Y459786D02*
D03*
X414551Y479786D02*
D03*
X424551Y459786D02*
D03*
X454551Y399786D02*
D03*
X444551Y419786D02*
D03*
Y539786D02*
D03*
X464551Y379786D02*
D03*
X474551Y399786D02*
D03*
X464551Y499786D02*
D03*
X484551Y379786D02*
D03*
Y419786D02*
D03*
Y539786D02*
D03*
X504551Y379786D02*
D03*
X514551Y399786D02*
D03*
X524551Y379786D02*
D03*
X544551Y539786D02*
D03*
X564551Y379786D02*
D03*
Y499786D02*
D03*
X614551Y399786D02*
D03*
X624551Y379786D02*
D03*
Y459786D02*
D03*
Y499786D02*
D03*
X644551Y459786D02*
D03*
Y539786D02*
D03*
X664551Y379786D02*
D03*
X674551Y399786D02*
D03*
X664551Y459786D02*
D03*
X674551Y479786D02*
D03*
X664551Y499786D02*
D03*
X694551Y439786D02*
D03*
X684551Y459786D02*
D03*
X714551Y399786D02*
D03*
Y439786D02*
D03*
X704551Y459786D02*
D03*
X714551Y479786D02*
D03*
Y519786D02*
D03*
X704551Y539786D02*
D03*
X724551Y379786D02*
D03*
X734551Y399786D02*
D03*
X724551Y419786D02*
D03*
X734551Y439786D02*
D03*
X724551Y459786D02*
D03*
X734551Y479786D02*
D03*
X724551Y499786D02*
D03*
X734551Y519786D02*
D03*
X724551Y539786D02*
D03*
X744551Y379786D02*
D03*
X754551Y399786D02*
D03*
X744551Y419786D02*
D03*
X754551Y439786D02*
D03*
X744551Y459786D02*
D03*
X754551Y479786D02*
D03*
X744551Y499786D02*
D03*
X754551Y519786D02*
D03*
X744551Y539786D02*
D03*
X764551Y379786D02*
D03*
X774551Y399786D02*
D03*
X764551Y419786D02*
D03*
X774551Y439786D02*
D03*
X764551Y459786D02*
D03*
X774551Y479786D02*
D03*
X764551Y499786D02*
D03*
X774551Y519786D02*
D03*
X764551Y539786D02*
D03*
X784551Y379786D02*
D03*
Y419786D02*
D03*
Y459786D02*
D03*
Y499786D02*
D03*
Y539786D02*
D03*
X244550Y379786D02*
D03*
X169672Y610870D02*
D03*
X178054Y620522D02*
D03*
X294386Y490220D02*
D03*
X271780Y490728D02*
D03*
X375158Y399034D02*
D03*
X400050D02*
D03*
X409956D02*
D03*
X644906Y212090D02*
D03*
X644550Y119785D02*
D03*
X205232Y665226D02*
D03*
X694550Y719785D02*
D03*
X594550D02*
D03*
X644550D02*
D03*
X619550Y669785D02*
D03*
X569550D02*
D03*
X669550Y269785D02*
D03*
X515620Y482092D02*
D03*
X369550Y669785D02*
D03*
X419550D02*
D03*
X515620Y453136D02*
D03*
X657026Y207997D02*
D03*
X656112Y226314D02*
D03*
X674878Y169418D02*
D03*
X657352Y169926D02*
D03*
X675640Y152908D02*
D03*
X657606D02*
D03*
X694550Y114880D02*
D03*
X424180Y175514D02*
D03*
Y74676D02*
D03*
X407924Y175514D02*
D03*
X386080Y89408D02*
D03*
X205232Y676910D02*
D03*
X238571Y460945D02*
D03*
X194550Y419785D02*
D03*
X144550Y619785D02*
D03*
X94550D02*
D03*
X128778Y403098D02*
D03*
X269550Y269785D02*
D03*
X169550Y369785D02*
D03*
X142240Y388366D02*
D03*
X192278Y148082D02*
D03*
X100076Y268478D02*
D03*
X90932Y246888D02*
D03*
X69550Y369785D02*
D03*
X90678Y187960D02*
D03*
X129032Y85598D02*
D03*
X117348Y63754D02*
D03*
X97790Y153670D02*
D03*
X627380Y20502D02*
D03*
X347980Y24130D02*
D03*
X581914Y475234D02*
D03*
X573532Y475488D02*
D03*
X437134Y472440D02*
D03*
X447040D02*
D03*
X213360Y145034D02*
D03*
X196088Y177038D02*
D03*
X180340Y177546D02*
D03*
X83621Y80010D02*
D03*
X370332Y29924D02*
D03*
X766064Y260858D02*
D03*
X738632Y176784D02*
D03*
X729996Y176530D02*
D03*
X700024Y185928D02*
D03*
X690372Y239522D02*
D03*
Y249428D02*
D03*
X690880Y185674D02*
D03*
X683514Y72390D02*
D03*
X112776Y195834D02*
D03*
Y186182D02*
D03*
X346710Y158750D02*
D03*
X248920Y497490D02*
D03*
X98298Y432054D02*
D03*
X165608Y112522D02*
D03*
X702818Y120904D02*
D03*
X476241Y478795D02*
D03*
X316484Y97028D02*
D03*
X508762Y204724D02*
D03*
X320548Y134366D02*
D03*
X451612Y90678D02*
D03*
X532384Y114046D02*
D03*
X328930Y116840D02*
D03*
X173736Y105664D02*
D03*
X414020Y210058D02*
D03*
X96774Y390398D02*
D03*
X113284Y373126D02*
D03*
X424434Y157988D02*
D03*
X407162Y158242D02*
D03*
X398018Y219456D02*
D03*
X350012Y88392D02*
D03*
X261366Y35814D02*
D03*
X241046Y36068D02*
D03*
X339344Y99314D02*
D03*
X337820Y166370D02*
D03*
X182880Y98806D02*
D03*
X430530Y447040D02*
D03*
X476240Y466108D02*
D03*
X300990Y87575D02*
D03*
X521970Y213614D02*
D03*
X661670Y82296D02*
D03*
D57*
X249174Y636524D02*
D03*
D58*
X272161Y702056D02*
D03*
X249174D02*
D03*
X226187D02*
D03*
D59*
X117602Y670312D02*
D03*
X138430Y679462D02*
D03*
Y661162D02*
D03*
X672592Y97282D02*
D03*
Y115582D02*
D03*
X693420Y106432D02*
D03*
D60*
X68720Y518204D02*
D03*
X22720D02*
D03*
X45720D02*
D03*
D61*
X70231Y572008D02*
D03*
X30353D02*
D03*
D62*
X165354Y632952D02*
D03*
Y660892D02*
D03*
D63*
X689096Y62992D02*
D03*
X669396Y72492D02*
D03*
X669296Y53492D02*
D03*
D64*
X641810Y156798D02*
D03*
X689210Y176798D02*
D03*
Y171798D02*
D03*
Y166798D02*
D03*
Y161798D02*
D03*
Y156798D02*
D03*
Y151798D02*
D03*
Y146798D02*
D03*
X641810D02*
D03*
Y151798D02*
D03*
Y161798D02*
D03*
Y166798D02*
D03*
Y171798D02*
D03*
Y176798D02*
D03*
D65*
X728091Y149606D02*
D03*
X718566Y129286D02*
D03*
X709041Y149606D02*
D03*
D66*
X329920Y182730D02*
D03*
X279920Y68730D02*
D03*
X304920D02*
D03*
X284920D02*
D03*
X289920D02*
D03*
X294920D02*
D03*
X299920D02*
D03*
X319920D02*
D03*
X334920D02*
D03*
X339920D02*
D03*
X344920D02*
D03*
X349920D02*
D03*
Y182730D02*
D03*
X339920D02*
D03*
X334920D02*
D03*
X324920D02*
D03*
X319920D02*
D03*
X314920D02*
D03*
X309920D02*
D03*
X294920D02*
D03*
X289920D02*
D03*
X284920D02*
D03*
X279920D02*
D03*
X274920D02*
D03*
X324920Y68730D02*
D03*
X329920D02*
D03*
X344920Y182730D02*
D03*
X304920D02*
D03*
X314920Y68730D02*
D03*
X309920D02*
D03*
X274920D02*
D03*
X299920Y182730D02*
D03*
D67*
X369420Y138230D02*
D03*
Y148230D02*
D03*
Y158230D02*
D03*
X255420D02*
D03*
X369420Y93230D02*
D03*
X255420Y153230D02*
D03*
Y148230D02*
D03*
Y128230D02*
D03*
Y118230D02*
D03*
Y113230D02*
D03*
Y98230D02*
D03*
Y93230D02*
D03*
Y88230D02*
D03*
X369420Y98230D02*
D03*
Y103230D02*
D03*
Y113230D02*
D03*
Y123230D02*
D03*
Y128230D02*
D03*
Y133230D02*
D03*
Y108230D02*
D03*
X255420Y123230D02*
D03*
Y103230D02*
D03*
Y108230D02*
D03*
X369420Y163230D02*
D03*
Y118230D02*
D03*
X255420Y133230D02*
D03*
Y138230D02*
D03*
X369420Y143230D02*
D03*
Y153230D02*
D03*
Y88230D02*
D03*
X255420Y163230D02*
D03*
Y143230D02*
D03*
D68*
X173482Y595034D02*
D03*
Y578446D02*
D03*
X110490Y422490D02*
D03*
Y439078D02*
D03*
D69*
X708328Y239268D02*
D03*
X679080D02*
D03*
Y248768D02*
D03*
Y229768D02*
D03*
X708328D02*
D03*
Y248768D02*
D03*
D70*
X778032Y173830D02*
D03*
Y153830D02*
D03*
D71*
X665510Y161798D02*
D03*
D72*
X751282Y150830D02*
D03*
Y176830D02*
D03*
Y170330D02*
D03*
Y163830D02*
D03*
Y157330D02*
D03*
D73*
X660510Y185498D02*
D03*
X650510D02*
D03*
X655510D02*
D03*
X665510D02*
D03*
X670510D02*
D03*
X675510D02*
D03*
X680510D02*
D03*
Y138098D02*
D03*
X675510D02*
D03*
X670510D02*
D03*
X665510D02*
D03*
X660510D02*
D03*
X655510D02*
D03*
X650510D02*
D03*
D74*
X207754Y65786D02*
D03*
X173754D02*
D03*
D75*
X130810Y101890D02*
D03*
Y135890D02*
D03*
D76*
X288180Y209550D02*
D03*
X306180D02*
D03*
D77*
X156210Y176982D02*
D03*
Y160782D02*
D03*
D78*
X45720Y460204D02*
D03*
D79*
X751032Y150580D02*
X751282Y150830D01*
X751032Y138830D02*
Y150580D01*
X279920Y48670D02*
Y68730D01*
X279510Y48260D02*
X279920Y48670D01*
D80*
X690372Y239522D02*
Y249428D01*
X679206Y239395D02*
X690245D01*
M02*
