G04*
G04 #@! TF.GenerationSoftware,Altium Limited,Altium Designer,26.5.0 (11)*
G04*
G04 Layer_Color=128*
G04 Board_Origin=25805118|26780118*
%FSLAX44Y44*%
%MOMM*%
G71*
G04*
G04 #@! TF.SameCoordinates,99D14080-430B-4216-B52D-1A658B347D30*
G04*
G04*
G04 #@! TF.FilePolarity,Positive*
G04*
G01*
G75*
%ADD15R,0.8508X0.8588*%
%ADD16R,1.3500X1.0000*%
%ADD17R,1.0000X1.3500*%
G04:AMPARAMS|DCode=57|XSize=0.26mm|YSize=0.97mm|CornerRadius=0.065mm|HoleSize=0mm|Usage=FLASHONLY|Rotation=0.000|XOffset=0mm|YOffset=0mm|HoleType=Round|Shape=RoundedRectangle|*
%AMROUNDEDRECTD57*
21,1,0.2600,0.8400,0,0,0.0*
21,1,0.1300,0.9700,0,0,0.0*
1,1,0.1300,0.0650,-0.4200*
1,1,0.1300,-0.0650,-0.4200*
1,1,0.1300,-0.0650,0.4200*
1,1,0.1300,0.0650,0.4200*
%
%ADD57ROUNDEDRECTD57*%
G04:AMPARAMS|DCode=58|XSize=0.26mm|YSize=0.97mm|CornerRadius=0.065mm|HoleSize=0mm|Usage=FLASHONLY|Rotation=270.000|XOffset=0mm|YOffset=0mm|HoleType=Round|Shape=RoundedRectangle|*
%AMROUNDEDRECTD58*
21,1,0.2600,0.8400,0,0,270.0*
21,1,0.1300,0.9700,0,0,270.0*
1,1,0.1300,-0.4200,-0.0650*
1,1,0.1300,-0.4200,0.0650*
1,1,0.1300,0.4200,0.0650*
1,1,0.1300,0.4200,-0.0650*
%
%ADD58ROUNDEDRECTD58*%
%ADD60R,1.3500X0.4000*%
%ADD61R,1.1723X0.5580*%
%ADD62R,1.3700X2.4300*%
%ADD63R,0.9300X0.8100*%
%ADD64R,1.5500X1.5000*%
%ADD65R,1.3400X0.6000*%
%ADD66R,0.6604X1.8542*%
%ADD68R,1.0008X1.2088*%
%ADD69R,0.8000X1.7000*%
%ADD70R,1.7000X0.8000*%
%ADD71R,0.6096X1.7272*%
%ADD72R,1.5748X0.6096*%
%ADD73R,2.0066X2.0066*%
%ADD74R,0.3000X1.5000*%
%ADD75R,1.5000X0.3000*%
%ADD76R,0.9500X2.1500*%
%ADD77R,3.2500X2.1500*%
%ADD94R,1.9798X1.9798*%
G36*
X265684Y627253D02*
X232664D01*
Y645795D01*
X265684D01*
Y627253D01*
D02*
G37*
G36*
X781042Y203270D02*
X781302Y203250D01*
X781562Y203220D01*
X781822Y203170D01*
X782072Y203110D01*
X782332Y203040D01*
X782572Y202950D01*
X782812Y202850D01*
X783052Y202740D01*
X783282Y202610D01*
X783502Y202470D01*
X783722Y202330D01*
X783932Y202170D01*
X784132Y202000D01*
X784322Y201820D01*
X784502Y201630D01*
X784672Y201430D01*
X784832Y201220D01*
X784972Y201000D01*
X785112Y200780D01*
X785242Y200550D01*
X785352Y200310D01*
X785452Y200070D01*
X785542Y199830D01*
X785612Y199570D01*
X785672Y199320D01*
X785722Y199060D01*
X785752Y198800D01*
X785772Y198540D01*
X785782Y198280D01*
Y186830D01*
X770282D01*
Y198280D01*
X770292Y198540D01*
X770312Y198800D01*
X770342Y199060D01*
X770392Y199320D01*
X770452Y199570D01*
X770522Y199830D01*
X770612Y200070D01*
X770712Y200310D01*
X770822Y200550D01*
X770952Y200780D01*
X771092Y201000D01*
X771232Y201220D01*
X771392Y201430D01*
X771562Y201630D01*
X771742Y201820D01*
X771932Y202000D01*
X772132Y202170D01*
X772342Y202330D01*
X772562Y202470D01*
X772782Y202610D01*
X773012Y202740D01*
X773252Y202850D01*
X773492Y202950D01*
X773732Y203040D01*
X773992Y203110D01*
X774242Y203170D01*
X774502Y203220D01*
X774762Y203250D01*
X775022Y203270D01*
X775282Y203280D01*
X780782D01*
X781042Y203270D01*
D02*
G37*
G36*
X785782Y129380D02*
X785772Y129120D01*
X785752Y128860D01*
X785722Y128600D01*
X785672Y128340D01*
X785612Y128090D01*
X785542Y127830D01*
X785452Y127590D01*
X785352Y127350D01*
X785242Y127110D01*
X785112Y126880D01*
X784972Y126660D01*
X784832Y126440D01*
X784672Y126230D01*
X784502Y126030D01*
X784322Y125840D01*
X784132Y125660D01*
X783932Y125490D01*
X783722Y125330D01*
X783502Y125190D01*
X783282Y125050D01*
X783052Y124920D01*
X782812Y124810D01*
X782572Y124710D01*
X782332Y124620D01*
X782072Y124550D01*
X781822Y124490D01*
X781562Y124440D01*
X781302Y124410D01*
X781042Y124390D01*
X780782Y124380D01*
X775282D01*
X775022Y124390D01*
X774762Y124410D01*
X774502Y124440D01*
X774242Y124490D01*
X773992Y124550D01*
X773732Y124620D01*
X773492Y124710D01*
X773252Y124810D01*
X773012Y124920D01*
X772782Y125050D01*
X772562Y125190D01*
X772342Y125330D01*
X772132Y125490D01*
X771932Y125660D01*
X771742Y125840D01*
X771562Y126030D01*
X771392Y126230D01*
X771232Y126440D01*
X771092Y126660D01*
X770952Y126880D01*
X770822Y127110D01*
X770712Y127350D01*
X770612Y127590D01*
X770522Y127830D01*
X770452Y128090D01*
X770392Y128340D01*
X770342Y128600D01*
X770312Y128860D01*
X770292Y129120D01*
X770282Y129380D01*
Y140830D01*
X785782D01*
Y129380D01*
D02*
G37*
D15*
X377190Y219052D02*
D03*
Y237640D02*
D03*
D16*
X297180Y16290D02*
D03*
X186944Y694292D02*
D03*
Y676292D02*
D03*
X106934Y579264D02*
D03*
Y597264D02*
D03*
X127254Y579408D02*
D03*
Y597408D02*
D03*
X147066Y579264D02*
D03*
Y597264D02*
D03*
X92710Y494428D02*
D03*
Y512428D02*
D03*
X316738Y685436D02*
D03*
Y703436D02*
D03*
X287528Y251570D02*
D03*
Y233570D02*
D03*
X307594Y251570D02*
D03*
Y233570D02*
D03*
X390398Y175624D02*
D03*
Y157624D02*
D03*
X233172Y158242D02*
D03*
Y176242D02*
D03*
X719328Y192930D02*
D03*
Y210930D02*
D03*
X166116Y694292D02*
D03*
Y676292D02*
D03*
X173990Y161654D02*
D03*
Y143654D02*
D03*
X317500Y15240D02*
D03*
Y33240D02*
D03*
X297180Y34290D02*
D03*
X92456Y478392D02*
D03*
Y460392D02*
D03*
X295910Y685436D02*
D03*
Y703436D02*
D03*
X195326Y579772D02*
D03*
Y597772D02*
D03*
X84582Y424214D02*
D03*
Y442214D02*
D03*
X197866Y616348D02*
D03*
Y634348D02*
D03*
X153924Y278638D02*
D03*
Y260638D02*
D03*
X55626Y37338D02*
D03*
Y19338D02*
D03*
X629158Y212962D02*
D03*
Y194962D02*
D03*
D17*
X765446Y243078D02*
D03*
X766208Y220980D02*
D03*
X131954Y63381D02*
D03*
X149954D02*
D03*
X408034Y134874D02*
D03*
X390034D02*
D03*
X421750Y92202D02*
D03*
X403750D02*
D03*
X279256Y22352D02*
D03*
X261256D02*
D03*
X279510Y48260D02*
D03*
X261510D02*
D03*
X407272Y70104D02*
D03*
X389272D02*
D03*
X330090Y219710D02*
D03*
X348090D02*
D03*
X329980Y240030D02*
D03*
X347980D02*
D03*
X113428Y153670D02*
D03*
X131428D02*
D03*
X200296Y517906D02*
D03*
X218296D02*
D03*
X139810Y633730D02*
D03*
X121810D02*
D03*
X83566Y90170D02*
D03*
X65566D02*
D03*
X83676Y69850D02*
D03*
X65676D02*
D03*
X112920Y173990D02*
D03*
X130920D02*
D03*
X784208Y220980D02*
D03*
X783446Y243078D02*
D03*
X736964Y100076D02*
D03*
X718964D02*
D03*
X670416Y32004D02*
D03*
X652416D02*
D03*
X705214D02*
D03*
X687214D02*
D03*
D57*
X650510Y185498D02*
D03*
X655510D02*
D03*
X660510D02*
D03*
X665510D02*
D03*
X670510D02*
D03*
X675510D02*
D03*
X680510D02*
D03*
Y138098D02*
D03*
X675510D02*
D03*
X670510D02*
D03*
X665510D02*
D03*
X660510D02*
D03*
X655510D02*
D03*
X650510D02*
D03*
D58*
X689210Y176798D02*
D03*
Y171798D02*
D03*
Y166798D02*
D03*
Y161798D02*
D03*
Y156798D02*
D03*
Y151798D02*
D03*
Y146798D02*
D03*
X641810D02*
D03*
Y151798D02*
D03*
Y156798D02*
D03*
Y161798D02*
D03*
Y166798D02*
D03*
Y171798D02*
D03*
Y176798D02*
D03*
D60*
X751282Y176830D02*
D03*
Y170330D02*
D03*
Y163830D02*
D03*
Y157330D02*
D03*
Y150830D02*
D03*
D61*
X679080Y239268D02*
D03*
Y248768D02*
D03*
Y229768D02*
D03*
X708328D02*
D03*
Y239268D02*
D03*
Y248768D02*
D03*
D62*
X288180Y209550D02*
D03*
X306180D02*
D03*
D63*
X156210Y176982D02*
D03*
Y160782D02*
D03*
D64*
X778032Y173830D02*
D03*
Y153830D02*
D03*
D65*
X669296Y53492D02*
D03*
X669396Y72492D02*
D03*
X689096Y62992D02*
D03*
D66*
X226187Y702056D02*
D03*
X249174D02*
D03*
X272161D02*
D03*
D68*
X110490Y422490D02*
D03*
Y439078D02*
D03*
X173482Y578446D02*
D03*
Y595034D02*
D03*
D69*
X207754Y65786D02*
D03*
X173754D02*
D03*
D70*
X130810Y101890D02*
D03*
Y135890D02*
D03*
D71*
X718566Y129286D02*
D03*
X728091Y149606D02*
D03*
X709041D02*
D03*
D72*
X138430Y679462D02*
D03*
Y661162D02*
D03*
X117602Y670312D02*
D03*
X672592Y97282D02*
D03*
Y115582D02*
D03*
X693420Y106432D02*
D03*
D73*
X30353Y572008D02*
D03*
X70231D02*
D03*
D74*
X304920Y68730D02*
D03*
X284920D02*
D03*
X289920D02*
D03*
X294920D02*
D03*
X299920D02*
D03*
X319920D02*
D03*
X334920D02*
D03*
X339920D02*
D03*
X344920D02*
D03*
X349920D02*
D03*
Y182730D02*
D03*
X339920D02*
D03*
X334920D02*
D03*
X324920D02*
D03*
X319920D02*
D03*
X314920D02*
D03*
X309920D02*
D03*
X294920D02*
D03*
X289920D02*
D03*
X284920D02*
D03*
X279920D02*
D03*
X274920D02*
D03*
X324920Y68730D02*
D03*
X329920D02*
D03*
X344920Y182730D02*
D03*
X329920D02*
D03*
X304920D02*
D03*
X314920Y68730D02*
D03*
X309920D02*
D03*
X274920D02*
D03*
X299920Y182730D02*
D03*
X279920Y68730D02*
D03*
D75*
X255420Y153230D02*
D03*
Y148230D02*
D03*
Y128230D02*
D03*
Y118230D02*
D03*
Y113230D02*
D03*
Y98230D02*
D03*
Y93230D02*
D03*
Y88230D02*
D03*
X369420Y98230D02*
D03*
Y103230D02*
D03*
Y113230D02*
D03*
Y123230D02*
D03*
Y128230D02*
D03*
Y133230D02*
D03*
Y108230D02*
D03*
X255420Y123230D02*
D03*
Y103230D02*
D03*
Y108230D02*
D03*
X369420Y163230D02*
D03*
Y118230D02*
D03*
X255420Y133230D02*
D03*
Y138230D02*
D03*
X369420Y148230D02*
D03*
Y138230D02*
D03*
Y143230D02*
D03*
Y153230D02*
D03*
Y88230D02*
D03*
X255420Y163230D02*
D03*
Y143230D02*
D03*
Y158230D02*
D03*
X369420Y93230D02*
D03*
Y158230D02*
D03*
D76*
X22720Y518204D02*
D03*
X68720D02*
D03*
X45720D02*
D03*
D77*
Y460204D02*
D03*
D94*
X665510Y161798D02*
D03*
M02*
