G04*
G04 #@! TF.GenerationSoftware,Altium Limited,Altium Designer,26.5.0 (11)*
G04*
G04 Layer_Physical_Order=2*
G04 Layer_Color=32768*
G04 Board_Origin=25805118|26780118*
%FSLAX44Y44*%
%MOMM*%
G71*
G04*
G04 #@! TF.SameCoordinates,99D14080-430B-4216-B52D-1A658B347D30*
G04*
G04*
G04 #@! TF.FilePolarity,Negative*
G04*
G01*
G75*
%ADD36C,0.6000*%
%ADD46C,1.0160*%
%AMTHOVALD47*
21,1,0.6500,2.0240,0,0,180.0*
1,1,2.0240,0.3250,0.0000*
1,1,2.0240,-0.3250,0.0000*
21,0,0.6500,1.5160,0,0,180.0*
1,0,1.5160,0.3250,0.0000*
1,0,1.5160,-0.3250,0.0000*
4,0,4,0.2352,0.0898,0.9508,0.8054,1.1304,0.6258,0.4148,-0.0898,0.2352,0.0898,0.0*
4,0,4,-0.4148,0.0898,-1.1304,-0.6258,-0.9508,-0.8054,-0.2352,-0.0898,-0.4148,0.0898,0.0*
4,0,4,0.4148,0.0898,1.1304,-0.6258,0.9508,-0.8054,0.2352,-0.0898,0.4148,0.0898,0.0*
4,0,4,-0.2352,0.0898,-0.9508,0.8054,-1.1304,0.6258,-0.4148,-0.0898,-0.2352,0.0898,0.0*
%
%ADD47THOVALD47*%

%AMTHOVALD48*
21,1,0.3500,2.0740,0,0,270.0*
1,1,2.0740,0.0000,0.1750*
1,1,2.0740,0.0000,-0.1750*
21,0,0.3500,1.5660,0,0,270.0*
1,0,1.5660,0.0000,0.1750*
1,0,1.5660,0.0000,-0.1750*
4,0,4,-0.0898,0.0852,-0.8231,0.8185,-0.6435,0.9981,0.0898,0.2648,-0.0898,0.0852,0.0*
4,0,4,-0.0898,-0.2648,0.6435,-0.9981,0.8231,-0.8185,0.0898,-0.0852,-0.0898,-0.2648,0.0*
4,0,4,-0.0898,0.2648,0.6435,0.9981,0.8231,0.8185,0.0898,0.0852,-0.0898,0.2648,0.0*
4,0,4,-0.0898,-0.0852,-0.8231,-0.8185,-0.6435,-0.9981,0.0898,-0.2648,-0.0898,-0.0852,0.0*
%
%ADD48THOVALD48*%

G04:AMPARAMS|DCode=49|XSize=2.724mm|YSize=2.724mm|CornerRadius=0mm|HoleSize=0mm|Usage=FLASHONLY|Rotation=0.000|XOffset=0mm|YOffset=0mm|HoleType=Round|Shape=Relief|Width=0.254mm|Gap=0.254mm|Entries=4|*
%AMTHD49*
7,0,0,2.7240,2.2160,0.2540,45*
%
%ADD49THD49*%
%ADD50C,2.2160*%
%ADD51C,2.0320*%
G04:AMPARAMS|DCode=52|XSize=2.54mm|YSize=2.54mm|CornerRadius=0mm|HoleSize=0mm|Usage=FLASHONLY|Rotation=0.000|XOffset=0mm|YOffset=0mm|HoleType=Round|Shape=Relief|Width=0.254mm|Gap=0.254mm|Entries=4|*
%AMTHD52*
7,0,0,2.5400,2.0320,0.2540,45*
%
%ADD52THD52*%
%ADD53C,4.2160*%
%ADD54C,1.3160*%
G36*
X800722Y635780D02*
X801080Y635421D01*
X801274Y634953D01*
Y634700D01*
Y568700D01*
Y568447D01*
X801080Y567978D01*
X800722Y567620D01*
X800253Y567426D01*
X381300D01*
X381292Y567426D01*
X378595Y567427D01*
X373267Y568272D01*
X368137Y569940D01*
X363331Y572390D01*
X358967Y575562D01*
X355154Y579377D01*
X351983Y583741D01*
X349535Y588548D01*
X347869Y593679D01*
X347026Y599007D01*
X347026Y604401D01*
X347871Y609729D01*
X349538Y614859D01*
X351988Y619666D01*
X355159Y624030D01*
X358974Y627844D01*
X363338Y631014D01*
X368144Y633463D01*
X373275Y635130D01*
X378603Y635974D01*
X800253D01*
X800722Y635780D01*
D02*
G37*
G36*
X800000Y367274D02*
X800253D01*
X800722Y367080D01*
X801080Y366721D01*
X801274Y366253D01*
Y366000D01*
Y300000D01*
Y299747D01*
X801080Y299278D01*
X800722Y298920D01*
X800253Y298726D01*
X378603D01*
X373274Y299570D01*
X368143Y301237D01*
X363337Y303686D01*
X358972Y306857D01*
X355157Y310672D01*
X351986Y315037D01*
X349537Y319843D01*
X347870Y324974D01*
X347026Y330303D01*
Y335697D01*
X347870Y341026D01*
X349537Y346157D01*
X351986Y350963D01*
X355157Y355328D01*
X358972Y359143D01*
X363337Y362314D01*
X368143Y364763D01*
X373274Y366430D01*
X378603Y367274D01*
X381300D01*
X800000Y367274D01*
D02*
G37*
D36*
X210566Y491744D02*
X612394D01*
X210566D02*
Y601472D01*
X612394Y447040D02*
Y491744D01*
X262128Y447040D02*
X580898D01*
X262128Y423926D02*
Y447040D01*
X580898D02*
X612394D01*
X248158Y207518D02*
Y265938D01*
Y207518D02*
X305054Y150622D01*
X248158Y265938D02*
X311912D01*
X400812Y250444D02*
X449326Y298958D01*
X327406Y250444D02*
X400812D01*
X311912Y265938D02*
X327406Y250444D01*
X417830Y123190D02*
Y150622D01*
X273558Y123190D02*
X417830D01*
X343316Y601472D02*
X348706Y606862D01*
X305054Y150622D02*
X417830D01*
X173736Y223012D02*
X273558Y123190D01*
X173736Y223012D02*
Y335534D01*
X262128Y423926D01*
X210566Y601472D02*
X343316D01*
D46*
X800000Y635974D02*
Y750000D01*
X0D02*
X800000D01*
X0Y0D02*
Y750000D01*
Y0D02*
X800000D01*
Y298726D01*
X378603D02*
X800000D01*
X373274Y299570D02*
X378603Y298726D01*
X368143Y301237D02*
X373274Y299570D01*
X363337Y303686D02*
X368143Y301237D01*
X358972Y306857D02*
X363337Y303686D01*
X355157Y310672D02*
X358972Y306857D01*
X351986Y315037D02*
X355157Y310672D01*
X349537Y319843D02*
X351986Y315037D01*
X347870Y324974D02*
X349537Y319843D01*
X347026Y330303D02*
X347870Y324974D01*
X347026Y330303D02*
Y335697D01*
X347870Y341026D01*
X349537Y346157D01*
X351986Y350963D01*
X355157Y355328D01*
X358972Y359143D01*
X363337Y362314D01*
X368143Y364763D01*
X373274Y366430D01*
X378603Y367274D01*
X381300D01*
X800000Y367274D01*
Y567426D01*
X381300D02*
X800000D01*
X381292Y567426D02*
X381300Y567426D01*
X378595Y567427D02*
X381292Y567426D01*
X373267Y568272D02*
X378595Y567427D01*
X368137Y569940D02*
X373267Y568272D01*
X363331Y572390D02*
X368137Y569940D01*
X358967Y575562D02*
X363331Y572390D01*
X355154Y579377D02*
X358967Y575562D01*
X351983Y583741D02*
X355154Y579377D01*
X349535Y588548D02*
X351983Y583741D01*
X347869Y593679D02*
X349535Y588548D01*
X347026Y599007D02*
X347869Y593679D01*
X347026Y599007D02*
X347026Y604401D01*
X347871Y609729D01*
X349538Y614859D01*
X351988Y619666D01*
X355159Y624030D01*
X358974Y627844D01*
X363338Y631014D01*
X368144Y633463D01*
X373275Y635130D01*
X378603Y635974D01*
X800000D01*
D47*
X778032Y198830D02*
D03*
Y128830D02*
D03*
D48*
X751032Y188830D02*
D03*
Y138830D02*
D03*
D49*
X40640Y408940D02*
D03*
Y154940D02*
D03*
Y180340D02*
D03*
X51816Y625348D02*
D03*
Y701548D02*
D03*
X77216Y650748D02*
D03*
D50*
X40640Y383540D02*
D03*
Y358140D02*
D03*
Y332740D02*
D03*
Y307340D02*
D03*
Y281940D02*
D03*
Y256540D02*
D03*
Y231140D02*
D03*
Y205740D02*
D03*
X77216Y676148D02*
D03*
D51*
X605536Y186436D02*
D03*
Y161036D02*
D03*
Y135636D02*
D03*
Y110236D02*
D03*
Y84836D02*
D03*
X182880Y32512D02*
D03*
X157480D02*
D03*
X132080D02*
D03*
X106680D02*
D03*
X81280D02*
D03*
X143002Y343662D02*
D03*
X168402D02*
D03*
X193802D02*
D03*
X219202D02*
D03*
X244602D02*
D03*
X482600Y109220D02*
D03*
Y134620D02*
D03*
Y160020D02*
D03*
Y185420D02*
D03*
X31496Y30480D02*
D03*
Y55880D02*
D03*
Y81280D02*
D03*
X120650Y237490D02*
D03*
Y262890D02*
D03*
X547624Y135128D02*
D03*
Y160528D02*
D03*
X547370Y33020D02*
D03*
Y58420D02*
D03*
D52*
X605536Y59436D02*
D03*
X208280Y32512D02*
D03*
X117602Y343662D02*
D03*
X482600Y83820D02*
D03*
X31496Y106680D02*
D03*
X120650Y288290D02*
D03*
X547624Y185928D02*
D03*
X547370Y83820D02*
D03*
D53*
X750000Y50000D02*
D03*
X160000Y467350D02*
D03*
X750000Y685000D02*
D03*
D54*
X83621Y80010D02*
D03*
X370332Y29924D02*
D03*
X347980Y24130D02*
D03*
X766318Y232156D02*
D03*
X766064Y260858D02*
D03*
X738632Y176784D02*
D03*
X729996Y176530D02*
D03*
X700024Y185928D02*
D03*
X690372Y239522D02*
D03*
Y249428D02*
D03*
X690880Y185674D02*
D03*
X644144Y212852D02*
D03*
X690626Y72390D02*
D03*
X683514D02*
D03*
X756920Y100076D02*
D03*
X749046D02*
D03*
X112776Y195834D02*
D03*
Y186182D02*
D03*
X168557Y177292D02*
D03*
X180594D02*
D03*
X346710Y158750D02*
D03*
X409956Y399034D02*
D03*
X400050D02*
D03*
X375158D02*
D03*
X248920Y497490D02*
D03*
X271780Y490728D02*
D03*
X294386Y490220D02*
D03*
X443484Y472440D02*
D03*
X574802Y475488D02*
D03*
X98298Y432054D02*
D03*
X316738Y715772D02*
D03*
X294386Y716280D02*
D03*
X165608Y112522D02*
D03*
X244550Y599786D02*
D03*
X224550D02*
D03*
X702818Y120904D02*
D03*
X408178Y148844D02*
D03*
X419550Y269785D02*
D03*
X294550Y319785D02*
D03*
X269550Y269785D02*
D03*
X476241Y478795D02*
D03*
X316484Y97028D02*
D03*
X508762Y204724D02*
D03*
X320548Y134366D02*
D03*
X213360Y145034D02*
D03*
X627380Y17780D02*
D03*
X451612Y90678D02*
D03*
X532384Y114046D02*
D03*
X328930Y116840D02*
D03*
X173736Y105664D02*
D03*
X414020Y210058D02*
D03*
X96774Y390398D02*
D03*
X113284Y373126D02*
D03*
X424434Y157988D02*
D03*
X407162Y158242D02*
D03*
X398018Y219456D02*
D03*
X350012Y88392D02*
D03*
X261366Y35814D02*
D03*
X241046Y36068D02*
D03*
X339344Y99314D02*
D03*
X337820Y166370D02*
D03*
X182880Y98806D02*
D03*
X430530Y447040D02*
D03*
X476240Y466108D02*
D03*
X300990Y87575D02*
D03*
X521970Y213614D02*
D03*
X661670Y82296D02*
D03*
X424551Y459786D02*
D03*
X414551Y479786D02*
D03*
X404551Y459786D02*
D03*
X234550Y439786D02*
D03*
X224550Y419786D02*
D03*
X234550Y399786D02*
D03*
X214550Y479786D02*
D03*
Y439786D02*
D03*
Y399786D02*
D03*
X194550Y359786D02*
D03*
X104550Y559786D02*
D03*
X94550Y539786D02*
D03*
Y579786D02*
D03*
X350520Y126746D02*
D03*
M02*
