G04*
G04 #@! TF.GenerationSoftware,Altium Limited,Altium Designer,26.5.0 (11)*
G04*
G04 Layer_Color=8421504*
G04 Board_Origin=25805118|26780118*
%FSLAX44Y44*%
%MOMM*%
G71*
G04*
G04 #@! TF.SameCoordinates,2D23E983-437A-4A9F-BEFF-0BAD31C0BB0C*
G04*
G04*
G04 #@! TF.FilePolarity,Positive*
G04*
G01*
G75*
%ADD14R,0.9080X0.2548*%
%ADD15R,1.5500X1.5494*%
G04:AMPARAMS|DCode=16|XSize=1.22mm|YSize=0.6mm|CornerRadius=0.15mm|HoleSize=0mm|Usage=FLASHONLY|Rotation=270.000|XOffset=0mm|YOffset=0mm|HoleType=Round|Shape=RoundedRectangle|*
%AMROUNDEDRECTD16*
21,1,1.2200,0.3000,0,0,270.0*
21,1,0.9200,0.6000,0,0,270.0*
1,1,0.3000,-0.1500,-0.4600*
1,1,0.3000,-0.1500,0.4600*
1,1,0.3000,0.1500,0.4600*
1,1,0.3000,0.1500,-0.4600*
%
%ADD16ROUNDEDRECTD16*%
%ADD17R,1.3500X1.0000*%
%ADD18R,1.0200X1.9000*%
%ADD19R,1.0000X1.3500*%
%ADD20R,0.8508X0.8588*%
D14*
X530096Y474850D02*
D03*
Y469850D02*
D03*
Y464850D02*
D03*
Y459850D02*
D03*
X501204D02*
D03*
Y464850D02*
D03*
Y469850D02*
D03*
Y474850D02*
D03*
D15*
X515650Y467350D02*
D03*
D16*
X292710Y560320D02*
D03*
X273710D02*
D03*
Y585220D02*
D03*
X283210D02*
D03*
X292710D02*
D03*
D17*
X252730Y560180D02*
D03*
X351790Y476250D02*
D03*
X382270Y476360D02*
D03*
X273050Y524400D02*
D03*
X293370D02*
D03*
X351790Y458250D02*
D03*
X382270Y458360D02*
D03*
X273050Y542400D02*
D03*
X293370D02*
D03*
X294132Y478392D02*
D03*
X271780Y478790D02*
D03*
X558800Y457488D02*
D03*
X294132Y460392D02*
D03*
X271780Y460790D02*
D03*
X252730Y542180D02*
D03*
X461010Y472550D02*
D03*
Y454550D02*
D03*
X558800Y475488D02*
D03*
D18*
X668457Y533583D02*
D03*
X693857Y500583D02*
D03*
X617657Y533583D02*
D03*
X643057Y500583D02*
D03*
X592257D02*
D03*
X516057Y533583D02*
D03*
X566857D02*
D03*
X465257D02*
D03*
X439857Y500583D02*
D03*
X541457D02*
D03*
X490657D02*
D03*
X668457Y431983D02*
D03*
X693857Y398983D02*
D03*
X617657Y431983D02*
D03*
X643057Y398983D02*
D03*
X592257D02*
D03*
X566857Y431983D02*
D03*
X541457Y398983D02*
D03*
X516057Y431983D02*
D03*
X363657Y533583D02*
D03*
X389057Y500583D02*
D03*
X363657Y431983D02*
D03*
X338257Y500583D02*
D03*
Y398983D02*
D03*
X414457Y431983D02*
D03*
X389057Y398983D02*
D03*
X465257Y431983D02*
D03*
X490657Y398983D02*
D03*
X439857D02*
D03*
X414457Y533583D02*
D03*
D19*
X328930Y579120D02*
D03*
X232300Y524764D02*
D03*
X310930Y579120D02*
D03*
X328710Y557530D02*
D03*
X250300Y524764D02*
D03*
X346710Y557530D02*
D03*
D20*
X314198Y459082D02*
D03*
Y477670D02*
D03*
M02*
