G04*
G04 #@! TF.GenerationSoftware,Altium Limited,Altium Designer,26.5.0 (11)*
G04*
G04 Layer_Color=8388736*
G04 Board_Origin=25805118|26780118*
%FSLAX44Y44*%
%MOMM*%
G71*
G04*
G04 #@! TF.SameCoordinates,65A94B93-1730-4F76-93CD-A5B1C849D6C6*
G04*
G04*
G04 #@! TF.FilePolarity,Negative*
G04*
G01*
G75*
%ADD14R,0.9080X0.2548*%
%ADD15R,1.5500X1.5494*%
%ADD20R,0.8508X0.8588*%
G04:AMPARAMS|DCode=21|XSize=1.32mm|YSize=0.7mm|CornerRadius=0.2mm|HoleSize=0mm|Usage=FLASHONLY|Rotation=270.000|XOffset=0mm|YOffset=0mm|HoleType=Round|Shape=RoundedRectangle|*
%AMROUNDEDRECTD21*
21,1,1.3200,0.3000,0,0,270.0*
21,1,0.9200,0.7000,0,0,270.0*
1,1,0.4000,-0.1500,-0.4600*
1,1,0.4000,-0.1500,0.4600*
1,1,0.4000,0.1500,0.4600*
1,1,0.4000,0.1500,-0.4600*
%
%ADD21ROUNDEDRECTD21*%
%ADD22R,1.4500X1.1000*%
%ADD23R,1.1200X2.0000*%
%ADD24R,1.1000X1.4500*%
%ADD25O,1.0500X1.4000*%
%ADD26C,1.6240*%
%ADD27R,1.6240X1.6240*%
%ADD28C,1.9000*%
%ADD29R,1.9000X1.9000*%
%ADD30R,1.6240X1.6240*%
%ADD31C,6.6000*%
%ADD32C,0.7000*%
G36*
X769292Y128570D02*
X769312Y128320D01*
X769342Y128070D01*
X769392Y127820D01*
X769452Y127570D01*
X769522Y127320D01*
X769602Y127080D01*
X769702Y126850D01*
X769812Y126620D01*
X769932Y126390D01*
X770072Y126170D01*
X770212Y125960D01*
X770372Y125760D01*
X770532Y125570D01*
X770712Y125380D01*
X770892Y125210D01*
X771092Y125040D01*
X771292Y124890D01*
X771502Y124740D01*
X771722Y124610D01*
X771942Y124490D01*
X772172Y124380D01*
X772412Y124280D01*
X772652Y124190D01*
X772892Y124120D01*
X773142Y124060D01*
X773392Y124020D01*
X773652Y123980D01*
X773902Y123960D01*
X774152D01*
X774157Y123955D01*
X781912Y123960D01*
X782162D01*
X782412Y123980D01*
X782672Y124020D01*
X782922Y124060D01*
X783172Y124120D01*
X783412Y124190D01*
X783652Y124280D01*
X783892Y124380D01*
X784122Y124490D01*
X784342Y124610D01*
X784562Y124740D01*
X784772Y124890D01*
X784972Y125040D01*
X785172Y125210D01*
X785352Y125380D01*
X785532Y125570D01*
X785692Y125760D01*
X785852Y125960D01*
X785992Y126170D01*
X786132Y126390D01*
X786252Y126620D01*
X786362Y126850D01*
X786462Y127080D01*
X786542Y127320D01*
X786612Y127570D01*
X786672Y127820D01*
X786722Y128070D01*
X786752Y128320D01*
X786772Y128570D01*
X786782Y128830D01*
X786772Y129090D01*
X786752Y129340D01*
X786722Y129590D01*
X786672Y129840D01*
X786612Y130090D01*
X786542Y130340D01*
X786462Y130580D01*
X786362Y130810D01*
X786252Y131040D01*
X786132Y131270D01*
X785992Y131490D01*
X785852Y131700D01*
X785692Y131900D01*
X785532Y132090D01*
X785352Y132280D01*
X785172Y132450D01*
X784972Y132620D01*
X784772Y132770D01*
X784562Y132920D01*
X784342Y133050D01*
X784122Y133170D01*
X783892Y133280D01*
X783652Y133380D01*
X783412Y133470D01*
X783172Y133540D01*
X782922Y133600D01*
X782672Y133640D01*
X782412Y133680D01*
X782162Y133700D01*
X781912D01*
X774152D01*
X773902D01*
X773652Y133680D01*
X773392Y133640D01*
X773142Y133600D01*
X772892Y133540D01*
X772652Y133470D01*
X772412Y133380D01*
X772172Y133280D01*
X771942Y133170D01*
X771722Y133050D01*
X771502Y132920D01*
X771292Y132770D01*
X771092Y132620D01*
X770892Y132450D01*
X770712Y132280D01*
X770532Y132090D01*
X770372Y131900D01*
X770212Y131700D01*
X770072Y131490D01*
X769932Y131270D01*
X769812Y131040D01*
X769702Y130810D01*
X769602Y130580D01*
X769522Y130340D01*
X769452Y130090D01*
X769392Y129840D01*
X769342Y129590D01*
X769312Y129340D01*
X769292Y129090D01*
X769282Y128830D01*
X769292Y128570D01*
D02*
G37*
G36*
Y198570D02*
X769312Y198320D01*
X769342Y198070D01*
X769392Y197820D01*
X769452Y197570D01*
X769522Y197320D01*
X769602Y197080D01*
X769702Y196850D01*
X769812Y196620D01*
X769932Y196390D01*
X770072Y196170D01*
X770212Y195960D01*
X770372Y195760D01*
X770532Y195570D01*
X770712Y195380D01*
X770892Y195210D01*
X771092Y195040D01*
X771292Y194890D01*
X771502Y194740D01*
X771722Y194610D01*
X771942Y194490D01*
X772172Y194380D01*
X772412Y194280D01*
X772652Y194190D01*
X772892Y194120D01*
X773142Y194060D01*
X773392Y194020D01*
X773652Y193980D01*
X773902Y193960D01*
X774152D01*
X774157Y193955D01*
X781912Y193960D01*
X782162D01*
X782412Y193980D01*
X782672Y194020D01*
X782922Y194060D01*
X783172Y194120D01*
X783412Y194190D01*
X783652Y194280D01*
X783892Y194380D01*
X784122Y194490D01*
X784342Y194610D01*
X784562Y194740D01*
X784772Y194890D01*
X784972Y195040D01*
X785172Y195210D01*
X785352Y195380D01*
X785532Y195570D01*
X785692Y195760D01*
X785852Y195960D01*
X785992Y196170D01*
X786132Y196390D01*
X786252Y196620D01*
X786362Y196850D01*
X786462Y197080D01*
X786542Y197320D01*
X786612Y197570D01*
X786672Y197820D01*
X786722Y198070D01*
X786752Y198320D01*
X786772Y198570D01*
X786782Y198830D01*
X786772Y199090D01*
X786752Y199340D01*
X786722Y199590D01*
X786672Y199840D01*
X786612Y200090D01*
X786542Y200340D01*
X786462Y200580D01*
X786362Y200810D01*
X786252Y201040D01*
X786132Y201270D01*
X785992Y201490D01*
X785852Y201700D01*
X785692Y201900D01*
X785532Y202090D01*
X785352Y202280D01*
X785172Y202450D01*
X784972Y202620D01*
X784772Y202770D01*
X784562Y202920D01*
X784342Y203050D01*
X784122Y203170D01*
X783892Y203280D01*
X783652Y203380D01*
X783412Y203470D01*
X783172Y203540D01*
X782922Y203600D01*
X782672Y203640D01*
X782412Y203680D01*
X782162Y203700D01*
X781912D01*
X774152D01*
X773902D01*
X773652Y203680D01*
X773392Y203640D01*
X773142Y203600D01*
X772892Y203540D01*
X772652Y203470D01*
X772412Y203380D01*
X772172Y203280D01*
X771942Y203170D01*
X771722Y203050D01*
X771502Y202920D01*
X771292Y202770D01*
X771092Y202620D01*
X770892Y202450D01*
X770712Y202280D01*
X770532Y202090D01*
X770372Y201900D01*
X770212Y201700D01*
X770072Y201490D01*
X769932Y201270D01*
X769812Y201040D01*
X769702Y200810D01*
X769602Y200580D01*
X769522Y200340D01*
X769452Y200090D01*
X769392Y199840D01*
X769342Y199590D01*
X769312Y199340D01*
X769292Y199090D01*
X769282Y198830D01*
X769292Y198570D01*
D02*
G37*
D14*
X530096Y474850D02*
D03*
Y469850D02*
D03*
Y464850D02*
D03*
Y459850D02*
D03*
X501204D02*
D03*
Y464850D02*
D03*
Y469850D02*
D03*
Y474850D02*
D03*
D15*
X515650Y467350D02*
D03*
D20*
X314198Y459082D02*
D03*
Y477670D02*
D03*
D21*
X292710Y560320D02*
D03*
X273710D02*
D03*
Y585220D02*
D03*
X283210D02*
D03*
X292710D02*
D03*
D22*
X252730Y560180D02*
D03*
X351790Y476250D02*
D03*
X382270Y476360D02*
D03*
X273050Y524400D02*
D03*
X293370D02*
D03*
X351790Y458250D02*
D03*
X382270Y458360D02*
D03*
X273050Y542400D02*
D03*
X293370D02*
D03*
X294132Y478392D02*
D03*
X271780Y478790D02*
D03*
X558800Y457488D02*
D03*
X294132Y460392D02*
D03*
X271780Y460790D02*
D03*
X252730Y542180D02*
D03*
X461010Y472550D02*
D03*
Y454550D02*
D03*
X558800Y475488D02*
D03*
D23*
X668457Y533583D02*
D03*
X693857Y500583D02*
D03*
X617657Y533583D02*
D03*
X643057Y500583D02*
D03*
X592257D02*
D03*
X516057Y533583D02*
D03*
X566857D02*
D03*
X465257D02*
D03*
X439857Y500583D02*
D03*
X541457D02*
D03*
X490657D02*
D03*
X668457Y431983D02*
D03*
X693857Y398983D02*
D03*
X617657Y431983D02*
D03*
X643057Y398983D02*
D03*
X592257D02*
D03*
X566857Y431983D02*
D03*
X541457Y398983D02*
D03*
X516057Y431983D02*
D03*
X363657Y533583D02*
D03*
X389057Y500583D02*
D03*
X363657Y431983D02*
D03*
X338257Y500583D02*
D03*
Y398983D02*
D03*
X414457Y431983D02*
D03*
X389057Y398983D02*
D03*
X465257Y431983D02*
D03*
X490657Y398983D02*
D03*
X439857D02*
D03*
X414457Y533583D02*
D03*
D24*
X328930Y579120D02*
D03*
X232300Y524764D02*
D03*
X310930Y579120D02*
D03*
X328710Y557530D02*
D03*
X250300Y524764D02*
D03*
X346710Y557530D02*
D03*
D25*
X751032Y188830D02*
D03*
Y138830D02*
D03*
D26*
X547624Y185928D02*
D03*
X547370Y83820D02*
D03*
X208280Y32512D02*
D03*
X120650Y288290D02*
D03*
X117602Y343662D02*
D03*
X31496Y106680D02*
D03*
X605536Y186436D02*
D03*
Y161036D02*
D03*
Y135636D02*
D03*
Y110236D02*
D03*
Y84836D02*
D03*
X182880Y32512D02*
D03*
X157480D02*
D03*
X132080D02*
D03*
X106680D02*
D03*
X143002Y343662D02*
D03*
X168402D02*
D03*
X193802D02*
D03*
X219202D02*
D03*
X482600Y109220D02*
D03*
Y134620D02*
D03*
Y160020D02*
D03*
Y185420D02*
D03*
X31496Y55880D02*
D03*
Y81280D02*
D03*
X120650Y262890D02*
D03*
X547624Y160528D02*
D03*
X547370Y58420D02*
D03*
D27*
X605536Y59436D02*
D03*
X482600Y83820D02*
D03*
X31496Y30480D02*
D03*
X120650Y237490D02*
D03*
X547624Y135128D02*
D03*
X547370Y33020D02*
D03*
D28*
X51816Y701548D02*
D03*
Y625348D02*
D03*
X40640Y408940D02*
D03*
Y180340D02*
D03*
Y154940D02*
D03*
Y358140D02*
D03*
Y332740D02*
D03*
Y307340D02*
D03*
Y281940D02*
D03*
Y256540D02*
D03*
Y231140D02*
D03*
Y205740D02*
D03*
X77216Y676148D02*
D03*
D29*
Y650748D02*
D03*
X40640Y383540D02*
D03*
D30*
X81280Y32512D02*
D03*
X244602Y343662D02*
D03*
D31*
X750000Y50000D02*
D03*
X160000Y467350D02*
D03*
X750000Y685000D02*
D03*
D32*
X326644Y146558D02*
D03*
X94550Y579786D02*
D03*
Y539786D02*
D03*
X104550Y559786D02*
D03*
X294386Y716280D02*
D03*
X316738Y715772D02*
D03*
X765810Y99822D02*
D03*
X751586Y100076D02*
D03*
X683260Y83820D02*
D03*
X585216Y456946D02*
D03*
X573278Y457200D02*
D03*
X766064Y271018D02*
D03*
X258318Y461010D02*
D03*
X350520Y126746D02*
D03*
X329692Y270002D02*
D03*
X312928Y286512D02*
D03*
X184550Y259785D02*
D03*
Y299785D02*
D03*
X194550Y359786D02*
D03*
X204550Y299785D02*
D03*
X214550Y399786D02*
D03*
Y439786D02*
D03*
Y479786D02*
D03*
X224550Y219785D02*
D03*
X234550Y399786D02*
D03*
X224550Y419786D02*
D03*
X234550Y439786D02*
D03*
X224550Y579786D02*
D03*
X244550D02*
D03*
X274550Y399786D02*
D03*
Y439786D02*
D03*
X264550Y499786D02*
D03*
Y579786D02*
D03*
X294550Y399786D02*
D03*
Y439786D02*
D03*
X284550Y499786D02*
D03*
X314550Y399786D02*
D03*
Y439786D02*
D03*
X304550Y499786D02*
D03*
X314550Y559786D02*
D03*
X334551Y439786D02*
D03*
X324551Y539786D02*
D03*
X344551D02*
D03*
X364551Y499786D02*
D03*
X374551Y559786D02*
D03*
X384551Y539786D02*
D03*
X404551Y459786D02*
D03*
X414551Y479786D02*
D03*
X424551Y459786D02*
D03*
X454551Y399786D02*
D03*
X444551Y419786D02*
D03*
Y539786D02*
D03*
X464551Y379786D02*
D03*
X474551Y399786D02*
D03*
X464551Y499786D02*
D03*
X484551Y379786D02*
D03*
Y419786D02*
D03*
Y539786D02*
D03*
X504551Y379786D02*
D03*
X514551Y399786D02*
D03*
X524551Y379786D02*
D03*
X544551Y539786D02*
D03*
X564551Y379786D02*
D03*
Y499786D02*
D03*
X614551Y399786D02*
D03*
X624551Y379786D02*
D03*
Y459786D02*
D03*
Y499786D02*
D03*
X644551Y459786D02*
D03*
Y539786D02*
D03*
X664551Y379786D02*
D03*
X674551Y399786D02*
D03*
X664551Y459786D02*
D03*
X674551Y479786D02*
D03*
X664551Y499786D02*
D03*
X694551Y439786D02*
D03*
X684551Y459786D02*
D03*
X714551Y399786D02*
D03*
Y439786D02*
D03*
X704551Y459786D02*
D03*
X714551Y479786D02*
D03*
Y519786D02*
D03*
X704551Y539786D02*
D03*
X724551Y379786D02*
D03*
X734551Y399786D02*
D03*
X724551Y419786D02*
D03*
X734551Y439786D02*
D03*
X724551Y459786D02*
D03*
X734551Y479786D02*
D03*
X724551Y499786D02*
D03*
X734551Y519786D02*
D03*
X724551Y539786D02*
D03*
X744551Y379786D02*
D03*
X754551Y399786D02*
D03*
X744551Y419786D02*
D03*
X754551Y439786D02*
D03*
X744551Y459786D02*
D03*
X754551Y479786D02*
D03*
X744551Y499786D02*
D03*
X754551Y519786D02*
D03*
X744551Y539786D02*
D03*
X764551Y379786D02*
D03*
X774551Y399786D02*
D03*
X764551Y419786D02*
D03*
X774551Y439786D02*
D03*
X764551Y459786D02*
D03*
X774551Y479786D02*
D03*
X764551Y499786D02*
D03*
X774551Y519786D02*
D03*
X764551Y539786D02*
D03*
X784551Y379786D02*
D03*
Y419786D02*
D03*
Y459786D02*
D03*
Y499786D02*
D03*
Y539786D02*
D03*
X244550Y379786D02*
D03*
X169672Y610870D02*
D03*
X178054Y620522D02*
D03*
X294386Y490220D02*
D03*
X271780Y490728D02*
D03*
X375158Y399034D02*
D03*
X400050D02*
D03*
X409956D02*
D03*
X644906Y212090D02*
D03*
X644550Y119785D02*
D03*
X205232Y665226D02*
D03*
X694550Y719785D02*
D03*
X594550D02*
D03*
X644550D02*
D03*
X619550Y669785D02*
D03*
X569550D02*
D03*
X669550Y269785D02*
D03*
X515620Y482092D02*
D03*
X369550Y669785D02*
D03*
X419550D02*
D03*
X515620Y453136D02*
D03*
X657026Y207997D02*
D03*
X656112Y226314D02*
D03*
X674878Y169418D02*
D03*
X657352Y169926D02*
D03*
X675640Y152908D02*
D03*
X657606D02*
D03*
X694550Y114880D02*
D03*
X424180Y175514D02*
D03*
Y74676D02*
D03*
X407924Y175514D02*
D03*
X386080Y89408D02*
D03*
X205232Y676910D02*
D03*
X238571Y460945D02*
D03*
X194550Y419785D02*
D03*
X144550Y619785D02*
D03*
X94550D02*
D03*
X128778Y403098D02*
D03*
X269550Y269785D02*
D03*
X169550Y369785D02*
D03*
X142240Y388366D02*
D03*
X192278Y148082D02*
D03*
X100076Y268478D02*
D03*
X90932Y246888D02*
D03*
X69550Y369785D02*
D03*
X90678Y187960D02*
D03*
X129032Y85598D02*
D03*
X117348Y63754D02*
D03*
X97790Y153670D02*
D03*
X627380Y20502D02*
D03*
X347980Y24130D02*
D03*
X581914Y475234D02*
D03*
X573532Y475488D02*
D03*
X437134Y472440D02*
D03*
X447040D02*
D03*
X213360Y145034D02*
D03*
X196088Y177038D02*
D03*
X180340Y177546D02*
D03*
X83621Y80010D02*
D03*
X370332Y29924D02*
D03*
X766064Y260858D02*
D03*
X738632Y176784D02*
D03*
X729996Y176530D02*
D03*
X700024Y185928D02*
D03*
X690372Y239522D02*
D03*
Y249428D02*
D03*
X690880Y185674D02*
D03*
X683514Y72390D02*
D03*
X112776Y195834D02*
D03*
Y186182D02*
D03*
X346710Y158750D02*
D03*
X248920Y497490D02*
D03*
X98298Y432054D02*
D03*
X165608Y112522D02*
D03*
X702818Y120904D02*
D03*
X476241Y478795D02*
D03*
X316484Y97028D02*
D03*
X508762Y204724D02*
D03*
X320548Y134366D02*
D03*
X451612Y90678D02*
D03*
X532384Y114046D02*
D03*
X328930Y116840D02*
D03*
X173736Y105664D02*
D03*
X414020Y210058D02*
D03*
X96774Y390398D02*
D03*
X113284Y373126D02*
D03*
X424434Y157988D02*
D03*
X407162Y158242D02*
D03*
X398018Y219456D02*
D03*
X350012Y88392D02*
D03*
X261366Y35814D02*
D03*
X241046Y36068D02*
D03*
X339344Y99314D02*
D03*
X337820Y166370D02*
D03*
X182880Y98806D02*
D03*
X430530Y447040D02*
D03*
X476240Y466108D02*
D03*
X300990Y87575D02*
D03*
X521970Y213614D02*
D03*
X661670Y82296D02*
D03*
M02*
