G04*
G04 #@! TF.GenerationSoftware,Altium Limited,Altium Designer,26.5.0 (11)*
G04*
G04 Layer_Color=32896*
G04 Board_Origin=25805118|26780118*
%FSLAX44Y44*%
%MOMM*%
G71*
G04*
G04 #@! TF.SameCoordinates,2D23E983-437A-4A9F-BEFF-0BAD31C0BB0C*
G04*
G04*
G04 #@! TF.FilePolarity,Positive*
G04*
G01*
G75*
%ADD10C,0.2000*%
%ADD11C,0.1524*%
%ADD12C,0.1270*%
%ADD13C,0.1000*%
%ADD36C,0.2540*%
D10*
X745532Y182330D02*
G03*
X745532Y182330I-1000J0D01*
G01*
X658546Y53492D02*
G03*
X658546Y53492I-1000J0D01*
G01*
X324030Y209550D02*
G03*
X324030Y209550I-1000J0D01*
G01*
X157210Y148882D02*
G03*
X157210Y148882I-1000J0D01*
G01*
X717954Y254518D02*
G03*
X717954Y254518I-1000J0D01*
G01*
X217504Y67036D02*
G03*
X217504Y67036I-1000J0D01*
G01*
X133060Y93140D02*
G03*
X133060Y93140I-1000J0D01*
G01*
X23720Y535204D02*
G03*
X23720Y535204I-1000J0D01*
G01*
X634908Y203326D02*
Y205326D01*
X623408Y203326D02*
Y205326D01*
X638394Y60104D02*
Y62104D01*
X649894Y60104D02*
Y62104D01*
X190338Y621300D02*
Y623300D01*
X201838Y621300D02*
Y623300D01*
X193202Y685308D02*
Y687308D01*
X181702Y685308D02*
Y687308D01*
X170850Y684546D02*
Y686546D01*
X159350Y684546D02*
Y686546D01*
X120304Y502318D02*
Y504318D01*
X108804Y502318D02*
Y504318D01*
X112684Y587264D02*
Y589264D01*
X101184Y587264D02*
Y589264D01*
X133004Y587408D02*
Y589408D01*
X121504Y587408D02*
Y589408D01*
X152816Y587264D02*
Y589264D01*
X141316Y587264D02*
Y589264D01*
X98460Y502428D02*
Y504428D01*
X86960Y502428D02*
Y504428D01*
X322488Y693436D02*
Y695436D01*
X310988Y693436D02*
Y695436D01*
X281778Y241570D02*
Y243570D01*
X293278Y241570D02*
Y243570D01*
X301844Y241570D02*
Y243570D01*
X313344Y241570D02*
Y243570D01*
X139954Y57631D02*
X141954D01*
X139954Y69131D02*
X141954D01*
X398034Y140624D02*
X400034D01*
X398034Y129124D02*
X400034D01*
X411750Y97952D02*
X413750D01*
X411750Y86452D02*
X413750D01*
X269256Y28102D02*
X271256D01*
X269256Y16602D02*
X271256D01*
X269510Y54010D02*
X271510D01*
X269510Y42510D02*
X271510D01*
X397272Y75854D02*
X399272D01*
X397272Y64354D02*
X399272D01*
X384648Y165624D02*
Y167624D01*
X396148Y165624D02*
Y167624D01*
X238922Y166242D02*
Y168242D01*
X227422Y166242D02*
Y168242D01*
X338090Y213960D02*
X340090D01*
X338090Y225460D02*
X340090D01*
X337980Y234280D02*
X339980D01*
X337980Y245780D02*
X339980D01*
X121428Y147920D02*
X123428D01*
X121428Y159420D02*
X123428D01*
X725078Y200930D02*
Y202930D01*
X713578Y200930D02*
Y202930D01*
X208296Y512156D02*
X210296D01*
X208296Y523656D02*
X210296D01*
X129810Y639480D02*
X131810D01*
X129810Y627980D02*
X131810D01*
X73566Y95920D02*
X75566D01*
X73566Y84420D02*
X75566D01*
X73676Y75600D02*
X75676D01*
X73676Y64100D02*
X75676D01*
X120920Y168240D02*
X122920D01*
X120920Y179740D02*
X122920D01*
X168240Y151654D02*
Y153654D01*
X179740Y151654D02*
Y153654D01*
X323250Y23240D02*
Y25240D01*
X311750Y23240D02*
Y25240D01*
X291430Y24290D02*
Y26290D01*
X302930Y24290D02*
Y26290D01*
X86706Y468392D02*
Y470392D01*
X98206Y468392D02*
Y470392D01*
X301660Y693436D02*
Y695436D01*
X290160Y693436D02*
Y695436D01*
X201076Y587772D02*
Y589772D01*
X189576Y587772D02*
Y589772D01*
X774208Y226730D02*
X776208D01*
X774208Y215230D02*
X776208D01*
X773446Y248828D02*
X775446D01*
X773446Y237328D02*
X775446D01*
X90332Y432214D02*
Y434214D01*
X78832Y432214D02*
Y434214D01*
X148174Y268638D02*
Y270638D01*
X159674Y268638D02*
Y270638D01*
X49876Y27338D02*
Y29338D01*
X61376Y27338D02*
Y29338D01*
X726964Y105826D02*
X728964D01*
X726964Y94326D02*
X728964D01*
X635524Y236128D02*
X637524D01*
X635524Y224628D02*
X637524D01*
X660416Y37754D02*
X662416D01*
X660416Y26254D02*
X662416D01*
X695214Y37754D02*
X697214D01*
X695214Y26254D02*
X697214D01*
X592836Y46736D02*
Y199136D01*
X618236Y46736D02*
Y199136D01*
X592836D02*
X618236D01*
X592836Y46736D02*
X618236D01*
X68580Y45212D02*
X220980D01*
X68580Y19812D02*
X220980D01*
Y45212D01*
X68580Y19812D02*
Y45212D01*
X104902Y330962D02*
X257302D01*
X104902Y356362D02*
X257302D01*
X104902Y330962D02*
Y356362D01*
X257302Y330962D02*
Y356362D01*
X469900Y71120D02*
X495300D01*
X469900Y198120D02*
X495300D01*
Y71120D02*
Y198120D01*
X469900Y71120D02*
Y198120D01*
X18796Y17780D02*
X44196D01*
X18796Y119380D02*
X44196D01*
Y17780D02*
Y119380D01*
X18796Y17780D02*
Y119380D01*
X107950Y224790D02*
X133350D01*
X107950Y300990D02*
X133350D01*
Y224790D02*
Y300990D01*
X107950Y224790D02*
Y300990D01*
X534924Y122428D02*
X560324D01*
X534924Y198628D02*
X560324D01*
Y122428D02*
Y198628D01*
X534924Y122428D02*
Y198628D01*
X534670Y20320D02*
X560070D01*
X534670Y96520D02*
X560070D01*
Y20320D02*
Y96520D01*
X534670Y20320D02*
Y96520D01*
D11*
X217944Y709790D02*
G03*
X217944Y709790I-1270J0D01*
G01*
X377952Y245596D02*
G03*
X377952Y245596I-762J0D01*
G01*
X709836Y161446D02*
G03*
X709836Y161446I-1270J0D01*
G01*
X150528Y679812D02*
G03*
X150528Y679812I-762J0D01*
G01*
X662018Y96932D02*
G03*
X662018Y96932I-762J0D01*
G01*
X214503Y649605D02*
Y688975D01*
Y649605D02*
X283845D01*
Y688975D01*
X214503D02*
X283845D01*
X174625Y641616D02*
Y652228D01*
X156083Y641616D02*
Y652228D01*
X683671Y255778D02*
X703737D01*
X683671Y222758D02*
X703737D01*
X371920Y226514D02*
Y230177D01*
X382460Y226514D02*
Y230177D01*
X702056Y131191D02*
X712191D01*
X702056D02*
Y147701D01*
X724941Y131191D02*
X735076D01*
Y147701D01*
X715416D02*
X721716D01*
X136271Y667537D02*
Y673087D01*
X119761Y654056D02*
X136271D01*
X119761D02*
Y663937D01*
Y686568D02*
X136271D01*
X119761Y676687D02*
Y686568D01*
X674751Y103657D02*
Y109207D01*
Y122688D02*
X691261D01*
Y112807D02*
Y122688D01*
X674751Y90176D02*
X691261D01*
Y100057D01*
X93472Y565658D02*
Y578358D01*
X85852D02*
X93472Y572008D01*
X85852Y577088D02*
X93472Y572008D01*
X85852Y575818D02*
X93472Y572008D01*
X85852Y574548D02*
X93472Y572008D01*
X85852Y573278D02*
X93472Y572008D01*
X85852Y565658D02*
X93472Y572008D01*
X85852Y566928D02*
X93472Y572008D01*
X85852Y568198D02*
X93472Y572008D01*
X85852Y569468D02*
X93472Y572008D01*
X85852Y570738D02*
X93472Y572008D01*
X85852Y565658D02*
Y578358D01*
X26162Y587883D02*
X74422D01*
X26162Y556133D02*
X74422D01*
X83591Y572008D02*
X96012D01*
D12*
X267420Y184730D02*
G03*
X267420Y184730I-1000J0D01*
G01*
X267834Y183730D02*
G03*
X267834Y183730I-1414J0D01*
G01*
X267420D02*
G03*
X267420Y183730I-1000J0D01*
G01*
X267834D02*
G03*
X267834Y183730I-1414J0D01*
G01*
X268656D02*
G03*
X268656Y183730I-2236J0D01*
G01*
X269248D02*
G03*
X269248Y183730I-2828J0D01*
G01*
X281420Y159730D02*
G03*
X281420Y159730I-1000J0D01*
G01*
X282656Y158730D02*
G03*
X282656Y158730I-2236J0D01*
G01*
X281834D02*
G03*
X281834Y158730I-1414J0D01*
G01*
X284025D02*
G03*
X284025Y158730I-3605J0D01*
G01*
X283248D02*
G03*
X283248Y158730I-2828J0D01*
G01*
X284663D02*
G03*
X284663Y158730I-4243J0D01*
G01*
X285420D02*
G03*
X285420Y158730I-5000J0D01*
G01*
X286077D02*
G03*
X286077Y158730I-5657J0D01*
G01*
X286251D02*
G03*
X286251Y158730I-5831J0D01*
G01*
X789032Y126830D02*
X792532D01*
X789032Y200830D02*
X792532D01*
X749532Y126830D02*
Y129130D01*
Y198530D02*
Y200830D01*
Y126830D02*
X767032D01*
X749532Y200830D02*
X767032D01*
X679196Y48492D02*
X685696D01*
Y69192D02*
Y77492D01*
Y48492D02*
Y56792D01*
X679296Y77492D02*
X685696D01*
X640510Y186798D02*
X646510D01*
X640510Y180798D02*
Y186798D01*
Y136798D02*
Y142798D01*
Y136798D02*
X646510D01*
X684510D02*
X690510D01*
Y142798D01*
Y180798D02*
Y186798D01*
X684510D02*
X690510D01*
X151710Y168032D02*
Y169732D01*
X160710Y168032D02*
Y169732D01*
X11840Y419140D02*
X28440D01*
X11840Y144740D02*
X28440D01*
X11840D02*
Y419140D01*
X52840D02*
X60340D01*
X52840Y144740D02*
X60340D01*
Y419140D01*
X9416Y615148D02*
X39416D01*
X64416D02*
X80416D01*
Y638548D01*
Y688348D02*
Y711748D01*
X64416D02*
X80416D01*
X9416D02*
X39416D01*
X9416Y615148D02*
Y711748D01*
X175754Y53286D02*
X205754D01*
X175754Y78286D02*
X205754D01*
X118310Y103890D02*
Y133890D01*
X143310Y103890D02*
Y133890D01*
X266420Y171730D02*
X358420D01*
Y79730D02*
Y171730D01*
X266420Y79730D02*
X358420D01*
X266420D02*
Y171730D01*
X78220Y471704D02*
Y506704D01*
X65820Y471704D02*
X78220D01*
X13220D02*
Y506704D01*
Y471704D02*
X25620D01*
D13*
X645760Y190798D02*
G03*
X645760Y190798I-1000J0D01*
G01*
X16388Y722884D02*
G03*
X16388Y722884I-5212J0D01*
G01*
X16642Y604520D02*
G03*
X16642Y604520I-5212J0D01*
G01*
X8382Y424180D02*
X71882D01*
X8382Y436118D02*
X71882D01*
Y424180D02*
Y436118D01*
X8382Y424180D02*
Y436118D01*
X530860Y29210D02*
Y86868D01*
X519176Y29210D02*
Y86868D01*
X530860D01*
X519176Y29210D02*
X530860D01*
X226568Y22098D02*
Y43434D01*
X238506Y22098D02*
Y43434D01*
X226568Y22098D02*
X238506D01*
X226568Y43434D02*
X238506D01*
X99266Y328930D02*
Y357727D01*
X87328Y328930D02*
Y357727D01*
X99266D01*
X87328Y328930D02*
X99266D01*
X651256Y7366D02*
X716788D01*
X651256Y19050D02*
X716788D01*
Y7366D02*
Y19050D01*
X651256Y7366D02*
Y19050D01*
X164829Y184482D02*
X187689D01*
X164829Y196420D02*
X187689D01*
Y184482D02*
Y196420D01*
X164829Y184482D02*
Y196420D01*
X112014Y100330D02*
Y139954D01*
X100076Y100330D02*
Y139954D01*
X112014D01*
X100076Y100330D02*
X112014D01*
X464312Y109728D02*
Y158750D01*
X452374Y109728D02*
Y158750D01*
X464312D01*
X452374Y109728D02*
X464312D01*
X595630Y203200D02*
X614934D01*
X595630Y214884D02*
X614934D01*
Y203200D02*
Y214884D01*
X595630Y203200D02*
Y214884D01*
X21082Y124460D02*
X42418D01*
X21082Y136398D02*
X42418D01*
Y124460D02*
Y136398D01*
X21082Y124460D02*
Y136398D01*
X532130Y202946D02*
X562864D01*
X532130Y214884D02*
X562864D01*
Y202946D02*
Y214884D01*
X532130Y202946D02*
Y214884D01*
X102108Y245364D02*
Y280416D01*
X90170Y245364D02*
Y280416D01*
X102108D01*
X90170Y245364D02*
X102108D01*
X19304Y716280D02*
X94234D01*
X19304Y728218D02*
X94234D01*
Y716280D02*
Y728218D01*
X19304Y716280D02*
Y728218D01*
X124206Y545846D02*
X127000Y543052D01*
Y449389D02*
Y543052D01*
X11430Y545846D02*
X124206D01*
X9398Y543814D02*
X11430Y545846D01*
X127000Y407924D02*
Y449389D01*
X235204Y618744D02*
X325374D01*
X327406Y620776D01*
Y725678D01*
X213106Y618744D02*
X235204D01*
X211074Y616712D02*
X213106Y618744D01*
X211074Y559816D02*
Y616712D01*
X98298Y620522D02*
Y725932D01*
Y620522D02*
X101092Y617728D01*
X156718D01*
X158750Y615696D01*
Y560070D02*
Y615696D01*
X161036Y557784D02*
X209042D01*
X158750Y560070D02*
X161036Y557784D01*
X209042D02*
X211074Y559816D01*
X325120Y727964D02*
X327406Y725678D01*
X100330Y727964D02*
X325120D01*
X98298Y725932D02*
X100330Y727964D01*
X9398Y443738D02*
X11938Y441198D01*
X9398Y443738D02*
Y543814D01*
X11938Y441198D02*
X71882D01*
X74422Y438658D01*
Y406908D02*
Y438658D01*
Y406908D02*
X77724Y403606D01*
X122682D02*
X127000Y407924D01*
X77724Y403606D02*
X122682D01*
X155101Y700546D02*
Y704545D01*
X153101Y702545D02*
X157100D01*
X148352Y718550D02*
Y724548D01*
X145353D01*
X144353Y723548D01*
Y721549D01*
X145353Y720549D01*
X148352D01*
X146353D02*
X144353Y718550D01*
X138355Y724548D02*
X142354D01*
Y718550D01*
X138355D01*
X142354Y721549D02*
X140355D01*
X132357Y723548D02*
X133357Y724548D01*
X135356D01*
X136356Y723548D01*
Y719550D01*
X135356Y718550D01*
X133357D01*
X132357Y719550D01*
Y721549D01*
X134356D01*
X124360Y724548D02*
Y720549D01*
X122360Y718550D01*
X120361Y720549D01*
Y724548D01*
X118362D02*
X114363D01*
X116362D01*
Y718550D01*
X108365Y723548D02*
X109365Y724548D01*
X111364D01*
X112364Y723548D01*
Y719550D01*
X111364Y718550D01*
X109365D01*
X108365Y719550D01*
X106366Y724548D02*
Y718550D01*
X103367D01*
X102367Y719550D01*
Y723548D01*
X103367Y724548D01*
X106366D01*
X114062Y536178D02*
Y542176D01*
X111063D01*
X110063Y541176D01*
Y539177D01*
X111063Y538177D01*
X114062D01*
X112063D02*
X110063Y536178D01*
X104065Y542176D02*
X108064D01*
Y536178D01*
X104065D01*
X108064Y539177D02*
X106065D01*
X98067Y541176D02*
X99067Y542176D01*
X101066D01*
X102066Y541176D01*
Y537178D01*
X101066Y536178D01*
X99067D01*
X98067Y537178D01*
Y539177D01*
X100066D01*
X90070Y542176D02*
Y538177D01*
X88070Y536178D01*
X86071Y538177D01*
Y542176D01*
X84072D02*
Y536178D01*
X81073D01*
X80073Y537178D01*
Y541176D01*
X81073Y542176D01*
X84072D01*
X78074D02*
Y536178D01*
X75075D01*
X74075Y537178D01*
Y541176D01*
X75075Y542176D01*
X78074D01*
X102491Y446034D02*
Y450033D01*
X100491Y448033D02*
X104490D01*
X165483Y601990D02*
Y605989D01*
X163483Y603989D02*
X167482D01*
X11479Y724678D02*
Y720679D01*
X9479Y722679D02*
X13478D01*
X91710Y719312D02*
Y725310D01*
X88711D01*
X87711Y724310D01*
Y722311D01*
X88711Y721311D01*
X91710D01*
X82713Y725310D02*
X84712D01*
X85712Y724310D01*
Y720312D01*
X84712Y719312D01*
X82713D01*
X81713Y720312D01*
Y724310D01*
X82713Y725310D01*
X79714D02*
Y719312D01*
X77715Y721311D01*
X75715Y719312D01*
Y725310D01*
X69717D02*
X73716D01*
Y719312D01*
X69717D01*
X73716Y722311D02*
X71716D01*
X67718Y719312D02*
Y725310D01*
X64719D01*
X63719Y724310D01*
Y722311D01*
X64719Y721311D01*
X67718D01*
X65718D02*
X63719Y719312D01*
X51723Y724310D02*
X52723Y725310D01*
X54722D01*
X55722Y724310D01*
Y723311D01*
X54722Y722311D01*
X52723D01*
X51723Y721311D01*
Y720312D01*
X52723Y719312D01*
X54722D01*
X55722Y720312D01*
X49724Y725310D02*
Y720312D01*
X48724Y719312D01*
X46725D01*
X45725Y720312D01*
Y725310D01*
X43726Y719312D02*
Y725310D01*
X40726D01*
X39727Y724310D01*
Y722311D01*
X40726Y721311D01*
X43726D01*
X37727Y719312D02*
Y725310D01*
X34729D01*
X33729Y724310D01*
Y722311D01*
X34729Y721311D01*
X37727D01*
X31729Y725310D02*
Y719312D01*
X27731D01*
X25731Y725310D02*
Y724310D01*
X23732Y722311D01*
X21733Y724310D01*
Y725310D01*
X23732Y722311D02*
Y719312D01*
X11446Y606568D02*
Y602569D01*
X714264Y16650D02*
Y11652D01*
X713264Y10652D01*
X711265D01*
X710265Y11652D01*
Y16650D01*
X704267Y15650D02*
X705267Y16650D01*
X707266D01*
X708266Y15650D01*
Y14651D01*
X707266Y13651D01*
X705267D01*
X704267Y12651D01*
Y11652D01*
X705267Y10652D01*
X707266D01*
X708266Y11652D01*
X702268Y16650D02*
Y10652D01*
X699269D01*
X698269Y11652D01*
Y12651D01*
X699269Y13651D01*
X702268D01*
X699269D01*
X698269Y14651D01*
Y15650D01*
X699269Y16650D01*
X702268D01*
X688272Y10652D02*
X690272Y12651D01*
Y14651D01*
X688272Y16650D01*
X685273D02*
Y11652D01*
X684274Y10652D01*
X682274D01*
X681275Y11652D01*
Y16650D01*
X679275Y10652D02*
Y14651D01*
X677276Y16650D01*
X675277Y14651D01*
Y10652D01*
Y13651D01*
X679275D01*
X673277Y10652D02*
Y16650D01*
X670278D01*
X669279Y15650D01*
Y13651D01*
X670278Y12651D01*
X673277D01*
X671278D02*
X669279Y10652D01*
X667279Y16650D02*
X663280D01*
X665280D01*
Y10652D01*
X661281D02*
X659282D01*
X660282D01*
Y16650D01*
X661281Y15650D01*
X656283Y10652D02*
X654284Y12651D01*
Y14651D01*
X656283Y16650D01*
X89982Y354441D02*
Y350443D01*
Y352442D01*
X95980D01*
X89982Y344444D02*
Y348443D01*
X95980D01*
Y344444D01*
X92981Y348443D02*
Y346444D01*
X90981Y338446D02*
X89982Y339446D01*
Y341445D01*
X90981Y342445D01*
X91981D01*
X92981Y341445D01*
Y339446D01*
X93980Y338446D01*
X94980D01*
X95980Y339446D01*
Y341445D01*
X94980Y342445D01*
X89982Y336447D02*
Y332448D01*
Y334448D01*
X95980D01*
X67408Y184739D02*
X66408Y185739D01*
Y187738D01*
X67408Y188738D01*
X71406D01*
X72406Y187738D01*
Y185739D01*
X71406Y184739D01*
X69407D01*
Y186739D01*
X72406Y182740D02*
X66408D01*
X72406Y178741D01*
X66408D01*
Y176742D02*
X72406D01*
Y173743D01*
X71406Y172743D01*
X67408D01*
X66408Y173743D01*
Y176742D01*
Y213630D02*
X70407D01*
X72406Y211631D01*
X70407Y209631D01*
X66408D01*
Y207632D02*
X72406D01*
Y204633D01*
X71406Y203633D01*
X67408D01*
X66408Y204633D01*
Y207632D01*
Y201634D02*
X72406D01*
Y198635D01*
X71406Y197635D01*
X67408D01*
X66408Y198635D01*
Y201634D01*
Y264241D02*
Y268240D01*
X72406D01*
Y264241D01*
X69407Y268240D02*
Y266241D01*
X72406Y262242D02*
X66408D01*
X72406Y258243D01*
X66408D01*
Y256244D02*
X72406D01*
Y253245D01*
X71406Y252245D01*
X70407D01*
X69407Y253245D01*
Y256244D01*
Y253245D01*
X68407Y252245D01*
X67408D01*
X66408Y253245D01*
Y256244D01*
X72406Y246247D02*
Y250246D01*
X68407Y246247D01*
X67408D01*
X66408Y247247D01*
Y249246D01*
X67408Y250246D01*
Y238079D02*
X66408Y239079D01*
Y241078D01*
X67408Y242078D01*
X68407D01*
X69407Y241078D01*
Y239079D01*
X70407Y238079D01*
X71406D01*
X72406Y239079D01*
Y241078D01*
X71406Y242078D01*
X66408Y236080D02*
X72406D01*
Y232081D01*
Y230082D02*
X66408D01*
Y227083D01*
X67408Y226083D01*
X69407D01*
X70407Y227083D01*
Y230082D01*
X72406Y220085D02*
Y224084D01*
X68407Y220085D01*
X67408D01*
X66408Y221085D01*
Y223084D01*
X67408Y224084D01*
X66408Y289576D02*
X72406D01*
Y286577D01*
X71406Y285577D01*
X67408D01*
X66408Y286577D01*
Y289576D01*
Y283578D02*
Y281579D01*
Y282578D01*
X72406D01*
Y283578D01*
Y281579D01*
Y278580D02*
X66408D01*
Y275581D01*
X67408Y274581D01*
X69407D01*
X70407Y275581D01*
Y278580D01*
Y276580D02*
X72406Y274581D01*
X67408Y314025D02*
X66408Y315025D01*
Y317024D01*
X67408Y318024D01*
X68407D01*
X69407Y317024D01*
Y315025D01*
X70407Y314025D01*
X71406D01*
X72406Y315025D01*
Y317024D01*
X71406Y318024D01*
X66408Y312026D02*
X72406D01*
Y308027D01*
Y306028D02*
X66408D01*
Y303029D01*
X67408Y302029D01*
X69407D01*
X70407Y303029D01*
Y306028D01*
X72406Y300030D02*
Y298030D01*
Y299030D01*
X66408D01*
X67408Y300030D01*
X66408Y339933D02*
Y343932D01*
X72406D01*
Y339933D01*
X69407Y343932D02*
Y341933D01*
X72406Y337934D02*
X66408D01*
X72406Y333935D01*
X66408D01*
Y331936D02*
X72406D01*
Y328937D01*
X71406Y327937D01*
X70407D01*
X69407Y328937D01*
Y331936D01*
Y328937D01*
X68407Y327937D01*
X67408D01*
X66408Y328937D01*
Y331936D01*
X72406Y325938D02*
Y323938D01*
Y324938D01*
X66408D01*
X67408Y325938D01*
Y365841D02*
X66408Y366841D01*
Y368840D01*
X67408Y369840D01*
X68407D01*
X69407Y368840D01*
Y366841D01*
X70407Y365841D01*
X71406D01*
X72406Y366841D01*
Y368840D01*
X71406Y369840D01*
X66408Y363842D02*
Y359843D01*
Y361843D01*
X72406D01*
X66408Y353845D02*
Y357844D01*
X72406D01*
Y353845D01*
X69407Y357844D02*
Y355844D01*
X72406Y351846D02*
X66408D01*
Y348847D01*
X67408Y347847D01*
X69407D01*
X70407Y348847D01*
Y351846D01*
X72406Y392192D02*
X66408D01*
Y389193D01*
X67408Y388193D01*
X69407D01*
X70407Y389193D01*
Y392192D01*
X66408Y386194D02*
X72406D01*
X70407Y384195D01*
X72406Y382195D01*
X66408D01*
X72406Y380196D02*
X66408D01*
X68407Y378196D01*
X66408Y376197D01*
X72406D01*
X69358Y433464D02*
X65359D01*
X67359D01*
Y427466D01*
X60361Y433464D02*
X62360D01*
X63360Y432464D01*
Y428466D01*
X62360Y427466D01*
X60361D01*
X59361Y428466D01*
Y432464D01*
X60361Y433464D01*
X51364D02*
Y427466D01*
X48365D01*
X47365Y428466D01*
Y429465D01*
X48365Y430465D01*
X51364D01*
X48365D01*
X47365Y431465D01*
Y432464D01*
X48365Y433464D01*
X51364D01*
X42367D02*
X44366D01*
X45366Y432464D01*
Y428466D01*
X44366Y427466D01*
X42367D01*
X41367Y428466D01*
Y432464D01*
X42367Y433464D01*
X39368Y427466D02*
Y431465D01*
X37368Y433464D01*
X35369Y431465D01*
Y427466D01*
Y430465D01*
X39368D01*
X33370Y427466D02*
Y433464D01*
X30371D01*
X29371Y432464D01*
Y430465D01*
X30371Y429465D01*
X33370D01*
X31370D02*
X29371Y427466D01*
X27372Y433464D02*
Y427466D01*
X24373D01*
X23373Y428466D01*
Y432464D01*
X24373Y433464D01*
X27372D01*
X15375D02*
Y427466D01*
X12377D01*
X11377Y428466D01*
Y429465D01*
X12377Y430465D01*
X15375D01*
X12377D01*
X11377Y431465D01*
Y432464D01*
X12377Y433464D01*
X15375D01*
X245191Y325022D02*
X246191Y326022D01*
X248190D01*
X249190Y325022D01*
Y324023D01*
X248190Y323023D01*
X246191D01*
X245191Y322023D01*
Y321024D01*
X246191Y320024D01*
X248190D01*
X249190Y321024D01*
X243192Y326022D02*
Y320024D01*
Y323023D01*
X239193D01*
Y326022D01*
Y320024D01*
X226330Y326022D02*
X224331D01*
X225330D01*
Y320024D01*
X226330D01*
X224331D01*
X217333Y325022D02*
X218333Y326022D01*
X220332D01*
X221332Y325022D01*
Y321024D01*
X220332Y320024D01*
X218333D01*
X217333Y321024D01*
X211335Y325022D02*
X212335Y326022D01*
X214334D01*
X215334Y325022D01*
Y321024D01*
X214334Y320024D01*
X212335D01*
X211335Y321024D01*
Y323023D01*
X213334D01*
X196153Y326022D02*
X198152D01*
X199152Y325022D01*
Y321024D01*
X198152Y320024D01*
X196153D01*
X195153Y321024D01*
Y325022D01*
X196153Y326022D01*
X189155Y325022D02*
X190155Y326022D01*
X192154D01*
X193154Y325022D01*
Y324023D01*
X192154Y323023D01*
X190155D01*
X189155Y322023D01*
Y321024D01*
X190155Y320024D01*
X192154D01*
X193154Y321024D01*
X172244Y320024D02*
Y325022D01*
Y323023D01*
X173244D01*
X171245D01*
X172244D01*
Y325022D01*
X171245Y326022D01*
X168246Y320024D02*
Y326022D01*
X166246Y324023D01*
X164247Y326022D01*
Y320024D01*
X150638Y326022D02*
Y322023D01*
X148639Y320024D01*
X146639Y322023D01*
Y326022D01*
X144640D02*
Y320024D01*
X141641D01*
X140641Y321024D01*
Y325022D01*
X141641Y326022D01*
X144640D01*
X138642D02*
Y320024D01*
X135643D01*
X134643Y321024D01*
Y325022D01*
X135643Y326022D01*
X138642D01*
X121747Y325022D02*
X122747Y326022D01*
X124746D01*
X125746Y325022D01*
Y321024D01*
X124746Y320024D01*
X122747D01*
X121747Y321024D01*
Y323023D01*
X123747D01*
X119748Y320024D02*
Y326022D01*
X115749Y320024D01*
Y326022D01*
X113750D02*
Y320024D01*
X110751D01*
X109751Y321024D01*
Y325022D01*
X110751Y326022D01*
X113750D01*
X139798Y290338D02*
X138798Y289338D01*
Y287339D01*
X139798Y286339D01*
X143796D01*
X144796Y287339D01*
Y289338D01*
X143796Y290338D01*
X139798D01*
X145050Y238776D02*
Y236777D01*
Y237776D01*
X139052D01*
X140052Y238776D01*
X145050Y273369D02*
X142051Y276368D01*
X139052Y273369D01*
X142051Y270370D02*
Y266371D01*
X139052Y264372D02*
X145050D01*
Y261373D01*
X144050Y260373D01*
X143051D01*
X142051Y261373D01*
Y264372D01*
Y261373D01*
X141051Y260373D01*
X140052D01*
X139052Y261373D01*
Y264372D01*
X142051Y258374D02*
Y254375D01*
X145050Y252376D02*
X142051Y249377D01*
X139052Y252376D01*
X92824Y277130D02*
X98822D01*
Y274131D01*
X97822Y273131D01*
X96823D01*
X95823Y274131D01*
Y277130D01*
Y274131D01*
X94823Y273131D01*
X93824D01*
X92824Y274131D01*
Y277130D01*
Y268133D02*
Y270132D01*
X93824Y271132D01*
X97822D01*
X98822Y270132D01*
Y268133D01*
X97822Y267133D01*
X93824D01*
X92824Y268133D01*
Y262135D02*
Y264134D01*
X93824Y265134D01*
X97822D01*
X98822Y264134D01*
Y262135D01*
X97822Y261135D01*
X93824D01*
X92824Y262135D01*
Y259136D02*
Y255137D01*
Y257136D01*
X98822D01*
X93824Y253138D02*
X92824Y252138D01*
Y250139D01*
X93824Y249139D01*
X97822D01*
X98822Y250139D01*
Y252138D01*
X97822Y253138D01*
X93824D01*
X183658Y193942D02*
Y187944D01*
X179659D01*
X173661Y193942D02*
X177660D01*
Y187944D01*
X173661D01*
X177660Y190943D02*
X175661D01*
X171662Y193942D02*
Y187944D01*
X168663D01*
X167663Y188944D01*
Y192942D01*
X168663Y193942D01*
X171662D01*
X102730Y136668D02*
X108728D01*
Y133669D01*
X107728Y132669D01*
X106729D01*
X105729Y133669D01*
Y136668D01*
Y133669D01*
X104729Y132669D01*
X103730D01*
X102730Y133669D01*
Y136668D01*
Y130670D02*
X107728D01*
X108728Y129670D01*
Y127671D01*
X107728Y126671D01*
X102730D01*
Y124672D02*
Y120673D01*
Y122673D01*
X108728D01*
X102730Y118674D02*
Y114675D01*
Y116674D01*
X108728D01*
X102730Y109677D02*
Y111676D01*
X103730Y112676D01*
X107728D01*
X108728Y111676D01*
Y109677D01*
X107728Y108677D01*
X103730D01*
X102730Y109677D01*
X108728Y106678D02*
X102730D01*
X108728Y102679D01*
X102730D01*
X8480Y34371D02*
X7480Y35371D01*
Y37370D01*
X8480Y38370D01*
X9479D01*
X10479Y37370D01*
Y35371D01*
X11479Y34371D01*
X12478D01*
X13478Y35371D01*
Y37370D01*
X12478Y38370D01*
X8480Y28373D02*
X7480Y29373D01*
Y31372D01*
X8480Y32372D01*
X12478D01*
X13478Y31372D01*
Y29373D01*
X12478Y28373D01*
X7480Y26374D02*
X13478D01*
Y22375D01*
X8480Y61041D02*
X7480Y62041D01*
Y64040D01*
X8480Y65040D01*
X9479D01*
X10479Y64040D01*
Y62041D01*
X11479Y61041D01*
X12478D01*
X13478Y62041D01*
Y64040D01*
X12478Y65040D01*
X7480Y59042D02*
X13478D01*
Y56043D01*
X12478Y55043D01*
X8480D01*
X7480Y56043D01*
Y59042D01*
X13478Y53044D02*
X9479D01*
X7480Y51045D01*
X9479Y49045D01*
X13478D01*
X10479D01*
Y53044D01*
X8480Y110317D02*
X7480Y111317D01*
Y113316D01*
X8480Y114316D01*
X12478D01*
X13478Y113316D01*
Y111317D01*
X12478Y110317D01*
X10479D01*
Y112317D01*
X13478Y108318D02*
X7480D01*
X13478Y104319D01*
X7480D01*
Y102320D02*
X13478D01*
Y99321D01*
X12478Y98321D01*
X8480D01*
X7480Y99321D01*
Y102320D01*
X7226Y89424D02*
X11225D01*
X13224Y87425D01*
X11225Y85425D01*
X7226D01*
Y83426D02*
X13224D01*
Y80427D01*
X12224Y79427D01*
X8226D01*
X7226Y80427D01*
Y83426D01*
Y77428D02*
X13224D01*
Y74429D01*
X12224Y73429D01*
X8226D01*
X7226Y74429D01*
Y77428D01*
X39132Y133744D02*
X37133D01*
X38132D01*
Y127746D01*
X39132D01*
X37133D01*
X30135D02*
X34134D01*
X30135Y131745D01*
Y132744D01*
X31135Y133744D01*
X33134D01*
X34134Y132744D01*
X24137D02*
X25137Y133744D01*
X27136D01*
X28136Y132744D01*
Y128746D01*
X27136Y127746D01*
X25137D01*
X24137Y128746D01*
X89170Y14872D02*
Y10873D01*
X87171Y8874D01*
X85171Y10873D01*
Y14872D01*
X83172D02*
Y8874D01*
X80173D01*
X79173Y9874D01*
Y13872D01*
X80173Y14872D01*
X83172D01*
X77174D02*
Y8874D01*
X74175D01*
X73175Y9874D01*
Y13872D01*
X74175Y14872D01*
X77174D01*
X110571Y13872D02*
X111571Y14872D01*
X113570D01*
X114570Y13872D01*
Y12873D01*
X113570Y11873D01*
X111571D01*
X110571Y10873D01*
Y9874D01*
X111571Y8874D01*
X113570D01*
X114570Y9874D01*
X108572Y14872D02*
Y8874D01*
X106573Y10873D01*
X104573Y8874D01*
Y14872D01*
X99575D02*
X101574D01*
X102574Y13872D01*
Y9874D01*
X101574Y8874D01*
X99575D01*
X98575Y9874D01*
Y13872D01*
X99575Y14872D01*
X135717Y13872D02*
X136717Y14872D01*
X138716D01*
X139716Y13872D01*
Y9874D01*
X138716Y8874D01*
X136717D01*
X135717Y9874D01*
X133718Y14872D02*
Y8874D01*
X129719D01*
X127720Y14872D02*
Y8874D01*
Y10873D01*
X123721Y14872D01*
X126720Y11873D01*
X123721Y8874D01*
X168418D02*
Y14872D01*
X164419Y8874D01*
Y14872D01*
X162420Y8874D02*
Y14872D01*
X159421D01*
X158421Y13872D01*
Y11873D01*
X159421Y10873D01*
X162420D01*
X160421D02*
X158421Y8874D01*
X152423Y13872D02*
X153423Y14872D01*
X155422D01*
X156422Y13872D01*
Y12873D01*
X155422Y11873D01*
X153423D01*
X152423Y10873D01*
Y9874D01*
X153423Y8874D01*
X155422D01*
X156422Y9874D01*
X150424Y14872D02*
X146425D01*
X148425D01*
Y8874D01*
X186452Y14872D02*
X184453D01*
X185452D01*
Y8874D01*
X186452D01*
X184453D01*
X178455Y14872D02*
X180454D01*
X181454Y13872D01*
Y9874D01*
X180454Y8874D01*
X178455D01*
X177455Y9874D01*
Y13872D01*
X178455Y14872D01*
X212933Y13872D02*
X213933Y14872D01*
X215932D01*
X216932Y13872D01*
Y9874D01*
X215932Y8874D01*
X213933D01*
X212933Y9874D01*
Y11873D01*
X214933D01*
X210934Y8874D02*
Y14872D01*
X206935Y8874D01*
Y14872D01*
X204936D02*
Y8874D01*
X201937D01*
X200937Y9874D01*
Y13872D01*
X201937Y14872D01*
X204936D01*
X234852Y28621D02*
X235852Y27621D01*
Y25622D01*
X234852Y24622D01*
X233853D01*
X232853Y25622D01*
Y27621D01*
X231853Y28621D01*
X230854D01*
X229854Y27621D01*
Y25622D01*
X230854Y24622D01*
X235852Y30620D02*
X229854D01*
X231853Y32619D01*
X229854Y34619D01*
X235852D01*
Y36618D02*
X229854D01*
Y39617D01*
X230854Y40617D01*
X234852D01*
X235852Y39617D01*
Y36618D01*
X461026Y156226D02*
X457027D01*
X455028Y154227D01*
X457027Y152227D01*
X461026D01*
X458027D01*
Y156226D01*
X455028Y150228D02*
X460026D01*
X461026Y149228D01*
Y147229D01*
X460026Y146229D01*
X455028D01*
Y144230D02*
X461026Y140231D01*
X455028D02*
X461026Y144230D01*
X455028Y138232D02*
Y136233D01*
Y137232D01*
X461026D01*
Y138232D01*
Y136233D01*
X455028Y133233D02*
X461026D01*
Y129235D01*
X455028Y127235D02*
Y125236D01*
Y126236D01*
X461026D01*
Y127235D01*
Y125236D01*
Y122237D02*
X457027D01*
X455028Y120238D01*
X457027Y118238D01*
X461026D01*
X458027D01*
Y122237D01*
X461026Y116239D02*
X455028D01*
Y113240D01*
X456028Y112240D01*
X458027D01*
X459027Y113240D01*
Y116239D01*
Y114240D02*
X461026Y112240D01*
X500748Y193310D02*
X506746D01*
X504747Y191311D01*
X506746Y189311D01*
X500748D01*
Y187312D02*
X505746D01*
X506746Y186312D01*
Y184313D01*
X505746Y183313D01*
X500748D01*
X506746Y181314D02*
X500748D01*
Y178315D01*
X501748Y177315D01*
X503747D01*
X504747Y178315D01*
Y181314D01*
X506746Y171466D02*
X500748D01*
Y168467D01*
X501748Y167467D01*
X503747D01*
X504747Y168467D01*
Y171466D01*
Y169467D02*
X506746Y167467D01*
X500748Y161469D02*
Y165468D01*
X506746D01*
Y161469D01*
X503747Y165468D02*
Y163469D01*
X501748Y155471D02*
X500748Y156471D01*
Y158470D01*
X501748Y159470D01*
X502747D01*
X503747Y158470D01*
Y156471D01*
X504747Y155471D01*
X505746D01*
X506746Y156471D01*
Y158470D01*
X505746Y159470D01*
X506746Y153472D02*
Y151473D01*
Y152472D01*
X500748D01*
X501748Y153472D01*
X506746Y146574D02*
X500748D01*
Y143575D01*
X501748Y142575D01*
X503747D01*
X504747Y143575D01*
Y146574D01*
Y144575D02*
X506746Y142575D01*
X500748Y136577D02*
Y140576D01*
X506746D01*
Y136577D01*
X503747Y140576D02*
Y138577D01*
X501748Y130579D02*
X500748Y131579D01*
Y133578D01*
X501748Y134578D01*
X502747D01*
X503747Y133578D01*
Y131579D01*
X504747Y130579D01*
X505746D01*
X506746Y131579D01*
Y133578D01*
X505746Y134578D01*
X506746Y124581D02*
Y128580D01*
X502747Y124581D01*
X501748D01*
X500748Y125581D01*
Y127580D01*
X501748Y128580D01*
X506746Y120412D02*
X500748D01*
Y117413D01*
X501748Y116413D01*
X503747D01*
X504747Y117413D01*
Y120412D01*
Y118413D02*
X506746Y116413D01*
X500748Y110415D02*
Y114414D01*
X506746D01*
Y110415D01*
X503747Y114414D02*
Y112415D01*
X501748Y104417D02*
X500748Y105417D01*
Y107416D01*
X501748Y108416D01*
X502747D01*
X503747Y107416D01*
Y105417D01*
X504747Y104417D01*
X505746D01*
X506746Y105417D01*
Y107416D01*
X505746Y108416D01*
X501748Y102418D02*
X500748Y101418D01*
Y99419D01*
X501748Y98419D01*
X502747D01*
X503747Y99419D01*
Y100419D01*
Y99419D01*
X504747Y98419D01*
X505746D01*
X506746Y99419D01*
Y101418D01*
X505746Y102418D01*
X501748Y88219D02*
X500748Y89219D01*
Y91218D01*
X501748Y92218D01*
X505746D01*
X506746Y91218D01*
Y89219D01*
X505746Y88219D01*
X503747D01*
Y90219D01*
X506746Y86220D02*
X500748D01*
X506746Y82221D01*
X500748D01*
Y80222D02*
X506746D01*
Y77223D01*
X505746Y76223D01*
X501748D01*
X500748Y77223D01*
Y80222D01*
X522084Y84090D02*
X527082D01*
X528082Y83090D01*
Y81091D01*
X527082Y80091D01*
X522084D01*
X528082Y78092D02*
X524083D01*
X522084Y76093D01*
X524083Y74093D01*
X528082D01*
X525083D01*
Y78092D01*
X528082Y72094D02*
X522084D01*
Y69095D01*
X523084Y68095D01*
X525083D01*
X526083Y69095D01*
Y72094D01*
Y70094D02*
X528082Y68095D01*
X522084Y66096D02*
Y62097D01*
Y64096D01*
X528082D01*
X522084Y54100D02*
X528082D01*
Y51101D01*
X527082Y50101D01*
X523084D01*
X522084Y51101D01*
Y54100D01*
X528082Y48102D02*
X524083D01*
X522084Y46102D01*
X524083Y44103D01*
X528082D01*
X525083D01*
Y48102D01*
X522084Y42104D02*
Y38105D01*
Y40104D01*
X528082D01*
Y36105D02*
X524083D01*
X522084Y34106D01*
X524083Y32107D01*
X528082D01*
X525083D01*
Y36105D01*
X566518Y88473D02*
X565518Y89473D01*
Y91472D01*
X566518Y92472D01*
X570516D01*
X571516Y91472D01*
Y89473D01*
X570516Y88473D01*
X568517D01*
Y90473D01*
X571516Y86474D02*
X565518D01*
X571516Y82475D01*
X565518D01*
Y80476D02*
X571516D01*
Y77477D01*
X570516Y76477D01*
X566518D01*
X565518Y77477D01*
Y80476D01*
X571516Y38878D02*
X565518D01*
Y35879D01*
X566518Y34879D01*
X568517D01*
X569517Y35879D01*
Y38878D01*
Y36879D02*
X571516Y34879D01*
X565518Y32880D02*
X571516Y28881D01*
X565518D02*
X571516Y32880D01*
X565518Y64278D02*
Y60279D01*
Y62279D01*
X571516D01*
X565518Y58280D02*
X571516Y54281D01*
X565518D02*
X571516Y58280D01*
X572278Y171261D02*
X569279Y174260D01*
X566280Y171261D01*
X569279Y168262D02*
Y164263D01*
X566280Y162264D02*
X572278D01*
Y159265D01*
X571278Y158265D01*
X570279D01*
X569279Y159265D01*
Y162264D01*
Y159265D01*
X568279Y158265D01*
X567280D01*
X566280Y159265D01*
Y162264D01*
X569279Y156266D02*
Y152267D01*
X572278Y150268D02*
X569279Y147269D01*
X566280Y150268D01*
X572024Y135652D02*
Y133653D01*
Y134652D01*
X566026D01*
X567026Y135652D01*
Y187214D02*
X566026Y186214D01*
Y184215D01*
X567026Y183215D01*
X571024D01*
X572024Y184215D01*
Y186214D01*
X571024Y187214D01*
X567026D01*
X560340Y212230D02*
Y206232D01*
X557341D01*
X556341Y207232D01*
Y208231D01*
X557341Y209231D01*
X560340D01*
X557341D01*
X556341Y210231D01*
Y211230D01*
X557341Y212230D01*
X560340D01*
X551343D02*
X553342D01*
X554342Y211230D01*
Y207232D01*
X553342Y206232D01*
X551343D01*
X550343Y207232D01*
Y211230D01*
X551343Y212230D01*
X545345D02*
X547344D01*
X548344Y211230D01*
Y207232D01*
X547344Y206232D01*
X545345D01*
X544345Y207232D01*
Y211230D01*
X545345Y212230D01*
X542346D02*
X538347D01*
X540346D01*
Y206232D01*
X536348D02*
X534348D01*
X535348D01*
Y212230D01*
X536348Y211230D01*
X608411Y211484D02*
X609411Y212484D01*
X611410D01*
X612410Y211484D01*
Y210485D01*
X611410Y209485D01*
X609411D01*
X608411Y208485D01*
Y207486D01*
X609411Y206486D01*
X611410D01*
X612410Y207486D01*
X606412Y206486D02*
Y212484D01*
X603413D01*
X602413Y211484D01*
Y209485D01*
X603413Y208485D01*
X606412D01*
X600414Y212484D02*
X598414D01*
X599414D01*
Y206486D01*
X600414D01*
X598414D01*
X625192Y165689D02*
X624192Y166689D01*
Y168688D01*
X625192Y169688D01*
X629190D01*
X630190Y168688D01*
Y166689D01*
X629190Y165689D01*
X625192Y159691D02*
X624192Y160691D01*
Y162690D01*
X625192Y163690D01*
X626191D01*
X627191Y162690D01*
Y160691D01*
X628191Y159691D01*
X629190D01*
X630190Y160691D01*
Y162690D01*
X629190Y163690D01*
X630190Y157692D02*
Y155693D01*
Y156692D01*
X624192D01*
X625192Y157692D01*
X624938Y141051D02*
X623938Y142051D01*
Y144050D01*
X624938Y145050D01*
X628936D01*
X629936Y144050D01*
Y142051D01*
X628936Y141051D01*
X623938Y139052D02*
X629936D01*
Y135053D01*
X623938Y133054D02*
X629936D01*
X627937D01*
X623938Y129055D01*
X626937Y132054D01*
X629936Y129055D01*
Y122952D02*
X623938D01*
X625937Y120953D01*
X623938Y118953D01*
X629936D01*
X623938Y116954D02*
Y114955D01*
Y115954D01*
X629936D01*
Y116954D01*
Y114955D01*
X624938Y107957D02*
X623938Y108957D01*
Y110956D01*
X624938Y111956D01*
X625937D01*
X626937Y110956D01*
Y108957D01*
X627937Y107957D01*
X628936D01*
X629936Y108957D01*
Y110956D01*
X628936Y111956D01*
X623938Y102958D02*
Y104958D01*
X624938Y105957D01*
X628936D01*
X629936Y104958D01*
Y102958D01*
X628936Y101959D01*
X624938D01*
X623938Y102958D01*
X629936Y96282D02*
X623938D01*
X625937Y94283D01*
X623938Y92283D01*
X629936D01*
X623938Y87285D02*
Y89284D01*
X624938Y90284D01*
X628936D01*
X629936Y89284D01*
Y87285D01*
X628936Y86285D01*
X624938D01*
X623938Y87285D01*
X624938Y80287D02*
X623938Y81287D01*
Y83286D01*
X624938Y84286D01*
X625937D01*
X626937Y83286D01*
Y81287D01*
X627937Y80287D01*
X628936D01*
X629936Y81287D01*
Y83286D01*
X628936Y84286D01*
X623938Y78288D02*
Y76288D01*
Y77288D01*
X629936D01*
Y78288D01*
Y76288D01*
X624938Y63835D02*
X623938Y64835D01*
Y66834D01*
X624938Y67834D01*
X628936D01*
X629936Y66834D01*
Y64835D01*
X628936Y63835D01*
X626937D01*
Y65835D01*
X629936Y61836D02*
X623938D01*
X629936Y57837D01*
X623938D01*
Y55838D02*
X629936D01*
Y52839D01*
X628936Y51839D01*
X624938D01*
X623938Y52839D01*
Y55838D01*
X649348Y83817D02*
Y89815D01*
X646349D01*
X645349Y88815D01*
Y86816D01*
X646349Y85816D01*
X649348D01*
X647349D02*
X645349Y83817D01*
X639351D02*
X643350D01*
X639351Y87816D01*
Y88815D01*
X640351Y89815D01*
X642350D01*
X643350Y88815D01*
X637352Y83817D02*
X635353D01*
X636352D01*
Y89815D01*
X637352Y88815D01*
X640891Y195448D02*
X646889D01*
Y198447D01*
X645889Y199447D01*
X643890D01*
X642890Y198447D01*
Y195448D01*
Y197448D02*
X640891Y199447D01*
Y201446D02*
Y203446D01*
Y202446D01*
X646889D01*
X645889Y201446D01*
X641891Y206445D02*
X640891Y207444D01*
Y209444D01*
X641891Y210443D01*
X645889D01*
X646889Y209444D01*
Y207444D01*
X645889Y206445D01*
X644890D01*
X643890Y207444D01*
Y210443D01*
X190189Y709897D02*
X191189Y710897D01*
X193188D01*
X194188Y709897D01*
Y705899D01*
X193188Y704899D01*
X191189D01*
X190189Y705899D01*
X188190Y704899D02*
X186190D01*
X187190D01*
Y710897D01*
X188190Y709897D01*
X183191D02*
X182192Y710897D01*
X180192D01*
X179192Y709897D01*
Y705899D01*
X180192Y704899D01*
X182192D01*
X183191Y705899D01*
Y709897D01*
X116062Y527779D02*
X117061Y528779D01*
X119061D01*
X120060Y527779D01*
Y523781D01*
X119061Y522781D01*
X117061D01*
X116062Y523781D01*
X110064Y528779D02*
X114062D01*
Y525780D01*
X112063Y526780D01*
X111063D01*
X110064Y525780D01*
Y523781D01*
X111063Y522781D01*
X113063D01*
X114062Y523781D01*
X167853Y709389D02*
X168853Y710389D01*
X170852D01*
X171852Y709389D01*
Y705391D01*
X170852Y704391D01*
X168853D01*
X167853Y705391D01*
X165854Y704391D02*
X163855D01*
X164854D01*
Y710389D01*
X165854Y709389D01*
X160856Y704391D02*
X158856D01*
X159856D01*
Y710389D01*
X160856Y709389D01*
X706833Y85426D02*
X701835D01*
X700835Y86425D01*
Y88425D01*
X701835Y89424D01*
X706833D01*
Y91424D02*
Y95422D01*
X705833D01*
X701835Y91424D01*
X700835D01*
X714117Y44753D02*
Y50751D01*
X711118D01*
X710119Y49751D01*
Y47752D01*
X711118Y46752D01*
X714117D01*
X712118D02*
X710119Y44753D01*
X704121D02*
X708119D01*
X704121Y48752D01*
Y49751D01*
X705120Y50751D01*
X707120D01*
X708119Y49751D01*
X702121D02*
X701122Y50751D01*
X699122D01*
X698123Y49751D01*
Y48752D01*
X699122Y47752D01*
X700122D01*
X699122D01*
X698123Y46752D01*
Y45753D01*
X699122Y44753D01*
X701122D01*
X702121Y45753D01*
X641301Y38985D02*
X635303D01*
Y35986D01*
X636303Y34987D01*
X638302D01*
X639302Y35986D01*
Y38985D01*
Y36986D02*
X641301Y34987D01*
Y28989D02*
Y32987D01*
X637302Y28989D01*
X636303D01*
X635303Y29988D01*
Y31988D01*
X636303Y32987D01*
X641301Y22991D02*
Y26989D01*
X637302Y22991D01*
X636303D01*
X635303Y23990D01*
Y25990D01*
X636303Y26989D01*
X644521Y241095D02*
Y247093D01*
X641522D01*
X640523Y246093D01*
Y244094D01*
X641522Y243094D01*
X644521D01*
X642522D02*
X640523Y241095D01*
X634525D02*
X638523D01*
X634525Y245094D01*
Y246093D01*
X635524Y247093D01*
X637524D01*
X638523Y246093D01*
X632525D02*
X631526Y247093D01*
X629526D01*
X628527Y246093D01*
Y242095D01*
X629526Y241095D01*
X631526D01*
X632525Y242095D01*
Y246093D01*
X746809Y93848D02*
X752807D01*
Y96847D01*
X751807Y97847D01*
X749808D01*
X748808Y96847D01*
Y93848D01*
Y95848D02*
X746809Y97847D01*
Y99846D02*
Y101846D01*
Y100846D01*
X752807D01*
X751807Y99846D01*
X752807Y108844D02*
X751807Y106844D01*
X749808Y104845D01*
X747809D01*
X746809Y105844D01*
Y107844D01*
X747809Y108844D01*
X748808D01*
X749808Y107844D01*
Y104845D01*
X60370Y46531D02*
Y52529D01*
X57371D01*
X56372Y51529D01*
Y49530D01*
X57371Y48530D01*
X60370D01*
X58371D02*
X56372Y46531D01*
X54372Y52529D02*
X50374D01*
Y51529D01*
X54372Y47531D01*
Y46531D01*
X162684Y292351D02*
Y298349D01*
X159685D01*
X158685Y297349D01*
Y295350D01*
X159685Y294350D01*
X162684D01*
X160685D02*
X158685Y292351D01*
X152687Y298349D02*
X154687Y297349D01*
X156686Y295350D01*
Y293351D01*
X155686Y292351D01*
X153687D01*
X152687Y293351D01*
Y294350D01*
X153687Y295350D01*
X156686D01*
X702343Y64024D02*
X706341D01*
X707341Y63025D01*
Y61025D01*
X706341Y60026D01*
X702343D01*
X701343Y61025D01*
Y63025D01*
X703342Y62025D02*
X701343Y64024D01*
Y63025D02*
X702343Y64024D01*
X701343Y70022D02*
Y66024D01*
X705342Y70022D01*
X706341D01*
X707341Y69023D01*
Y67023D01*
X706341Y66024D01*
X717677Y167673D02*
Y171671D01*
X718677Y172671D01*
X720676D01*
X721676Y171671D01*
Y167673D01*
X720676Y166673D01*
X718677D01*
X719676Y168672D02*
X717677Y166673D01*
X718677D02*
X717677Y167673D01*
X715678Y166673D02*
X713678D01*
X714678D01*
Y172671D01*
X715678Y171671D01*
X8304Y576498D02*
X13302D01*
X14302Y575499D01*
Y573499D01*
X13302Y572500D01*
X8304D01*
X14302Y566502D02*
Y570500D01*
X10303Y566502D01*
X9304D01*
X8304Y567501D01*
Y569501D01*
X9304Y570500D01*
X201086Y640891D02*
Y646889D01*
X198087D01*
X197088Y645889D01*
Y643890D01*
X198087Y642890D01*
X201086D01*
X199087D02*
X197088Y640891D01*
X195088Y645889D02*
X194089Y646889D01*
X192089D01*
X191090Y645889D01*
Y644890D01*
X192089Y643890D01*
X193089D01*
X192089D01*
X191090Y642890D01*
Y641891D01*
X192089Y640891D01*
X194089D01*
X195088Y641891D01*
X88581Y407609D02*
Y413607D01*
X85582D01*
X84582Y412607D01*
Y410608D01*
X85582Y409608D01*
X88581D01*
X86581D02*
X84582Y407609D01*
X82583D02*
X80583D01*
X81583D01*
Y413607D01*
X82583Y412607D01*
X750095Y247077D02*
X749095Y248076D01*
Y250076D01*
X750095Y251075D01*
X754093D01*
X755093Y250076D01*
Y248076D01*
X754093Y247077D01*
X750095Y245077D02*
X749095Y244078D01*
Y242078D01*
X750095Y241079D01*
X751094D01*
X752094Y242078D01*
Y243078D01*
Y242078D01*
X753094Y241079D01*
X754093D01*
X755093Y242078D01*
Y244078D01*
X754093Y245077D01*
X749095Y235081D02*
X750095Y237080D01*
X752094Y239079D01*
X754093D01*
X755093Y238080D01*
Y236080D01*
X754093Y235081D01*
X753094D01*
X752094Y236080D01*
Y239079D01*
X753585Y217743D02*
X754585Y216744D01*
Y214744D01*
X753585Y213745D01*
X749587D01*
X748587Y214744D01*
Y216744D01*
X749587Y217743D01*
X753585Y219743D02*
X754585Y220742D01*
Y222742D01*
X753585Y223741D01*
X752586D01*
X751586Y222742D01*
Y221742D01*
Y222742D01*
X750586Y223741D01*
X749587D01*
X748587Y222742D01*
Y220742D01*
X749587Y219743D01*
X754585Y229739D02*
Y225741D01*
X751586D01*
X752586Y227740D01*
Y228740D01*
X751586Y229739D01*
X749587D01*
X748587Y228740D01*
Y226740D01*
X749587Y225741D01*
X198571Y567911D02*
X199571Y568911D01*
X201570D01*
X202570Y567911D01*
Y563913D01*
X201570Y562913D01*
X199571D01*
X198571Y563913D01*
X196572Y562913D02*
X194572D01*
X195572D01*
Y568911D01*
X196572Y567911D01*
X191573D02*
X190574Y568911D01*
X188574D01*
X187574Y567911D01*
Y566912D01*
X188574Y565912D01*
X189574D01*
X188574D01*
X187574Y564912D01*
Y563913D01*
X188574Y562913D01*
X190574D01*
X191573Y563913D01*
X297164Y673067D02*
X298163Y674067D01*
X300163D01*
X301162Y673067D01*
Y669069D01*
X300163Y668069D01*
X298163D01*
X297164Y669069D01*
X295164Y673067D02*
X294165Y674067D01*
X292165D01*
X291166Y673067D01*
Y672068D01*
X292165Y671068D01*
X291166Y670068D01*
Y669069D01*
X292165Y668069D01*
X294165D01*
X295164Y669069D01*
Y670068D01*
X294165Y671068D01*
X295164Y672068D01*
Y673067D01*
X294165Y671068D02*
X292165D01*
X109441Y468392D02*
X110441Y467393D01*
Y465393D01*
X109441Y464394D01*
X105443D01*
X104443Y465393D01*
Y467393D01*
X105443Y468392D01*
X110441Y470392D02*
Y474390D01*
X109441D01*
X105443Y470392D01*
X104443D01*
X268781Y222439D02*
X274779Y218440D01*
X268781D02*
X274779Y222439D01*
Y216441D02*
Y214441D01*
Y215441D01*
X268781D01*
X269781Y216441D01*
X665428Y200103D02*
Y195105D01*
X664429Y194105D01*
X662429D01*
X661430Y195105D01*
Y200103D01*
X655432D02*
X657431Y199103D01*
X659430Y197104D01*
Y195105D01*
X658431Y194105D01*
X656431D01*
X655432Y195105D01*
Y196104D01*
X656431Y197104D01*
X659430D01*
X265348Y203659D02*
Y198661D01*
X264349Y197661D01*
X262349D01*
X261350Y198661D01*
Y203659D01*
X256351Y197661D02*
Y203659D01*
X259350Y200660D01*
X255352D01*
X288208Y644095D02*
Y639097D01*
X287209Y638097D01*
X285209D01*
X284210Y639097D01*
Y644095D01*
X282210Y643095D02*
X281211Y644095D01*
X279211D01*
X278212Y643095D01*
Y642096D01*
X279211Y641096D01*
X280211D01*
X279211D01*
X278212Y640096D01*
Y639097D01*
X279211Y638097D01*
X281211D01*
X282210Y639097D01*
X35495Y538939D02*
Y533941D01*
X34495Y532941D01*
X32496D01*
X31496Y533941D01*
Y538939D01*
X29497Y532941D02*
X27497D01*
X28497D01*
Y538939D01*
X29497Y537939D01*
X136333Y87089D02*
X137332Y88089D01*
X139332D01*
X140331Y87089D01*
Y86090D01*
X139332Y85090D01*
X137332D01*
X136333Y84090D01*
Y83091D01*
X137332Y82091D01*
X139332D01*
X140331Y83091D01*
X134333Y88089D02*
Y82091D01*
X132334Y84090D01*
X130335Y82091D01*
Y88089D01*
X124337Y82091D02*
X128335D01*
X124337Y86090D01*
Y87089D01*
X125336Y88089D01*
X127336D01*
X128335Y87089D01*
X160035Y70055D02*
X159035Y71055D01*
Y73054D01*
X160035Y74054D01*
X161034D01*
X162034Y73054D01*
Y71055D01*
X163034Y70055D01*
X164033D01*
X165033Y71055D01*
Y73054D01*
X164033Y74054D01*
X159035Y68056D02*
X165033D01*
X163034Y66056D01*
X165033Y64057D01*
X159035D01*
X165033Y62058D02*
Y60058D01*
Y61058D01*
X159035D01*
X160035Y62058D01*
X304678Y45151D02*
Y51149D01*
X301679D01*
X300679Y50149D01*
Y48150D01*
X301679Y47150D01*
X304678D01*
X302678D02*
X300679Y45151D01*
X298680D02*
X296680D01*
X297680D01*
Y51149D01*
X298680Y50149D01*
X293681Y51149D02*
X289682D01*
Y50149D01*
X293681Y46151D01*
Y45151D01*
X327537Y42831D02*
Y48829D01*
X324538D01*
X323539Y47829D01*
Y45830D01*
X324538Y44830D01*
X327537D01*
X325538D02*
X323539Y42831D01*
X321539D02*
X319540D01*
X320540D01*
Y48829D01*
X321539Y47829D01*
X316541D02*
X315541Y48829D01*
X313542D01*
X312542Y47829D01*
Y46830D01*
X313542Y45830D01*
X312542Y44830D01*
Y43831D01*
X313542Y42831D01*
X315541D01*
X316541Y43831D01*
Y44830D01*
X315541Y45830D01*
X316541Y46830D01*
Y47829D01*
X315541Y45830D02*
X313542D01*
X180979Y170991D02*
Y176989D01*
X177980D01*
X176981Y175989D01*
Y173990D01*
X177980Y172990D01*
X180979D01*
X178980D02*
X176981Y170991D01*
X174981D02*
X172982D01*
X173982D01*
Y176989D01*
X174981Y175989D01*
X165984Y176989D02*
X169983D01*
Y173990D01*
X167984Y174990D01*
X166984D01*
X165984Y173990D01*
Y171991D01*
X166984Y170991D01*
X168983D01*
X169983Y171991D01*
X146509Y180471D02*
X140511D01*
Y177472D01*
X141511Y176473D01*
X143510D01*
X144510Y177472D01*
Y180471D01*
Y178472D02*
X146509Y176473D01*
Y174473D02*
Y172474D01*
Y173474D01*
X140511D01*
X141511Y174473D01*
X146509Y165476D02*
Y169475D01*
X142510Y165476D01*
X141511D01*
X140511Y166476D01*
Y168475D01*
X141511Y169475D01*
X93267Y62860D02*
X99265D01*
Y65859D01*
X98265Y66859D01*
X96266D01*
X95266Y65859D01*
Y62860D01*
Y64860D02*
X93267Y66859D01*
Y68858D02*
Y70858D01*
Y69858D01*
X99265D01*
X98265Y68858D01*
X93267Y76856D02*
X99265D01*
X96266Y73857D01*
Y77856D01*
X93157Y82673D02*
X99155D01*
Y85672D01*
X98155Y86671D01*
X96156D01*
X95156Y85672D01*
Y82673D01*
Y84672D02*
X93157Y86671D01*
Y88671D02*
Y90670D01*
Y89670D01*
X99155D01*
X98155Y88671D01*
Y93669D02*
X99155Y94669D01*
Y96668D01*
X98155Y97668D01*
X97156D01*
X96156Y96668D01*
Y95668D01*
Y96668D01*
X95156Y97668D01*
X94157D01*
X93157Y96668D01*
Y94669D01*
X94157Y93669D01*
X110949Y638728D02*
X104951D01*
Y635729D01*
X105951Y634730D01*
X107950D01*
X108950Y635729D01*
Y638728D01*
Y636729D02*
X110949Y634730D01*
Y629731D02*
X104951D01*
X107950Y632730D01*
Y628732D01*
X182977Y652412D02*
X176979D01*
Y649413D01*
X177979Y648414D01*
X179978D01*
X180978Y649413D01*
Y652412D01*
Y650413D02*
X182977Y648414D01*
X176979Y642416D02*
Y646414D01*
X179978D01*
X178978Y644415D01*
Y643415D01*
X179978Y642416D01*
X181977D01*
X182977Y643415D01*
Y645415D01*
X181977Y646414D01*
X189943Y523666D02*
X183945D01*
Y520667D01*
X184945Y519668D01*
X186944D01*
X187944Y520667D01*
Y523666D01*
Y521667D02*
X189943Y519668D01*
Y513670D02*
Y517668D01*
X185944Y513670D01*
X184945D01*
X183945Y514669D01*
Y516669D01*
X184945Y517668D01*
X261415Y333486D02*
Y335485D01*
Y334485D01*
X266413D01*
X267413Y335485D01*
Y336485D01*
X266413Y337484D01*
X261415Y327488D02*
Y331486D01*
X264414D01*
X263414Y329487D01*
Y328487D01*
X264414Y327488D01*
X266413D01*
X267413Y328487D01*
Y330487D01*
X266413Y331486D01*
X65073Y150835D02*
Y152835D01*
Y151835D01*
X70071D01*
X71071Y152835D01*
Y153834D01*
X70071Y154834D01*
X71071Y148836D02*
Y146837D01*
Y147836D01*
X65073D01*
X66073Y148836D01*
X71071Y143837D02*
Y141838D01*
Y142838D01*
X65073D01*
X66073Y143837D01*
X498799Y66753D02*
X500798D01*
X499799D01*
Y61755D01*
X500798Y60755D01*
X501798D01*
X502798Y61755D01*
X496800Y60755D02*
X494800D01*
X495800D01*
Y66753D01*
X496800Y65753D01*
X491801D02*
X490802Y66753D01*
X488802D01*
X487802Y65753D01*
Y61755D01*
X488802Y60755D01*
X490802D01*
X491801Y61755D01*
Y65753D01*
X43418Y13413D02*
X45417D01*
X44417D01*
Y8415D01*
X45417Y7415D01*
X46417D01*
X47416Y8415D01*
X41418Y13413D02*
X37420D01*
Y12413D01*
X41418Y8415D01*
Y7415D01*
X78978Y55323D02*
X80977D01*
X79977D01*
Y50325D01*
X80977Y49325D01*
X81977D01*
X82976Y50325D01*
X76978Y54323D02*
X75979Y55323D01*
X73979D01*
X72980Y54323D01*
Y53324D01*
X73979Y52324D01*
X72980Y51324D01*
Y50325D01*
X73979Y49325D01*
X75979D01*
X76978Y50325D01*
Y51324D01*
X75979Y52324D01*
X76978Y53324D01*
Y54323D01*
X75979Y52324D02*
X73979D01*
X616950Y41607D02*
X618949D01*
X617949D01*
Y36609D01*
X618949Y35609D01*
X619949D01*
X620948Y36609D01*
X614950D02*
X613951Y35609D01*
X611951D01*
X610952Y36609D01*
Y40607D01*
X611951Y41607D01*
X613951D01*
X614950Y40607D01*
Y39608D01*
X613951Y38608D01*
X610952D01*
X559038Y15699D02*
X561037D01*
X560037D01*
Y10701D01*
X561037Y9701D01*
X562037D01*
X563036Y10701D01*
X553040Y15699D02*
X555039Y14699D01*
X557038Y12700D01*
Y10701D01*
X556039Y9701D01*
X554039D01*
X553040Y10701D01*
Y11700D01*
X554039Y12700D01*
X557038D01*
X778961Y113997D02*
X780960D01*
X779960D01*
Y108999D01*
X780960Y107999D01*
X781960D01*
X782960Y108999D01*
X776962Y107999D02*
X774962D01*
X775962D01*
Y113997D01*
X776962Y112997D01*
X767964Y107999D02*
X771963D01*
X767964Y111998D01*
Y112997D01*
X768964Y113997D01*
X770964D01*
X771963Y112997D01*
X559546Y118061D02*
X561545D01*
X560545D01*
Y113063D01*
X561545Y112063D01*
X562545D01*
X563544Y113063D01*
X557546Y117061D02*
X556547Y118061D01*
X554547D01*
X553548Y117061D01*
Y116062D01*
X554547Y115062D01*
X555547D01*
X554547D01*
X553548Y114062D01*
Y113063D01*
X554547Y112063D01*
X556547D01*
X557546Y113063D01*
X132064Y220169D02*
X134063D01*
X133063D01*
Y215171D01*
X134063Y214171D01*
X135063D01*
X136062Y215171D01*
X126066Y214171D02*
X130064D01*
X126066Y218170D01*
Y219169D01*
X127065Y220169D01*
X129065D01*
X130064Y219169D01*
X80518Y609551D02*
X82517D01*
X81518D01*
Y604553D01*
X82517Y603553D01*
X83517D01*
X84517Y604553D01*
X78519Y603553D02*
X76519D01*
X77519D01*
Y609551D01*
X78519Y608551D01*
X380189Y205945D02*
X384188D01*
Y202946D01*
X382188D01*
X384188D01*
Y199947D01*
X378190Y205945D02*
Y199947D01*
X374191D01*
X372192D02*
X370192D01*
X371192D01*
Y205945D01*
X372192Y204945D01*
X160700Y192229D02*
Y186231D01*
X157701D01*
X156702Y187231D01*
Y191229D01*
X157701Y192229D01*
X160700D01*
X150704Y186231D02*
X154702D01*
X150704Y190230D01*
Y191229D01*
X151703Y192229D01*
X153703D01*
X154702Y191229D01*
X110425Y689821D02*
Y683823D01*
X107426D01*
X106426Y684823D01*
Y688821D01*
X107426Y689821D01*
X110425D01*
X104427Y683823D02*
X102427D01*
X103427D01*
Y689821D01*
X104427Y688821D01*
X727453Y236269D02*
X728453Y235269D01*
Y233270D01*
X727453Y232270D01*
X723455D01*
X722455Y233270D01*
Y235269D01*
X723455Y236269D01*
X722455Y238268D02*
X728453D01*
Y241267D01*
X727453Y242267D01*
X725454D01*
X724454Y241267D01*
Y238268D01*
Y240268D02*
X722455Y242267D01*
Y244266D02*
Y246266D01*
Y245266D01*
X728453D01*
X727453Y244266D01*
X706341Y203011D02*
X707341Y202012D01*
Y200012D01*
X706341Y199013D01*
X702343D01*
X701343Y200012D01*
Y202012D01*
X702343Y203011D01*
X706341Y205011D02*
X707341Y206010D01*
Y208010D01*
X706341Y209009D01*
X705342D01*
X704342Y208010D01*
Y207010D01*
Y208010D01*
X703342Y209009D01*
X702343D01*
X701343Y208010D01*
Y206010D01*
X702343Y205011D01*
X707341Y211009D02*
Y215007D01*
X706341D01*
X702343Y211009D01*
X701343D01*
X141257Y156907D02*
X140257Y157906D01*
Y159906D01*
X141257Y160905D01*
X145255D01*
X146255Y159906D01*
Y157906D01*
X145255Y156907D01*
X141257Y154907D02*
X140257Y153908D01*
Y151908D01*
X141257Y150909D01*
X142256D01*
X143256Y151908D01*
Y152908D01*
Y151908D01*
X144256Y150909D01*
X145255D01*
X146255Y151908D01*
Y153908D01*
X145255Y154907D01*
X146255Y145910D02*
X140257D01*
X143256Y148909D01*
Y144911D01*
X363949Y238571D02*
X364949Y237572D01*
Y235572D01*
X363949Y234573D01*
X359951D01*
X358951Y235572D01*
Y237572D01*
X359951Y238571D01*
X358951Y244569D02*
Y240571D01*
X362950Y244569D01*
X363949D01*
X364949Y243570D01*
Y241570D01*
X363949Y240571D01*
X358951Y249568D02*
X364949D01*
X361950Y246569D01*
Y250567D01*
X363949Y214441D02*
X364949Y213442D01*
Y211442D01*
X363949Y210443D01*
X359951D01*
X358951Y211442D01*
Y213442D01*
X359951Y214441D01*
X358951Y220439D02*
Y216441D01*
X362950Y220439D01*
X363949D01*
X364949Y219440D01*
Y217440D01*
X363949Y216441D01*
Y222439D02*
X364949Y223438D01*
Y225438D01*
X363949Y226437D01*
X362950D01*
X361950Y225438D01*
Y224438D01*
Y225438D01*
X360950Y226437D01*
X359951D01*
X358951Y225438D01*
Y223438D01*
X359951Y222439D01*
X237171Y192101D02*
X238170Y193101D01*
X240170D01*
X241169Y192101D01*
Y188103D01*
X240170Y187103D01*
X238170D01*
X237171Y188103D01*
X231173Y187103D02*
X235171D01*
X231173Y191102D01*
Y192101D01*
X232172Y193101D01*
X234172D01*
X235171Y192101D01*
X225175Y187103D02*
X229173D01*
X225175Y191102D01*
Y192101D01*
X226174Y193101D01*
X228174D01*
X229173Y192101D01*
X394667Y191373D02*
X395667Y192373D01*
X397666D01*
X398666Y191373D01*
Y187375D01*
X397666Y186375D01*
X395667D01*
X394667Y187375D01*
X388669Y186375D02*
X392668D01*
X388669Y190374D01*
Y191373D01*
X389669Y192373D01*
X391668D01*
X392668Y191373D01*
X386670Y186375D02*
X384670D01*
X385670D01*
Y192373D01*
X386670Y191373D01*
X421861Y65851D02*
X422861Y64852D01*
Y62852D01*
X421861Y61853D01*
X417863D01*
X416863Y62852D01*
Y64852D01*
X417863Y65851D01*
X416863Y71849D02*
Y67851D01*
X420862Y71849D01*
X421861D01*
X422861Y70850D01*
Y68850D01*
X421861Y67851D01*
Y73849D02*
X422861Y74848D01*
Y76848D01*
X421861Y77847D01*
X417863D01*
X416863Y76848D01*
Y74848D01*
X417863Y73849D01*
X421861D01*
X246921Y51759D02*
X245921Y52758D01*
Y54758D01*
X246921Y55757D01*
X250919D01*
X251919Y54758D01*
Y52758D01*
X250919Y51759D01*
X251919Y49759D02*
Y47760D01*
Y48760D01*
X245921D01*
X246921Y49759D01*
X250919Y44761D02*
X251919Y43761D01*
Y41762D01*
X250919Y40762D01*
X246921D01*
X245921Y41762D01*
Y43761D01*
X246921Y44761D01*
X247920D01*
X248920Y43761D01*
Y40762D01*
X246667Y20771D02*
X245667Y21771D01*
Y23770D01*
X246667Y24769D01*
X250665D01*
X251665Y23770D01*
Y21771D01*
X250665Y20771D01*
X251665Y18772D02*
Y16772D01*
Y17772D01*
X245667D01*
X246667Y18772D01*
Y13773D02*
X245667Y12773D01*
Y10774D01*
X246667Y9774D01*
X247666D01*
X248666Y10774D01*
X249666Y9774D01*
X250665D01*
X251665Y10774D01*
Y12773D01*
X250665Y13773D01*
X249666D01*
X248666Y12773D01*
X247666Y13773D01*
X246667D01*
X248666Y12773D02*
Y10774D01*
X391999Y84393D02*
X392999Y83394D01*
Y81394D01*
X391999Y80395D01*
X388001D01*
X387001Y81394D01*
Y83394D01*
X388001Y84393D01*
X387001Y90391D02*
Y86393D01*
X391000Y90391D01*
X391999D01*
X392999Y89392D01*
Y87392D01*
X391999Y86393D01*
X392999Y96389D02*
Y92391D01*
X390000D01*
X391000Y94390D01*
Y95390D01*
X390000Y96389D01*
X388001D01*
X387001Y95390D01*
Y93390D01*
X388001Y92391D01*
X418481Y139643D02*
X417481Y140642D01*
Y142642D01*
X418481Y143642D01*
X422479D01*
X423479Y142642D01*
Y140642D01*
X422479Y139643D01*
X423479Y137643D02*
Y135644D01*
Y136644D01*
X417481D01*
X418481Y137643D01*
X417481Y132645D02*
Y128646D01*
X418481D01*
X422479Y132645D01*
X423479D01*
X117619Y67134D02*
X116619Y68134D01*
Y70133D01*
X117619Y71133D01*
X121617D01*
X122617Y70133D01*
Y68134D01*
X121617Y67134D01*
X122617Y65135D02*
Y63135D01*
Y64135D01*
X116619D01*
X117619Y65135D01*
X116619Y56138D02*
X117619Y58137D01*
X119618Y60136D01*
X121617D01*
X122617Y59137D01*
Y57137D01*
X121617Y56138D01*
X120618D01*
X119618Y57137D01*
Y60136D01*
X310331Y265905D02*
X311331Y266905D01*
X313330D01*
X314329Y265905D01*
Y261907D01*
X313330Y260907D01*
X311331D01*
X310331Y261907D01*
X308332Y260907D02*
X306332D01*
X307332D01*
Y266905D01*
X308332Y265905D01*
X299334Y266905D02*
X303333D01*
Y263906D01*
X301334Y264906D01*
X300334D01*
X299334Y263906D01*
Y261907D01*
X300334Y260907D01*
X302334D01*
X303333Y261907D01*
X291789Y266159D02*
X292789Y267159D01*
X294788D01*
X295788Y266159D01*
Y262161D01*
X294788Y261161D01*
X292789D01*
X291789Y262161D01*
X289790Y261161D02*
X287790D01*
X288790D01*
Y267159D01*
X289790Y266159D01*
X281792Y261161D02*
Y267159D01*
X284791Y264160D01*
X280792D01*
X177235Y613885D02*
X178235Y614885D01*
X180234D01*
X181234Y613885D01*
Y609887D01*
X180234Y608887D01*
X178235D01*
X177235Y609887D01*
X175236Y608887D02*
X173236D01*
X174236D01*
Y614885D01*
X175236Y613885D01*
X166238Y608887D02*
X170237D01*
X166238Y612886D01*
Y613885D01*
X167238Y614885D01*
X169237D01*
X170237Y613885D01*
X317738Y674083D02*
X318737Y675083D01*
X320737D01*
X321736Y674083D01*
Y670085D01*
X320737Y669085D01*
X318737D01*
X317738Y670085D01*
X315738D02*
X314739Y669085D01*
X312739D01*
X311740Y670085D01*
Y674083D01*
X312739Y675083D01*
X314739D01*
X315738Y674083D01*
Y673084D01*
X314739Y672084D01*
X311740D01*
X111490Y457167D02*
X112489Y458167D01*
X114489D01*
X115488Y457167D01*
Y453169D01*
X114489Y452169D01*
X112489D01*
X111490Y453169D01*
X105492Y458167D02*
X107491Y457167D01*
X109490Y455168D01*
Y453169D01*
X108491Y452169D01*
X106491D01*
X105492Y453169D01*
Y454168D01*
X106491Y455168D01*
X109490D01*
X92186Y528287D02*
X93185Y529287D01*
X95185D01*
X96184Y528287D01*
Y524289D01*
X95185Y523289D01*
X93185D01*
X92186Y524289D01*
X87187Y523289D02*
Y529287D01*
X90186Y526288D01*
X86188D01*
X146066Y609125D02*
X145067Y608125D01*
X143067D01*
X142068Y609125D01*
Y613123D01*
X143067Y614123D01*
X145067D01*
X146066Y613123D01*
X148066Y609125D02*
X149065Y608125D01*
X151065D01*
X152064Y609125D01*
Y610124D01*
X151065Y611124D01*
X150065D01*
X151065D01*
X152064Y612124D01*
Y613123D01*
X151065Y614123D01*
X149065D01*
X148066Y613123D01*
X126254Y607999D02*
X125255Y606999D01*
X123255D01*
X122256Y607999D01*
Y611997D01*
X123255Y612997D01*
X125255D01*
X126254Y611997D01*
X132252Y612997D02*
X128254D01*
X132252Y608998D01*
Y607999D01*
X131253Y606999D01*
X129253D01*
X128254Y607999D01*
X108204Y609125D02*
X107204Y608125D01*
X105205D01*
X104205Y609125D01*
Y613123D01*
X105205Y614123D01*
X107204D01*
X108204Y613123D01*
X110203Y614123D02*
X112203D01*
X111203D01*
Y608125D01*
X110203Y609125D01*
D36*
X75438Y416814D02*
X95250D01*
X75438Y432050D02*
X95250D01*
Y416814D02*
Y432050D01*
X75438Y416814D02*
Y432050D01*
X185674Y605840D02*
X205740D01*
X185674Y622046D02*
X205740D01*
Y605840D02*
Y622046D01*
X185674Y605840D02*
Y622046D01*
M02*
