G04*
G04 #@! TF.GenerationSoftware,Altium Limited,Altium Designer,26.5.0 (11)*
G04*
G04 Layer_Color=16711935*
G04 Board_Origin=25805118|26780118*
%FSLAX44Y44*%
%MOMM*%
G71*
G04*
G04 #@! TF.SameCoordinates,7E55BF65-7939-4322-A13E-4FD3D91A8B04*
G04*
G04*
G04 #@! TF.FilePolarity,Negative*
G04*
G01*
G75*
%ADD20R,0.8508X0.8588*%
%ADD22R,1.4500X1.1000*%
%ADD24R,1.1000X1.4500*%
%ADD25O,1.0500X1.4000*%
%ADD26C,1.6240*%
%ADD27R,1.6240X1.6240*%
%ADD28C,1.9000*%
%ADD29R,1.9000X1.9000*%
%ADD30R,1.6240X1.6240*%
%ADD31C,6.6000*%
%ADD32C,0.7000*%
%ADD60R,0.6604X1.8542*%
%ADD61R,1.5748X0.6096*%
%ADD63R,2.0066X2.0066*%
%ADD64R,1.6002X1.1176*%
%ADD67R,0.6096X1.7272*%
%ADD70R,1.0008X1.2088*%
%ADD71R,1.1723X0.5580*%
%ADD81R,1.6500X1.6000*%
%ADD82R,1.4500X0.5000*%
%ADD83R,1.1540X2.3540*%
%ADD84R,1.5440X0.8040*%
G04:AMPARAMS|DCode=85|XSize=0.36mm|YSize=1.07mm|CornerRadius=0.115mm|HoleSize=0mm|Usage=FLASHONLY|Rotation=270.000|XOffset=0mm|YOffset=0mm|HoleType=Round|Shape=RoundedRectangle|*
%AMROUNDEDRECTD85*
21,1,0.3600,0.8400,0,0,270.0*
21,1,0.1300,1.0700,0,0,270.0*
1,1,0.2300,-0.4200,-0.0650*
1,1,0.2300,-0.4200,0.0650*
1,1,0.2300,0.4200,0.0650*
1,1,0.2300,0.4200,-0.0650*
%
%ADD85ROUNDEDRECTD85*%
%ADD86R,0.4000X1.6000*%
%ADD87R,1.6000X0.4000*%
%ADD88R,3.2500X3.2500*%
G04:AMPARAMS|DCode=89|XSize=0.36mm|YSize=1.07mm|CornerRadius=0.115mm|HoleSize=0mm|Usage=FLASHONLY|Rotation=0.000|XOffset=0mm|YOffset=0mm|HoleType=Round|Shape=RoundedRectangle|*
%AMROUNDEDRECTD89*
21,1,0.3600,0.8400,0,0,0.0*
21,1,0.1300,1.0700,0,0,0.0*
1,1,0.2300,0.0650,-0.4200*
1,1,0.2300,-0.0650,-0.4200*
1,1,0.2300,-0.0650,0.4200*
1,1,0.2300,0.0650,0.4200*
%
%ADD89ROUNDEDRECTD89*%
%ADD90R,0.9000X1.8000*%
%ADD91R,1.8000X0.9000*%
%ADD92R,1.4700X2.5300*%
%ADD93R,1.0300X0.9100*%
%ADD94R,3.4540X2.3540*%
G36*
X266192Y621665D02*
X232156D01*
Y650367D01*
X266192D01*
Y621665D01*
D02*
G37*
G36*
X781092Y204270D02*
X781412Y204250D01*
X781722Y204210D01*
X782032Y204150D01*
X782332Y204080D01*
X782632Y203990D01*
X782932Y203880D01*
X783222Y203760D01*
X783502Y203630D01*
X783782Y203480D01*
X784052Y203310D01*
X784312Y203130D01*
X784562Y202940D01*
X784792Y202740D01*
X785022Y202520D01*
X785242Y202290D01*
X785442Y202060D01*
X785632Y201810D01*
X785812Y201550D01*
X785982Y201280D01*
X786132Y201000D01*
X786262Y200720D01*
X786382Y200430D01*
X786492Y200130D01*
X786582Y199830D01*
X786652Y199530D01*
X786712Y199220D01*
X786752Y198910D01*
X786772Y198590D01*
X786782Y198280D01*
Y185830D01*
X769282D01*
Y198280D01*
X769292Y198590D01*
X769312Y198910D01*
X769352Y199220D01*
X769412Y199530D01*
X769482Y199830D01*
X769572Y200130D01*
X769682Y200430D01*
X769802Y200720D01*
X769932Y201000D01*
X770082Y201280D01*
X770252Y201550D01*
X770432Y201810D01*
X770622Y202060D01*
X770822Y202290D01*
X771042Y202520D01*
X771272Y202740D01*
X771502Y202940D01*
X771752Y203130D01*
X772012Y203310D01*
X772282Y203480D01*
X772562Y203630D01*
X772842Y203760D01*
X773132Y203880D01*
X773432Y203990D01*
X773732Y204080D01*
X774032Y204150D01*
X774342Y204210D01*
X774652Y204250D01*
X774972Y204270D01*
X775282Y204280D01*
X780782D01*
X781092Y204270D01*
D02*
G37*
G36*
X786782Y129380D02*
X786772Y129070D01*
X786752Y128750D01*
X786712Y128440D01*
X786652Y128130D01*
X786582Y127830D01*
X786492Y127530D01*
X786382Y127230D01*
X786262Y126940D01*
X786132Y126660D01*
X785982Y126380D01*
X785812Y126110D01*
X785632Y125850D01*
X785442Y125600D01*
X785242Y125370D01*
X785022Y125140D01*
X784792Y124920D01*
X784562Y124720D01*
X784312Y124530D01*
X784052Y124350D01*
X783782Y124180D01*
X783502Y124030D01*
X783222Y123900D01*
X782932Y123780D01*
X782632Y123670D01*
X782332Y123580D01*
X782032Y123510D01*
X781722Y123450D01*
X781412Y123410D01*
X781092Y123390D01*
X780782Y123380D01*
X775282D01*
X774972Y123390D01*
X774652Y123410D01*
X774342Y123450D01*
X774032Y123510D01*
X773732Y123580D01*
X773432Y123670D01*
X773132Y123780D01*
X772842Y123900D01*
X772562Y124030D01*
X772282Y124180D01*
X772012Y124350D01*
X771752Y124530D01*
X771502Y124720D01*
X771272Y124920D01*
X771042Y125140D01*
X770822Y125370D01*
X770622Y125600D01*
X770432Y125850D01*
X770252Y126110D01*
X770082Y126380D01*
X769932Y126660D01*
X769802Y126940D01*
X769682Y127230D01*
X769572Y127530D01*
X769482Y127830D01*
X769412Y128130D01*
X769352Y128440D01*
X769312Y128750D01*
X769292Y129070D01*
X769282Y129380D01*
Y141830D01*
X786782D01*
Y129380D01*
D02*
G37*
D20*
X377190Y219052D02*
D03*
Y237640D02*
D03*
D22*
X196088Y631300D02*
D03*
X114554Y512318D02*
D03*
X295910Y703436D02*
D03*
X316738D02*
D03*
X92710Y512428D02*
D03*
X147066Y597264D02*
D03*
X127254Y597408D02*
D03*
X106934Y597264D02*
D03*
X187452Y695308D02*
D03*
X165100Y694546D02*
D03*
X629158Y195326D02*
D03*
Y213326D02*
D03*
X644144Y70104D02*
D03*
Y52104D02*
D03*
X196088Y613300D02*
D03*
X195326Y597772D02*
D03*
X719328Y192930D02*
D03*
X390398Y175624D02*
D03*
X316738Y685436D02*
D03*
X295910D02*
D03*
X187452Y677308D02*
D03*
X195326Y579772D02*
D03*
X165100Y676546D02*
D03*
X147066Y579264D02*
D03*
X127254Y579408D02*
D03*
X106934Y579264D02*
D03*
X114554Y494318D02*
D03*
X92710Y494428D02*
D03*
X92456Y478392D02*
D03*
X307594Y251570D02*
D03*
X287528D02*
D03*
X233172Y158242D02*
D03*
X153924Y278638D02*
D03*
X297180Y16290D02*
D03*
X287528Y233570D02*
D03*
X307594D02*
D03*
X390398Y157624D02*
D03*
X233172Y176242D02*
D03*
X719328Y210930D02*
D03*
X173990Y161654D02*
D03*
Y143654D02*
D03*
X317500Y15240D02*
D03*
Y33240D02*
D03*
X297180Y34290D02*
D03*
X92456Y460392D02*
D03*
X84582Y424214D02*
D03*
Y442214D02*
D03*
X153924Y260638D02*
D03*
X55626Y37338D02*
D03*
Y19338D02*
D03*
D24*
X121810Y633730D02*
D03*
X139810D02*
D03*
X652416Y32004D02*
D03*
X218296Y517906D02*
D03*
X329980Y240030D02*
D03*
X330090Y219710D02*
D03*
X408034Y134874D02*
D03*
X783446Y243078D02*
D03*
X784208Y220980D02*
D03*
X421750Y92202D02*
D03*
X407272Y70104D02*
D03*
X200296Y517906D02*
D03*
X279510Y48260D02*
D03*
X279256Y22352D02*
D03*
X131954Y63381D02*
D03*
X113428Y153670D02*
D03*
X765446Y243078D02*
D03*
X766208Y220980D02*
D03*
X149954Y63381D02*
D03*
X390034Y134874D02*
D03*
X403750Y92202D02*
D03*
X261256Y22352D02*
D03*
X261510Y48260D02*
D03*
X389272Y70104D02*
D03*
X348090Y219710D02*
D03*
X347980Y240030D02*
D03*
X131428Y153670D02*
D03*
X83566Y90170D02*
D03*
X65566D02*
D03*
X83676Y69850D02*
D03*
X65676D02*
D03*
X112920Y173990D02*
D03*
X130920D02*
D03*
X736964Y100076D02*
D03*
X718964D02*
D03*
X645524Y230378D02*
D03*
X627524D02*
D03*
X670416Y32004D02*
D03*
X705214D02*
D03*
X687214D02*
D03*
D25*
X751032Y138830D02*
D03*
Y188830D02*
D03*
D26*
X547624Y185928D02*
D03*
X547370Y83820D02*
D03*
X208280Y32512D02*
D03*
X120650Y288290D02*
D03*
X117602Y343662D02*
D03*
X31496Y106680D02*
D03*
X605536Y186436D02*
D03*
Y161036D02*
D03*
Y135636D02*
D03*
Y110236D02*
D03*
Y84836D02*
D03*
X182880Y32512D02*
D03*
X157480D02*
D03*
X132080D02*
D03*
X106680D02*
D03*
X143002Y343662D02*
D03*
X168402D02*
D03*
X193802D02*
D03*
X219202D02*
D03*
X482600Y109220D02*
D03*
Y134620D02*
D03*
Y160020D02*
D03*
Y185420D02*
D03*
X31496Y55880D02*
D03*
Y81280D02*
D03*
X120650Y262890D02*
D03*
X547624Y160528D02*
D03*
X547370Y58420D02*
D03*
D27*
X605536Y59436D02*
D03*
X482600Y83820D02*
D03*
X31496Y30480D02*
D03*
X120650Y237490D02*
D03*
X547624Y135128D02*
D03*
X547370Y33020D02*
D03*
D28*
X51816Y701548D02*
D03*
Y625348D02*
D03*
X40640Y408940D02*
D03*
Y180340D02*
D03*
Y154940D02*
D03*
Y358140D02*
D03*
Y332740D02*
D03*
Y307340D02*
D03*
Y281940D02*
D03*
Y256540D02*
D03*
Y231140D02*
D03*
Y205740D02*
D03*
X77216Y676148D02*
D03*
D29*
Y650748D02*
D03*
X40640Y383540D02*
D03*
D30*
X81280Y32512D02*
D03*
X244602Y343662D02*
D03*
D31*
X750000Y50000D02*
D03*
X160000Y467350D02*
D03*
X750000Y685000D02*
D03*
D32*
X326644Y146558D02*
D03*
X94550Y579786D02*
D03*
Y539786D02*
D03*
X104550Y559786D02*
D03*
X294386Y716280D02*
D03*
X316738Y715772D02*
D03*
X765810Y99822D02*
D03*
X751586Y100076D02*
D03*
X683260Y83820D02*
D03*
X585216Y456946D02*
D03*
X573278Y457200D02*
D03*
X766064Y271018D02*
D03*
X258318Y461010D02*
D03*
X350520Y126746D02*
D03*
X329692Y270002D02*
D03*
X312928Y286512D02*
D03*
X184550Y259785D02*
D03*
Y299785D02*
D03*
X194550Y359786D02*
D03*
X204550Y299785D02*
D03*
X214550Y399786D02*
D03*
Y439786D02*
D03*
Y479786D02*
D03*
X224550Y219785D02*
D03*
X234550Y399786D02*
D03*
X224550Y419786D02*
D03*
X234550Y439786D02*
D03*
X224550Y579786D02*
D03*
X244550D02*
D03*
X274550Y399786D02*
D03*
Y439786D02*
D03*
X264550Y499786D02*
D03*
Y579786D02*
D03*
X294550Y399786D02*
D03*
Y439786D02*
D03*
X284550Y499786D02*
D03*
X314550Y399786D02*
D03*
Y439786D02*
D03*
X304550Y499786D02*
D03*
X314550Y559786D02*
D03*
X334551Y439786D02*
D03*
X324551Y539786D02*
D03*
X344551D02*
D03*
X364551Y499786D02*
D03*
X374551Y559786D02*
D03*
X384551Y539786D02*
D03*
X404551Y459786D02*
D03*
X414551Y479786D02*
D03*
X424551Y459786D02*
D03*
X454551Y399786D02*
D03*
X444551Y419786D02*
D03*
Y539786D02*
D03*
X464551Y379786D02*
D03*
X474551Y399786D02*
D03*
X464551Y499786D02*
D03*
X484551Y379786D02*
D03*
Y419786D02*
D03*
Y539786D02*
D03*
X504551Y379786D02*
D03*
X514551Y399786D02*
D03*
X524551Y379786D02*
D03*
X544551Y539786D02*
D03*
X564551Y379786D02*
D03*
Y499786D02*
D03*
X614551Y399786D02*
D03*
X624551Y379786D02*
D03*
Y459786D02*
D03*
Y499786D02*
D03*
X644551Y459786D02*
D03*
Y539786D02*
D03*
X664551Y379786D02*
D03*
X674551Y399786D02*
D03*
X664551Y459786D02*
D03*
X674551Y479786D02*
D03*
X664551Y499786D02*
D03*
X694551Y439786D02*
D03*
X684551Y459786D02*
D03*
X714551Y399786D02*
D03*
Y439786D02*
D03*
X704551Y459786D02*
D03*
X714551Y479786D02*
D03*
Y519786D02*
D03*
X704551Y539786D02*
D03*
X724551Y379786D02*
D03*
X734551Y399786D02*
D03*
X724551Y419786D02*
D03*
X734551Y439786D02*
D03*
X724551Y459786D02*
D03*
X734551Y479786D02*
D03*
X724551Y499786D02*
D03*
X734551Y519786D02*
D03*
X724551Y539786D02*
D03*
X744551Y379786D02*
D03*
X754551Y399786D02*
D03*
X744551Y419786D02*
D03*
X754551Y439786D02*
D03*
X744551Y459786D02*
D03*
X754551Y479786D02*
D03*
X744551Y499786D02*
D03*
X754551Y519786D02*
D03*
X744551Y539786D02*
D03*
X764551Y379786D02*
D03*
X774551Y399786D02*
D03*
X764551Y419786D02*
D03*
X774551Y439786D02*
D03*
X764551Y459786D02*
D03*
X774551Y479786D02*
D03*
X764551Y499786D02*
D03*
X774551Y519786D02*
D03*
X764551Y539786D02*
D03*
X784551Y379786D02*
D03*
Y419786D02*
D03*
Y459786D02*
D03*
Y499786D02*
D03*
Y539786D02*
D03*
X244550Y379786D02*
D03*
X169672Y610870D02*
D03*
X178054Y620522D02*
D03*
X294386Y490220D02*
D03*
X271780Y490728D02*
D03*
X375158Y399034D02*
D03*
X400050D02*
D03*
X409956D02*
D03*
X644906Y212090D02*
D03*
X644550Y119785D02*
D03*
X205232Y665226D02*
D03*
X694550Y719785D02*
D03*
X594550D02*
D03*
X644550D02*
D03*
X619550Y669785D02*
D03*
X569550D02*
D03*
X669550Y269785D02*
D03*
X515620Y482092D02*
D03*
X369550Y669785D02*
D03*
X419550D02*
D03*
X515620Y453136D02*
D03*
X657026Y207997D02*
D03*
X656112Y226314D02*
D03*
X674878Y169418D02*
D03*
X657352Y169926D02*
D03*
X675640Y152908D02*
D03*
X657606D02*
D03*
X694550Y114880D02*
D03*
X424180Y175514D02*
D03*
Y74676D02*
D03*
X407924Y175514D02*
D03*
X386080Y89408D02*
D03*
X205232Y676910D02*
D03*
X238571Y460945D02*
D03*
X194550Y419785D02*
D03*
X144550Y619785D02*
D03*
X94550D02*
D03*
X128778Y403098D02*
D03*
X269550Y269785D02*
D03*
X169550Y369785D02*
D03*
X142240Y388366D02*
D03*
X192278Y148082D02*
D03*
X100076Y268478D02*
D03*
X90932Y246888D02*
D03*
X69550Y369785D02*
D03*
X90678Y187960D02*
D03*
X129032Y85598D02*
D03*
X117348Y63754D02*
D03*
X97790Y153670D02*
D03*
X627380Y20502D02*
D03*
X347980Y24130D02*
D03*
X581914Y475234D02*
D03*
X573532Y475488D02*
D03*
X437134Y472440D02*
D03*
X447040D02*
D03*
X213360Y145034D02*
D03*
X196088Y177038D02*
D03*
X180340Y177546D02*
D03*
X83621Y80010D02*
D03*
X370332Y29924D02*
D03*
X766064Y260858D02*
D03*
X738632Y176784D02*
D03*
X729996Y176530D02*
D03*
X700024Y185928D02*
D03*
X690372Y239522D02*
D03*
Y249428D02*
D03*
X690880Y185674D02*
D03*
X683514Y72390D02*
D03*
X112776Y195834D02*
D03*
Y186182D02*
D03*
X346710Y158750D02*
D03*
X248920Y497490D02*
D03*
X98298Y432054D02*
D03*
X165608Y112522D02*
D03*
X702818Y120904D02*
D03*
X476241Y478795D02*
D03*
X316484Y97028D02*
D03*
X508762Y204724D02*
D03*
X320548Y134366D02*
D03*
X451612Y90678D02*
D03*
X532384Y114046D02*
D03*
X328930Y116840D02*
D03*
X173736Y105664D02*
D03*
X414020Y210058D02*
D03*
X96774Y390398D02*
D03*
X113284Y373126D02*
D03*
X424434Y157988D02*
D03*
X407162Y158242D02*
D03*
X398018Y219456D02*
D03*
X350012Y88392D02*
D03*
X261366Y35814D02*
D03*
X241046Y36068D02*
D03*
X339344Y99314D02*
D03*
X337820Y166370D02*
D03*
X182880Y98806D02*
D03*
X430530Y447040D02*
D03*
X476240Y466108D02*
D03*
X300990Y87575D02*
D03*
X521970Y213614D02*
D03*
X661670Y82296D02*
D03*
D60*
X272161Y702056D02*
D03*
X249174D02*
D03*
X226187D02*
D03*
D61*
X117602Y670312D02*
D03*
X138430Y679462D02*
D03*
Y661162D02*
D03*
X672592Y97282D02*
D03*
Y115582D02*
D03*
X693420Y106432D02*
D03*
D63*
X70231Y572008D02*
D03*
X30353D02*
D03*
D64*
X165354Y632952D02*
D03*
Y660892D02*
D03*
D67*
X728091Y149606D02*
D03*
X718566Y129286D02*
D03*
X709041Y149606D02*
D03*
D70*
X173482Y595034D02*
D03*
Y578446D02*
D03*
X110490Y422490D02*
D03*
Y439078D02*
D03*
D71*
X708328Y239268D02*
D03*
X679080D02*
D03*
Y248768D02*
D03*
Y229768D02*
D03*
X708328D02*
D03*
Y248768D02*
D03*
D81*
X778032Y153830D02*
D03*
Y173830D02*
D03*
D82*
X751282Y150830D02*
D03*
Y157330D02*
D03*
Y163830D02*
D03*
Y170330D02*
D03*
Y176830D02*
D03*
D83*
X68720Y518204D02*
D03*
X22720D02*
D03*
X45720D02*
D03*
D84*
X689096Y62992D02*
D03*
X669396Y72492D02*
D03*
X669296Y53492D02*
D03*
D85*
X641810Y156798D02*
D03*
X689210Y176798D02*
D03*
Y171798D02*
D03*
Y166798D02*
D03*
Y161798D02*
D03*
Y156798D02*
D03*
Y151798D02*
D03*
Y146798D02*
D03*
X641810D02*
D03*
Y151798D02*
D03*
Y161798D02*
D03*
Y166798D02*
D03*
Y171798D02*
D03*
Y176798D02*
D03*
D86*
X329920Y182730D02*
D03*
X279920Y68730D02*
D03*
X304920D02*
D03*
X284920D02*
D03*
X289920D02*
D03*
X294920D02*
D03*
X299920D02*
D03*
X319920D02*
D03*
X334920D02*
D03*
X339920D02*
D03*
X344920D02*
D03*
X349920D02*
D03*
Y182730D02*
D03*
X339920D02*
D03*
X334920D02*
D03*
X324920D02*
D03*
X319920D02*
D03*
X314920D02*
D03*
X309920D02*
D03*
X294920D02*
D03*
X289920D02*
D03*
X284920D02*
D03*
X279920D02*
D03*
X274920D02*
D03*
X324920Y68730D02*
D03*
X329920D02*
D03*
X344920Y182730D02*
D03*
X304920D02*
D03*
X314920Y68730D02*
D03*
X309920D02*
D03*
X274920D02*
D03*
X299920Y182730D02*
D03*
D87*
X369420Y138230D02*
D03*
Y148230D02*
D03*
Y158230D02*
D03*
X255420D02*
D03*
X369420Y93230D02*
D03*
X255420Y153230D02*
D03*
Y148230D02*
D03*
Y128230D02*
D03*
Y118230D02*
D03*
Y113230D02*
D03*
Y98230D02*
D03*
Y93230D02*
D03*
Y88230D02*
D03*
X369420Y98230D02*
D03*
Y103230D02*
D03*
Y113230D02*
D03*
Y123230D02*
D03*
Y128230D02*
D03*
Y133230D02*
D03*
Y108230D02*
D03*
X255420Y123230D02*
D03*
Y103230D02*
D03*
Y108230D02*
D03*
X369420Y163230D02*
D03*
Y118230D02*
D03*
X255420Y133230D02*
D03*
Y138230D02*
D03*
X369420Y143230D02*
D03*
Y153230D02*
D03*
Y88230D02*
D03*
X255420Y163230D02*
D03*
Y143230D02*
D03*
D88*
X665510Y161798D02*
D03*
D89*
X660510Y185498D02*
D03*
X650510D02*
D03*
X655510D02*
D03*
X665510D02*
D03*
X670510D02*
D03*
X675510D02*
D03*
X680510D02*
D03*
Y138098D02*
D03*
X675510D02*
D03*
X670510D02*
D03*
X665510D02*
D03*
X660510D02*
D03*
X655510D02*
D03*
X650510D02*
D03*
D90*
X207754Y65786D02*
D03*
X173754D02*
D03*
D91*
X130810Y101890D02*
D03*
Y135890D02*
D03*
D92*
X288180Y209550D02*
D03*
X306180D02*
D03*
D93*
X156210Y176982D02*
D03*
Y160782D02*
D03*
D94*
X45720Y460204D02*
D03*
M02*
