G04*
G04 #@! TF.GenerationSoftware,Altium Limited,Altium Designer,26.5.0 (11)*
G04*
G04 Layer_Physical_Order=1*
G04 Layer_Color=255*
G04 Board_Origin=25805118|26780118*
%FSLAX44Y44*%
%MOMM*%
G71*
G04*
G04 #@! TF.SameCoordinates,99D14080-430B-4216-B52D-1A658B347D30*
G04*
G04*
G04 #@! TF.FilePolarity,Positive*
G04*
G01*
G75*
G04:AMPARAMS|DCode=14|XSize=1.22mm|YSize=0.6mm|CornerRadius=0.15mm|HoleSize=0mm|Usage=FLASHONLY|Rotation=270.000|XOffset=0mm|YOffset=0mm|HoleType=Round|Shape=RoundedRectangle|*
%AMROUNDEDRECTD14*
21,1,1.2200,0.3000,0,0,270.0*
21,1,0.9200,0.6000,0,0,270.0*
1,1,0.3000,-0.1500,-0.4600*
1,1,0.3000,-0.1500,0.4600*
1,1,0.3000,0.1500,0.4600*
1,1,0.3000,0.1500,-0.4600*
%
%ADD14ROUNDEDRECTD14*%
%ADD15R,0.8508X0.8588*%
%ADD16R,1.3500X1.0000*%
%ADD17R,1.0000X1.3500*%
%ADD18R,1.0200X1.9000*%
%ADD19R,0.9080X0.2548*%
%ADD20R,1.7526X1.5494*%
%ADD33C,0.2540*%
%ADD34C,0.3000*%
%ADD35C,0.3810*%
%ADD36C,0.6000*%
%ADD37O,1.5500X0.7750*%
%ADD38O,0.9500X1.3000*%
%ADD39C,1.8000*%
%ADD40R,1.8000X1.8000*%
%ADD41C,1.5240*%
%ADD42R,1.5240X1.5240*%
%ADD43R,1.5240X1.5240*%
%ADD44C,6.0000*%
%ADD45C,0.6000*%
G36*
X794902Y641072D02*
X378603D01*
X378208Y640993D01*
X377805Y641009D01*
X372477Y640165D01*
X372099Y640026D01*
X371699Y639978D01*
X366569Y638312D01*
X366218Y638115D01*
X365830Y638005D01*
X361024Y635557D01*
X360707Y635307D01*
X360341Y635139D01*
X355977Y631968D01*
X355704Y631673D01*
X355369Y631449D01*
X351554Y627635D01*
X351330Y627300D01*
X351035Y627026D01*
X347864Y622663D01*
X347695Y622297D01*
X347446Y621981D01*
X344996Y617174D01*
X344887Y616787D01*
X344690Y616435D01*
X343023Y611305D01*
X342975Y610905D01*
X342836Y610527D01*
X342806Y610338D01*
X342764Y610272D01*
X342202Y609796D01*
X340687Y609215D01*
X340637Y609197D01*
X340588Y609218D01*
X252984D01*
X251818Y608734D01*
X251334Y607568D01*
Y588185D01*
X250777Y587628D01*
X209804D01*
X208638Y587144D01*
X208154Y585978D01*
Y466339D01*
X208184Y466267D01*
X208176Y466245D01*
X208342Y465885D01*
X208442Y465409D01*
X208462Y465379D01*
X208586Y465298D01*
X208638Y465173D01*
X208678Y465156D01*
X208704Y465098D01*
X209261Y464583D01*
X209513Y464490D01*
X209696Y464293D01*
X210903Y463742D01*
X211228Y463730D01*
X211523Y463594D01*
X211739Y463586D01*
X211928Y463656D01*
X212126Y463616D01*
X212434Y463677D01*
X212575Y463771D01*
X212744D01*
X212860Y463820D01*
X212987D01*
X213143Y463884D01*
X213308Y463851D01*
X213594Y463908D01*
X233074D01*
X233449Y463834D01*
X233771Y463898D01*
X234093Y463834D01*
X234240Y463863D01*
X262490D01*
Y462060D01*
X271780D01*
Y459520D01*
X262490D01*
Y457937D01*
X235515D01*
X235260Y457831D01*
X235123Y457858D01*
X234678Y457770D01*
X234537Y457676D01*
X234368D01*
X234252Y457628D01*
X234125D01*
X233969Y457563D01*
X233804Y457596D01*
X233680Y457571D01*
X233556Y457596D01*
X233391Y457563D01*
X233235Y457628D01*
X233108D01*
X232992Y457676D01*
X232823D01*
X232682Y457770D01*
X232237Y457858D01*
X232128Y457837D01*
X231777Y457982D01*
X213594D01*
X213308Y458039D01*
X213143Y458006D01*
X212987Y458071D01*
X212860D01*
X212744Y458119D01*
X212575D01*
X212434Y458213D01*
X212126Y458274D01*
X211928Y458235D01*
X211739Y458305D01*
X211523Y458296D01*
X211228Y458160D01*
X210903Y458148D01*
X209696Y457597D01*
X209513Y457401D01*
X209261Y457308D01*
X208704Y456792D01*
X208678Y456734D01*
X208638Y456718D01*
X208586Y456592D01*
X208462Y456512D01*
X208442Y456482D01*
X208342Y456006D01*
X208176Y455645D01*
X208184Y455623D01*
X208154Y455551D01*
Y392253D01*
X208247Y392030D01*
X208221Y391790D01*
X208479Y391468D01*
X208638Y391086D01*
X209124Y390025D01*
X209284Y388904D01*
X172332Y351952D01*
X171931Y352183D01*
X169606Y352806D01*
X167198D01*
X164872Y352183D01*
X162787Y350979D01*
X161085Y349277D01*
X159881Y347192D01*
X159258Y344866D01*
Y342458D01*
X159881Y340132D01*
X161085Y338047D01*
X162787Y336345D01*
X164872Y335141D01*
X165319Y335022D01*
Y229108D01*
X165319Y229108D01*
X165553Y227928D01*
X166222Y226928D01*
X278490Y114660D01*
X279404Y114049D01*
X279432Y113900D01*
X278819Y112049D01*
X250705D01*
X217884Y144870D01*
Y145934D01*
X217195Y147597D01*
X216443Y148349D01*
Y170180D01*
X216443Y170180D01*
X216208Y171360D01*
X215540Y172360D01*
X215540Y172360D01*
X128940Y258960D01*
X129171Y259361D01*
X129794Y261686D01*
Y264094D01*
X129171Y266420D01*
X127967Y268505D01*
X126264Y270207D01*
X124179Y271411D01*
X121854Y272034D01*
X119446D01*
X117121Y271411D01*
X115035Y270207D01*
X113333Y268505D01*
X112129Y266420D01*
X111506Y264094D01*
Y261686D01*
X112129Y259361D01*
X113333Y257276D01*
X115035Y255573D01*
X117121Y254369D01*
X119446Y253746D01*
X121854D01*
X124179Y254369D01*
X124579Y254600D01*
X131077Y248103D01*
X129717Y246634D01*
X127826Y246634D01*
X111506D01*
Y228346D01*
X129794D01*
Y244636D01*
X129794Y246557D01*
X131263Y247917D01*
X210277Y168903D01*
Y148349D01*
X209525Y147597D01*
X208836Y145934D01*
Y144134D01*
X209525Y142471D01*
X210797Y141199D01*
X212460Y140510D01*
X213524D01*
X247248Y106786D01*
X247248Y106786D01*
X248248Y106117D01*
X249428Y105883D01*
X432047D01*
X447088Y90842D01*
Y89778D01*
X447777Y88115D01*
X449049Y86843D01*
X450712Y86154D01*
X452512D01*
X454175Y86843D01*
X455447Y88115D01*
X456136Y89778D01*
Y91578D01*
X455447Y93241D01*
X454175Y94513D01*
X452512Y95202D01*
X451448D01*
X435504Y111146D01*
X434504Y111814D01*
X433324Y112049D01*
X433324Y112049D01*
X333366D01*
X332537Y114049D01*
X332765Y114277D01*
X333454Y115940D01*
Y116714D01*
X423672D01*
X424838Y117198D01*
X425322Y118364D01*
Y153464D01*
X425334D01*
X426997Y154153D01*
X428269Y155425D01*
X428958Y157088D01*
Y158888D01*
X428269Y160551D01*
X426997Y161823D01*
X425334Y162512D01*
X423534D01*
X421871Y161823D01*
X420599Y160551D01*
X419910Y158888D01*
Y158114D01*
X411686D01*
Y159142D01*
X410997Y160805D01*
X409725Y162077D01*
X408062Y162766D01*
X406262D01*
X404599Y162077D01*
X403327Y160805D01*
X402638Y159142D01*
Y158114D01*
X351234D01*
Y159650D01*
X350545Y161313D01*
X349273Y162585D01*
X347610Y163274D01*
X345810D01*
X344147Y162585D01*
X343162Y162958D01*
X342212Y165152D01*
X342344Y165470D01*
Y167270D01*
X341655Y168933D01*
X340383Y170205D01*
X338720Y170894D01*
X336920D01*
X335257Y170205D01*
X334918Y169866D01*
X298628D01*
X248098Y220396D01*
Y334518D01*
X253746D01*
Y347862D01*
X279070Y373186D01*
X371323D01*
X371699Y371278D01*
X366568Y369611D01*
X366217Y369414D01*
X365829Y369305D01*
X361022Y366856D01*
X360706Y366606D01*
X360340Y366438D01*
X355976Y363267D01*
X355702Y362971D01*
X355367Y362747D01*
X351553Y358933D01*
X351329Y358598D01*
X351033Y358324D01*
X347862Y353960D01*
X347693Y353594D01*
X347444Y353278D01*
X344995Y348471D01*
X344886Y348083D01*
X344689Y347732D01*
X343022Y342601D01*
X342974Y342201D01*
X342835Y341823D01*
X341991Y336495D01*
X342007Y336092D01*
X341928Y335697D01*
Y330303D01*
X342007Y329907D01*
X341991Y329505D01*
X342835Y324177D01*
X342974Y323799D01*
X343022Y323399D01*
X344689Y318268D01*
X344886Y317917D01*
X344995Y317529D01*
X347444Y312722D01*
X347693Y312406D01*
X347862Y312040D01*
X351033Y307676D01*
X351329Y307402D01*
X351553Y307067D01*
X355367Y303253D01*
X355702Y303029D01*
X355976Y302733D01*
X360340Y299562D01*
X360706Y299394D01*
X361022Y299144D01*
X365829Y296695D01*
X366217Y296586D01*
X366568Y296389D01*
X371699Y294722D01*
X372099Y294674D01*
X372477Y294535D01*
X377805Y293691D01*
X378208Y293707D01*
X378603Y293628D01*
X794902D01*
Y5098D01*
X633666D01*
X633615Y7077D01*
X633615Y7077D01*
X634795Y7311D01*
X635796Y7980D01*
X663850Y36034D01*
X663850Y36034D01*
X664519Y37035D01*
X664753Y38214D01*
X664753Y38215D01*
Y78981D01*
X665505Y79733D01*
X666194Y81396D01*
Y83196D01*
X665505Y84859D01*
X664233Y86131D01*
X662570Y86820D01*
X660770D01*
X659107Y86131D01*
X657835Y84859D01*
X657146Y83196D01*
Y81396D01*
X657835Y79733D01*
X658587Y78981D01*
Y39492D01*
X633672Y14577D01*
X633155Y14675D01*
X631904Y16880D01*
Y18680D01*
X631215Y20343D01*
X629943Y21615D01*
X628280Y22304D01*
X626480D01*
X624817Y21615D01*
X624065Y20863D01*
X611893D01*
X580171Y52585D01*
Y89154D01*
X579936Y90334D01*
X579268Y91334D01*
X579268Y91334D01*
X554376Y116226D01*
X553376Y116895D01*
X552196Y117129D01*
X552196Y117129D01*
X535699D01*
X534947Y117881D01*
X533284Y118570D01*
X531484D01*
X529821Y117881D01*
X528549Y116609D01*
X527860Y114946D01*
Y113146D01*
X528549Y111483D01*
X529821Y110211D01*
X531484Y109522D01*
X533284D01*
X534947Y110211D01*
X535699Y110963D01*
X550919D01*
X574005Y87877D01*
Y51308D01*
X574005Y51308D01*
X574240Y50128D01*
X574908Y49128D01*
X608436Y15600D01*
X608969Y15243D01*
X608452Y13243D01*
X181109D01*
X165770Y28582D01*
X166001Y28983D01*
X166624Y31308D01*
Y33716D01*
X166001Y36042D01*
X164797Y38126D01*
X163095Y39829D01*
X161010Y41033D01*
X158684Y41656D01*
X156276D01*
X153951Y41033D01*
X151866Y39829D01*
X150163Y38126D01*
X148959Y36042D01*
X148336Y33716D01*
Y31308D01*
X148959Y28983D01*
X150163Y26897D01*
X151866Y25195D01*
X153951Y23991D01*
X156276Y23368D01*
X158684D01*
X161010Y23991D01*
X161409Y24222D01*
X177652Y7980D01*
X178652Y7311D01*
X179832Y7077D01*
X179832Y7077D01*
X179781Y5098D01*
X5098D01*
Y744902D01*
X794902D01*
Y641072D01*
D02*
G37*
G36*
X342097Y605867D02*
X341991Y605199D01*
X342007Y604797D01*
X341929Y604402D01*
X341928Y599007D01*
X342006Y598613D01*
X341991Y598210D01*
X342834Y592882D01*
X342973Y592504D01*
X343020Y592104D01*
X344687Y586973D01*
X344883Y586622D01*
X344993Y586235D01*
X347441Y581428D01*
X347690Y581111D01*
X347859Y580746D01*
X351029Y576381D01*
X351324Y576107D01*
X351548Y575773D01*
X355362Y571957D01*
X355697Y571734D01*
X355970Y571438D01*
X360334Y568266D01*
X360699Y568097D01*
X361016Y567848D01*
X365821Y565398D01*
X366209Y565289D01*
X366560Y565092D01*
X371690Y563424D01*
X372090Y563376D01*
X372468Y563237D01*
X377796Y562392D01*
X378198Y562408D01*
X378593Y562329D01*
X381291Y562328D01*
X381295Y562329D01*
X381300Y562328D01*
X794794D01*
X794902Y562220D01*
Y372372D01*
X449091Y372372D01*
X448482Y373690D01*
X448404Y374372D01*
X461924Y387892D01*
X487462D01*
X487800Y387959D01*
X497281D01*
Y410007D01*
X484033D01*
Y394884D01*
X460476D01*
X459138Y394618D01*
X458004Y393860D01*
X458004Y393860D01*
X444322Y380178D01*
X433010D01*
X432245Y382026D01*
X438178Y387959D01*
X446481D01*
Y410007D01*
X433233D01*
Y392903D01*
X426096Y385766D01*
X347410D01*
X345897Y386943D01*
X345897Y387766D01*
Y397713D01*
X330617D01*
Y387766D01*
X330617Y386943D01*
X329104Y385766D01*
X257810D01*
X257810Y385766D01*
X256472Y385500D01*
X255338Y384742D01*
X255338Y384742D01*
X222761Y352166D01*
X222731Y352183D01*
X220406Y352806D01*
X217998D01*
X215672Y352183D01*
X213587Y350979D01*
X211885Y349277D01*
X210681Y347192D01*
X210058Y344866D01*
Y342458D01*
X210681Y340132D01*
X211885Y338047D01*
X213587Y336345D01*
X215672Y335141D01*
X215706Y335132D01*
Y236728D01*
X215972Y235390D01*
X216730Y234256D01*
X294708Y156278D01*
X294708Y156278D01*
X295842Y155520D01*
X297180Y155254D01*
X297180Y155254D01*
X343808D01*
X344147Y154915D01*
X345810Y154226D01*
X347610D01*
X349273Y154915D01*
X350545Y156187D01*
X350660Y156464D01*
X403002D01*
X403327Y155679D01*
X404599Y154407D01*
X406262Y153718D01*
X408062D01*
X409725Y154407D01*
X410997Y155679D01*
X411322Y156464D01*
X420168D01*
X420599Y155425D01*
X421871Y154153D01*
X423534Y153464D01*
X423672D01*
Y118364D01*
X333195D01*
X332765Y119403D01*
X331493Y120675D01*
X329830Y121364D01*
X328030D01*
X326367Y120675D01*
X325615Y119923D01*
X281947D01*
X171485Y230385D01*
Y335022D01*
X171931Y335141D01*
X174016Y336345D01*
X175719Y338047D01*
X176923Y340132D01*
X177546Y342458D01*
Y344866D01*
X176923Y347192D01*
X176692Y347592D01*
X241307Y412207D01*
X329108Y412207D01*
X330617Y410207D01*
Y400253D01*
X345897D01*
Y410207D01*
X345897Y411023D01*
X347407Y412207D01*
X422910Y412207D01*
X422910Y412207D01*
X424090Y412441D01*
X425090Y413110D01*
X440880Y428899D01*
X458633D01*
Y420959D01*
X471881D01*
Y443007D01*
X458633D01*
Y435066D01*
X439603D01*
X438423Y434831D01*
X437423Y434163D01*
X437422Y434163D01*
X421633Y418373D01*
X372336Y418373D01*
X371297Y420373D01*
Y430713D01*
X356017D01*
Y420373D01*
X356017Y419943D01*
X354978Y418373D01*
X240030Y418373D01*
X238850Y418139D01*
X237850Y417470D01*
X237850Y417470D01*
X211632Y391252D01*
X209804Y392253D01*
Y455551D01*
X209824Y455581D01*
X210382Y456097D01*
X211588Y456648D01*
X211804Y456656D01*
X212112Y456595D01*
X212532Y456421D01*
X212987D01*
X213432Y456333D01*
X231777D01*
X231915Y456241D01*
X232360Y456152D01*
X232780Y455978D01*
X233235D01*
X233680Y455889D01*
X234125Y455978D01*
X234580D01*
X235000Y456152D01*
X235445Y456241D01*
X235515Y456287D01*
X263506D01*
Y454266D01*
X280054D01*
Y456287D01*
X285858D01*
Y453868D01*
X302406D01*
Y466916D01*
X285858D01*
Y465513D01*
X280054D01*
Y467314D01*
X263506D01*
Y465513D01*
X234078D01*
X233771Y465452D01*
X233237Y465558D01*
X213432D01*
X212987Y465469D01*
X212532D01*
X212112Y465295D01*
X211804Y465234D01*
X211588Y465243D01*
X210382Y465794D01*
X209824Y466309D01*
X209804Y466339D01*
Y585978D01*
X251460D01*
X252984Y587502D01*
Y607568D01*
X340588D01*
X342097Y605867D01*
D02*
G37*
%LPC*%
G36*
X295286Y720804D02*
X293486D01*
X291823Y720115D01*
X290551Y718843D01*
X289862Y717180D01*
Y715380D01*
X290551Y713717D01*
X291823Y712445D01*
X293486Y711756D01*
X295286D01*
X296949Y712445D01*
X298221Y713717D01*
X298910Y715380D01*
Y717180D01*
X298221Y718843D01*
X296949Y720115D01*
X295286Y720804D01*
D02*
G37*
G36*
X317638Y720296D02*
X315838D01*
X314175Y719607D01*
X312903Y718335D01*
X312214Y716672D01*
Y714872D01*
X312903Y713209D01*
X314175Y711937D01*
X315838Y711248D01*
X317638D01*
X319301Y711937D01*
X320573Y713209D01*
X321262Y714872D01*
Y716672D01*
X320573Y718335D01*
X319301Y719607D01*
X317638Y720296D01*
D02*
G37*
G36*
X53335Y713088D02*
X53086D01*
Y702818D01*
X63356D01*
Y703067D01*
X62569Y706002D01*
X61050Y708634D01*
X58902Y710782D01*
X56270Y712301D01*
X53335Y713088D01*
D02*
G37*
G36*
X50546D02*
X50297D01*
X47362Y712301D01*
X44730Y710782D01*
X42582Y708634D01*
X41062Y706002D01*
X40276Y703067D01*
Y702818D01*
X50546D01*
Y713088D01*
D02*
G37*
G36*
X63356Y700278D02*
X53086D01*
Y690008D01*
X53335D01*
X56270Y690795D01*
X58902Y692314D01*
X61050Y694462D01*
X62569Y697094D01*
X63356Y700029D01*
Y700278D01*
D02*
G37*
G36*
X50546D02*
X40276D01*
Y700029D01*
X41062Y697094D01*
X42582Y694462D01*
X44730Y692314D01*
X47362Y690795D01*
X50297Y690008D01*
X50546D01*
Y700278D01*
D02*
G37*
G36*
X78601Y686672D02*
X75830D01*
X73154Y685955D01*
X70754Y684569D01*
X68795Y682610D01*
X67409Y680210D01*
X66692Y677533D01*
Y674762D01*
X67409Y672086D01*
X68795Y669686D01*
X70754Y667727D01*
X73154Y666341D01*
X75830Y665624D01*
X78601D01*
X81278Y666341D01*
X83678Y667727D01*
X85637Y669686D01*
X87023Y672086D01*
X87740Y674762D01*
Y677533D01*
X87023Y680210D01*
X85637Y682610D01*
X83678Y684569D01*
X81278Y685955D01*
X78601Y686672D01*
D02*
G37*
G36*
X752481Y716524D02*
X747519D01*
X742618Y715748D01*
X737899Y714214D01*
X733478Y711962D01*
X729464Y709045D01*
X725955Y705536D01*
X723038Y701522D01*
X720786Y697101D01*
X719252Y692382D01*
X718476Y687481D01*
Y682519D01*
X719252Y677618D01*
X720786Y672899D01*
X723038Y668478D01*
X725955Y664464D01*
X729464Y660955D01*
X733478Y658038D01*
X737899Y655786D01*
X742618Y654252D01*
X747519Y653476D01*
X752481D01*
X757382Y654252D01*
X762101Y655786D01*
X766522Y658038D01*
X770536Y660955D01*
X774045Y664464D01*
X776962Y668478D01*
X779214Y672899D01*
X780748Y677618D01*
X781524Y682519D01*
Y687481D01*
X780748Y692382D01*
X779214Y697101D01*
X776962Y701522D01*
X774045Y705536D01*
X770536Y709045D01*
X766522Y711962D01*
X762101Y714214D01*
X757382Y715748D01*
X752481Y716524D01*
D02*
G37*
G36*
X88756Y662288D02*
X78486D01*
Y652018D01*
X88756D01*
Y662288D01*
D02*
G37*
G36*
X75946D02*
X65676D01*
Y652018D01*
X75946D01*
Y662288D01*
D02*
G37*
G36*
X88756Y649478D02*
X78486D01*
Y639208D01*
X88756D01*
Y649478D01*
D02*
G37*
G36*
X75946D02*
X65676D01*
Y639208D01*
X75946D01*
Y649478D01*
D02*
G37*
G36*
X53335Y636888D02*
X53086D01*
Y626618D01*
X63356D01*
Y626867D01*
X62569Y629802D01*
X61050Y632434D01*
X58902Y634582D01*
X56270Y636101D01*
X53335Y636888D01*
D02*
G37*
G36*
X50546D02*
X50297D01*
X47362Y636101D01*
X44730Y634582D01*
X42582Y632434D01*
X41062Y629802D01*
X40276Y626867D01*
Y626618D01*
X50546D01*
Y636888D01*
D02*
G37*
G36*
X63356Y624078D02*
X53086D01*
Y613808D01*
X53335D01*
X56270Y614594D01*
X58902Y616114D01*
X61050Y618262D01*
X62569Y620894D01*
X63356Y623829D01*
Y624078D01*
D02*
G37*
G36*
X50546D02*
X40276D01*
Y623829D01*
X41062Y620894D01*
X42582Y618262D01*
X44730Y616114D01*
X47362Y614594D01*
X50297Y613808D01*
X50546D01*
Y624078D01*
D02*
G37*
G36*
X245450Y604310D02*
X243651D01*
X241988Y603621D01*
X240715Y602348D01*
X240026Y600686D01*
Y598886D01*
X240715Y597223D01*
X241988Y595950D01*
X243651Y595262D01*
X245450D01*
X247113Y595950D01*
X248386Y597223D01*
X249074Y598886D01*
Y600686D01*
X248386Y602348D01*
X247113Y603621D01*
X245450Y604310D01*
D02*
G37*
G36*
X225450D02*
X223651D01*
X221988Y603621D01*
X220715Y602348D01*
X220026Y600686D01*
Y598886D01*
X220715Y597223D01*
X221988Y595950D01*
X223651Y595262D01*
X225450D01*
X227113Y595950D01*
X228386Y597223D01*
X229074Y598886D01*
Y600686D01*
X228386Y602348D01*
X227113Y603621D01*
X225450Y604310D01*
D02*
G37*
G36*
X95450Y584310D02*
X93651D01*
X91988Y583621D01*
X90715Y582348D01*
X90026Y580686D01*
Y578886D01*
X90715Y577223D01*
X91988Y575950D01*
X93651Y575262D01*
X95450D01*
X97113Y575950D01*
X98386Y577223D01*
X99074Y578886D01*
Y580686D01*
X98386Y582348D01*
X97113Y583621D01*
X95450Y584310D01*
D02*
G37*
G36*
X105450Y564310D02*
X103651D01*
X101988Y563621D01*
X100715Y562348D01*
X100026Y560686D01*
Y558886D01*
X100715Y557223D01*
X101988Y555950D01*
X103651Y555262D01*
X105450D01*
X107113Y555950D01*
X108386Y557223D01*
X109074Y558886D01*
Y560686D01*
X108386Y562348D01*
X107113Y563621D01*
X105450Y564310D01*
D02*
G37*
G36*
X95450Y544310D02*
X93651D01*
X91988Y543621D01*
X90715Y542348D01*
X90026Y540686D01*
Y538886D01*
X90715Y537223D01*
X91988Y535950D01*
X93651Y535262D01*
X95450D01*
X97113Y535950D01*
X98386Y537223D01*
X99074Y538886D01*
Y540686D01*
X98386Y542348D01*
X97113Y543621D01*
X95450Y544310D01*
D02*
G37*
G36*
X162481Y498874D02*
X157519D01*
X152618Y498098D01*
X147899Y496564D01*
X143478Y494312D01*
X139464Y491395D01*
X135955Y487887D01*
X133038Y483872D01*
X130786Y479451D01*
X129252Y474732D01*
X128476Y469831D01*
Y464869D01*
X129252Y459968D01*
X130786Y455249D01*
X133038Y450828D01*
X135955Y446814D01*
X139464Y443305D01*
X143478Y440388D01*
X147899Y438135D01*
X152618Y436602D01*
X157519Y435826D01*
X162481D01*
X167382Y436602D01*
X172101Y438135D01*
X176522Y440388D01*
X180536Y443305D01*
X184045Y446814D01*
X186962Y450828D01*
X189214Y455249D01*
X190748Y459968D01*
X191524Y464869D01*
Y469831D01*
X190748Y474732D01*
X189214Y479451D01*
X186962Y483872D01*
X184045Y487887D01*
X180536Y491395D01*
X176522Y494312D01*
X172101Y496564D01*
X167382Y498098D01*
X162481Y498874D01*
D02*
G37*
G36*
X99198Y436578D02*
X97398D01*
X95735Y435889D01*
X94463Y434617D01*
X93774Y432954D01*
Y431154D01*
X94463Y429491D01*
X95735Y428219D01*
X97398Y427530D01*
X99198D01*
X100861Y428219D01*
X102133Y429491D01*
X102822Y431154D01*
Y432954D01*
X102133Y434617D01*
X100861Y435889D01*
X99198Y436578D01*
D02*
G37*
G36*
X42159Y420480D02*
X41910D01*
Y410210D01*
X52180D01*
Y410459D01*
X51393Y413394D01*
X49874Y416026D01*
X47726Y418174D01*
X45094Y419693D01*
X42159Y420480D01*
D02*
G37*
G36*
X39370D02*
X39121D01*
X36186Y419693D01*
X33554Y418174D01*
X31406Y416026D01*
X29887Y413394D01*
X29100Y410459D01*
Y410210D01*
X39370D01*
Y420480D01*
D02*
G37*
G36*
X52180Y407670D02*
X41910D01*
Y397400D01*
X42159D01*
X45094Y398186D01*
X47726Y399706D01*
X49874Y401854D01*
X51393Y404486D01*
X52180Y407421D01*
Y407670D01*
D02*
G37*
G36*
X39370D02*
X29100D01*
Y407421D01*
X29887Y404486D01*
X31406Y401854D01*
X33554Y399706D01*
X36186Y398186D01*
X39121Y397400D01*
X39370D01*
Y407670D01*
D02*
G37*
G36*
X97674Y394922D02*
X95874D01*
X94211Y394233D01*
X92939Y392961D01*
X92250Y391298D01*
Y389498D01*
X92939Y387835D01*
X94211Y386563D01*
X95874Y385874D01*
X97674D01*
X99337Y386563D01*
X100609Y387835D01*
X101298Y389498D01*
Y391298D01*
X100609Y392961D01*
X99337Y394233D01*
X97674Y394922D01*
D02*
G37*
G36*
X51164Y394064D02*
X30116D01*
Y373016D01*
X51164D01*
Y394064D01*
D02*
G37*
G36*
X114184Y377650D02*
X112384D01*
X110721Y376961D01*
X109449Y375689D01*
X108760Y374026D01*
Y372226D01*
X109449Y370563D01*
X110721Y369291D01*
X112384Y368602D01*
X114184D01*
X115847Y369291D01*
X117119Y370563D01*
X117808Y372226D01*
Y374026D01*
X117119Y375689D01*
X115847Y376961D01*
X114184Y377650D01*
D02*
G37*
G36*
X42025Y368664D02*
X39255D01*
X36578Y367947D01*
X34178Y366561D01*
X32219Y364602D01*
X30833Y362202D01*
X30116Y359525D01*
Y356754D01*
X30833Y354078D01*
X32219Y351678D01*
X34178Y349719D01*
X36578Y348333D01*
X39255Y347616D01*
X42025D01*
X44702Y348333D01*
X47102Y349719D01*
X49061Y351678D01*
X50447Y354078D01*
X51164Y356754D01*
Y359525D01*
X50447Y362202D01*
X49061Y364602D01*
X47102Y366561D01*
X44702Y367947D01*
X42025Y368664D01*
D02*
G37*
G36*
X118940Y353822D02*
X118872D01*
Y344932D01*
X127762D01*
Y345000D01*
X127070Y347584D01*
X125732Y349900D01*
X123840Y351792D01*
X121524Y353130D01*
X118940Y353822D01*
D02*
G37*
G36*
X116332D02*
X116264D01*
X113680Y353130D01*
X111364Y351792D01*
X109472Y349900D01*
X108134Y347584D01*
X107442Y345000D01*
Y344932D01*
X116332D01*
Y353822D01*
D02*
G37*
G36*
X144206Y352806D02*
X141798D01*
X139473Y352183D01*
X137388Y350979D01*
X135685Y349277D01*
X134481Y347192D01*
X133858Y344866D01*
Y342458D01*
X134481Y340132D01*
X135685Y338047D01*
X137388Y336345D01*
X139473Y335141D01*
X141798Y334518D01*
X144206D01*
X146531Y335141D01*
X148617Y336345D01*
X150319Y338047D01*
X151523Y340132D01*
X152146Y342458D01*
Y344866D01*
X151523Y347192D01*
X150319Y349277D01*
X148617Y350979D01*
X146531Y352183D01*
X144206Y352806D01*
D02*
G37*
G36*
X127762Y342392D02*
X118872D01*
Y333502D01*
X118940D01*
X121524Y334194D01*
X123840Y335532D01*
X125732Y337424D01*
X127070Y339740D01*
X127762Y342324D01*
Y342392D01*
D02*
G37*
G36*
X116332D02*
X107442D01*
Y342324D01*
X108134Y339740D01*
X109472Y337424D01*
X111364Y335532D01*
X113680Y334194D01*
X116264Y333502D01*
X116332D01*
Y342392D01*
D02*
G37*
G36*
X42025Y343264D02*
X39255D01*
X36578Y342547D01*
X34178Y341161D01*
X32219Y339202D01*
X30833Y336802D01*
X30116Y334126D01*
Y331354D01*
X30833Y328678D01*
X32219Y326278D01*
X34178Y324319D01*
X36578Y322933D01*
X39255Y322216D01*
X42025D01*
X44702Y322933D01*
X47102Y324319D01*
X49061Y326278D01*
X50447Y328678D01*
X51164Y331354D01*
Y334126D01*
X50447Y336802D01*
X49061Y339202D01*
X47102Y341161D01*
X44702Y342547D01*
X42025Y343264D01*
D02*
G37*
G36*
Y317864D02*
X39255D01*
X36578Y317147D01*
X34178Y315761D01*
X32219Y313802D01*
X30833Y311402D01*
X30116Y308725D01*
Y305954D01*
X30833Y303278D01*
X32219Y300878D01*
X34178Y298919D01*
X36578Y297533D01*
X39255Y296816D01*
X42025D01*
X44702Y297533D01*
X47102Y298919D01*
X49061Y300878D01*
X50447Y303278D01*
X51164Y305954D01*
Y308725D01*
X50447Y311402D01*
X49061Y313802D01*
X47102Y315761D01*
X44702Y317147D01*
X42025Y317864D01*
D02*
G37*
G36*
X121988Y298450D02*
X121920D01*
Y289560D01*
X130810D01*
Y289628D01*
X130118Y292212D01*
X128780Y294528D01*
X126888Y296420D01*
X124572Y297758D01*
X121988Y298450D01*
D02*
G37*
G36*
X119380D02*
X119312D01*
X116728Y297758D01*
X114412Y296420D01*
X112520Y294528D01*
X111182Y292212D01*
X110490Y289628D01*
Y289560D01*
X119380D01*
Y298450D01*
D02*
G37*
G36*
X313828Y291036D02*
X312028D01*
X310365Y290347D01*
X309093Y289075D01*
X308404Y287412D01*
Y285612D01*
X309093Y283949D01*
X310365Y282677D01*
X312028Y281988D01*
X313828D01*
X315491Y282677D01*
X316763Y283949D01*
X317452Y285612D01*
Y287412D01*
X316763Y289075D01*
X315491Y290347D01*
X313828Y291036D01*
D02*
G37*
G36*
X130810Y287020D02*
X121920D01*
Y278130D01*
X121988D01*
X124572Y278822D01*
X126888Y280160D01*
X128780Y282052D01*
X130118Y284368D01*
X130810Y286952D01*
Y287020D01*
D02*
G37*
G36*
X119380D02*
X110490D01*
Y286952D01*
X111182Y284368D01*
X112520Y282052D01*
X114412Y280160D01*
X116728Y278822D01*
X119312Y278130D01*
X119380D01*
Y287020D01*
D02*
G37*
G36*
X330592Y274526D02*
X328792D01*
X327129Y273837D01*
X325857Y272565D01*
X325168Y270902D01*
Y269102D01*
X325857Y267439D01*
X327129Y266167D01*
X328792Y265478D01*
X330592D01*
X332255Y266167D01*
X333527Y267439D01*
X334216Y269102D01*
Y270902D01*
X333527Y272565D01*
X332255Y273837D01*
X330592Y274526D01*
D02*
G37*
G36*
X766964Y265382D02*
X765164D01*
X763501Y264693D01*
X762229Y263421D01*
X761540Y261758D01*
Y259958D01*
X762229Y258295D01*
X763501Y257023D01*
X765164Y256334D01*
X766964D01*
X768627Y257023D01*
X769899Y258295D01*
X770588Y259958D01*
Y261758D01*
X769899Y263421D01*
X768627Y264693D01*
X766964Y265382D01*
D02*
G37*
G36*
X691272Y253952D02*
X689472D01*
X687809Y253263D01*
X686537Y251991D01*
X685848Y250328D01*
Y248528D01*
X686537Y246865D01*
X687809Y245593D01*
X687895Y245557D01*
Y243393D01*
X687809Y243357D01*
X686537Y242085D01*
X685848Y240422D01*
Y238622D01*
X686537Y236959D01*
X687809Y235687D01*
X689472Y234998D01*
X691272D01*
X692935Y235687D01*
X694207Y236959D01*
X694896Y238622D01*
Y240422D01*
X694207Y242085D01*
X692935Y243357D01*
X692849Y243393D01*
Y245557D01*
X692935Y245593D01*
X694207Y246865D01*
X694896Y248528D01*
Y250328D01*
X694207Y251991D01*
X692935Y253263D01*
X691272Y253952D01*
D02*
G37*
G36*
X767218Y236680D02*
X765418D01*
X763755Y235991D01*
X762483Y234719D01*
X761794Y233056D01*
Y231256D01*
X762483Y229593D01*
X763755Y228321D01*
X765418Y227632D01*
X767218D01*
X768881Y228321D01*
X770153Y229593D01*
X770842Y231256D01*
Y233056D01*
X770153Y234719D01*
X768881Y235991D01*
X767218Y236680D01*
D02*
G37*
G36*
X42025Y292464D02*
X39255D01*
X36578Y291747D01*
X34178Y290361D01*
X32219Y288402D01*
X30833Y286002D01*
X30116Y283326D01*
Y280555D01*
X30833Y277878D01*
X32219Y275478D01*
X34178Y273519D01*
X36578Y272133D01*
X39255Y271416D01*
X42025D01*
X44702Y272133D01*
X45580Y272640D01*
X78101Y240119D01*
Y223064D01*
X76253Y222299D01*
X48768Y249785D01*
X49061Y250078D01*
X50447Y252478D01*
X51164Y255154D01*
Y257925D01*
X50447Y260602D01*
X49061Y263002D01*
X47102Y264961D01*
X44702Y266347D01*
X42025Y267064D01*
X39255D01*
X36578Y266347D01*
X34178Y264961D01*
X32219Y263002D01*
X30833Y260602D01*
X30116Y257925D01*
Y255154D01*
X30833Y252478D01*
X32219Y250078D01*
X34178Y248119D01*
X36578Y246733D01*
X39255Y246016D01*
X42025D01*
X43437Y246394D01*
X73577Y216255D01*
Y205177D01*
X71729Y204411D01*
X49940Y226200D01*
X50447Y227078D01*
X51164Y229755D01*
Y232526D01*
X50447Y235202D01*
X49061Y237602D01*
X47102Y239561D01*
X44702Y240947D01*
X42025Y241664D01*
X39255D01*
X36578Y240947D01*
X34178Y239561D01*
X32219Y237602D01*
X30833Y235202D01*
X30116Y232526D01*
Y229755D01*
X30833Y227078D01*
X32219Y224678D01*
X34178Y222719D01*
X36578Y221333D01*
X39255Y220616D01*
X42025D01*
X44702Y221333D01*
X45580Y221840D01*
X69053Y198367D01*
Y134620D01*
X69053Y134620D01*
X69288Y133440D01*
X69956Y132440D01*
X105770Y96626D01*
X105770Y96626D01*
X106770Y95957D01*
X107950Y95723D01*
X107950Y95723D01*
X179565D01*
X180317Y94971D01*
X181980Y94282D01*
X183780D01*
X185443Y94971D01*
X186715Y96243D01*
X187404Y97906D01*
Y99706D01*
X186715Y101369D01*
X185443Y102641D01*
X183780Y103330D01*
X181980D01*
X180317Y102641D01*
X179524Y102903D01*
X178260Y104764D01*
Y106564D01*
X177571Y108227D01*
X176299Y109499D01*
X174636Y110188D01*
X172836D01*
X171468Y109621D01*
X170553Y110183D01*
X169855Y110953D01*
X170132Y111622D01*
Y113422D01*
X169443Y115085D01*
X168171Y116357D01*
X166508Y117046D01*
X164708D01*
X163045Y116357D01*
X162001Y115313D01*
X108599D01*
X84267Y139645D01*
Y241396D01*
X84267Y241396D01*
X84032Y242576D01*
X83364Y243576D01*
X49940Y277000D01*
X50447Y277878D01*
X51164Y280555D01*
Y283326D01*
X50447Y286002D01*
X49061Y288402D01*
X47102Y290361D01*
X44702Y291747D01*
X42025Y292464D01*
D02*
G37*
G36*
X398918Y223980D02*
X397118D01*
X395455Y223291D01*
X394183Y222019D01*
X393494Y220356D01*
Y218556D01*
X394183Y216893D01*
X395455Y215621D01*
X397118Y214932D01*
X398918D01*
X400581Y215621D01*
X401853Y216893D01*
X402542Y218556D01*
Y220356D01*
X401853Y222019D01*
X400581Y223291D01*
X398918Y223980D01*
D02*
G37*
G36*
X414920Y214582D02*
X413120D01*
X411457Y213893D01*
X410185Y212621D01*
X409496Y210958D01*
Y209158D01*
X410185Y207495D01*
X411457Y206223D01*
X413120Y205534D01*
X414920D01*
X416583Y206223D01*
X417855Y207495D01*
X418544Y209158D01*
Y210958D01*
X417855Y212621D01*
X416583Y213893D01*
X414920Y214582D01*
D02*
G37*
G36*
X781907Y205371D02*
X779302D01*
Y200100D01*
X788195D01*
X787950Y201333D01*
X786532Y203455D01*
X784410Y204873D01*
X781907Y205371D01*
D02*
G37*
G36*
X776762D02*
X774157D01*
X771654Y204873D01*
X769532Y203455D01*
X768114Y201333D01*
X767869Y200100D01*
X776762D01*
Y205371D01*
D02*
G37*
G36*
X42025Y216264D02*
X39255D01*
X36578Y215547D01*
X34178Y214161D01*
X32219Y212202D01*
X30833Y209802D01*
X30116Y207125D01*
Y204354D01*
X30833Y201678D01*
X32219Y199278D01*
X34178Y197319D01*
X36578Y195933D01*
X39255Y195216D01*
X42025D01*
X44702Y195933D01*
X47102Y197319D01*
X49061Y199278D01*
X50447Y201678D01*
X51164Y204354D01*
Y207125D01*
X50447Y209802D01*
X49061Y212202D01*
X47102Y214161D01*
X44702Y215547D01*
X42025Y216264D01*
D02*
G37*
G36*
X788195Y197560D02*
X779302D01*
Y192289D01*
X781907D01*
X784410Y192787D01*
X786532Y194205D01*
X787950Y196327D01*
X788195Y197560D01*
D02*
G37*
G36*
X776762D02*
X767869D01*
X768114Y196327D01*
X769532Y194205D01*
X771654Y192787D01*
X774157Y192289D01*
X776762D01*
Y197560D01*
D02*
G37*
G36*
X752302Y197766D02*
Y190100D01*
X758385D01*
Y190580D01*
X758134Y192483D01*
X757400Y194256D01*
X756231Y195779D01*
X754708Y196948D01*
X752935Y197682D01*
X752302Y197766D01*
D02*
G37*
G36*
X749762Y197766D02*
X749129Y197682D01*
X747355Y196948D01*
X745833Y195779D01*
X744664Y194256D01*
X743930Y192483D01*
X743679Y190580D01*
Y190100D01*
X749762D01*
Y197766D01*
D02*
G37*
G36*
X700924Y190452D02*
X699124D01*
X697461Y189763D01*
X696603Y188905D01*
X695660Y188571D01*
X694152Y188800D01*
X693443Y189509D01*
X691780Y190198D01*
X689980D01*
X688317Y189509D01*
X687045Y188237D01*
X686356Y186574D01*
Y184774D01*
X687045Y183111D01*
X688317Y181839D01*
X689980Y181150D01*
X691780D01*
X693443Y181839D01*
X694301Y182697D01*
X695244Y183031D01*
X696752Y182802D01*
X697461Y182093D01*
X699124Y181404D01*
X700924D01*
X702587Y182093D01*
X703859Y183365D01*
X704548Y185028D01*
Y186828D01*
X703859Y188491D01*
X702587Y189763D01*
X700924Y190452D01*
D02*
G37*
G36*
X548962Y196088D02*
X548894D01*
Y187198D01*
X557784D01*
Y187266D01*
X557092Y189850D01*
X555754Y192166D01*
X553862Y194058D01*
X551546Y195396D01*
X548962Y196088D01*
D02*
G37*
G36*
X546354D02*
X546286D01*
X543702Y195396D01*
X541386Y194058D01*
X539494Y192166D01*
X538156Y189850D01*
X537464Y187266D01*
Y187198D01*
X546354D01*
Y196088D01*
D02*
G37*
G36*
X113676Y200358D02*
X111876D01*
X110213Y199669D01*
X108941Y198397D01*
X108252Y196734D01*
Y194934D01*
X108941Y193271D01*
X110084Y192128D01*
X110153Y191008D01*
X110084Y189888D01*
X108941Y188745D01*
X108252Y187082D01*
Y185282D01*
X108941Y183619D01*
X110213Y182347D01*
X111876Y181658D01*
X113676D01*
X115339Y182347D01*
X116611Y183619D01*
X117300Y185282D01*
Y187082D01*
X116611Y188745D01*
X115468Y189888D01*
X115400Y191008D01*
X115468Y192128D01*
X116611Y193271D01*
X117300Y194934D01*
Y196734D01*
X116611Y198397D01*
X115339Y199669D01*
X113676Y200358D01*
D02*
G37*
G36*
X42159Y191880D02*
X41910D01*
Y181610D01*
X52180D01*
Y181859D01*
X51393Y184794D01*
X49874Y187426D01*
X47726Y189574D01*
X45094Y191094D01*
X42159Y191880D01*
D02*
G37*
G36*
X39370D02*
X39121D01*
X36186Y191094D01*
X33554Y189574D01*
X31406Y187426D01*
X29887Y184794D01*
X29100Y181859D01*
Y181610D01*
X39370D01*
Y191880D01*
D02*
G37*
G36*
X749762Y187560D02*
X743679D01*
Y187080D01*
X743930Y185177D01*
X744664Y183403D01*
X745833Y181881D01*
X747355Y180712D01*
X749129Y179978D01*
X749762Y179894D01*
Y187560D01*
D02*
G37*
G36*
X758385D02*
X752302D01*
Y179894D01*
X752935Y179978D01*
X754708Y180712D01*
X756231Y181881D01*
X757400Y183403D01*
X758134Y185177D01*
X758385Y187080D01*
Y187560D01*
D02*
G37*
G36*
X739532Y181308D02*
X737732D01*
X736069Y180619D01*
X735494Y180044D01*
X734475Y179461D01*
X732909Y180015D01*
X732559Y180365D01*
X730896Y181054D01*
X729096D01*
X727433Y180365D01*
X726161Y179093D01*
X725472Y177430D01*
Y175630D01*
X726161Y173967D01*
X727433Y172695D01*
X729096Y172006D01*
X730896D01*
X732559Y172695D01*
X733134Y173270D01*
X734153Y173853D01*
X735719Y173299D01*
X736069Y172949D01*
X737732Y172260D01*
X739532D01*
X741195Y172949D01*
X742467Y174221D01*
X743156Y175884D01*
Y177684D01*
X742467Y179347D01*
X741195Y180619D01*
X739532Y181308D01*
D02*
G37*
G36*
X606740Y195580D02*
X604332D01*
X602006Y194957D01*
X599921Y193753D01*
X598219Y192050D01*
X597015Y189965D01*
X596392Y187640D01*
Y185232D01*
X597015Y182906D01*
X598219Y180821D01*
X599921Y179119D01*
X602006Y177915D01*
X604332Y177292D01*
X606740D01*
X609066Y177915D01*
X611151Y179119D01*
X612853Y180821D01*
X614057Y182906D01*
X614680Y185232D01*
Y187640D01*
X614057Y189965D01*
X612853Y192050D01*
X611151Y193753D01*
X609066Y194957D01*
X606740Y195580D01*
D02*
G37*
G36*
X483804Y194564D02*
X481396D01*
X479071Y193941D01*
X476986Y192737D01*
X475283Y191035D01*
X474079Y188950D01*
X473456Y186624D01*
Y184216D01*
X474079Y181891D01*
X475283Y179806D01*
X476986Y178103D01*
X479071Y176899D01*
X481396Y176276D01*
X483804D01*
X486129Y176899D01*
X488214Y178103D01*
X489917Y179806D01*
X491121Y181891D01*
X491744Y184216D01*
Y186624D01*
X491121Y188950D01*
X489917Y191035D01*
X488214Y192737D01*
X486129Y193941D01*
X483804Y194564D01*
D02*
G37*
G36*
X557784Y184658D02*
X548894D01*
Y175768D01*
X548962D01*
X551546Y176460D01*
X553862Y177798D01*
X555754Y179690D01*
X557092Y182006D01*
X557784Y184590D01*
Y184658D01*
D02*
G37*
G36*
X546354D02*
X537464D01*
Y184590D01*
X538156Y182006D01*
X539494Y179690D01*
X541386Y177798D01*
X543702Y176460D01*
X546286Y175768D01*
X546354D01*
Y184658D01*
D02*
G37*
G36*
X181494Y181816D02*
X179694D01*
X178031Y181127D01*
X176759Y179855D01*
X176070Y178192D01*
Y176392D01*
X176759Y174729D01*
X178031Y173457D01*
X179694Y172768D01*
X181494D01*
X183157Y173457D01*
X184429Y174729D01*
X185118Y176392D01*
Y178192D01*
X184429Y179855D01*
X183157Y181127D01*
X181494Y181816D01*
D02*
G37*
G36*
X169457D02*
X167657D01*
X165994Y181127D01*
X164722Y179855D01*
X164033Y178192D01*
Y176392D01*
X164722Y174729D01*
X165994Y173457D01*
X167657Y172768D01*
X169457D01*
X171120Y173457D01*
X172392Y174729D01*
X173081Y176392D01*
Y178192D01*
X172392Y179855D01*
X171120Y181127D01*
X169457Y181816D01*
D02*
G37*
G36*
X52180Y179070D02*
X41910D01*
Y168800D01*
X42159D01*
X45094Y169587D01*
X47726Y171106D01*
X49874Y173254D01*
X51393Y175886D01*
X52180Y178821D01*
Y179070D01*
D02*
G37*
G36*
X39370D02*
X29100D01*
Y178821D01*
X29887Y175886D01*
X31406Y173254D01*
X33554Y171106D01*
X36186Y169587D01*
X39121Y168800D01*
X39370D01*
Y179070D01*
D02*
G37*
G36*
X42159Y166480D02*
X41910D01*
Y156210D01*
X52180D01*
Y156459D01*
X51393Y159394D01*
X49874Y162026D01*
X47726Y164174D01*
X45094Y165693D01*
X42159Y166480D01*
D02*
G37*
G36*
X39370D02*
X39121D01*
X36186Y165693D01*
X33554Y164174D01*
X31406Y162026D01*
X29887Y159394D01*
X29100Y156459D01*
Y156210D01*
X39370D01*
Y166480D01*
D02*
G37*
G36*
X606740Y170180D02*
X604332D01*
X602006Y169557D01*
X599921Y168353D01*
X598219Y166651D01*
X597015Y164566D01*
X596392Y162240D01*
Y159832D01*
X597015Y157507D01*
X598219Y155421D01*
X599921Y153719D01*
X602006Y152515D01*
X604332Y151892D01*
X606740D01*
X609066Y152515D01*
X611151Y153719D01*
X612853Y155421D01*
X614057Y157507D01*
X614680Y159832D01*
Y162240D01*
X614057Y164566D01*
X612853Y166651D01*
X611151Y168353D01*
X609066Y169557D01*
X606740Y170180D01*
D02*
G37*
G36*
X548828Y169672D02*
X546420D01*
X544095Y169049D01*
X542010Y167845D01*
X540307Y166143D01*
X539103Y164058D01*
X538480Y161732D01*
Y159324D01*
X539103Y156999D01*
X540307Y154914D01*
X542010Y153211D01*
X544095Y152007D01*
X546420Y151384D01*
X548828D01*
X551153Y152007D01*
X553238Y153211D01*
X554941Y154914D01*
X556145Y156999D01*
X556768Y159324D01*
Y161732D01*
X556145Y164058D01*
X554941Y166143D01*
X553238Y167845D01*
X551153Y169049D01*
X548828Y169672D01*
D02*
G37*
G36*
X483804Y169164D02*
X481396D01*
X479071Y168541D01*
X476986Y167337D01*
X475283Y165634D01*
X474079Y163549D01*
X473456Y161224D01*
Y158816D01*
X474079Y156490D01*
X475283Y154405D01*
X476986Y152703D01*
X479071Y151499D01*
X481396Y150876D01*
X483804D01*
X486129Y151499D01*
X488214Y152703D01*
X489917Y154405D01*
X491121Y156490D01*
X491744Y158816D01*
Y161224D01*
X491121Y163549D01*
X489917Y165634D01*
X488214Y167337D01*
X486129Y168541D01*
X483804Y169164D01*
D02*
G37*
G36*
X52180Y153670D02*
X41910D01*
Y143400D01*
X42159D01*
X45094Y144186D01*
X47726Y145706D01*
X49874Y147854D01*
X51393Y150486D01*
X52180Y153421D01*
Y153670D01*
D02*
G37*
G36*
X39370D02*
X29100D01*
Y153421D01*
X29887Y150486D01*
X31406Y147854D01*
X33554Y145706D01*
X36186Y144186D01*
X39121Y143400D01*
X39370D01*
Y153670D01*
D02*
G37*
G36*
X752302Y147766D02*
Y140100D01*
X758385D01*
Y140580D01*
X758134Y142483D01*
X757400Y144256D01*
X756231Y145779D01*
X754708Y146948D01*
X752935Y147682D01*
X752302Y147766D01*
D02*
G37*
G36*
X749762Y147766D02*
X749129Y147682D01*
X747355Y146948D01*
X745833Y145779D01*
X744664Y144256D01*
X743930Y142483D01*
X743679Y140580D01*
Y140100D01*
X749762D01*
Y147766D01*
D02*
G37*
G36*
X781907Y135371D02*
X779302D01*
Y130100D01*
X788195D01*
X787950Y131333D01*
X786532Y133455D01*
X784410Y134873D01*
X781907Y135371D01*
D02*
G37*
G36*
X776762D02*
X774157D01*
X771654Y134873D01*
X769532Y133455D01*
X768114Y131333D01*
X767869Y130100D01*
X776762D01*
Y135371D01*
D02*
G37*
G36*
X749762Y137560D02*
X743679D01*
Y137080D01*
X743930Y135177D01*
X744664Y133404D01*
X745833Y131881D01*
X747355Y130712D01*
X749129Y129978D01*
X749762Y129894D01*
Y137560D01*
D02*
G37*
G36*
X758385D02*
X752302D01*
Y129894D01*
X752935Y129978D01*
X754708Y130712D01*
X756231Y131881D01*
X757400Y133404D01*
X758134Y135177D01*
X758385Y137080D01*
Y137560D01*
D02*
G37*
G36*
X606740Y144780D02*
X604332D01*
X602006Y144157D01*
X599921Y142953D01*
X598219Y141250D01*
X597015Y139165D01*
X596392Y136840D01*
Y134432D01*
X597015Y132107D01*
X598219Y130021D01*
X599921Y128319D01*
X602006Y127115D01*
X604332Y126492D01*
X606740D01*
X609066Y127115D01*
X611151Y128319D01*
X612853Y130021D01*
X614057Y132107D01*
X614680Y134432D01*
Y136840D01*
X614057Y139165D01*
X612853Y141250D01*
X611151Y142953D01*
X609066Y144157D01*
X606740Y144780D01*
D02*
G37*
G36*
X556768Y144272D02*
X538480D01*
Y125984D01*
X556768D01*
Y144272D01*
D02*
G37*
G36*
X483804Y143764D02*
X481396D01*
X479071Y143141D01*
X476986Y141937D01*
X475283Y140234D01*
X474079Y138149D01*
X473456Y135824D01*
Y133416D01*
X474079Y131090D01*
X475283Y129005D01*
X476986Y127303D01*
X479071Y126099D01*
X481396Y125476D01*
X483804D01*
X486129Y126099D01*
X488214Y127303D01*
X489917Y129005D01*
X491121Y131090D01*
X491744Y133416D01*
Y135824D01*
X491121Y138149D01*
X489917Y140234D01*
X488214Y141937D01*
X486129Y143141D01*
X483804Y143764D01*
D02*
G37*
G36*
X788195Y127560D02*
X779302D01*
Y122289D01*
X781907D01*
X784410Y122787D01*
X786532Y124205D01*
X787950Y126327D01*
X788195Y127560D01*
D02*
G37*
G36*
X776762D02*
X767869D01*
X768114Y126327D01*
X769532Y124205D01*
X771654Y122787D01*
X774157Y122289D01*
X776762D01*
Y127560D01*
D02*
G37*
G36*
X645044Y217376D02*
X643244D01*
X641581Y216687D01*
X640309Y215415D01*
X639620Y213752D01*
Y211952D01*
X640309Y210289D01*
X641061Y209537D01*
Y156210D01*
X641061Y156210D01*
X641295Y155030D01*
X641964Y154030D01*
X677270Y118724D01*
X677270Y118724D01*
X678270Y118055D01*
X679450Y117821D01*
X699503D01*
X700255Y117069D01*
X701918Y116380D01*
X703718D01*
X705381Y117069D01*
X706653Y118341D01*
X707342Y120004D01*
Y121804D01*
X706653Y123467D01*
X705381Y124739D01*
X703718Y125428D01*
X701918D01*
X700255Y124739D01*
X699503Y123987D01*
X680727D01*
X647227Y157487D01*
Y209537D01*
X647979Y210289D01*
X648668Y211952D01*
Y213752D01*
X647979Y215415D01*
X646707Y216687D01*
X645044Y217376D01*
D02*
G37*
G36*
X32834Y116840D02*
X32766D01*
Y107950D01*
X41656D01*
Y108018D01*
X40964Y110602D01*
X39626Y112918D01*
X37734Y114810D01*
X35418Y116148D01*
X32834Y116840D01*
D02*
G37*
G36*
X30226D02*
X30158D01*
X27574Y116148D01*
X25258Y114810D01*
X23366Y112918D01*
X22028Y110602D01*
X21336Y108018D01*
Y107950D01*
X30226D01*
Y116840D01*
D02*
G37*
G36*
X757820Y104600D02*
X756020D01*
X754357Y103911D01*
X754290Y103843D01*
X752983Y102726D01*
X751676Y103843D01*
X751609Y103911D01*
X749946Y104600D01*
X748146D01*
X746483Y103911D01*
X745211Y102639D01*
X744522Y100976D01*
Y99176D01*
X745211Y97513D01*
X746483Y96241D01*
X748146Y95552D01*
X749946D01*
X751609Y96241D01*
X751676Y96308D01*
X752983Y97426D01*
X754290Y96308D01*
X754357Y96241D01*
X756020Y95552D01*
X757820D01*
X759483Y96241D01*
X760755Y97513D01*
X761444Y99176D01*
Y100976D01*
X760755Y102639D01*
X759483Y103911D01*
X757820Y104600D01*
D02*
G37*
G36*
X606740Y119380D02*
X604332D01*
X602006Y118757D01*
X599921Y117553D01*
X598219Y115850D01*
X597015Y113765D01*
X596392Y111440D01*
Y109032D01*
X597015Y106706D01*
X598219Y104621D01*
X599921Y102919D01*
X602006Y101715D01*
X604332Y101092D01*
X606740D01*
X609066Y101715D01*
X611151Y102919D01*
X612853Y104621D01*
X614057Y106706D01*
X614680Y109032D01*
Y111440D01*
X614057Y113765D01*
X612853Y115850D01*
X611151Y117553D01*
X609066Y118757D01*
X606740Y119380D01*
D02*
G37*
G36*
X483804Y118364D02*
X481396D01*
X479071Y117741D01*
X476986Y116537D01*
X475283Y114834D01*
X474079Y112750D01*
X473456Y110424D01*
Y108016D01*
X474079Y105690D01*
X475283Y103605D01*
X476986Y101903D01*
X479071Y100699D01*
X481396Y100076D01*
X483804D01*
X486129Y100699D01*
X488214Y101903D01*
X489917Y103605D01*
X491121Y105690D01*
X491744Y108016D01*
Y110424D01*
X491121Y112750D01*
X489917Y114834D01*
X488214Y116537D01*
X486129Y117741D01*
X483804Y118364D01*
D02*
G37*
G36*
X317384Y101552D02*
X315584D01*
X313921Y100863D01*
X312935Y99877D01*
X296418D01*
X296418Y99877D01*
X295328Y99660D01*
X294404Y99042D01*
X294404Y99042D01*
X254598Y59237D01*
X40154D01*
X40069Y59665D01*
X39451Y60589D01*
X39177Y60863D01*
X38813Y61494D01*
X37111Y63197D01*
X35025Y64401D01*
X32700Y65024D01*
X30292D01*
X27966Y64401D01*
X25882Y63197D01*
X24179Y61494D01*
X22975Y59409D01*
X22352Y57084D01*
Y54676D01*
X22975Y52351D01*
X24179Y50265D01*
X25882Y48563D01*
X27966Y47359D01*
X30292Y46736D01*
X32700D01*
X35025Y47359D01*
X37111Y48563D01*
X38813Y50265D01*
X40017Y52351D01*
X40335Y53539D01*
X52778D01*
X53607Y51539D01*
X41383Y39316D01*
X40640Y39624D01*
Y39624D01*
X22352D01*
Y21336D01*
X40640D01*
Y30515D01*
X57834Y47709D01*
X263973D01*
X263973Y47709D01*
X265063Y47926D01*
X265987Y48544D01*
X300495Y83051D01*
X301890D01*
X303553Y83740D01*
X304825Y85012D01*
X305514Y86675D01*
Y88475D01*
X304825Y90138D01*
X303553Y91410D01*
X301890Y92099D01*
X300090D01*
X298427Y91410D01*
X297155Y90138D01*
X296466Y88475D01*
Y87080D01*
X262793Y53407D01*
X259654D01*
X258825Y55407D01*
X297598Y94179D01*
X312935D01*
X313921Y93193D01*
X315584Y92504D01*
X317384D01*
X319047Y93193D01*
X320319Y94465D01*
X321008Y96128D01*
Y97928D01*
X320319Y99591D01*
X319047Y100863D01*
X317384Y101552D01*
D02*
G37*
G36*
X41656Y105410D02*
X32766D01*
Y96520D01*
X32834D01*
X35418Y97212D01*
X37734Y98550D01*
X39626Y100442D01*
X40964Y102758D01*
X41656Y105342D01*
Y105410D01*
D02*
G37*
G36*
X30226D02*
X21336D01*
Y105342D01*
X22028Y102758D01*
X23366Y100442D01*
X25258Y98550D01*
X27574Y97212D01*
X30158Y96520D01*
X30226D01*
Y105410D01*
D02*
G37*
G36*
X340244Y103838D02*
X338444D01*
X336781Y103149D01*
X335509Y101877D01*
X334820Y100214D01*
Y98414D01*
X335509Y96751D01*
X336781Y95479D01*
X338444Y94790D01*
X340244D01*
X341907Y95479D01*
X343179Y96751D01*
X343868Y98414D01*
Y100214D01*
X343179Y101877D01*
X341907Y103149D01*
X340244Y103838D01*
D02*
G37*
G36*
X548708Y93980D02*
X548640D01*
Y85090D01*
X557530D01*
Y85158D01*
X556838Y87742D01*
X555500Y90058D01*
X553608Y91950D01*
X551292Y93288D01*
X548708Y93980D01*
D02*
G37*
G36*
X492760D02*
X483870D01*
Y85090D01*
X492760D01*
Y93980D01*
D02*
G37*
G36*
X546100D02*
X546032D01*
X543448Y93288D01*
X541132Y91950D01*
X539240Y90058D01*
X537902Y87742D01*
X537210Y85158D01*
Y85090D01*
X546100D01*
Y93980D01*
D02*
G37*
G36*
X481330D02*
X472440D01*
Y85090D01*
X481330D01*
Y93980D01*
D02*
G37*
G36*
X350912Y92916D02*
X349112D01*
X347449Y92227D01*
X346177Y90955D01*
X345488Y89292D01*
Y87492D01*
X346177Y85829D01*
X347449Y84557D01*
X349112Y83868D01*
X350912D01*
X352575Y84557D01*
X353847Y85829D01*
X354536Y87492D01*
Y89292D01*
X353847Y90955D01*
X352575Y92227D01*
X350912Y92916D01*
D02*
G37*
G36*
X606740Y93980D02*
X604332D01*
X602006Y93357D01*
X599921Y92153D01*
X598219Y90450D01*
X597015Y88365D01*
X596392Y86040D01*
Y83632D01*
X597015Y81306D01*
X598219Y79222D01*
X599921Y77519D01*
X602006Y76315D01*
X604332Y75692D01*
X606740D01*
X609066Y76315D01*
X611151Y77519D01*
X612853Y79222D01*
X614057Y81306D01*
X614680Y83632D01*
Y86040D01*
X614057Y88365D01*
X612853Y90450D01*
X611151Y92153D01*
X609066Y93357D01*
X606740Y93980D01*
D02*
G37*
G36*
X84521Y84534D02*
X82721D01*
X81058Y83845D01*
X79786Y82573D01*
X79097Y80910D01*
Y79110D01*
X79786Y77447D01*
X81058Y76175D01*
X82721Y75486D01*
X84521D01*
X86184Y76175D01*
X87456Y77447D01*
X88145Y79110D01*
Y80910D01*
X87456Y82573D01*
X86184Y83845D01*
X84521Y84534D01*
D02*
G37*
G36*
X691526Y76914D02*
X689726D01*
X688063Y76225D01*
X687070Y75232D01*
X686077Y76225D01*
X684414Y76914D01*
X682614D01*
X680951Y76225D01*
X679679Y74953D01*
X678990Y73290D01*
Y71490D01*
X679679Y69827D01*
X680951Y68555D01*
X682614Y67866D01*
X684414D01*
X686077Y68555D01*
X687070Y69548D01*
X688063Y68555D01*
X689726Y67866D01*
X691526D01*
X693189Y68555D01*
X694461Y69827D01*
X695150Y71490D01*
Y73290D01*
X694461Y74953D01*
X693189Y76225D01*
X691526Y76914D01*
D02*
G37*
G36*
X557530Y82550D02*
X548640D01*
Y73660D01*
X548708D01*
X551292Y74352D01*
X553608Y75690D01*
X555500Y77582D01*
X556838Y79898D01*
X557530Y82482D01*
Y82550D01*
D02*
G37*
G36*
X546100D02*
X537210D01*
Y82482D01*
X537902Y79898D01*
X539240Y77582D01*
X541132Y75690D01*
X543448Y74352D01*
X546032Y73660D01*
X546100D01*
Y82550D01*
D02*
G37*
G36*
X492760D02*
X483870D01*
Y73660D01*
X492760D01*
Y82550D01*
D02*
G37*
G36*
X481330D02*
X472440D01*
Y73660D01*
X481330D01*
Y82550D01*
D02*
G37*
G36*
X32700Y90424D02*
X30292D01*
X27966Y89801D01*
X25882Y88597D01*
X24179Y86895D01*
X22975Y84810D01*
X22352Y82484D01*
Y80076D01*
X22975Y77751D01*
X24179Y75665D01*
X25882Y73963D01*
X27966Y72759D01*
X30292Y72136D01*
X32700D01*
X35025Y72759D01*
X37111Y73963D01*
X38813Y75665D01*
X40017Y77751D01*
X40640Y80076D01*
Y82484D01*
X40017Y84810D01*
X38813Y86895D01*
X37111Y88597D01*
X35025Y89801D01*
X32700Y90424D01*
D02*
G37*
G36*
X615696Y69596D02*
X606806D01*
Y60706D01*
X615696D01*
Y69596D01*
D02*
G37*
G36*
X604266D02*
X595376D01*
Y60706D01*
X604266D01*
Y69596D01*
D02*
G37*
G36*
X615696Y58166D02*
X606806D01*
Y49276D01*
X615696D01*
Y58166D01*
D02*
G37*
G36*
X604266D02*
X595376D01*
Y49276D01*
X604266D01*
Y58166D01*
D02*
G37*
G36*
X548574Y67564D02*
X546166D01*
X543840Y66941D01*
X541755Y65737D01*
X540053Y64035D01*
X538849Y61950D01*
X538226Y59624D01*
Y57216D01*
X538849Y54890D01*
X540053Y52806D01*
X541755Y51103D01*
X543840Y49899D01*
X546166Y49276D01*
X548574D01*
X550900Y49899D01*
X552985Y51103D01*
X554687Y52806D01*
X555891Y54890D01*
X556514Y57216D01*
Y59624D01*
X555891Y61950D01*
X554687Y64035D01*
X552985Y65737D01*
X550900Y66941D01*
X548574Y67564D01*
D02*
G37*
G36*
X209618Y42672D02*
X209550D01*
Y33782D01*
X218440D01*
Y33850D01*
X217748Y36434D01*
X216410Y38750D01*
X214518Y40642D01*
X212202Y41980D01*
X209618Y42672D01*
D02*
G37*
G36*
X207010D02*
X206942D01*
X204358Y41980D01*
X202042Y40642D01*
X200150Y38750D01*
X198812Y36434D01*
X198120Y33850D01*
Y33782D01*
X207010D01*
Y42672D01*
D02*
G37*
G36*
X241946Y40592D02*
X240146D01*
X238483Y39903D01*
X237211Y38631D01*
X236522Y36968D01*
Y35168D01*
X237211Y33505D01*
X238483Y32233D01*
X240146Y31544D01*
X241946D01*
X243609Y32233D01*
X244881Y33505D01*
X245570Y35168D01*
Y36968D01*
X244881Y38631D01*
X243609Y39903D01*
X241946Y40592D01*
D02*
G37*
G36*
X262266Y40338D02*
X260466D01*
X258803Y39649D01*
X257531Y38377D01*
X256842Y36714D01*
Y34914D01*
X257531Y33251D01*
X258803Y31979D01*
X260466Y31290D01*
X262266D01*
X263929Y31979D01*
X265201Y33251D01*
X265890Y34914D01*
Y36714D01*
X265201Y38377D01*
X263929Y39649D01*
X262266Y40338D01*
D02*
G37*
G36*
X522870Y218138D02*
X521070D01*
X519407Y217449D01*
X518135Y216177D01*
X517446Y214514D01*
Y212714D01*
X518135Y211051D01*
X519121Y210065D01*
Y79158D01*
X468088Y28125D01*
X467634Y28215D01*
X466976Y30385D01*
X511030Y74440D01*
X511648Y75364D01*
X511865Y76454D01*
X511865Y76454D01*
Y201429D01*
X512597Y202161D01*
X513286Y203824D01*
Y205624D01*
X512597Y207287D01*
X511325Y208559D01*
X509662Y209248D01*
X507862D01*
X506199Y208559D01*
X504927Y207287D01*
X504238Y205624D01*
Y203824D01*
X504927Y202161D01*
X506167Y200921D01*
Y77634D01*
X461100Y32567D01*
X374087D01*
X372895Y33759D01*
X371232Y34448D01*
X369432D01*
X367769Y33759D01*
X366497Y32487D01*
X365808Y30824D01*
Y29024D01*
X365827Y28979D01*
X364491Y26979D01*
X351529D01*
X350543Y27965D01*
X348880Y28654D01*
X347080D01*
X345417Y27965D01*
X344145Y26693D01*
X343456Y25030D01*
Y23230D01*
X344145Y21567D01*
X345417Y20295D01*
X347080Y19606D01*
X348880D01*
X350543Y20295D01*
X351529Y21281D01*
X468122D01*
X468122Y21281D01*
X469212Y21498D01*
X470136Y22116D01*
X523984Y75964D01*
X523984Y75964D01*
X524602Y76888D01*
X524819Y77978D01*
X524819Y77978D01*
Y210065D01*
X525805Y211051D01*
X526494Y212714D01*
Y214514D01*
X525805Y216177D01*
X524533Y217449D01*
X522870Y218138D01*
D02*
G37*
G36*
X556514Y42164D02*
X538226D01*
Y23876D01*
X556514D01*
Y42164D01*
D02*
G37*
G36*
X184084Y41656D02*
X181676D01*
X179350Y41033D01*
X177265Y39829D01*
X175563Y38126D01*
X174359Y36042D01*
X173736Y33716D01*
Y31308D01*
X174359Y28983D01*
X175563Y26897D01*
X177265Y25195D01*
X179350Y23991D01*
X181676Y23368D01*
X184084D01*
X186409Y23991D01*
X188494Y25195D01*
X190197Y26897D01*
X191401Y28983D01*
X192024Y31308D01*
Y33716D01*
X191401Y36042D01*
X190197Y38126D01*
X188494Y39829D01*
X186409Y41033D01*
X184084Y41656D01*
D02*
G37*
G36*
X133284D02*
X130876D01*
X128551Y41033D01*
X126466Y39829D01*
X124763Y38126D01*
X123559Y36042D01*
X122936Y33716D01*
Y31308D01*
X123559Y28983D01*
X124763Y26897D01*
X126466Y25195D01*
X128551Y23991D01*
X130876Y23368D01*
X133284D01*
X135610Y23991D01*
X137695Y25195D01*
X139397Y26897D01*
X140601Y28983D01*
X141224Y31308D01*
Y33716D01*
X140601Y36042D01*
X139397Y38126D01*
X137695Y39829D01*
X135610Y41033D01*
X133284Y41656D01*
D02*
G37*
G36*
X107884D02*
X105476D01*
X103151Y41033D01*
X101066Y39829D01*
X99363Y38126D01*
X98159Y36042D01*
X97536Y33716D01*
Y31308D01*
X98159Y28983D01*
X99363Y26897D01*
X101066Y25195D01*
X103151Y23991D01*
X105476Y23368D01*
X107884D01*
X110210Y23991D01*
X112295Y25195D01*
X113997Y26897D01*
X115201Y28983D01*
X115824Y31308D01*
Y33716D01*
X115201Y36042D01*
X113997Y38126D01*
X112295Y39829D01*
X110210Y41033D01*
X107884Y41656D01*
D02*
G37*
G36*
X90424D02*
X72136D01*
Y23368D01*
X90424D01*
Y41656D01*
D02*
G37*
G36*
X218440Y31242D02*
X209550D01*
Y22352D01*
X209618D01*
X212202Y23044D01*
X214518Y24382D01*
X216410Y26274D01*
X217748Y28590D01*
X218440Y31174D01*
Y31242D01*
D02*
G37*
G36*
X207010D02*
X198120D01*
Y31174D01*
X198812Y28590D01*
X200150Y26274D01*
X202042Y24382D01*
X204358Y23044D01*
X206942Y22352D01*
X207010D01*
Y31242D01*
D02*
G37*
G36*
X752481Y81524D02*
X747519D01*
X742618Y80748D01*
X737899Y79214D01*
X733478Y76962D01*
X729464Y74045D01*
X725955Y70536D01*
X723038Y66522D01*
X720786Y62101D01*
X719252Y57382D01*
X718476Y52481D01*
Y47519D01*
X719252Y42618D01*
X720786Y37899D01*
X723038Y33478D01*
X725955Y29464D01*
X729464Y25955D01*
X733478Y23038D01*
X737899Y20786D01*
X742618Y19252D01*
X747519Y18476D01*
X752481D01*
X757382Y19252D01*
X762101Y20786D01*
X766522Y23038D01*
X770536Y25955D01*
X774045Y29464D01*
X776962Y33478D01*
X779214Y37899D01*
X780748Y42618D01*
X781524Y47519D01*
Y52481D01*
X780748Y57382D01*
X779214Y62101D01*
X776962Y66522D01*
X774045Y70536D01*
X770536Y74045D01*
X766522Y76962D01*
X762101Y79214D01*
X757382Y80748D01*
X752481Y81524D01*
D02*
G37*
G36*
X302260Y604047D02*
X302260Y604047D01*
X281940D01*
X281940Y604047D01*
X280760Y603812D01*
X279760Y603144D01*
X279760Y603144D01*
X272065Y595450D01*
X271397Y594450D01*
X271162Y593270D01*
X271030Y592668D01*
X270030Y592000D01*
X269361Y591000D01*
X269127Y589820D01*
Y580620D01*
X269361Y579440D01*
X270030Y578440D01*
X271030Y577771D01*
X272210Y577537D01*
X275210D01*
X276390Y577771D01*
X277390Y578440D01*
X279149Y577472D01*
X280134Y576814D01*
X281710Y576501D01*
X281940D01*
Y585220D01*
Y594183D01*
X281470Y594884D01*
X281217Y595880D01*
X283217Y597881D01*
X300983D01*
X307847Y591017D01*
Y587394D01*
X304406D01*
Y570846D01*
X313094D01*
X322127Y561813D01*
Y561030D01*
X322127Y561030D01*
X322186Y560732D01*
Y549256D01*
X335234D01*
Y565804D01*
X326856D01*
X324678Y567982D01*
X325443Y569830D01*
X327660D01*
Y577850D01*
X321390D01*
Y573884D01*
X319542Y573118D01*
X317454Y575206D01*
Y587394D01*
X314013D01*
Y592294D01*
X313778Y593474D01*
X313110Y594474D01*
X313110Y594474D01*
X304440Y603144D01*
X303440Y603812D01*
X302260Y604047D01*
D02*
G37*
G36*
X336470Y588410D02*
X330200D01*
Y580390D01*
X336470D01*
Y588410D01*
D02*
G37*
G36*
X327660D02*
X321390D01*
Y580390D01*
X327660D01*
Y588410D01*
D02*
G37*
G36*
X336470Y577850D02*
X330200D01*
Y569830D01*
X336470D01*
Y577850D01*
D02*
G37*
G36*
X284710Y593939D02*
X284480D01*
Y585220D01*
Y576501D01*
X284710D01*
X286286Y576814D01*
X286506Y576961D01*
X288506Y575892D01*
Y573783D01*
X287654Y572930D01*
X286706Y572297D01*
X286706Y572297D01*
X283833Y569424D01*
X283420Y568807D01*
X282625Y568011D01*
X274805D01*
X274805Y568011D01*
X274765Y568003D01*
X272210D01*
X271030Y567769D01*
X270030Y567100D01*
X269361Y566100D01*
X269127Y564920D01*
Y563746D01*
X261004D01*
Y566704D01*
X244456D01*
Y563676D01*
X237636D01*
Y568990D01*
X221088D01*
Y555942D01*
X237636D01*
Y556684D01*
X244456D01*
Y553656D01*
X261004D01*
Y556754D01*
X269127D01*
Y555720D01*
X269361Y554540D01*
X270030Y553540D01*
X271030Y552872D01*
X272210Y552637D01*
X275210D01*
X276390Y552872D01*
X277390Y553540D01*
X278058Y554540D01*
X278293Y555720D01*
Y561019D01*
X284073D01*
X285411Y561285D01*
X286127Y561763D01*
X288127Y561084D01*
Y560468D01*
X288097Y560320D01*
Y548924D01*
X285096D01*
Y547013D01*
X281324D01*
Y548924D01*
X264776D01*
Y535876D01*
X281324D01*
Y537787D01*
X285096D01*
Y535876D01*
X295121D01*
X297209Y533788D01*
X296444Y531940D01*
X294640D01*
Y525670D01*
X302660D01*
Y525724D01*
X304508Y526489D01*
X317967Y513029D01*
Y485710D01*
X318012Y485488D01*
X316402Y483488D01*
X308420D01*
Y483005D01*
X302406D01*
Y484916D01*
X298999D01*
Y490220D01*
X298910Y490666D01*
Y491120D01*
X298736Y491540D01*
X298647Y491985D01*
X298395Y492363D01*
X298221Y492783D01*
X297900Y493104D01*
X297648Y493482D01*
X297270Y493734D01*
X296949Y494055D01*
X296529Y494229D01*
X296151Y494482D01*
X295706Y494570D01*
X295286Y494744D01*
X294832D01*
X294386Y494833D01*
X293941Y494744D01*
X293486D01*
X293066Y494570D01*
X292621Y494482D01*
X292243Y494229D01*
X291823Y494055D01*
X291502Y493734D01*
X291124Y493482D01*
X290872Y493104D01*
X290551Y492783D01*
X290377Y492363D01*
X290124Y491985D01*
X290036Y491540D01*
X289862Y491120D01*
Y490666D01*
X289773Y490220D01*
Y484916D01*
X285858D01*
Y483204D01*
X280054D01*
Y485314D01*
X276393D01*
Y490728D01*
X276304Y491174D01*
Y491628D01*
X276130Y492048D01*
X276042Y492493D01*
X275789Y492871D01*
X275615Y493291D01*
X275294Y493612D01*
X275042Y493990D01*
X274664Y494242D01*
X274343Y494563D01*
X273923Y494737D01*
X273545Y494990D01*
X273100Y495078D01*
X272680Y495252D01*
X272225D01*
X271780Y495341D01*
X271334Y495252D01*
X270880D01*
X270460Y495078D01*
X270015Y494990D01*
X269637Y494737D01*
X269217Y494563D01*
X268896Y494242D01*
X268518Y493990D01*
X268266Y493612D01*
X267945Y493291D01*
X267771Y492871D01*
X267519Y492493D01*
X267430Y492048D01*
X267256Y491628D01*
Y491174D01*
X267167Y490728D01*
Y485314D01*
X263506D01*
Y472266D01*
X280054D01*
Y473978D01*
X285858D01*
Y471868D01*
X302406D01*
Y473779D01*
X308420D01*
Y471852D01*
X319976D01*
Y479178D01*
X321824Y479943D01*
X336640Y465126D01*
X335875Y463279D01*
X319976D01*
Y464900D01*
X308420D01*
Y453264D01*
X319976D01*
Y454053D01*
X343516D01*
Y451726D01*
X360064D01*
Y453692D01*
X373996D01*
Y451836D01*
X383824D01*
X384270Y451747D01*
X392569D01*
X407833Y436483D01*
Y420959D01*
X421081D01*
Y443007D01*
X414356D01*
X397742Y459622D01*
X396245Y460621D01*
X394480Y460973D01*
X390544D01*
Y464884D01*
X373996D01*
Y462918D01*
X360064D01*
Y464774D01*
X350039D01*
X347951Y466862D01*
X348716Y468710D01*
X350520D01*
Y474980D01*
X342500D01*
Y474926D01*
X340652Y474161D01*
X327193Y487621D01*
Y514940D01*
X326842Y516705D01*
X325842Y518202D01*
X301644Y542399D01*
Y548924D01*
X297323D01*
Y560320D01*
X297293Y560468D01*
Y564920D01*
X297059Y566100D01*
X296390Y567100D01*
X295390Y567769D01*
X295239Y567799D01*
X294474Y569862D01*
X294474Y569862D01*
X295232Y570997D01*
X295498Y572335D01*
Y577844D01*
X296390Y578440D01*
X297059Y579440D01*
X297293Y580620D01*
Y589820D01*
X297059Y591000D01*
X296390Y592000D01*
X295390Y592668D01*
X294210Y592903D01*
X291210D01*
X290030Y592668D01*
X289030Y592000D01*
X287271Y592968D01*
X286286Y593626D01*
X284710Y593939D01*
D02*
G37*
G36*
X676097Y545623D02*
X669727D01*
Y534853D01*
X676097D01*
Y545623D01*
D02*
G37*
G36*
X667187D02*
X660817D01*
Y534853D01*
X667187D01*
Y545623D01*
D02*
G37*
G36*
X625297D02*
X618927D01*
Y534853D01*
X625297D01*
Y545623D01*
D02*
G37*
G36*
X616387D02*
X610017D01*
Y534853D01*
X616387D01*
Y545623D01*
D02*
G37*
G36*
X574497D02*
X568127D01*
Y534853D01*
X574497D01*
Y545623D01*
D02*
G37*
G36*
X565587D02*
X559217D01*
Y534853D01*
X565587D01*
Y545623D01*
D02*
G37*
G36*
X523697D02*
X517327D01*
Y534853D01*
X523697D01*
Y545623D01*
D02*
G37*
G36*
X514787D02*
X508417D01*
Y534853D01*
X514787D01*
Y545623D01*
D02*
G37*
G36*
X472897D02*
X466527D01*
Y534853D01*
X472897D01*
Y545623D01*
D02*
G37*
G36*
X463987D02*
X457617D01*
Y534853D01*
X463987D01*
Y545623D01*
D02*
G37*
G36*
X239840Y534054D02*
X233570D01*
Y526034D01*
X239840D01*
Y534054D01*
D02*
G37*
G36*
X231030D02*
X224760D01*
Y526034D01*
X231030D01*
Y534054D01*
D02*
G37*
G36*
X271780Y531940D02*
X263760D01*
Y525670D01*
X271780D01*
Y531940D01*
D02*
G37*
G36*
X353234Y565804D02*
X340186D01*
Y549256D01*
X349912D01*
X350210Y549197D01*
X350210Y549197D01*
X350683D01*
X351896Y547984D01*
X351896Y547984D01*
X352896Y547315D01*
X354076Y547081D01*
X354076Y547081D01*
X354709D01*
X356017Y545623D01*
X356017Y545081D01*
Y534853D01*
X371297D01*
Y545081D01*
X371297Y545623D01*
X372606Y547081D01*
X396599D01*
X404795Y538885D01*
X405795Y538216D01*
X406975Y537981D01*
X407833Y536332D01*
Y522559D01*
X421081D01*
Y544607D01*
X407833D01*
X407833Y544607D01*
Y544607D01*
X406475Y545926D01*
X400056Y552344D01*
X399056Y553013D01*
X397876Y553247D01*
X397876Y553247D01*
X355353D01*
X354140Y554460D01*
X353234Y555066D01*
Y565804D01*
D02*
G37*
G36*
X676097Y532313D02*
X669727D01*
Y521543D01*
X676097D01*
Y532313D01*
D02*
G37*
G36*
X667187D02*
X660817D01*
Y521543D01*
X667187D01*
Y532313D01*
D02*
G37*
G36*
X625297D02*
X618927D01*
Y521543D01*
X625297D01*
Y532313D01*
D02*
G37*
G36*
X616387D02*
X610017D01*
Y521543D01*
X616387D01*
Y532313D01*
D02*
G37*
G36*
X574497D02*
X568127D01*
Y521543D01*
X574497D01*
Y532313D01*
D02*
G37*
G36*
X565587D02*
X559217D01*
Y521543D01*
X565587D01*
Y532313D01*
D02*
G37*
G36*
X523697D02*
X517327D01*
Y521543D01*
X523697D01*
Y532313D01*
D02*
G37*
G36*
X514787D02*
X508417D01*
Y521543D01*
X514787D01*
Y532313D01*
D02*
G37*
G36*
X472897D02*
X466527D01*
Y521543D01*
X472897D01*
Y532313D01*
D02*
G37*
G36*
X463987D02*
X457617D01*
Y521543D01*
X463987D01*
Y532313D01*
D02*
G37*
G36*
X371297D02*
X364927D01*
Y521543D01*
X371297D01*
Y532313D01*
D02*
G37*
G36*
X362387D02*
X356017D01*
Y521543D01*
X362387D01*
Y532313D01*
D02*
G37*
G36*
X302660Y523130D02*
X294640D01*
Y516860D01*
X302660D01*
Y523130D01*
D02*
G37*
G36*
X271780D02*
X263760D01*
Y516860D01*
X271780D01*
Y523130D01*
D02*
G37*
G36*
X284080Y531940D02*
X282340D01*
X282080Y531940D01*
X274320D01*
Y524400D01*
Y516860D01*
X282080D01*
X282340Y516860D01*
X284080D01*
X284340Y516860D01*
X292100D01*
Y524400D01*
Y531940D01*
X284340D01*
X284080Y531940D01*
D02*
G37*
G36*
X239840Y523494D02*
X233570D01*
Y515474D01*
X239840D01*
Y523494D01*
D02*
G37*
G36*
X231030D02*
X224760D01*
Y515474D01*
X231030D01*
Y523494D01*
D02*
G37*
G36*
X701497Y512623D02*
X695127D01*
Y501853D01*
X701497D01*
Y512623D01*
D02*
G37*
G36*
X692587D02*
X686217D01*
Y501853D01*
X692587D01*
Y512623D01*
D02*
G37*
G36*
X345897D02*
X339527D01*
Y501853D01*
X345897D01*
Y512623D01*
D02*
G37*
G36*
X336987D02*
X330617D01*
Y501853D01*
X336987D01*
Y512623D01*
D02*
G37*
G36*
X650697Y512623D02*
X644327D01*
Y501853D01*
X650697D01*
Y512623D01*
D02*
G37*
G36*
X641787D02*
X635417D01*
Y501853D01*
X641787D01*
Y512623D01*
D02*
G37*
G36*
X599897D02*
X593527D01*
Y501853D01*
X599897D01*
Y512623D01*
D02*
G37*
G36*
X590987D02*
X584617D01*
Y501853D01*
X590987D01*
Y512623D01*
D02*
G37*
G36*
X549097D02*
X542727D01*
Y501853D01*
X549097D01*
Y512623D01*
D02*
G37*
G36*
X540187D02*
X533817D01*
Y501853D01*
X540187D01*
Y512623D01*
D02*
G37*
G36*
X498297D02*
X491927D01*
Y501853D01*
X498297D01*
Y512623D01*
D02*
G37*
G36*
X489387D02*
X483017D01*
Y501853D01*
X489387D01*
Y512623D01*
D02*
G37*
G36*
X447497D02*
X441127D01*
Y501853D01*
X447497D01*
Y512623D01*
D02*
G37*
G36*
X438587D02*
X432217D01*
Y501853D01*
X438587D01*
Y512623D01*
D02*
G37*
G36*
X396697D02*
X390327D01*
Y501853D01*
X396697D01*
Y512623D01*
D02*
G37*
G36*
X387787D02*
X381417D01*
Y501853D01*
X387787D01*
Y512623D01*
D02*
G37*
G36*
X237636Y550990D02*
X221088D01*
Y537942D01*
X237636D01*
Y544287D01*
X244456D01*
Y535656D01*
X249647D01*
Y533038D01*
X243776D01*
Y516490D01*
X245837D01*
Y500805D01*
X245085Y500053D01*
X244396Y498390D01*
Y496590D01*
X245085Y494927D01*
X246357Y493655D01*
X248020Y492966D01*
X249820D01*
X251483Y493655D01*
X252755Y494927D01*
X253444Y496590D01*
Y498390D01*
X252755Y500053D01*
X252003Y500805D01*
Y516490D01*
X256824D01*
Y533038D01*
X255813D01*
Y535656D01*
X261004D01*
Y548704D01*
X248816D01*
X247970Y549550D01*
X246970Y550219D01*
X245790Y550453D01*
X245790Y550453D01*
X237636D01*
Y550990D01*
D02*
G37*
G36*
X701497Y499313D02*
X695127D01*
Y488543D01*
X701497D01*
Y499313D01*
D02*
G37*
G36*
X692587D02*
X686217D01*
Y488543D01*
X692587D01*
Y499313D01*
D02*
G37*
G36*
X345897D02*
X339527D01*
Y488543D01*
X345897D01*
Y499313D01*
D02*
G37*
G36*
X336987D02*
X330617D01*
Y488543D01*
X336987D01*
Y499313D01*
D02*
G37*
G36*
X650697Y499313D02*
X644327D01*
Y488543D01*
X650697D01*
Y499313D01*
D02*
G37*
G36*
X641787D02*
X635417D01*
Y488543D01*
X641787D01*
Y499313D01*
D02*
G37*
G36*
X599897D02*
X593527D01*
Y488543D01*
X599897D01*
Y499313D01*
D02*
G37*
G36*
X590987D02*
X584617D01*
Y488543D01*
X590987D01*
Y499313D01*
D02*
G37*
G36*
X549097D02*
X542727D01*
Y488543D01*
X549097D01*
Y499313D01*
D02*
G37*
G36*
X540187D02*
X533817D01*
Y488543D01*
X540187D01*
Y499313D01*
D02*
G37*
G36*
X498297D02*
X491927D01*
Y488543D01*
X498297D01*
Y499313D01*
D02*
G37*
G36*
X489387D02*
X483017D01*
Y488543D01*
X489387D01*
Y499313D01*
D02*
G37*
G36*
X447497D02*
X441127D01*
Y488543D01*
X447497D01*
Y499313D01*
D02*
G37*
G36*
X438587D02*
X432217D01*
Y488543D01*
X438587D01*
Y499313D01*
D02*
G37*
G36*
X396697D02*
X390327D01*
Y488543D01*
X396697D01*
Y499313D01*
D02*
G37*
G36*
X387787D02*
X381417D01*
Y488543D01*
X387787D01*
Y499313D01*
D02*
G37*
G36*
X391560Y483900D02*
X383540D01*
Y477630D01*
X391560D01*
Y483900D01*
D02*
G37*
G36*
X381000D02*
X372980D01*
Y477630D01*
X381000D01*
Y483900D01*
D02*
G37*
G36*
X361080Y483790D02*
X353060D01*
Y477520D01*
X361080D01*
Y483790D01*
D02*
G37*
G36*
X350520D02*
X342500D01*
Y477520D01*
X350520D01*
Y483790D01*
D02*
G37*
G36*
X477141Y483319D02*
X475341D01*
X473678Y482630D01*
X472406Y481357D01*
X471717Y479695D01*
Y477895D01*
X472406Y476232D01*
X473678Y474960D01*
X475341Y474271D01*
X476559D01*
X477932Y472934D01*
X478170Y472532D01*
X478166Y472372D01*
X477140Y470632D01*
X475340D01*
X473678Y469943D01*
X472405Y468671D01*
X471716Y467008D01*
Y465208D01*
X472405Y463545D01*
X473678Y462273D01*
X475340Y461584D01*
X476129Y459584D01*
X473944Y457399D01*
X469284D01*
Y461074D01*
X452736D01*
Y449957D01*
X452668Y449889D01*
X434079D01*
X433093Y450875D01*
X431430Y451564D01*
X429630D01*
X427967Y450875D01*
X426695Y449603D01*
X426006Y447940D01*
Y446140D01*
X426695Y444477D01*
X427967Y443205D01*
X429630Y442516D01*
X431430D01*
X433093Y443205D01*
X434079Y444191D01*
X453848D01*
X453848Y444191D01*
X454938Y444408D01*
X455863Y445026D01*
X458863Y448026D01*
X469284D01*
Y451701D01*
X475124D01*
X475124Y451701D01*
X476214Y451918D01*
X477138Y452536D01*
X486604Y462001D01*
X495140D01*
Y457052D01*
X500949D01*
X501204Y457001D01*
X501224Y457005D01*
X507138D01*
X507138Y457005D01*
X508228Y457222D01*
X509152Y457840D01*
X509392Y458079D01*
X511337D01*
X512165Y456079D01*
X511785Y455699D01*
X511096Y454036D01*
Y452236D01*
X511785Y450573D01*
X513057Y449301D01*
X514720Y448612D01*
X516520D01*
X518183Y449301D01*
X519296Y450414D01*
X520580D01*
X521566Y449428D01*
X523229Y448739D01*
X525029D01*
X526692Y449428D01*
X527964Y450700D01*
X528653Y452363D01*
Y454163D01*
X528304Y455005D01*
X529398Y457005D01*
X530076D01*
X530096Y457001D01*
X530351Y457052D01*
X536160D01*
Y462052D01*
Y472001D01*
X550526D01*
Y468964D01*
X567074D01*
Y470875D01*
X574802D01*
X575247Y470964D01*
X575702D01*
X576122Y471138D01*
X576567Y471227D01*
X576945Y471479D01*
X577365Y471653D01*
X577686Y471974D01*
X578064Y472226D01*
X578316Y472604D01*
X578637Y472925D01*
X578811Y473345D01*
X579063Y473723D01*
X579152Y474168D01*
X579326Y474588D01*
Y475042D01*
X579415Y475488D01*
X579326Y475933D01*
Y476388D01*
X579152Y476808D01*
X579063Y477253D01*
X578811Y477631D01*
X578637Y478051D01*
X578316Y478372D01*
X578064Y478750D01*
X577686Y479002D01*
X577365Y479323D01*
X576945Y479497D01*
X576567Y479749D01*
X576122Y479838D01*
X575702Y480012D01*
X575247D01*
X574802Y480101D01*
X567074D01*
Y482012D01*
X550526D01*
Y477699D01*
X530096D01*
X529841Y477648D01*
X524032D01*
Y476621D01*
X507268D01*
Y477648D01*
X501721D01*
X501139Y477764D01*
X501139Y477764D01*
X482113D01*
X480765Y479111D01*
Y479695D01*
X480076Y481357D01*
X478804Y482630D01*
X477141Y483319D01*
D02*
G37*
G36*
X391560Y475090D02*
X383540D01*
Y468820D01*
X391560D01*
Y475090D01*
D02*
G37*
G36*
X381000D02*
X372980D01*
Y468820D01*
X381000D01*
Y475090D01*
D02*
G37*
G36*
X361080Y474980D02*
X353060D01*
Y468710D01*
X361080D01*
Y474980D01*
D02*
G37*
G36*
X469284Y479074D02*
X452736D01*
Y477053D01*
X443484D01*
X443038Y476964D01*
X442584D01*
X442164Y476790D01*
X441719Y476702D01*
X441341Y476449D01*
X440921Y476275D01*
X440600Y475954D01*
X440222Y475702D01*
X439970Y475324D01*
X439649Y475003D01*
X439475Y474583D01*
X439222Y474205D01*
X439134Y473760D01*
X438960Y473340D01*
Y472886D01*
X438871Y472440D01*
X438960Y471995D01*
Y471540D01*
X439134Y471120D01*
X439222Y470675D01*
X439475Y470297D01*
X439649Y469877D01*
X439970Y469556D01*
X440222Y469178D01*
X440600Y468926D01*
X440921Y468605D01*
X441341Y468431D01*
X441719Y468178D01*
X442164Y468090D01*
X442584Y467916D01*
X443038D01*
X443484Y467827D01*
X452736D01*
Y466026D01*
X469284D01*
Y479074D01*
D02*
G37*
G36*
X567074Y464012D02*
X550526D01*
Y450964D01*
X567074D01*
Y452400D01*
X568937Y453365D01*
X570600Y452676D01*
X572400D01*
X574063Y453365D01*
X574815Y454117D01*
X575805D01*
X576557Y453365D01*
X578220Y452676D01*
X580020D01*
X581683Y453365D01*
X582955Y454637D01*
X583644Y456300D01*
Y458100D01*
X582955Y459763D01*
X581683Y461035D01*
X580020Y461724D01*
X578220D01*
X576557Y461035D01*
X575805Y460283D01*
X574815D01*
X574063Y461035D01*
X572400Y461724D01*
X570600D01*
X568937Y461035D01*
X567074Y462000D01*
Y464012D01*
D02*
G37*
G36*
X676097Y444023D02*
X669727D01*
Y433253D01*
X676097D01*
Y444023D01*
D02*
G37*
G36*
X667187D02*
X660817D01*
Y433253D01*
X667187D01*
Y444023D01*
D02*
G37*
G36*
X625297D02*
X618927D01*
Y433253D01*
X625297D01*
Y444023D01*
D02*
G37*
G36*
X616387D02*
X610017D01*
Y433253D01*
X616387D01*
Y444023D01*
D02*
G37*
G36*
X574497D02*
X568127D01*
Y433253D01*
X574497D01*
Y444023D01*
D02*
G37*
G36*
X565587D02*
X559217D01*
Y433253D01*
X565587D01*
Y444023D01*
D02*
G37*
G36*
X523697D02*
X517327D01*
Y433253D01*
X523697D01*
Y444023D01*
D02*
G37*
G36*
X514787D02*
X508417D01*
Y433253D01*
X514787D01*
Y444023D01*
D02*
G37*
G36*
X371297D02*
X364927D01*
Y433253D01*
X371297D01*
Y444023D01*
D02*
G37*
G36*
X362387D02*
X356017D01*
Y433253D01*
X362387D01*
Y444023D01*
D02*
G37*
G36*
X676097Y430713D02*
X669727D01*
Y419943D01*
X676097D01*
Y430713D01*
D02*
G37*
G36*
X667187D02*
X660817D01*
Y419943D01*
X667187D01*
Y430713D01*
D02*
G37*
G36*
X625297D02*
X618927D01*
Y419943D01*
X625297D01*
Y430713D01*
D02*
G37*
G36*
X616387D02*
X610017D01*
Y419943D01*
X616387D01*
Y430713D01*
D02*
G37*
G36*
X574497D02*
X568127D01*
Y419943D01*
X574497D01*
Y430713D01*
D02*
G37*
G36*
X565587D02*
X559217D01*
Y419943D01*
X565587D01*
Y430713D01*
D02*
G37*
G36*
X523697D02*
X517327D01*
Y419943D01*
X523697D01*
Y430713D01*
D02*
G37*
G36*
X514787D02*
X508417D01*
Y419943D01*
X514787D01*
Y430713D01*
D02*
G37*
G36*
X395681Y410007D02*
X382433D01*
Y403595D01*
X375415D01*
X375158Y403647D01*
X374712Y403558D01*
X374258D01*
X373838Y403384D01*
X373393Y403296D01*
X373015Y403043D01*
X372595Y402869D01*
X372274Y402548D01*
X371896Y402296D01*
X371644Y401918D01*
X371323Y401597D01*
X371149Y401177D01*
X370896Y400799D01*
X370808Y400354D01*
X370634Y399934D01*
Y399479D01*
X370545Y399034D01*
X370634Y398588D01*
Y398134D01*
X370808Y397714D01*
X370896Y397269D01*
X371149Y396891D01*
X371323Y396471D01*
X371644Y396150D01*
X371896Y395772D01*
X371948Y395721D01*
X372325Y395469D01*
X372595Y395199D01*
X372948Y395053D01*
X373444Y394721D01*
X374029Y394605D01*
X374258Y394510D01*
X374506D01*
X375209Y394370D01*
X382433D01*
Y387959D01*
X395681D01*
Y394370D01*
X399999D01*
X400256Y394421D01*
X409956D01*
X410401Y394510D01*
X410856D01*
X411276Y394684D01*
X411721Y394772D01*
X412099Y395025D01*
X412519Y395199D01*
X412840Y395520D01*
X413218Y395772D01*
X413470Y396150D01*
X413791Y396471D01*
X413965Y396891D01*
X414217Y397269D01*
X414306Y397714D01*
X414480Y398134D01*
Y398588D01*
X414569Y399034D01*
X414480Y399479D01*
Y399934D01*
X414306Y400354D01*
X414217Y400799D01*
X413965Y401177D01*
X413791Y401597D01*
X413470Y401918D01*
X413218Y402296D01*
X412840Y402548D01*
X412519Y402869D01*
X412099Y403043D01*
X411721Y403296D01*
X411276Y403384D01*
X410856Y403558D01*
X410401D01*
X409956Y403647D01*
X400050D01*
X399793Y403595D01*
X395681D01*
Y410007D01*
D02*
G37*
G36*
X701497Y411023D02*
X695127D01*
Y400253D01*
X701497D01*
Y411023D01*
D02*
G37*
G36*
X692587D02*
X686217D01*
Y400253D01*
X692587D01*
Y411023D01*
D02*
G37*
G36*
X650697Y411023D02*
X644327D01*
Y400253D01*
X650697D01*
Y411023D01*
D02*
G37*
G36*
X641787D02*
X635417D01*
Y400253D01*
X641787D01*
Y411023D01*
D02*
G37*
G36*
X599897D02*
X593527D01*
Y400253D01*
X599897D01*
Y411023D01*
D02*
G37*
G36*
X590987D02*
X584617D01*
Y400253D01*
X590987D01*
Y411023D01*
D02*
G37*
G36*
X549097D02*
X542727D01*
Y400253D01*
X549097D01*
Y411023D01*
D02*
G37*
G36*
X540187D02*
X533817D01*
Y400253D01*
X540187D01*
Y411023D01*
D02*
G37*
G36*
X701497Y397713D02*
X695127D01*
Y386943D01*
X701497D01*
Y397713D01*
D02*
G37*
G36*
X692587D02*
X686217D01*
Y386943D01*
X692587D01*
Y397713D01*
D02*
G37*
G36*
X650697Y397713D02*
X644327D01*
Y386943D01*
X650697D01*
Y397713D01*
D02*
G37*
G36*
X641787D02*
X635417D01*
Y386943D01*
X641787D01*
Y397713D01*
D02*
G37*
G36*
X599897D02*
X593527D01*
Y386943D01*
X599897D01*
Y397713D01*
D02*
G37*
G36*
X590987D02*
X584617D01*
Y386943D01*
X590987D01*
Y397713D01*
D02*
G37*
G36*
X549097D02*
X542727D01*
Y386943D01*
X549097D01*
Y397713D01*
D02*
G37*
G36*
X540187D02*
X533817D01*
Y386943D01*
X540187D01*
Y397713D01*
D02*
G37*
G36*
X195006Y352806D02*
X192598D01*
X190273Y352183D01*
X188188Y350979D01*
X186485Y349277D01*
X185281Y347192D01*
X184658Y344866D01*
Y342458D01*
X185281Y340132D01*
X186485Y338047D01*
X188188Y336345D01*
X190273Y335141D01*
X191227Y334885D01*
Y229870D01*
X191227Y229870D01*
X191462Y228690D01*
X192130Y227690D01*
X287634Y132186D01*
X288634Y131517D01*
X289814Y131283D01*
X289814Y131283D01*
X317233D01*
X317985Y130531D01*
X319648Y129842D01*
X321448D01*
X323111Y130531D01*
X324383Y131803D01*
X325072Y133466D01*
Y135266D01*
X324383Y136929D01*
X323111Y138201D01*
X321448Y138890D01*
X319648D01*
X317985Y138201D01*
X317233Y137449D01*
X291091D01*
X197393Y231147D01*
Y335177D01*
X199417Y336345D01*
X201119Y338047D01*
X202323Y340132D01*
X202946Y342458D01*
Y344866D01*
X202323Y347192D01*
X201119Y349277D01*
X199417Y350979D01*
X197332Y352183D01*
X195006Y352806D01*
D02*
G37*
%LPD*%
D14*
X292710Y585220D02*
D03*
X283210D02*
D03*
X273710D02*
D03*
Y560320D02*
D03*
X292710D02*
D03*
D15*
X314198Y477670D02*
D03*
Y459082D02*
D03*
D16*
X293370Y524400D02*
D03*
Y542400D02*
D03*
X273050Y524400D02*
D03*
Y542400D02*
D03*
X271780Y460790D02*
D03*
Y478790D02*
D03*
X382270Y476360D02*
D03*
Y458360D02*
D03*
X351790Y476250D02*
D03*
Y458250D02*
D03*
X252730Y542180D02*
D03*
Y560180D02*
D03*
X461010Y472550D02*
D03*
Y454550D02*
D03*
X294132Y460392D02*
D03*
Y478392D02*
D03*
X558800Y457488D02*
D03*
Y475488D02*
D03*
X229362Y544466D02*
D03*
Y562466D02*
D03*
D17*
X232300Y524764D02*
D03*
X250300D02*
D03*
X328710Y557530D02*
D03*
X346710D02*
D03*
X328930Y579120D02*
D03*
X310930D02*
D03*
D18*
X389057Y398983D02*
D03*
X465257Y431983D02*
D03*
X490657Y398983D02*
D03*
X439857D02*
D03*
X338257Y398983D02*
D03*
Y500583D02*
D03*
X363657Y431983D02*
D03*
X389057Y500583D02*
D03*
X363657Y533583D02*
D03*
X516057Y431983D02*
D03*
X541457Y398983D02*
D03*
X566857Y431983D02*
D03*
X592257Y398983D02*
D03*
X643057D02*
D03*
X617657Y431983D02*
D03*
X693857Y398983D02*
D03*
X668457Y431983D02*
D03*
X490657Y500583D02*
D03*
X541457D02*
D03*
X439857D02*
D03*
X465257Y533583D02*
D03*
X566857D02*
D03*
X516057D02*
D03*
X592257Y500583D02*
D03*
X643057D02*
D03*
X617657Y533583D02*
D03*
X693857Y500583D02*
D03*
X668457Y533583D02*
D03*
X414457Y431983D02*
D03*
Y533583D02*
D03*
D19*
X530096Y464850D02*
D03*
Y469850D02*
D03*
Y474850D02*
D03*
Y459850D02*
D03*
X501204D02*
D03*
Y464850D02*
D03*
Y469850D02*
D03*
Y474850D02*
D03*
D20*
X515650Y467350D02*
D03*
D33*
X370332Y29924D02*
X370538Y29718D01*
X468122Y24130D02*
X521970Y77978D01*
X370538Y29718D02*
X462280D01*
X347980Y24130D02*
X468122D01*
X515747Y453263D02*
X524129D01*
X515620Y453136D02*
X515747Y453263D01*
X515620Y453136D02*
Y467320D01*
X515650Y467350D01*
X518150Y469850D01*
X530096D01*
X519166Y464850D02*
X524162Y459854D01*
X516666Y467350D02*
X519166Y464850D01*
X530096D01*
X518150D02*
X519166D01*
X515650Y467350D02*
X518150Y464850D01*
X515650Y467350D02*
X516666D01*
X514634D02*
X515650D01*
X524162Y459854D02*
X530092D01*
X530096Y459850D01*
X507138Y459854D02*
X514634Y467350D01*
X501204Y459850D02*
X501208Y459854D01*
X507138D01*
X530096Y474850D02*
X558162D01*
X460900Y472440D02*
X461010Y472550D01*
X558162Y474850D02*
X558800Y475488D01*
X485424Y464850D02*
X501204D01*
X475124Y454550D02*
X485424Y464850D01*
X480794Y469850D02*
X501204D01*
X477052Y466108D02*
X480794Y469850D01*
X37084Y56388D02*
X255778D01*
X296418Y97028D01*
X56654Y50558D02*
X263973D01*
X37084Y30988D02*
X56654Y50558D01*
X263973D02*
X300990Y87575D01*
X480933Y474915D02*
X501139D01*
X476241Y478795D02*
X477053D01*
X480933Y474915D01*
X501139D02*
X501204Y474850D01*
X296418Y97028D02*
X316484D01*
X508762Y204724D02*
X509016Y204470D01*
Y76454D02*
Y204470D01*
X462280Y29718D02*
X509016Y76454D01*
X37084Y58928D02*
X37437Y58575D01*
X430530Y447040D02*
X453848D01*
X460160Y453352D01*
X461010Y454550D02*
X475124D01*
X476240Y466108D02*
X477052D01*
X521970Y77978D02*
Y213614D01*
D34*
X679450Y120904D02*
X702818D01*
X644144Y156210D02*
Y212852D01*
Y156210D02*
X679450Y120904D01*
X120650Y262890D02*
X213360Y170180D01*
Y145034D02*
Y170180D01*
X252730Y526940D02*
Y542180D01*
X248920Y497490D02*
Y523130D01*
X252730Y526940D01*
X559088Y457200D02*
X579120D01*
X558800Y457488D02*
X559088Y457200D01*
X76660Y136494D02*
X107490Y105664D01*
X173736D01*
X165316Y112230D02*
X165608Y112522D01*
X107322Y112230D02*
X165316D01*
X81184Y138368D02*
X107322Y112230D01*
X81184Y138368D02*
Y241396D01*
X107950Y98806D02*
X182880D01*
X72136Y134620D02*
Y199644D01*
X76660Y136494D02*
Y217532D01*
X72136Y134620D02*
X107950Y98806D01*
X40640Y281940D02*
X81184Y241396D01*
X40640Y253552D02*
X76660Y217532D01*
X40640Y231140D02*
X72136Y199644D01*
X577088Y51308D02*
X610616Y17780D01*
X577088Y51308D02*
Y89154D01*
X552196Y114046D02*
X577088Y89154D01*
X610616Y17780D02*
X627380D01*
X532384Y114046D02*
X552196D01*
X194310Y229870D02*
X289814Y134366D01*
X320548D01*
X194310Y229870D02*
Y343662D01*
X226970Y547010D02*
X227330Y547370D01*
X245790D01*
X250980Y542180D02*
X252730D01*
X245790Y547370D02*
X250980Y542180D01*
X213360Y145034D02*
X249428Y108966D01*
X433324D01*
X451612Y90678D01*
X168402Y229108D02*
Y343662D01*
X240030Y415290D01*
X422910Y415290D01*
X439603Y431983D01*
X465257D01*
X168402Y229108D02*
X280670Y116840D01*
X328930D01*
X40640Y253552D02*
Y256540D01*
X157480Y32512D02*
X179832Y10160D01*
X633615D02*
X661670Y38214D01*
Y82296D01*
X179832Y10160D02*
X633615D01*
X281940Y600964D02*
X302260D01*
X274246Y593270D02*
X281940Y600964D01*
X302260D02*
X310930Y592294D01*
Y579120D02*
Y592294D01*
X274246Y585756D02*
Y593270D01*
X273710Y585220D02*
X274246Y585756D01*
X397876Y550164D02*
X406975Y541065D01*
X410857D01*
X414457Y537465D01*
X354076Y550164D02*
X397876D01*
X414457Y533583D02*
Y537465D01*
X346710Y555780D02*
X350210Y552280D01*
X351960D02*
X354076Y550164D01*
X346710Y555780D02*
Y557530D01*
X350210Y552280D02*
X351960D01*
X325210Y561030D02*
Y563090D01*
X310930Y577370D02*
X325210Y563090D01*
X310930Y577370D02*
Y579120D01*
X325210Y561030D02*
X328710Y557530D01*
D35*
X297180Y166370D02*
X337820D01*
X244602Y218948D02*
X297180Y166370D01*
X219202Y236728D02*
X297180Y158750D01*
X244602Y218948D02*
Y343662D01*
X297180Y158750D02*
X346710D01*
X219202Y236728D02*
Y343662D01*
X257810Y382270D02*
X427544D01*
X219202Y343662D02*
X257810Y382270D01*
X427544D02*
X439857Y394583D01*
X244602Y343662D02*
X277622Y376682D01*
X445770D01*
X460476Y391388D01*
X487462D01*
X490657Y394583D01*
Y398983D01*
X439857Y394583D02*
Y398983D01*
X231517Y560180D02*
X252730D01*
X252800Y560250D01*
X286305Y566747D02*
Y566952D01*
X289178Y569825D01*
X289493D02*
X292002Y572335D01*
Y584512D01*
X289178Y569825D02*
X289493D01*
X274805Y564515D02*
X284073D01*
X286305Y566747D01*
X292002Y584512D02*
X292710Y585220D01*
X273640Y560250D02*
X273710Y560320D01*
Y563420D02*
X274805Y564515D01*
X273710Y560320D02*
Y563420D01*
X252800Y560250D02*
X273640D01*
D36*
X400050Y399034D02*
X409956D01*
X389057Y398983D02*
X399999D01*
X375209D02*
X389057D01*
X399999D02*
X400050Y399034D01*
X375158D02*
X375209Y398983D01*
X322580Y485710D02*
X349624Y458666D01*
X322580Y485710D02*
Y514940D01*
X295120Y542400D02*
X322580Y514940D01*
X294331Y478591D02*
X294386Y478646D01*
X294132Y478392D02*
X294331Y478591D01*
X271979D02*
X294331D01*
X271780Y478790D02*
X271979Y478591D01*
X294386Y478646D02*
Y490220D01*
X271780Y478790D02*
Y490728D01*
X293370Y542400D02*
X295120D01*
X443484Y472440D02*
X460900D01*
X558800Y475488D02*
X574802D01*
X313476Y478392D02*
X314198Y477670D01*
X294132Y478392D02*
X313476D01*
X233680Y460502D02*
X234078Y460900D01*
X213432Y460945D02*
X233237D01*
X233680Y460502D01*
X234078Y460900D02*
X293370D01*
X382325Y458305D02*
X384270Y456360D01*
X382270Y458360D02*
X382325Y458305D01*
X382215D02*
X382270Y458360D01*
X382123Y458213D02*
X382215Y458305D01*
X382325D01*
X351845D02*
X382215D01*
X351790Y458250D02*
X351845Y458305D01*
X314614Y458666D02*
X349624D01*
X350040Y458250D01*
X351790D01*
X349624Y458666D02*
X351374D01*
X351790Y458250D01*
X314198Y459082D02*
X314614Y458666D01*
X273050Y542400D02*
X293370D01*
X292710Y543060D02*
X293370Y542400D01*
X292710Y543060D02*
Y560320D01*
X384270Y456360D02*
X394480D01*
X414457Y431983D02*
Y436383D01*
X394480Y456360D02*
X414457Y436383D01*
D37*
X778032Y198830D02*
D03*
Y128830D02*
D03*
D38*
X751032Y188830D02*
D03*
Y138830D02*
D03*
D39*
X40640Y408940D02*
D03*
Y154940D02*
D03*
Y358140D02*
D03*
Y332740D02*
D03*
Y307340D02*
D03*
Y281940D02*
D03*
Y256540D02*
D03*
Y231140D02*
D03*
Y205740D02*
D03*
Y180340D02*
D03*
X51816Y625348D02*
D03*
Y701548D02*
D03*
X77216Y676148D02*
D03*
D40*
X40640Y383540D02*
D03*
X77216Y650748D02*
D03*
D41*
X605536Y186436D02*
D03*
Y161036D02*
D03*
Y135636D02*
D03*
Y110236D02*
D03*
Y84836D02*
D03*
X208280Y32512D02*
D03*
X182880D02*
D03*
X157480D02*
D03*
X132080D02*
D03*
X106680D02*
D03*
X117602Y343662D02*
D03*
X143002D02*
D03*
X168402D02*
D03*
X193802D02*
D03*
X219202D02*
D03*
X482600Y109220D02*
D03*
Y134620D02*
D03*
Y160020D02*
D03*
Y185420D02*
D03*
X31496Y55880D02*
D03*
Y81280D02*
D03*
Y106680D02*
D03*
X120650Y262890D02*
D03*
Y288290D02*
D03*
X547624Y160528D02*
D03*
Y185928D02*
D03*
X547370Y58420D02*
D03*
Y83820D02*
D03*
D42*
X605536Y59436D02*
D03*
X482600Y83820D02*
D03*
X31496Y30480D02*
D03*
X120650Y237490D02*
D03*
X547624Y135128D02*
D03*
X547370Y33020D02*
D03*
D43*
X81280Y32512D02*
D03*
X244602Y343662D02*
D03*
D44*
X750000Y50000D02*
D03*
X160000Y467350D02*
D03*
X750000Y685000D02*
D03*
D45*
X83621Y80010D02*
D03*
X370332Y29924D02*
D03*
X347980Y24130D02*
D03*
X694550Y114880D02*
D03*
X656494Y153162D02*
D03*
X766318Y232156D02*
D03*
X766064Y260858D02*
D03*
X738632Y176784D02*
D03*
X729996Y176530D02*
D03*
X700024Y185928D02*
D03*
X690372Y239522D02*
D03*
Y249428D02*
D03*
X690880Y185674D02*
D03*
X676994Y155248D02*
D03*
X644144Y212852D02*
D03*
X656112Y226314D02*
D03*
X690626Y72390D02*
D03*
X683514D02*
D03*
X756920Y100076D02*
D03*
X749046D02*
D03*
X112776Y195834D02*
D03*
Y186182D02*
D03*
X168557Y177292D02*
D03*
X180594D02*
D03*
X346710Y158750D02*
D03*
X244550Y379786D02*
D03*
X409956Y399034D02*
D03*
X400050D02*
D03*
X375158D02*
D03*
X248920Y497490D02*
D03*
X271780Y490728D02*
D03*
X294386Y490220D02*
D03*
X571500Y457200D02*
D03*
X579120D02*
D03*
X524129Y453263D02*
D03*
X515620Y453136D02*
D03*
X443484Y472440D02*
D03*
X574802Y475488D02*
D03*
X98298Y432054D02*
D03*
X176530Y676292D02*
D03*
X205486Y676148D02*
D03*
X316738Y715772D02*
D03*
X294386Y716280D02*
D03*
X294738Y723804D02*
D03*
X644550Y119785D02*
D03*
X165608Y112522D02*
D03*
X244550Y599786D02*
D03*
X224550D02*
D03*
X702818Y120904D02*
D03*
X408178Y148844D02*
D03*
X744550Y119785D02*
D03*
X694550Y719785D02*
D03*
Y219785D02*
D03*
Y19785D02*
D03*
X644550Y719785D02*
D03*
X669550Y669785D02*
D03*
Y269785D02*
D03*
X594550Y719785D02*
D03*
X619550Y669785D02*
D03*
Y269785D02*
D03*
X594550Y219785D02*
D03*
X619550Y169785D02*
D03*
X544550Y719785D02*
D03*
X569550Y669785D02*
D03*
Y269785D02*
D03*
X544550Y219785D02*
D03*
X494550Y719785D02*
D03*
X519550Y669785D02*
D03*
Y269785D02*
D03*
X494550Y219785D02*
D03*
X444550Y719785D02*
D03*
X469550Y669785D02*
D03*
Y269785D02*
D03*
X444550Y219785D02*
D03*
X394550Y719785D02*
D03*
X419550Y669785D02*
D03*
Y269785D02*
D03*
X344550Y719785D02*
D03*
X369550Y669785D02*
D03*
Y69785D02*
D03*
X294550Y619785D02*
D03*
Y319785D02*
D03*
X269550Y269785D02*
D03*
X194550Y419785D02*
D03*
X144550Y619785D02*
D03*
Y519785D02*
D03*
Y419785D02*
D03*
X169550Y369785D02*
D03*
X94550Y719785D02*
D03*
Y619785D02*
D03*
X69550Y369785D02*
D03*
X476241Y478795D02*
D03*
X316484Y97028D02*
D03*
X508762Y204724D02*
D03*
X320548Y134366D02*
D03*
X213360Y145034D02*
D03*
X627380Y17780D02*
D03*
X451612Y90678D02*
D03*
X532384Y114046D02*
D03*
X328930Y116840D02*
D03*
X173736Y105664D02*
D03*
X414020Y210058D02*
D03*
X96774Y390398D02*
D03*
X113284Y373126D02*
D03*
X424434Y157988D02*
D03*
X407162Y158242D02*
D03*
X398018Y219456D02*
D03*
X350012Y88392D02*
D03*
X261366Y35814D02*
D03*
X241046Y36068D02*
D03*
X339344Y99314D02*
D03*
X337820Y166370D02*
D03*
X182880Y98806D02*
D03*
X430530Y447040D02*
D03*
X476240Y466108D02*
D03*
X300990Y87575D02*
D03*
X521970Y213614D02*
D03*
X661670Y82296D02*
D03*
X97790Y153670D02*
D03*
X90678Y187960D02*
D03*
X90932Y246888D02*
D03*
X100076Y268478D02*
D03*
X192278Y148082D02*
D03*
X213432Y460945D02*
D03*
X233680Y460502D02*
D03*
X424180Y74676D02*
D03*
X386080Y89408D02*
D03*
X424180Y175514D02*
D03*
X407924D02*
D03*
X656494Y170180D02*
D03*
X674908D02*
D03*
X656494Y208026D02*
D03*
X142240Y388366D02*
D03*
X128778Y403098D02*
D03*
X784551Y539786D02*
D03*
Y499786D02*
D03*
Y459786D02*
D03*
Y419786D02*
D03*
Y379786D02*
D03*
X764551Y539786D02*
D03*
X774551Y519786D02*
D03*
X764551Y499786D02*
D03*
X774551Y479786D02*
D03*
X764551Y459786D02*
D03*
X774551Y439786D02*
D03*
X764551Y419786D02*
D03*
X774551Y399786D02*
D03*
X764551Y379786D02*
D03*
X744551Y539786D02*
D03*
X754551Y519786D02*
D03*
X744551Y499786D02*
D03*
X754551Y479786D02*
D03*
X744551Y459786D02*
D03*
X754551Y439786D02*
D03*
X744551Y419786D02*
D03*
X754551Y399786D02*
D03*
X744551Y379786D02*
D03*
X724551Y539786D02*
D03*
X734551Y519786D02*
D03*
X724551Y499786D02*
D03*
X734551Y479786D02*
D03*
X724551Y459786D02*
D03*
X734551Y439786D02*
D03*
X724551Y419786D02*
D03*
X734551Y399786D02*
D03*
X724551Y379786D02*
D03*
X704551Y539786D02*
D03*
X714551Y519786D02*
D03*
Y479786D02*
D03*
X704551Y459786D02*
D03*
X714551Y439786D02*
D03*
Y399786D02*
D03*
X684551Y459786D02*
D03*
X694551Y439786D02*
D03*
X664551Y499786D02*
D03*
X674551Y479786D02*
D03*
X664551Y459786D02*
D03*
X674551Y399786D02*
D03*
X664551Y379786D02*
D03*
X644551Y539786D02*
D03*
Y459786D02*
D03*
X624551Y499786D02*
D03*
Y459786D02*
D03*
Y379786D02*
D03*
X614551Y399786D02*
D03*
X564551Y499786D02*
D03*
Y379786D02*
D03*
X544551Y539786D02*
D03*
X524551Y379786D02*
D03*
X514551Y399786D02*
D03*
X504551Y379786D02*
D03*
X484551Y539786D02*
D03*
Y419786D02*
D03*
Y379786D02*
D03*
X464551Y499786D02*
D03*
X474551Y399786D02*
D03*
X464551Y379786D02*
D03*
X444551Y539786D02*
D03*
Y419786D02*
D03*
X454551Y399786D02*
D03*
X424551Y459786D02*
D03*
X414551Y479786D02*
D03*
X404551Y459786D02*
D03*
X384551Y539786D02*
D03*
X374551Y559786D02*
D03*
X364551Y499786D02*
D03*
X344551Y539786D02*
D03*
X324551D02*
D03*
X334551Y439786D02*
D03*
X314550Y559786D02*
D03*
X304550Y499786D02*
D03*
X314550Y439786D02*
D03*
Y399786D02*
D03*
X284550Y499786D02*
D03*
X294550Y439786D02*
D03*
Y399786D02*
D03*
X264550Y579786D02*
D03*
Y499786D02*
D03*
X274550Y439786D02*
D03*
Y399786D02*
D03*
X244550Y579786D02*
D03*
X224550D02*
D03*
X234550Y439786D02*
D03*
X224550Y419786D02*
D03*
X234550Y399786D02*
D03*
X224550Y219785D02*
D03*
X214550Y479786D02*
D03*
Y439786D02*
D03*
Y399786D02*
D03*
X204550Y299785D02*
D03*
X194550Y359786D02*
D03*
X184550Y299785D02*
D03*
Y259785D02*
D03*
X104550Y559786D02*
D03*
X94550Y539786D02*
D03*
Y579786D02*
D03*
X312928Y286512D02*
D03*
X329692Y270002D02*
D03*
X350520Y126746D02*
D03*
M02*
