M48
;Layer_Color=9474304
;FILE_FORMAT=4:4
METRIC,LZ
;TYPE=PLATED
T01F00S00C0.3000
T04F00S00C1.0160
T05F00S00C1.2000
;TYPE=NON_PLATED
T06F00S00C3.2000
%
T01
X0062738Y00020502
X0066167Y00082296
X0068326Y0008382
X00683514Y0007239
X00751586Y00100076
X0076581Y00099822
X00451612Y00090678
X0042418Y00074676
X0038608Y00089408
X00350012Y00088392
X00339344Y00099314
X00316484Y00097028
X0030099Y00087575
X00261366Y00035814
X00241046Y00036068
X0034798Y0002413
X00370332Y00029924
X0018288Y00098806
X00173736Y00105664
X00165608Y00112522
X00129032Y00085598
X00117348Y00063754
X00083621Y0008001
X0009779Y0015367
X00090678Y0018796
X00112776Y00186182
Y00195834
X00090932Y00246888
X00100076Y00268478
X00113284Y00373126
X00096774Y00390398
X00098298Y00432054
X00128778Y00403098
X0006955Y00369785
X0014224Y00388366
X0016955Y00369785
X0019455Y00359786
X0019455Y00419785
X0022455Y00419786
X0021455Y00399786
X0023455
X0024455Y00379786
X0027455Y00399786
X0029455
X0031455
Y00439786
X0029455
X0027455
X00258318Y0046101
X00238571Y00460945
X0023455Y00439786
X0021455
Y00479786
X0024892Y0049749
X0026455Y00499786
X0027178Y00490728
X0028455Y00499786
X00294386Y0049022
X0030455Y00499786
X00364551
X00414551Y00479786
X00437134Y0047244
X0044704
X00424551Y00459786
X0043053Y0044704
X00404551Y00459786
X0040005Y00399034
X00409956
X00375158
X00454551Y00399786
X00474551
X00464551Y00379786
X00484551
X00504551
X00524551
X00514551Y00399786
X00484551Y00419786
X00444551
X0047624Y00466108
X00476241Y00478795
X00464551Y00499786
X0051562Y00482092
Y00453136
X00334551Y00439786
X00329692Y00270002
X00312928Y00286512
X0026955Y00269785
X0018455Y00259785
Y00299785
X0020455
X0022455Y00219785
X00196088Y00177038
X0018034Y00177546
X00192278Y00148082
X0021336Y00145034
X00326644Y00146558
X00320548Y00134366
X0032893Y0011684
X0035052Y00126746
X0034671Y0015875
X0033782Y0016637
X00407162Y00158242
X00424434Y00157988
X0042418Y00175514
X00407924
X0041402Y00210058
X00398018Y00219456
X00508762Y00204724
X0052197Y00213614
X00532384Y00114046
X0064455Y00119785
X00657606Y00152908
X00657352Y00169926
X00674878Y00169418
X0067564Y00152908
X0069088Y00185674
X00700024Y00185928
X00729996Y0017653
X00738632Y00176784
X00702818Y00120904
X0069455Y0011488
X00690372Y00239522
Y00249428
X0066955Y00269785
X00656112Y00226314
X00657026Y00207997
X00644906Y0021209
X00766064Y00260858
Y00271018
X00764551Y00379786
X00744551
X00724551
X00714551Y00399786
X00734551
X00754551
X00774551
X00764551Y00419786
X00744551
X00724551
X00714551Y00439786
X00694551
X00684551Y00459786
X00664551
X00644551
X00624551
Y00499786
X00664551
X00674551Y00479786
X00714551
X00734551
X00754551
X00774551
X00764551Y00459786
X00744551
X00724551
X00704551
X00734551Y00439786
X00754551
X00774551
X00784551Y00419786
Y00379786
Y00459786
Y00499786
X00764551
X00744551
X00724551
X00674551Y00399786
X00664551Y00379786
X00624551
X00614551Y00399786
X00564551Y00379786
X00573278Y004572
X00585216Y00456946
X00581914Y00475234
X00573532Y00475488
X00564551Y00499786
X00544551Y00539786
X00644551
X00704551
X00724551
X00744551
X00764551
X00784551
X00774551Y00519786
X00754551
X00734551
X00714551
X0069455Y00719785
X0064455
X0059455
X0061955Y00669785
X0056955
X0041955
X0036955
X00316738Y00715772
X00294386Y0071628
X00205232Y0067691
Y00665226
X00178054Y00620522
X00169672Y0061087
X0014455Y00619785
X0022455Y00579786
X0024455
X0026455
X0031455Y00559786
X00324551Y00539786
X00344551
X00384551
X00374551Y00559786
X00444551Y00539786
X00484551
X0009455
X0010455Y00559786
X0009455Y00579786
X0009455Y00619785
T04
X0054737Y0003302
Y0005842
Y0008382
X00605536Y00084836
Y00059436
Y00110236
X004826Y0010922
Y0008382
X0020828Y00032512
X0018288
X0015748
X0013208
X0010668
X0008128
X00031496Y0003048
Y0005588
Y0008128
Y0010668
X0012065Y0023749
Y0026289
Y0028829
X00117602Y00343662
X00143002
X00168402
X00193802
X00219202
X00244602
X004826Y0018542
Y0016002
Y0013462
X00547624Y00135128
Y00160528
Y00185928
X00605536Y00186436
Y00161036
Y00135636
T05
X0004064Y0015494
Y0018034
Y0020574
Y0023114
Y0025654
Y0028194
Y0030734
Y0033274
Y0035814
Y0038354
Y0040894
X00051816Y00625348
X00077216Y00650748
Y00676148
X00051816Y00701548
T06
X0075Y0005
X0016Y0046735
X0075Y00685
M30
