G04*
G04 #@! TF.GenerationSoftware,Altium Limited,Altium Designer,26.5.0 (11)*
G04*
G04 Layer_Color=65535*
G04 Board_Origin=0|0*
%FSLAX44Y44*%
%MOMM*%
G71*
G04*
G04 #@! TF.SameCoordinates,52669DA5-AB40-4F9A-B776-9572E9AFDC63*
G04*
G04*
G04 #@! TF.FilePolarity,Positive*
G04*
G01*
G75*
%ADD10C,0.1000*%
%ADD11C,0.2000*%
%ADD12C,0.6000*%
%ADD13C,0.1524*%
%ADD14C,0.1270*%
D10*
X23002Y271260D02*
G03*
X23002Y271260I-762J0D01*
G01*
X185151Y94500D02*
G03*
X185151Y94500I-762J0D01*
G01*
X490352Y13970D02*
G03*
X490352Y13970I-5212J0D01*
G01*
X376052D02*
G03*
X376052Y13970I-5212J0D01*
G01*
X16642Y102870D02*
G03*
X16642Y102870I-5212J0D01*
G01*
Y11430D02*
G03*
X16642Y11430I-5212J0D01*
G01*
X97790Y121920D02*
X144780D01*
X97790Y180340D02*
X144780D01*
Y121920D02*
Y180340D01*
X97790Y121920D02*
Y180340D01*
X586740Y430530D02*
Y494030D01*
X598678Y430530D02*
Y494030D01*
X586740Y430530D02*
X598678D01*
X586740Y494030D02*
X598678D01*
X867410Y45466D02*
Y92710D01*
X855472Y45466D02*
Y92710D01*
X867410D01*
X855472Y45466D02*
X867410D01*
X403606Y102870D02*
X449580D01*
X403606Y114808D02*
X449580D01*
Y102870D02*
Y114808D01*
X403606Y102870D02*
Y114808D01*
X7112Y18796D02*
Y93980D01*
X19050Y18796D02*
Y93980D01*
X7112Y18796D02*
X19050D01*
X7112Y93980D02*
X19050D01*
X678180Y46736D02*
Y92710D01*
X666242Y46736D02*
Y92710D01*
X678180D01*
X666242Y46736D02*
X678180D01*
X929499Y230900D02*
Y234899D01*
X931499Y232899D02*
X927500D01*
X313549Y107710D02*
Y111709D01*
X315549Y109709D02*
X311550D01*
X38240Y291070D02*
Y287072D01*
X36241Y289071D02*
X40240D01*
X698359Y232170D02*
Y236169D01*
X700359Y234169D02*
X696360D01*
X864870Y49530D02*
X858872D01*
X860871Y51529D01*
X858872Y53529D01*
X864870D01*
X858872Y58527D02*
Y56528D01*
X859872Y55528D01*
X863870D01*
X864870Y56528D01*
Y58527D01*
X863870Y59527D01*
X859872D01*
X858872Y58527D01*
Y61526D02*
Y65525D01*
Y63526D01*
X864870D01*
X858872Y70523D02*
Y68524D01*
X859872Y67524D01*
X863870D01*
X864870Y68524D01*
Y70523D01*
X863870Y71523D01*
X859872D01*
X858872Y70523D01*
X864870Y73522D02*
X858872D01*
Y76521D01*
X859872Y77521D01*
X861871D01*
X862871Y76521D01*
Y73522D01*
Y75522D02*
X864870Y77521D01*
Y89517D02*
Y85518D01*
X860871Y89517D01*
X859872D01*
X858872Y88517D01*
Y86518D01*
X859872Y85518D01*
X675640Y50800D02*
X669642D01*
X671641Y52799D01*
X669642Y54799D01*
X675640D01*
X669642Y59797D02*
Y57798D01*
X670642Y56798D01*
X674640D01*
X675640Y57798D01*
Y59797D01*
X674640Y60797D01*
X670642D01*
X669642Y59797D01*
Y62796D02*
Y66795D01*
Y64795D01*
X675640D01*
X669642Y71793D02*
Y69794D01*
X670642Y68794D01*
X674640D01*
X675640Y69794D01*
Y71793D01*
X674640Y72793D01*
X670642D01*
X669642Y71793D01*
X675640Y74792D02*
X669642D01*
Y77791D01*
X670642Y78791D01*
X672641D01*
X673641Y77791D01*
Y74792D01*
Y76792D02*
X675640Y78791D01*
Y86788D02*
Y88788D01*
Y87788D01*
X669642D01*
X670642Y86788D01*
X407670Y105410D02*
Y111408D01*
X410669D01*
X411669Y110408D01*
Y108409D01*
X410669Y107409D01*
X407670D01*
X417667Y111408D02*
X413668D01*
Y105410D01*
X417667D01*
X413668Y108409D02*
X415667D01*
X419666Y111408D02*
Y105410D01*
X423665D01*
X425664Y111408D02*
X429663D01*
X427663D01*
Y105410D01*
X431662Y111408D02*
X433662D01*
X432662D01*
Y105410D01*
X431662D01*
X433662D01*
X440659Y111408D02*
X436661D01*
Y105410D01*
X440659D01*
X436661Y108409D02*
X438660D01*
X442659Y105410D02*
Y111408D01*
X445658D01*
X446657Y110408D01*
Y108409D01*
X445658Y107409D01*
X442659D01*
X444658D02*
X446657Y105410D01*
X486680Y14240D02*
X482681D01*
X368030Y14429D02*
X372029D01*
X370029Y16429D02*
Y12430D01*
X815529Y8890D02*
X811530D01*
X815529Y12889D01*
Y13888D01*
X814529Y14888D01*
X812530D01*
X811530Y13888D01*
X817528Y14888D02*
Y8890D01*
X820527D01*
X821527Y9890D01*
Y10889D01*
X820527Y11889D01*
X817528D01*
X820527D01*
X821527Y12889D01*
Y13888D01*
X820527Y14888D01*
X817528D01*
X786319Y8890D02*
X782320D01*
X786319Y12889D01*
Y13888D01*
X785319Y14888D01*
X783320D01*
X782320Y13888D01*
X788318Y8890D02*
Y12889D01*
X790317Y14888D01*
X792317Y12889D01*
Y8890D01*
Y11889D01*
X788318D01*
X720090Y8890D02*
X722089D01*
X721090D01*
Y14888D01*
X720090Y13888D01*
X725088Y14888D02*
Y8890D01*
X728087D01*
X729087Y9890D01*
Y10889D01*
X728087Y11889D01*
X725088D01*
X728087D01*
X729087Y12889D01*
Y13888D01*
X728087Y14888D01*
X725088D01*
X751840Y8890D02*
X753839D01*
X752840D01*
Y14888D01*
X751840Y13888D01*
X756838Y8890D02*
Y12889D01*
X758838Y14888D01*
X760837Y12889D01*
Y8890D01*
Y11889D01*
X756838D01*
X563880Y10160D02*
X565879D01*
X564880D01*
Y16158D01*
X563880Y15158D01*
X568878Y10160D02*
Y14159D01*
X570878Y16158D01*
X572877Y14159D01*
Y10160D01*
Y13159D01*
X568878D01*
X532130Y10160D02*
X534129D01*
X533130D01*
Y16158D01*
X532130Y15158D01*
X537128Y16158D02*
Y10160D01*
X540127D01*
X541127Y11160D01*
Y12159D01*
X540127Y13159D01*
X537128D01*
X540127D01*
X541127Y14159D01*
Y15158D01*
X540127Y16158D01*
X537128D01*
X598359Y10160D02*
X594360D01*
X598359Y14159D01*
Y15158D01*
X597359Y16158D01*
X595360D01*
X594360Y15158D01*
X600358Y10160D02*
Y14159D01*
X602357Y16158D01*
X604357Y14159D01*
Y10160D01*
Y13159D01*
X600358D01*
X627569Y10160D02*
X623570D01*
X627569Y14159D01*
Y15158D01*
X626569Y16158D01*
X624570D01*
X623570Y15158D01*
X629568Y16158D02*
Y10160D01*
X632567D01*
X633567Y11160D01*
Y12159D01*
X632567Y13159D01*
X629568D01*
X632567D01*
X633567Y14159D01*
Y15158D01*
X632567Y16158D01*
X629568D01*
X589632Y433070D02*
Y437069D01*
Y435069D01*
X595630D01*
X589632Y442067D02*
Y440068D01*
X590632Y439068D01*
X594630D01*
X595630Y440068D01*
Y442067D01*
X594630Y443067D01*
X590632D01*
X589632Y442067D01*
Y451064D02*
X595630D01*
Y454063D01*
X594630Y455063D01*
X593631D01*
X592631Y454063D01*
Y451064D01*
Y454063D01*
X591631Y455063D01*
X590632D01*
X589632Y454063D01*
Y451064D01*
Y460061D02*
Y458062D01*
X590632Y457062D01*
X594630D01*
X595630Y458062D01*
Y460061D01*
X594630Y461061D01*
X590632D01*
X589632Y460061D01*
X595630Y463060D02*
X591631D01*
X589632Y465060D01*
X591631Y467059D01*
X595630D01*
X592631D01*
Y463060D01*
X595630Y469058D02*
X589632D01*
Y472057D01*
X590632Y473057D01*
X592631D01*
X593631Y472057D01*
Y469058D01*
Y471058D02*
X595630Y473057D01*
X589632Y475056D02*
X595630D01*
Y478055D01*
X594630Y479055D01*
X590632D01*
X589632Y478055D01*
Y475056D01*
X595630Y487052D02*
X591631D01*
X589632Y489052D01*
X591631Y491051D01*
X595630D01*
X592631D01*
Y487052D01*
X853629Y491408D02*
X852629Y492408D01*
X850630D01*
X849630Y491408D01*
Y487410D01*
X850630Y486410D01*
X852629D01*
X853629Y487410D01*
Y489409D01*
X851629D01*
X855628Y486410D02*
Y492408D01*
X859627Y486410D01*
Y492408D01*
X861626D02*
Y486410D01*
X864625D01*
X865625Y487410D01*
Y491408D01*
X864625Y492408D01*
X861626D01*
X824230D02*
Y488409D01*
X826229Y486410D01*
X828229Y488409D01*
Y492408D01*
X830228D02*
Y486410D01*
X833227D01*
X834227Y487410D01*
Y491408D01*
X833227Y492408D01*
X830228D01*
X836226D02*
Y486410D01*
X839225D01*
X840225Y487410D01*
Y491408D01*
X839225Y492408D01*
X836226D01*
X801559Y491408D02*
X800559Y492408D01*
X798560D01*
X797560Y491408D01*
Y490409D01*
X798560Y489409D01*
X800559D01*
X801559Y488409D01*
Y487410D01*
X800559Y486410D01*
X798560D01*
X797560Y487410D01*
X803558Y492408D02*
Y486410D01*
X807557D01*
X809556D02*
Y492408D01*
X812555D01*
X813555Y491408D01*
Y489409D01*
X812555Y488409D01*
X809556D01*
X819553Y486410D02*
X815554D01*
X819553Y490409D01*
Y491408D01*
X818553Y492408D01*
X816554D01*
X815554Y491408D01*
X774889Y492408D02*
X770890D01*
Y486410D01*
X774889D01*
X770890Y489409D02*
X772889D01*
X776888Y486410D02*
Y492408D01*
X780887Y486410D01*
Y492408D01*
X782886D02*
Y486410D01*
X785885D01*
X786885Y487410D01*
Y488409D01*
X785885Y489409D01*
X782886D01*
X785885D01*
X786885Y490409D01*
Y491408D01*
X785885Y492408D01*
X782886D01*
X792883Y486410D02*
X788884D01*
X792883Y490409D01*
Y491408D01*
X791883Y492408D01*
X789884D01*
X788884Y491408D01*
X749300Y492408D02*
Y486410D01*
X752299D01*
X753299Y487410D01*
Y491408D01*
X752299Y492408D01*
X749300D01*
X755298D02*
X757297D01*
X756298D01*
Y486410D01*
X755298D01*
X757297D01*
X760296D02*
Y492408D01*
X763296D01*
X764295Y491408D01*
Y489409D01*
X763296Y488409D01*
X760296D01*
X762296D02*
X764295Y486410D01*
X726629Y491408D02*
X725629Y492408D01*
X723630D01*
X722630Y491408D01*
Y490409D01*
X723630Y489409D01*
X725629D01*
X726629Y488409D01*
Y487410D01*
X725629Y486410D01*
X723630D01*
X722630Y487410D01*
X728628Y492408D02*
Y486410D01*
X732627D01*
X734626D02*
Y492408D01*
X737625D01*
X738625Y491408D01*
Y489409D01*
X737625Y488409D01*
X734626D01*
X740624Y486410D02*
X742624D01*
X741624D01*
Y492408D01*
X740624Y491408D01*
X701229Y492408D02*
X697230D01*
Y486410D01*
X701229D01*
X697230Y489409D02*
X699229D01*
X703228Y486410D02*
Y492408D01*
X707227Y486410D01*
Y492408D01*
X709226D02*
Y486410D01*
X712225D01*
X713225Y487410D01*
Y488409D01*
X712225Y489409D01*
X709226D01*
X712225D01*
X713225Y490409D01*
Y491408D01*
X712225Y492408D01*
X709226D01*
X715224Y486410D02*
X717224D01*
X716224D01*
Y492408D01*
X715224Y491408D01*
X673289D02*
X672289Y492408D01*
X670290D01*
X669290Y491408D01*
Y490409D01*
X670290Y489409D01*
X672289D01*
X673289Y488409D01*
Y487410D01*
X672289Y486410D01*
X670290D01*
X669290Y487410D01*
X675288Y492408D02*
X679287D01*
X677287D01*
Y486410D01*
X685285Y492408D02*
X681286D01*
Y486410D01*
X685285D01*
X681286Y489409D02*
X683286D01*
X687284Y486410D02*
Y492408D01*
X690283D01*
X691283Y491408D01*
Y489409D01*
X690283Y488409D01*
X687284D01*
X647700Y486410D02*
Y492408D01*
X650699D01*
X651699Y491408D01*
Y489409D01*
X650699Y488409D01*
X647700D01*
X657697Y492408D02*
X653698D01*
Y486410D01*
X657697D01*
X653698Y489409D02*
X655697D01*
X659696Y492408D02*
Y486410D01*
X663695D01*
X114219Y174908D02*
X113219Y175908D01*
X111220D01*
X110220Y174908D01*
Y173909D01*
X111220Y172909D01*
X113219D01*
X114219Y171909D01*
Y170910D01*
X113219Y169910D01*
X111220D01*
X110220Y170910D01*
X116218Y169910D02*
Y175908D01*
X120217Y169910D01*
Y175908D01*
X122216D02*
Y169910D01*
X125215D01*
X126215Y170910D01*
Y171909D01*
X125215Y172909D01*
X122216D01*
X125215D01*
X126215Y173909D01*
Y174908D01*
X125215Y175908D01*
X122216D01*
X9890Y91710D02*
X15888D01*
Y88711D01*
X14888Y87711D01*
X12889D01*
X11889Y88711D01*
Y91710D01*
X15888Y82713D02*
Y84712D01*
X14888Y85712D01*
X10890D01*
X9890Y84712D01*
Y82713D01*
X10890Y81713D01*
X14888D01*
X15888Y82713D01*
Y79714D02*
X9890D01*
X11889Y77715D01*
X9890Y75715D01*
X15888D01*
Y69717D02*
Y73716D01*
X9890D01*
Y69717D01*
X12889Y73716D02*
Y71716D01*
X9890Y67718D02*
X15888D01*
Y64719D01*
X14888Y63719D01*
X12889D01*
X11889Y64719D01*
Y67718D01*
Y65718D02*
X9890Y63719D01*
X14888Y51723D02*
X15888Y52723D01*
Y54722D01*
X14888Y55722D01*
X13889D01*
X12889Y54722D01*
Y52723D01*
X11889Y51723D01*
X10890D01*
X9890Y52723D01*
Y54722D01*
X10890Y55722D01*
X15888Y49724D02*
X10890D01*
X9890Y48724D01*
Y46725D01*
X10890Y45725D01*
X15888D01*
X9890Y43726D02*
X15888D01*
Y40726D01*
X14888Y39727D01*
X12889D01*
X11889Y40726D01*
Y43726D01*
X9890Y37727D02*
X15888D01*
Y34728D01*
X14888Y33729D01*
X12889D01*
X11889Y34728D01*
Y37727D01*
X15888Y31729D02*
X9890D01*
Y27731D01*
X15888Y25731D02*
X14888D01*
X12889Y23732D01*
X14888Y21733D01*
X15888D01*
X12889Y23732D02*
X9890D01*
X11889Y105680D02*
Y101681D01*
X13889Y103681D02*
X9890D01*
X11700Y9890D02*
Y13889D01*
X130728Y329741D02*
Y334739D01*
X129729Y335739D01*
X127729D01*
X126730Y334739D01*
Y329741D01*
X120732D02*
X122731Y330741D01*
X124730Y332740D01*
Y334739D01*
X123731Y335739D01*
X121731D01*
X120732Y334739D01*
Y333740D01*
X121731Y332740D01*
X124730D01*
X126352Y158291D02*
Y164289D01*
X129351D01*
X130351Y163289D01*
Y161290D01*
X129351Y160290D01*
X126352D01*
X128352D02*
X130351Y158291D01*
X132350Y163289D02*
X133350Y164289D01*
X135349D01*
X136349Y163289D01*
Y162290D01*
X135349Y161290D01*
X134350D01*
X135349D01*
X136349Y160290D01*
Y159291D01*
X135349Y158291D01*
X133350D01*
X132350Y159291D01*
X138348Y158291D02*
X140348D01*
X139348D01*
Y164289D01*
X138348Y163289D01*
X833579Y402213D02*
X827581D01*
Y405212D01*
X828581Y406211D01*
X830580D01*
X831580Y405212D01*
Y402213D01*
Y404212D02*
X833579Y406211D01*
X828581Y408211D02*
X827581Y409210D01*
Y411210D01*
X828581Y412209D01*
X829580D01*
X830580Y411210D01*
Y410210D01*
Y411210D01*
X831580Y412209D01*
X832579D01*
X833579Y411210D01*
Y409210D01*
X832579Y408211D01*
X828581Y414209D02*
X827581Y415208D01*
Y417208D01*
X828581Y418207D01*
X832579D01*
X833579Y417208D01*
Y415208D01*
X832579Y414209D01*
X828581D01*
X858979Y402213D02*
X852981D01*
Y405212D01*
X853981Y406211D01*
X855980D01*
X856980Y405212D01*
Y402213D01*
Y404212D02*
X858979Y406211D01*
Y412209D02*
Y408211D01*
X854980Y412209D01*
X853981D01*
X852981Y411210D01*
Y409210D01*
X853981Y408211D01*
X857979Y414209D02*
X858979Y415208D01*
Y417208D01*
X857979Y418207D01*
X853981D01*
X852981Y417208D01*
Y415208D01*
X853981Y414209D01*
X854980D01*
X855980Y415208D01*
Y418207D01*
X884379Y402213D02*
X878381D01*
Y405212D01*
X879381Y406211D01*
X881380D01*
X882380Y405212D01*
Y402213D01*
Y404212D02*
X884379Y406211D01*
Y412209D02*
Y408211D01*
X880380Y412209D01*
X879381D01*
X878381Y411210D01*
Y409210D01*
X879381Y408211D01*
Y414209D02*
X878381Y415208D01*
Y417208D01*
X879381Y418207D01*
X880380D01*
X881380Y417208D01*
X882380Y418207D01*
X883379D01*
X884379Y417208D01*
Y415208D01*
X883379Y414209D01*
X882380D01*
X881380Y415208D01*
X880380Y414209D01*
X879381D01*
X881380Y415208D02*
Y417208D01*
X594819Y402213D02*
X588821D01*
Y405212D01*
X589821Y406211D01*
X591820D01*
X592820Y405212D01*
Y402213D01*
Y404212D02*
X594819Y406211D01*
Y412209D02*
Y408211D01*
X590820Y412209D01*
X589821D01*
X588821Y411210D01*
Y409210D01*
X589821Y408211D01*
X588821Y414209D02*
Y418207D01*
X589821D01*
X593819Y414209D01*
X594819D01*
X621489Y403483D02*
X615491D01*
Y406482D01*
X616491Y407481D01*
X618490D01*
X619490Y406482D01*
Y403483D01*
Y405482D02*
X621489Y407481D01*
Y413479D02*
Y409481D01*
X617490Y413479D01*
X616491D01*
X615491Y412480D01*
Y410480D01*
X616491Y409481D01*
X615491Y419477D02*
X616491Y417478D01*
X618490Y415479D01*
X620489D01*
X621489Y416478D01*
Y418478D01*
X620489Y419477D01*
X619490D01*
X618490Y418478D01*
Y415479D01*
X646889Y402213D02*
X640891D01*
Y405212D01*
X641891Y406211D01*
X643890D01*
X644890Y405212D01*
Y402213D01*
Y404212D02*
X646889Y406211D01*
Y412209D02*
Y408211D01*
X642890Y412209D01*
X641891D01*
X640891Y411210D01*
Y409210D01*
X641891Y408211D01*
X640891Y418207D02*
Y414209D01*
X643890D01*
X642890Y416208D01*
Y417208D01*
X643890Y418207D01*
X645889D01*
X646889Y417208D01*
Y415208D01*
X645889Y414209D01*
X835283Y324881D02*
Y330879D01*
X838282D01*
X839281Y329879D01*
Y327880D01*
X838282Y326880D01*
X835283D01*
X837282D02*
X839281Y324881D01*
X845279D02*
X841281D01*
X845279Y328880D01*
Y329879D01*
X844280Y330879D01*
X842280D01*
X841281Y329879D01*
X847279D02*
X848278Y330879D01*
X850278D01*
X851277Y329879D01*
Y328880D01*
X850278Y327880D01*
X849278D01*
X850278D01*
X851277Y326880D01*
Y325881D01*
X850278Y324881D01*
X848278D01*
X847279Y325881D01*
X860683Y324661D02*
Y330659D01*
X863682D01*
X864681Y329659D01*
Y327660D01*
X863682Y326660D01*
X860683D01*
X862682D02*
X864681Y324661D01*
X870679D02*
X866681D01*
X870679Y328660D01*
Y329659D01*
X869680Y330659D01*
X867680D01*
X866681Y329659D01*
X876677Y324661D02*
X872679D01*
X876677Y328660D01*
Y329659D01*
X875678Y330659D01*
X873678D01*
X872679Y329659D01*
X887082Y324881D02*
Y330879D01*
X890081D01*
X891081Y329879D01*
Y327880D01*
X890081Y326880D01*
X887082D01*
X889082D02*
X891081Y324881D01*
X897079D02*
X893080D01*
X897079Y328880D01*
Y329879D01*
X896079Y330879D01*
X894080D01*
X893080Y329879D01*
X899078Y324881D02*
X901078D01*
X900078D01*
Y330879D01*
X899078Y329879D01*
X93603Y229411D02*
Y235409D01*
X96602D01*
X97601Y234409D01*
Y232410D01*
X96602Y231410D01*
X93603D01*
X95602D02*
X97601Y229411D01*
X103599D02*
X99601D01*
X103599Y233410D01*
Y234409D01*
X102600Y235409D01*
X100600D01*
X99601Y234409D01*
X105599D02*
X106598Y235409D01*
X108598D01*
X109597Y234409D01*
Y230411D01*
X108598Y229411D01*
X106598D01*
X105599Y230411D01*
Y234409D01*
X598293Y324661D02*
Y330659D01*
X601292D01*
X602291Y329659D01*
Y327660D01*
X601292Y326660D01*
X598293D01*
X600292D02*
X602291Y324661D01*
X604291D02*
X606290D01*
X605290D01*
Y330659D01*
X604291Y329659D01*
X609289Y325661D02*
X610289Y324661D01*
X612288D01*
X613288Y325661D01*
Y329659D01*
X612288Y330659D01*
X610289D01*
X609289Y329659D01*
Y328660D01*
X610289Y327660D01*
X613288D01*
X623693Y324661D02*
Y330659D01*
X626692D01*
X627691Y329659D01*
Y327660D01*
X626692Y326660D01*
X623693D01*
X625692D02*
X627691Y324661D01*
X629691D02*
X631690D01*
X630690D01*
Y330659D01*
X629691Y329659D01*
X634689D02*
X635689Y330659D01*
X637688D01*
X638688Y329659D01*
Y328660D01*
X637688Y327660D01*
X638688Y326660D01*
Y325661D01*
X637688Y324661D01*
X635689D01*
X634689Y325661D01*
Y326660D01*
X635689Y327660D01*
X634689Y328660D01*
Y329659D01*
X635689Y327660D02*
X637688D01*
X649092Y323391D02*
Y329389D01*
X652092D01*
X653091Y328389D01*
Y326390D01*
X652092Y325390D01*
X649092D01*
X651092D02*
X653091Y323391D01*
X655090D02*
X657090D01*
X656090D01*
Y329389D01*
X655090Y328389D01*
X660089Y329389D02*
X664088D01*
Y328389D01*
X660089Y324391D01*
Y323391D01*
X704973Y289101D02*
Y295099D01*
X707971D01*
X708971Y294099D01*
Y292100D01*
X707971Y291100D01*
X704973D01*
X706972D02*
X708971Y289101D01*
X710971D02*
X712970D01*
X711970D01*
Y295099D01*
X710971Y294099D01*
X719968Y295099D02*
X717968Y294099D01*
X715969Y292100D01*
Y290101D01*
X716969Y289101D01*
X718968D01*
X719968Y290101D01*
Y291100D01*
X718968Y292100D01*
X715969D01*
X86901Y167640D02*
X90899D01*
X91899Y168639D01*
Y170639D01*
X90899Y171638D01*
X86901D01*
X85901Y170639D01*
Y168639D01*
X87900Y169639D02*
X85901Y167640D01*
Y168639D02*
X86901Y167640D01*
X85901Y161642D02*
Y165640D01*
X89900Y161642D01*
X90899D01*
X91899Y162641D01*
Y164641D01*
X90899Y165640D01*
X221251Y45720D02*
X225249D01*
X226249Y46720D01*
Y48719D01*
X225249Y49719D01*
X221251D01*
X220251Y48719D01*
Y46720D01*
X222250Y47719D02*
X220251Y45720D01*
Y46720D02*
X221251Y45720D01*
X220251Y43721D02*
Y41721D01*
Y42721D01*
X226249D01*
X225249Y43721D01*
X730332Y399591D02*
Y405589D01*
X733331D01*
X734330Y404589D01*
Y402590D01*
X733331Y401590D01*
X730332D01*
X740328Y399591D02*
X736330D01*
X740328Y403590D01*
Y404589D01*
X739329Y405589D01*
X737329D01*
X736330Y404589D01*
X492571Y399591D02*
Y405589D01*
X495570D01*
X496570Y404589D01*
Y402590D01*
X495570Y401590D01*
X492571D01*
X498569Y399591D02*
X500569D01*
X499569D01*
Y405589D01*
X498569Y404589D01*
X190041Y266511D02*
X196039D01*
Y270510D01*
Y272509D02*
Y274509D01*
Y273509D01*
X190041D01*
X191041Y272509D01*
X697541Y128729D02*
X695542D01*
X696542D01*
Y123731D01*
X695542Y122731D01*
X694542D01*
X693542Y123731D01*
X699540Y122731D02*
X701540D01*
X700540D01*
Y128729D01*
X699540Y127729D01*
X704539Y128729D02*
X708538D01*
Y127729D01*
X704539Y123731D01*
Y122731D01*
X438461Y95709D02*
X436462D01*
X437462D01*
Y90711D01*
X436462Y89711D01*
X435462D01*
X434463Y90711D01*
X440461Y89711D02*
X442460D01*
X441460D01*
Y95709D01*
X440461Y94709D01*
X449458Y95709D02*
X447458Y94709D01*
X445459Y92710D01*
Y90711D01*
X446459Y89711D01*
X448458D01*
X449458Y90711D01*
Y91710D01*
X448458Y92710D01*
X445459D01*
X507041Y131269D02*
X505042D01*
X506041D01*
Y126271D01*
X505042Y125271D01*
X504042D01*
X503042Y126271D01*
X509040Y125271D02*
X511040D01*
X510040D01*
Y131269D01*
X509040Y130269D01*
X518038Y131269D02*
X514039D01*
Y128270D01*
X516038Y129270D01*
X517038D01*
X518038Y128270D01*
Y126271D01*
X517038Y125271D01*
X515038D01*
X514039Y126271D01*
X607871Y468941D02*
Y466942D01*
Y467942D01*
X612869D01*
X613869Y466942D01*
Y465942D01*
X612869Y464943D01*
X613869Y470941D02*
Y472940D01*
Y471940D01*
X607871D01*
X608871Y470941D01*
X613869Y478938D02*
X607871D01*
X610870Y475939D01*
Y479938D01*
X53161Y114799D02*
X51162D01*
X52161D01*
Y109801D01*
X51162Y108801D01*
X50162D01*
X49163Y109801D01*
X55160Y108801D02*
X57160D01*
X56160D01*
Y114799D01*
X55160Y113799D01*
X60159D02*
X61159Y114799D01*
X63158D01*
X64158Y113799D01*
Y112800D01*
X63158Y111800D01*
X62158D01*
X63158D01*
X64158Y110800D01*
Y109801D01*
X63158Y108801D01*
X61159D01*
X60159Y109801D01*
X153924Y204372D02*
Y198374D01*
X156923D01*
X157923Y199374D01*
Y203372D01*
X156923Y204372D01*
X153924D01*
X159922Y203372D02*
X160922Y204372D01*
X162921D01*
X163921Y203372D01*
Y202373D01*
X162921Y201373D01*
X161921D01*
X162921D01*
X163921Y200373D01*
Y199374D01*
X162921Y198374D01*
X160922D01*
X159922Y199374D01*
X780289Y287209D02*
X781289Y288208D01*
Y290208D01*
X780289Y291207D01*
X776291D01*
X775291Y290208D01*
Y288208D01*
X776291Y287209D01*
X781289Y281211D02*
Y285209D01*
X778290D01*
X779290Y283210D01*
Y282210D01*
X778290Y281211D01*
X776291D01*
X775291Y282210D01*
Y284210D01*
X776291Y285209D01*
X780289Y279211D02*
X781289Y278212D01*
Y276212D01*
X780289Y275213D01*
X776291D01*
X775291Y276212D01*
Y278212D01*
X776291Y279211D01*
X780289D01*
X541749Y283399D02*
X542749Y284398D01*
Y286398D01*
X541749Y287397D01*
X537751D01*
X536751Y286398D01*
Y284398D01*
X537751Y283399D01*
X536751Y278400D02*
X542749D01*
X539750Y281399D01*
Y277401D01*
X537751Y275401D02*
X536751Y274402D01*
Y272402D01*
X537751Y271403D01*
X541749D01*
X542749Y272402D01*
Y274402D01*
X541749Y275401D01*
X540750D01*
X539750Y274402D01*
Y271403D01*
X113219Y117381D02*
X114218Y116381D01*
X116218D01*
X117217Y117381D01*
Y121379D01*
X116218Y122379D01*
X114218D01*
X113219Y121379D01*
X108220Y122379D02*
Y116381D01*
X111219Y119380D01*
X107221D01*
X105221Y117381D02*
X104222Y116381D01*
X102222D01*
X101223Y117381D01*
Y118380D01*
X102222Y119380D01*
X101223Y120380D01*
Y121379D01*
X102222Y122379D01*
X104222D01*
X105221Y121379D01*
Y120380D01*
X104222Y119380D01*
X105221Y118380D01*
Y117381D01*
X104222Y119380D02*
X102222D01*
X643161Y277941D02*
X642161Y276942D01*
Y274942D01*
X643161Y273943D01*
X647159D01*
X648159Y274942D01*
Y276942D01*
X647159Y277941D01*
X648159Y282940D02*
X642161D01*
X645160Y279941D01*
Y283939D01*
X642161Y285939D02*
Y289937D01*
X643161D01*
X647159Y285939D01*
X648159D01*
X890081Y231869D02*
X889082Y232869D01*
X887082D01*
X886083Y231869D01*
Y227871D01*
X887082Y226871D01*
X889082D01*
X890081Y227871D01*
X895080Y226871D02*
Y232869D01*
X892081Y229870D01*
X896079D01*
X902077Y232869D02*
X900078Y231869D01*
X898079Y229870D01*
Y227871D01*
X899078Y226871D01*
X901078D01*
X902077Y227871D01*
Y228870D01*
X901078Y229870D01*
X898079D01*
X356043Y86278D02*
X355043Y87278D01*
X353044D01*
X352044Y86278D01*
Y82280D01*
X353044Y81280D01*
X355043D01*
X356043Y82280D01*
X361041Y81280D02*
Y87278D01*
X358042Y84279D01*
X362041D01*
X368039Y87278D02*
X364040D01*
Y84279D01*
X366040Y85279D01*
X367039D01*
X368039Y84279D01*
Y82280D01*
X367039Y81280D01*
X365040D01*
X364040Y82280D01*
X272861Y111600D02*
X271862Y112600D01*
X269862D01*
X268863Y111600D01*
Y107602D01*
X269862Y106602D01*
X271862D01*
X272861Y107602D01*
X277860Y106602D02*
Y112600D01*
X274861Y109601D01*
X278859D01*
X283858Y106602D02*
Y112600D01*
X280859Y109601D01*
X284857D01*
X20861Y243651D02*
X19861Y242652D01*
Y240652D01*
X20861Y239653D01*
X24859D01*
X25859Y240652D01*
Y242652D01*
X24859Y243651D01*
X25859Y248650D02*
X19861D01*
X22860Y245651D01*
Y249649D01*
X20861Y251649D02*
X19861Y252648D01*
Y254648D01*
X20861Y255647D01*
X21860D01*
X22860Y254648D01*
Y253648D01*
Y254648D01*
X23860Y255647D01*
X24859D01*
X25859Y254648D01*
Y252648D01*
X24859Y251649D01*
X67121Y385539D02*
X66122Y386539D01*
X64122D01*
X63123Y385539D01*
Y381541D01*
X64122Y380541D01*
X66122D01*
X67121Y381541D01*
X72120Y380541D02*
Y386539D01*
X69121Y383540D01*
X73119D01*
X79117Y380541D02*
X75119D01*
X79117Y384540D01*
Y385539D01*
X78118Y386539D01*
X76118D01*
X75119Y385539D01*
X78580Y273509D02*
X79580Y274509D01*
Y276508D01*
X78580Y277508D01*
X74582D01*
X73582Y276508D01*
Y274509D01*
X74582Y273509D01*
X73582Y268511D02*
X79580D01*
X76581Y271510D01*
Y267511D01*
X73582Y265512D02*
Y263512D01*
Y264512D01*
X79580D01*
X78580Y265512D01*
X884351Y280481D02*
X883351Y279482D01*
Y277482D01*
X884351Y276483D01*
X888349D01*
X889349Y277482D01*
Y279482D01*
X888349Y280481D01*
X889349Y285480D02*
X883351D01*
X886350Y282481D01*
Y286479D01*
X884351Y288479D02*
X883351Y289478D01*
Y291478D01*
X884351Y292477D01*
X888349D01*
X889349Y291478D01*
Y289478D01*
X888349Y288479D01*
X884351D01*
X660211Y231869D02*
X659212Y232869D01*
X657212D01*
X656213Y231869D01*
Y227871D01*
X657212Y226871D01*
X659212D01*
X660211Y227871D01*
X662211Y231869D02*
X663210Y232869D01*
X665210D01*
X666209Y231869D01*
Y230870D01*
X665210Y229870D01*
X664210D01*
X665210D01*
X666209Y228870D01*
Y227871D01*
X665210Y226871D01*
X663210D01*
X662211Y227871D01*
X668209D02*
X669208Y226871D01*
X671208D01*
X672207Y227871D01*
Y231869D01*
X671208Y232869D01*
X669208D01*
X668209Y231869D01*
Y230870D01*
X669208Y229870D01*
X672207D01*
X184691Y91251D02*
X183691Y90252D01*
Y88252D01*
X184691Y87253D01*
X188689D01*
X189689Y88252D01*
Y90252D01*
X188689Y91251D01*
X184691Y93251D02*
X183691Y94250D01*
Y96250D01*
X184691Y97249D01*
X185690D01*
X186690Y96250D01*
Y95250D01*
Y96250D01*
X187690Y97249D01*
X188689D01*
X189689Y96250D01*
Y94250D01*
X188689Y93251D01*
X184691Y99249D02*
X183691Y100248D01*
Y102248D01*
X184691Y103247D01*
X185690D01*
X186690Y102248D01*
X187690Y103247D01*
X188689D01*
X189689Y102248D01*
Y100248D01*
X188689Y99249D01*
X187690D01*
X186690Y100248D01*
X185690Y99249D01*
X184691D01*
X186690Y100248D02*
Y102248D01*
X247839Y66581D02*
X248838Y65581D01*
X250838D01*
X251837Y66581D01*
Y70579D01*
X250838Y71579D01*
X248838D01*
X247839Y70579D01*
X245839Y66581D02*
X244840Y65581D01*
X242840D01*
X241841Y66581D01*
Y67580D01*
X242840Y68580D01*
X243840D01*
X242840D01*
X241841Y69580D01*
Y70579D01*
X242840Y71579D01*
X244840D01*
X245839Y70579D01*
X239841Y65581D02*
X235843D01*
Y66581D01*
X239841Y70579D01*
Y71579D01*
X132809Y99249D02*
X133809Y100248D01*
Y102248D01*
X132809Y103247D01*
X128811D01*
X127811Y102248D01*
Y100248D01*
X128811Y99249D01*
X132809Y97249D02*
X133809Y96250D01*
Y94250D01*
X132809Y93251D01*
X131810D01*
X130810Y94250D01*
Y95250D01*
Y94250D01*
X129810Y93251D01*
X128811D01*
X127811Y94250D01*
Y96250D01*
X128811Y97249D01*
X133809Y87253D02*
X132809Y89252D01*
X130810Y91251D01*
X128811D01*
X127811Y90252D01*
Y88252D01*
X128811Y87253D01*
X129810D01*
X130810Y88252D01*
Y91251D01*
D11*
X224660Y31450D02*
G03*
X224660Y31450I-1000J0D01*
G01*
X151780Y324030D02*
G03*
X151780Y324030I-1000J0D01*
G01*
X59720Y231550D02*
G03*
X59720Y231550I-1000J0D01*
G01*
X818530Y124220D02*
G03*
X818530Y124220I-1000J0D01*
G01*
X630560Y125490D02*
G03*
X630560Y125490I-1000J0D01*
G01*
X187780Y116710D02*
G03*
X187780Y116710I-1000J0D01*
G01*
X728980Y241720D02*
X932180D01*
Y394970D01*
X728980D02*
X932180D01*
X728980Y241720D02*
Y394970D01*
X491740Y241250D02*
X694940D01*
Y394500D01*
X491740D02*
X694940D01*
X491740Y241250D02*
Y394500D01*
X457380Y309700D02*
Y317700D01*
X429880D02*
X457380D01*
X429880D02*
Y407700D01*
X385380D02*
X429880D01*
X385380Y399700D02*
Y407700D01*
X277380Y399700D02*
X385380D01*
X277380D02*
Y407700D01*
X232880D02*
X277380D01*
X232880Y317700D02*
Y407700D01*
X205380Y317700D02*
X232880D01*
X205380Y309700D02*
Y317700D01*
X457380Y215700D02*
Y223700D01*
X429880Y215700D02*
X457380D01*
X429880Y125700D02*
Y215700D01*
X385380Y125700D02*
X429880D01*
X385380D02*
Y133700D01*
X277380D02*
X385380D01*
X277380Y125700D02*
Y133700D01*
X232880Y125700D02*
X277380D01*
X232880D02*
Y215700D01*
X205380D02*
X232880D01*
X205380D02*
Y223700D01*
X718220Y269510D02*
Y271510D01*
X706720Y269510D02*
Y271510D01*
X888330Y415560D02*
Y417560D01*
X899830Y415560D02*
Y417560D01*
X862930Y415560D02*
Y417560D01*
X874430Y415560D02*
Y417560D01*
X837530Y415560D02*
Y417560D01*
X849030Y415560D02*
Y417560D01*
X837530Y348360D02*
Y350360D01*
X849030Y348360D02*
Y350360D01*
X862930Y348250D02*
Y350250D01*
X874430Y348250D02*
Y350250D01*
X888330Y348360D02*
Y350360D01*
X899830Y348360D02*
Y350360D01*
X600040Y348250D02*
Y350250D01*
X611540Y348250D02*
Y350250D01*
X625440Y348250D02*
Y350250D01*
X636940Y348250D02*
Y350250D01*
X650840Y348250D02*
Y350250D01*
X662340Y348250D02*
Y350250D01*
X601310Y415560D02*
Y417560D01*
X612810Y415560D02*
Y417560D01*
X625440Y415560D02*
Y417560D01*
X636940Y415560D02*
Y417560D01*
X650840Y415560D02*
Y417560D01*
X662340Y415560D02*
Y417560D01*
X908320Y278730D02*
X910320D01*
X908320Y290230D02*
X910320D01*
X669560Y285150D02*
X671560D01*
X669560Y273650D02*
X671560D01*
X515890D02*
X517890D01*
X515890Y285150D02*
X517890D01*
X94580Y209820D02*
Y211820D01*
X106080Y209820D02*
Y211820D01*
X44720Y252130D02*
X46720D01*
X44720Y240630D02*
X46720D01*
X754540Y276190D02*
X756540D01*
X754540Y287690D02*
X756540D01*
X127600Y139970D02*
Y141970D01*
X139100Y139970D02*
Y141970D01*
X114970Y139970D02*
Y141970D01*
X103470Y139970D02*
Y141970D01*
X208550Y89500D02*
X210550D01*
X208550Y101000D02*
X210550D01*
X238090Y44720D02*
Y46720D01*
X249590Y44720D02*
Y46720D01*
X354930Y57420D02*
Y59420D01*
X366430Y57420D02*
Y59420D01*
D12*
X256880Y206950D02*
G03*
X256880Y206950I-3000J0D01*
G01*
D13*
X41684Y280543D02*
X52297D01*
X41684Y260477D02*
X52297D01*
X885444Y148844D02*
Y219456D01*
Y148844D02*
X911073D01*
X956056D02*
Y219456D01*
X930427D02*
X956056D01*
X885444D02*
X911073D01*
X930427Y148844D02*
X956056D01*
X269494Y25654D02*
Y96266D01*
Y25654D02*
X295123D01*
X340106D02*
Y96266D01*
X314477D02*
X340106D01*
X269494D02*
X295123D01*
X314477Y25654D02*
X340106D01*
X82296Y302514D02*
Y373126D01*
X56667D02*
X82296D01*
X11684Y302514D02*
Y373126D01*
Y302514D02*
X37313D01*
X56667D02*
X82296D01*
X11684Y373126D02*
X37313D01*
X654304Y150114D02*
Y220726D01*
Y150114D02*
X679933D01*
X724916D02*
Y220726D01*
X699287D02*
X724916D01*
X654304D02*
X679933D01*
X699287Y150114D02*
X724916D01*
X154333Y85217D02*
X164946D01*
X154333Y105283D02*
X164946D01*
D14*
X127150Y10450D02*
Y15990D01*
Y10450D02*
X189350D01*
X127150Y72910D02*
Y78450D01*
X189350D01*
Y10450D02*
Y78450D01*
X150980Y269580D02*
Y309480D01*
X100480Y269580D02*
Y309480D01*
X74180Y135040D02*
X79720D01*
Y197240D01*
X11720Y135040D02*
X17260D01*
X11720D02*
Y197240D01*
X79720D01*
X693280Y18770D02*
X849780D01*
Y117770D01*
X693280Y18770D02*
Y117770D01*
X715430D01*
X827630D02*
X849780D01*
X379690Y8400D02*
X476290D01*
Y38400D01*
Y63400D02*
Y79400D01*
X452890D02*
X476290D01*
X379690D02*
X403090D01*
X379690Y63400D02*
Y79400D01*
Y8400D02*
Y38400D01*
X505310Y20040D02*
X661810D01*
Y119040D01*
X505310Y20040D02*
Y119040D01*
X527460D01*
X639660D02*
X661810D01*
X619720Y434960D02*
X894120D01*
Y442460D01*
X619720Y434960D02*
Y442460D01*
Y483460D02*
X894120D01*
Y466860D02*
Y483460D01*
X619720Y466860D02*
Y483460D01*
X19830Y7580D02*
Y104180D01*
Y7580D02*
X49830D01*
X74830D02*
X90830D01*
Y30980D01*
Y80780D02*
Y104180D01*
X74830D02*
X90830D01*
X19830D02*
X49830D01*
X199390Y120650D02*
Y191770D01*
X153670Y120650D02*
X199390D01*
X153670D02*
Y191770D01*
X199390D01*
M02*
