G04*
G04 #@! TF.GenerationSoftware,Altium Limited,Altium Designer,26.5.0 (11)*
G04*
G04 Layer_Color=16711935*
G04 Board_Origin=0|0*
%FSLAX44Y44*%
%MOMM*%
G71*
G04*
G04 #@! TF.SameCoordinates,BC6104D5-41E2-4C6E-88F8-FE8CE136CD12*
G04*
G04*
G04 #@! TF.FilePolarity,Negative*
G04*
G01*
G75*
%ADD35C,1.6240*%
%ADD36C,1.9000*%
%ADD37R,1.9000X1.9000*%
%ADD38R,1.6240X1.6240*%
%ADD39R,1.6724X1.6724*%
%ADD40C,1.6724*%
%ADD41C,3.1524*%
%ADD42R,1.9000X1.9000*%
%ADD43C,6.6000*%
%ADD44C,0.7000*%
D35*
X894080Y255270D02*
D03*
X656840Y254800D02*
D03*
X919480Y255270D02*
D03*
X682240Y254800D02*
D03*
X843280Y255270D02*
D03*
X868680D02*
D03*
X817880D02*
D03*
X792480D02*
D03*
X741680D02*
D03*
X767080D02*
D03*
X843280Y382270D02*
D03*
X868680D02*
D03*
X894080D02*
D03*
X817880D02*
D03*
X792480D02*
D03*
X741680D02*
D03*
X767080D02*
D03*
X606040Y254800D02*
D03*
X631440D02*
D03*
X580640D02*
D03*
X555240D02*
D03*
X504440D02*
D03*
X529840D02*
D03*
X606040Y381800D02*
D03*
X631440D02*
D03*
X656840D02*
D03*
X580640D02*
D03*
X555240D02*
D03*
X504440D02*
D03*
X529840D02*
D03*
D36*
X440690Y76200D02*
D03*
X466090Y50800D02*
D03*
X389890D02*
D03*
X62230Y93980D02*
D03*
X87630Y43180D02*
D03*
X62230Y17780D02*
D03*
X858520Y454660D02*
D03*
X833120D02*
D03*
X807720D02*
D03*
X782320D02*
D03*
X756920D02*
D03*
X731520D02*
D03*
X706120D02*
D03*
X680720D02*
D03*
X883920D02*
D03*
X629920D02*
D03*
D37*
X87630Y68580D02*
D03*
D38*
X919480Y382270D02*
D03*
X682240Y381800D02*
D03*
D39*
X816530Y107970D02*
D03*
X628560Y109240D02*
D03*
D40*
X726530Y107970D02*
D03*
X786530D02*
D03*
X756530D02*
D03*
X538560Y109240D02*
D03*
X598560D02*
D03*
X568560D02*
D03*
D41*
X795030Y64770D02*
D03*
X748030D02*
D03*
X607060Y66040D02*
D03*
X560060D02*
D03*
D42*
X415290Y76200D02*
D03*
X655320Y454660D02*
D03*
D43*
X950000Y50000D02*
D03*
X50000Y450000D02*
D03*
D44*
X750000Y350000D02*
D03*
X675000Y400000D02*
D03*
X700000Y350000D02*
D03*
X725000Y400000D02*
D03*
X920750Y124460D02*
D03*
Y109220D02*
D03*
X712470Y233680D02*
D03*
X711200Y186690D02*
D03*
X700000Y250000D02*
D03*
X929640Y425450D02*
D03*
X144780Y346710D02*
D03*
Y336550D02*
D03*
X29735Y234525D02*
D03*
X60960Y294640D02*
D03*
X61341Y342900D02*
D03*
X656590Y438150D02*
D03*
X630096Y436704D02*
D03*
X605790Y436880D02*
D03*
X187325Y95250D02*
D03*
X231140Y33020D02*
D03*
X256540Y26670D02*
D03*
X267970Y20320D02*
D03*
X208035Y117085D02*
D03*
X144780Y113030D02*
D03*
X149860Y128270D02*
D03*
X228600Y58420D02*
D03*
X200660Y81355D02*
D03*
X35560Y287020D02*
D03*
X950000Y450000D02*
D03*
X975000Y400000D02*
D03*
X950000Y350000D02*
D03*
X975000Y300000D02*
D03*
X950000Y250000D02*
D03*
X925000Y400000D02*
D03*
Y300000D02*
D03*
X875000D02*
D03*
Y100000D02*
D03*
X850000Y50000D02*
D03*
X825000Y400000D02*
D03*
X800000Y350000D02*
D03*
X825000Y300000D02*
D03*
X775000Y400000D02*
D03*
Y300000D02*
D03*
Y200000D02*
D03*
X750000Y150000D02*
D03*
X775000Y100000D02*
D03*
X725000Y300000D02*
D03*
X700000Y50000D02*
D03*
X675000Y300000D02*
D03*
Y100000D02*
D03*
X650000Y50000D02*
D03*
X625000Y300000D02*
D03*
X575000Y400000D02*
D03*
X550000Y350000D02*
D03*
X575000Y300000D02*
D03*
X500000Y450000D02*
D03*
X525000Y400000D02*
D03*
X500000Y350000D02*
D03*
X525000Y300000D02*
D03*
Y200000D02*
D03*
X500000Y150000D02*
D03*
X525000Y100000D02*
D03*
X500000Y50000D02*
D03*
X450000Y450000D02*
D03*
X475000Y400000D02*
D03*
Y300000D02*
D03*
Y200000D02*
D03*
Y100000D02*
D03*
X400000Y450000D02*
D03*
X350000D02*
D03*
X300000D02*
D03*
X250000D02*
D03*
X200000Y50000D02*
D03*
X150000Y450000D02*
D03*
X125000Y100000D02*
D03*
X50000Y50000D02*
D03*
X310000Y380000D02*
D03*
X300000Y360000D02*
D03*
X310000Y340000D02*
D03*
X300000Y320000D02*
D03*
X310000Y300000D02*
D03*
Y260000D02*
D03*
Y220000D02*
D03*
X300000Y200000D02*
D03*
X310000Y180000D02*
D03*
X300000Y160000D02*
D03*
X290000Y380000D02*
D03*
X280000Y360000D02*
D03*
X290000Y340000D02*
D03*
X280000Y320000D02*
D03*
Y200000D02*
D03*
X290000Y180000D02*
D03*
X280000Y160000D02*
D03*
X270000Y380000D02*
D03*
X260000Y360000D02*
D03*
X270000Y340000D02*
D03*
X260000Y320000D02*
D03*
Y200000D02*
D03*
X270000Y180000D02*
D03*
X260000Y160000D02*
D03*
X250000Y380000D02*
D03*
X240000Y360000D02*
D03*
X250000Y340000D02*
D03*
X240000Y320000D02*
D03*
Y200000D02*
D03*
X250000Y180000D02*
D03*
X240000Y160000D02*
D03*
X230000Y380000D02*
D03*
X220000Y360000D02*
D03*
X230000Y340000D02*
D03*
X220000Y320000D02*
D03*
Y200000D02*
D03*
X230000Y180000D02*
D03*
X220000Y160000D02*
D03*
X210000Y380000D02*
D03*
X200000Y360000D02*
D03*
X210000Y340000D02*
D03*
X200000Y320000D02*
D03*
X190000Y380000D02*
D03*
X180000Y360000D02*
D03*
X190000Y340000D02*
D03*
X180000Y320000D02*
D03*
X190000Y300000D02*
D03*
X180000Y280000D02*
D03*
X190000Y260000D02*
D03*
X180000Y240000D02*
D03*
X190000Y220000D02*
D03*
X170000Y380000D02*
D03*
X160000Y360000D02*
D03*
X170000Y340000D02*
D03*
X160000Y320000D02*
D03*
X170000Y300000D02*
D03*
X160000Y280000D02*
D03*
X170000Y260000D02*
D03*
X160000Y240000D02*
D03*
X170000Y220000D02*
D03*
X140000Y160000D02*
D03*
X130000Y180000D02*
D03*
X110000D02*
D03*
X90000D02*
D03*
X913130Y425450D02*
D03*
X715010Y340360D02*
D03*
X106680Y336550D02*
D03*
Y363220D02*
D03*
Y387350D02*
D03*
M02*
