G04*
G04 #@! TF.GenerationSoftware,Altium Limited,Altium Designer,26.5.0 (11)*
G04*
G04 Layer_Physical_Order=1*
G04 Layer_Color=255*
G04 Board_Origin=0|0*
%FSLAX44Y44*%
%MOMM*%
G71*
G04*
G04 #@! TF.SameCoordinates,52669DA5-AB40-4F9A-B776-9572E9AFDC63*
G04*
G04*
G04 #@! TF.FilePolarity,Positive*
G04*
G01*
G75*
%ADD12C,0.6000*%
%ADD15R,1.1938X1.7526*%
%ADD16R,1.2700X3.3020*%
G04:AMPARAMS|DCode=17|XSize=3.02mm|YSize=0.97mm|CornerRadius=0.2425mm|HoleSize=0mm|Usage=FLASHONLY|Rotation=0.000|XOffset=0mm|YOffset=0mm|HoleType=Round|Shape=RoundedRectangle|*
%AMROUNDEDRECTD17*
21,1,3.0200,0.4850,0,0,0.0*
21,1,2.5350,0.9700,0,0,0.0*
1,1,0.4850,1.2675,-0.2425*
1,1,0.4850,-1.2675,-0.2425*
1,1,0.4850,-1.2675,0.2425*
1,1,0.4850,1.2675,0.2425*
%
%ADD17ROUNDEDRECTD17*%
%ADD18R,1.5000X1.2000*%
%ADD19R,1.3500X1.0000*%
%ADD20R,1.0000X1.3500*%
G04:AMPARAMS|DCode=21|XSize=1.58mm|YSize=0.6mm|CornerRadius=0.075mm|HoleSize=0mm|Usage=FLASHONLY|Rotation=270.000|XOffset=0mm|YOffset=0mm|HoleType=Round|Shape=RoundedRectangle|*
%AMROUNDEDRECTD21*
21,1,1.5800,0.4500,0,0,270.0*
21,1,1.4300,0.6000,0,0,270.0*
1,1,0.1500,-0.2250,-0.7150*
1,1,0.1500,-0.2250,0.7150*
1,1,0.1500,0.2250,0.7150*
1,1,0.1500,0.2250,-0.7150*
%
%ADD21ROUNDEDRECTD21*%
G04:AMPARAMS|DCode=22|XSize=3.02mm|YSize=0.97mm|CornerRadius=0.2425mm|HoleSize=0mm|Usage=FLASHONLY|Rotation=90.000|XOffset=0mm|YOffset=0mm|HoleType=Round|Shape=RoundedRectangle|*
%AMROUNDEDRECTD22*
21,1,3.0200,0.4850,0,0,90.0*
21,1,2.5350,0.9700,0,0,90.0*
1,1,0.4850,0.2425,1.2675*
1,1,0.4850,0.2425,-1.2675*
1,1,0.4850,-0.2425,-1.2675*
1,1,0.4850,-0.2425,1.2675*
%
%ADD22ROUNDEDRECTD22*%
%ADD23R,8.5000X8.0000*%
%ADD24R,4.1500X4.6500*%
%ADD45R,6.3200X5.0900*%
%ADD46R,5.0900X6.3200*%
%ADD47C,1.2700*%
%ADD48C,0.3840*%
%ADD49C,1.0000*%
%ADD50C,0.5080*%
%ADD51C,0.3810*%
%ADD52C,0.2500*%
%ADD53C,1.5240*%
%ADD54C,1.8000*%
%ADD55R,1.8000X1.8000*%
%ADD56R,1.5240X1.5240*%
%ADD57R,1.5200X1.5200*%
%ADD58C,1.5200*%
%ADD59C,3.0000*%
%ADD60R,1.8000X1.8000*%
%ADD61C,6.0000*%
%ADD62C,0.6000*%
G36*
X994902Y5098D02*
X5098D01*
Y494902D01*
X994902D01*
Y5098D01*
D02*
G37*
%LPC*%
G36*
X885439Y466200D02*
X885190D01*
Y455930D01*
X895460D01*
Y456179D01*
X894673Y459114D01*
X893154Y461746D01*
X891006Y463894D01*
X888374Y465414D01*
X885439Y466200D01*
D02*
G37*
G36*
X882650D02*
X882401D01*
X879466Y465414D01*
X876834Y463894D01*
X874686Y461746D01*
X873167Y459114D01*
X872380Y456179D01*
Y455930D01*
X882650D01*
Y466200D01*
D02*
G37*
G36*
X860039D02*
X859790D01*
Y455930D01*
X870060D01*
Y456179D01*
X869274Y459114D01*
X867754Y461746D01*
X865606Y463894D01*
X862974Y465414D01*
X860039Y466200D01*
D02*
G37*
G36*
X857250D02*
X857001D01*
X854066Y465414D01*
X851434Y463894D01*
X849286Y461746D01*
X847766Y459114D01*
X846980Y456179D01*
Y455930D01*
X857250D01*
Y466200D01*
D02*
G37*
G36*
X631439D02*
X631190D01*
Y455930D01*
X641460D01*
Y456179D01*
X640674Y459114D01*
X639154Y461746D01*
X637006Y463894D01*
X634374Y465414D01*
X631439Y466200D01*
D02*
G37*
G36*
X628650D02*
X628401D01*
X625466Y465414D01*
X622834Y463894D01*
X620686Y461746D01*
X619166Y459114D01*
X618380Y456179D01*
Y455930D01*
X628650D01*
Y466200D01*
D02*
G37*
G36*
X834505Y465184D02*
X831734D01*
X829058Y464467D01*
X826658Y463081D01*
X824699Y461122D01*
X823313Y458722D01*
X822596Y456045D01*
Y453274D01*
X823313Y450598D01*
X824699Y448198D01*
X826658Y446239D01*
X829058Y444853D01*
X831734Y444136D01*
X834505D01*
X837182Y444853D01*
X839582Y446239D01*
X841541Y448198D01*
X842927Y450598D01*
X843644Y453274D01*
Y456045D01*
X842927Y458722D01*
X841541Y461122D01*
X839582Y463081D01*
X837182Y464467D01*
X834505Y465184D01*
D02*
G37*
G36*
X783706D02*
X780935D01*
X778258Y464467D01*
X775858Y463081D01*
X773899Y461122D01*
X772513Y458722D01*
X771796Y456045D01*
Y453274D01*
X772513Y450598D01*
X773899Y448198D01*
X775858Y446239D01*
X778258Y444853D01*
X780935Y444136D01*
X783706D01*
X786382Y444853D01*
X788782Y446239D01*
X790741Y448198D01*
X792127Y450598D01*
X792844Y453274D01*
Y456045D01*
X792127Y458722D01*
X790741Y461122D01*
X788782Y463081D01*
X786382Y464467D01*
X783706Y465184D01*
D02*
G37*
G36*
X735395Y473131D02*
X691870D01*
X690526Y472864D01*
X689387Y472103D01*
X689387Y472103D01*
X682391Y465107D01*
X682105Y465184D01*
X679334D01*
X676658Y464467D01*
X674258Y463081D01*
X672299Y461122D01*
X670913Y458722D01*
X670196Y456045D01*
Y453274D01*
X670913Y450598D01*
X672299Y448198D01*
X674258Y446239D01*
X676658Y444853D01*
X679334Y444136D01*
X682105D01*
X684782Y444853D01*
X687182Y446239D01*
X689141Y448198D01*
X690527Y450598D01*
X691244Y453274D01*
Y456045D01*
X690527Y458722D01*
X689141Y461122D01*
X688739Y461524D01*
X693325Y466109D01*
X700901D01*
X701437Y464109D01*
X699658Y463081D01*
X697699Y461122D01*
X696313Y458722D01*
X695596Y456045D01*
Y453274D01*
X696313Y450598D01*
X697699Y448198D01*
X699658Y446239D01*
X701339Y445269D01*
Y405864D01*
X686418Y390944D01*
X673096D01*
Y372656D01*
X691384D01*
Y385978D01*
X707333Y401927D01*
X708094Y403066D01*
X708361Y404410D01*
Y444365D01*
X710182Y444853D01*
X712582Y446239D01*
X714541Y448198D01*
X715927Y450598D01*
X716644Y453274D01*
Y456045D01*
X715927Y458722D01*
X714541Y461122D01*
X712582Y463081D01*
X710803Y464109D01*
X711339Y466109D01*
X726301D01*
X726837Y464109D01*
X725058Y463081D01*
X723099Y461122D01*
X721713Y458722D01*
X720996Y456045D01*
Y453274D01*
X721713Y450598D01*
X723099Y448198D01*
X725058Y446239D01*
X727458Y444853D01*
X730135Y444136D01*
X732906D01*
X735582Y444853D01*
X737982Y446239D01*
X738709Y446965D01*
X740709Y446137D01*
Y405130D01*
X740976Y403786D01*
X741737Y402647D01*
X758568Y385816D01*
X758559Y385799D01*
X757936Y383474D01*
Y381066D01*
X758559Y378741D01*
X759763Y376656D01*
X761465Y374953D01*
X763550Y373749D01*
X765876Y373126D01*
X768284D01*
X770609Y373749D01*
X772694Y374953D01*
X774397Y376656D01*
X775601Y378741D01*
X776224Y381066D01*
Y383474D01*
X775601Y385799D01*
X774397Y387885D01*
X772694Y389587D01*
X770609Y390791D01*
X768284Y391414D01*
X765876D01*
X763550Y390791D01*
X763534Y390782D01*
X747731Y406585D01*
Y446137D01*
X749731Y446965D01*
X750458Y446239D01*
X752858Y444853D01*
X755535Y444136D01*
X758306D01*
X760982Y444853D01*
X763382Y446239D01*
X765341Y448198D01*
X766727Y450598D01*
X767444Y453274D01*
Y456045D01*
X766727Y458722D01*
X765341Y461122D01*
X763382Y463081D01*
X760982Y464467D01*
X758306Y465184D01*
X755535D01*
X752858Y464467D01*
X750458Y463081D01*
X749505Y462128D01*
X748889Y462131D01*
X747153Y462604D01*
X746703Y463278D01*
X746703Y463278D01*
X737878Y472103D01*
X736738Y472864D01*
X735395Y473131D01*
D02*
G37*
G36*
X895460Y453390D02*
X885190D01*
Y443120D01*
X885439D01*
X888374Y443907D01*
X891006Y445426D01*
X893154Y447574D01*
X894673Y450206D01*
X895460Y453141D01*
Y453390D01*
D02*
G37*
G36*
X882650D02*
X872380D01*
Y453141D01*
X873167Y450206D01*
X874686Y447574D01*
X876834Y445426D01*
X879466Y443907D01*
X882401Y443120D01*
X882650D01*
Y453390D01*
D02*
G37*
G36*
X870060D02*
X859790D01*
Y443120D01*
X860039D01*
X862974Y443907D01*
X865606Y445426D01*
X867754Y447574D01*
X869274Y450206D01*
X870060Y453141D01*
Y453390D01*
D02*
G37*
G36*
X857250D02*
X846980D01*
Y453141D01*
X847766Y450206D01*
X849286Y447574D01*
X851434Y445426D01*
X854066Y443907D01*
X857001Y443120D01*
X857250D01*
Y453390D01*
D02*
G37*
G36*
X637540Y475951D02*
X213360D01*
X212016Y475684D01*
X210877Y474923D01*
X210877Y474923D01*
X129597Y393643D01*
X128836Y392504D01*
X128569Y391160D01*
Y325272D01*
X128190Y325019D01*
X127688Y324267D01*
X127512Y323380D01*
Y309080D01*
X127688Y308193D01*
X128190Y307441D01*
X128943Y306938D01*
X129830Y306761D01*
X134330D01*
X135217Y306938D01*
X135969Y307441D01*
X136200Y307785D01*
X138200Y307407D01*
Y271653D01*
X136200Y271275D01*
X135969Y271619D01*
X135217Y272122D01*
X134330Y272299D01*
X129830D01*
X128943Y272122D01*
X128190Y271619D01*
X127688Y270867D01*
X127512Y269980D01*
Y267443D01*
X123948D01*
Y269980D01*
X123772Y270867D01*
X123270Y271619D01*
X122517Y272122D01*
X121630Y272299D01*
X117130D01*
X116243Y272122D01*
X115491Y271619D01*
X114988Y270867D01*
X114811Y269980D01*
Y263052D01*
X114767Y262830D01*
Y221031D01*
X110452Y216715D01*
X108604Y217480D01*
Y226344D01*
X92056D01*
Y224433D01*
X75031D01*
Y230375D01*
X74725Y231916D01*
X73852Y233222D01*
X72546Y234095D01*
X71005Y234401D01*
X66155D01*
X64614Y234095D01*
X63308Y233222D01*
X62435Y231916D01*
X62129Y230375D01*
Y205025D01*
X62435Y203484D01*
X63308Y202178D01*
X64614Y201305D01*
X66155Y200999D01*
X71005D01*
X72546Y201305D01*
X73852Y202178D01*
X74725Y203484D01*
X75031Y205025D01*
Y215207D01*
X92056D01*
Y213296D01*
X104420D01*
X105185Y211448D01*
X102081Y208344D01*
X92056D01*
Y195960D01*
X10160D01*
X9857Y195834D01*
X9529D01*
X8259Y195308D01*
X8027Y195076D01*
X7724Y194950D01*
X7598Y194647D01*
X7366Y194415D01*
Y194087D01*
X7240Y193784D01*
Y114300D01*
X7724Y113134D01*
X8890Y112650D01*
X86360D01*
X87526Y113134D01*
X88010Y114300D01*
Y138050D01*
X100946D01*
Y125446D01*
X117494D01*
Y130920D01*
X123076Y136502D01*
X125076Y135673D01*
Y125446D01*
X132318D01*
X133707Y124057D01*
X133707Y124057D01*
X138708Y119056D01*
Y105537D01*
X137795D01*
Y86200D01*
X137795Y84963D01*
X136111Y84200D01*
X73660D01*
X72494Y83716D01*
X72010Y82550D01*
Y25711D01*
X70010Y24883D01*
X68692Y26201D01*
X66292Y27587D01*
X63615Y28304D01*
X60844D01*
X58168Y27587D01*
X55768Y26201D01*
X53809Y24242D01*
X52423Y21842D01*
X51706Y19166D01*
Y16394D01*
X52423Y13718D01*
X53809Y11318D01*
X55768Y9359D01*
X58168Y7973D01*
X60844Y7256D01*
X63615D01*
X66292Y7973D01*
X68692Y9359D01*
X70651Y11318D01*
X70913Y11771D01*
X72494Y12804D01*
X73660Y12320D01*
X181610D01*
X182776Y12804D01*
X183260Y13970D01*
Y82550D01*
X182853Y83531D01*
X182776Y83716D01*
X181558Y84960D01*
X181483Y86047D01*
Y88670D01*
X194026D01*
Y86976D01*
X194080D01*
Y81355D01*
Y72270D01*
X193415Y71276D01*
X193109Y69735D01*
Y64885D01*
X193415Y63344D01*
X194288Y62038D01*
X195594Y61165D01*
X197135Y60859D01*
X199831D01*
X200810Y60730D01*
X209810D01*
X210789Y60859D01*
X216856D01*
X227647Y50067D01*
X229010Y49021D01*
X230597Y48364D01*
X232300Y48140D01*
X242090D01*
X242518Y48196D01*
X252114D01*
Y61244D01*
X242517D01*
X242090Y61300D01*
X235026D01*
X226492Y69834D01*
X226205Y71276D01*
X225332Y72582D01*
X224026Y73455D01*
X222485Y73761D01*
X210789D01*
X209810Y73890D01*
X207240D01*
Y81355D01*
Y95250D01*
X207074Y96513D01*
Y103524D01*
X194026D01*
Y101830D01*
X181483D01*
Y105537D01*
X166497D01*
Y86200D01*
X166497Y84963D01*
X164813Y84200D01*
X154465D01*
X152781Y84963D01*
X152781Y86200D01*
Y105537D01*
X151868D01*
Y121690D01*
X157656D01*
Y121186D01*
X175704D01*
Y121186D01*
X177356D01*
Y121186D01*
X186952D01*
X187380Y121130D01*
X194684D01*
X210798Y105016D01*
X212026Y103524D01*
Y86976D01*
X225074D01*
Y93987D01*
X225240Y95250D01*
Y106460D01*
X225016Y108163D01*
X224359Y109750D01*
X223313Y111113D01*
X202063Y132363D01*
X200700Y133409D01*
X199113Y134066D01*
X197410Y134290D01*
X195404D01*
Y136234D01*
X177356D01*
Y136234D01*
X175704D01*
Y136234D01*
X157656D01*
Y134850D01*
X146114D01*
X145593Y135066D01*
X143890Y135290D01*
X141624D01*
Y138050D01*
X151538D01*
X151847Y138178D01*
X152181Y138181D01*
X153883Y138901D01*
X154109Y139130D01*
X154406Y139254D01*
X154534Y139562D01*
X154769Y139800D01*
X156217Y141436D01*
X196843D01*
X198291Y139800D01*
X198526Y139562D01*
X198654Y139254D01*
X198951Y139130D01*
X199177Y138901D01*
X200879Y138181D01*
X201213Y138178D01*
X201522Y138050D01*
X261374D01*
X262577Y136050D01*
X262510Y135890D01*
Y129540D01*
Y121920D01*
Y58420D01*
X262994Y57254D01*
X264160Y56770D01*
X349850D01*
X350086Y56770D01*
X350167Y56778D01*
X350180Y56773D01*
X350310Y56785D01*
X350999Y56697D01*
X352359Y55488D01*
X352406Y54588D01*
X352406Y54072D01*
Y42896D01*
X360252D01*
X360680Y42840D01*
X382967D01*
X383428Y42379D01*
X385828Y40993D01*
X388504Y40276D01*
X391275D01*
X393952Y40993D01*
X396352Y42379D01*
X398193Y44220D01*
X457787D01*
X459628Y42379D01*
X462028Y40993D01*
X464705Y40276D01*
X467476D01*
X470152Y40993D01*
X472552Y42379D01*
X474511Y44338D01*
X475897Y46738D01*
X476614Y49415D01*
Y52186D01*
X475897Y54862D01*
X474511Y57262D01*
X472552Y59221D01*
X472044Y59515D01*
X471066Y61151D01*
X471270Y61642D01*
X471535Y62102D01*
X471506Y62212D01*
X471550Y62317D01*
Y403860D01*
X471066Y405026D01*
X469900Y405510D01*
X342900D01*
X341734Y405026D01*
X341250Y403860D01*
Y400050D01*
Y137540D01*
X331716D01*
X330513Y139540D01*
X330580Y139700D01*
Y403860D01*
X330096Y405026D01*
X328930Y405510D01*
X154940D01*
X153774Y405026D01*
X153290Y403860D01*
Y347372D01*
X151290Y347241D01*
X151136Y348413D01*
X150479Y350000D01*
X149433Y351363D01*
X148070Y352409D01*
X146483Y353066D01*
X144780Y353290D01*
X143077Y353066D01*
X141490Y352409D01*
X140127Y351363D01*
X139081Y350000D01*
X138424Y348413D01*
X138200Y346710D01*
Y336550D01*
Y326891D01*
X136200Y325967D01*
X135591Y326485D01*
Y389706D01*
X214814Y468929D01*
X636086D01*
X644796Y460218D01*
Y444136D01*
X653994D01*
X654391Y442136D01*
X654027Y441985D01*
X652755Y440713D01*
X652066Y439050D01*
Y437250D01*
X652446Y436332D01*
Y432084D01*
X648316D01*
Y429704D01*
X639464D01*
Y432084D01*
X634240D01*
Y434886D01*
X634620Y435804D01*
Y437604D01*
X633931Y439267D01*
X632659Y440539D01*
X631095Y441187D01*
X630996Y441228D01*
X631105Y442023D01*
X632530Y443412D01*
X634374Y443907D01*
X637006Y445426D01*
X639154Y447574D01*
X640674Y450206D01*
X641460Y453141D01*
Y453390D01*
X618380D01*
Y453141D01*
X619166Y450206D01*
X620686Y447574D01*
X622834Y445426D01*
X625466Y443907D01*
X627627Y443327D01*
X629086Y442023D01*
X629087Y442023D01*
D01*
X629196Y441228D01*
X629097Y441187D01*
X627533Y440539D01*
X626261Y439267D01*
X625572Y437604D01*
Y435804D01*
X625952Y434886D01*
Y432084D01*
X622916D01*
Y429704D01*
X615334D01*
Y432084D01*
X610110D01*
Y435487D01*
X610314Y435980D01*
Y437780D01*
X609625Y439443D01*
X608353Y440715D01*
X606690Y441404D01*
X604890D01*
X603227Y440715D01*
X601955Y439443D01*
X601266Y437780D01*
Y435980D01*
X601822Y434637D01*
Y432084D01*
X598786D01*
Y419036D01*
X615334D01*
Y421416D01*
X622916D01*
Y419036D01*
X639464D01*
Y421416D01*
X648316D01*
Y419036D01*
X664864D01*
Y432084D01*
X660734D01*
Y436332D01*
X661114Y437250D01*
Y439050D01*
X660425Y440713D01*
X659153Y441985D01*
X658789Y442136D01*
X659186Y444136D01*
X665844D01*
Y465184D01*
X649762D01*
X640023Y474923D01*
X638884Y475684D01*
X637540Y475951D01*
D02*
G37*
G36*
X913130Y432140D02*
X843280D01*
X842852Y432084D01*
X835006D01*
Y419036D01*
X842852D01*
X843280Y418980D01*
X912405D01*
X913240Y418870D01*
X929640D01*
X931343Y419094D01*
X932930Y419751D01*
X934293Y420797D01*
X935339Y422160D01*
X935996Y423747D01*
X936220Y425450D01*
X935996Y427153D01*
X935339Y428740D01*
X934293Y430103D01*
X932930Y431149D01*
X931343Y431806D01*
X929640Y432030D01*
X913965D01*
X913130Y432140D01*
D02*
G37*
G36*
X52481Y481524D02*
X47519D01*
X42618Y480748D01*
X37899Y479214D01*
X33478Y476962D01*
X29464Y474045D01*
X25955Y470536D01*
X23038Y466522D01*
X20786Y462101D01*
X19252Y457382D01*
X18476Y452481D01*
Y447519D01*
X19252Y442618D01*
X20786Y437899D01*
X23038Y433478D01*
X25955Y429464D01*
X29464Y425955D01*
X33478Y423038D01*
X37899Y420785D01*
X42618Y419252D01*
X47519Y418476D01*
X52481D01*
X57382Y419252D01*
X62101Y420785D01*
X66522Y423038D01*
X70536Y425955D01*
X74045Y429464D01*
X76962Y433478D01*
X79214Y437899D01*
X80748Y442618D01*
X81524Y447519D01*
Y452481D01*
X80748Y457382D01*
X79214Y462101D01*
X76962Y466522D01*
X74045Y470536D01*
X70536Y474045D01*
X66522Y476962D01*
X62101Y479214D01*
X57382Y480748D01*
X52481Y481524D01*
D02*
G37*
G36*
X809106Y465184D02*
X806335D01*
X803658Y464467D01*
X801258Y463081D01*
X799299Y461122D01*
X797913Y458722D01*
X797196Y456045D01*
Y453274D01*
X797913Y450598D01*
X799299Y448198D01*
X801258Y446239D01*
X802939Y445269D01*
Y393700D01*
X803206Y392356D01*
X803967Y391217D01*
X807403Y387781D01*
X806574Y385782D01*
X801006D01*
X801001Y385799D01*
X799797Y387885D01*
X798094Y389587D01*
X796009Y390791D01*
X793684Y391414D01*
X791276D01*
X788951Y390791D01*
X786865Y389587D01*
X785163Y387885D01*
X783959Y385799D01*
X783336Y383474D01*
Y381066D01*
X783959Y378741D01*
X785163Y376656D01*
X786865Y374953D01*
X788951Y373749D01*
X791276Y373126D01*
X793684D01*
X796009Y373749D01*
X798094Y374953D01*
X799797Y376656D01*
X801001Y378741D01*
X801006Y378759D01*
X809354D01*
X809359Y378741D01*
X810563Y376656D01*
X812265Y374953D01*
X814351Y373749D01*
X816676Y373126D01*
X819084D01*
X821409Y373749D01*
X823494Y374953D01*
X825197Y376656D01*
X826401Y378741D01*
X827024Y381066D01*
Y383474D01*
X826401Y385799D01*
X825197Y387885D01*
X823494Y389587D01*
X821409Y390791D01*
X819084Y391414D01*
X816676D01*
X814351Y390791D01*
X814334Y390782D01*
X809961Y395155D01*
Y444365D01*
X811782Y444853D01*
X814182Y446239D01*
X816141Y448198D01*
X817527Y450598D01*
X818244Y453274D01*
Y456045D01*
X817527Y458722D01*
X816141Y461122D01*
X814182Y463081D01*
X811782Y464467D01*
X809106Y465184D01*
D02*
G37*
G36*
X581844Y390944D02*
X579436D01*
X577111Y390321D01*
X575025Y389117D01*
X573323Y387415D01*
X572119Y385330D01*
X572114Y385311D01*
X563766D01*
X563761Y385330D01*
X562557Y387415D01*
X560855Y389117D01*
X558769Y390321D01*
X556444Y390944D01*
X554036D01*
X551711Y390321D01*
X549626Y389117D01*
X547923Y387415D01*
X546719Y385330D01*
X546096Y383004D01*
Y380596D01*
X546719Y378270D01*
X547923Y376185D01*
X549626Y374483D01*
X551711Y373279D01*
X554036Y372656D01*
X556444D01*
X558769Y373279D01*
X560855Y374483D01*
X562557Y376185D01*
X563761Y378270D01*
X563766Y378288D01*
X572114D01*
X572119Y378270D01*
X573323Y376185D01*
X575025Y374483D01*
X577111Y373279D01*
X579436Y372656D01*
X581844D01*
X584170Y373279D01*
X586255Y374483D01*
X587957Y376185D01*
X589161Y378270D01*
X589784Y380596D01*
Y383004D01*
X589161Y385330D01*
X587957Y387415D01*
X586255Y389117D01*
X584170Y390321D01*
X581844Y390944D01*
D02*
G37*
G36*
X928624Y391414D02*
X910336D01*
Y373126D01*
X928624D01*
Y391414D01*
D02*
G37*
G36*
X742884D02*
X740476D01*
X738150Y390791D01*
X736065Y389587D01*
X734363Y387885D01*
X733159Y385799D01*
X732536Y383474D01*
Y381066D01*
X733159Y378741D01*
X734363Y376656D01*
X736065Y374953D01*
X738150Y373749D01*
X740476Y373126D01*
X742884D01*
X745209Y373749D01*
X747294Y374953D01*
X748997Y376656D01*
X750201Y378741D01*
X750824Y381066D01*
Y383474D01*
X750201Y385799D01*
X748997Y387885D01*
X747294Y389587D01*
X745209Y390791D01*
X742884Y391414D01*
D02*
G37*
G36*
X531044Y390944D02*
X528636D01*
X526311Y390321D01*
X524226Y389117D01*
X522523Y387415D01*
X521319Y385330D01*
X520696Y383004D01*
Y380596D01*
X521319Y378270D01*
X522523Y376185D01*
X524226Y374483D01*
X526311Y373279D01*
X528636Y372656D01*
X531044D01*
X533369Y373279D01*
X535455Y374483D01*
X537157Y376185D01*
X538361Y378270D01*
X538984Y380596D01*
Y383004D01*
X538361Y385330D01*
X537157Y387415D01*
X535455Y389117D01*
X533369Y390321D01*
X531044Y390944D01*
D02*
G37*
G36*
X505644D02*
X503236D01*
X500911Y390321D01*
X498825Y389117D01*
X497123Y387415D01*
X495919Y385330D01*
X495296Y383004D01*
Y380596D01*
X495919Y378270D01*
X497123Y376185D01*
X498825Y374483D01*
X500911Y373279D01*
X503236Y372656D01*
X505644D01*
X507970Y373279D01*
X510055Y374483D01*
X511757Y376185D01*
X512961Y378270D01*
X513584Y380596D01*
Y383004D01*
X512961Y385330D01*
X511757Y387415D01*
X510055Y389117D01*
X507970Y390321D01*
X505644Y390944D01*
D02*
G37*
G36*
X902354Y414084D02*
X885806D01*
Y401036D01*
X890568D01*
Y390796D01*
X890551Y390791D01*
X888465Y389587D01*
X886763Y387885D01*
X885559Y385799D01*
X884936Y383474D01*
Y381066D01*
X885559Y378741D01*
X886763Y376656D01*
X888465Y374953D01*
X890551Y373749D01*
X890568Y373744D01*
Y364884D01*
X885806D01*
Y351836D01*
X902354D01*
Y364884D01*
X897591D01*
Y373744D01*
X897609Y373749D01*
X899695Y374953D01*
X901397Y376656D01*
X902601Y378741D01*
X903224Y381066D01*
Y383474D01*
X902601Y385799D01*
X901397Y387885D01*
X899695Y389587D01*
X897609Y390791D01*
X897591Y390796D01*
Y401036D01*
X902354D01*
Y414084D01*
D02*
G37*
G36*
X851554D02*
X835006D01*
Y401036D01*
X839769D01*
Y390796D01*
X839751Y390791D01*
X837665Y389587D01*
X835963Y387885D01*
X834759Y385799D01*
X834136Y383474D01*
Y381066D01*
X834759Y378741D01*
X835963Y376656D01*
X837665Y374953D01*
X839751Y373749D01*
X839769Y373744D01*
Y364884D01*
X835006D01*
Y351836D01*
X851554D01*
Y364884D01*
X846791D01*
Y373744D01*
X846809Y373749D01*
X848895Y374953D01*
X850597Y376656D01*
X851801Y378741D01*
X852424Y381066D01*
Y383474D01*
X851801Y385799D01*
X850597Y387885D01*
X848895Y389587D01*
X846809Y390791D01*
X846791Y390796D01*
Y401036D01*
X851554D01*
Y414084D01*
D02*
G37*
G36*
X876954D02*
X860406D01*
Y401036D01*
X865169D01*
Y390796D01*
X865151Y390791D01*
X863065Y389587D01*
X861363Y387885D01*
X860159Y385799D01*
X859536Y383474D01*
Y381066D01*
X860159Y378741D01*
X861363Y376656D01*
X863065Y374953D01*
X865151Y373749D01*
X865169Y373744D01*
Y364774D01*
X860406D01*
Y351726D01*
X876954D01*
Y364774D01*
X872191D01*
Y373744D01*
X872209Y373749D01*
X874295Y374953D01*
X875997Y376656D01*
X877201Y378741D01*
X877824Y381066D01*
Y383474D01*
X877201Y385799D01*
X875997Y387885D01*
X874295Y389587D01*
X872209Y390791D01*
X872191Y390796D01*
Y401036D01*
X876954D01*
Y414084D01*
D02*
G37*
G36*
X664864D02*
X648316D01*
Y401036D01*
X653079D01*
Y390187D01*
X651226Y389117D01*
X649523Y387415D01*
X648319Y385330D01*
X647696Y383004D01*
Y380596D01*
X648319Y378270D01*
X649523Y376185D01*
X651226Y374483D01*
X653079Y373413D01*
Y364774D01*
X648316D01*
Y351726D01*
X664864D01*
Y364774D01*
X660101D01*
Y373207D01*
X660369Y373279D01*
X662455Y374483D01*
X664157Y376185D01*
X665361Y378270D01*
X665984Y380596D01*
Y383004D01*
X665361Y385330D01*
X664157Y387415D01*
X662455Y389117D01*
X660369Y390321D01*
X660101Y390393D01*
Y401036D01*
X664864D01*
Y414084D01*
D02*
G37*
G36*
X639464D02*
X622916D01*
Y401036D01*
X627679D01*
Y390187D01*
X625826Y389117D01*
X624123Y387415D01*
X622919Y385330D01*
X622296Y383004D01*
Y380596D01*
X622919Y378270D01*
X624123Y376185D01*
X625826Y374483D01*
X627679Y373413D01*
Y364774D01*
X622916D01*
Y351726D01*
X639464D01*
Y364774D01*
X634701D01*
Y373207D01*
X634969Y373279D01*
X637055Y374483D01*
X638757Y376185D01*
X639961Y378270D01*
X640584Y380596D01*
Y383004D01*
X639961Y385330D01*
X638757Y387415D01*
X637055Y389117D01*
X634969Y390321D01*
X634701Y390393D01*
Y401036D01*
X639464D01*
Y414084D01*
D02*
G37*
G36*
X615334D02*
X598786D01*
Y401036D01*
X603549D01*
Y390599D01*
X602511Y390321D01*
X600425Y389117D01*
X598723Y387415D01*
X597519Y385330D01*
X596896Y383004D01*
Y380596D01*
X597519Y378270D01*
X598723Y376185D01*
X600425Y374483D01*
X602511Y373279D01*
X603549Y373001D01*
Y364774D01*
X597516D01*
Y351726D01*
X614064D01*
Y364774D01*
X610571D01*
Y373858D01*
X611655Y374483D01*
X613357Y376185D01*
X614561Y378270D01*
X615184Y380596D01*
Y383004D01*
X614561Y385330D01*
X613357Y387415D01*
X611655Y389117D01*
X610571Y389742D01*
Y401036D01*
X615334D01*
Y414084D01*
D02*
G37*
G36*
X903370Y347900D02*
X895350D01*
Y341630D01*
X903370D01*
Y347900D01*
D02*
G37*
G36*
X852570D02*
X844550D01*
Y341630D01*
X852570D01*
Y347900D01*
D02*
G37*
G36*
X892810D02*
X884790D01*
Y341630D01*
X892810D01*
Y347900D01*
D02*
G37*
G36*
X842010D02*
X833990D01*
Y341630D01*
X842010D01*
Y347900D01*
D02*
G37*
G36*
X665880Y347790D02*
X657860D01*
Y341520D01*
X665880D01*
Y347790D01*
D02*
G37*
G36*
X615080D02*
X607060D01*
Y341520D01*
X615080D01*
Y347790D01*
D02*
G37*
G36*
X877970D02*
X869950D01*
Y341520D01*
X877970D01*
Y347790D01*
D02*
G37*
G36*
X640480D02*
X632460D01*
Y341520D01*
X640480D01*
Y347790D01*
D02*
G37*
G36*
X655320D02*
X647300D01*
Y341520D01*
X655320D01*
Y347790D01*
D02*
G37*
G36*
X604520D02*
X596500D01*
Y341520D01*
X604520D01*
Y347790D01*
D02*
G37*
G36*
X867410D02*
X859390D01*
Y341520D01*
X867410D01*
Y347790D01*
D02*
G37*
G36*
X629920D02*
X621900D01*
Y341520D01*
X629920D01*
Y347790D01*
D02*
G37*
G36*
X903370Y339090D02*
X895350D01*
Y332820D01*
X903370D01*
Y339090D01*
D02*
G37*
G36*
X892810D02*
X884790D01*
Y332820D01*
X892810D01*
Y339090D01*
D02*
G37*
G36*
X852570D02*
X844550D01*
Y332820D01*
X852570D01*
Y339090D01*
D02*
G37*
G36*
X842010D02*
X833990D01*
Y332820D01*
X842010D01*
Y339090D01*
D02*
G37*
G36*
X877970Y338980D02*
X869950D01*
Y332710D01*
X877970D01*
Y338980D01*
D02*
G37*
G36*
X867410D02*
X859390D01*
Y332710D01*
X867410D01*
Y338980D01*
D02*
G37*
G36*
X665880D02*
X657860D01*
Y332710D01*
X665880D01*
Y338980D01*
D02*
G37*
G36*
X655320D02*
X647300D01*
Y332710D01*
X655320D01*
Y338980D01*
D02*
G37*
G36*
X640480D02*
X632460D01*
Y332710D01*
X640480D01*
Y338980D01*
D02*
G37*
G36*
X629920D02*
X621900D01*
Y332710D01*
X629920D01*
Y338980D01*
D02*
G37*
G36*
X615080D02*
X607060D01*
Y332710D01*
X615080D01*
Y338980D01*
D02*
G37*
G36*
X604520D02*
X596500D01*
Y332710D01*
X604520D01*
Y338980D01*
D02*
G37*
G36*
X108930Y326734D02*
X107950D01*
Y317500D01*
X112284D01*
Y323380D01*
X112029Y324664D01*
X111302Y325752D01*
X110214Y326479D01*
X108930Y326734D01*
D02*
G37*
G36*
X105410D02*
X104430D01*
X103146Y326479D01*
X102058Y325752D01*
X101331Y324664D01*
X101075Y323380D01*
Y317500D01*
X105410D01*
Y326734D01*
D02*
G37*
G36*
X121630Y325699D02*
X117130D01*
X116243Y325522D01*
X115491Y325019D01*
X114988Y324267D01*
X114811Y323380D01*
Y309080D01*
X114988Y308193D01*
X115491Y307441D01*
X116243Y306938D01*
X117130Y306761D01*
X121630D01*
X122517Y306938D01*
X123270Y307441D01*
X123772Y308193D01*
X123948Y309080D01*
Y323380D01*
X123772Y324267D01*
X123270Y325019D01*
X122517Y325522D01*
X121630Y325699D01*
D02*
G37*
G36*
X112284Y314960D02*
X107950D01*
Y305726D01*
X108930D01*
X110214Y305981D01*
X111302Y306708D01*
X112029Y307796D01*
X112284Y309080D01*
Y314960D01*
D02*
G37*
G36*
X105410D02*
X101075D01*
Y309080D01*
X101331Y307796D01*
X102058Y306708D01*
X103146Y305981D01*
X104430Y305726D01*
X105410D01*
Y314960D01*
D02*
G37*
G36*
X754080Y291230D02*
X747810D01*
Y283210D01*
X754080D01*
Y291230D01*
D02*
G37*
G36*
X745270D02*
X739000D01*
Y283210D01*
X745270D01*
Y291230D01*
D02*
G37*
G36*
X721760Y287050D02*
X713740D01*
Y280780D01*
X721760D01*
Y287050D01*
D02*
G37*
G36*
X711200D02*
X703180D01*
Y280780D01*
X711200D01*
Y287050D01*
D02*
G37*
G36*
X515430Y288690D02*
X509160D01*
Y280670D01*
X515430D01*
Y288690D01*
D02*
G37*
G36*
X506620D02*
X500350D01*
Y280670D01*
X506620D01*
Y288690D01*
D02*
G37*
G36*
X754080Y280670D02*
X747810D01*
Y272650D01*
X754080D01*
Y280670D01*
D02*
G37*
G36*
X745270D02*
X739000D01*
Y272650D01*
X745270D01*
Y280670D01*
D02*
G37*
G36*
X721760Y278240D02*
X713740D01*
Y271970D01*
X721760D01*
Y278240D01*
D02*
G37*
G36*
X711200D02*
X703180D01*
Y271970D01*
X711200D01*
Y278240D01*
D02*
G37*
G36*
X515430Y278130D02*
X509160D01*
Y270110D01*
X515430D01*
Y278130D01*
D02*
G37*
G36*
X506620D02*
X500350D01*
Y270110D01*
X506620D01*
Y278130D01*
D02*
G37*
G36*
X108930Y273335D02*
X107950D01*
Y264100D01*
X112284D01*
Y269980D01*
X112029Y271264D01*
X111302Y272352D01*
X110214Y273079D01*
X108930Y273335D01*
D02*
G37*
G36*
X105410D02*
X104430D01*
X103146Y273079D01*
X102058Y272352D01*
X101331Y271264D01*
X101075Y269980D01*
Y264100D01*
X105410D01*
Y273335D01*
D02*
G37*
G36*
X743018Y265430D02*
X742950D01*
Y256540D01*
X751840D01*
Y256608D01*
X751148Y259192D01*
X749810Y261508D01*
X747918Y263400D01*
X745602Y264738D01*
X743018Y265430D01*
D02*
G37*
G36*
X740410D02*
X740342D01*
X737758Y264738D01*
X735442Y263400D01*
X733550Y261508D01*
X732212Y259192D01*
X731520Y256608D01*
Y256540D01*
X740410D01*
Y265430D01*
D02*
G37*
G36*
X505778Y264960D02*
X505710D01*
Y256070D01*
X514600D01*
Y256138D01*
X513908Y258722D01*
X512570Y261038D01*
X510678Y262930D01*
X508362Y264268D01*
X505778Y264960D01*
D02*
G37*
G36*
X503170D02*
X503102D01*
X500518Y264268D01*
X498202Y262930D01*
X496310Y261038D01*
X494972Y258722D01*
X494280Y256138D01*
Y256070D01*
X503170D01*
Y264960D01*
D02*
G37*
G36*
X112284Y261560D02*
X107950D01*
Y252326D01*
X108930D01*
X110214Y252581D01*
X111302Y253308D01*
X112029Y254396D01*
X112284Y255680D01*
Y261560D01*
D02*
G37*
G36*
X105410D02*
X101075D01*
Y255680D01*
X101331Y254396D01*
X102058Y253308D01*
X103146Y252581D01*
X104430Y252326D01*
X105410D01*
Y261560D01*
D02*
G37*
G36*
X906844Y292754D02*
X893796D01*
Y284908D01*
X893740Y284480D01*
Y265654D01*
X892363Y264276D01*
X890551Y263791D01*
X888465Y262587D01*
X886763Y260884D01*
X885559Y258799D01*
X884936Y256474D01*
Y254066D01*
X885559Y251740D01*
X886763Y249655D01*
X888465Y247953D01*
X890551Y246749D01*
X892876Y246126D01*
X895284D01*
X897609Y246749D01*
X899695Y247953D01*
X901397Y249655D01*
X902601Y251740D01*
X903224Y254066D01*
Y256474D01*
X903213Y256515D01*
X904973Y258275D01*
X906019Y259638D01*
X906676Y261225D01*
X906900Y262928D01*
Y284480D01*
X906844Y284908D01*
Y292754D01*
D02*
G37*
G36*
X771064Y290214D02*
X758016D01*
Y282368D01*
X757960Y281940D01*
Y259228D01*
X758184Y257525D01*
X758204Y257475D01*
X757936Y256474D01*
Y254066D01*
X758559Y251740D01*
X759763Y249655D01*
X761466Y247953D01*
X763550Y246749D01*
X765876Y246126D01*
X768284D01*
X770610Y246749D01*
X772694Y247953D01*
X774397Y249655D01*
X775601Y251740D01*
X776224Y254066D01*
Y256474D01*
X775601Y258799D01*
X774397Y260884D01*
X772694Y262587D01*
X771120Y263496D01*
Y281940D01*
X771064Y282368D01*
Y290214D01*
D02*
G37*
G36*
X668084Y287674D02*
X655036D01*
Y279828D01*
X654980Y279400D01*
Y263768D01*
X653311Y263321D01*
X651226Y262117D01*
X649523Y260415D01*
X648319Y258329D01*
X647696Y256004D01*
Y253596D01*
X648319Y251271D01*
X649523Y249185D01*
X651226Y247483D01*
X653311Y246279D01*
X655636Y245656D01*
X658044D01*
X660369Y246279D01*
X662455Y247483D01*
X664157Y249185D01*
X665361Y251271D01*
X665984Y253596D01*
Y256004D01*
X665973Y256045D01*
X666213Y256285D01*
X667259Y257648D01*
X667916Y259235D01*
X668140Y260938D01*
Y279400D01*
X668084Y279828D01*
Y287674D01*
D02*
G37*
G36*
X532414D02*
X519366D01*
Y279828D01*
X519310Y279400D01*
Y260168D01*
X519534Y258465D01*
X520191Y256878D01*
X520739Y256164D01*
X520696Y256004D01*
Y253596D01*
X521319Y251271D01*
X522523Y249185D01*
X524226Y247483D01*
X526311Y246279D01*
X528636Y245656D01*
X531044D01*
X533369Y246279D01*
X535455Y247483D01*
X537157Y249185D01*
X538361Y251271D01*
X538984Y253596D01*
Y256004D01*
X538361Y258329D01*
X537157Y260415D01*
X535455Y262117D01*
X533369Y263321D01*
X532470Y263562D01*
Y279400D01*
X532414Y279828D01*
Y287674D01*
D02*
G37*
G36*
X751840Y254000D02*
X742950D01*
Y245110D01*
X743018D01*
X745602Y245802D01*
X747918Y247140D01*
X749810Y249032D01*
X751148Y251348D01*
X751840Y253932D01*
Y254000D01*
D02*
G37*
G36*
X740410D02*
X731520D01*
Y253932D01*
X732212Y251348D01*
X733550Y249032D01*
X735442Y247140D01*
X737758Y245802D01*
X740342Y245110D01*
X740410D01*
Y254000D01*
D02*
G37*
G36*
X514600Y253530D02*
X505710D01*
Y244640D01*
X505778D01*
X508362Y245332D01*
X510678Y246670D01*
X512570Y248561D01*
X513908Y250878D01*
X514600Y253462D01*
Y253530D01*
D02*
G37*
G36*
X503170D02*
X494280D01*
Y253462D01*
X494972Y250878D01*
X496310Y248561D01*
X498202Y246670D01*
X500518Y245332D01*
X503102Y244640D01*
X503170D01*
Y253530D01*
D02*
G37*
G36*
X54864Y385445D02*
X39116D01*
Y349377D01*
X45558D01*
X54761Y340174D01*
Y326263D01*
X39116D01*
Y299501D01*
X28955Y289340D01*
X27909Y287977D01*
X27252Y286390D01*
X27028Y284687D01*
Y280797D01*
X25146D01*
Y260223D01*
X27028D01*
Y251132D01*
X27252Y249429D01*
X27909Y247842D01*
X28955Y246479D01*
X30030Y245404D01*
Y244126D01*
X25082Y239178D01*
X20273Y234369D01*
X18894Y234095D01*
X17588Y233222D01*
X16715Y231916D01*
X16409Y230375D01*
Y228629D01*
X16280Y227650D01*
Y217700D01*
X16409Y216721D01*
Y205025D01*
X16715Y203484D01*
X17588Y202178D01*
X18894Y201305D01*
X20435Y200999D01*
X25285D01*
X26826Y201305D01*
X28132Y202178D01*
X29005Y203484D01*
X29311Y205025D01*
Y216015D01*
X29366Y216147D01*
X29590Y217850D01*
X29440Y218989D01*
Y224924D01*
X34388Y229872D01*
X41263Y236747D01*
X42306Y238106D01*
X43244D01*
Y254654D01*
X40188D01*
Y269541D01*
X40132Y269968D01*
Y271052D01*
X40188Y271479D01*
Y281961D01*
X48422Y290195D01*
X54761D01*
Y280797D01*
X53848D01*
Y260223D01*
X55338D01*
Y256714D01*
X53278Y254654D01*
X48196D01*
Y248557D01*
X48140Y248130D01*
Y246380D01*
X48196Y245952D01*
Y238106D01*
X61244D01*
Y244008D01*
X66571Y249335D01*
X67617Y250698D01*
X68274Y252285D01*
X68498Y253988D01*
Y260223D01*
X68834D01*
Y280797D01*
X67921D01*
Y342900D01*
X67697Y344603D01*
X67040Y346190D01*
X65994Y347553D01*
X54864Y358683D01*
Y368334D01*
X54920Y368761D01*
X54864Y369188D01*
Y385445D01*
D02*
G37*
G36*
X686084Y287674D02*
X673036D01*
Y279828D01*
X672980Y279400D01*
Y258898D01*
X673204Y257195D01*
X673332Y256885D01*
X673096Y256004D01*
Y253596D01*
X673719Y251270D01*
X674923Y249185D01*
X676625Y247483D01*
X678710Y246279D01*
X681036Y245656D01*
X681169D01*
X683030Y243795D01*
Y233045D01*
X681736D01*
Y196977D01*
X697484D01*
Y233045D01*
X696190D01*
Y246521D01*
X695966Y248224D01*
X695309Y249811D01*
X694263Y251174D01*
X691384Y254053D01*
Y256004D01*
X690761Y258329D01*
X689557Y260414D01*
X687855Y262117D01*
X686140Y263106D01*
Y279400D01*
X686084Y279828D01*
Y287674D01*
D02*
G37*
G36*
X924844Y292754D02*
X911796D01*
Y284908D01*
X911740Y284480D01*
Y260152D01*
X910959Y258799D01*
X910336Y256474D01*
Y254066D01*
X910959Y251740D01*
X912163Y249655D01*
X913535Y248284D01*
Y231775D01*
X912876D01*
Y195707D01*
X928624D01*
Y231775D01*
X926695D01*
Y249554D01*
X926797Y249655D01*
X928001Y251740D01*
X928624Y254066D01*
Y256474D01*
X928001Y258799D01*
X926797Y260884D01*
X925094Y262587D01*
X924900Y262699D01*
Y284480D01*
X924844Y284908D01*
Y292754D01*
D02*
G37*
G36*
X712470Y268090D02*
X712042Y268034D01*
X704196D01*
Y254986D01*
X705890D01*
Y191575D01*
X688178Y173863D01*
X681736D01*
Y145819D01*
X681680Y145392D01*
X681736Y144965D01*
Y137795D01*
X697484D01*
Y144965D01*
X697540Y145392D01*
X697484Y145819D01*
Y164557D01*
X717123Y184196D01*
X718169Y185559D01*
X718826Y187146D01*
X719050Y188849D01*
Y254986D01*
X720744D01*
Y268034D01*
X712898D01*
X712470Y268090D01*
D02*
G37*
G36*
X869884Y264414D02*
X867476D01*
X865151Y263791D01*
X863065Y262587D01*
X861363Y260884D01*
X860159Y258799D01*
X859536Y256474D01*
Y254066D01*
X860159Y251740D01*
X860738Y250738D01*
Y163410D01*
X814422Y117094D01*
X809714D01*
X808886Y119094D01*
X848896Y159104D01*
X848896Y159104D01*
X850158Y160749D01*
X850951Y162665D01*
X851222Y164720D01*
Y250738D01*
X851801Y251740D01*
X852424Y254066D01*
Y256474D01*
X851801Y258799D01*
X850597Y260884D01*
X848895Y262587D01*
X846809Y263791D01*
X844484Y264414D01*
X842076D01*
X839751Y263791D01*
X837665Y262587D01*
X835963Y260884D01*
X834759Y258799D01*
X834136Y256474D01*
Y254066D01*
X834759Y251740D01*
X835338Y250738D01*
Y168010D01*
X784091Y116762D01*
X783008Y116472D01*
X780928Y115271D01*
X779229Y113572D01*
X778028Y111492D01*
X777406Y109171D01*
Y106769D01*
X778028Y104448D01*
X779229Y102368D01*
X780928Y100669D01*
X783008Y99468D01*
X785329Y98846D01*
X787731D01*
X790052Y99468D01*
X792132Y100669D01*
X793831Y102368D01*
X795032Y104448D01*
X795322Y105531D01*
X805406Y115614D01*
X807406Y114786D01*
Y98846D01*
X825654D01*
Y105862D01*
X874296Y154504D01*
X874296Y154504D01*
X875558Y156149D01*
X876351Y158064D01*
X876487Y159092D01*
X876622Y160120D01*
X876622Y160120D01*
Y250738D01*
X877201Y251740D01*
X877824Y254066D01*
Y256474D01*
X877201Y258799D01*
X875997Y260884D01*
X874295Y262587D01*
X872209Y263791D01*
X869884Y264414D01*
D02*
G37*
G36*
X928624Y172593D02*
X912876D01*
Y144549D01*
X912820Y144122D01*
X912876Y143695D01*
Y136525D01*
X914170D01*
Y109220D01*
X914394Y107517D01*
X915051Y105930D01*
X916097Y104567D01*
X917460Y103521D01*
X919047Y102864D01*
X920750Y102640D01*
X922453Y102864D01*
X924040Y103521D01*
X925403Y104567D01*
X926449Y105930D01*
X927106Y107517D01*
X927330Y109220D01*
Y136525D01*
X928624D01*
Y172593D01*
D02*
G37*
G36*
X632644Y263944D02*
X630236D01*
X627911Y263321D01*
X625826Y262117D01*
X624123Y260415D01*
X622919Y258329D01*
X622296Y256004D01*
Y256004D01*
X621682Y255204D01*
X620889Y253288D01*
X620753Y252260D01*
X620618Y251233D01*
X620618Y251232D01*
Y118364D01*
X619436D01*
Y100116D01*
X637684D01*
Y118364D01*
X636502D01*
Y247164D01*
X637055Y247483D01*
X638757Y249185D01*
X639961Y251271D01*
X640584Y253596D01*
Y256004D01*
X639961Y258329D01*
X638757Y260415D01*
X637055Y262117D01*
X634969Y263321D01*
X632644Y263944D01*
D02*
G37*
G36*
X607244D02*
X604836D01*
X602511Y263321D01*
X600425Y262117D01*
X598723Y260415D01*
X597519Y258329D01*
X596896Y256004D01*
Y253596D01*
X597519Y251271D01*
X598098Y250268D01*
Y121417D01*
X593584Y116902D01*
X592958Y116541D01*
X591259Y114842D01*
X590058Y112762D01*
X589436Y110441D01*
Y108039D01*
X590058Y105718D01*
X591259Y103638D01*
X592958Y101939D01*
X595038Y100738D01*
X597359Y100116D01*
X599761D01*
X602082Y100738D01*
X604162Y101939D01*
X605861Y103638D01*
X607062Y105718D01*
X607684Y108039D01*
Y108539D01*
X611656Y112511D01*
X611656Y112511D01*
X612918Y114156D01*
X613711Y116072D01*
X613982Y118127D01*
Y250268D01*
X614561Y251271D01*
X615184Y253596D01*
Y256004D01*
X614561Y258329D01*
X613357Y260415D01*
X611655Y262117D01*
X609570Y263321D01*
X607244Y263944D01*
D02*
G37*
G36*
X581844D02*
X579436D01*
X577111Y263321D01*
X575025Y262117D01*
X573323Y260415D01*
X572119Y258329D01*
X571496Y256004D01*
Y253596D01*
X572119Y251271D01*
X572698Y250268D01*
Y126017D01*
X563584Y116902D01*
X562958Y116541D01*
X561259Y114842D01*
X560058Y112762D01*
X559436Y110441D01*
Y108039D01*
X560058Y105718D01*
X561259Y103638D01*
X562958Y101939D01*
X565038Y100738D01*
X567359Y100116D01*
X569761D01*
X572082Y100738D01*
X574162Y101939D01*
X575861Y103638D01*
X577062Y105718D01*
X577684Y108039D01*
Y108539D01*
X586256Y117111D01*
X586256Y117111D01*
X587518Y118756D01*
X588311Y120672D01*
X588447Y121699D01*
X588582Y122727D01*
X588582Y122727D01*
Y250268D01*
X589161Y251271D01*
X589784Y253596D01*
Y256004D01*
X589161Y258329D01*
X587957Y260415D01*
X586255Y262117D01*
X584170Y263321D01*
X581844Y263944D01*
D02*
G37*
G36*
X556444D02*
X554036D01*
X551711Y263321D01*
X549626Y262117D01*
X547923Y260415D01*
X546719Y258329D01*
X546096Y256004D01*
Y253596D01*
X546719Y251271D01*
X547298Y250268D01*
Y129210D01*
X536121Y118032D01*
X535038Y117742D01*
X532958Y116541D01*
X531259Y114842D01*
X530058Y112762D01*
X529436Y110441D01*
Y108039D01*
X530058Y105718D01*
X531259Y103638D01*
X532958Y101939D01*
X535038Y100738D01*
X537359Y100116D01*
X539761D01*
X542082Y100738D01*
X544162Y101939D01*
X545861Y103638D01*
X547062Y105718D01*
X547352Y106801D01*
X560856Y120304D01*
X560856Y120304D01*
X562118Y121949D01*
X562911Y123864D01*
X563182Y125920D01*
X563182Y125920D01*
Y250268D01*
X563761Y251271D01*
X564384Y253596D01*
Y256004D01*
X563761Y258329D01*
X562557Y260415D01*
X560855Y262117D01*
X558769Y263321D01*
X556444Y263944D01*
D02*
G37*
G36*
X819084Y264414D02*
X816676D01*
X814351Y263791D01*
X812265Y262587D01*
X810563Y260884D01*
X809359Y258799D01*
X808736Y256474D01*
Y254066D01*
X809359Y251740D01*
X809938Y250738D01*
Y172610D01*
X754091Y116762D01*
X753008Y116472D01*
X750928Y115271D01*
X749229Y113572D01*
X748028Y111492D01*
X747406Y109171D01*
Y106769D01*
X748028Y104448D01*
X749229Y102368D01*
X750928Y100669D01*
X753008Y99468D01*
X755329Y98846D01*
X757731D01*
X760052Y99468D01*
X762132Y100669D01*
X763831Y102368D01*
X765032Y104448D01*
X765322Y105531D01*
X823496Y163704D01*
X823496Y163704D01*
X824758Y165349D01*
X825551Y167264D01*
X825687Y168292D01*
X825822Y169320D01*
X825822Y169320D01*
Y250738D01*
X826401Y251740D01*
X827024Y254066D01*
Y256474D01*
X826401Y258799D01*
X825197Y260884D01*
X823494Y262587D01*
X821410Y263791D01*
X819084Y264414D01*
D02*
G37*
G36*
X793684D02*
X791276D01*
X788951Y263791D01*
X786865Y262587D01*
X785163Y260884D01*
X783959Y258799D01*
X783336Y256474D01*
Y254066D01*
X783959Y251740D01*
X784538Y250738D01*
Y177210D01*
X724091Y116762D01*
X723008Y116472D01*
X720928Y115271D01*
X719229Y113572D01*
X718028Y111492D01*
X717406Y109171D01*
Y106769D01*
X718028Y104448D01*
X719229Y102368D01*
X720928Y100669D01*
X723008Y99468D01*
X725329Y98846D01*
X727731D01*
X730052Y99468D01*
X732132Y100669D01*
X733831Y102368D01*
X735032Y104448D01*
X735322Y105531D01*
X798096Y168304D01*
X798096Y168304D01*
X799358Y169949D01*
X800151Y171864D01*
X800422Y173920D01*
X800422Y173920D01*
Y250738D01*
X801001Y251740D01*
X801624Y254066D01*
Y256474D01*
X801001Y258799D01*
X799797Y260884D01*
X798094Y262587D01*
X796010Y263791D01*
X793684Y264414D01*
D02*
G37*
G36*
X63615Y104504D02*
X60844D01*
X58168Y103787D01*
X55768Y102401D01*
X53809Y100442D01*
X52423Y98042D01*
X51706Y95365D01*
Y92594D01*
X52423Y89918D01*
X53809Y87518D01*
X55768Y85559D01*
X58168Y84173D01*
X60844Y83456D01*
X63615D01*
X66292Y84173D01*
X68692Y85559D01*
X70651Y87518D01*
X72037Y89918D01*
X72754Y92594D01*
Y95365D01*
X72037Y98042D01*
X70651Y100442D01*
X68692Y102401D01*
X66292Y103787D01*
X63615Y104504D01*
D02*
G37*
G36*
X608688Y82564D02*
X605433D01*
X602240Y81929D01*
X599233Y80683D01*
X596527Y78875D01*
X594225Y76573D01*
X592417Y73867D01*
X591171Y70860D01*
X590536Y67667D01*
Y64412D01*
X591171Y61220D01*
X592417Y58213D01*
X594225Y55507D01*
X596527Y53205D01*
X599233Y51397D01*
X602240Y50151D01*
X605433Y49516D01*
X608688D01*
X611880Y50151D01*
X614887Y51397D01*
X617593Y53205D01*
X619895Y55507D01*
X621703Y58213D01*
X622949Y61220D01*
X623584Y64412D01*
Y67667D01*
X622949Y70860D01*
X621703Y73867D01*
X619895Y76573D01*
X617593Y78875D01*
X614887Y80683D01*
X611880Y81929D01*
X608688Y82564D01*
D02*
G37*
G36*
X561688D02*
X558433D01*
X555240Y81929D01*
X552233Y80683D01*
X549527Y78875D01*
X547225Y76573D01*
X545417Y73867D01*
X544171Y70860D01*
X543536Y67667D01*
Y64412D01*
X544171Y61220D01*
X545417Y58213D01*
X547225Y55507D01*
X549527Y53205D01*
X552233Y51397D01*
X555240Y50151D01*
X558433Y49516D01*
X561688D01*
X564880Y50151D01*
X567887Y51397D01*
X570593Y53205D01*
X572895Y55507D01*
X574703Y58213D01*
X575949Y61220D01*
X576584Y64412D01*
Y67667D01*
X575949Y70860D01*
X574703Y73867D01*
X572895Y76573D01*
X570593Y78875D01*
X567887Y80683D01*
X564880Y81929D01*
X561688Y82564D01*
D02*
G37*
G36*
X796657Y81294D02*
X793402D01*
X790210Y80659D01*
X787203Y79413D01*
X784497Y77605D01*
X782195Y75303D01*
X780387Y72597D01*
X779141Y69590D01*
X778506Y66398D01*
Y63142D01*
X779141Y59950D01*
X780387Y56943D01*
X782195Y54237D01*
X784497Y51935D01*
X787203Y50127D01*
X790210Y48881D01*
X793402Y48246D01*
X796657D01*
X799850Y48881D01*
X802857Y50127D01*
X805563Y51935D01*
X807865Y54237D01*
X809673Y56943D01*
X810919Y59950D01*
X811554Y63142D01*
Y66398D01*
X810919Y69590D01*
X809673Y72597D01*
X807865Y75303D01*
X805563Y77605D01*
X802857Y79413D01*
X799850Y80659D01*
X796657Y81294D01*
D02*
G37*
G36*
X749658D02*
X746403D01*
X743210Y80659D01*
X740203Y79413D01*
X737497Y77605D01*
X735195Y75303D01*
X733387Y72597D01*
X732141Y69590D01*
X731506Y66398D01*
Y63142D01*
X732141Y59950D01*
X733387Y56943D01*
X735195Y54237D01*
X737497Y51935D01*
X740203Y50127D01*
X743210Y48881D01*
X746403Y48246D01*
X749658D01*
X752850Y48881D01*
X755857Y50127D01*
X758563Y51935D01*
X760865Y54237D01*
X762673Y56943D01*
X763919Y59950D01*
X764554Y63142D01*
Y66398D01*
X763919Y69590D01*
X762673Y72597D01*
X760865Y75303D01*
X758563Y77605D01*
X755857Y79413D01*
X752850Y80659D01*
X749658Y81294D01*
D02*
G37*
G36*
X312674Y49403D02*
X296926D01*
Y27512D01*
X267970D01*
X266267Y27288D01*
X265532Y26984D01*
X252114Y40402D01*
Y43244D01*
X246917D01*
X246490Y43300D01*
X243840D01*
X243413Y43244D01*
X240457D01*
X240030Y43300D01*
X234890D01*
X233187Y43076D01*
X231600Y42419D01*
X230237Y41373D01*
X217034Y28170D01*
X209810D01*
X208831Y28041D01*
X197135D01*
X195594Y27735D01*
X194288Y26862D01*
X193415Y25556D01*
X193109Y24015D01*
Y19165D01*
X193415Y17624D01*
X194288Y16318D01*
X195594Y15445D01*
X197135Y15139D01*
X208831D01*
X209810Y15010D01*
X219760D01*
X220739Y15139D01*
X222485D01*
X224026Y15445D01*
X225332Y16318D01*
X226205Y17624D01*
X226479Y19003D01*
X237616Y30140D01*
X240030D01*
X240458Y30196D01*
X243412D01*
X243753Y30151D01*
X258237Y15667D01*
X259600Y14621D01*
X261187Y13964D01*
X262890Y13740D01*
X267970D01*
X269673Y13964D01*
X270609Y14352D01*
X296926D01*
Y13335D01*
X312674D01*
Y49403D01*
D02*
G37*
G36*
X952481Y81524D02*
X947519D01*
X942618Y80748D01*
X937899Y79214D01*
X933478Y76962D01*
X929464Y74045D01*
X925955Y70536D01*
X923038Y66522D01*
X920786Y62101D01*
X919252Y57382D01*
X918476Y52481D01*
Y47519D01*
X919252Y42618D01*
X920786Y37899D01*
X923038Y33478D01*
X925955Y29464D01*
X929464Y25955D01*
X933478Y23038D01*
X937899Y20786D01*
X942618Y19252D01*
X947519Y18476D01*
X952481D01*
X957382Y19252D01*
X962101Y20786D01*
X966522Y23038D01*
X970536Y25955D01*
X974045Y29464D01*
X976962Y33478D01*
X979214Y37899D01*
X980748Y42618D01*
X981524Y47519D01*
Y52481D01*
X980748Y57382D01*
X979214Y62101D01*
X976962Y66522D01*
X974045Y70536D01*
X970536Y74045D01*
X966522Y76962D01*
X962101Y79214D01*
X957382Y80748D01*
X952481Y81524D01*
D02*
G37*
%LPD*%
G36*
X328930Y139700D02*
X201522D01*
X199820Y140420D01*
X199820Y141700D01*
Y164940D01*
X176530D01*
X153240D01*
Y141700D01*
X153240Y140420D01*
X151538Y139700D01*
X128888D01*
X128122Y141548D01*
X130020Y143446D01*
X141624D01*
Y156494D01*
X125076D01*
Y148390D01*
X120510Y143824D01*
X118510Y144653D01*
Y148700D01*
X110490D01*
Y142430D01*
X114764D01*
X115784Y140430D01*
X115253Y139700D01*
X86360D01*
Y114300D01*
X8890D01*
Y193784D01*
X10160Y194310D01*
X154940D01*
Y403860D01*
X328930D01*
Y139700D01*
D02*
G37*
G36*
X469900Y62317D02*
X468313Y61100D01*
X467476Y61324D01*
X464705D01*
X462028Y60607D01*
X459628Y59221D01*
X458827Y58420D01*
X447270D01*
Y67897D01*
X449111Y69738D01*
X450497Y72138D01*
X451214Y74815D01*
Y77586D01*
X450497Y80262D01*
X449111Y82662D01*
X447152Y84621D01*
X444752Y86007D01*
X442076Y86724D01*
X439305D01*
X436628Y86007D01*
X434228Y84621D01*
X432269Y82662D01*
X430883Y80262D01*
X430166Y77586D01*
Y74815D01*
X430883Y72138D01*
X432269Y69738D01*
X434110Y67897D01*
Y58420D01*
X397153D01*
X396352Y59221D01*
X393952Y60607D01*
X391275Y61324D01*
X388504D01*
X385828Y60607D01*
X383428Y59221D01*
X382627Y58420D01*
X371274D01*
X369970Y59880D01*
X369970Y60420D01*
Y66150D01*
X351390D01*
Y60420D01*
X351390Y59880D01*
X350086Y58420D01*
X264160D01*
Y121920D01*
Y129540D01*
Y135890D01*
X342900D01*
Y400050D01*
Y403860D01*
X469900D01*
Y62317D01*
D02*
G37*
G36*
X181610Y13970D02*
X73660D01*
Y82550D01*
X181610D01*
Y13970D01*
D02*
G37*
%LPC*%
G36*
X291420Y309240D02*
X247650D01*
Y267970D01*
X291420D01*
Y309240D01*
D02*
G37*
G36*
X245110D02*
X201340D01*
Y267970D01*
X245110D01*
Y309240D01*
D02*
G37*
G36*
X291420Y265430D02*
X247650D01*
Y224160D01*
X291420D01*
Y265430D01*
D02*
G37*
G36*
X245110D02*
X201340D01*
Y224160D01*
X245110D01*
Y265430D01*
D02*
G37*
G36*
X199820Y192000D02*
X177800D01*
Y167480D01*
X199820D01*
Y192000D01*
D02*
G37*
G36*
X175260D02*
X153240D01*
Y167480D01*
X175260D01*
Y192000D01*
D02*
G37*
G36*
X73710Y186540D02*
X46990D01*
Y153670D01*
X73710D01*
Y186540D01*
D02*
G37*
G36*
X44450D02*
X17730D01*
Y153670D01*
X44450D01*
Y186540D01*
D02*
G37*
G36*
X118510Y157510D02*
X110490D01*
Y151240D01*
X118510D01*
Y157510D01*
D02*
G37*
G36*
X107950D02*
X99930D01*
Y151240D01*
X107950D01*
Y157510D01*
D02*
G37*
G36*
Y148700D02*
X99930D01*
Y142430D01*
X107950D01*
Y148700D01*
D02*
G37*
G36*
X73710Y151130D02*
X46990D01*
Y118260D01*
X73710D01*
Y151130D01*
D02*
G37*
G36*
X44450D02*
X17730D01*
Y118260D01*
X44450D01*
Y151130D01*
D02*
G37*
G36*
X461420Y309240D02*
X417650D01*
Y267970D01*
X461420D01*
Y309240D01*
D02*
G37*
G36*
X415110D02*
X371340D01*
Y267970D01*
X415110D01*
Y309240D01*
D02*
G37*
G36*
X461420Y265430D02*
X417650D01*
Y224160D01*
X461420D01*
Y265430D01*
D02*
G37*
G36*
X415110D02*
X371340D01*
Y224160D01*
X415110D01*
Y265430D01*
D02*
G37*
G36*
X313690Y109601D02*
X306070D01*
Y91821D01*
X313690D01*
Y109601D01*
D02*
G37*
G36*
X303530D02*
X295910D01*
Y91821D01*
X303530D01*
Y109601D01*
D02*
G37*
G36*
X426830Y87740D02*
X416560D01*
Y77470D01*
X426830D01*
Y87740D01*
D02*
G37*
G36*
X414020D02*
X403750D01*
Y77470D01*
X414020D01*
Y87740D01*
D02*
G37*
G36*
X313690Y89281D02*
X306070D01*
Y71501D01*
X313690D01*
Y89281D01*
D02*
G37*
G36*
X303530D02*
X295910D01*
Y71501D01*
X303530D01*
Y89281D01*
D02*
G37*
G36*
X369970Y74960D02*
X361950D01*
Y68690D01*
X369970D01*
Y74960D01*
D02*
G37*
G36*
X359410D02*
X351390D01*
Y68690D01*
X359410D01*
Y74960D01*
D02*
G37*
G36*
X426830Y74930D02*
X416560D01*
Y64660D01*
X426830D01*
Y74930D01*
D02*
G37*
G36*
X414020D02*
X403750D01*
Y64660D01*
X414020D01*
Y74930D01*
D02*
G37*
G36*
X99170Y80120D02*
X88900D01*
Y69850D01*
X99170D01*
Y80120D01*
D02*
G37*
G36*
X86360D02*
X76090D01*
Y69850D01*
X86360D01*
Y80120D01*
D02*
G37*
G36*
X99170Y67310D02*
X88900D01*
Y57040D01*
X99170D01*
Y67310D01*
D02*
G37*
G36*
X86360D02*
X76090D01*
Y57040D01*
X86360D01*
Y67310D01*
D02*
G37*
G36*
X178650Y72440D02*
X145780D01*
Y45720D01*
X178650D01*
Y72440D01*
D02*
G37*
G36*
X143240D02*
X110370D01*
Y45720D01*
X143240D01*
Y72440D01*
D02*
G37*
G36*
X89016Y53704D02*
X86244D01*
X83568Y52987D01*
X81168Y51601D01*
X79209Y49642D01*
X77823Y47242D01*
X77106Y44566D01*
Y41795D01*
X77823Y39118D01*
X79209Y36718D01*
X81168Y34759D01*
X83568Y33373D01*
X86244Y32656D01*
X89016D01*
X91692Y33373D01*
X94092Y34759D01*
X96051Y36718D01*
X97437Y39118D01*
X98154Y41795D01*
Y44566D01*
X97437Y47242D01*
X96051Y49642D01*
X94092Y51601D01*
X91692Y52987D01*
X89016Y53704D01*
D02*
G37*
G36*
X178650Y43180D02*
X145780D01*
Y16460D01*
X178650D01*
Y43180D01*
D02*
G37*
G36*
X143240D02*
X110370D01*
Y16460D01*
X143240D01*
Y43180D01*
D02*
G37*
%LPD*%
D12*
X119380Y262830D02*
X132080D01*
X68580Y217700D02*
Y217970D01*
X70430Y219820D01*
X100330D01*
X102080Y201820D02*
X119380Y219120D01*
Y262830D01*
X100330Y201820D02*
X102080D01*
D15*
X61341Y270510D02*
D03*
X32639D02*
D03*
X145288Y95250D02*
D03*
X173990D02*
D03*
D16*
X920750Y213741D02*
D03*
Y154559D02*
D03*
X304800Y90551D02*
D03*
Y31369D02*
D03*
X46990Y308229D02*
D03*
Y367411D02*
D03*
X689610Y215011D02*
D03*
Y155829D02*
D03*
D17*
X209810Y21590D02*
D03*
Y67310D02*
D03*
D18*
X166680Y128710D02*
D03*
X186380D02*
D03*
D19*
X243840Y54720D02*
D03*
X360680Y67420D02*
D03*
X133350Y131970D02*
D03*
X712470Y261510D02*
D03*
X243840Y36720D02*
D03*
X712470Y279510D02*
D03*
X605790Y340250D02*
D03*
X631190D02*
D03*
X656590D02*
D03*
X843280Y340360D02*
D03*
X868680Y340250D02*
D03*
X894080Y340360D02*
D03*
X607060Y425560D02*
D03*
X631190D02*
D03*
X656590D02*
D03*
X843280D02*
D03*
X868680D02*
D03*
X894080D02*
D03*
X109220Y131970D02*
D03*
X360680Y49420D02*
D03*
X894080Y407560D02*
D03*
X868680D02*
D03*
X843280D02*
D03*
Y358360D02*
D03*
X868680Y358250D02*
D03*
X894080Y358360D02*
D03*
X605790Y358250D02*
D03*
X631190D02*
D03*
X656590D02*
D03*
X607060Y407560D02*
D03*
X631190D02*
D03*
X656590D02*
D03*
X100330Y201820D02*
D03*
Y219820D02*
D03*
X133350Y149970D02*
D03*
X109220Y149970D02*
D03*
D20*
X200550Y95250D02*
D03*
X36720Y246380D02*
D03*
X661560Y279400D02*
D03*
X900320Y284480D02*
D03*
X918320D02*
D03*
X679560Y279400D02*
D03*
X218550Y95250D02*
D03*
X54720Y246380D02*
D03*
X507890Y279400D02*
D03*
X746540Y281940D02*
D03*
X525890Y279400D02*
D03*
X764540Y281940D02*
D03*
D21*
X144780Y316230D02*
D03*
Y262830D02*
D03*
X132080Y316230D02*
D03*
X119380D02*
D03*
X106680D02*
D03*
Y262830D02*
D03*
X119380D02*
D03*
X132080D02*
D03*
D22*
X22860Y217700D02*
D03*
X68580D02*
D03*
D23*
X416380Y266700D02*
D03*
X246380D02*
D03*
D24*
X176530Y166210D02*
D03*
D45*
X144510Y44450D02*
D03*
D46*
X45720Y152400D02*
D03*
D47*
X628560Y109240D02*
Y251233D01*
X631440Y254113D02*
Y254800D01*
X628560Y251233D02*
X631440Y254113D01*
X598560Y109240D02*
Y110647D01*
X606040Y118127D01*
Y254800D01*
X568560Y110647D02*
X580640Y122727D01*
Y254800D01*
X568560Y109240D02*
Y110647D01*
X538560Y109240D02*
X555240Y125920D01*
Y254800D01*
X868680Y160120D02*
Y255270D01*
X816530Y107970D02*
X868680Y160120D01*
X843280Y164720D02*
Y255270D01*
X786530Y107970D02*
X843280Y164720D01*
X817880Y169320D02*
Y255270D01*
X756530Y107970D02*
X817880Y169320D01*
X792480Y173920D02*
Y255270D01*
X726530Y107970D02*
X792480Y173920D01*
D48*
X744220Y405130D02*
Y460794D01*
X679450Y457200D02*
X683260D01*
X691870Y469620D02*
X735395D01*
X679450Y457200D02*
X691870Y469620D01*
X735395D02*
X744220Y460794D01*
Y405130D02*
X767080Y382270D01*
X704850Y404410D02*
Y457200D01*
X682240Y381800D02*
X704850Y404410D01*
X648240Y461740D02*
X655320Y454660D01*
X637540Y472440D02*
X648240Y461740D01*
X213360Y472440D02*
X637540D01*
X648240Y461740D02*
X648240D01*
X132080Y391160D02*
X213360Y472440D01*
X132080Y316230D02*
Y391160D01*
X792480Y382270D02*
X817880D01*
X555240Y381800D02*
X580640D01*
X806450Y393700D02*
Y457200D01*
Y393700D02*
X817880Y382270D01*
X607060Y359520D02*
Y407560D01*
X605790Y358250D02*
X607060Y359520D01*
X631190Y358250D02*
Y407560D01*
X656590Y358250D02*
Y407560D01*
X894080Y407560D02*
X894080Y407560D01*
X894080Y382270D02*
Y407560D01*
X868680D02*
X868680Y407560D01*
X868680Y382270D02*
Y407560D01*
X843280D02*
X843280Y407560D01*
X843280Y382270D02*
Y407560D01*
Y358360D02*
Y382270D01*
Y358360D02*
X843280Y358360D01*
X868680Y358250D02*
Y382270D01*
Y358250D02*
X868680Y358250D01*
X894080Y358360D02*
Y382270D01*
Y358360D02*
X894080Y358360D01*
D49*
X920750Y109220D02*
Y145472D01*
X689610Y165989D02*
X712470Y188849D01*
Y261510D01*
X689610Y155829D02*
Y165989D01*
X682240Y253891D02*
X689610Y246521D01*
Y215011D02*
Y246521D01*
X682240Y253891D02*
Y254800D01*
X894080Y425560D02*
X913130D01*
X868680D02*
X894080D01*
X913130D02*
X913240Y425450D01*
X929640D01*
X220060Y66960D02*
X232300Y54720D01*
X200660Y81355D02*
Y95250D01*
X144780Y336550D02*
Y346710D01*
Y316230D02*
Y336550D01*
X33608Y284687D02*
X46990Y298069D01*
X29735Y234525D02*
X36610Y241400D01*
X22860Y227650D02*
X29735Y234525D01*
X200550Y95250D02*
X200660D01*
X187325D02*
X200550D01*
X36610Y241400D02*
Y248130D01*
X144780Y262830D02*
Y316230D01*
X61341Y270510D02*
Y342900D01*
Y270510D02*
X61918Y269933D01*
Y253988D02*
Y269933D01*
X54720Y246380D02*
Y248130D01*
X56060D02*
X61918Y253988D01*
X54720Y248130D02*
X56060D01*
X46990Y357251D02*
Y367411D01*
Y357251D02*
X61341Y342900D01*
X389890Y50800D02*
X440690D01*
X440690D02*
X466090D01*
X440690Y50800D02*
X440690Y50800D01*
X440690Y50800D02*
Y76200D01*
X173990Y95250D02*
X187325D01*
X138360Y128710D02*
X145288Y121782D01*
X144330Y128270D02*
X166240D01*
X145288Y95250D02*
Y121782D01*
X197410Y127710D02*
X218660Y106460D01*
X689610Y146742D02*
Y155829D01*
X688260Y145392D02*
X689610Y146742D01*
X920750Y145472D02*
Y154559D01*
X919400Y144122D02*
X920750Y145472D01*
X894080Y253852D02*
Y255270D01*
X661560Y260938D02*
Y279400D01*
X656840Y256218D02*
X661560Y260938D01*
X894080Y256688D02*
X900320Y262928D01*
Y284480D01*
X894080Y255270D02*
Y256688D01*
X46990Y367411D02*
X48340Y368761D01*
X135100Y131970D02*
X138360Y128710D01*
X133350Y131970D02*
X135100D01*
X218660Y95250D02*
Y106460D01*
X186380Y128710D02*
X187380Y127710D01*
X197410D01*
X209810Y21590D02*
X219760D01*
X234890Y36720D02*
X240030D01*
X304800Y22282D02*
Y31369D01*
X303450Y20932D02*
X304800Y22282D01*
X166680Y128710D02*
X186380D01*
X166240Y128270D02*
X166680Y128710D01*
X138360D02*
X143890D01*
X144330Y128270D01*
X219760Y21590D02*
X234890Y36720D01*
X267970Y20932D02*
X303450D01*
X262890Y20320D02*
X267970D01*
X246490Y36720D02*
X262890Y20320D01*
X243840Y36720D02*
X246490D01*
X388510Y49420D02*
X389890Y50800D01*
X360680Y49420D02*
X388510D01*
X689610Y146742D02*
X690960Y145392D01*
X656840Y254800D02*
Y256218D01*
X22860Y217700D02*
X23010Y217850D01*
X918320Y257848D02*
Y284480D01*
Y257848D02*
X919480Y256688D01*
X920115Y214376D02*
Y254635D01*
Y214376D02*
X920750Y213741D01*
X919480Y255270D02*
Y256688D01*
Y255270D02*
X920115Y254635D01*
X679560Y258898D02*
Y279400D01*
Y258898D02*
X682240Y256218D01*
Y254800D02*
Y256218D01*
X220060Y66960D02*
Y67010D01*
X232300Y54720D02*
X242090D01*
X200660Y67460D02*
Y81355D01*
X200810Y67310D02*
X209810D01*
X219910Y67160D02*
X220060Y67010D01*
X200660Y67460D02*
X200810Y67310D01*
X46990Y298069D02*
Y308229D01*
X33608Y271479D02*
Y284687D01*
X32639Y270510D02*
X33608Y269541D01*
X32639Y270510D02*
X33608Y271479D01*
Y251132D02*
Y269541D01*
Y251132D02*
X36610Y248130D01*
X22860Y217700D02*
Y227650D01*
X843280Y425560D02*
X868680D01*
X712470Y279510D02*
X714220D01*
X714900Y340250D02*
X715010Y340360D01*
X746540Y280190D02*
Y281940D01*
X504440Y254800D02*
Y256218D01*
X741680Y255270D02*
Y256688D01*
X529840Y254800D02*
Y256218D01*
X525890Y260168D02*
X529840Y256218D01*
X525890Y260168D02*
Y279400D01*
X764540Y259228D02*
X767080Y256688D01*
Y255270D02*
Y256688D01*
X764540Y259228D02*
Y281940D01*
D50*
X631190Y425560D02*
X656590D01*
X607060D02*
X631190D01*
X656590D02*
Y438150D01*
X630096Y426654D02*
X631190Y425560D01*
X630096Y426654D02*
Y436704D01*
X605966Y426654D02*
X607060Y425560D01*
X605966Y426654D02*
Y436704D01*
X605790Y436880D02*
X605966Y436704D01*
D51*
X109220Y131970D02*
X113600D01*
X131600Y149970D01*
D52*
X109220Y131970D02*
X112970Y135720D01*
X131600Y149970D02*
X133350D01*
D53*
X894080Y255270D02*
D03*
X656840Y254800D02*
D03*
X919480Y255270D02*
D03*
X682240Y254800D02*
D03*
X843280Y255270D02*
D03*
X868680D02*
D03*
X817880D02*
D03*
X792480D02*
D03*
X741680D02*
D03*
X767080D02*
D03*
X843280Y382270D02*
D03*
X868680D02*
D03*
X894080D02*
D03*
X817880D02*
D03*
X792480D02*
D03*
X741680D02*
D03*
X767080D02*
D03*
X606040Y254800D02*
D03*
X631440D02*
D03*
X580640D02*
D03*
X555240D02*
D03*
X504440D02*
D03*
X529840D02*
D03*
X606040Y381800D02*
D03*
X631440D02*
D03*
X656840D02*
D03*
X580640D02*
D03*
X555240D02*
D03*
X504440D02*
D03*
X529840D02*
D03*
D54*
X440690Y76200D02*
D03*
X466090Y50800D02*
D03*
X389890D02*
D03*
X62230Y93980D02*
D03*
X87630Y43180D02*
D03*
X62230Y17780D02*
D03*
X858520Y454660D02*
D03*
X833120D02*
D03*
X807720D02*
D03*
X782320D02*
D03*
X756920D02*
D03*
X731520D02*
D03*
X706120D02*
D03*
X680720D02*
D03*
X883920D02*
D03*
X629920D02*
D03*
D55*
X87630Y68580D02*
D03*
D56*
X919480Y382270D02*
D03*
X682240Y381800D02*
D03*
D57*
X816530Y107970D02*
D03*
X628560Y109240D02*
D03*
D58*
X726530Y107970D02*
D03*
X786530D02*
D03*
X756530D02*
D03*
X538560Y109240D02*
D03*
X598560D02*
D03*
X568560D02*
D03*
D59*
X795030Y64770D02*
D03*
X748030D02*
D03*
X607060Y66040D02*
D03*
X560060D02*
D03*
D60*
X415290Y76200D02*
D03*
X655320Y454660D02*
D03*
D61*
X950000Y50000D02*
D03*
X50000Y450000D02*
D03*
D62*
X750000Y350000D02*
D03*
X675000Y400000D02*
D03*
X700000Y350000D02*
D03*
X725000Y400000D02*
D03*
X920750Y124460D02*
D03*
Y109220D02*
D03*
X712470Y233680D02*
D03*
X711200Y186690D02*
D03*
X700000Y250000D02*
D03*
X929640Y425450D02*
D03*
X144780Y346710D02*
D03*
Y336550D02*
D03*
X29735Y234525D02*
D03*
X60960Y294640D02*
D03*
X61341Y342900D02*
D03*
X656590Y438150D02*
D03*
X630096Y436704D02*
D03*
X605790Y436880D02*
D03*
X187325Y95250D02*
D03*
X231140Y33020D02*
D03*
X256540Y26670D02*
D03*
X267970Y20320D02*
D03*
X208035Y117085D02*
D03*
X144780Y113030D02*
D03*
X149860Y128270D02*
D03*
X228600Y58420D02*
D03*
X200660Y81355D02*
D03*
X35560Y287020D02*
D03*
X950000Y450000D02*
D03*
X975000Y400000D02*
D03*
X950000Y350000D02*
D03*
X975000Y300000D02*
D03*
X950000Y250000D02*
D03*
X925000Y400000D02*
D03*
Y300000D02*
D03*
X875000D02*
D03*
Y100000D02*
D03*
X850000Y50000D02*
D03*
X825000Y400000D02*
D03*
X800000Y350000D02*
D03*
X825000Y300000D02*
D03*
X775000Y400000D02*
D03*
Y300000D02*
D03*
Y200000D02*
D03*
X750000Y150000D02*
D03*
X775000Y100000D02*
D03*
X725000Y300000D02*
D03*
X700000Y50000D02*
D03*
X675000Y300000D02*
D03*
Y100000D02*
D03*
X650000Y50000D02*
D03*
X625000Y300000D02*
D03*
X575000Y400000D02*
D03*
X550000Y350000D02*
D03*
X575000Y300000D02*
D03*
X500000Y450000D02*
D03*
X525000Y400000D02*
D03*
X500000Y350000D02*
D03*
X525000Y300000D02*
D03*
Y200000D02*
D03*
X500000Y150000D02*
D03*
X525000Y100000D02*
D03*
X500000Y50000D02*
D03*
X450000Y450000D02*
D03*
X475000Y400000D02*
D03*
Y300000D02*
D03*
Y200000D02*
D03*
Y100000D02*
D03*
X400000Y450000D02*
D03*
X350000D02*
D03*
X300000D02*
D03*
X250000D02*
D03*
X200000Y50000D02*
D03*
X150000Y450000D02*
D03*
X125000Y100000D02*
D03*
X75000D02*
D03*
X50000Y50000D02*
D03*
X310000Y380000D02*
D03*
X300000Y360000D02*
D03*
X310000Y340000D02*
D03*
X300000Y320000D02*
D03*
X310000Y300000D02*
D03*
Y260000D02*
D03*
Y220000D02*
D03*
X300000Y200000D02*
D03*
X310000Y180000D02*
D03*
X300000Y160000D02*
D03*
X290000Y380000D02*
D03*
X280000Y360000D02*
D03*
X290000Y340000D02*
D03*
X280000Y320000D02*
D03*
Y200000D02*
D03*
X290000Y180000D02*
D03*
X280000Y160000D02*
D03*
X270000Y380000D02*
D03*
X260000Y360000D02*
D03*
X270000Y340000D02*
D03*
X260000Y320000D02*
D03*
Y200000D02*
D03*
X270000Y180000D02*
D03*
X260000Y160000D02*
D03*
X250000Y380000D02*
D03*
X240000Y360000D02*
D03*
X250000Y340000D02*
D03*
X240000Y320000D02*
D03*
Y200000D02*
D03*
X250000Y180000D02*
D03*
X240000Y160000D02*
D03*
X230000Y380000D02*
D03*
X220000Y360000D02*
D03*
X230000Y340000D02*
D03*
X220000Y320000D02*
D03*
Y200000D02*
D03*
X230000Y180000D02*
D03*
X220000Y160000D02*
D03*
X210000Y380000D02*
D03*
X200000Y360000D02*
D03*
X210000Y340000D02*
D03*
X200000Y320000D02*
D03*
X190000Y380000D02*
D03*
X180000Y360000D02*
D03*
X190000Y340000D02*
D03*
X180000Y320000D02*
D03*
X190000Y300000D02*
D03*
X180000Y280000D02*
D03*
X190000Y260000D02*
D03*
X180000Y240000D02*
D03*
X190000Y220000D02*
D03*
X170000Y380000D02*
D03*
X160000Y360000D02*
D03*
X170000Y340000D02*
D03*
X160000Y320000D02*
D03*
X170000Y300000D02*
D03*
X160000Y280000D02*
D03*
X170000Y260000D02*
D03*
X160000Y240000D02*
D03*
X170000Y220000D02*
D03*
X140000Y160000D02*
D03*
X130000Y180000D02*
D03*
X110000D02*
D03*
X90000D02*
D03*
X913130Y425450D02*
D03*
X715010Y340360D02*
D03*
X106680Y336550D02*
D03*
Y363220D02*
D03*
Y387350D02*
D03*
M02*
