G04*
G04 #@! TF.GenerationSoftware,Altium Limited,Altium Designer,26.5.0 (11)*
G04*
G04 Layer_Color=65535*
G04 Board_Origin=0|0*
%FSLAX44Y44*%
%MOMM*%
G71*
G04*
G04 #@! TF.SameCoordinates,C5EB5BBC-6793-4551-9D57-168E0CA93C56*
G04*
G04*
G04 #@! TF.FilePolarity,Positive*
G04*
G01*
G75*
%ADD10C,0.1000*%
%ADD11C,0.2000*%
%ADD12C,0.6000*%
%ADD13C,0.1524*%
%ADD14C,0.1270*%
D10*
X23002Y271260D02*
G03*
X23002Y271260I-762J0D01*
G01*
X185151Y94500D02*
G03*
X185151Y94500I-762J0D01*
G01*
X490352Y13970D02*
G03*
X490352Y13970I-5212J0D01*
G01*
X376052D02*
G03*
X376052Y13970I-5212J0D01*
G01*
X16642Y102870D02*
G03*
X16642Y102870I-5212J0D01*
G01*
Y11430D02*
G03*
X16642Y11430I-5212J0D01*
G01*
X586740Y430530D02*
Y494030D01*
X598678Y430530D02*
Y494030D01*
X586740Y430530D02*
X598678D01*
X586740Y494030D02*
X598678D01*
X97790Y121920D02*
X144780D01*
X97790Y180340D02*
X144780D01*
Y121920D02*
Y180340D01*
X97790Y121920D02*
Y180340D01*
X867410Y45466D02*
Y92710D01*
X855472Y45466D02*
Y92710D01*
X867410D01*
X855472Y45466D02*
X867410D01*
X7112Y18796D02*
Y93980D01*
X19050Y18796D02*
Y93980D01*
X7112Y18796D02*
X19050D01*
X7112Y93980D02*
X19050D01*
X403606Y102870D02*
X449580D01*
X403606Y114808D02*
X449580D01*
Y102870D02*
Y114808D01*
X403606Y102870D02*
Y114808D01*
X678180Y46736D02*
Y92710D01*
X666242Y46736D02*
Y92710D01*
X678180D01*
X666242Y46736D02*
X678180D01*
X929499Y230900D02*
Y234899D01*
X931499Y232899D02*
X927500D01*
X313549Y107710D02*
Y111709D01*
X315549Y109709D02*
X311550D01*
X38240Y291070D02*
Y287072D01*
X36241Y289071D02*
X40240D01*
X698359Y232170D02*
Y236169D01*
X700359Y234169D02*
X696360D01*
X864870Y49530D02*
X858872D01*
X860871Y51529D01*
X858872Y53529D01*
X864870D01*
X858872Y58527D02*
Y56528D01*
X859872Y55528D01*
X863870D01*
X864870Y56528D01*
Y58527D01*
X863870Y59527D01*
X859872D01*
X858872Y58527D01*
Y61526D02*
Y65525D01*
Y63526D01*
X864870D01*
X858872Y70523D02*
Y68524D01*
X859872Y67524D01*
X863870D01*
X864870Y68524D01*
Y70523D01*
X863870Y71523D01*
X859872D01*
X858872Y70523D01*
X864870Y73522D02*
X858872D01*
Y76521D01*
X859872Y77521D01*
X861871D01*
X862871Y76521D01*
Y73522D01*
Y75522D02*
X864870Y77521D01*
Y89517D02*
Y85518D01*
X860871Y89517D01*
X859872D01*
X858872Y88517D01*
Y86518D01*
X859872Y85518D01*
X675640Y50800D02*
X669642D01*
X671641Y52799D01*
X669642Y54799D01*
X675640D01*
X669642Y59797D02*
Y57798D01*
X670642Y56798D01*
X674640D01*
X675640Y57798D01*
Y59797D01*
X674640Y60797D01*
X670642D01*
X669642Y59797D01*
Y62796D02*
Y66795D01*
Y64795D01*
X675640D01*
X669642Y71793D02*
Y69794D01*
X670642Y68794D01*
X674640D01*
X675640Y69794D01*
Y71793D01*
X674640Y72793D01*
X670642D01*
X669642Y71793D01*
X675640Y74792D02*
X669642D01*
Y77791D01*
X670642Y78791D01*
X672641D01*
X673641Y77791D01*
Y74792D01*
Y76792D02*
X675640Y78791D01*
Y86788D02*
Y88788D01*
Y87788D01*
X669642D01*
X670642Y86788D01*
X407670Y105410D02*
Y111408D01*
X410669D01*
X411669Y110408D01*
Y108409D01*
X410669Y107409D01*
X407670D01*
X417667Y111408D02*
X413668D01*
Y105410D01*
X417667D01*
X413668Y108409D02*
X415667D01*
X419666Y111408D02*
Y105410D01*
X423665D01*
X425664Y111408D02*
X429663D01*
X427663D01*
Y105410D01*
X431662Y111408D02*
X433662D01*
X432662D01*
Y105410D01*
X431662D01*
X433662D01*
X440659Y111408D02*
X436661D01*
Y105410D01*
X440659D01*
X436661Y108409D02*
X438660D01*
X442659Y105410D02*
Y111408D01*
X445658D01*
X446657Y110408D01*
Y108409D01*
X445658Y107409D01*
X442659D01*
X444658D02*
X446657Y105410D01*
X486680Y14240D02*
X482681D01*
X368030Y14429D02*
X372029D01*
X370029Y16429D02*
Y12430D01*
X815529Y8890D02*
X811530D01*
X815529Y12889D01*
Y13888D01*
X814529Y14888D01*
X812530D01*
X811530Y13888D01*
X817528Y14888D02*
Y8890D01*
X820527D01*
X821527Y9890D01*
Y10889D01*
X820527Y11889D01*
X817528D01*
X820527D01*
X821527Y12889D01*
Y13888D01*
X820527Y14888D01*
X817528D01*
X786319Y8890D02*
X782320D01*
X786319Y12889D01*
Y13888D01*
X785319Y14888D01*
X783320D01*
X782320Y13888D01*
X788318Y8890D02*
Y12889D01*
X790317Y14888D01*
X792317Y12889D01*
Y8890D01*
Y11889D01*
X788318D01*
X720090Y8890D02*
X722089D01*
X721090D01*
Y14888D01*
X720090Y13888D01*
X725088Y14888D02*
Y8890D01*
X728087D01*
X729087Y9890D01*
Y10889D01*
X728087Y11889D01*
X725088D01*
X728087D01*
X729087Y12889D01*
Y13888D01*
X728087Y14888D01*
X725088D01*
X751840Y8890D02*
X753839D01*
X752840D01*
Y14888D01*
X751840Y13888D01*
X756838Y8890D02*
Y12889D01*
X758838Y14888D01*
X760837Y12889D01*
Y8890D01*
Y11889D01*
X756838D01*
X563880Y10160D02*
X565879D01*
X564880D01*
Y16158D01*
X563880Y15158D01*
X568878Y10160D02*
Y14159D01*
X570878Y16158D01*
X572877Y14159D01*
Y10160D01*
Y13159D01*
X568878D01*
X532130Y10160D02*
X534129D01*
X533130D01*
Y16158D01*
X532130Y15158D01*
X537128Y16158D02*
Y10160D01*
X540127D01*
X541127Y11160D01*
Y12159D01*
X540127Y13159D01*
X537128D01*
X540127D01*
X541127Y14159D01*
Y15158D01*
X540127Y16158D01*
X537128D01*
X598359Y10160D02*
X594360D01*
X598359Y14159D01*
Y15158D01*
X597359Y16158D01*
X595360D01*
X594360Y15158D01*
X600358Y10160D02*
Y14159D01*
X602357Y16158D01*
X604357Y14159D01*
Y10160D01*
Y13159D01*
X600358D01*
X627569Y10160D02*
X623570D01*
X627569Y14159D01*
Y15158D01*
X626569Y16158D01*
X624570D01*
X623570Y15158D01*
X629568Y16158D02*
Y10160D01*
X632567D01*
X633567Y11160D01*
Y12159D01*
X632567Y13159D01*
X629568D01*
X632567D01*
X633567Y14159D01*
Y15158D01*
X632567Y16158D01*
X629568D01*
X589632Y433070D02*
Y437069D01*
Y435069D01*
X595630D01*
X589632Y442067D02*
Y440068D01*
X590632Y439068D01*
X594630D01*
X595630Y440068D01*
Y442067D01*
X594630Y443067D01*
X590632D01*
X589632Y442067D01*
Y451064D02*
X595630D01*
Y454063D01*
X594630Y455063D01*
X593631D01*
X592631Y454063D01*
Y451064D01*
Y454063D01*
X591631Y455063D01*
X590632D01*
X589632Y454063D01*
Y451064D01*
Y460061D02*
Y458062D01*
X590632Y457062D01*
X594630D01*
X595630Y458062D01*
Y460061D01*
X594630Y461061D01*
X590632D01*
X589632Y460061D01*
X595630Y463060D02*
X591631D01*
X589632Y465060D01*
X591631Y467059D01*
X595630D01*
X592631D01*
Y463060D01*
X595630Y469058D02*
X589632D01*
Y472057D01*
X590632Y473057D01*
X592631D01*
X593631Y472057D01*
Y469058D01*
Y471058D02*
X595630Y473057D01*
X589632Y475056D02*
X595630D01*
Y478055D01*
X594630Y479055D01*
X590632D01*
X589632Y478055D01*
Y475056D01*
X595630Y487052D02*
X591631D01*
X589632Y489052D01*
X591631Y491051D01*
X595630D01*
X592631D01*
Y487052D01*
X853629Y491408D02*
X852629Y492408D01*
X850630D01*
X849630Y491408D01*
Y487410D01*
X850630Y486410D01*
X852629D01*
X853629Y487410D01*
Y489409D01*
X851629D01*
X855628Y486410D02*
Y492408D01*
X859627Y486410D01*
Y492408D01*
X861626D02*
Y486410D01*
X864625D01*
X865625Y487410D01*
Y491408D01*
X864625Y492408D01*
X861626D01*
X824230D02*
Y488409D01*
X826229Y486410D01*
X828229Y488409D01*
Y492408D01*
X830228D02*
Y486410D01*
X833227D01*
X834227Y487410D01*
Y491408D01*
X833227Y492408D01*
X830228D01*
X836226D02*
Y486410D01*
X839225D01*
X840225Y487410D01*
Y491408D01*
X839225Y492408D01*
X836226D01*
X801559Y491408D02*
X800559Y492408D01*
X798560D01*
X797560Y491408D01*
Y490409D01*
X798560Y489409D01*
X800559D01*
X801559Y488409D01*
Y487410D01*
X800559Y486410D01*
X798560D01*
X797560Y487410D01*
X803558Y492408D02*
Y486410D01*
X807557D01*
X809556D02*
Y492408D01*
X812555D01*
X813555Y491408D01*
Y489409D01*
X812555Y488409D01*
X809556D01*
X819553Y486410D02*
X815554D01*
X819553Y490409D01*
Y491408D01*
X818553Y492408D01*
X816554D01*
X815554Y491408D01*
X774889Y492408D02*
X770890D01*
Y486410D01*
X774889D01*
X770890Y489409D02*
X772889D01*
X776888Y486410D02*
Y492408D01*
X780887Y486410D01*
Y492408D01*
X782886D02*
Y486410D01*
X785885D01*
X786885Y487410D01*
Y488409D01*
X785885Y489409D01*
X782886D01*
X785885D01*
X786885Y490409D01*
Y491408D01*
X785885Y492408D01*
X782886D01*
X792883Y486410D02*
X788884D01*
X792883Y490409D01*
Y491408D01*
X791883Y492408D01*
X789884D01*
X788884Y491408D01*
X749300Y492408D02*
Y486410D01*
X752299D01*
X753299Y487410D01*
Y491408D01*
X752299Y492408D01*
X749300D01*
X755298D02*
X757297D01*
X756298D01*
Y486410D01*
X755298D01*
X757297D01*
X760296D02*
Y492408D01*
X763296D01*
X764295Y491408D01*
Y489409D01*
X763296Y488409D01*
X760296D01*
X762296D02*
X764295Y486410D01*
X726629Y491408D02*
X725629Y492408D01*
X723630D01*
X722630Y491408D01*
Y490409D01*
X723630Y489409D01*
X725629D01*
X726629Y488409D01*
Y487410D01*
X725629Y486410D01*
X723630D01*
X722630Y487410D01*
X728628Y492408D02*
Y486410D01*
X732627D01*
X734626D02*
Y492408D01*
X737625D01*
X738625Y491408D01*
Y489409D01*
X737625Y488409D01*
X734626D01*
X740624Y486410D02*
X742624D01*
X741624D01*
Y492408D01*
X740624Y491408D01*
X701229Y492408D02*
X697230D01*
Y486410D01*
X701229D01*
X697230Y489409D02*
X699229D01*
X703228Y486410D02*
Y492408D01*
X707227Y486410D01*
Y492408D01*
X709226D02*
Y486410D01*
X712225D01*
X713225Y487410D01*
Y488409D01*
X712225Y489409D01*
X709226D01*
X712225D01*
X713225Y490409D01*
Y491408D01*
X712225Y492408D01*
X709226D01*
X715224Y486410D02*
X717224D01*
X716224D01*
Y492408D01*
X715224Y491408D01*
X673289D02*
X672289Y492408D01*
X670290D01*
X669290Y491408D01*
Y490409D01*
X670290Y489409D01*
X672289D01*
X673289Y488409D01*
Y487410D01*
X672289Y486410D01*
X670290D01*
X669290Y487410D01*
X675288Y492408D02*
X679287D01*
X677287D01*
Y486410D01*
X685285Y492408D02*
X681286D01*
Y486410D01*
X685285D01*
X681286Y489409D02*
X683286D01*
X687284Y486410D02*
Y492408D01*
X690283D01*
X691283Y491408D01*
Y489409D01*
X690283Y488409D01*
X687284D01*
X647700Y486410D02*
Y492408D01*
X650699D01*
X651699Y491408D01*
Y489409D01*
X650699Y488409D01*
X647700D01*
X657697Y492408D02*
X653698D01*
Y486410D01*
X657697D01*
X653698Y489409D02*
X655697D01*
X659696Y492408D02*
Y486410D01*
X663695D01*
X114219Y174908D02*
X113219Y175908D01*
X111220D01*
X110220Y174908D01*
Y173909D01*
X111220Y172909D01*
X113219D01*
X114219Y171909D01*
Y170910D01*
X113219Y169910D01*
X111220D01*
X110220Y170910D01*
X116218Y169910D02*
Y175908D01*
X120217Y169910D01*
Y175908D01*
X122216D02*
Y169910D01*
X125215D01*
X126215Y170910D01*
Y171909D01*
X125215Y172909D01*
X122216D01*
X125215D01*
X126215Y173909D01*
Y174908D01*
X125215Y175908D01*
X122216D01*
X9890Y91710D02*
X15888D01*
Y88711D01*
X14888Y87711D01*
X12889D01*
X11889Y88711D01*
Y91710D01*
X15888Y82713D02*
Y84712D01*
X14888Y85712D01*
X10890D01*
X9890Y84712D01*
Y82713D01*
X10890Y81713D01*
X14888D01*
X15888Y82713D01*
Y79714D02*
X9890D01*
X11889Y77715D01*
X9890Y75715D01*
X15888D01*
Y69717D02*
Y73716D01*
X9890D01*
Y69717D01*
X12889Y73716D02*
Y71716D01*
X9890Y67718D02*
X15888D01*
Y64719D01*
X14888Y63719D01*
X12889D01*
X11889Y64719D01*
Y67718D01*
Y65718D02*
X9890Y63719D01*
X14888Y51723D02*
X15888Y52723D01*
Y54722D01*
X14888Y55722D01*
X13889D01*
X12889Y54722D01*
Y52723D01*
X11889Y51723D01*
X10890D01*
X9890Y52723D01*
Y54722D01*
X10890Y55722D01*
X15888Y49724D02*
X10890D01*
X9890Y48724D01*
Y46725D01*
X10890Y45725D01*
X15888D01*
X9890Y43726D02*
X15888D01*
Y40726D01*
X14888Y39727D01*
X12889D01*
X11889Y40726D01*
Y43726D01*
X9890Y37727D02*
X15888D01*
Y34728D01*
X14888Y33729D01*
X12889D01*
X11889Y34728D01*
Y37727D01*
X15888Y31729D02*
X9890D01*
Y27731D01*
X15888Y25731D02*
X14888D01*
X12889Y23732D01*
X14888Y21733D01*
X15888D01*
X12889Y23732D02*
X9890D01*
X11889Y105680D02*
Y101681D01*
X13889Y103681D02*
X9890D01*
X11700Y9890D02*
Y13889D01*
X129729Y329741D02*
Y334739D01*
X128729Y335739D01*
X126730D01*
X125730Y334739D01*
Y329741D01*
X123731Y335739D02*
X121731D01*
X122731D01*
Y329741D01*
X123731Y330741D01*
X125852Y158291D02*
Y164289D01*
X128851D01*
X129851Y163289D01*
Y161290D01*
X128851Y160290D01*
X125852D01*
X127852D02*
X129851Y158291D01*
X131851D02*
X133850D01*
X132850D01*
Y164289D01*
X131851Y163289D01*
X140848Y158291D02*
X136849D01*
X140848Y162290D01*
Y163289D01*
X139848Y164289D01*
X137849D01*
X136849Y163289D01*
X833579Y402713D02*
X827581D01*
Y405712D01*
X828581Y406711D01*
X830580D01*
X831580Y405712D01*
Y402713D01*
Y404712D02*
X833579Y406711D01*
Y408711D02*
Y410710D01*
Y409710D01*
X827581D01*
X828581Y408711D01*
Y413709D02*
X827581Y414709D01*
Y416708D01*
X828581Y417708D01*
X832579D01*
X833579Y416708D01*
Y414709D01*
X832579Y413709D01*
X828581D01*
X858979Y405212D02*
X852981D01*
Y408211D01*
X853981Y409210D01*
X855980D01*
X856980Y408211D01*
Y405212D01*
Y407211D02*
X858979Y409210D01*
X857979Y411210D02*
X858979Y412209D01*
Y414209D01*
X857979Y415208D01*
X853981D01*
X852981Y414209D01*
Y412209D01*
X853981Y411210D01*
X854980D01*
X855980Y412209D01*
Y415208D01*
X884379Y405212D02*
X878381D01*
Y408211D01*
X879381Y409210D01*
X881380D01*
X882380Y408211D01*
Y405212D01*
Y407211D02*
X884379Y409210D01*
X879381Y411210D02*
X878381Y412209D01*
Y414209D01*
X879381Y415208D01*
X880380D01*
X881380Y414209D01*
X882380Y415208D01*
X883379D01*
X884379Y414209D01*
Y412209D01*
X883379Y411210D01*
X882380D01*
X881380Y412209D01*
X880380Y411210D01*
X879381D01*
X881380Y412209D02*
Y414209D01*
X594819Y405212D02*
X588821D01*
Y408211D01*
X589821Y409210D01*
X591820D01*
X592820Y408211D01*
Y405212D01*
Y407211D02*
X594819Y409210D01*
X589821Y411210D02*
X588821Y412209D01*
Y414209D01*
X589821Y415208D01*
X590820D01*
X591820Y414209D01*
Y413209D01*
Y414209D01*
X592820Y415208D01*
X593819D01*
X594819Y414209D01*
Y412209D01*
X593819Y411210D01*
X621489Y406482D02*
X615491D01*
Y409481D01*
X616491Y410480D01*
X618490D01*
X619490Y409481D01*
Y406482D01*
Y408481D02*
X621489Y410480D01*
Y416478D02*
Y412480D01*
X617490Y416478D01*
X616491D01*
X615491Y415479D01*
Y413479D01*
X616491Y412480D01*
X646889Y406211D02*
X640891D01*
Y409210D01*
X641891Y410210D01*
X643890D01*
X644890Y409210D01*
Y406211D01*
Y408211D02*
X646889Y410210D01*
Y412209D02*
Y414209D01*
Y413209D01*
X640891D01*
X641891Y412209D01*
X835782Y324881D02*
Y330879D01*
X838782D01*
X839781Y329879D01*
Y327880D01*
X838782Y326880D01*
X835782D01*
X837782D02*
X839781Y324881D01*
X841780D02*
X843780D01*
X842780D01*
Y330879D01*
X841780Y329879D01*
X850778Y330879D02*
X846779D01*
Y327880D01*
X848778Y328880D01*
X849778D01*
X850778Y327880D01*
Y325881D01*
X849778Y324881D01*
X847778D01*
X846779Y325881D01*
X861182Y324661D02*
Y330659D01*
X864182D01*
X865181Y329659D01*
Y327660D01*
X864182Y326660D01*
X861182D01*
X863182D02*
X865181Y324661D01*
X867180D02*
X869180D01*
X868180D01*
Y330659D01*
X867180Y329659D01*
X875178Y324661D02*
Y330659D01*
X872179Y327660D01*
X876178D01*
X886582Y324881D02*
Y330879D01*
X889582D01*
X890581Y329879D01*
Y327880D01*
X889582Y326880D01*
X886582D01*
X888582D02*
X890581Y324881D01*
X892580D02*
X894580D01*
X893580D01*
Y330879D01*
X892580Y329879D01*
X897579D02*
X898578Y330879D01*
X900578D01*
X901578Y329879D01*
Y328880D01*
X900578Y327880D01*
X899578D01*
X900578D01*
X901578Y326880D01*
Y325881D01*
X900578Y324881D01*
X898578D01*
X897579Y325881D01*
X95102Y229411D02*
Y235409D01*
X98101D01*
X99101Y234409D01*
Y232410D01*
X98101Y231410D01*
X95102D01*
X97101D02*
X99101Y229411D01*
X101100D02*
X103099D01*
X102100D01*
Y235409D01*
X101100Y234409D01*
X106098Y229411D02*
X108098D01*
X107098D01*
Y235409D01*
X106098Y234409D01*
X600792Y324661D02*
Y330659D01*
X603791D01*
X604790Y329659D01*
Y327660D01*
X603791Y326660D01*
X600792D01*
X602791D02*
X604790Y324661D01*
X606790Y330659D02*
X610788D01*
Y329659D01*
X606790Y325661D01*
Y324661D01*
X626192D02*
Y330659D01*
X629191D01*
X630190Y329659D01*
Y327660D01*
X629191Y326660D01*
X626192D01*
X628191D02*
X630190Y324661D01*
X636188Y330659D02*
X634189Y329659D01*
X632190Y327660D01*
Y325661D01*
X633189Y324661D01*
X635189D01*
X636188Y325661D01*
Y326660D01*
X635189Y327660D01*
X632190D01*
X651592Y323391D02*
Y329389D01*
X654591D01*
X655590Y328389D01*
Y326390D01*
X654591Y325390D01*
X651592D01*
X653591D02*
X655590Y323391D01*
X661588Y329389D02*
X657590D01*
Y326390D01*
X659589Y327390D01*
X660589D01*
X661588Y326390D01*
Y324391D01*
X660589Y323391D01*
X658589D01*
X657590Y324391D01*
X707472Y289101D02*
Y295099D01*
X710471D01*
X711470Y294099D01*
Y292100D01*
X710471Y291100D01*
X707472D01*
X709471D02*
X711470Y289101D01*
X716469D02*
Y295099D01*
X713470Y292100D01*
X717468D01*
X86901Y167640D02*
X90899D01*
X91899Y168639D01*
Y170639D01*
X90899Y171638D01*
X86901D01*
X85901Y170639D01*
Y168639D01*
X87900Y169639D02*
X85901Y167640D01*
Y168639D02*
X86901Y167640D01*
X85901Y161642D02*
Y165640D01*
X89900Y161642D01*
X90899D01*
X91899Y162641D01*
Y164641D01*
X90899Y165640D01*
X221251Y45720D02*
X225249D01*
X226249Y46720D01*
Y48719D01*
X225249Y49719D01*
X221251D01*
X220251Y48719D01*
Y46720D01*
X222250Y47719D02*
X220251Y45720D01*
Y46720D02*
X221251Y45720D01*
X220251Y43721D02*
Y41721D01*
Y42721D01*
X226249D01*
X225249Y43721D01*
X730332Y399591D02*
Y405589D01*
X733331D01*
X734330Y404589D01*
Y402590D01*
X733331Y401590D01*
X730332D01*
X740328Y399591D02*
X736330D01*
X740328Y403590D01*
Y404589D01*
X739329Y405589D01*
X737329D01*
X736330Y404589D01*
X492571Y399591D02*
Y405589D01*
X495570D01*
X496570Y404589D01*
Y402590D01*
X495570Y401590D01*
X492571D01*
X498569Y399591D02*
X500569D01*
X499569D01*
Y405589D01*
X498569Y404589D01*
X190041Y266511D02*
X196039D01*
Y270510D01*
Y272509D02*
Y274509D01*
Y273509D01*
X190041D01*
X191041Y272509D01*
X700040Y128729D02*
X698041D01*
X699041D01*
Y123731D01*
X698041Y122731D01*
X697041D01*
X696042Y123731D01*
X706038Y128729D02*
X702040D01*
Y125730D01*
X704039Y126730D01*
X705039D01*
X706038Y125730D01*
Y123731D01*
X705039Y122731D01*
X703039D01*
X702040Y123731D01*
X440960Y95709D02*
X438961D01*
X439961D01*
Y90711D01*
X438961Y89711D01*
X437961D01*
X436962Y90711D01*
X445959Y89711D02*
Y95709D01*
X442960Y92710D01*
X446958D01*
X509540Y131269D02*
X507541D01*
X508541D01*
Y126271D01*
X507541Y125271D01*
X506541D01*
X505542Y126271D01*
X511540Y130269D02*
X512539Y131269D01*
X514539D01*
X515538Y130269D01*
Y129270D01*
X514539Y128270D01*
X513539D01*
X514539D01*
X515538Y127270D01*
Y126271D01*
X514539Y125271D01*
X512539D01*
X511540Y126271D01*
X607871Y471440D02*
Y469441D01*
Y470441D01*
X612869D01*
X613869Y469441D01*
Y468441D01*
X612869Y467442D01*
X613869Y477438D02*
Y473440D01*
X609870Y477438D01*
X608871D01*
X607871Y476439D01*
Y474439D01*
X608871Y473440D01*
X56660Y114799D02*
X54661D01*
X55660D01*
Y109801D01*
X54661Y108801D01*
X53661D01*
X52661Y109801D01*
X58659Y108801D02*
X60659D01*
X59659D01*
Y114799D01*
X58659Y113799D01*
X153924Y204372D02*
Y198374D01*
X156923D01*
X157923Y199374D01*
Y203372D01*
X156923Y204372D01*
X153924D01*
X159922Y198374D02*
X161921D01*
X160922D01*
Y204372D01*
X159922Y203372D01*
X780289Y286709D02*
X781289Y287708D01*
Y289708D01*
X780289Y290707D01*
X776291D01*
X775291Y289708D01*
Y287708D01*
X776291Y286709D01*
X775291Y284709D02*
Y282710D01*
Y283710D01*
X781289D01*
X780289Y284709D01*
X781289Y275712D02*
Y279711D01*
X778290D01*
X779290Y277712D01*
Y276712D01*
X778290Y275712D01*
X776291D01*
X775291Y276712D01*
Y278711D01*
X776291Y279711D01*
X541749Y280400D02*
X542749Y281399D01*
Y283399D01*
X541749Y284398D01*
X537751D01*
X536751Y283399D01*
Y281399D01*
X537751Y280400D01*
X542749Y274402D02*
X541749Y276401D01*
X539750Y278400D01*
X537751D01*
X536751Y277401D01*
Y275401D01*
X537751Y274402D01*
X538750D01*
X539750Y275401D01*
Y278400D01*
X105721Y163289D02*
X104721Y164289D01*
X102722D01*
X101722Y163289D01*
Y159291D01*
X102722Y158291D01*
X104721D01*
X105721Y159291D01*
X107720Y158291D02*
X109720D01*
X108720D01*
Y164289D01*
X107720Y163289D01*
X112719D02*
X113719Y164289D01*
X115718D01*
X116718Y163289D01*
Y159291D01*
X115718Y158291D01*
X113719D01*
X112719Y159291D01*
Y163289D01*
X643161Y278441D02*
X642161Y277442D01*
Y275442D01*
X643161Y274443D01*
X647159D01*
X648159Y275442D01*
Y277442D01*
X647159Y278441D01*
X648159Y280441D02*
Y282440D01*
Y281440D01*
X642161D01*
X643161Y280441D01*
X648159Y288438D02*
X642161D01*
X645160Y285439D01*
Y289438D01*
X890581Y231869D02*
X889582Y232869D01*
X887582D01*
X886582Y231869D01*
Y227871D01*
X887582Y226871D01*
X889582D01*
X890581Y227871D01*
X892580Y226871D02*
X894580D01*
X893580D01*
Y232869D01*
X892580Y231869D01*
X897579D02*
X898578Y232869D01*
X900578D01*
X901578Y231869D01*
Y230870D01*
X900578Y229870D01*
X899578D01*
X900578D01*
X901578Y228870D01*
Y227871D01*
X900578Y226871D01*
X898578D01*
X897579Y227871D01*
X356043Y86278D02*
X355043Y87278D01*
X353044D01*
X352044Y86278D01*
Y82280D01*
X353044Y81280D01*
X355043D01*
X356043Y82280D01*
X358042Y81280D02*
X360041D01*
X359042D01*
Y87278D01*
X358042Y86278D01*
X367039Y81280D02*
X363040D01*
X367039Y85279D01*
Y86278D01*
X366040Y87278D01*
X364040D01*
X363040Y86278D01*
X274361Y111600D02*
X273361Y112600D01*
X271362D01*
X270362Y111600D01*
Y107602D01*
X271362Y106602D01*
X273361D01*
X274361Y107602D01*
X276360Y106602D02*
X278360D01*
X277360D01*
Y112600D01*
X276360Y111600D01*
X281359Y106602D02*
X283358D01*
X282358D01*
Y112600D01*
X281359Y111600D01*
X20861Y246650D02*
X19861Y245651D01*
Y243651D01*
X20861Y242652D01*
X24859D01*
X25859Y243651D01*
Y245651D01*
X24859Y246650D01*
Y248650D02*
X25859Y249649D01*
Y251649D01*
X24859Y252648D01*
X20861D01*
X19861Y251649D01*
Y249649D01*
X20861Y248650D01*
X21860D01*
X22860Y249649D01*
Y252648D01*
X70120Y385539D02*
X69121Y386539D01*
X67121D01*
X66122Y385539D01*
Y381541D01*
X67121Y380541D01*
X69121D01*
X70120Y381541D01*
X72120Y385539D02*
X73119Y386539D01*
X75119D01*
X76118Y385539D01*
Y384540D01*
X75119Y383540D01*
X76118Y382540D01*
Y381541D01*
X75119Y380541D01*
X73119D01*
X72120Y381541D01*
Y382540D01*
X73119Y383540D01*
X72120Y384540D01*
Y385539D01*
X73119Y383540D02*
X75119D01*
X78580Y271510D02*
X79580Y272509D01*
Y274509D01*
X78580Y275508D01*
X74582D01*
X73582Y274509D01*
Y272509D01*
X74582Y271510D01*
X79580Y269510D02*
Y265512D01*
X78580D01*
X74582Y269510D01*
X73582D01*
X884351Y283480D02*
X883351Y282481D01*
Y280481D01*
X884351Y279482D01*
X888349D01*
X889349Y280481D01*
Y282481D01*
X888349Y283480D01*
X883351Y289478D02*
Y285480D01*
X886350D01*
X885350Y287479D01*
Y288479D01*
X886350Y289478D01*
X888349D01*
X889349Y288479D01*
Y286479D01*
X888349Y285480D01*
X663210Y231869D02*
X662211Y232869D01*
X660211D01*
X659212Y231869D01*
Y227871D01*
X660211Y226871D01*
X662211D01*
X663210Y227871D01*
X668209Y226871D02*
Y232869D01*
X665210Y229870D01*
X669208D01*
X233139Y97520D02*
X234139Y98519D01*
Y100519D01*
X233139Y101518D01*
X229141D01*
X228141Y100519D01*
Y98519D01*
X229141Y97520D01*
X233139Y95520D02*
X234139Y94521D01*
Y92521D01*
X233139Y91522D01*
X232140D01*
X231140Y92521D01*
Y93521D01*
Y92521D01*
X230140Y91522D01*
X229141D01*
X228141Y92521D01*
Y94521D01*
X229141Y95520D01*
X244840Y66581D02*
X245839Y65581D01*
X247839D01*
X248838Y66581D01*
Y70579D01*
X247839Y71579D01*
X245839D01*
X244840Y70579D01*
X238842Y71579D02*
X242840D01*
X238842Y67580D01*
Y66581D01*
X239841Y65581D01*
X241841D01*
X242840Y66581D01*
X132809Y95250D02*
X133809Y96250D01*
Y98249D01*
X132809Y99249D01*
X128811D01*
X127811Y98249D01*
Y96250D01*
X128811Y95250D01*
X127811Y93251D02*
Y91251D01*
Y92251D01*
X133809D01*
X132809Y93251D01*
D11*
X224660Y31450D02*
G03*
X224660Y31450I-1000J0D01*
G01*
X151780Y324030D02*
G03*
X151780Y324030I-1000J0D01*
G01*
X59720Y231550D02*
G03*
X59720Y231550I-1000J0D01*
G01*
X818530Y124220D02*
G03*
X818530Y124220I-1000J0D01*
G01*
X630560Y125490D02*
G03*
X630560Y125490I-1000J0D01*
G01*
X187780Y116710D02*
G03*
X187780Y116710I-1000J0D01*
G01*
X728980Y241720D02*
X932180D01*
Y394970D01*
X728980D02*
X932180D01*
X728980Y241720D02*
Y394970D01*
X491740Y241250D02*
X694940D01*
Y394500D01*
X491740D02*
X694940D01*
X491740Y241250D02*
Y394500D01*
X457380Y309700D02*
Y317700D01*
X429880D02*
X457380D01*
X429880D02*
Y407700D01*
X385380D02*
X429880D01*
X385380Y399700D02*
Y407700D01*
X277380Y399700D02*
X385380D01*
X277380D02*
Y407700D01*
X232880D02*
X277380D01*
X232880Y317700D02*
Y407700D01*
X205380Y317700D02*
X232880D01*
X205380Y309700D02*
Y317700D01*
X457380Y215700D02*
Y223700D01*
X429880Y215700D02*
X457380D01*
X429880Y125700D02*
Y215700D01*
X385380Y125700D02*
X429880D01*
X385380D02*
Y133700D01*
X277380D02*
X385380D01*
X277380Y125700D02*
Y133700D01*
X232880Y125700D02*
X277380D01*
X232880D02*
Y215700D01*
X205380D02*
X232880D01*
X205380D02*
Y223700D01*
X718220Y269510D02*
Y271510D01*
X706720Y269510D02*
Y271510D01*
X888330Y415560D02*
Y417560D01*
X899830Y415560D02*
Y417560D01*
X862930Y415560D02*
Y417560D01*
X874430Y415560D02*
Y417560D01*
X837530Y415560D02*
Y417560D01*
X849030Y415560D02*
Y417560D01*
X837530Y348360D02*
Y350360D01*
X849030Y348360D02*
Y350360D01*
X862930Y348250D02*
Y350250D01*
X874430Y348250D02*
Y350250D01*
X888330Y348360D02*
Y350360D01*
X899830Y348360D02*
Y350360D01*
X600040Y348250D02*
Y350250D01*
X611540Y348250D02*
Y350250D01*
X625440Y348250D02*
Y350250D01*
X636940Y348250D02*
Y350250D01*
X650840Y348250D02*
Y350250D01*
X662340Y348250D02*
Y350250D01*
X601310Y415560D02*
Y417560D01*
X612810Y415560D02*
Y417560D01*
X625440Y415560D02*
Y417560D01*
X636940Y415560D02*
Y417560D01*
X650840Y415560D02*
Y417560D01*
X662340Y415560D02*
Y417560D01*
X908320Y278730D02*
X910320D01*
X908320Y290230D02*
X910320D01*
X669560Y285150D02*
X671560D01*
X669560Y273650D02*
X671560D01*
X515890D02*
X517890D01*
X515890Y285150D02*
X517890D01*
X94580Y209820D02*
Y211820D01*
X106080Y209820D02*
Y211820D01*
X44720Y252130D02*
X46720D01*
X44720Y240630D02*
X46720D01*
X754540Y276190D02*
X756540D01*
X754540Y287690D02*
X756540D01*
X127600Y139970D02*
Y141970D01*
X139100Y139970D02*
Y141970D01*
X114970Y139970D02*
Y141970D01*
X103470Y139970D02*
Y141970D01*
X208550Y89500D02*
X210550D01*
X208550Y101000D02*
X210550D01*
X238090Y44720D02*
Y46720D01*
X249590Y44720D02*
Y46720D01*
X354930Y57420D02*
Y59420D01*
X366430Y57420D02*
Y59420D01*
D12*
X256880Y206950D02*
G03*
X256880Y206950I-3000J0D01*
G01*
D13*
X41684Y280543D02*
X52297D01*
X41684Y260477D02*
X52297D01*
X885444Y148844D02*
Y219456D01*
Y148844D02*
X911073D01*
X956056D02*
Y219456D01*
X930427D02*
X956056D01*
X885444D02*
X911073D01*
X930427Y148844D02*
X956056D01*
X269494Y25654D02*
Y96266D01*
Y25654D02*
X295123D01*
X340106D02*
Y96266D01*
X314477D02*
X340106D01*
X269494D02*
X295123D01*
X314477Y25654D02*
X340106D01*
X82296Y302514D02*
Y373126D01*
X56667D02*
X82296D01*
X11684Y302514D02*
Y373126D01*
Y302514D02*
X37313D01*
X56667D02*
X82296D01*
X11684Y373126D02*
X37313D01*
X654304Y150114D02*
Y220726D01*
Y150114D02*
X679933D01*
X724916D02*
Y220726D01*
X699287D02*
X724916D01*
X654304D02*
X679933D01*
X699287Y150114D02*
X724916D01*
X154333Y85217D02*
X164946D01*
X154333Y105283D02*
X164946D01*
D14*
X127150Y10450D02*
Y15990D01*
Y10450D02*
X189350D01*
X127150Y72910D02*
Y78450D01*
X189350D01*
Y10450D02*
Y78450D01*
X150980Y269580D02*
Y309480D01*
X100480Y269580D02*
Y309480D01*
X74180Y135040D02*
X79720D01*
Y197240D01*
X11720Y135040D02*
X17260D01*
X11720D02*
Y197240D01*
X79720D01*
X693280Y18770D02*
X849780D01*
Y117770D01*
X693280Y18770D02*
Y117770D01*
X715430D01*
X827630D02*
X849780D01*
X379690Y8400D02*
X476290D01*
Y38400D01*
Y63400D02*
Y79400D01*
X452890D02*
X476290D01*
X379690D02*
X403090D01*
X379690Y63400D02*
Y79400D01*
Y8400D02*
Y38400D01*
X505310Y20040D02*
X661810D01*
Y119040D01*
X505310Y20040D02*
Y119040D01*
X527460D01*
X639660D02*
X661810D01*
X619720Y434960D02*
X894120D01*
Y442460D01*
X619720Y434960D02*
Y442460D01*
Y483460D02*
X894120D01*
Y466860D02*
Y483460D01*
X619720Y466860D02*
Y483460D01*
X19830Y7580D02*
Y104180D01*
Y7580D02*
X49830D01*
X74830D02*
X90830D01*
Y30980D01*
Y80780D02*
Y104180D01*
X74830D02*
X90830D01*
X19830D02*
X49830D01*
X199390Y120650D02*
Y191770D01*
X153670Y120650D02*
X199390D01*
X153670D02*
Y191770D01*
X199390D01*
M02*
