G04*
G04 #@! TF.GenerationSoftware,Altium Limited,Altium Designer,26.5.0 (11)*
G04*
G04 Layer_Color=8421504*
G04 Board_Origin=0|0*
%FSLAX44Y44*%
%MOMM*%
G71*
G04*
G04 #@! TF.SameCoordinates,52669DA5-AB40-4F9A-B776-9572E9AFDC63*
G04*
G04*
G04 #@! TF.FilePolarity,Positive*
G04*
G01*
G75*
%ADD15R,1.1938X1.7526*%
%ADD16R,1.2700X3.3020*%
G04:AMPARAMS|DCode=17|XSize=3.02mm|YSize=0.97mm|CornerRadius=0.2425mm|HoleSize=0mm|Usage=FLASHONLY|Rotation=0.000|XOffset=0mm|YOffset=0mm|HoleType=Round|Shape=RoundedRectangle|*
%AMROUNDEDRECTD17*
21,1,3.0200,0.4850,0,0,0.0*
21,1,2.5350,0.9700,0,0,0.0*
1,1,0.4850,1.2675,-0.2425*
1,1,0.4850,-1.2675,-0.2425*
1,1,0.4850,-1.2675,0.2425*
1,1,0.4850,1.2675,0.2425*
%
%ADD17ROUNDEDRECTD17*%
%ADD18R,1.5000X1.2000*%
%ADD19R,1.3500X1.0000*%
%ADD20R,1.0000X1.3500*%
G04:AMPARAMS|DCode=21|XSize=1.58mm|YSize=0.6mm|CornerRadius=0.075mm|HoleSize=0mm|Usage=FLASHONLY|Rotation=270.000|XOffset=0mm|YOffset=0mm|HoleType=Round|Shape=RoundedRectangle|*
%AMROUNDEDRECTD21*
21,1,1.5800,0.4500,0,0,270.0*
21,1,1.4300,0.6000,0,0,270.0*
1,1,0.1500,-0.2250,-0.7150*
1,1,0.1500,-0.2250,0.7150*
1,1,0.1500,0.2250,0.7150*
1,1,0.1500,0.2250,-0.7150*
%
%ADD21ROUNDEDRECTD21*%
G04:AMPARAMS|DCode=22|XSize=3.02mm|YSize=0.97mm|CornerRadius=0.2425mm|HoleSize=0mm|Usage=FLASHONLY|Rotation=90.000|XOffset=0mm|YOffset=0mm|HoleType=Round|Shape=RoundedRectangle|*
%AMROUNDEDRECTD22*
21,1,3.0200,0.4850,0,0,90.0*
21,1,2.5350,0.9700,0,0,90.0*
1,1,0.4850,0.2425,1.2675*
1,1,0.4850,0.2425,-1.2675*
1,1,0.4850,-0.2425,-1.2675*
1,1,0.4850,-0.2425,1.2675*
%
%ADD22ROUNDEDRECTD22*%
%ADD23R,8.5000X8.0000*%
%ADD24R,4.1500X4.6500*%
G36*
X173410Y48550D02*
X157810D01*
Y65750D01*
X173410D01*
Y48550D01*
D02*
G37*
G36*
X152310D02*
X136710D01*
Y65750D01*
X152310D01*
Y48550D01*
D02*
G37*
G36*
X131210D02*
X115610D01*
Y65750D01*
X131210D01*
Y48550D01*
D02*
G37*
G36*
X173410Y23150D02*
X157810D01*
Y40350D01*
X173410D01*
Y23150D01*
D02*
G37*
G36*
X152310D02*
X136710D01*
Y40350D01*
X152310D01*
Y23150D01*
D02*
G37*
G36*
X131210D02*
X115610D01*
Y40350D01*
X131210D01*
Y23150D01*
D02*
G37*
G36*
X67020Y165700D02*
X49820D01*
Y181300D01*
X67020D01*
Y165700D01*
D02*
G37*
G36*
X41620D02*
X24420D01*
Y181300D01*
X41620D01*
Y165700D01*
D02*
G37*
G36*
X67020Y144600D02*
X49820D01*
Y160200D01*
X67020D01*
Y144600D01*
D02*
G37*
G36*
X41620D02*
X24420D01*
Y160200D01*
X41620D01*
Y144600D01*
D02*
G37*
G36*
X67020Y123500D02*
X49820D01*
Y139100D01*
X67020D01*
Y123500D01*
D02*
G37*
G36*
X41620D02*
X24420D01*
Y139100D01*
X41620D01*
Y123500D01*
D02*
G37*
D15*
X61341Y270510D02*
D03*
X32639D02*
D03*
X145288Y95250D02*
D03*
X173990D02*
D03*
D16*
X920750Y213741D02*
D03*
Y154559D02*
D03*
X304800Y90551D02*
D03*
Y31369D02*
D03*
X46990Y308229D02*
D03*
Y367411D02*
D03*
X689610Y215011D02*
D03*
Y155829D02*
D03*
D17*
X209810Y21590D02*
D03*
Y67310D02*
D03*
D18*
X166680Y128710D02*
D03*
X186380D02*
D03*
D19*
X243840Y54720D02*
D03*
X360680Y67420D02*
D03*
X133350Y131970D02*
D03*
X712470Y261510D02*
D03*
X243840Y36720D02*
D03*
X712470Y279510D02*
D03*
X605790Y340250D02*
D03*
X631190D02*
D03*
X656590D02*
D03*
X843280Y340360D02*
D03*
X868680Y340250D02*
D03*
X894080Y340360D02*
D03*
X607060Y425560D02*
D03*
X631190D02*
D03*
X656590D02*
D03*
X843280D02*
D03*
X868680D02*
D03*
X894080D02*
D03*
X109220Y131970D02*
D03*
X360680Y49420D02*
D03*
X894080Y407560D02*
D03*
X868680D02*
D03*
X843280D02*
D03*
Y358360D02*
D03*
X868680Y358250D02*
D03*
X894080Y358360D02*
D03*
X605790Y358250D02*
D03*
X631190D02*
D03*
X656590D02*
D03*
X607060Y407560D02*
D03*
X631190D02*
D03*
X656590D02*
D03*
X100330Y201820D02*
D03*
Y219820D02*
D03*
X133350Y149970D02*
D03*
X109220Y149970D02*
D03*
D20*
X200550Y95250D02*
D03*
X36720Y246380D02*
D03*
X661560Y279400D02*
D03*
X900320Y284480D02*
D03*
X918320D02*
D03*
X679560Y279400D02*
D03*
X218550Y95250D02*
D03*
X54720Y246380D02*
D03*
X507890Y279400D02*
D03*
X746540Y281940D02*
D03*
X525890Y279400D02*
D03*
X764540Y281940D02*
D03*
D21*
X144780Y316230D02*
D03*
Y262830D02*
D03*
X132080Y316230D02*
D03*
X119380D02*
D03*
X106680D02*
D03*
Y262830D02*
D03*
X119380D02*
D03*
X132080D02*
D03*
D22*
X22860Y217700D02*
D03*
X68580D02*
D03*
D23*
X416380Y266700D02*
D03*
X246380D02*
D03*
D24*
X176530Y166210D02*
D03*
M02*
