G04*
G04 #@! TF.GenerationSoftware,Altium Limited,Altium Designer,26.5.0 (11)*
G04*
G04 Layer_Color=8388736*
G04 Board_Origin=0|0*
%FSLAX44Y44*%
%MOMM*%
G71*
G04*
G04 #@! TF.SameCoordinates,BC6104D5-41E2-4C6E-88F8-FE8CE136CD12*
G04*
G04*
G04 #@! TF.FilePolarity,Negative*
G04*
G01*
G75*
%ADD15R,1.1938X1.7526*%
%ADD16R,1.2700X3.3020*%
G04:AMPARAMS|DCode=25|XSize=3.12mm|YSize=1.07mm|CornerRadius=0.2925mm|HoleSize=0mm|Usage=FLASHONLY|Rotation=0.000|XOffset=0mm|YOffset=0mm|HoleType=Round|Shape=RoundedRectangle|*
%AMROUNDEDRECTD25*
21,1,3.1200,0.4850,0,0,0.0*
21,1,2.5350,1.0700,0,0,0.0*
1,1,0.5850,1.2675,-0.2425*
1,1,0.5850,-1.2675,-0.2425*
1,1,0.5850,-1.2675,0.2425*
1,1,0.5850,1.2675,0.2425*
%
%ADD25ROUNDEDRECTD25*%
%ADD26R,1.6000X1.3000*%
%ADD27R,1.4500X1.1000*%
%ADD28R,1.1000X1.4500*%
G04:AMPARAMS|DCode=29|XSize=1.68mm|YSize=0.7mm|CornerRadius=0.125mm|HoleSize=0mm|Usage=FLASHONLY|Rotation=270.000|XOffset=0mm|YOffset=0mm|HoleType=Round|Shape=RoundedRectangle|*
%AMROUNDEDRECTD29*
21,1,1.6800,0.4500,0,0,270.0*
21,1,1.4300,0.7000,0,0,270.0*
1,1,0.2500,-0.2250,-0.7150*
1,1,0.2500,-0.2250,0.7150*
1,1,0.2500,0.2250,0.7150*
1,1,0.2500,0.2250,-0.7150*
%
%ADD29ROUNDEDRECTD29*%
G04:AMPARAMS|DCode=30|XSize=3.12mm|YSize=1.07mm|CornerRadius=0.2925mm|HoleSize=0mm|Usage=FLASHONLY|Rotation=90.000|XOffset=0mm|YOffset=0mm|HoleType=Round|Shape=RoundedRectangle|*
%AMROUNDEDRECTD30*
21,1,3.1200,0.4850,0,0,90.0*
21,1,2.5350,1.0700,0,0,90.0*
1,1,0.5850,0.2425,1.2675*
1,1,0.5850,0.2425,-1.2675*
1,1,0.5850,-0.2425,-1.2675*
1,1,0.5850,-0.2425,1.2675*
%
%ADD30ROUNDEDRECTD30*%
%ADD31R,6.4200X5.1900*%
%ADD32R,5.1900X6.4200*%
%ADD33R,8.7040X8.2040*%
%ADD34R,4.2500X4.7500*%
%ADD35C,1.6240*%
%ADD36C,1.9000*%
%ADD37R,1.9000X1.9000*%
%ADD38R,1.6240X1.6240*%
%ADD39R,1.6724X1.6724*%
%ADD40C,1.6724*%
%ADD41C,3.1524*%
%ADD42R,1.9000X1.9000*%
%ADD43C,6.6000*%
%ADD44C,0.7000*%
D15*
X61341Y270510D02*
D03*
X32639D02*
D03*
X145288Y95250D02*
D03*
X173990D02*
D03*
D16*
X920750Y213741D02*
D03*
Y154559D02*
D03*
X304800Y90551D02*
D03*
Y31369D02*
D03*
X46990Y308229D02*
D03*
Y367411D02*
D03*
X689610Y215011D02*
D03*
Y155829D02*
D03*
D25*
X209810Y21590D02*
D03*
Y67310D02*
D03*
D26*
X166680Y128710D02*
D03*
X186380D02*
D03*
D27*
X243840Y54720D02*
D03*
X360680Y67420D02*
D03*
X133350Y131970D02*
D03*
X712470Y261510D02*
D03*
X243840Y36720D02*
D03*
X712470Y279510D02*
D03*
X605790Y340250D02*
D03*
X631190D02*
D03*
X656590D02*
D03*
X843280Y340360D02*
D03*
X868680Y340250D02*
D03*
X894080Y340360D02*
D03*
X607060Y425560D02*
D03*
X631190D02*
D03*
X656590D02*
D03*
X843280D02*
D03*
X868680D02*
D03*
X894080D02*
D03*
X109220Y131970D02*
D03*
X360680Y49420D02*
D03*
X894080Y407560D02*
D03*
X868680D02*
D03*
X843280D02*
D03*
Y358360D02*
D03*
X868680Y358250D02*
D03*
X894080Y358360D02*
D03*
X605790Y358250D02*
D03*
X631190D02*
D03*
X656590D02*
D03*
X607060Y407560D02*
D03*
X631190D02*
D03*
X656590D02*
D03*
X100330Y201820D02*
D03*
Y219820D02*
D03*
X133350Y149970D02*
D03*
X109220Y149970D02*
D03*
D28*
X200550Y95250D02*
D03*
X36720Y246380D02*
D03*
X661560Y279400D02*
D03*
X900320Y284480D02*
D03*
X918320D02*
D03*
X679560Y279400D02*
D03*
X218550Y95250D02*
D03*
X54720Y246380D02*
D03*
X507890Y279400D02*
D03*
X746540Y281940D02*
D03*
X525890Y279400D02*
D03*
X764540Y281940D02*
D03*
D29*
X144780Y316230D02*
D03*
Y262830D02*
D03*
X132080Y316230D02*
D03*
X119380D02*
D03*
X106680D02*
D03*
Y262830D02*
D03*
X119380D02*
D03*
X132080D02*
D03*
D30*
X22860Y217700D02*
D03*
X68580D02*
D03*
D31*
X144510Y44450D02*
D03*
D32*
X45720Y152400D02*
D03*
D33*
X416380Y266700D02*
D03*
X246380D02*
D03*
D34*
X176530Y166210D02*
D03*
D35*
X894080Y255270D02*
D03*
X656840Y254800D02*
D03*
X919480Y255270D02*
D03*
X682240Y254800D02*
D03*
X843280Y255270D02*
D03*
X868680D02*
D03*
X817880D02*
D03*
X792480D02*
D03*
X741680D02*
D03*
X767080D02*
D03*
X843280Y382270D02*
D03*
X868680D02*
D03*
X894080D02*
D03*
X817880D02*
D03*
X792480D02*
D03*
X741680D02*
D03*
X767080D02*
D03*
X606040Y254800D02*
D03*
X631440D02*
D03*
X580640D02*
D03*
X555240D02*
D03*
X504440D02*
D03*
X529840D02*
D03*
X606040Y381800D02*
D03*
X631440D02*
D03*
X656840D02*
D03*
X580640D02*
D03*
X555240D02*
D03*
X504440D02*
D03*
X529840D02*
D03*
D36*
X440690Y76200D02*
D03*
X466090Y50800D02*
D03*
X389890D02*
D03*
X62230Y93980D02*
D03*
X87630Y43180D02*
D03*
X62230Y17780D02*
D03*
X858520Y454660D02*
D03*
X833120D02*
D03*
X807720D02*
D03*
X782320D02*
D03*
X756920D02*
D03*
X731520D02*
D03*
X706120D02*
D03*
X680720D02*
D03*
X883920D02*
D03*
X629920D02*
D03*
D37*
X87630Y68580D02*
D03*
D38*
X919480Y382270D02*
D03*
X682240Y381800D02*
D03*
D39*
X816530Y107970D02*
D03*
X628560Y109240D02*
D03*
D40*
X726530Y107970D02*
D03*
X786530D02*
D03*
X756530D02*
D03*
X538560Y109240D02*
D03*
X598560D02*
D03*
X568560D02*
D03*
D41*
X795030Y64770D02*
D03*
X748030D02*
D03*
X607060Y66040D02*
D03*
X560060D02*
D03*
D42*
X415290Y76200D02*
D03*
X655320Y454660D02*
D03*
D43*
X950000Y50000D02*
D03*
X50000Y450000D02*
D03*
D44*
X750000Y350000D02*
D03*
X675000Y400000D02*
D03*
X700000Y350000D02*
D03*
X725000Y400000D02*
D03*
X920750Y124460D02*
D03*
Y109220D02*
D03*
X712470Y233680D02*
D03*
X711200Y186690D02*
D03*
X700000Y250000D02*
D03*
X929640Y425450D02*
D03*
X144780Y346710D02*
D03*
Y336550D02*
D03*
X29735Y234525D02*
D03*
X60960Y294640D02*
D03*
X61341Y342900D02*
D03*
X656590Y438150D02*
D03*
X630096Y436704D02*
D03*
X605790Y436880D02*
D03*
X187325Y95250D02*
D03*
X231140Y33020D02*
D03*
X256540Y26670D02*
D03*
X267970Y20320D02*
D03*
X208035Y117085D02*
D03*
X144780Y113030D02*
D03*
X149860Y128270D02*
D03*
X228600Y58420D02*
D03*
X200660Y81355D02*
D03*
X35560Y287020D02*
D03*
X950000Y450000D02*
D03*
X975000Y400000D02*
D03*
X950000Y350000D02*
D03*
X975000Y300000D02*
D03*
X950000Y250000D02*
D03*
X925000Y400000D02*
D03*
Y300000D02*
D03*
X875000D02*
D03*
Y100000D02*
D03*
X850000Y50000D02*
D03*
X825000Y400000D02*
D03*
X800000Y350000D02*
D03*
X825000Y300000D02*
D03*
X775000Y400000D02*
D03*
Y300000D02*
D03*
Y200000D02*
D03*
X750000Y150000D02*
D03*
X775000Y100000D02*
D03*
X725000Y300000D02*
D03*
X700000Y50000D02*
D03*
X675000Y300000D02*
D03*
Y100000D02*
D03*
X650000Y50000D02*
D03*
X625000Y300000D02*
D03*
X575000Y400000D02*
D03*
X550000Y350000D02*
D03*
X575000Y300000D02*
D03*
X500000Y450000D02*
D03*
X525000Y400000D02*
D03*
X500000Y350000D02*
D03*
X525000Y300000D02*
D03*
Y200000D02*
D03*
X500000Y150000D02*
D03*
X525000Y100000D02*
D03*
X500000Y50000D02*
D03*
X450000Y450000D02*
D03*
X475000Y400000D02*
D03*
Y300000D02*
D03*
Y200000D02*
D03*
Y100000D02*
D03*
X400000Y450000D02*
D03*
X350000D02*
D03*
X300000D02*
D03*
X250000D02*
D03*
X200000Y50000D02*
D03*
X150000Y450000D02*
D03*
X125000Y100000D02*
D03*
X50000Y50000D02*
D03*
X310000Y380000D02*
D03*
X300000Y360000D02*
D03*
X310000Y340000D02*
D03*
X300000Y320000D02*
D03*
X310000Y300000D02*
D03*
Y260000D02*
D03*
Y220000D02*
D03*
X300000Y200000D02*
D03*
X310000Y180000D02*
D03*
X300000Y160000D02*
D03*
X290000Y380000D02*
D03*
X280000Y360000D02*
D03*
X290000Y340000D02*
D03*
X280000Y320000D02*
D03*
Y200000D02*
D03*
X290000Y180000D02*
D03*
X280000Y160000D02*
D03*
X270000Y380000D02*
D03*
X260000Y360000D02*
D03*
X270000Y340000D02*
D03*
X260000Y320000D02*
D03*
Y200000D02*
D03*
X270000Y180000D02*
D03*
X260000Y160000D02*
D03*
X250000Y380000D02*
D03*
X240000Y360000D02*
D03*
X250000Y340000D02*
D03*
X240000Y320000D02*
D03*
Y200000D02*
D03*
X250000Y180000D02*
D03*
X240000Y160000D02*
D03*
X230000Y380000D02*
D03*
X220000Y360000D02*
D03*
X230000Y340000D02*
D03*
X220000Y320000D02*
D03*
Y200000D02*
D03*
X230000Y180000D02*
D03*
X220000Y160000D02*
D03*
X210000Y380000D02*
D03*
X200000Y360000D02*
D03*
X210000Y340000D02*
D03*
X200000Y320000D02*
D03*
X190000Y380000D02*
D03*
X180000Y360000D02*
D03*
X190000Y340000D02*
D03*
X180000Y320000D02*
D03*
X190000Y300000D02*
D03*
X180000Y280000D02*
D03*
X190000Y260000D02*
D03*
X180000Y240000D02*
D03*
X190000Y220000D02*
D03*
X170000Y380000D02*
D03*
X160000Y360000D02*
D03*
X170000Y340000D02*
D03*
X160000Y320000D02*
D03*
X170000Y300000D02*
D03*
X160000Y280000D02*
D03*
X170000Y260000D02*
D03*
X160000Y240000D02*
D03*
X170000Y220000D02*
D03*
X140000Y160000D02*
D03*
X130000Y180000D02*
D03*
X110000D02*
D03*
X90000D02*
D03*
X913130Y425450D02*
D03*
X715010Y340360D02*
D03*
X106680Y336550D02*
D03*
Y363220D02*
D03*
Y387350D02*
D03*
M02*
