M48
;Layer_Color=9474304
;FILE_FORMAT=4:4
METRIC,LZ
;TYPE=PLATED
T01F00S00C0.3000
T02F00S00C1.0160
T03F00S00C1.0200
T04F00S00C1.2000
;TYPE=NON_PLATED
T05F00S00C3.0000
T06F00S00C3.2000
%
T01
X0005Y0005
X00125Y001
X0014478Y0011303
X0014986Y0012827
X0014Y0016
X0013Y0018
X0011
X0009
X00083566Y00286258
X00083312Y00296672
X0006096Y0029464
X0003556Y0028702
X00029735Y00234525
X00061341Y003429
X0010668Y0033655
Y0036322
Y0038735
X00144526Y00346202
X0014478Y00333756
X0018Y0032
X002
X0022
X0024
X0026
X0028
X003
X0031Y0034
X0029
X0027
X0025
X0023
X0021
X0019
X002Y0036
X0022
X0024
X0026
X0028
X003
X0031Y0038
X0029
X0027
X0025
X0023
X0021
X0019
X0018Y0036
X0019Y003
X0018Y0028
X0019Y0026
X0018Y0024
X0019Y0022
X0022Y002
X0024
X0026
X0028
X003
X0031Y0022
Y0026
Y003
Y0018
X0029
X0027
X0025
X0023
X0024Y0016
X0026
X0028
X003
X0022
X00208035Y00117085
X00187325Y0009525
X0020066Y00081355
X002Y0005
X002286Y0005842
X0023114Y0003302
X0025654Y0002667
X0026797Y0002032
X005Y0005
X00525Y001
X00475
X005Y0015
X00525Y002
X00475
Y003
X00525
X00575
X00625
X00725
X00775
X0075Y0035
X0071501Y0034036
X007Y0035
Y0025
X0068961Y00238252
X0071247Y0023368
X007112Y0018669
X0075Y0015
X00775Y002
Y001
X00675
X007Y0005
X0065
X0055Y0035
X005
X008
X00825Y003
X00975
X0095Y0035
Y0025
X00920242Y0023876
X0092075Y0012446
Y0010922
X00875Y001
X0085Y0005
X00825Y004
X00925
X0092964Y0042545
X0091313
X0095Y0045
X00975Y004
X00775
X00725
X00675
X0065659Y0043815
X00630096Y00436704
X0060579Y0043688
X00575Y004
X00525
X00475
X005Y0045
X0045
X004
X0035
X003
X0025
X0015
T02
X0050444Y002548
X0052984
X0055524
X0058064
X0060604
X0063144
X0065684
X0068224Y002548
X0074168Y0025527
X0076708
X0079248
X0079248Y0038227
X0076708
X0074168
X0068224Y003818
X0065684
X0063144
X0060604
X0058064
X0055524
X0052984
X0050444
X0081788Y0038227
X0084328
X0086868
X0089408
X0091948
X0091948Y0025527
X0089408Y0025527
X0086868
X0084328
X0081788
T03
X0053856Y0010924
X0056856
X0059856
X0062856
X0072653Y0010797
X0075653
X0078653
X0081653
T04
X0006223Y0001778
X0008763Y0004318
Y0006858
X0006223Y0009398
X0038989Y000508
X0041529Y000762
X0044069
X0046609Y000508
X0080772Y0045466
X0083312
X0085852
X0088392
X0078232
X0075692
X0073152
X0070612
X0068072
X0065532
X0062992
T05
X0056006Y0006604
X0060706
X0074803Y0006477
X0079503
T06
X0095Y0005
X0005Y0045
M30
