G04*
G04 #@! TF.GenerationSoftware,Altium Limited,Altium Designer,26.3.0 (6)*
G04*
G04 Layer_Color=16711935*
%FSLAX44Y44*%
%MOMM*%
G71*
G04*
G04 #@! TF.SameCoordinates,39B7BE71-6630-4ACF-B712-52817520196C*
G04*
G04*
G04 #@! TF.FilePolarity,Negative*
G04*
G01*
G75*
%ADD22R,1.2032X1.5532*%
%ADD23R,1.5532X1.2032*%
%ADD25C,1.7272*%
%ADD26R,1.7272X1.7272*%
%ADD27C,1.9050*%
%ADD28C,2.0032*%
%ADD29R,2.0032X2.0032*%
%ADD30R,2.0032X2.0032*%
%ADD31R,1.7272X1.7272*%
%ADD32C,0.8032*%
%ADD51C,0.2540*%
%ADD52C,0.2540*%
%ADD67R,1.8542X0.6604*%
%ADD69R,1.5748X0.6096*%
%ADD70C,0.7366*%
%ADD71C,0.2794*%
G04:AMPARAMS|DCode=72|XSize=1.7832mm|YSize=0.8032mm|CornerRadius=0.1766mm|HoleSize=0mm|Usage=FLASHONLY|Rotation=90.000|XOffset=0mm|YOffset=0mm|HoleType=Round|Shape=RoundedRectangle|*
%AMROUNDEDRECTD72*
21,1,1.7832,0.4500,0,0,90.0*
21,1,1.4300,0.8032,0,0,90.0*
1,1,0.3532,0.2250,0.7150*
1,1,0.3532,0.2250,-0.7150*
1,1,0.3532,-0.2250,-0.7150*
1,1,0.3532,-0.2250,0.7150*
%
%ADD72ROUNDEDRECTD72*%
%ADD73R,1.7032X1.4032*%
%ADD74R,5.2932X6.5232*%
G04:AMPARAMS|DCode=75|XSize=3.2232mm|YSize=1.1732mm|CornerRadius=0.3441mm|HoleSize=0mm|Usage=FLASHONLY|Rotation=270.000|XOffset=0mm|YOffset=0mm|HoleType=Round|Shape=RoundedRectangle|*
%AMROUNDEDRECTD75*
21,1,3.2232,0.4850,0,0,270.0*
21,1,2.5350,1.1732,0,0,270.0*
1,1,0.6882,-0.2425,-1.2675*
1,1,0.6882,-0.2425,1.2675*
1,1,0.6882,0.2425,1.2675*
1,1,0.6882,0.2425,-1.2675*
%
%ADD75ROUNDEDRECTD75*%
%ADD76R,4.3532X4.8532*%
%ADD77R,8.7032X8.2032*%
%ADD78R,1.7032X0.5032*%
%ADD79R,0.5032X1.7032*%
%ADD80R,1.1732X1.2032*%
%ADD81R,1.1540X2.3540*%
%ADD82R,3.4540X2.3540*%
%ADD83R,1.0132X1.1332*%
%ADD84R,1.6032X2.3032*%
%ADD85R,1.5732X2.6332*%
G36*
X880920Y844269D02*
X881050Y844243D01*
X881177Y844201D01*
X881296Y844142D01*
X881407Y844068D01*
X881507Y843980D01*
X881595Y843880D01*
X881669Y843769D01*
X881669Y843768D01*
X886375D01*
Y809732D01*
X881669D01*
X881669Y809731D01*
X881595Y809620D01*
X881507Y809520D01*
X881407Y809432D01*
X881296Y809358D01*
X881177Y809299D01*
X881050Y809257D01*
X880920Y809230D01*
X880787Y809222D01*
X862245D01*
X862112Y809230D01*
X861982Y809257D01*
X861855Y809299D01*
X861736Y809358D01*
X861625Y809432D01*
X861525Y809520D01*
X861437Y809620D01*
X861363Y809731D01*
X861363Y809732D01*
X857673D01*
Y843768D01*
X861363D01*
X861363Y843769D01*
X861437Y843880D01*
X861525Y843980D01*
X861625Y844068D01*
X861736Y844142D01*
X861855Y844201D01*
X861982Y844243D01*
X862112Y844269D01*
X862245Y844278D01*
X880787D01*
X880920Y844269D01*
D02*
G37*
D22*
X991500Y1395250D02*
D03*
Y1415500D02*
D03*
X992000Y1353000D02*
D03*
X973500Y1415500D02*
D03*
X796750Y1413250D02*
D03*
X797000Y1393250D02*
D03*
Y1351250D02*
D03*
X973500Y1395250D02*
D03*
X974000Y1353000D02*
D03*
X815000Y1393250D02*
D03*
Y1351250D02*
D03*
X814750Y1413250D02*
D03*
X706750Y1471500D02*
D03*
X724750D02*
D03*
X817000Y1174750D02*
D03*
X835000D02*
D03*
X1042750Y401250D02*
D03*
X1250250Y497250D02*
D03*
X872250Y901250D02*
D03*
X1010000Y764500D02*
D03*
X966500Y765000D02*
D03*
X1249750Y523000D02*
D03*
X1095250Y396500D02*
D03*
X1232250Y497250D02*
D03*
X1231750Y523000D02*
D03*
X1127500Y589750D02*
D03*
X1113250Y396500D02*
D03*
X847250Y778750D02*
D03*
X854250Y901250D02*
D03*
X795250Y666000D02*
D03*
X772750Y520250D02*
D03*
X1145500Y589750D02*
D03*
X790750Y520250D02*
D03*
X984500Y765000D02*
D03*
X1028000Y764500D02*
D03*
X1024750Y401250D02*
D03*
X813250Y666000D02*
D03*
X829250Y778750D02*
D03*
D23*
X705250Y1182000D02*
D03*
Y1200000D02*
D03*
X864250Y1455500D02*
D03*
Y1437500D02*
D03*
X1337250Y1195500D02*
D03*
X888000Y1071750D02*
D03*
X908250D02*
D03*
X790250Y1168750D02*
D03*
Y1129500D02*
D03*
X789750Y1085250D02*
D03*
X888000Y1089750D02*
D03*
X908250D02*
D03*
X790250Y1150750D02*
D03*
Y1111500D02*
D03*
X789750Y1067250D02*
D03*
X1337250Y1213500D02*
D03*
X1206250Y576250D02*
D03*
X1186250D02*
D03*
X1206250Y558250D02*
D03*
X1186250D02*
D03*
X1339500Y474250D02*
D03*
X1230500Y426590D02*
D03*
X1338750Y405500D02*
D03*
X1088000Y570250D02*
D03*
X844250Y645000D02*
D03*
X1073250Y540750D02*
D03*
X1074500Y395750D02*
D03*
X872750Y537500D02*
D03*
X852250Y519750D02*
D03*
X872750Y519500D02*
D03*
X1109250Y582000D02*
D03*
X1253360Y426590D02*
D03*
X1230500Y444590D02*
D03*
X903250Y795750D02*
D03*
X947500Y660750D02*
D03*
X831750Y688250D02*
D03*
X811000Y688750D02*
D03*
X781500Y829750D02*
D03*
X801250Y763750D02*
D03*
X790500Y688750D02*
D03*
X852250Y537750D02*
D03*
X844250Y627000D02*
D03*
X1073250Y522750D02*
D03*
X1074500Y413750D02*
D03*
X1339500Y456250D02*
D03*
X1338750Y423500D02*
D03*
X1109250Y564000D02*
D03*
X1088000Y588250D02*
D03*
X1253360Y444590D02*
D03*
X947500Y678750D02*
D03*
X831750Y706250D02*
D03*
X811000Y706750D02*
D03*
X790500Y706750D02*
D03*
X903250Y813750D02*
D03*
X781500Y847750D02*
D03*
X881500Y761500D02*
D03*
Y779500D02*
D03*
X801250Y781750D02*
D03*
D25*
X1016750Y1314150D02*
D03*
Y1339550D02*
D03*
Y1415750D02*
D03*
Y1390350D02*
D03*
Y1364950D02*
D03*
X889750Y1415750D02*
D03*
X889750Y1441150D02*
D03*
X889750Y1288750D02*
D03*
X1016750Y1288750D02*
D03*
X889750Y1263350D02*
D03*
X1016750Y1263350D02*
D03*
X889750Y1314150D02*
D03*
Y1364950D02*
D03*
Y1339550D02*
D03*
Y1390350D02*
D03*
X837800Y1263540D02*
D03*
X710800Y1288940D02*
D03*
X837800Y1288940D02*
D03*
X710800Y1441340D02*
D03*
X710800Y1365140D02*
D03*
Y1390540D02*
D03*
Y1415940D02*
D03*
Y1339740D02*
D03*
Y1314340D02*
D03*
Y1263540D02*
D03*
X837800Y1365140D02*
D03*
Y1390540D02*
D03*
Y1415940D02*
D03*
Y1339740D02*
D03*
Y1314340D02*
D03*
X935000Y507500D02*
D03*
X1364250Y466450D02*
D03*
X870650Y599500D02*
D03*
X921450D02*
D03*
X896050D02*
D03*
X1285850Y558500D02*
D03*
X1387980Y589260D02*
D03*
X1362050Y558500D02*
D03*
X1396000Y493100D02*
D03*
Y457000D02*
D03*
X1364250Y491850D02*
D03*
X1313750Y415100D02*
D03*
X845250Y599500D02*
D03*
X935000Y482100D02*
D03*
X900750Y533000D02*
D03*
X1396000Y518500D02*
D03*
X1286380Y589260D02*
D03*
X1362580D02*
D03*
X1313750Y440500D02*
D03*
X946850Y599500D02*
D03*
X1311250Y558500D02*
D03*
X1364250Y441050D02*
D03*
X1311780Y589260D02*
D03*
X1396000Y431600D02*
D03*
X1337180Y589260D02*
D03*
X900750Y431400D02*
D03*
Y456800D02*
D03*
Y482200D02*
D03*
Y507600D02*
D03*
X1336650Y558500D02*
D03*
D26*
X1016750Y1441150D02*
D03*
X837800Y1441340D02*
D03*
X1396000Y543900D02*
D03*
X935000Y532900D02*
D03*
X900750Y406000D02*
D03*
X1364250Y415650D02*
D03*
X1313750Y465900D02*
D03*
X1396000Y406200D02*
D03*
D27*
X1345500Y1375500D02*
D03*
X1310500D02*
D03*
X1345500Y1400500D02*
D03*
X1310500D02*
D03*
X1159250Y1400750D02*
D03*
Y1375750D02*
D03*
X1124250Y1400750D02*
D03*
Y1375750D02*
D03*
D28*
X887850Y1210500D02*
D03*
X913250D02*
D03*
X862450D02*
D03*
X786250D02*
D03*
X811650D02*
D03*
X837050D02*
D03*
X989450D02*
D03*
X735450D02*
D03*
X760850D02*
D03*
X1368850Y1149550D02*
D03*
X1394250Y1124150D02*
D03*
X1368850Y1073350D02*
D03*
X737750Y1148500D02*
D03*
X763150Y1123100D02*
D03*
X737750Y1072300D02*
D03*
X938650Y1210500D02*
D03*
X726500Y480700D02*
D03*
Y455300D02*
D03*
Y531500D02*
D03*
Y556900D02*
D03*
X741250Y770950D02*
D03*
Y694750D02*
D03*
X726500Y658500D02*
D03*
Y429900D02*
D03*
Y404500D02*
D03*
Y582300D02*
D03*
Y506100D02*
D03*
Y607700D02*
D03*
X766650Y745550D02*
D03*
D29*
X964050Y1210500D02*
D03*
D30*
X763150Y1097700D02*
D03*
X1394250Y1098750D02*
D03*
X726500Y633100D02*
D03*
X766650Y720150D02*
D03*
D31*
X1260980Y589260D02*
D03*
X1260450Y558500D02*
D03*
X972250Y599500D02*
D03*
D32*
X1014250Y1070250D02*
D03*
X1035000Y1070750D02*
D03*
X796750Y1350250D02*
D03*
Y1393000D02*
D03*
X796500Y1413250D02*
D03*
X705000Y1181000D02*
D03*
X705250Y1200000D02*
D03*
X973500Y1395250D02*
D03*
Y1415000D02*
D03*
X855550Y1099550D02*
D03*
Y1152950D02*
D03*
X974000Y1353000D02*
D03*
X1337250Y1195500D02*
D03*
X933140Y1078350D02*
D03*
X908250Y1071750D02*
D03*
Y1089750D02*
D03*
X888000Y1071750D02*
D03*
Y1089750D02*
D03*
X817000Y1174750D02*
D03*
X817450Y1152950D02*
D03*
Y1099550D02*
D03*
X864250Y1455500D02*
D03*
Y1437500D02*
D03*
X706250Y1471250D02*
D03*
X725250D02*
D03*
X889250Y1116000D02*
D03*
X854500Y901250D02*
D03*
X872250D02*
D03*
X844250Y644750D02*
D03*
X1010250Y764750D02*
D03*
X1004077Y742808D02*
D03*
X978677Y709808D02*
D03*
X967000Y764750D02*
D03*
X1156500Y742750D02*
D03*
X1182000Y708500D02*
D03*
X1207500Y742250D02*
D03*
X1232750Y709250D02*
D03*
X1258500Y742750D02*
D03*
X1283500Y710250D02*
D03*
X1335500Y709000D02*
D03*
X1308500Y743500D02*
D03*
X1334250Y810500D02*
D03*
X1308500Y844000D02*
D03*
X1284000Y810500D02*
D03*
X1258750Y843500D02*
D03*
X1232500Y811250D02*
D03*
X1207750Y844250D02*
D03*
X1182250Y810500D02*
D03*
X1156750Y844750D02*
D03*
X1130750Y809750D02*
D03*
X1105500Y844500D02*
D03*
X1080500Y810500D02*
D03*
X1029500D02*
D03*
X1003750Y843750D02*
D03*
X979250Y810250D02*
D03*
X1206500Y576250D02*
D03*
X1186250Y575250D02*
D03*
X827250Y404250D02*
D03*
X760500Y404500D02*
D03*
X760250Y496000D02*
D03*
X772500Y520500D02*
D03*
X827000Y496250D02*
D03*
X852250Y537000D02*
D03*
X843500Y627250D02*
D03*
X768750Y641000D02*
D03*
X794750Y665250D02*
D03*
X790000Y688500D02*
D03*
X811250Y689000D02*
D03*
X831250Y688250D02*
D03*
X902500Y795500D02*
D03*
X801250Y763250D02*
D03*
X847750Y779500D02*
D03*
X781250Y830000D02*
D03*
X978750Y623500D02*
D03*
X959750Y631000D02*
D03*
X936500Y624250D02*
D03*
X946750Y660250D02*
D03*
X1111250Y690000D02*
D03*
X1127250Y589250D02*
D03*
X1109250Y582000D02*
D03*
X1073500Y522500D02*
D03*
X1073250Y540250D02*
D03*
X1133750Y396250D02*
D03*
X1113250Y395000D02*
D03*
X1253500Y426500D02*
D03*
X1230750Y443750D02*
D03*
X1231500Y523000D02*
D03*
X997000Y452500D02*
D03*
X1236250Y539500D02*
D03*
X982750Y493540D02*
D03*
X1008500Y420000D02*
D03*
X1186500Y484250D02*
D03*
X1156000Y505000D02*
D03*
X872500Y537250D02*
D03*
X1088000Y569500D02*
D03*
X1338750Y404750D02*
D03*
X1339750Y474250D02*
D03*
X1224750Y573750D02*
D03*
X1250250Y523250D02*
D03*
X1230500Y426250D02*
D03*
X1094500Y395250D02*
D03*
X1074500Y395750D02*
D03*
X1041500Y418750D02*
D03*
X792000Y642000D02*
D03*
X800500Y583000D02*
D03*
X782500D02*
D03*
X1200250Y771500D02*
D03*
X1169750Y494000D02*
D03*
X1155750Y478250D02*
D03*
X1027500Y509250D02*
D03*
X977500Y462750D02*
D03*
X958250Y481500D02*
D03*
X1235500Y459000D02*
D03*
X1271500Y470000D02*
D03*
X966250Y487000D02*
D03*
X1176750Y512750D02*
D03*
X986750Y457500D02*
D03*
X1156250Y406508D02*
D03*
X1088500Y794500D02*
D03*
X842250Y392500D02*
D03*
X1322250Y525250D02*
D03*
X1002000Y509750D02*
D03*
X1102000Y784750D02*
D03*
X1144500Y402008D02*
D03*
X953250Y401000D02*
D03*
X1170250Y521500D02*
D03*
X879750Y564500D02*
D03*
X810500Y564250D02*
D03*
X1076750Y776000D02*
D03*
X1126000Y390008D02*
D03*
X947750Y712250D02*
D03*
X947250Y678500D02*
D03*
X947750Y695250D02*
D03*
X1029000Y709500D02*
D03*
X1055000Y742250D02*
D03*
X913250Y895250D02*
D03*
X914000Y915750D02*
D03*
X894000Y895500D02*
D03*
X814000Y666000D02*
D03*
X815750Y641500D02*
D03*
X831250Y706500D02*
D03*
X811000D02*
D03*
X790250D02*
D03*
X825500Y745250D02*
D03*
X881500Y779500D02*
D03*
X781250Y848250D02*
D03*
X805500Y827000D02*
D03*
X806000Y849750D02*
D03*
X903500Y814000D02*
D03*
X872250Y816500D02*
D03*
X872000Y834750D02*
D03*
X1047250Y764000D02*
D03*
D51*
X980960Y1430779D02*
X985665D01*
X805210Y1323279D02*
X809915D01*
X804210Y1428779D02*
X808915D01*
X981710Y1325529D02*
X986415D01*
X981710Y1368029D02*
X986415D01*
X804960Y1365779D02*
X809665D01*
D52*
X989080Y1374250D02*
D03*
X988330Y1437000D02*
D03*
X978920Y1331750D02*
D03*
Y1374250D02*
D03*
X978170Y1437000D02*
D03*
X802170Y1372000D02*
D03*
X801420Y1435000D02*
D03*
X802420Y1329500D02*
D03*
X989080Y1331750D02*
D03*
X812580Y1329500D02*
D03*
X812330Y1372000D02*
D03*
X811580Y1435000D02*
D03*
D67*
X805984Y803763D02*
D03*
Y826750D02*
D03*
Y849737D02*
D03*
D69*
X846500Y754750D02*
D03*
Y736450D02*
D03*
X825672Y745600D02*
D03*
D70*
X989600Y1437000D02*
G03*
X989600Y1437000I-3810J0D01*
G01*
X984520D02*
G03*
X984520Y1437000I-3810J0D01*
G01*
X813850Y1329500D02*
G03*
X813850Y1329500I-3810J0D01*
G01*
X808770D02*
G03*
X808770Y1329500I-3810J0D01*
G01*
X807770Y1435000D02*
G03*
X807770Y1435000I-3810J0D01*
G01*
X812850D02*
G03*
X812850Y1435000I-3810J0D01*
G01*
X985270Y1331750D02*
G03*
X985270Y1331750I-3810J0D01*
G01*
X990350D02*
G03*
X990350Y1331750I-3810J0D01*
G01*
X985270Y1374250D02*
G03*
X985270Y1374250I-3810J0D01*
G01*
X990350D02*
G03*
X990350Y1374250I-3810J0D01*
G01*
X808520Y1372000D02*
G03*
X808520Y1372000I-3810J0D01*
G01*
X813600D02*
G03*
X813600Y1372000I-3810J0D01*
G01*
D71*
X980710Y1443096D02*
X985790D01*
X804960Y1335596D02*
X810040D01*
X803960Y1441096D02*
X809040D01*
X981460Y1337846D02*
X986540D01*
X981460Y1380346D02*
X986540D01*
X804710Y1378096D02*
X809790D01*
D72*
X855550Y1099550D02*
D03*
Y1152950D02*
D03*
X817450D02*
D03*
Y1099550D02*
D03*
X842850Y1152950D02*
D03*
X830150D02*
D03*
Y1099550D02*
D03*
X842850D02*
D03*
D73*
X1034350Y1070750D02*
D03*
X1014650D02*
D03*
D74*
X956000Y1143650D02*
D03*
D75*
X933140Y1078350D02*
D03*
X978860D02*
D03*
D76*
X1024500Y1108250D02*
D03*
D77*
X1104250Y1202750D02*
D03*
X1274250D02*
D03*
D78*
X1096030Y517540D02*
D03*
Y512540D02*
D03*
Y507540D02*
D03*
Y492540D02*
D03*
Y487540D02*
D03*
Y472540D02*
D03*
Y452540D02*
D03*
Y447540D02*
D03*
Y442540D02*
D03*
X1210030D02*
D03*
Y447540D02*
D03*
Y452540D02*
D03*
Y457540D02*
D03*
Y462540D02*
D03*
Y467540D02*
D03*
Y472540D02*
D03*
Y477540D02*
D03*
Y482540D02*
D03*
Y492540D02*
D03*
Y497540D02*
D03*
Y502540D02*
D03*
Y507540D02*
D03*
Y512540D02*
D03*
Y517540D02*
D03*
X1096030Y477540D02*
D03*
Y457540D02*
D03*
Y502540D02*
D03*
Y482540D02*
D03*
Y462540D02*
D03*
X1210030Y487540D02*
D03*
X1096030Y467540D02*
D03*
Y497540D02*
D03*
D79*
X1115530Y423040D02*
D03*
X1120530D02*
D03*
X1125530D02*
D03*
X1130530D02*
D03*
X1135530D02*
D03*
X1140530D02*
D03*
X1145530D02*
D03*
X1160530D02*
D03*
X1175530D02*
D03*
X1180530D02*
D03*
X1185530D02*
D03*
X1190530D02*
D03*
Y537040D02*
D03*
X1185530D02*
D03*
X1180530D02*
D03*
X1175530D02*
D03*
X1170530D02*
D03*
X1165530D02*
D03*
X1160530D02*
D03*
X1155530D02*
D03*
X1150530D02*
D03*
X1145530D02*
D03*
X1140530D02*
D03*
X1135530D02*
D03*
X1130530D02*
D03*
X1125530D02*
D03*
X1120530D02*
D03*
X1115530D02*
D03*
X1170530Y423040D02*
D03*
X1165530D02*
D03*
X1155530D02*
D03*
X1150530D02*
D03*
D80*
X1224250Y558400D02*
D03*
Y573100D02*
D03*
X947750Y696500D02*
D03*
Y711200D02*
D03*
D81*
X792250Y642000D02*
D03*
X769250D02*
D03*
X815250D02*
D03*
D82*
X792250Y584000D02*
D03*
D83*
X1041100Y418500D02*
D03*
X1024900D02*
D03*
D84*
X872500Y495500D02*
D03*
Y404500D02*
D03*
X827000Y495500D02*
D03*
Y404500D02*
D03*
X760500Y404750D02*
D03*
Y495750D02*
D03*
X806000D02*
D03*
Y404750D02*
D03*
D85*
X1128750Y564500D02*
D03*
X1146750D02*
D03*
M02*
