G04*
G04 #@! TF.GenerationSoftware,Altium Limited,Altium Designer,26.3.0 (6)*
G04*
G04 Layer_Color=128*
%FSLAX44Y44*%
%MOMM*%
G71*
G04*
G04 #@! TF.SameCoordinates,39B7BE71-6630-4ACF-B712-52817520196C*
G04*
G04*
G04 #@! TF.FilePolarity,Positive*
G04*
G01*
G75*
%ADD16R,1.0000X1.3500*%
%ADD17R,1.3500X1.0000*%
%ADD52C,0.2540*%
G04:AMPARAMS|DCode=53|XSize=1.58mm|YSize=0.6mm|CornerRadius=0.075mm|HoleSize=0mm|Usage=FLASHONLY|Rotation=90.000|XOffset=0mm|YOffset=0mm|HoleType=Round|Shape=RoundedRectangle|*
%AMROUNDEDRECTD53*
21,1,1.5800,0.4500,0,0,90.0*
21,1,1.4300,0.6000,0,0,90.0*
1,1,0.1500,0.2250,0.7150*
1,1,0.1500,0.2250,-0.7150*
1,1,0.1500,-0.2250,-0.7150*
1,1,0.1500,-0.2250,0.7150*
%
%ADD53ROUNDEDRECTD53*%
%ADD54R,1.5000X1.2000*%
G04:AMPARAMS|DCode=56|XSize=3.02mm|YSize=0.97mm|CornerRadius=0.2425mm|HoleSize=0mm|Usage=FLASHONLY|Rotation=270.000|XOffset=0mm|YOffset=0mm|HoleType=Round|Shape=RoundedRectangle|*
%AMROUNDEDRECTD56*
21,1,3.0200,0.4850,0,0,270.0*
21,1,2.5350,0.9700,0,0,270.0*
1,1,0.4850,-0.2425,-1.2675*
1,1,0.4850,-0.2425,1.2675*
1,1,0.4850,0.2425,1.2675*
1,1,0.4850,0.2425,-1.2675*
%
%ADD56ROUNDEDRECTD56*%
%ADD57R,4.1500X4.6500*%
%ADD58R,8.5000X8.0000*%
%ADD59R,1.5000X0.3000*%
%ADD60R,0.3000X1.5000*%
%ADD61R,0.9700X1.0000*%
%ADD62R,0.9500X2.1500*%
%ADD63R,3.2500X2.1500*%
%ADD64R,0.8100X0.9300*%
%ADD65R,1.4000X2.1000*%
%ADD66R,1.3700X2.4300*%
%ADD67R,1.8542X0.6604*%
%ADD69R,1.5748X0.6096*%
G36*
X977300Y1156950D02*
X960100D01*
Y1172550D01*
X977300D01*
Y1156950D01*
D02*
G37*
G36*
X951900D02*
X934700D01*
Y1172550D01*
X951900D01*
Y1156950D01*
D02*
G37*
G36*
X977300Y1135850D02*
X960100D01*
Y1151450D01*
X977300D01*
Y1135850D01*
D02*
G37*
G36*
X951900D02*
X934700D01*
Y1151450D01*
X951900D01*
Y1135850D01*
D02*
G37*
G36*
X977300Y1114750D02*
X960100D01*
Y1130350D01*
X977300D01*
Y1114750D01*
D02*
G37*
G36*
X951900D02*
X934700D01*
Y1130350D01*
X951900D01*
Y1114750D01*
D02*
G37*
G36*
X880787Y810240D02*
X862245D01*
Y843260D01*
X880787D01*
Y810240D01*
D02*
G37*
D16*
X991500Y1395250D02*
D03*
Y1415500D02*
D03*
X992000Y1353000D02*
D03*
X973500Y1415500D02*
D03*
X796750Y1413250D02*
D03*
X797000Y1393250D02*
D03*
Y1351250D02*
D03*
X973500Y1395250D02*
D03*
X974000Y1353000D02*
D03*
X815000Y1393250D02*
D03*
Y1351250D02*
D03*
X814750Y1413250D02*
D03*
X706750Y1471500D02*
D03*
X724750D02*
D03*
X817000Y1174750D02*
D03*
X835000D02*
D03*
X1042750Y401250D02*
D03*
X1250250Y497250D02*
D03*
X872250Y901250D02*
D03*
X1010000Y764500D02*
D03*
X966500Y765000D02*
D03*
X1249750Y523000D02*
D03*
X1095250Y396500D02*
D03*
X1232250Y497250D02*
D03*
X1231750Y523000D02*
D03*
X1127500Y589750D02*
D03*
X1113250Y396500D02*
D03*
X847250Y778750D02*
D03*
X854250Y901250D02*
D03*
X795250Y666000D02*
D03*
X772750Y520250D02*
D03*
X1145500Y589750D02*
D03*
X790750Y520250D02*
D03*
X984500Y765000D02*
D03*
X1028000Y764500D02*
D03*
X1024750Y401250D02*
D03*
X813250Y666000D02*
D03*
X829250Y778750D02*
D03*
D17*
X705250Y1182000D02*
D03*
Y1200000D02*
D03*
X864250Y1455500D02*
D03*
Y1437500D02*
D03*
X1337250Y1195500D02*
D03*
X888000Y1071750D02*
D03*
X908250D02*
D03*
X790250Y1168750D02*
D03*
Y1129500D02*
D03*
X789750Y1085250D02*
D03*
X888000Y1089750D02*
D03*
X908250D02*
D03*
X790250Y1150750D02*
D03*
Y1111500D02*
D03*
X789750Y1067250D02*
D03*
X1337250Y1213500D02*
D03*
X1206250Y576250D02*
D03*
X1186250D02*
D03*
X1206250Y558250D02*
D03*
X1186250D02*
D03*
X1339500Y474250D02*
D03*
X1230500Y426590D02*
D03*
X1338750Y405500D02*
D03*
X1088000Y570250D02*
D03*
X844250Y645000D02*
D03*
X1073250Y540750D02*
D03*
X1074500Y395750D02*
D03*
X872750Y537500D02*
D03*
X852250Y519750D02*
D03*
X872750Y519500D02*
D03*
X1109250Y582000D02*
D03*
X1253360Y426590D02*
D03*
X1230500Y444590D02*
D03*
X903250Y795750D02*
D03*
X947500Y660750D02*
D03*
X831750Y688250D02*
D03*
X811000Y688750D02*
D03*
X781500Y829750D02*
D03*
X801250Y763750D02*
D03*
X790500Y688750D02*
D03*
X852250Y537750D02*
D03*
X844250Y627000D02*
D03*
X1073250Y522750D02*
D03*
X1074500Y413750D02*
D03*
X1339500Y456250D02*
D03*
X1338750Y423500D02*
D03*
X1109250Y564000D02*
D03*
X1088000Y588250D02*
D03*
X1253360Y444590D02*
D03*
X947500Y678750D02*
D03*
X831750Y706250D02*
D03*
X811000Y706750D02*
D03*
X790500Y706750D02*
D03*
X903250Y813750D02*
D03*
X781500Y847750D02*
D03*
X881500Y761500D02*
D03*
Y779500D02*
D03*
X801250Y781750D02*
D03*
D52*
X989080Y1374250D02*
D03*
X988330Y1437000D02*
D03*
X978920Y1331750D02*
D03*
Y1374250D02*
D03*
X978170Y1437000D02*
D03*
X802170Y1372000D02*
D03*
X801420Y1435000D02*
D03*
X802420Y1329500D02*
D03*
X989080Y1331750D02*
D03*
X812580Y1329500D02*
D03*
X812330Y1372000D02*
D03*
X811580Y1435000D02*
D03*
D53*
X855550Y1099550D02*
D03*
Y1152950D02*
D03*
X817450D02*
D03*
Y1099550D02*
D03*
X842850Y1152950D02*
D03*
X830150D02*
D03*
Y1099550D02*
D03*
X842850D02*
D03*
D54*
X1034350Y1070750D02*
D03*
X1014650D02*
D03*
D56*
X933140Y1078350D02*
D03*
X978860D02*
D03*
D57*
X1024500Y1108250D02*
D03*
D58*
X1104250Y1202750D02*
D03*
X1274250D02*
D03*
D59*
X1096030Y517540D02*
D03*
Y512540D02*
D03*
Y507540D02*
D03*
Y492540D02*
D03*
Y487540D02*
D03*
Y472540D02*
D03*
Y452540D02*
D03*
Y447540D02*
D03*
Y442540D02*
D03*
X1210030D02*
D03*
Y447540D02*
D03*
Y452540D02*
D03*
Y457540D02*
D03*
Y462540D02*
D03*
Y467540D02*
D03*
Y472540D02*
D03*
Y477540D02*
D03*
Y482540D02*
D03*
Y492540D02*
D03*
Y497540D02*
D03*
Y502540D02*
D03*
Y507540D02*
D03*
Y512540D02*
D03*
Y517540D02*
D03*
X1096030Y477540D02*
D03*
Y457540D02*
D03*
Y502540D02*
D03*
Y482540D02*
D03*
Y462540D02*
D03*
X1210030Y487540D02*
D03*
X1096030Y467540D02*
D03*
Y497540D02*
D03*
D60*
X1115530Y423040D02*
D03*
X1120530D02*
D03*
X1125530D02*
D03*
X1130530D02*
D03*
X1135530D02*
D03*
X1140530D02*
D03*
X1145530D02*
D03*
X1160530D02*
D03*
X1175530D02*
D03*
X1180530D02*
D03*
X1185530D02*
D03*
X1190530D02*
D03*
Y537040D02*
D03*
X1185530D02*
D03*
X1180530D02*
D03*
X1175530D02*
D03*
X1170530D02*
D03*
X1165530D02*
D03*
X1160530D02*
D03*
X1155530D02*
D03*
X1150530D02*
D03*
X1145530D02*
D03*
X1140530D02*
D03*
X1135530D02*
D03*
X1130530D02*
D03*
X1125530D02*
D03*
X1120530D02*
D03*
X1115530D02*
D03*
X1170530Y423040D02*
D03*
X1165530D02*
D03*
X1155530D02*
D03*
X1150530D02*
D03*
D61*
X1224250Y558400D02*
D03*
Y573100D02*
D03*
X947750Y696500D02*
D03*
Y711200D02*
D03*
D62*
X792250Y642000D02*
D03*
X769250D02*
D03*
X815250D02*
D03*
D63*
X792250Y584000D02*
D03*
D64*
X1041100Y418500D02*
D03*
X1024900D02*
D03*
D65*
X872500Y495500D02*
D03*
Y404500D02*
D03*
X827000Y495500D02*
D03*
Y404500D02*
D03*
X760500Y404750D02*
D03*
Y495750D02*
D03*
X806000D02*
D03*
Y404750D02*
D03*
D66*
X1128750Y564500D02*
D03*
X1146750D02*
D03*
D67*
X805984Y803763D02*
D03*
Y826750D02*
D03*
Y849737D02*
D03*
D69*
X846500Y754750D02*
D03*
Y736450D02*
D03*
X825672Y745600D02*
D03*
M02*
