G04*
G04 #@! TF.GenerationSoftware,Altium Limited,Altium Designer,26.3.0 (6)*
G04*
G04 Layer_Color=8388736*
%FSLAX44Y44*%
%MOMM*%
G71*
G04*
G04 #@! TF.SameCoordinates,39B7BE71-6630-4ACF-B712-52817520196C*
G04*
G04*
G04 #@! TF.FilePolarity,Negative*
G04*
G01*
G75*
%ADD19R,0.9080X0.2548*%
%ADD20R,1.7526X1.5494*%
%ADD21R,1.2232X2.1032*%
%ADD22R,1.2032X1.5532*%
%ADD23R,1.5532X1.2032*%
G04:AMPARAMS|DCode=24|XSize=1.4232mm|YSize=0.8032mm|CornerRadius=0.2516mm|HoleSize=0mm|Usage=FLASHONLY|Rotation=90.000|XOffset=0mm|YOffset=0mm|HoleType=Round|Shape=RoundedRectangle|*
%AMROUNDEDRECTD24*
21,1,1.4232,0.3000,0,0,90.0*
21,1,0.9200,0.8032,0,0,90.0*
1,1,0.5032,0.1500,0.4600*
1,1,0.5032,0.1500,-0.4600*
1,1,0.5032,-0.1500,-0.4600*
1,1,0.5032,-0.1500,0.4600*
%
%ADD24ROUNDEDRECTD24*%
%ADD25C,1.7272*%
%ADD26R,1.7272X1.7272*%
%ADD27C,1.9050*%
%ADD28C,2.0032*%
%ADD29R,2.0032X2.0032*%
%ADD30R,2.0032X2.0032*%
%ADD31R,1.7272X1.7272*%
%ADD32C,0.8032*%
D19*
X1170516Y785675D02*
D03*
Y775675D02*
D03*
Y780675D02*
D03*
Y770675D02*
D03*
X1141624D02*
D03*
Y785675D02*
D03*
Y780675D02*
D03*
Y775675D02*
D03*
D20*
X1156070Y778175D02*
D03*
D21*
X1308877Y844408D02*
D03*
X1334277Y811408D02*
D03*
X1283477Y811408D02*
D03*
X1308877Y742808D02*
D03*
X1258077D02*
D03*
Y844408D02*
D03*
X1207277D02*
D03*
X1232677Y811408D02*
D03*
X1181877D02*
D03*
X1105677Y844408D02*
D03*
X1156477D02*
D03*
X1131077Y811408D02*
D03*
X1207277Y742808D02*
D03*
X1156477D02*
D03*
X1334277Y709808D02*
D03*
X1232677Y709808D02*
D03*
X1283477D02*
D03*
X1181877D02*
D03*
X1004077Y844408D02*
D03*
X1080277Y811408D02*
D03*
X1029477D02*
D03*
X1004077Y742808D02*
D03*
X978677Y811408D02*
D03*
Y709808D02*
D03*
X1105677Y742808D02*
D03*
X1080277Y709808D02*
D03*
X1131077D02*
D03*
X1054877Y844408D02*
D03*
X1029477Y709808D02*
D03*
X1054877Y742808D02*
D03*
D22*
X931750Y915500D02*
D03*
X987250Y867750D02*
D03*
X913750Y915500D02*
D03*
X969250Y867750D02*
D03*
D23*
X894000Y877500D02*
D03*
X950750Y851500D02*
D03*
X929000Y833750D02*
D03*
X950750Y869500D02*
D03*
X894000Y895500D02*
D03*
X929000Y851750D02*
D03*
D24*
X922500Y870250D02*
D03*
X913000D02*
D03*
X932000D02*
D03*
Y895150D02*
D03*
X913000D02*
D03*
D25*
X1016750Y1314150D02*
D03*
Y1339550D02*
D03*
Y1415750D02*
D03*
Y1390350D02*
D03*
Y1364950D02*
D03*
X889750Y1415750D02*
D03*
X889750Y1441150D02*
D03*
X889750Y1288750D02*
D03*
X1016750Y1288750D02*
D03*
X889750Y1263350D02*
D03*
X1016750Y1263350D02*
D03*
X889750Y1314150D02*
D03*
Y1364950D02*
D03*
Y1339550D02*
D03*
Y1390350D02*
D03*
X837800Y1263540D02*
D03*
X710800Y1288940D02*
D03*
X837800Y1288940D02*
D03*
X710800Y1441340D02*
D03*
X710800Y1365140D02*
D03*
Y1390540D02*
D03*
Y1415940D02*
D03*
Y1339740D02*
D03*
Y1314340D02*
D03*
Y1263540D02*
D03*
X837800Y1365140D02*
D03*
Y1390540D02*
D03*
Y1415940D02*
D03*
Y1339740D02*
D03*
Y1314340D02*
D03*
X935000Y507500D02*
D03*
X1364250Y466450D02*
D03*
X870650Y599500D02*
D03*
X921450D02*
D03*
X896050D02*
D03*
X1285850Y558500D02*
D03*
X1387980Y589260D02*
D03*
X1362050Y558500D02*
D03*
X1396000Y493100D02*
D03*
Y457000D02*
D03*
X1364250Y491850D02*
D03*
X1313750Y415100D02*
D03*
X845250Y599500D02*
D03*
X935000Y482100D02*
D03*
X900750Y533000D02*
D03*
X1396000Y518500D02*
D03*
X1286380Y589260D02*
D03*
X1362580D02*
D03*
X1313750Y440500D02*
D03*
X946850Y599500D02*
D03*
X1311250Y558500D02*
D03*
X1364250Y441050D02*
D03*
X1311780Y589260D02*
D03*
X1396000Y431600D02*
D03*
X1337180Y589260D02*
D03*
X900750Y431400D02*
D03*
Y456800D02*
D03*
Y482200D02*
D03*
Y507600D02*
D03*
X1336650Y558500D02*
D03*
D26*
X1016750Y1441150D02*
D03*
X837800Y1441340D02*
D03*
X1396000Y543900D02*
D03*
X935000Y532900D02*
D03*
X900750Y406000D02*
D03*
X1364250Y415650D02*
D03*
X1313750Y465900D02*
D03*
X1396000Y406200D02*
D03*
D27*
X1345500Y1375500D02*
D03*
X1310500D02*
D03*
X1345500Y1400500D02*
D03*
X1310500D02*
D03*
X1159250Y1400750D02*
D03*
Y1375750D02*
D03*
X1124250Y1400750D02*
D03*
Y1375750D02*
D03*
D28*
X887850Y1210500D02*
D03*
X913250D02*
D03*
X862450D02*
D03*
X786250D02*
D03*
X811650D02*
D03*
X837050D02*
D03*
X989450D02*
D03*
X735450D02*
D03*
X760850D02*
D03*
X1368850Y1149550D02*
D03*
X1394250Y1124150D02*
D03*
X1368850Y1073350D02*
D03*
X737750Y1148500D02*
D03*
X763150Y1123100D02*
D03*
X737750Y1072300D02*
D03*
X938650Y1210500D02*
D03*
X726500Y480700D02*
D03*
Y455300D02*
D03*
Y531500D02*
D03*
Y556900D02*
D03*
X741250Y770950D02*
D03*
Y694750D02*
D03*
X726500Y658500D02*
D03*
Y429900D02*
D03*
Y404500D02*
D03*
Y582300D02*
D03*
Y506100D02*
D03*
Y607700D02*
D03*
X766650Y745550D02*
D03*
D29*
X964050Y1210500D02*
D03*
D30*
X763150Y1097700D02*
D03*
X1394250Y1098750D02*
D03*
X726500Y633100D02*
D03*
X766650Y720150D02*
D03*
D31*
X1260980Y589260D02*
D03*
X1260450Y558500D02*
D03*
X972250Y599500D02*
D03*
D32*
X1014250Y1070250D02*
D03*
X1035000Y1070750D02*
D03*
X796750Y1350250D02*
D03*
Y1393000D02*
D03*
X796500Y1413250D02*
D03*
X705000Y1181000D02*
D03*
X705250Y1200000D02*
D03*
X973500Y1395250D02*
D03*
Y1415000D02*
D03*
X855550Y1099550D02*
D03*
Y1152950D02*
D03*
X974000Y1353000D02*
D03*
X1337250Y1195500D02*
D03*
X933140Y1078350D02*
D03*
X908250Y1071750D02*
D03*
Y1089750D02*
D03*
X888000Y1071750D02*
D03*
Y1089750D02*
D03*
X817000Y1174750D02*
D03*
X817450Y1152950D02*
D03*
Y1099550D02*
D03*
X864250Y1455500D02*
D03*
Y1437500D02*
D03*
X706250Y1471250D02*
D03*
X725250D02*
D03*
X889250Y1116000D02*
D03*
X854500Y901250D02*
D03*
X872250D02*
D03*
X844250Y644750D02*
D03*
X1010250Y764750D02*
D03*
X1004077Y742808D02*
D03*
X978677Y709808D02*
D03*
X967000Y764750D02*
D03*
X1156500Y742750D02*
D03*
X1182000Y708500D02*
D03*
X1207500Y742250D02*
D03*
X1232750Y709250D02*
D03*
X1258500Y742750D02*
D03*
X1283500Y710250D02*
D03*
X1335500Y709000D02*
D03*
X1308500Y743500D02*
D03*
X1334250Y810500D02*
D03*
X1308500Y844000D02*
D03*
X1284000Y810500D02*
D03*
X1258750Y843500D02*
D03*
X1232500Y811250D02*
D03*
X1207750Y844250D02*
D03*
X1182250Y810500D02*
D03*
X1156750Y844750D02*
D03*
X1130750Y809750D02*
D03*
X1105500Y844500D02*
D03*
X1080500Y810500D02*
D03*
X1029500D02*
D03*
X1003750Y843750D02*
D03*
X979250Y810250D02*
D03*
X1206500Y576250D02*
D03*
X1186250Y575250D02*
D03*
X827250Y404250D02*
D03*
X760500Y404500D02*
D03*
X760250Y496000D02*
D03*
X772500Y520500D02*
D03*
X827000Y496250D02*
D03*
X852250Y537000D02*
D03*
X843500Y627250D02*
D03*
X768750Y641000D02*
D03*
X794750Y665250D02*
D03*
X790000Y688500D02*
D03*
X811250Y689000D02*
D03*
X831250Y688250D02*
D03*
X902500Y795500D02*
D03*
X801250Y763250D02*
D03*
X847750Y779500D02*
D03*
X781250Y830000D02*
D03*
X978750Y623500D02*
D03*
X959750Y631000D02*
D03*
X936500Y624250D02*
D03*
X946750Y660250D02*
D03*
X1111250Y690000D02*
D03*
X1127250Y589250D02*
D03*
X1109250Y582000D02*
D03*
X1073500Y522500D02*
D03*
X1073250Y540250D02*
D03*
X1133750Y396250D02*
D03*
X1113250Y395000D02*
D03*
X1253500Y426500D02*
D03*
X1230750Y443750D02*
D03*
X1231500Y523000D02*
D03*
X997000Y452500D02*
D03*
X1236250Y539500D02*
D03*
X982750Y493540D02*
D03*
X1008500Y420000D02*
D03*
X1186500Y484250D02*
D03*
X1156000Y505000D02*
D03*
X872500Y537250D02*
D03*
X1088000Y569500D02*
D03*
X1338750Y404750D02*
D03*
X1339750Y474250D02*
D03*
X1224750Y573750D02*
D03*
X1250250Y523250D02*
D03*
X1230500Y426250D02*
D03*
X1094500Y395250D02*
D03*
X1074500Y395750D02*
D03*
X1041500Y418750D02*
D03*
X792000Y642000D02*
D03*
X800500Y583000D02*
D03*
X782500D02*
D03*
X1200250Y771500D02*
D03*
X1169750Y494000D02*
D03*
X1155750Y478250D02*
D03*
X1027500Y509250D02*
D03*
X977500Y462750D02*
D03*
X958250Y481500D02*
D03*
X1235500Y459000D02*
D03*
X1271500Y470000D02*
D03*
X966250Y487000D02*
D03*
X1176750Y512750D02*
D03*
X986750Y457500D02*
D03*
X1156250Y406508D02*
D03*
X1088500Y794500D02*
D03*
X842250Y392500D02*
D03*
X1322250Y525250D02*
D03*
X1002000Y509750D02*
D03*
X1102000Y784750D02*
D03*
X1144500Y402008D02*
D03*
X953250Y401000D02*
D03*
X1170250Y521500D02*
D03*
X879750Y564500D02*
D03*
X810500Y564250D02*
D03*
X1076750Y776000D02*
D03*
X1126000Y390008D02*
D03*
X947750Y712250D02*
D03*
X947250Y678500D02*
D03*
X947750Y695250D02*
D03*
X1029000Y709500D02*
D03*
X1055000Y742250D02*
D03*
X913250Y895250D02*
D03*
X914000Y915750D02*
D03*
X894000Y895500D02*
D03*
X814000Y666000D02*
D03*
X815750Y641500D02*
D03*
X831250Y706500D02*
D03*
X811000D02*
D03*
X790250D02*
D03*
X825500Y745250D02*
D03*
X881500Y779500D02*
D03*
X781250Y848250D02*
D03*
X805500Y827000D02*
D03*
X806000Y849750D02*
D03*
X903500Y814000D02*
D03*
X872250Y816500D02*
D03*
X872000Y834750D02*
D03*
X1047250Y764000D02*
D03*
M02*
