G04*
G04 #@! TF.GenerationSoftware,Altium Limited,Altium Designer,26.4.1 (12)*
G04*
G04 Layer_Color=8421504*
%FSLAX44Y44*%
%MOMM*%
G71*
G04*
G04 #@! TF.SameCoordinates,DF97135C-EA84-44B9-BAFA-11E43E9B2FB1*
G04*
G04*
G04 #@! TF.FilePolarity,Positive*
G04*
G01*
G75*
%ADD14C,0.2540*%
%ADD15R,1.3500X1.0000*%
%ADD16R,1.0200X1.9000*%
%ADD17R,1.0000X1.3500*%
G04:AMPARAMS|DCode=18|XSize=1.22mm|YSize=0.6mm|CornerRadius=0.15mm|HoleSize=0mm|Usage=FLASHONLY|Rotation=90.000|XOffset=0mm|YOffset=0mm|HoleType=Round|Shape=RoundedRectangle|*
%AMROUNDEDRECTD18*
21,1,1.2200,0.3000,0,0,90.0*
21,1,0.9200,0.6000,0,0,90.0*
1,1,0.3000,0.1500,0.4600*
1,1,0.3000,0.1500,-0.4600*
1,1,0.3000,-0.1500,-0.4600*
1,1,0.3000,-0.1500,0.4600*
%
%ADD18ROUNDEDRECTD18*%
%ADD19R,0.9080X0.2548*%
%ADD20R,1.7526X1.5494*%
D14*
X918920Y877250D02*
D03*
X929080D02*
D03*
D15*
X931500Y835500D02*
D03*
Y853500D02*
D03*
X891250Y903750D02*
D03*
X950750Y851500D02*
D03*
X891250Y921750D02*
D03*
X898000Y860250D02*
D03*
Y878250D02*
D03*
X950750Y869500D02*
D03*
D16*
X1334277Y811408D02*
D03*
X1308877Y844408D02*
D03*
X1283477Y811408D02*
D03*
X1258077Y844408D02*
D03*
X1232677Y811408D02*
D03*
X1308877Y742808D02*
D03*
X1334277Y709808D02*
D03*
X1258077Y742808D02*
D03*
X1283477Y709808D02*
D03*
X1232677D02*
D03*
X1207277Y844408D02*
D03*
X1156477D02*
D03*
X1105677D02*
D03*
X1131077Y811408D02*
D03*
X1004077Y844408D02*
D03*
X978677Y811408D02*
D03*
X1207277Y742808D02*
D03*
X1181877Y811408D02*
D03*
X1156477Y742808D02*
D03*
X1181877Y709808D02*
D03*
X1080277Y811408D02*
D03*
X1029477D02*
D03*
X1004077Y742808D02*
D03*
X978677Y709808D02*
D03*
X1054877Y742808D02*
D03*
X1131077Y709808D02*
D03*
X1105677Y742808D02*
D03*
X1080277Y709808D02*
D03*
X1029477D02*
D03*
X1054877Y844408D02*
D03*
D17*
X968500Y928000D02*
D03*
X950500D02*
D03*
X987250Y867750D02*
D03*
X969250D02*
D03*
D18*
X920250Y902800D02*
D03*
X910750Y927700D02*
D03*
X929750D02*
D03*
Y902800D02*
D03*
X910750D02*
D03*
D19*
X1170516Y785675D02*
D03*
X1141624Y770675D02*
D03*
X1170516Y780675D02*
D03*
Y770675D02*
D03*
Y775675D02*
D03*
X1141624D02*
D03*
Y780675D02*
D03*
Y785675D02*
D03*
D20*
X1156070Y778175D02*
D03*
M02*
