G04*
G04 #@! TF.GenerationSoftware,Altium Limited,Altium Designer,26.4.1 (12)*
G04*
G04 Layer_Color=16711935*
%FSLAX44Y44*%
%MOMM*%
G71*
G04*
G04 #@! TF.SameCoordinates,DF97135C-EA84-44B9-BAFA-11E43E9B2FB1*
G04*
G04*
G04 #@! TF.FilePolarity,Negative*
G04*
G01*
G75*
%ADD14C,0.2540*%
%ADD21C,0.7366*%
%ADD22C,0.2540*%
%ADD23C,0.2794*%
%ADD24R,1.5532X1.2032*%
%ADD26R,1.2032X1.5532*%
%ADD28R,1.7272X1.7272*%
%ADD29C,1.7272*%
%ADD30C,2.0032*%
%ADD31R,2.0032X2.0032*%
%ADD32C,1.9050*%
%ADD33R,2.0032X2.0032*%
%ADD34R,1.7272X1.7272*%
%ADD35C,0.8032*%
%ADD56R,0.8588X0.8508*%
%ADD57R,0.8508X0.8588*%
%ADD62R,1.8542X0.6604*%
%ADD71R,1.5748X0.6096*%
%ADD72R,1.7032X0.5032*%
%ADD73R,0.5032X1.7032*%
%ADD74R,1.1332X1.0132*%
%ADD75R,3.4540X2.3540*%
%ADD76R,1.1540X2.3540*%
G04:AMPARAMS|DCode=77|XSize=1.7832mm|YSize=0.8032mm|CornerRadius=0.1766mm|HoleSize=0mm|Usage=FLASHONLY|Rotation=90.000|XOffset=0mm|YOffset=0mm|HoleType=Round|Shape=RoundedRectangle|*
%AMROUNDEDRECTD77*
21,1,1.7832,0.4500,0,0,90.0*
21,1,1.4300,0.8032,0,0,90.0*
1,1,0.3532,0.2250,0.7150*
1,1,0.3532,0.2250,-0.7150*
1,1,0.3532,-0.2250,-0.7150*
1,1,0.3532,-0.2250,0.7150*
%
%ADD77ROUNDEDRECTD77*%
%ADD78R,8.7040X8.2040*%
%ADD79R,4.3532X4.8532*%
%ADD80R,5.2932X6.5232*%
%ADD81R,1.7032X1.4032*%
G04:AMPARAMS|DCode=82|XSize=3.2232mm|YSize=1.1732mm|CornerRadius=0.3441mm|HoleSize=0mm|Usage=FLASHONLY|Rotation=90.000|XOffset=0mm|YOffset=0mm|HoleType=Round|Shape=RoundedRectangle|*
%AMROUNDEDRECTD82*
21,1,3.2232,0.4850,0,0,90.0*
21,1,2.5350,1.1732,0,0,90.0*
1,1,0.6882,0.2425,1.2675*
1,1,0.6882,0.2425,-1.2675*
1,1,0.6882,-0.2425,-1.2675*
1,1,0.6882,-0.2425,1.2675*
%
%ADD82ROUNDEDRECTD82*%
%ADD83R,1.6032X2.3032*%
%ADD84R,1.5732X2.6332*%
G36*
X874920Y842270D02*
X875051Y842243D01*
X875177Y842201D01*
X875296Y842142D01*
X875407Y842068D01*
X875507Y841980D01*
X875595Y841880D01*
X875669Y841769D01*
X875669Y841768D01*
X880375D01*
Y807732D01*
X875669D01*
X875669Y807731D01*
X875595Y807620D01*
X875507Y807520D01*
X875407Y807432D01*
X875296Y807358D01*
X875177Y807299D01*
X875051Y807256D01*
X874920Y807231D01*
X874787Y807222D01*
X856245D01*
X856112Y807231D01*
X855982Y807256D01*
X855855Y807299D01*
X855736Y807358D01*
X855625Y807432D01*
X855525Y807520D01*
X855437Y807620D01*
X855363Y807731D01*
X855363Y807732D01*
X851673D01*
Y841768D01*
X855363D01*
X855363Y841769D01*
X855437Y841880D01*
X855525Y841980D01*
X855625Y842068D01*
X855736Y842142D01*
X855855Y842201D01*
X855982Y842243D01*
X856112Y842270D01*
X856245Y842278D01*
X874787D01*
X874920Y842270D01*
D02*
G37*
D14*
X811330Y1437250D02*
D03*
X810330Y1331000D02*
D03*
X800170D02*
D03*
X978170Y1437000D02*
D03*
X978920Y1374250D02*
D03*
Y1331750D02*
D03*
X801420Y1374000D02*
D03*
X801170Y1437250D02*
D03*
X811580Y1374000D02*
D03*
X988330Y1437000D02*
D03*
X989080Y1331750D02*
D03*
Y1374250D02*
D03*
D21*
X811600Y1331000D02*
G03*
X811600Y1331000I-3810J0D01*
G01*
X806520D02*
G03*
X806520Y1331000I-3810J0D01*
G01*
X812850Y1374000D02*
G03*
X812850Y1374000I-3810J0D01*
G01*
X807770D02*
G03*
X807770Y1374000I-3810J0D01*
G01*
X812600Y1437250D02*
G03*
X812600Y1437250I-3810J0D01*
G01*
X807520D02*
G03*
X807520Y1437250I-3810J0D01*
G01*
X989600Y1437000D02*
G03*
X989600Y1437000I-3810J0D01*
G01*
X984520D02*
G03*
X984520Y1437000I-3810J0D01*
G01*
X990350Y1331750D02*
G03*
X990350Y1331750I-3810J0D01*
G01*
X985270D02*
G03*
X985270Y1331750I-3810J0D01*
G01*
X990350Y1374250D02*
G03*
X990350Y1374250I-3810J0D01*
G01*
X985270D02*
G03*
X985270Y1374250I-3810J0D01*
G01*
D22*
X802960Y1324779D02*
X807665D01*
X804210Y1367779D02*
X808915D01*
X803960Y1431029D02*
X808665D01*
X980960Y1430779D02*
X985665D01*
X981710Y1325529D02*
X986415D01*
X981710Y1368029D02*
X986415D01*
D23*
X802710Y1337096D02*
X807790D01*
X803960Y1380096D02*
X809040D01*
X803710Y1443346D02*
X808790D01*
X980710Y1443096D02*
X985790D01*
X981460Y1337846D02*
X986540D01*
X981460Y1380346D02*
X986540D01*
D24*
X1130000Y579750D02*
D03*
X1110000D02*
D03*
Y561750D02*
D03*
X1130000D02*
D03*
X1322500Y458750D02*
D03*
X1321750Y405500D02*
D03*
X1011250Y572750D02*
D03*
X852000Y544000D02*
D03*
X999000Y536500D02*
D03*
X992250Y397000D02*
D03*
X844250Y645000D02*
D03*
X886250Y1160000D02*
D03*
Y1142000D02*
D03*
X705250Y1200000D02*
D03*
X864250Y1437500D02*
D03*
X790250Y1168750D02*
D03*
X705250Y1182000D02*
D03*
X790250Y1129500D02*
D03*
X789750Y1073000D02*
D03*
X864250Y1455500D02*
D03*
X790250Y1150750D02*
D03*
Y1111500D02*
D03*
X789750Y1091000D02*
D03*
X790250Y704000D02*
D03*
Y686000D02*
D03*
X831750Y703500D02*
D03*
Y685500D02*
D03*
X811000Y703750D02*
D03*
Y685750D02*
D03*
X802750Y544000D02*
D03*
X827500Y543750D02*
D03*
X844250Y627000D02*
D03*
X992250Y415000D02*
D03*
X999000Y518500D02*
D03*
X799750Y758750D02*
D03*
X765250Y821250D02*
D03*
X947500Y660750D02*
D03*
X866750Y763750D02*
D03*
X1034000Y573000D02*
D03*
X765250Y839250D02*
D03*
X1034000Y555000D02*
D03*
X802750Y526000D02*
D03*
X1011250Y590750D02*
D03*
X852000Y526000D02*
D03*
X827500Y525750D02*
D03*
X1321750Y423500D02*
D03*
X1322500Y440750D02*
D03*
X968000Y417500D02*
D03*
Y399500D02*
D03*
X799750Y776750D02*
D03*
X866500Y725500D02*
D03*
X866750Y781750D02*
D03*
X947500Y678750D02*
D03*
X866500Y743500D02*
D03*
D26*
X872250Y901250D02*
D03*
X1184750Y496000D02*
D03*
X1010000Y764500D02*
D03*
X966500Y765000D02*
D03*
X1184000Y529250D02*
D03*
X1165000Y425750D02*
D03*
X1011750Y398750D02*
D03*
X1028000Y764500D02*
D03*
X984500Y765000D02*
D03*
X815000Y1415250D02*
D03*
X797000D02*
D03*
X796500Y1352750D02*
D03*
X797000Y1394750D02*
D03*
X973500Y1415500D02*
D03*
Y1395250D02*
D03*
X974000Y1353000D02*
D03*
X814500Y1352750D02*
D03*
X1333750Y1269000D02*
D03*
X1351750D02*
D03*
X1045250Y1189000D02*
D03*
X1045000Y1165000D02*
D03*
X724750Y1471500D02*
D03*
X1027250Y1189000D02*
D03*
X1027000Y1165000D02*
D03*
X706750Y1471500D02*
D03*
X795250Y666000D02*
D03*
X843500Y773250D02*
D03*
X854250Y901250D02*
D03*
X1029750Y398750D02*
D03*
X1183000Y425750D02*
D03*
X1183000Y445250D02*
D03*
X1166000Y529250D02*
D03*
X1053750Y588000D02*
D03*
X813250Y666000D02*
D03*
X1165000Y445250D02*
D03*
X1071750Y588000D02*
D03*
X1166750Y496000D02*
D03*
X825500Y773250D02*
D03*
X815000Y1394750D02*
D03*
X992000Y1353000D02*
D03*
X991500Y1395250D02*
D03*
Y1415500D02*
D03*
D28*
X1389750Y531500D02*
D03*
X937000Y439200D02*
D03*
X899000Y412750D02*
D03*
X837800Y1441340D02*
D03*
X1389750Y435100D02*
D03*
X1348500Y409800D02*
D03*
X1290000Y435250D02*
D03*
X1016750Y1441150D02*
D03*
D29*
X1348500Y460600D02*
D03*
X870650Y599500D02*
D03*
X837800Y1415940D02*
D03*
X889750Y1263350D02*
D03*
X710800Y1263540D02*
D03*
X889750Y1288750D02*
D03*
X710800Y1288940D02*
D03*
X837800Y1365140D02*
D03*
Y1390540D02*
D03*
X710800Y1415940D02*
D03*
X837800Y1263540D02*
D03*
Y1288940D02*
D03*
Y1339740D02*
D03*
Y1314340D02*
D03*
X710800Y1339740D02*
D03*
Y1365140D02*
D03*
Y1314340D02*
D03*
Y1390540D02*
D03*
X710800Y1441340D02*
D03*
X889750Y1415750D02*
D03*
X889750Y1441150D02*
D03*
X1016750Y1288750D02*
D03*
Y1263350D02*
D03*
X899000Y539750D02*
D03*
X845250Y599500D02*
D03*
X937000Y490000D02*
D03*
X1290000Y486050D02*
D03*
X1389750Y485900D02*
D03*
X1348500Y486000D02*
D03*
X1389750Y582300D02*
D03*
X1242650Y582500D02*
D03*
X1268050D02*
D03*
X899000Y514350D02*
D03*
X1242650Y541500D02*
D03*
X937000Y464600D02*
D03*
X1290000Y460650D02*
D03*
X1389750Y556900D02*
D03*
X1389750Y460500D02*
D03*
X1293450Y582500D02*
D03*
X1268050Y541500D02*
D03*
X1318850Y582500D02*
D03*
Y541500D02*
D03*
X1293450D02*
D03*
X1217250Y582500D02*
D03*
X899000Y488950D02*
D03*
Y463550D02*
D03*
Y438150D02*
D03*
X896050Y599500D02*
D03*
X921450D02*
D03*
X946850D02*
D03*
X1348500Y435200D02*
D03*
X1016750Y1314150D02*
D03*
Y1339550D02*
D03*
Y1364950D02*
D03*
Y1390350D02*
D03*
Y1415750D02*
D03*
X889750Y1314150D02*
D03*
Y1364950D02*
D03*
Y1339550D02*
D03*
Y1390350D02*
D03*
D30*
X726750Y458300D02*
D03*
X989450Y1210500D02*
D03*
X735450D02*
D03*
X760850D02*
D03*
X786250D02*
D03*
X1357000Y1298500D02*
D03*
Y1374700D02*
D03*
X1331600Y1323900D02*
D03*
X739000Y1151250D02*
D03*
X764400Y1125850D02*
D03*
X739000Y1075050D02*
D03*
X811650Y1210500D02*
D03*
X837050D02*
D03*
X862450D02*
D03*
X726750Y407500D02*
D03*
Y432900D02*
D03*
Y661500D02*
D03*
X741250Y694750D02*
D03*
Y770950D02*
D03*
X766650Y745550D02*
D03*
X726750Y534500D02*
D03*
Y559900D02*
D03*
Y483700D02*
D03*
Y509100D02*
D03*
Y610700D02*
D03*
Y585300D02*
D03*
X938650Y1210500D02*
D03*
X913250D02*
D03*
X887850D02*
D03*
D31*
X1331600Y1349300D02*
D03*
X764400Y1100450D02*
D03*
X766650Y720150D02*
D03*
X726750Y636100D02*
D03*
D32*
X1137750Y1411750D02*
D03*
X1172750D02*
D03*
X1137750Y1436750D02*
D03*
X1172750D02*
D03*
X1341750Y1437000D02*
D03*
Y1412000D02*
D03*
X1306750Y1437000D02*
D03*
Y1412000D02*
D03*
D33*
X964050Y1210500D02*
D03*
D34*
X1344250Y582500D02*
D03*
Y541500D02*
D03*
X972250Y599500D02*
D03*
D35*
X949250Y560500D02*
D03*
X1340001Y850001D02*
D03*
X1345001Y840001D02*
D03*
X1340001Y830000D02*
D03*
X1345001Y820000D02*
D03*
Y800000D02*
D03*
X1340001Y790000D02*
D03*
X1345001Y780000D02*
D03*
X1340001Y770000D02*
D03*
X1345001Y760000D02*
D03*
X1340001Y750000D02*
D03*
X1345001Y740000D02*
D03*
X1340001Y730000D02*
D03*
X1345001Y720000D02*
D03*
X1330001Y850001D02*
D03*
X1335001Y840001D02*
D03*
X1330001Y830000D02*
D03*
Y790000D02*
D03*
X1335001Y780000D02*
D03*
X1330001Y770000D02*
D03*
X1335001Y760000D02*
D03*
X1330001Y750000D02*
D03*
X1335001Y740000D02*
D03*
X1330001Y730000D02*
D03*
X1320001Y850001D02*
D03*
X1325001Y840001D02*
D03*
X1320001Y830000D02*
D03*
Y810000D02*
D03*
X1325001Y800000D02*
D03*
X1320001Y790000D02*
D03*
X1325001Y780000D02*
D03*
X1320001Y770000D02*
D03*
X1325001Y760000D02*
D03*
X1320001Y750000D02*
D03*
X1325001Y740000D02*
D03*
X1320001Y730000D02*
D03*
Y710000D02*
D03*
X1310001Y830000D02*
D03*
X1315001Y820000D02*
D03*
X1310001Y810000D02*
D03*
X1315001Y800000D02*
D03*
X1310001Y790000D02*
D03*
X1315001Y780000D02*
D03*
X1310001Y770000D02*
D03*
X1315001Y760000D02*
D03*
Y720000D02*
D03*
X1310001Y710000D02*
D03*
X1300001Y830000D02*
D03*
X1305001Y820000D02*
D03*
X1300001Y810000D02*
D03*
X1305001Y800000D02*
D03*
X1300001Y790000D02*
D03*
X1305001Y780000D02*
D03*
X1300001Y770000D02*
D03*
X1305001Y760000D02*
D03*
X1300001Y730000D02*
D03*
X1305001Y720000D02*
D03*
X1300001Y710000D02*
D03*
X1290001Y850001D02*
D03*
X1295001Y840001D02*
D03*
X1290001Y830000D02*
D03*
X1295001Y820000D02*
D03*
Y800000D02*
D03*
X1290001Y790000D02*
D03*
X1295001Y780000D02*
D03*
X1290001Y770000D02*
D03*
X1295001Y760000D02*
D03*
X1290001Y750000D02*
D03*
X1295001Y740000D02*
D03*
X1290001Y730000D02*
D03*
X1295001Y720000D02*
D03*
X1280001Y850001D02*
D03*
X1285001Y840001D02*
D03*
X1280001Y830000D02*
D03*
Y790000D02*
D03*
X1285001Y780000D02*
D03*
X1280001Y770000D02*
D03*
X1285001Y760000D02*
D03*
X1280001Y750000D02*
D03*
X1285001Y740000D02*
D03*
X1280001Y730000D02*
D03*
X1270001Y850001D02*
D03*
X1275001Y840001D02*
D03*
X1270001Y830000D02*
D03*
Y810000D02*
D03*
Y790000D02*
D03*
X1275001Y780000D02*
D03*
X1270001Y770000D02*
D03*
X1275001Y760000D02*
D03*
X1270001Y750000D02*
D03*
X1275001Y740000D02*
D03*
X1270001Y730000D02*
D03*
Y710000D02*
D03*
X1260001Y830000D02*
D03*
X1265001Y820000D02*
D03*
X1260001Y810000D02*
D03*
X1265001Y800000D02*
D03*
X1260001Y790000D02*
D03*
X1265001Y780000D02*
D03*
X1260001Y770000D02*
D03*
X1265001Y760000D02*
D03*
Y720000D02*
D03*
X1260001Y710000D02*
D03*
X1250001Y830000D02*
D03*
X1255001Y820000D02*
D03*
X1250001Y810000D02*
D03*
X1255001Y800000D02*
D03*
X1250001Y790000D02*
D03*
X1255001Y780000D02*
D03*
X1250001Y770000D02*
D03*
X1255001Y760000D02*
D03*
X1250001Y730000D02*
D03*
X1255001Y720000D02*
D03*
X1250001Y710000D02*
D03*
X1240001Y850001D02*
D03*
X1245001Y840001D02*
D03*
X1240001Y830000D02*
D03*
X1245001Y820000D02*
D03*
Y800000D02*
D03*
X1240001Y790000D02*
D03*
X1245001Y780000D02*
D03*
X1240001Y770000D02*
D03*
X1245001Y760000D02*
D03*
X1240001Y750000D02*
D03*
X1245001Y740000D02*
D03*
X1240001Y730000D02*
D03*
X1245001Y720000D02*
D03*
X1230001Y850001D02*
D03*
X1235001Y840001D02*
D03*
X1230001Y830000D02*
D03*
Y790000D02*
D03*
X1235001Y780000D02*
D03*
X1230001Y770000D02*
D03*
X1235001Y760000D02*
D03*
X1230001Y750000D02*
D03*
X1235001Y740000D02*
D03*
X1230001Y730000D02*
D03*
X1220001Y850001D02*
D03*
X1225001Y840001D02*
D03*
X1220001Y830000D02*
D03*
Y810000D02*
D03*
X1225001Y780000D02*
D03*
Y760000D02*
D03*
X1220001Y750000D02*
D03*
X1225001Y740000D02*
D03*
X1220001Y730000D02*
D03*
Y710000D02*
D03*
X1210001Y830000D02*
D03*
X1215001Y820000D02*
D03*
X1210001Y810000D02*
D03*
X1215001Y720000D02*
D03*
X1210001Y710000D02*
D03*
X1200001Y830000D02*
D03*
X1205001Y820000D02*
D03*
X1200001Y810000D02*
D03*
X1205001Y720000D02*
D03*
X1200001Y710000D02*
D03*
X1190001Y850001D02*
D03*
X1195001Y840001D02*
D03*
X1190001Y830000D02*
D03*
X1195001Y820000D02*
D03*
Y740000D02*
D03*
X1190001Y730000D02*
D03*
X1195001Y720000D02*
D03*
X1180001Y850001D02*
D03*
X1185001Y840001D02*
D03*
X1180001Y830000D02*
D03*
Y730000D02*
D03*
X1170001Y850001D02*
D03*
X1175001Y840001D02*
D03*
X1170001Y830000D02*
D03*
Y810000D02*
D03*
Y750000D02*
D03*
Y710000D02*
D03*
X1160001Y830000D02*
D03*
X1165001Y820000D02*
D03*
X1160001Y810000D02*
D03*
Y710000D02*
D03*
X1150001Y830000D02*
D03*
X1155001Y820000D02*
D03*
X1150001Y810000D02*
D03*
Y490000D02*
D03*
X1140001Y850001D02*
D03*
X1145001Y840001D02*
D03*
X1140001Y830000D02*
D03*
X1145001Y820000D02*
D03*
X1130001Y850001D02*
D03*
X1135001Y840001D02*
D03*
X1130001Y830000D02*
D03*
X1120001Y850001D02*
D03*
X1125001Y840001D02*
D03*
X1120001Y830000D02*
D03*
Y810000D02*
D03*
Y490000D02*
D03*
X1110001Y830000D02*
D03*
X1115001Y820000D02*
D03*
X1110001Y810000D02*
D03*
Y490000D02*
D03*
X1100001Y830000D02*
D03*
X1105001Y820000D02*
D03*
X1100001Y810000D02*
D03*
Y490000D02*
D03*
X1090001Y830000D02*
D03*
X1095001Y820000D02*
D03*
X1090001Y810000D02*
D03*
Y490000D02*
D03*
X1080001Y830000D02*
D03*
Y490000D02*
D03*
X1070001Y810000D02*
D03*
Y490000D02*
D03*
X1065001Y860001D02*
D03*
Y840001D02*
D03*
X1060001Y830000D02*
D03*
X1065001Y820000D02*
D03*
X1060001Y810000D02*
D03*
X1055001Y860001D02*
D03*
X1050001Y830000D02*
D03*
X1055001Y820000D02*
D03*
X1050001Y810000D02*
D03*
X1045001Y860001D02*
D03*
X1040001Y830000D02*
D03*
X1045001Y820000D02*
D03*
X1040001Y810000D02*
D03*
X1035001Y860001D02*
D03*
X1030001Y830000D02*
D03*
X1025001Y860001D02*
D03*
X1020001Y830000D02*
D03*
Y810000D02*
D03*
X1015001Y840001D02*
D03*
X1010001Y830000D02*
D03*
X1015001Y820000D02*
D03*
X1010001Y810000D02*
D03*
X1000001Y830000D02*
D03*
X1005001Y820000D02*
D03*
X1000001Y810000D02*
D03*
X995001Y880001D02*
D03*
X990001Y850001D02*
D03*
Y830000D02*
D03*
X995001Y820000D02*
D03*
X990001Y810000D02*
D03*
X980001Y890001D02*
D03*
X985001Y880001D02*
D03*
X980001Y850001D02*
D03*
X985001Y840001D02*
D03*
X980001Y830000D02*
D03*
X975001Y900001D02*
D03*
X970001Y890001D02*
D03*
X975001Y880001D02*
D03*
X970001Y850001D02*
D03*
X975001Y840001D02*
D03*
X970001Y830000D02*
D03*
Y550000D02*
D03*
X975001Y540000D02*
D03*
X965001Y900001D02*
D03*
X960001Y890001D02*
D03*
X965001Y880001D02*
D03*
Y840001D02*
D03*
X960001Y830000D02*
D03*
X965001Y820000D02*
D03*
X960001Y810000D02*
D03*
X965001Y560000D02*
D03*
Y540000D02*
D03*
X955001Y900001D02*
D03*
X950001Y890001D02*
D03*
X955001Y840001D02*
D03*
X950001Y830000D02*
D03*
X955001Y820000D02*
D03*
X950001Y810000D02*
D03*
X945001Y900001D02*
D03*
Y840001D02*
D03*
Y820000D02*
D03*
X940001Y810000D02*
D03*
X930001Y890001D02*
D03*
X935001Y820000D02*
D03*
X930001Y810000D02*
D03*
X920001Y930001D02*
D03*
Y890001D02*
D03*
Y830000D02*
D03*
X925001Y820000D02*
D03*
X920001Y810000D02*
D03*
Y790000D02*
D03*
Y770000D02*
D03*
Y730000D02*
D03*
Y710000D02*
D03*
Y690000D02*
D03*
Y670000D02*
D03*
Y650000D02*
D03*
X910001Y870001D02*
D03*
Y850001D02*
D03*
X900001Y890001D02*
D03*
Y850001D02*
D03*
X905001Y840001D02*
D03*
X900001Y830000D02*
D03*
X905001Y820000D02*
D03*
X900001Y810000D02*
D03*
X905001Y800000D02*
D03*
X900001Y790000D02*
D03*
X905001Y780000D02*
D03*
X900001Y770000D02*
D03*
X905001Y760000D02*
D03*
X900001Y750000D02*
D03*
X905001Y720000D02*
D03*
X900001Y710000D02*
D03*
X905001Y700000D02*
D03*
X900001Y690000D02*
D03*
X905001Y680000D02*
D03*
X900001Y670000D02*
D03*
X905001Y660000D02*
D03*
X900001Y650000D02*
D03*
X905001Y640000D02*
D03*
X900001Y630000D02*
D03*
X890001Y890001D02*
D03*
Y850001D02*
D03*
X895001Y840001D02*
D03*
X968750Y927750D02*
D03*
X1340001Y850001D02*
D03*
X1330001D02*
D03*
X1335001Y840001D02*
D03*
X1325001D02*
D03*
X1320001Y850001D02*
D03*
X1345001Y840001D02*
D03*
X1340001Y830000D02*
D03*
X1345001Y820000D02*
D03*
X1330001Y830000D02*
D03*
X1320001D02*
D03*
X1295001Y840001D02*
D03*
X1290001Y850001D02*
D03*
X1285001Y840001D02*
D03*
X1290001Y830000D02*
D03*
X1310001D02*
D03*
X1305001Y820000D02*
D03*
X1315001D02*
D03*
X1300001Y830000D02*
D03*
X1295001Y820000D02*
D03*
X1345001Y800000D02*
D03*
X1320001Y810000D02*
D03*
X1315001Y800000D02*
D03*
X1325001D02*
D03*
X1340001Y790000D02*
D03*
X1330001D02*
D03*
X1325001Y780000D02*
D03*
X1320001Y790000D02*
D03*
X1315001Y780000D02*
D03*
X1310001Y810000D02*
D03*
X1300001D02*
D03*
X1305001Y800000D02*
D03*
X1295001D02*
D03*
X1280001Y790000D02*
D03*
X1310001D02*
D03*
X1300001D02*
D03*
X1295001Y780000D02*
D03*
X1290001Y790000D02*
D03*
X1285001Y780000D02*
D03*
X1280001Y850001D02*
D03*
X1270001D02*
D03*
X1275001Y840001D02*
D03*
X1270001Y830000D02*
D03*
X1280001D02*
D03*
X1240001Y850001D02*
D03*
X1235001Y840001D02*
D03*
X1245001D02*
D03*
X1230001Y850001D02*
D03*
X1220001D02*
D03*
X1225001Y840001D02*
D03*
X1260001Y830000D02*
D03*
X1250001D02*
D03*
X1255001Y820000D02*
D03*
X1230001Y830000D02*
D03*
X1240001D02*
D03*
X1265001Y820000D02*
D03*
X1260001Y810000D02*
D03*
X1270001Y790000D02*
D03*
Y810000D02*
D03*
X1265001Y780000D02*
D03*
Y800000D02*
D03*
X1260001Y790000D02*
D03*
X1250001Y810000D02*
D03*
X1245001Y800000D02*
D03*
X1255001D02*
D03*
X1245001Y820000D02*
D03*
X1230001Y790000D02*
D03*
X1250001D02*
D03*
X1240001D02*
D03*
X1245001Y780000D02*
D03*
X1225001D02*
D03*
X1235001D02*
D03*
X1345001D02*
D03*
X1340001Y770000D02*
D03*
X1335001Y760000D02*
D03*
Y780000D02*
D03*
X1330001Y770000D02*
D03*
X1325001Y760000D02*
D03*
X1345001D02*
D03*
X1340001Y750000D02*
D03*
X1345001Y740000D02*
D03*
X1330001Y750000D02*
D03*
X1320001D02*
D03*
X1335001Y740000D02*
D03*
X1310001Y770000D02*
D03*
X1305001Y780000D02*
D03*
X1320001Y770000D02*
D03*
X1300001D02*
D03*
X1290001D02*
D03*
X1295001Y760000D02*
D03*
X1315001D02*
D03*
X1305001D02*
D03*
X1290001Y750000D02*
D03*
X1295001Y740000D02*
D03*
X1340001Y730000D02*
D03*
X1330001D02*
D03*
X1325001Y740000D02*
D03*
X1320001Y730000D02*
D03*
X1345001Y720000D02*
D03*
X1320001Y710000D02*
D03*
X1290001Y730000D02*
D03*
X1300001D02*
D03*
X1315001Y720000D02*
D03*
X1305001D02*
D03*
X1310001Y710000D02*
D03*
X1295001Y720000D02*
D03*
X1300001Y710000D02*
D03*
X1275001Y780000D02*
D03*
X1270001Y770000D02*
D03*
X1280001D02*
D03*
X1260001D02*
D03*
X1255001Y760000D02*
D03*
X1265001D02*
D03*
X1285001D02*
D03*
X1275001D02*
D03*
X1280001Y750000D02*
D03*
X1270001D02*
D03*
X1255001Y780000D02*
D03*
X1240001Y770000D02*
D03*
X1250001D02*
D03*
X1230001D02*
D03*
X1225001Y760000D02*
D03*
X1235001D02*
D03*
X1245001D02*
D03*
X1230001Y750000D02*
D03*
X1240001D02*
D03*
X1220001D02*
D03*
X1225001Y740000D02*
D03*
X1285001D02*
D03*
X1275001D02*
D03*
X1280001Y730000D02*
D03*
X1270001D02*
D03*
X1265001Y720000D02*
D03*
X1270001Y710000D02*
D03*
X1245001Y740000D02*
D03*
X1240001Y730000D02*
D03*
X1250001D02*
D03*
X1235001Y740000D02*
D03*
X1220001Y730000D02*
D03*
X1230001D02*
D03*
X1255001Y720000D02*
D03*
X1250001Y710000D02*
D03*
X1260001D02*
D03*
X1245001Y720000D02*
D03*
X1190001Y850001D02*
D03*
X1180001D02*
D03*
X1170001D02*
D03*
X1195001Y840001D02*
D03*
X1185001D02*
D03*
X1190001Y830000D02*
D03*
X1175001Y840001D02*
D03*
X1145001D02*
D03*
X1140001Y830000D02*
D03*
X1130001Y850001D02*
D03*
X1120001D02*
D03*
X1140001D02*
D03*
X1135001Y840001D02*
D03*
X1125001D02*
D03*
X1130001Y830000D02*
D03*
X1210001D02*
D03*
X1200001D02*
D03*
X1220001D02*
D03*
X1170001D02*
D03*
X1160001D02*
D03*
X1180001D02*
D03*
X1205001Y820000D02*
D03*
X1195001D02*
D03*
X1215001D02*
D03*
X1155001D02*
D03*
X1165001D02*
D03*
X1120001Y830000D02*
D03*
X1110001D02*
D03*
X1150001D02*
D03*
X1090001D02*
D03*
X1080001D02*
D03*
X1100001D02*
D03*
X1145001Y820000D02*
D03*
X1115001D02*
D03*
X1095001D02*
D03*
X1105001D02*
D03*
X872250Y901250D02*
D03*
X1055001Y820000D02*
D03*
X1045001D02*
D03*
X1065001D02*
D03*
X1015001D02*
D03*
X1005001D02*
D03*
X995001D02*
D03*
X1220001Y810000D02*
D03*
X1210001D02*
D03*
X1200001D02*
D03*
X1195001Y740000D02*
D03*
Y720000D02*
D03*
X1215001D02*
D03*
X1210001Y710000D02*
D03*
X1220001D02*
D03*
X1205001Y720000D02*
D03*
X1200001Y710000D02*
D03*
X1170001Y810000D02*
D03*
Y750000D02*
D03*
X1160001Y810000D02*
D03*
X1150001D02*
D03*
X1190001Y730000D02*
D03*
X1180001D02*
D03*
X1160001Y710000D02*
D03*
X1170001D02*
D03*
X1130250Y579750D02*
D03*
X1050001Y810000D02*
D03*
X1060001D02*
D03*
X1020001D02*
D03*
X1040001D02*
D03*
X1110001D02*
D03*
X1100001D02*
D03*
X1120001D02*
D03*
X1070001D02*
D03*
X1090001D02*
D03*
X1010001D02*
D03*
X1000001D02*
D03*
X990001D02*
D03*
X1010250Y764750D02*
D03*
X967000D02*
D03*
X1110000Y578750D02*
D03*
X1114500Y503250D02*
D03*
X1004077Y742808D02*
D03*
X978677Y709808D02*
D03*
X1028000Y764000D02*
D03*
X984750Y764500D02*
D03*
X1173500Y563500D02*
D03*
X948000Y713750D02*
D03*
X948750Y695250D02*
D03*
X1200250Y771500D02*
D03*
X1184500Y529500D02*
D03*
X1321750Y404750D02*
D03*
X1164660Y425750D02*
D03*
X1011250Y572000D02*
D03*
X959750Y631000D02*
D03*
X851750Y543750D02*
D03*
X999000Y536000D02*
D03*
X1011750Y398500D02*
D03*
X992250Y397000D02*
D03*
X946000Y399250D02*
D03*
X780000Y600000D02*
D03*
X785000Y610000D02*
D03*
X780000Y620000D02*
D03*
Y640000D02*
D03*
X790000Y600000D02*
D03*
X795000Y610000D02*
D03*
X790000Y620000D02*
D03*
X800000Y600000D02*
D03*
X805000Y610000D02*
D03*
X800000Y620000D02*
D03*
X815000Y590000D02*
D03*
X810000Y600000D02*
D03*
X815000Y610000D02*
D03*
X820000Y580000D02*
D03*
X825000Y590000D02*
D03*
X820000Y600000D02*
D03*
X825000Y610000D02*
D03*
X830000Y580000D02*
D03*
X835000Y590000D02*
D03*
X830000Y600000D02*
D03*
X835000Y610000D02*
D03*
X830000Y620000D02*
D03*
X840001Y580000D02*
D03*
X865001Y610000D02*
D03*
X860001Y640000D02*
D03*
X865001Y650000D02*
D03*
X870001Y580000D02*
D03*
Y620000D02*
D03*
X875001Y630000D02*
D03*
X880001Y580000D02*
D03*
X1322750Y458750D02*
D03*
X950750Y928250D02*
D03*
X891250Y921750D02*
D03*
X1055000Y742250D02*
D03*
X910750Y927700D02*
D03*
X972500Y1300500D02*
D03*
X958500Y1314500D02*
D03*
X944750Y1328250D02*
D03*
X973500Y1395250D02*
D03*
Y1415000D02*
D03*
X1070250Y519750D02*
D03*
X1093750Y497250D02*
D03*
X1069250Y399500D02*
D03*
X1085250Y794000D02*
D03*
X1015001Y1180001D02*
D03*
X1010001Y1170001D02*
D03*
X1015001Y1160001D02*
D03*
X1005001Y1180001D02*
D03*
X1000001Y1170001D02*
D03*
X1005001Y1160001D02*
D03*
X990001Y1170001D02*
D03*
X995001Y1160001D02*
D03*
X980001Y1170001D02*
D03*
X985001Y1160001D02*
D03*
X970001Y1170001D02*
D03*
X975001Y1160001D02*
D03*
X970001Y1150001D02*
D03*
X950001Y1170001D02*
D03*
Y1150001D02*
D03*
X875001Y800000D02*
D03*
X865001D02*
D03*
X850001Y830000D02*
D03*
Y810000D02*
D03*
X855000Y800000D02*
D03*
X840001Y830000D02*
D03*
X845000Y820000D02*
D03*
X830000Y830000D02*
D03*
X835000Y820000D02*
D03*
X820000Y830000D02*
D03*
X825000Y820000D02*
D03*
X815000D02*
D03*
X825000Y670000D02*
D03*
X815000Y850001D02*
D03*
X785000D02*
D03*
X775000D02*
D03*
Y810000D02*
D03*
X770000Y800000D02*
D03*
X775000Y790000D02*
D03*
X770000Y780000D02*
D03*
X775000Y770000D02*
D03*
X770000Y760000D02*
D03*
Y700000D02*
D03*
X775000Y690000D02*
D03*
X765000Y850001D02*
D03*
Y810000D02*
D03*
X760000Y800000D02*
D03*
X765000Y790000D02*
D03*
X760000Y780000D02*
D03*
X765000Y770000D02*
D03*
X760000Y760000D02*
D03*
Y700000D02*
D03*
X765000Y690000D02*
D03*
X755000Y850001D02*
D03*
X750000Y840001D02*
D03*
X755000Y830000D02*
D03*
X750000Y820000D02*
D03*
X755000Y810000D02*
D03*
X750000Y800000D02*
D03*
X755000Y790000D02*
D03*
Y770000D02*
D03*
X750000Y760000D02*
D03*
Y740000D02*
D03*
Y720000D02*
D03*
X755000Y690000D02*
D03*
X745000Y850001D02*
D03*
X740000Y840001D02*
D03*
X745000Y830000D02*
D03*
X740000Y820000D02*
D03*
X745000Y810000D02*
D03*
X740000Y800000D02*
D03*
X745000Y790000D02*
D03*
Y750000D02*
D03*
X740000Y740000D02*
D03*
X745000Y730000D02*
D03*
X740000Y720000D02*
D03*
X745000Y710000D02*
D03*
X735000Y850001D02*
D03*
X730000Y840001D02*
D03*
X735000Y830000D02*
D03*
X730000Y820000D02*
D03*
X735000Y810000D02*
D03*
X730000Y800000D02*
D03*
X735000Y790000D02*
D03*
X730000Y780000D02*
D03*
Y760000D02*
D03*
X735000Y750000D02*
D03*
X730000Y740000D02*
D03*
X735000Y730000D02*
D03*
X730000Y720000D02*
D03*
X735000Y710000D02*
D03*
X725000Y850001D02*
D03*
X720000Y840001D02*
D03*
X725000Y830000D02*
D03*
X720000Y820000D02*
D03*
X725000Y810000D02*
D03*
X720000Y800000D02*
D03*
X725000Y790000D02*
D03*
X720000Y780000D02*
D03*
X725000Y770000D02*
D03*
X720000Y760000D02*
D03*
X725000Y750000D02*
D03*
X720000Y740000D02*
D03*
X725000Y730000D02*
D03*
X720000Y720000D02*
D03*
X725000Y710000D02*
D03*
X720000Y700000D02*
D03*
X725000Y690000D02*
D03*
X1056750Y443250D02*
D03*
X984250Y569000D02*
D03*
X933250Y555750D02*
D03*
X971099Y497000D02*
D03*
X921500Y561750D02*
D03*
X840000Y554750D02*
D03*
X900000Y561250D02*
D03*
X962000Y477000D02*
D03*
X932750Y526250D02*
D03*
X815836Y740500D02*
D03*
X851000Y1120750D02*
D03*
X797500Y1415250D02*
D03*
X796750Y1394500D02*
D03*
X974000Y1353000D02*
D03*
X817450Y1152950D02*
D03*
Y1099550D02*
D03*
X796500Y1352750D02*
D03*
X705250Y1200000D02*
D03*
X806250Y408000D02*
D03*
X789000Y1304000D02*
D03*
X775500Y1318000D02*
D03*
X762000Y1331750D02*
D03*
X1200001Y1250001D02*
D03*
Y1230001D02*
D03*
Y1210001D02*
D03*
Y1190001D02*
D03*
Y1170001D02*
D03*
Y1150001D02*
D03*
Y1130001D02*
D03*
Y1110001D02*
D03*
Y1090001D02*
D03*
Y1070001D02*
D03*
X1190001Y1250001D02*
D03*
X1195001Y1240001D02*
D03*
X1190001Y1230001D02*
D03*
X1195001Y1220001D02*
D03*
X1190001Y1210001D02*
D03*
X1195001Y1200001D02*
D03*
X1190001Y1190001D02*
D03*
X1195001Y1180001D02*
D03*
X1190001Y1170001D02*
D03*
X1195001Y1160001D02*
D03*
X1190001Y1150001D02*
D03*
X1195001Y1140001D02*
D03*
X1190001Y1130001D02*
D03*
X1195001Y1120001D02*
D03*
X1190001Y1110001D02*
D03*
X1195001Y1100001D02*
D03*
X1190001Y1090001D02*
D03*
X1195001Y1080001D02*
D03*
X1190001Y1070001D02*
D03*
X1180001Y1250001D02*
D03*
X1185001Y1240001D02*
D03*
X1180001Y1230001D02*
D03*
X1185001Y1220001D02*
D03*
X1180001Y1210001D02*
D03*
X1185001Y1200001D02*
D03*
X1180001Y1190001D02*
D03*
X1185001Y1180001D02*
D03*
X1180001Y1170001D02*
D03*
X1185001Y1160001D02*
D03*
X1180001Y1150001D02*
D03*
X1185001Y1140001D02*
D03*
X1180001Y1130001D02*
D03*
X1185001Y1120001D02*
D03*
X1180001Y1110001D02*
D03*
X1185001Y1100001D02*
D03*
X1180001Y1090001D02*
D03*
X1185001Y1080001D02*
D03*
X1180001Y1070001D02*
D03*
X1170001Y1250001D02*
D03*
X1175001Y1240001D02*
D03*
X1170001Y1230001D02*
D03*
X1175001Y1220001D02*
D03*
X1170001Y1210001D02*
D03*
X1175001Y1200001D02*
D03*
X1170001Y1190001D02*
D03*
X1175001Y1180001D02*
D03*
X1170001Y1170001D02*
D03*
X1175001Y1160001D02*
D03*
X1170001Y1150001D02*
D03*
X1175001Y1140001D02*
D03*
X1170001Y1130001D02*
D03*
X1175001Y1120001D02*
D03*
X1170001Y1110001D02*
D03*
X1175001Y1100001D02*
D03*
X1170001Y1090001D02*
D03*
X1175001Y1080001D02*
D03*
X1170001Y1070001D02*
D03*
X1160001Y1250001D02*
D03*
X1165001Y1240001D02*
D03*
X1160001Y1230001D02*
D03*
X1165001Y1220001D02*
D03*
X1160001Y1210001D02*
D03*
X1165001Y1200001D02*
D03*
X1160001Y1190001D02*
D03*
X1165001Y1180001D02*
D03*
X1160001Y1170001D02*
D03*
X1165001Y1160001D02*
D03*
X1160001Y1150001D02*
D03*
X1165001Y1140001D02*
D03*
X1160001Y1130001D02*
D03*
X1165001Y1120001D02*
D03*
X1160001Y1110001D02*
D03*
X1165001Y1100001D02*
D03*
X1160001Y1090001D02*
D03*
X1165001Y1080001D02*
D03*
X1160001Y1070001D02*
D03*
X1150001Y1250001D02*
D03*
X1155001Y1160001D02*
D03*
X1150001Y1150001D02*
D03*
X1155001Y1140001D02*
D03*
X1150001Y1130001D02*
D03*
X1155001Y1120001D02*
D03*
X1150001Y1110001D02*
D03*
X1155001Y1100001D02*
D03*
X1150001Y1090001D02*
D03*
X1155001Y1080001D02*
D03*
X1150001Y1070001D02*
D03*
X1140001Y1250001D02*
D03*
Y1150001D02*
D03*
X1145001Y1140001D02*
D03*
X1140001Y1130001D02*
D03*
X1145001Y1120001D02*
D03*
X1140001Y1110001D02*
D03*
X1145001Y1100001D02*
D03*
X1140001Y1090001D02*
D03*
X1145001Y1080001D02*
D03*
X1140001Y1070001D02*
D03*
X1130001Y1250001D02*
D03*
Y1150001D02*
D03*
X1135001Y1140001D02*
D03*
X1130001Y1130001D02*
D03*
X1135001Y1120001D02*
D03*
X1130001Y1110001D02*
D03*
X1135001Y1100001D02*
D03*
X1130001Y1090001D02*
D03*
X1135001Y1080001D02*
D03*
X1130001Y1070001D02*
D03*
X1120001Y1250001D02*
D03*
Y1150001D02*
D03*
X1125001Y1140001D02*
D03*
X1120001Y1130001D02*
D03*
X1125001Y1120001D02*
D03*
X1120001Y1110001D02*
D03*
X1125001Y1100001D02*
D03*
X1120001Y1090001D02*
D03*
X1125001Y1080001D02*
D03*
X1120001Y1070001D02*
D03*
X1110001Y1250001D02*
D03*
Y1150001D02*
D03*
X1115001Y1140001D02*
D03*
X1110001Y1130001D02*
D03*
X1115001Y1120001D02*
D03*
X1110001Y1110001D02*
D03*
X1115001Y1100001D02*
D03*
X1110001Y1090001D02*
D03*
X1115001Y1080001D02*
D03*
X1110001Y1070001D02*
D03*
X1100001Y1250001D02*
D03*
Y1150001D02*
D03*
X1105001Y1140001D02*
D03*
X1100001Y1130001D02*
D03*
X1105001Y1120001D02*
D03*
X1100001Y1110001D02*
D03*
X1105001Y1100001D02*
D03*
X1100001Y1090001D02*
D03*
X1105001Y1080001D02*
D03*
X1100001Y1070001D02*
D03*
X1090001Y1250001D02*
D03*
Y1150001D02*
D03*
X1095001Y1140001D02*
D03*
X1090001Y1130001D02*
D03*
X1095001Y1120001D02*
D03*
X1090001Y1110001D02*
D03*
X1095001Y1100001D02*
D03*
X1090001Y1090001D02*
D03*
X1095001Y1080001D02*
D03*
X1090001Y1070001D02*
D03*
X1080001Y1250001D02*
D03*
Y1150001D02*
D03*
X1085001Y1140001D02*
D03*
X1080001Y1130001D02*
D03*
X1085001Y1120001D02*
D03*
X1080001Y1110001D02*
D03*
X1085001Y1100001D02*
D03*
X1080001Y1090001D02*
D03*
X1085001Y1080001D02*
D03*
X1080001Y1070001D02*
D03*
X1070001Y1250001D02*
D03*
Y1150001D02*
D03*
X1075001Y1140001D02*
D03*
X1070001Y1130001D02*
D03*
X1075001Y1120001D02*
D03*
X1070001Y1110001D02*
D03*
X1075001Y1100001D02*
D03*
X1070001Y1090001D02*
D03*
X1075001Y1080001D02*
D03*
X1070001Y1070001D02*
D03*
X1065001Y1120001D02*
D03*
X1060001Y1110001D02*
D03*
X1065001Y1100001D02*
D03*
X1060001Y1090001D02*
D03*
X1065001Y1080001D02*
D03*
X1060001Y1070001D02*
D03*
X1050001D02*
D03*
X1040001D02*
D03*
X1030001D02*
D03*
X1020001D02*
D03*
X1010001D02*
D03*
X1005001Y1120001D02*
D03*
X1000001Y1110001D02*
D03*
X1005001Y1100001D02*
D03*
X1000001Y1090001D02*
D03*
X1005001Y1080001D02*
D03*
X1000001Y1070001D02*
D03*
X995001Y1120001D02*
D03*
X990001Y1110001D02*
D03*
X995001Y1100001D02*
D03*
X990001Y1090001D02*
D03*
X995001Y1080001D02*
D03*
X990001Y1070001D02*
D03*
X985001Y1120001D02*
D03*
X980001Y1110001D02*
D03*
X985001Y1100001D02*
D03*
X980001Y1090001D02*
D03*
X985001Y1080001D02*
D03*
X980001Y1070001D02*
D03*
X975001Y1120001D02*
D03*
X970001Y1110001D02*
D03*
X975001Y1100001D02*
D03*
X970001Y1090001D02*
D03*
X975001Y1080001D02*
D03*
X970001Y1070001D02*
D03*
X905001Y1120001D02*
D03*
X900001Y1110001D02*
D03*
X905001Y1100001D02*
D03*
X900001Y1090001D02*
D03*
X905001Y1080001D02*
D03*
X900001Y1070001D02*
D03*
X895001Y1120001D02*
D03*
X890001Y1110001D02*
D03*
X895001Y1100001D02*
D03*
X890001Y1090001D02*
D03*
X895001Y1080001D02*
D03*
X890001Y1070001D02*
D03*
X864250Y1437500D02*
D03*
X1351750Y1269000D02*
D03*
X1045250Y1189000D02*
D03*
Y1165000D02*
D03*
X1045000Y1137250D02*
D03*
X1025250Y1137000D02*
D03*
X790500Y1168750D02*
D03*
X725250Y1471250D02*
D03*
X705000Y1181000D02*
D03*
X789750Y1129500D02*
D03*
X789500Y1073500D02*
D03*
X1027750Y1188250D02*
D03*
X1026750Y1165500D02*
D03*
X960860Y1159650D02*
D03*
X864250Y1455500D02*
D03*
X855550Y1152950D02*
D03*
Y1099550D02*
D03*
X790500Y1150500D02*
D03*
X706250Y1471250D02*
D03*
X790500Y1111000D02*
D03*
X789750Y1091000D02*
D03*
X806250Y498750D02*
D03*
X873000Y408500D02*
D03*
X827500Y543000D02*
D03*
X803000Y544250D02*
D03*
X843500Y627250D02*
D03*
X999250Y518250D02*
D03*
X978750Y623500D02*
D03*
X768750Y641000D02*
D03*
X794750Y665250D02*
D03*
X789750Y685750D02*
D03*
X765000Y821500D02*
D03*
X799750Y758250D02*
D03*
X946750Y660250D02*
D03*
X811250Y686000D02*
D03*
X831250Y685500D02*
D03*
X844000Y774000D02*
D03*
X854500Y901250D02*
D03*
X866000Y763500D02*
D03*
X1030500Y398500D02*
D03*
X1182500Y425750D02*
D03*
X1183090Y445390D02*
D03*
X1165750Y529250D02*
D03*
X1034000Y573000D02*
D03*
X1053500Y587500D02*
D03*
X1111250Y690000D02*
D03*
X872750Y499750D02*
D03*
X1045250Y446750D02*
D03*
X1203500Y424000D02*
D03*
X1046000Y394250D02*
D03*
X1215750Y424000D02*
D03*
X989250Y460000D02*
D03*
X1076750Y776000D02*
D03*
X989750Y438000D02*
D03*
X989500Y449250D02*
D03*
X1058500Y396000D02*
D03*
X1227750Y423750D02*
D03*
X1101500Y519257D02*
D03*
X852250Y526000D02*
D03*
X1240250Y423500D02*
D03*
X1238500Y457250D02*
D03*
X1150750Y541000D02*
D03*
X1102000Y784750D02*
D03*
X1115000Y472000D02*
D03*
X936500Y624250D02*
D03*
X1115250Y517500D02*
D03*
X968000Y417500D02*
D03*
X1080250Y449250D02*
D03*
X947250Y678500D02*
D03*
X1029000Y709500D02*
D03*
D56*
X1154706Y564000D02*
D03*
X1173294D02*
D03*
D57*
X947750Y713750D02*
D03*
Y695162D02*
D03*
D62*
X799984Y824750D02*
D03*
Y801763D02*
D03*
Y847737D02*
D03*
D71*
X836664Y749650D02*
D03*
X815836Y740500D02*
D03*
X836664Y731350D02*
D03*
D72*
X1135000Y502000D02*
D03*
Y492000D02*
D03*
Y507000D02*
D03*
Y442000D02*
D03*
X1021000Y517000D02*
D03*
Y512000D02*
D03*
X1135000Y447000D02*
D03*
Y512000D02*
D03*
X1021000Y467000D02*
D03*
X1135000Y487000D02*
D03*
X1021000Y462000D02*
D03*
Y482000D02*
D03*
Y502000D02*
D03*
Y457000D02*
D03*
Y477000D02*
D03*
X1135000Y517000D02*
D03*
Y497000D02*
D03*
Y482000D02*
D03*
Y477000D02*
D03*
Y472000D02*
D03*
Y467000D02*
D03*
Y457000D02*
D03*
Y452000D02*
D03*
X1021000Y442000D02*
D03*
Y447000D02*
D03*
Y452000D02*
D03*
Y472000D02*
D03*
Y487000D02*
D03*
Y492000D02*
D03*
Y507000D02*
D03*
Y497000D02*
D03*
X1135000Y462000D02*
D03*
D73*
X1095500Y536500D02*
D03*
X1100500D02*
D03*
X1040500Y422500D02*
D03*
X1045500D02*
D03*
X1075500D02*
D03*
X1080500D02*
D03*
X1090500D02*
D03*
X1095500D02*
D03*
X1040500Y536500D02*
D03*
X1045500D02*
D03*
X1050500D02*
D03*
X1055500D02*
D03*
X1060500D02*
D03*
X1065500D02*
D03*
X1075500D02*
D03*
X1080500D02*
D03*
X1085500D02*
D03*
X1090500D02*
D03*
X1105500D02*
D03*
X1115500D02*
D03*
X1110500Y422500D02*
D03*
X1105500D02*
D03*
X1100500D02*
D03*
X1085500D02*
D03*
X1070500D02*
D03*
X1065500D02*
D03*
X1060500D02*
D03*
X1055500D02*
D03*
X1050500D02*
D03*
X1115500D02*
D03*
X1070500Y536500D02*
D03*
X1110500D02*
D03*
D74*
X945750Y399650D02*
D03*
Y415850D02*
D03*
D75*
X792250Y584000D02*
D03*
D76*
Y642000D02*
D03*
X815250D02*
D03*
X769250D02*
D03*
D77*
X817450Y1099550D02*
D03*
Y1152950D02*
D03*
X855550D02*
D03*
Y1099550D02*
D03*
X830150Y1152950D02*
D03*
X842850D02*
D03*
Y1099550D02*
D03*
X830150D02*
D03*
D78*
X1281750Y1204250D02*
D03*
X1111750D02*
D03*
D79*
X1034900Y1099750D02*
D03*
D80*
X938000Y1094350D02*
D03*
D81*
X1044750Y1137250D02*
D03*
X1025050D02*
D03*
D82*
X960860Y1159650D02*
D03*
X915140D02*
D03*
D83*
X806500Y408500D02*
D03*
X873000D02*
D03*
Y499500D02*
D03*
X806500D02*
D03*
X761000D02*
D03*
Y408500D02*
D03*
X827500Y499500D02*
D03*
Y408500D02*
D03*
D84*
X1054250Y562500D02*
D03*
X1072250D02*
D03*
M02*
