G04*
G04 #@! TF.GenerationSoftware,Altium Limited,Altium Designer,26.4.1 (12)*
G04*
G04 Layer_Physical_Order=1*
G04 Layer_Color=255*
%FSLAX44Y44*%
%MOMM*%
G71*
G04*
G04 #@! TF.SameCoordinates,DF97135C-EA84-44B9-BAFA-11E43E9B2FB1*
G04*
G04*
G04 #@! TF.FilePolarity,Positive*
G04*
G01*
G75*
%ADD12C,0.1524*%
%ADD14C,0.2540*%
%ADD15R,1.3500X1.0000*%
%ADD16R,1.0200X1.9000*%
%ADD17R,1.0000X1.3500*%
G04:AMPARAMS|DCode=18|XSize=1.22mm|YSize=0.6mm|CornerRadius=0.15mm|HoleSize=0mm|Usage=FLASHONLY|Rotation=90.000|XOffset=0mm|YOffset=0mm|HoleType=Round|Shape=RoundedRectangle|*
%AMROUNDEDRECTD18*
21,1,1.2200,0.3000,0,0,90.0*
21,1,0.9200,0.6000,0,0,90.0*
1,1,0.3000,0.1500,0.4600*
1,1,0.3000,0.1500,-0.4600*
1,1,0.3000,-0.1500,-0.4600*
1,1,0.3000,-0.1500,0.4600*
%
%ADD18ROUNDEDRECTD18*%
%ADD19R,0.9080X0.2548*%
%ADD20R,1.7526X1.5494*%
%ADD22C,0.2540*%
%ADD32C,1.9050*%
%ADD36C,0.3000*%
%ADD37C,1.0000*%
%ADD38R,1.5240X1.5240*%
%ADD39C,1.5240*%
%ADD40C,1.8000*%
%ADD41R,1.8000X1.8000*%
%ADD42R,1.8000X1.8000*%
%ADD43R,1.5240X1.5240*%
%ADD44C,0.6000*%
G36*
X1313750Y1058750D02*
X883500D01*
Y1129250D01*
X1062750D01*
Y1366500D01*
X1313750D01*
Y1058750D01*
D02*
G37*
G36*
X925791Y936665D02*
X926087Y934463D01*
X925424Y933471D01*
X925191Y932300D01*
Y924667D01*
X910983Y910459D01*
X909250D01*
X908080Y910226D01*
X907087Y909563D01*
X906424Y908570D01*
X906191Y907400D01*
Y898200D01*
X906424Y897029D01*
X907087Y896037D01*
X907691Y895633D01*
Y887017D01*
X905424Y884750D01*
X889750D01*
Y871750D01*
X906250D01*
Y874191D01*
X915867D01*
X916882Y872672D01*
X918982Y871268D01*
X919606Y871144D01*
X920264Y868974D01*
X914599Y863309D01*
X906250D01*
Y866750D01*
X889750D01*
Y853750D01*
X906250D01*
Y857191D01*
X915866D01*
X915866Y857191D01*
X917036Y857424D01*
X918029Y858087D01*
X924174Y864232D01*
X926021Y863467D01*
Y860000D01*
X923250D01*
Y851326D01*
X909837Y837913D01*
X909174Y836920D01*
X908941Y835750D01*
X908941Y835750D01*
Y608950D01*
X908941Y608950D01*
X909174Y607780D01*
X909837Y606787D01*
X913190Y603434D01*
X912952Y603020D01*
X912330Y600701D01*
Y598299D01*
X912952Y595980D01*
X914152Y593900D01*
X915850Y592202D01*
X917930Y591002D01*
X920249Y590380D01*
X922651D01*
X924970Y591002D01*
X925384Y591240D01*
X953691Y562933D01*
Y538926D01*
X953691Y538926D01*
X953924Y537756D01*
X954587Y536763D01*
X996263Y495087D01*
X997256Y494424D01*
X998426Y494191D01*
X998426Y494191D01*
X1090445D01*
X1091201Y493435D01*
X1092855Y492750D01*
X1094645D01*
X1096299Y493435D01*
X1097565Y494701D01*
X1098250Y496355D01*
Y498145D01*
X1097565Y499799D01*
X1096299Y501065D01*
X1094645Y501750D01*
X1092855D01*
X1091201Y501065D01*
X1090445Y500309D01*
X999693D01*
X959809Y540193D01*
Y564200D01*
X959809Y564200D01*
X959576Y565370D01*
X958913Y566363D01*
X929710Y595566D01*
X929949Y595980D01*
X930570Y598299D01*
Y600701D01*
X929949Y603020D01*
X928748Y605100D01*
X927050Y606798D01*
X924970Y607999D01*
X922651Y608620D01*
X920249D01*
X917930Y607999D01*
X917516Y607760D01*
X915059Y610217D01*
Y834483D01*
X927576Y847000D01*
X939750D01*
Y860000D01*
X932139D01*
Y874200D01*
X932522Y874772D01*
X933014Y877250D01*
X932522Y879728D01*
X931118Y881828D01*
X929018Y883232D01*
X926540Y883724D01*
Y883705D01*
X925568Y883302D01*
X925165Y882330D01*
Y878075D01*
X922835D01*
Y882330D01*
X922432Y883302D01*
X921460Y883705D01*
Y883724D01*
X918982Y883232D01*
X916882Y881828D01*
X915867Y880309D01*
X912248D01*
X911482Y882157D01*
X912913Y883587D01*
X912913Y883587D01*
X913576Y884579D01*
X913809Y885750D01*
Y895633D01*
X914413Y896037D01*
X915076Y897029D01*
X915309Y898200D01*
Y902012D01*
X917309Y902209D01*
X917424Y901629D01*
X918087Y900637D01*
X919080Y899974D01*
X920250Y899741D01*
X921421Y899974D01*
X922413Y900637D01*
X923076Y901629D01*
X923191Y902209D01*
X925191Y902012D01*
Y898200D01*
X925424Y897029D01*
X926087Y896037D01*
X927079Y895374D01*
X928250Y895141D01*
X929983D01*
X938687Y886437D01*
X938687Y886437D01*
X939591Y885833D01*
X947424Y878000D01*
X947047Y876000D01*
X942500D01*
Y863000D01*
X959000D01*
Y864691D01*
X962750D01*
Y859500D01*
X975750D01*
Y876000D01*
X962750D01*
Y870809D01*
X959000D01*
Y876000D01*
X953809D01*
Y879000D01*
X953809Y879000D01*
X953576Y880171D01*
X952913Y881163D01*
X943313Y890763D01*
X942409Y891367D01*
X934309Y899467D01*
Y907400D01*
X934076Y908570D01*
X933494Y909441D01*
X933635Y910093D01*
X934202Y911441D01*
X956750D01*
X956750Y911441D01*
X957921Y911674D01*
X958913Y912337D01*
X961992Y915416D01*
X964577Y915173D01*
X1011750Y868000D01*
X1068250D01*
Y830500D01*
X1068250D01*
Y856500D01*
X1350750D01*
Y698250D01*
X1350500Y698000D01*
X1149500D01*
Y757250D01*
X1219750D01*
Y799250D01*
X964482D01*
X963000Y800500D01*
X927000D01*
Y615900D01*
X940651Y589871D01*
X948250Y581500D01*
X983250Y547250D01*
Y521088D01*
X998412Y506500D01*
X1042466D01*
X1042579Y506424D01*
X1043750Y506191D01*
X1043750Y506191D01*
X1107000D01*
X1107000Y506191D01*
X1108170Y506424D01*
X1108284Y506500D01*
X1153500D01*
X1185000Y506500D01*
Y487000D01*
X1000175D01*
X983912Y503263D01*
X983712Y503562D01*
X950000Y537274D01*
Y553648D01*
X944559Y559089D01*
Y562500D01*
X944559Y562500D01*
X944326Y563671D01*
X943663Y564663D01*
X927163Y581163D01*
X926171Y581826D01*
X925000Y582059D01*
X925000Y582059D01*
X921589D01*
X911074Y592574D01*
X906110Y604890D01*
X897500Y617750D01*
X894000Y631250D01*
Y647750D01*
X893875Y647875D01*
Y760625D01*
X893750Y760750D01*
Y836500D01*
X880250Y850000D01*
Y852000D01*
Y898191D01*
X888750D01*
X888750Y898191D01*
X889921Y898424D01*
X890913Y899087D01*
X893413Y901587D01*
X894076Y902579D01*
X894309Y903750D01*
X894076Y904921D01*
X893413Y905913D01*
X892421Y906576D01*
X891250Y906809D01*
X890079Y906576D01*
X889087Y905913D01*
X887483Y904309D01*
X880250D01*
Y929500D01*
X887750Y937000D01*
X906547D01*
X906791Y936665D01*
X907087Y934463D01*
X906424Y933471D01*
X906191Y932300D01*
Y923100D01*
X906424Y921929D01*
X907087Y920937D01*
X908080Y920274D01*
X909250Y920041D01*
X912250D01*
X913420Y920274D01*
X914413Y920937D01*
X915076Y921929D01*
X915309Y923100D01*
Y932300D01*
X915076Y933471D01*
X914413Y934463D01*
X914709Y936665D01*
X914953Y937000D01*
X925547D01*
X925791Y936665D01*
D02*
G37*
G36*
X921710Y872295D02*
X918673Y872702D01*
X916750Y874625D01*
Y879875D01*
X919330Y882455D01*
X921710D01*
X921710Y872295D01*
D02*
G37*
G36*
X929577Y881923D02*
X931500Y880000D01*
Y874750D01*
X928920Y872170D01*
X926540D01*
X926540Y882330D01*
X929577Y881923D01*
D02*
G37*
%LPC*%
G36*
X899500Y928250D02*
X883000D01*
Y915250D01*
X899500D01*
Y928250D01*
D02*
G37*
G36*
X950650Y855072D02*
X949461Y854966D01*
X948404Y854413D01*
X947638Y853497D01*
X947281Y852358D01*
X947387Y851169D01*
X947941Y850112D01*
X948368Y849581D01*
X949284Y848816D01*
X950423Y848459D01*
X951611Y848565D01*
X952669Y849118D01*
X953434Y850034D01*
X953791Y851173D01*
X953685Y852361D01*
X953132Y853419D01*
X952704Y853950D01*
X951789Y854715D01*
X950650Y855072D01*
D02*
G37*
G36*
X1105500Y847559D02*
X1104329Y847326D01*
X1103337Y846663D01*
X1103245Y846571D01*
X1102582Y845578D01*
X1102349Y844408D01*
X1102582Y843237D01*
X1103245Y842245D01*
X1104237Y841582D01*
X1105408Y841349D01*
X1106578Y841582D01*
X1107571Y842245D01*
X1107663Y842337D01*
X1108326Y843329D01*
X1108559Y844500D01*
X1108326Y845670D01*
X1107663Y846663D01*
X1106671Y847326D01*
X1105500Y847559D01*
D02*
G37*
G36*
X1207750Y847309D02*
X1206580Y847076D01*
X1205587Y846413D01*
X1204924Y845421D01*
X1204691Y844250D01*
X1204924Y843080D01*
X1205587Y842087D01*
X1206337Y841337D01*
X1207329Y840674D01*
X1208500Y840441D01*
X1209671Y840674D01*
X1210663Y841337D01*
X1211326Y842329D01*
X1211559Y843500D01*
X1211326Y844670D01*
X1210663Y845663D01*
X1209913Y846413D01*
X1208921Y847076D01*
X1207750Y847309D01*
D02*
G37*
G36*
X1258077Y847467D02*
X1256907Y847234D01*
X1255914Y846571D01*
X1255251Y845578D01*
X1255018Y844408D01*
Y840008D01*
X1255251Y838837D01*
X1255914Y837845D01*
X1256907Y837182D01*
X1258077Y836949D01*
X1259248Y837182D01*
X1260240Y837845D01*
X1260903Y838837D01*
X1261136Y840008D01*
Y841560D01*
X1261413Y841837D01*
X1262076Y842830D01*
X1262309Y844000D01*
X1262076Y845171D01*
X1261413Y846163D01*
X1260421Y846826D01*
X1259620Y846985D01*
X1259248Y847234D01*
X1258077Y847467D01*
D02*
G37*
G36*
X993750Y876000D02*
X980750D01*
Y859500D01*
X993750D01*
Y864691D01*
X1000483D01*
X1022929Y842245D01*
X1023922Y841582D01*
X1025092Y841349D01*
X1025092Y841349D01*
X1048277D01*
Y833408D01*
X1061477D01*
Y855408D01*
X1048277D01*
Y847467D01*
X1026359D01*
X1003913Y869913D01*
X1002921Y870576D01*
X1001750Y870809D01*
X1001750Y870809D01*
X993750D01*
Y876000D01*
D02*
G37*
G36*
X1308500Y847059D02*
X1307330Y846826D01*
X1306337Y846163D01*
X1305674Y845171D01*
X1305441Y844000D01*
Y840385D01*
X1305441Y840385D01*
X1305674Y839214D01*
X1306337Y838222D01*
X1310314Y834245D01*
X1311307Y833582D01*
X1312477Y833349D01*
X1313648Y833582D01*
X1314640Y834245D01*
X1315303Y835237D01*
X1315536Y836408D01*
X1315303Y837578D01*
X1314640Y838571D01*
X1311559Y841652D01*
Y844000D01*
X1311326Y845171D01*
X1310663Y846163D01*
X1309671Y846826D01*
X1308500Y847059D01*
D02*
G37*
G36*
X931500Y838559D02*
X929750D01*
X928579Y838326D01*
X927587Y837663D01*
X926924Y836671D01*
X926691Y835500D01*
X926924Y834329D01*
X927587Y833337D01*
X928579Y832674D01*
X929750Y832441D01*
X931500D01*
X932671Y832674D01*
X933663Y833337D01*
X934326Y834329D01*
X934559Y835500D01*
X934326Y836671D01*
X933663Y837663D01*
X932671Y838326D01*
X931500Y838559D01*
D02*
G37*
G36*
X963750Y830500D02*
Y830300D01*
X963933Y830490D01*
X963750Y830500D01*
D02*
G37*
G36*
X982277Y822467D02*
X981107Y822234D01*
X980114Y821571D01*
X980114Y821571D01*
X976514Y817971D01*
X975851Y816978D01*
X975618Y815808D01*
X975618Y815808D01*
Y811408D01*
X975851Y810237D01*
X976514Y809245D01*
X977507Y808582D01*
X978677Y808349D01*
X979848Y808582D01*
X980840Y809245D01*
X981503Y810237D01*
X981736Y811408D01*
Y814541D01*
X983561Y816366D01*
X984648Y816582D01*
X985640Y817245D01*
X986303Y818237D01*
X986536Y819408D01*
X986303Y820578D01*
X985640Y821571D01*
X984648Y822234D01*
X983477Y822467D01*
X982277D01*
X982277Y822467D01*
D02*
G37*
G36*
X1025877Y823889D02*
X1024707Y823657D01*
X1023714Y822993D01*
X1023051Y822001D01*
X1022818Y820831D01*
Y815008D01*
X1022818Y815008D01*
X1023051Y813837D01*
X1023714Y812845D01*
X1027314Y809245D01*
X1028307Y808582D01*
X1029477Y808349D01*
X1030648Y808582D01*
X1031640Y809245D01*
X1032303Y810237D01*
X1032536Y811408D01*
X1032303Y812578D01*
X1031640Y813571D01*
X1028936Y816275D01*
Y820831D01*
X1028703Y822001D01*
X1028040Y822993D01*
X1027048Y823657D01*
X1025877Y823889D01*
D02*
G37*
G36*
X1334250Y818894D02*
X1333080Y818661D01*
X1332087Y817998D01*
X1331424Y817005D01*
X1331191Y815835D01*
Y810500D01*
X1331424Y809330D01*
X1332087Y808337D01*
X1333080Y807674D01*
X1334250Y807441D01*
X1335421Y807674D01*
X1336413Y808337D01*
X1337076Y809330D01*
X1337309Y810500D01*
Y815835D01*
X1337076Y817005D01*
X1336413Y817998D01*
X1335421Y818661D01*
X1334250Y818894D01*
D02*
G37*
G36*
X1279877Y822467D02*
X1279877Y822467D01*
X1278677D01*
X1277507Y822234D01*
X1276514Y821571D01*
X1275851Y820578D01*
X1275618Y819408D01*
X1275851Y818237D01*
X1276514Y817245D01*
X1277507Y816582D01*
X1278594Y816366D01*
X1280418Y814541D01*
Y807008D01*
X1280651Y805837D01*
X1281314Y804845D01*
X1282307Y804182D01*
X1283477Y803949D01*
X1284648Y804182D01*
X1285640Y804845D01*
X1286303Y805837D01*
X1286536Y807008D01*
Y815808D01*
X1286536Y815808D01*
X1286303Y816978D01*
X1285640Y817971D01*
X1285640Y817971D01*
X1282040Y821571D01*
X1281048Y822234D01*
X1279877Y822467D01*
D02*
G37*
G36*
X1308500Y746559D02*
X1307330Y746326D01*
X1306337Y745663D01*
X1305587Y744913D01*
X1304924Y743921D01*
X1304691Y742750D01*
X1304924Y741580D01*
X1305441Y740805D01*
Y738785D01*
X1305674Y737614D01*
X1306337Y736622D01*
X1307330Y735959D01*
X1308500Y735726D01*
X1309671Y735959D01*
X1310663Y736622D01*
X1311326Y737614D01*
X1311559Y738785D01*
Y743500D01*
X1311559Y743500D01*
X1311326Y744670D01*
X1310663Y745663D01*
X1309671Y746326D01*
X1308500Y746559D01*
D02*
G37*
G36*
X1258077Y745866D02*
X1256907Y745634D01*
X1255914Y744971D01*
X1255251Y743978D01*
X1255018Y742808D01*
Y738408D01*
X1255251Y737237D01*
X1255914Y736245D01*
X1256907Y735582D01*
X1258077Y735349D01*
X1259248Y735582D01*
X1260240Y736245D01*
X1260903Y737237D01*
X1261136Y738408D01*
Y742808D01*
X1260903Y743978D01*
X1260240Y744971D01*
X1259248Y745634D01*
X1258077Y745866D01*
D02*
G37*
G36*
X1279877Y720867D02*
X1279877Y720866D01*
X1278677D01*
X1277507Y720634D01*
X1276514Y719971D01*
X1275851Y718978D01*
X1275618Y717808D01*
X1275851Y716637D01*
X1276514Y715645D01*
X1277507Y714982D01*
X1278594Y714766D01*
X1280418Y712941D01*
Y709808D01*
X1280651Y708637D01*
X1281314Y707645D01*
X1282307Y706982D01*
X1283477Y706749D01*
X1284648Y706982D01*
X1285640Y707645D01*
X1286303Y708637D01*
X1286536Y709808D01*
Y714208D01*
X1286536Y714208D01*
X1286303Y715378D01*
X1285640Y716371D01*
X1285640Y716371D01*
X1282040Y719971D01*
X1281048Y720634D01*
X1279877Y720867D01*
D02*
G37*
G36*
X1330677Y720867D02*
X1330677Y720867D01*
X1329477D01*
X1328307Y720634D01*
X1327314Y719971D01*
X1326651Y718978D01*
X1326418Y717808D01*
X1326651Y716637D01*
X1327314Y715645D01*
X1328307Y714982D01*
X1329393Y714766D01*
X1332441Y711718D01*
Y709000D01*
X1332674Y707830D01*
X1333337Y706837D01*
X1334330Y706174D01*
X1335500Y705941D01*
X1336671Y706174D01*
X1337663Y706837D01*
X1338326Y707830D01*
X1338559Y709000D01*
Y712985D01*
X1338326Y714156D01*
X1337663Y715148D01*
X1337663Y715148D01*
X1332840Y719971D01*
X1331848Y720634D01*
X1330677Y720867D01*
D02*
G37*
%LPD*%
D12*
X921460Y877250D02*
X926540D01*
D14*
X918920D02*
D03*
X929080D02*
D03*
D15*
X931500Y835500D02*
D03*
Y853500D02*
D03*
X891250Y903750D02*
D03*
X950750Y851500D02*
D03*
X891250Y921750D02*
D03*
X898000Y860250D02*
D03*
Y878250D02*
D03*
X950750Y869500D02*
D03*
D16*
X1334277Y811408D02*
D03*
X1308877Y844408D02*
D03*
X1283477Y811408D02*
D03*
X1258077Y844408D02*
D03*
X1232677Y811408D02*
D03*
X1308877Y742808D02*
D03*
X1334277Y709808D02*
D03*
X1258077Y742808D02*
D03*
X1283477Y709808D02*
D03*
X1232677D02*
D03*
X1207277Y844408D02*
D03*
X1156477D02*
D03*
X1105677D02*
D03*
X1131077Y811408D02*
D03*
X1004077Y844408D02*
D03*
X978677Y811408D02*
D03*
X1207277Y742808D02*
D03*
X1181877Y811408D02*
D03*
X1156477Y742808D02*
D03*
X1181877Y709808D02*
D03*
X1080277Y811408D02*
D03*
X1029477D02*
D03*
X1004077Y742808D02*
D03*
X978677Y709808D02*
D03*
X1054877Y742808D02*
D03*
X1131077Y709808D02*
D03*
X1105677Y742808D02*
D03*
X1080277Y709808D02*
D03*
X1029477D02*
D03*
X1054877Y844408D02*
D03*
D17*
X968500Y928000D02*
D03*
X950500D02*
D03*
X987250Y867750D02*
D03*
X969250D02*
D03*
D18*
X920250Y902800D02*
D03*
X910750Y927700D02*
D03*
X929750D02*
D03*
Y902800D02*
D03*
X910750D02*
D03*
D19*
X1170516Y785675D02*
D03*
X1141624Y770675D02*
D03*
X1170516Y780675D02*
D03*
Y770675D02*
D03*
Y775675D02*
D03*
X1141624D02*
D03*
Y780675D02*
D03*
Y785675D02*
D03*
D20*
X1156070Y778175D02*
D03*
D22*
X921460Y882330D02*
G03*
X921460Y872170I0J-5080D01*
G01*
X928000Y872384D02*
G03*
X929080Y872851I-1460J4866D01*
G01*
D02*
G03*
X926540Y882330I-2540J4399D01*
G01*
Y872170D02*
G03*
X928000Y872384I0J5080D01*
G01*
X921460Y872170D02*
Y882330D01*
X926540Y877250D02*
Y882330D01*
Y872170D02*
Y877250D01*
D32*
X1137750Y1411750D02*
D03*
X1172750D02*
D03*
X1137750Y1436750D02*
D03*
X1172750D02*
D03*
X1341750Y1437000D02*
D03*
Y1412000D02*
D03*
X1306750Y1437000D02*
D03*
Y1412000D02*
D03*
D36*
X899978Y879543D02*
G03*
X899569Y879441I520J-2955D01*
G01*
X898560Y878878D02*
G03*
X898000Y878250I1938J-2290D01*
G01*
X912000Y608950D02*
Y835750D01*
Y608950D02*
X956750Y564200D01*
X912000Y835750D02*
X929750Y853500D01*
X956750Y914500D02*
X968500Y926250D01*
X928850Y914500D02*
X956750D01*
X920250Y905900D02*
X928850Y914500D01*
X915866Y860250D02*
X928000Y872384D01*
X929750Y853500D02*
X931500D01*
X929750Y835500D02*
X931500D01*
X950322Y852031D02*
X950750Y851500D01*
X1308500Y840385D02*
X1312477Y836408D01*
X1308500Y840385D02*
Y844000D01*
X1334250Y810500D02*
Y815835D01*
X1258750Y843500D02*
X1259250Y844000D01*
X1258077Y843500D02*
Y844408D01*
Y843500D02*
X1258750D01*
X1258077Y840008D02*
Y843500D01*
X1283477Y811408D02*
Y815808D01*
X1279877Y819408D02*
X1283477Y815808D01*
Y807008D02*
Y811408D01*
X1278677Y819408D02*
X1279877D01*
X1330677Y717808D02*
X1335500Y712985D01*
X1329477Y717808D02*
X1330677D01*
X1335500Y709000D02*
Y712985D01*
X1308500Y738785D02*
Y743500D01*
X1307750Y742750D02*
X1308500Y743500D01*
X1258077Y738408D02*
Y742808D01*
X1278677Y717808D02*
X1279877D01*
X1283477Y714208D01*
Y709808D02*
Y714208D01*
X1207750Y844250D02*
X1208500Y843500D01*
X1105408Y844408D02*
X1105500Y844500D01*
X968500Y926250D02*
Y928000D01*
X920250Y902800D02*
Y905900D01*
X888750Y901250D02*
X891250Y903750D01*
X872250Y901250D02*
X888750D01*
X1025877Y815008D02*
Y820831D01*
Y815008D02*
X1029477Y811408D01*
X982277Y819408D02*
X983477D01*
X978677Y815808D02*
X982277Y819408D01*
X978677Y811408D02*
Y815808D01*
X999000Y776000D02*
X1010250Y764750D01*
X967000D02*
X978250Y776000D01*
X999000D01*
X1010250Y763938D02*
Y764750D01*
X1007677Y761365D02*
X1010250Y763938D01*
X1007677Y746408D02*
Y761365D01*
X1004077Y742808D02*
X1007677Y746408D01*
X956750Y538926D02*
X998426Y497250D01*
X1093750D01*
X1028000Y764000D02*
X1047250D01*
X1006248Y709808D02*
X1029477D01*
X1186075Y785675D02*
X1200250Y771500D01*
X1170516Y785675D02*
X1186075D01*
X947000Y922500D02*
Y924500D01*
X891250Y921750D02*
X893000D01*
X1054877Y742808D02*
Y756373D01*
X947000Y924500D02*
X950500Y928000D01*
X1047250Y764000D02*
X1054877Y756373D01*
X851000Y1120750D02*
X938650Y1208400D01*
Y1210500D01*
X1040500Y1315500D02*
Y1417400D01*
X1026250Y1301250D02*
X1040500Y1315500D01*
X1016750Y1441150D02*
X1040500Y1417400D01*
X1008604Y1301250D02*
X1026250D01*
X922098Y1214744D02*
X1008604Y1301250D01*
X917309Y1210500D02*
X921553Y1214744D01*
X922098D01*
X913250Y1210500D02*
X917309D01*
X1316000Y518750D02*
X1329470Y532220D01*
X1250500Y473886D02*
X1295364Y518750D01*
X1316000D01*
X1329470Y532220D02*
Y552835D01*
X1070000Y519500D02*
X1070250Y519750D01*
X1043750Y509250D02*
X1107000D01*
X1115250Y517500D01*
X1045886Y513750D02*
X1095993D01*
X1004386Y555250D02*
X1045886Y513750D01*
X1046500Y519500D02*
X1070000D01*
X1095993Y513750D02*
X1101493Y519250D01*
X1002750Y550250D02*
X1043750Y509250D01*
X726750Y483700D02*
X745550D01*
X834500Y394750D01*
X967000Y460000D02*
X989250D01*
X808320Y452930D02*
X959930D01*
X967000Y460000D01*
X973500Y449250D02*
X989500D01*
X923500Y399250D02*
X973500Y449250D01*
X726750Y534500D02*
X808320Y452930D01*
X1181656Y398000D02*
X1291750D01*
X1180156Y399500D02*
X1181656Y398000D01*
X1069250Y399500D02*
X1069500Y399750D01*
X1069250Y399500D02*
X1180156D01*
X1069500Y399750D02*
Y430500D01*
X1351683Y393500D02*
X1372385Y414203D01*
X1046106Y394250D02*
X1051357Y389000D01*
X1356000D02*
X1389750Y422750D01*
X1059257Y396000D02*
X1061757Y393500D01*
X1058500Y396000D02*
X1059257D01*
X1061757Y393500D02*
X1351683D01*
X1051357Y389000D02*
X1356000D01*
X1250500Y433750D02*
Y473886D01*
X1240250Y423500D02*
X1250500Y433750D01*
X1318850Y563455D02*
X1329470Y552835D01*
X1124750Y404750D02*
X1292000D01*
X1322450Y435200D02*
X1348500D01*
X1292000Y404750D02*
X1322450Y435200D01*
X1291750Y398000D02*
X1309750Y416000D01*
X1340623D01*
X1340703Y415920D02*
X1342380D01*
X1340623Y416000D02*
X1340703Y415920D01*
X1342380D02*
X1348500Y409800D01*
X1238500Y468250D02*
X1309730Y539480D01*
X1316830D02*
X1318850Y541500D01*
X1238500Y457357D02*
Y468250D01*
X1309730Y539480D02*
X1316830D01*
X1085310Y793941D02*
X1119666D01*
X1085250Y794000D02*
X1085310Y793941D01*
X745786Y585300D02*
X769836Y561250D01*
X900000D01*
X916000Y567250D02*
X921500Y561750D01*
X756250Y589250D02*
X773750Y571750D01*
X925886D01*
X770200Y567250D02*
X916000D01*
X726750Y610700D02*
X770200Y567250D01*
X925886Y571750D02*
X933250Y564386D01*
X1056750Y443250D02*
X1069500Y430500D01*
X1020235Y456250D02*
X1073250D01*
X977050Y499436D02*
X1020235Y456250D01*
X1073250D02*
X1080250Y449250D01*
X974113Y568387D02*
Y597637D01*
X950162Y585588D02*
Y592876D01*
X987250Y555250D02*
X1004386D01*
X985500Y550250D02*
X1002750D01*
X974113Y568387D02*
X987250Y555250D01*
X950162Y585588D02*
X985500Y550250D01*
X984250Y569000D02*
X997000D01*
X956750Y538926D02*
Y564200D01*
X916550Y579000D02*
X925000D01*
X933250Y555750D02*
Y564386D01*
X941500Y541448D02*
Y562500D01*
X925000Y579000D02*
X941500Y562500D01*
Y541448D02*
X981550Y501399D01*
X971099Y474099D02*
Y497000D01*
X840000Y520750D02*
Y554750D01*
X961600Y464600D02*
X971099Y474099D01*
X937000Y464600D02*
X961600D01*
X809650Y477000D02*
X962000D01*
X852250Y526000D02*
X932500D01*
X932750Y526250D01*
X888020Y503730D02*
X972854D01*
X981550Y501300D02*
Y501399D01*
Y501300D02*
X1010849Y472000D01*
X972854Y503730D02*
X977050Y499535D01*
Y499436D02*
Y499535D01*
X1010849Y472000D02*
X1115000D01*
X929080Y876170D02*
Y877250D01*
Y872851D02*
Y876170D01*
X928000Y872384D02*
Y872851D01*
Y876170D01*
X929080Y854170D02*
X929750Y853500D01*
X929080Y854170D02*
Y872384D01*
Y872851D01*
X726750Y509100D02*
X836600Y399250D01*
X834500Y394750D02*
X926000D01*
X969250Y438000D01*
X836600Y399250D02*
X923500D01*
X857750Y1311500D02*
Y1421390D01*
X847890Y1301640D02*
X857750Y1311500D01*
X837800Y1441340D02*
X857750Y1421390D01*
X964050Y1236050D02*
X1016750Y1288750D01*
X964050Y1210500D02*
Y1236050D01*
X811650Y1298650D02*
X827340Y1314340D01*
X811650Y1210500D02*
Y1298650D01*
X827340Y1314340D02*
X837800D01*
Y1339740D01*
X818000Y1246500D02*
X837050Y1227450D01*
X818000Y1246500D02*
Y1293500D01*
X826140Y1301640D01*
X847890D01*
X837050Y1210500D02*
Y1227450D01*
X862450Y1210500D02*
Y1238890D01*
X837800Y1263540D02*
X862450Y1238890D01*
X950750Y869500D02*
Y879000D01*
X941150Y888600D02*
X950750Y879000D01*
X929750Y899700D02*
X940850Y888600D01*
X941150D01*
X929750Y899700D02*
Y902800D01*
X899978Y879543D02*
X904543D01*
X898000Y878250D02*
X898000D01*
X910750Y885750D02*
Y902800D01*
X898000Y860250D02*
X915866D01*
X899007Y879257D02*
X899569Y879441D01*
X898560Y878878D02*
X899007Y879257D01*
X904543Y879543D02*
X910750Y885750D01*
X898000Y878250D02*
X903250D01*
Y877250D02*
X918920D01*
X928000Y876170D02*
X929080Y877250D01*
X927950Y923100D02*
X928250D01*
X910750Y905900D02*
X927950Y923100D01*
X928250D02*
X929750Y924600D01*
Y927700D01*
X910750Y902800D02*
Y905900D01*
X1133000Y689500D02*
X1144750Y701250D01*
X1111250Y690000D02*
X1111750Y689500D01*
X1133000D01*
X1144750Y701250D02*
Y761000D01*
X1141624Y770675D02*
X1141850Y770901D01*
X1144750Y761000D02*
X1151807Y768057D01*
X1141850Y770901D02*
X1147780D01*
X1155054Y778175D01*
X1151807Y768057D02*
Y773912D01*
X1156070Y778175D01*
X1155054D02*
X1156070D01*
X1157086D01*
X1156070D02*
X1158570Y780675D01*
X1159586Y775675D02*
X1164360Y770901D01*
X1157086Y778175D02*
X1159586Y775675D01*
X1170516D01*
X1158570Y780675D02*
X1170516D01*
X1164360Y770901D02*
X1170290D01*
X1170516Y770675D01*
X978500Y428000D02*
X1026500D01*
X1045250Y446750D01*
X1080250Y449250D02*
X1124750Y404750D01*
X1203500Y424000D02*
Y543350D01*
X1242650Y582500D01*
X1046000Y394250D02*
X1046106D01*
X1389750Y422750D02*
Y435100D01*
X1215750Y424000D02*
Y530200D01*
X1268050Y582500D01*
X756250Y589250D02*
Y606600D01*
X726750Y636100D02*
X756250Y606600D01*
X997000Y569000D02*
X1046500Y519500D01*
X1077075Y775675D02*
X1141624D01*
X1076750Y776000D02*
X1077075Y775675D01*
X726750Y559900D02*
X809650Y477000D01*
X969250Y438000D02*
X989750D01*
X1372385Y414203D02*
Y443135D01*
X1389750Y460500D01*
X1227750Y498250D02*
X1255500Y526000D01*
Y544550D01*
X1227750Y423750D02*
Y498250D01*
X1255500Y544550D02*
X1293450Y582500D01*
X726750Y585300D02*
X745786D01*
X1110808Y709808D02*
X1131077D01*
X1090250Y689250D02*
X1110808Y709808D01*
X1008250Y689250D02*
X1090250D01*
X972250Y653250D02*
X1008250Y689250D01*
X972250Y605000D02*
X976650Y600600D01*
X972250Y605000D02*
Y653250D01*
Y599500D02*
X974113Y597637D01*
X1318850Y563455D02*
Y582500D01*
X1175750Y541000D02*
X1217250Y582500D01*
X1150750Y541000D02*
X1175750D01*
X1102000Y784750D02*
X1122493D01*
X1126568Y780675D02*
X1141624D01*
X1122493Y784750D02*
X1126568Y780675D01*
X1073720Y742808D02*
X1105677D01*
X1058912Y728000D02*
X1073720Y742808D01*
X945000Y728000D02*
X1058912D01*
X930450Y713450D02*
X945000Y728000D01*
X930450Y630300D02*
X936500Y624250D01*
X930450Y630300D02*
Y713450D01*
X896050Y599500D02*
X916550Y579000D01*
X946850Y596188D02*
X950162Y592876D01*
X946850Y596188D02*
Y634214D01*
X1053750Y693750D02*
X1069808Y709808D01*
X1080277D01*
X1006386Y693750D02*
X1053750D01*
X946850Y634214D02*
X1006386Y693750D01*
X968000Y417500D02*
X978500Y428000D01*
X1127932Y785675D02*
X1141624D01*
X1119666Y793941D02*
X1127932Y785675D01*
X840000Y520750D02*
X848500Y512250D01*
X879500D02*
X888020Y503730D01*
X848500Y512250D02*
X879500D01*
X947250Y678500D02*
X974941D01*
X991691Y695250D01*
X948750D02*
X991691D01*
X1006248Y709808D01*
X1001750Y867750D02*
X1025092Y844408D01*
X987250Y867750D02*
X1001750D01*
X1025092Y844408D02*
X1054877D01*
X950000Y870250D02*
X950750Y869500D01*
X952500Y867750D01*
X969250D01*
D37*
X711803Y1320774D02*
X778250Y1387222D01*
Y1450250D01*
X710800Y1339740D02*
X766250Y1395190D01*
Y1456000D01*
X711803Y1315343D02*
Y1320774D01*
X710800Y1314340D02*
X711803Y1315343D01*
X778250Y1450250D02*
X802000Y1474000D01*
X1026000D01*
X1088250Y1411750D01*
X1137750D01*
X742500Y1422240D02*
Y1466500D01*
X710800Y1390540D02*
X742500Y1422240D01*
Y1466500D02*
X784500Y1508500D01*
X1139000D01*
X1197000Y1450500D01*
X1172750Y1411750D02*
X1197000Y1436000D01*
Y1450500D01*
X766250Y1456000D02*
X795750Y1485500D01*
X1089000D02*
X1137750Y1436750D01*
X795750Y1485500D02*
X1089000D01*
X711803Y1365140D02*
Y1371574D01*
X754500Y1414272D01*
Y1461750D01*
X789750Y1497000D01*
X1112500D01*
X1175347Y1434153D01*
D38*
X1389750Y531500D02*
D03*
X937000Y439200D02*
D03*
X899000Y412750D02*
D03*
X837800Y1441340D02*
D03*
X1389750Y435100D02*
D03*
X1348500Y409800D02*
D03*
X1290000Y435250D02*
D03*
X1016750Y1441150D02*
D03*
D39*
X1348500Y460600D02*
D03*
X870650Y599500D02*
D03*
X837800Y1415940D02*
D03*
X889750Y1263350D02*
D03*
X710800Y1263540D02*
D03*
X889750Y1288750D02*
D03*
X710800Y1288940D02*
D03*
X837800Y1365140D02*
D03*
Y1390540D02*
D03*
X710800Y1415940D02*
D03*
X837800Y1263540D02*
D03*
Y1288940D02*
D03*
Y1339740D02*
D03*
Y1314340D02*
D03*
X710800Y1339740D02*
D03*
Y1365140D02*
D03*
Y1314340D02*
D03*
Y1390540D02*
D03*
X710800Y1441340D02*
D03*
X889750Y1415750D02*
D03*
X889750Y1441150D02*
D03*
X1016750Y1288750D02*
D03*
Y1263350D02*
D03*
X899000Y539750D02*
D03*
X845250Y599500D02*
D03*
X937000Y490000D02*
D03*
X1290000Y486050D02*
D03*
X1389750Y485900D02*
D03*
X1348500Y486000D02*
D03*
X1389750Y582300D02*
D03*
X1242650Y582500D02*
D03*
X1268050D02*
D03*
X899000Y514350D02*
D03*
X1242650Y541500D02*
D03*
X937000Y464600D02*
D03*
X1290000Y460650D02*
D03*
X1389750Y556900D02*
D03*
X1389750Y460500D02*
D03*
X1293450Y582500D02*
D03*
X1268050Y541500D02*
D03*
X1318850Y582500D02*
D03*
Y541500D02*
D03*
X1293450D02*
D03*
X1217250Y582500D02*
D03*
X899000Y488950D02*
D03*
Y463550D02*
D03*
Y438150D02*
D03*
X896050Y599500D02*
D03*
X921450D02*
D03*
X946850D02*
D03*
X1348500Y435200D02*
D03*
X1016750Y1314150D02*
D03*
Y1339550D02*
D03*
Y1364950D02*
D03*
Y1390350D02*
D03*
Y1415750D02*
D03*
X889750Y1314150D02*
D03*
Y1364950D02*
D03*
Y1339550D02*
D03*
Y1390350D02*
D03*
D40*
X726750Y458300D02*
D03*
X989450Y1210500D02*
D03*
X735450D02*
D03*
X760850D02*
D03*
X786250D02*
D03*
X1357000Y1298500D02*
D03*
Y1374700D02*
D03*
X1331600Y1323900D02*
D03*
X739000Y1151250D02*
D03*
X764400Y1125850D02*
D03*
X739000Y1075050D02*
D03*
X811650Y1210500D02*
D03*
X837050D02*
D03*
X862450D02*
D03*
X726750Y407500D02*
D03*
Y432900D02*
D03*
Y661500D02*
D03*
X741250Y694750D02*
D03*
Y770950D02*
D03*
X766650Y745550D02*
D03*
X726750Y534500D02*
D03*
Y559900D02*
D03*
Y483700D02*
D03*
Y509100D02*
D03*
Y610700D02*
D03*
Y585300D02*
D03*
X938650Y1210500D02*
D03*
X913250D02*
D03*
X887850D02*
D03*
D41*
X1331600Y1349300D02*
D03*
X764400Y1100450D02*
D03*
X766650Y720150D02*
D03*
X726750Y636100D02*
D03*
D42*
X964050Y1210500D02*
D03*
D43*
X1344250Y582500D02*
D03*
Y541500D02*
D03*
X972250Y599500D02*
D03*
D44*
X949250Y560500D02*
D03*
X1340001Y850001D02*
D03*
X1345001Y840001D02*
D03*
X1340001Y830000D02*
D03*
X1345001Y820000D02*
D03*
Y800000D02*
D03*
X1340001Y790000D02*
D03*
X1345001Y780000D02*
D03*
X1340001Y770000D02*
D03*
X1345001Y760000D02*
D03*
X1340001Y750000D02*
D03*
X1345001Y740000D02*
D03*
X1340001Y730000D02*
D03*
X1345001Y720000D02*
D03*
X1330001Y850001D02*
D03*
X1335001Y840001D02*
D03*
X1330001Y830000D02*
D03*
Y790000D02*
D03*
X1335001Y780000D02*
D03*
X1330001Y770000D02*
D03*
X1335001Y760000D02*
D03*
X1330001Y750000D02*
D03*
X1335001Y740000D02*
D03*
X1330001Y730000D02*
D03*
X1320001Y850001D02*
D03*
X1325001Y840001D02*
D03*
X1320001Y830000D02*
D03*
Y810000D02*
D03*
X1325001Y800000D02*
D03*
X1320001Y790000D02*
D03*
X1325001Y780000D02*
D03*
X1320001Y770000D02*
D03*
X1325001Y760000D02*
D03*
X1320001Y750000D02*
D03*
X1325001Y740000D02*
D03*
X1320001Y730000D02*
D03*
Y710000D02*
D03*
X1310001Y830000D02*
D03*
X1315001Y820000D02*
D03*
X1310001Y810000D02*
D03*
X1315001Y800000D02*
D03*
X1310001Y790000D02*
D03*
X1315001Y780000D02*
D03*
X1310001Y770000D02*
D03*
X1315001Y760000D02*
D03*
Y720000D02*
D03*
X1310001Y710000D02*
D03*
X1300001Y830000D02*
D03*
X1305001Y820000D02*
D03*
X1300001Y810000D02*
D03*
X1305001Y800000D02*
D03*
X1300001Y790000D02*
D03*
X1305001Y780000D02*
D03*
X1300001Y770000D02*
D03*
X1305001Y760000D02*
D03*
X1300001Y730000D02*
D03*
X1305001Y720000D02*
D03*
X1300001Y710000D02*
D03*
X1290001Y850001D02*
D03*
X1295001Y840001D02*
D03*
X1290001Y830000D02*
D03*
X1295001Y820000D02*
D03*
Y800000D02*
D03*
X1290001Y790000D02*
D03*
X1295001Y780000D02*
D03*
X1290001Y770000D02*
D03*
X1295001Y760000D02*
D03*
X1290001Y750000D02*
D03*
X1295001Y740000D02*
D03*
X1290001Y730000D02*
D03*
X1295001Y720000D02*
D03*
X1280001Y850001D02*
D03*
X1285001Y840001D02*
D03*
X1280001Y830000D02*
D03*
Y790000D02*
D03*
X1285001Y780000D02*
D03*
X1280001Y770000D02*
D03*
X1285001Y760000D02*
D03*
X1280001Y750000D02*
D03*
X1285001Y740000D02*
D03*
X1280001Y730000D02*
D03*
X1270001Y850001D02*
D03*
X1275001Y840001D02*
D03*
X1270001Y830000D02*
D03*
Y810000D02*
D03*
Y790000D02*
D03*
X1275001Y780000D02*
D03*
X1270001Y770000D02*
D03*
X1275001Y760000D02*
D03*
X1270001Y750000D02*
D03*
X1275001Y740000D02*
D03*
X1270001Y730000D02*
D03*
Y710000D02*
D03*
X1260001Y830000D02*
D03*
X1265001Y820000D02*
D03*
X1260001Y810000D02*
D03*
X1265001Y800000D02*
D03*
X1260001Y790000D02*
D03*
X1265001Y780000D02*
D03*
X1260001Y770000D02*
D03*
X1265001Y760000D02*
D03*
Y720000D02*
D03*
X1260001Y710000D02*
D03*
X1250001Y830000D02*
D03*
X1255001Y820000D02*
D03*
X1250001Y810000D02*
D03*
X1255001Y800000D02*
D03*
X1250001Y790000D02*
D03*
X1255001Y780000D02*
D03*
X1250001Y770000D02*
D03*
X1255001Y760000D02*
D03*
X1250001Y730000D02*
D03*
X1255001Y720000D02*
D03*
X1250001Y710000D02*
D03*
X1240001Y850001D02*
D03*
X1245001Y840001D02*
D03*
X1240001Y830000D02*
D03*
X1245001Y820000D02*
D03*
Y800000D02*
D03*
X1240001Y790000D02*
D03*
X1245001Y780000D02*
D03*
X1240001Y770000D02*
D03*
X1245001Y760000D02*
D03*
X1240001Y750000D02*
D03*
X1245001Y740000D02*
D03*
X1240001Y730000D02*
D03*
X1245001Y720000D02*
D03*
X1230001Y850001D02*
D03*
X1235001Y840001D02*
D03*
X1230001Y830000D02*
D03*
Y790000D02*
D03*
X1235001Y780000D02*
D03*
X1230001Y770000D02*
D03*
X1235001Y760000D02*
D03*
X1230001Y750000D02*
D03*
X1235001Y740000D02*
D03*
X1230001Y730000D02*
D03*
X1220001Y850001D02*
D03*
X1225001Y840001D02*
D03*
X1220001Y830000D02*
D03*
Y810000D02*
D03*
X1225001Y780000D02*
D03*
Y760000D02*
D03*
X1220001Y750000D02*
D03*
X1225001Y740000D02*
D03*
X1220001Y730000D02*
D03*
Y710000D02*
D03*
X1210001Y830000D02*
D03*
X1215001Y820000D02*
D03*
X1210001Y810000D02*
D03*
X1215001Y720000D02*
D03*
X1210001Y710000D02*
D03*
X1200001Y830000D02*
D03*
X1205001Y820000D02*
D03*
X1200001Y810000D02*
D03*
X1205001Y720000D02*
D03*
X1200001Y710000D02*
D03*
X1190001Y850001D02*
D03*
X1195001Y840001D02*
D03*
X1190001Y830000D02*
D03*
X1195001Y820000D02*
D03*
Y740000D02*
D03*
X1190001Y730000D02*
D03*
X1195001Y720000D02*
D03*
X1180001Y850001D02*
D03*
X1185001Y840001D02*
D03*
X1180001Y830000D02*
D03*
Y730000D02*
D03*
X1170001Y850001D02*
D03*
X1175001Y840001D02*
D03*
X1170001Y830000D02*
D03*
Y810000D02*
D03*
Y750000D02*
D03*
Y710000D02*
D03*
X1160001Y830000D02*
D03*
X1165001Y820000D02*
D03*
X1160001Y810000D02*
D03*
Y710000D02*
D03*
X1150001Y830000D02*
D03*
X1155001Y820000D02*
D03*
X1150001Y810000D02*
D03*
Y490000D02*
D03*
X1140001Y850001D02*
D03*
X1145001Y840001D02*
D03*
X1140001Y830000D02*
D03*
X1145001Y820000D02*
D03*
X1130001Y850001D02*
D03*
X1135001Y840001D02*
D03*
X1130001Y830000D02*
D03*
X1120001Y850001D02*
D03*
X1125001Y840001D02*
D03*
X1120001Y830000D02*
D03*
Y810000D02*
D03*
Y490000D02*
D03*
X1110001Y830000D02*
D03*
X1115001Y820000D02*
D03*
X1110001Y810000D02*
D03*
Y490000D02*
D03*
X1100001Y830000D02*
D03*
X1105001Y820000D02*
D03*
X1100001Y810000D02*
D03*
Y490000D02*
D03*
X1090001Y830000D02*
D03*
X1095001Y820000D02*
D03*
X1090001Y810000D02*
D03*
Y490000D02*
D03*
X1080001Y830000D02*
D03*
Y490000D02*
D03*
X1070001Y810000D02*
D03*
Y490000D02*
D03*
X1065001Y860001D02*
D03*
Y840001D02*
D03*
X1060001Y830000D02*
D03*
X1065001Y820000D02*
D03*
X1060001Y810000D02*
D03*
X1055001Y860001D02*
D03*
X1050001Y830000D02*
D03*
X1055001Y820000D02*
D03*
X1050001Y810000D02*
D03*
X1045001Y860001D02*
D03*
X1040001Y830000D02*
D03*
X1045001Y820000D02*
D03*
X1040001Y810000D02*
D03*
X1035001Y860001D02*
D03*
X1030001Y830000D02*
D03*
X1025001Y860001D02*
D03*
X1020001Y830000D02*
D03*
Y810000D02*
D03*
X1015001Y840001D02*
D03*
X1010001Y830000D02*
D03*
X1015001Y820000D02*
D03*
X1010001Y810000D02*
D03*
X1000001Y830000D02*
D03*
X1005001Y820000D02*
D03*
X1000001Y810000D02*
D03*
X995001Y880001D02*
D03*
X990001Y850001D02*
D03*
Y830000D02*
D03*
X995001Y820000D02*
D03*
X990001Y810000D02*
D03*
X980001Y890001D02*
D03*
X985001Y880001D02*
D03*
X980001Y850001D02*
D03*
X985001Y840001D02*
D03*
X980001Y830000D02*
D03*
X975001Y900001D02*
D03*
X970001Y890001D02*
D03*
X975001Y880001D02*
D03*
X970001Y850001D02*
D03*
X975001Y840001D02*
D03*
X970001Y830000D02*
D03*
Y550000D02*
D03*
X975001Y540000D02*
D03*
X965001Y900001D02*
D03*
X960001Y890001D02*
D03*
X965001Y880001D02*
D03*
Y840001D02*
D03*
X960001Y830000D02*
D03*
X965001Y820000D02*
D03*
X960001Y810000D02*
D03*
X965001Y560000D02*
D03*
Y540000D02*
D03*
X955001Y900001D02*
D03*
X950001Y890001D02*
D03*
X955001Y840001D02*
D03*
X950001Y830000D02*
D03*
X955001Y820000D02*
D03*
X950001Y810000D02*
D03*
X945001Y900001D02*
D03*
Y840001D02*
D03*
Y820000D02*
D03*
X940001Y810000D02*
D03*
X930001Y890001D02*
D03*
X935001Y820000D02*
D03*
X930001Y810000D02*
D03*
X920001Y930001D02*
D03*
Y890001D02*
D03*
Y830000D02*
D03*
X925001Y820000D02*
D03*
X920001Y810000D02*
D03*
Y790000D02*
D03*
Y770000D02*
D03*
Y730000D02*
D03*
Y710000D02*
D03*
Y690000D02*
D03*
Y670000D02*
D03*
Y650000D02*
D03*
X910001Y870001D02*
D03*
Y850001D02*
D03*
X900001Y890001D02*
D03*
Y850001D02*
D03*
X905001Y840001D02*
D03*
X900001Y830000D02*
D03*
X905001Y820000D02*
D03*
X900001Y810000D02*
D03*
X905001Y800000D02*
D03*
X900001Y790000D02*
D03*
X905001Y780000D02*
D03*
X900001Y770000D02*
D03*
X905001Y760000D02*
D03*
X900001Y750000D02*
D03*
X905001Y720000D02*
D03*
X900001Y710000D02*
D03*
X905001Y700000D02*
D03*
X900001Y690000D02*
D03*
X905001Y680000D02*
D03*
X900001Y670000D02*
D03*
X905001Y660000D02*
D03*
X900001Y650000D02*
D03*
X905001Y640000D02*
D03*
X900001Y630000D02*
D03*
X890001Y890001D02*
D03*
Y850001D02*
D03*
X895001Y840001D02*
D03*
X968750Y927750D02*
D03*
X1340001Y850001D02*
D03*
X1330001D02*
D03*
X1335001Y840001D02*
D03*
X1325001D02*
D03*
X1320001Y850001D02*
D03*
X1345001Y840001D02*
D03*
X1340001Y830000D02*
D03*
X1345001Y820000D02*
D03*
X1330001Y830000D02*
D03*
X1320001D02*
D03*
X1295001Y840001D02*
D03*
X1290001Y850001D02*
D03*
X1285001Y840001D02*
D03*
X1290001Y830000D02*
D03*
X1310001D02*
D03*
X1305001Y820000D02*
D03*
X1315001D02*
D03*
X1300001Y830000D02*
D03*
X1295001Y820000D02*
D03*
X1345001Y800000D02*
D03*
X1320001Y810000D02*
D03*
X1315001Y800000D02*
D03*
X1325001D02*
D03*
X1340001Y790000D02*
D03*
X1330001D02*
D03*
X1325001Y780000D02*
D03*
X1320001Y790000D02*
D03*
X1315001Y780000D02*
D03*
X1310001Y810000D02*
D03*
X1300001D02*
D03*
X1305001Y800000D02*
D03*
X1295001D02*
D03*
X1280001Y790000D02*
D03*
X1310001D02*
D03*
X1300001D02*
D03*
X1295001Y780000D02*
D03*
X1290001Y790000D02*
D03*
X1285001Y780000D02*
D03*
X1280001Y850001D02*
D03*
X1270001D02*
D03*
X1275001Y840001D02*
D03*
X1270001Y830000D02*
D03*
X1280001D02*
D03*
X1240001Y850001D02*
D03*
X1235001Y840001D02*
D03*
X1245001D02*
D03*
X1230001Y850001D02*
D03*
X1220001D02*
D03*
X1225001Y840001D02*
D03*
X1260001Y830000D02*
D03*
X1250001D02*
D03*
X1255001Y820000D02*
D03*
X1230001Y830000D02*
D03*
X1240001D02*
D03*
X1265001Y820000D02*
D03*
X1260001Y810000D02*
D03*
X1270001Y790000D02*
D03*
Y810000D02*
D03*
X1265001Y780000D02*
D03*
Y800000D02*
D03*
X1260001Y790000D02*
D03*
X1250001Y810000D02*
D03*
X1245001Y800000D02*
D03*
X1255001D02*
D03*
X1245001Y820000D02*
D03*
X1230001Y790000D02*
D03*
X1250001D02*
D03*
X1240001D02*
D03*
X1245001Y780000D02*
D03*
X1225001D02*
D03*
X1235001D02*
D03*
X1345001D02*
D03*
X1340001Y770000D02*
D03*
X1335001Y760000D02*
D03*
Y780000D02*
D03*
X1330001Y770000D02*
D03*
X1325001Y760000D02*
D03*
X1345001D02*
D03*
X1340001Y750000D02*
D03*
X1345001Y740000D02*
D03*
X1330001Y750000D02*
D03*
X1320001D02*
D03*
X1335001Y740000D02*
D03*
X1310001Y770000D02*
D03*
X1305001Y780000D02*
D03*
X1320001Y770000D02*
D03*
X1300001D02*
D03*
X1290001D02*
D03*
X1295001Y760000D02*
D03*
X1315001D02*
D03*
X1305001D02*
D03*
X1290001Y750000D02*
D03*
X1295001Y740000D02*
D03*
X1340001Y730000D02*
D03*
X1330001D02*
D03*
X1325001Y740000D02*
D03*
X1320001Y730000D02*
D03*
X1345001Y720000D02*
D03*
X1320001Y710000D02*
D03*
X1290001Y730000D02*
D03*
X1300001D02*
D03*
X1315001Y720000D02*
D03*
X1305001D02*
D03*
X1310001Y710000D02*
D03*
X1295001Y720000D02*
D03*
X1300001Y710000D02*
D03*
X1275001Y780000D02*
D03*
X1270001Y770000D02*
D03*
X1280001D02*
D03*
X1260001D02*
D03*
X1255001Y760000D02*
D03*
X1265001D02*
D03*
X1285001D02*
D03*
X1275001D02*
D03*
X1280001Y750000D02*
D03*
X1270001D02*
D03*
X1255001Y780000D02*
D03*
X1240001Y770000D02*
D03*
X1250001D02*
D03*
X1230001D02*
D03*
X1225001Y760000D02*
D03*
X1235001D02*
D03*
X1245001D02*
D03*
X1230001Y750000D02*
D03*
X1240001D02*
D03*
X1220001D02*
D03*
X1225001Y740000D02*
D03*
X1285001D02*
D03*
X1275001D02*
D03*
X1280001Y730000D02*
D03*
X1270001D02*
D03*
X1265001Y720000D02*
D03*
X1270001Y710000D02*
D03*
X1245001Y740000D02*
D03*
X1240001Y730000D02*
D03*
X1250001D02*
D03*
X1235001Y740000D02*
D03*
X1220001Y730000D02*
D03*
X1230001D02*
D03*
X1255001Y720000D02*
D03*
X1250001Y710000D02*
D03*
X1260001D02*
D03*
X1245001Y720000D02*
D03*
X1190001Y850001D02*
D03*
X1180001D02*
D03*
X1170001D02*
D03*
X1195001Y840001D02*
D03*
X1185001D02*
D03*
X1190001Y830000D02*
D03*
X1175001Y840001D02*
D03*
X1145001D02*
D03*
X1140001Y830000D02*
D03*
X1130001Y850001D02*
D03*
X1120001D02*
D03*
X1140001D02*
D03*
X1135001Y840001D02*
D03*
X1125001D02*
D03*
X1130001Y830000D02*
D03*
X1210001D02*
D03*
X1200001D02*
D03*
X1220001D02*
D03*
X1170001D02*
D03*
X1160001D02*
D03*
X1180001D02*
D03*
X1205001Y820000D02*
D03*
X1195001D02*
D03*
X1215001D02*
D03*
X1155001D02*
D03*
X1165001D02*
D03*
X1120001Y830000D02*
D03*
X1110001D02*
D03*
X1150001D02*
D03*
X1090001D02*
D03*
X1080001D02*
D03*
X1100001D02*
D03*
X1145001Y820000D02*
D03*
X1115001D02*
D03*
X1095001D02*
D03*
X1105001D02*
D03*
X872250Y901250D02*
D03*
X1055001Y820000D02*
D03*
X1045001D02*
D03*
X1065001D02*
D03*
X1015001D02*
D03*
X1005001D02*
D03*
X995001D02*
D03*
X1220001Y810000D02*
D03*
X1210001D02*
D03*
X1200001D02*
D03*
X1195001Y740000D02*
D03*
Y720000D02*
D03*
X1215001D02*
D03*
X1210001Y710000D02*
D03*
X1220001D02*
D03*
X1205001Y720000D02*
D03*
X1200001Y710000D02*
D03*
X1170001Y810000D02*
D03*
Y750000D02*
D03*
X1160001Y810000D02*
D03*
X1150001D02*
D03*
X1190001Y730000D02*
D03*
X1180001D02*
D03*
X1160001Y710000D02*
D03*
X1170001D02*
D03*
X1130250Y579750D02*
D03*
X1050001Y810000D02*
D03*
X1060001D02*
D03*
X1020001D02*
D03*
X1040001D02*
D03*
X1110001D02*
D03*
X1100001D02*
D03*
X1120001D02*
D03*
X1070001D02*
D03*
X1090001D02*
D03*
X1010001D02*
D03*
X1000001D02*
D03*
X990001D02*
D03*
X1010250Y764750D02*
D03*
X967000D02*
D03*
X1110000Y578750D02*
D03*
X1114500Y503250D02*
D03*
X1004077Y742808D02*
D03*
X978677Y709808D02*
D03*
X1028000Y764000D02*
D03*
X984750Y764500D02*
D03*
X1173500Y563500D02*
D03*
X948000Y713750D02*
D03*
X948750Y695250D02*
D03*
X1200250Y771500D02*
D03*
X1184500Y529500D02*
D03*
X1321750Y404750D02*
D03*
X1164660Y425750D02*
D03*
X1011250Y572000D02*
D03*
X959750Y631000D02*
D03*
X851750Y543750D02*
D03*
X999000Y536000D02*
D03*
X1011750Y398500D02*
D03*
X992250Y397000D02*
D03*
X946000Y399250D02*
D03*
X780000Y600000D02*
D03*
X785000Y610000D02*
D03*
X780000Y620000D02*
D03*
Y640000D02*
D03*
X790000Y600000D02*
D03*
X795000Y610000D02*
D03*
X790000Y620000D02*
D03*
X800000Y600000D02*
D03*
X805000Y610000D02*
D03*
X800000Y620000D02*
D03*
X815000Y590000D02*
D03*
X810000Y600000D02*
D03*
X815000Y610000D02*
D03*
X820000Y580000D02*
D03*
X825000Y590000D02*
D03*
X820000Y600000D02*
D03*
X825000Y610000D02*
D03*
X830000Y580000D02*
D03*
X835000Y590000D02*
D03*
X830000Y600000D02*
D03*
X835000Y610000D02*
D03*
X830000Y620000D02*
D03*
X840001Y580000D02*
D03*
X865001Y610000D02*
D03*
X860001Y640000D02*
D03*
X865001Y650000D02*
D03*
X870001Y580000D02*
D03*
Y620000D02*
D03*
X875001Y630000D02*
D03*
X880001Y580000D02*
D03*
X1322750Y458750D02*
D03*
X950750Y928250D02*
D03*
X891250Y921750D02*
D03*
X1055000Y742250D02*
D03*
X910750Y927700D02*
D03*
X972500Y1300500D02*
D03*
X958500Y1314500D02*
D03*
X944750Y1328250D02*
D03*
X973500Y1395250D02*
D03*
Y1415000D02*
D03*
X1070250Y519750D02*
D03*
X1093750Y497250D02*
D03*
X1069250Y399500D02*
D03*
X1085250Y794000D02*
D03*
X1015001Y1180001D02*
D03*
X1010001Y1170001D02*
D03*
X1015001Y1160001D02*
D03*
X1005001Y1180001D02*
D03*
X1000001Y1170001D02*
D03*
X1005001Y1160001D02*
D03*
X990001Y1170001D02*
D03*
X995001Y1160001D02*
D03*
X980001Y1170001D02*
D03*
X985001Y1160001D02*
D03*
X970001Y1170001D02*
D03*
X975001Y1160001D02*
D03*
X970001Y1150001D02*
D03*
X950001Y1170001D02*
D03*
Y1150001D02*
D03*
X875001Y800000D02*
D03*
X865001D02*
D03*
X850001Y830000D02*
D03*
Y810000D02*
D03*
X855000Y800000D02*
D03*
X840001Y830000D02*
D03*
X845000Y820000D02*
D03*
X830000Y830000D02*
D03*
X835000Y820000D02*
D03*
X820000Y830000D02*
D03*
X825000Y820000D02*
D03*
X815000D02*
D03*
X825000Y670000D02*
D03*
X815000Y850001D02*
D03*
X785000D02*
D03*
X775000D02*
D03*
Y810000D02*
D03*
X770000Y800000D02*
D03*
X775000Y790000D02*
D03*
X770000Y780000D02*
D03*
X775000Y770000D02*
D03*
X770000Y760000D02*
D03*
Y700000D02*
D03*
X775000Y690000D02*
D03*
X765000Y850001D02*
D03*
Y810000D02*
D03*
X760000Y800000D02*
D03*
X765000Y790000D02*
D03*
X760000Y780000D02*
D03*
X765000Y770000D02*
D03*
X760000Y760000D02*
D03*
Y700000D02*
D03*
X765000Y690000D02*
D03*
X755000Y850001D02*
D03*
X750000Y840001D02*
D03*
X755000Y830000D02*
D03*
X750000Y820000D02*
D03*
X755000Y810000D02*
D03*
X750000Y800000D02*
D03*
X755000Y790000D02*
D03*
Y770000D02*
D03*
X750000Y760000D02*
D03*
Y740000D02*
D03*
Y720000D02*
D03*
X755000Y690000D02*
D03*
X745000Y850001D02*
D03*
X740000Y840001D02*
D03*
X745000Y830000D02*
D03*
X740000Y820000D02*
D03*
X745000Y810000D02*
D03*
X740000Y800000D02*
D03*
X745000Y790000D02*
D03*
Y750000D02*
D03*
X740000Y740000D02*
D03*
X745000Y730000D02*
D03*
X740000Y720000D02*
D03*
X745000Y710000D02*
D03*
X735000Y850001D02*
D03*
X730000Y840001D02*
D03*
X735000Y830000D02*
D03*
X730000Y820000D02*
D03*
X735000Y810000D02*
D03*
X730000Y800000D02*
D03*
X735000Y790000D02*
D03*
X730000Y780000D02*
D03*
Y760000D02*
D03*
X735000Y750000D02*
D03*
X730000Y740000D02*
D03*
X735000Y730000D02*
D03*
X730000Y720000D02*
D03*
X735000Y710000D02*
D03*
X725000Y850001D02*
D03*
X720000Y840001D02*
D03*
X725000Y830000D02*
D03*
X720000Y820000D02*
D03*
X725000Y810000D02*
D03*
X720000Y800000D02*
D03*
X725000Y790000D02*
D03*
X720000Y780000D02*
D03*
X725000Y770000D02*
D03*
X720000Y760000D02*
D03*
X725000Y750000D02*
D03*
X720000Y740000D02*
D03*
X725000Y730000D02*
D03*
X720000Y720000D02*
D03*
X725000Y710000D02*
D03*
X720000Y700000D02*
D03*
X725000Y690000D02*
D03*
X1056750Y443250D02*
D03*
X984250Y569000D02*
D03*
X933250Y555750D02*
D03*
X971099Y497000D02*
D03*
X921500Y561750D02*
D03*
X840000Y554750D02*
D03*
X900000Y561250D02*
D03*
X962000Y477000D02*
D03*
X932750Y526250D02*
D03*
X815836Y740500D02*
D03*
X851000Y1120750D02*
D03*
X797500Y1415250D02*
D03*
X796750Y1394500D02*
D03*
X974000Y1353000D02*
D03*
X817450Y1152950D02*
D03*
Y1099550D02*
D03*
X796500Y1352750D02*
D03*
X705250Y1200000D02*
D03*
X806250Y408000D02*
D03*
X789000Y1304000D02*
D03*
X775500Y1318000D02*
D03*
X762000Y1331750D02*
D03*
X1200001Y1250001D02*
D03*
Y1230001D02*
D03*
Y1210001D02*
D03*
Y1190001D02*
D03*
Y1170001D02*
D03*
Y1150001D02*
D03*
Y1130001D02*
D03*
Y1110001D02*
D03*
Y1090001D02*
D03*
Y1070001D02*
D03*
X1190001Y1250001D02*
D03*
X1195001Y1240001D02*
D03*
X1190001Y1230001D02*
D03*
X1195001Y1220001D02*
D03*
X1190001Y1210001D02*
D03*
X1195001Y1200001D02*
D03*
X1190001Y1190001D02*
D03*
X1195001Y1180001D02*
D03*
X1190001Y1170001D02*
D03*
X1195001Y1160001D02*
D03*
X1190001Y1150001D02*
D03*
X1195001Y1140001D02*
D03*
X1190001Y1130001D02*
D03*
X1195001Y1120001D02*
D03*
X1190001Y1110001D02*
D03*
X1195001Y1100001D02*
D03*
X1190001Y1090001D02*
D03*
X1195001Y1080001D02*
D03*
X1190001Y1070001D02*
D03*
X1180001Y1250001D02*
D03*
X1185001Y1240001D02*
D03*
X1180001Y1230001D02*
D03*
X1185001Y1220001D02*
D03*
X1180001Y1210001D02*
D03*
X1185001Y1200001D02*
D03*
X1180001Y1190001D02*
D03*
X1185001Y1180001D02*
D03*
X1180001Y1170001D02*
D03*
X1185001Y1160001D02*
D03*
X1180001Y1150001D02*
D03*
X1185001Y1140001D02*
D03*
X1180001Y1130001D02*
D03*
X1185001Y1120001D02*
D03*
X1180001Y1110001D02*
D03*
X1185001Y1100001D02*
D03*
X1180001Y1090001D02*
D03*
X1185001Y1080001D02*
D03*
X1180001Y1070001D02*
D03*
X1170001Y1250001D02*
D03*
X1175001Y1240001D02*
D03*
X1170001Y1230001D02*
D03*
X1175001Y1220001D02*
D03*
X1170001Y1210001D02*
D03*
X1175001Y1200001D02*
D03*
X1170001Y1190001D02*
D03*
X1175001Y1180001D02*
D03*
X1170001Y1170001D02*
D03*
X1175001Y1160001D02*
D03*
X1170001Y1150001D02*
D03*
X1175001Y1140001D02*
D03*
X1170001Y1130001D02*
D03*
X1175001Y1120001D02*
D03*
X1170001Y1110001D02*
D03*
X1175001Y1100001D02*
D03*
X1170001Y1090001D02*
D03*
X1175001Y1080001D02*
D03*
X1170001Y1070001D02*
D03*
X1160001Y1250001D02*
D03*
X1165001Y1240001D02*
D03*
X1160001Y1230001D02*
D03*
X1165001Y1220001D02*
D03*
X1160001Y1210001D02*
D03*
X1165001Y1200001D02*
D03*
X1160001Y1190001D02*
D03*
X1165001Y1180001D02*
D03*
X1160001Y1170001D02*
D03*
X1165001Y1160001D02*
D03*
X1160001Y1150001D02*
D03*
X1165001Y1140001D02*
D03*
X1160001Y1130001D02*
D03*
X1165001Y1120001D02*
D03*
X1160001Y1110001D02*
D03*
X1165001Y1100001D02*
D03*
X1160001Y1090001D02*
D03*
X1165001Y1080001D02*
D03*
X1160001Y1070001D02*
D03*
X1150001Y1250001D02*
D03*
X1155001Y1160001D02*
D03*
X1150001Y1150001D02*
D03*
X1155001Y1140001D02*
D03*
X1150001Y1130001D02*
D03*
X1155001Y1120001D02*
D03*
X1150001Y1110001D02*
D03*
X1155001Y1100001D02*
D03*
X1150001Y1090001D02*
D03*
X1155001Y1080001D02*
D03*
X1150001Y1070001D02*
D03*
X1140001Y1250001D02*
D03*
Y1150001D02*
D03*
X1145001Y1140001D02*
D03*
X1140001Y1130001D02*
D03*
X1145001Y1120001D02*
D03*
X1140001Y1110001D02*
D03*
X1145001Y1100001D02*
D03*
X1140001Y1090001D02*
D03*
X1145001Y1080001D02*
D03*
X1140001Y1070001D02*
D03*
X1130001Y1250001D02*
D03*
Y1150001D02*
D03*
X1135001Y1140001D02*
D03*
X1130001Y1130001D02*
D03*
X1135001Y1120001D02*
D03*
X1130001Y1110001D02*
D03*
X1135001Y1100001D02*
D03*
X1130001Y1090001D02*
D03*
X1135001Y1080001D02*
D03*
X1130001Y1070001D02*
D03*
X1120001Y1250001D02*
D03*
Y1150001D02*
D03*
X1125001Y1140001D02*
D03*
X1120001Y1130001D02*
D03*
X1125001Y1120001D02*
D03*
X1120001Y1110001D02*
D03*
X1125001Y1100001D02*
D03*
X1120001Y1090001D02*
D03*
X1125001Y1080001D02*
D03*
X1120001Y1070001D02*
D03*
X1110001Y1250001D02*
D03*
Y1150001D02*
D03*
X1115001Y1140001D02*
D03*
X1110001Y1130001D02*
D03*
X1115001Y1120001D02*
D03*
X1110001Y1110001D02*
D03*
X1115001Y1100001D02*
D03*
X1110001Y1090001D02*
D03*
X1115001Y1080001D02*
D03*
X1110001Y1070001D02*
D03*
X1100001Y1250001D02*
D03*
Y1150001D02*
D03*
X1105001Y1140001D02*
D03*
X1100001Y1130001D02*
D03*
X1105001Y1120001D02*
D03*
X1100001Y1110001D02*
D03*
X1105001Y1100001D02*
D03*
X1100001Y1090001D02*
D03*
X1105001Y1080001D02*
D03*
X1100001Y1070001D02*
D03*
X1090001Y1250001D02*
D03*
Y1150001D02*
D03*
X1095001Y1140001D02*
D03*
X1090001Y1130001D02*
D03*
X1095001Y1120001D02*
D03*
X1090001Y1110001D02*
D03*
X1095001Y1100001D02*
D03*
X1090001Y1090001D02*
D03*
X1095001Y1080001D02*
D03*
X1090001Y1070001D02*
D03*
X1080001Y1250001D02*
D03*
Y1150001D02*
D03*
X1085001Y1140001D02*
D03*
X1080001Y1130001D02*
D03*
X1085001Y1120001D02*
D03*
X1080001Y1110001D02*
D03*
X1085001Y1100001D02*
D03*
X1080001Y1090001D02*
D03*
X1085001Y1080001D02*
D03*
X1080001Y1070001D02*
D03*
X1070001Y1250001D02*
D03*
Y1150001D02*
D03*
X1075001Y1140001D02*
D03*
X1070001Y1130001D02*
D03*
X1075001Y1120001D02*
D03*
X1070001Y1110001D02*
D03*
X1075001Y1100001D02*
D03*
X1070001Y1090001D02*
D03*
X1075001Y1080001D02*
D03*
X1070001Y1070001D02*
D03*
X1065001Y1120001D02*
D03*
X1060001Y1110001D02*
D03*
X1065001Y1100001D02*
D03*
X1060001Y1090001D02*
D03*
X1065001Y1080001D02*
D03*
X1060001Y1070001D02*
D03*
X1050001D02*
D03*
X1040001D02*
D03*
X1030001D02*
D03*
X1020001D02*
D03*
X1010001D02*
D03*
X1005001Y1120001D02*
D03*
X1000001Y1110001D02*
D03*
X1005001Y1100001D02*
D03*
X1000001Y1090001D02*
D03*
X1005001Y1080001D02*
D03*
X1000001Y1070001D02*
D03*
X995001Y1120001D02*
D03*
X990001Y1110001D02*
D03*
X995001Y1100001D02*
D03*
X990001Y1090001D02*
D03*
X995001Y1080001D02*
D03*
X990001Y1070001D02*
D03*
X985001Y1120001D02*
D03*
X980001Y1110001D02*
D03*
X985001Y1100001D02*
D03*
X980001Y1090001D02*
D03*
X985001Y1080001D02*
D03*
X980001Y1070001D02*
D03*
X975001Y1120001D02*
D03*
X970001Y1110001D02*
D03*
X975001Y1100001D02*
D03*
X970001Y1090001D02*
D03*
X975001Y1080001D02*
D03*
X970001Y1070001D02*
D03*
X905001Y1120001D02*
D03*
X900001Y1110001D02*
D03*
X905001Y1100001D02*
D03*
X900001Y1090001D02*
D03*
X905001Y1080001D02*
D03*
X900001Y1070001D02*
D03*
X895001Y1120001D02*
D03*
X890001Y1110001D02*
D03*
X895001Y1100001D02*
D03*
X890001Y1090001D02*
D03*
X895001Y1080001D02*
D03*
X890001Y1070001D02*
D03*
X864250Y1437500D02*
D03*
X1351750Y1269000D02*
D03*
X1045250Y1189000D02*
D03*
Y1165000D02*
D03*
X1045000Y1137250D02*
D03*
X1025250Y1137000D02*
D03*
X790500Y1168750D02*
D03*
X725250Y1471250D02*
D03*
X705000Y1181000D02*
D03*
X789750Y1129500D02*
D03*
X789500Y1073500D02*
D03*
X1027750Y1188250D02*
D03*
X1026750Y1165500D02*
D03*
X960860Y1159650D02*
D03*
X864250Y1455500D02*
D03*
X855550Y1152950D02*
D03*
Y1099550D02*
D03*
X790500Y1150500D02*
D03*
X706250Y1471250D02*
D03*
X790500Y1111000D02*
D03*
X789750Y1091000D02*
D03*
X806250Y498750D02*
D03*
X873000Y408500D02*
D03*
X827500Y543000D02*
D03*
X803000Y544250D02*
D03*
X843500Y627250D02*
D03*
X999250Y518250D02*
D03*
X978750Y623500D02*
D03*
X768750Y641000D02*
D03*
X794750Y665250D02*
D03*
X789750Y685750D02*
D03*
X765000Y821500D02*
D03*
X799750Y758250D02*
D03*
X946750Y660250D02*
D03*
X811250Y686000D02*
D03*
X831250Y685500D02*
D03*
X844000Y774000D02*
D03*
X854500Y901250D02*
D03*
X866000Y763500D02*
D03*
X1030500Y398500D02*
D03*
X1182500Y425750D02*
D03*
X1183090Y445390D02*
D03*
X1165750Y529250D02*
D03*
X1034000Y573000D02*
D03*
X1053500Y587500D02*
D03*
X1111250Y690000D02*
D03*
X872750Y499750D02*
D03*
X1045250Y446750D02*
D03*
X1203500Y424000D02*
D03*
X1046000Y394250D02*
D03*
X1215750Y424000D02*
D03*
X989250Y460000D02*
D03*
X1076750Y776000D02*
D03*
X989750Y438000D02*
D03*
X989500Y449250D02*
D03*
X1058500Y396000D02*
D03*
X1227750Y423750D02*
D03*
X1101500Y519257D02*
D03*
X852250Y526000D02*
D03*
X1240250Y423500D02*
D03*
X1238500Y457250D02*
D03*
X1150750Y541000D02*
D03*
X1102000Y784750D02*
D03*
X1115000Y472000D02*
D03*
X936500Y624250D02*
D03*
X1115250Y517500D02*
D03*
X968000Y417500D02*
D03*
X1080250Y449250D02*
D03*
X947250Y678500D02*
D03*
X1029000Y709500D02*
D03*
M02*
