G04*
G04 #@! TF.GenerationSoftware,Altium Limited,Altium Designer,26.4.1 (12)*
G04*
G04 Layer_Physical_Order=4*
G04 Layer_Color=16711680*
%FSLAX44Y44*%
%MOMM*%
G71*
G04*
G04 #@! TF.SameCoordinates,DF97135C-EA84-44B9-BAFA-11E43E9B2FB1*
G04*
G04*
G04 #@! TF.FilePolarity,Positive*
G04*
G01*
G75*
%ADD12C,0.1524*%
%ADD14C,0.2540*%
%ADD15R,1.3500X1.0000*%
%ADD17R,1.0000X1.3500*%
%ADD22C,0.2540*%
%ADD32C,1.9050*%
%ADD36C,0.3000*%
%ADD37C,1.0000*%
%ADD38R,1.5240X1.5240*%
%ADD39C,1.5240*%
%ADD40C,1.8000*%
%ADD41R,1.8000X1.8000*%
%ADD42R,1.8000X1.8000*%
%ADD43R,1.5240X1.5240*%
%ADD44C,0.6000*%
%ADD45C,0.6000*%
%ADD54R,1.5000X0.3000*%
%ADD55R,0.3000X1.5000*%
%ADD56R,0.8588X0.8508*%
%ADD57R,0.8508X0.8588*%
%ADD58R,0.9300X0.8100*%
%ADD59R,3.2500X2.1500*%
%ADD60R,0.9500X2.1500*%
%AMCUSTOMSHAPE61*
4,1,4,-0.9271,1.6510,0.9271,1.6510,0.9271,-1.6510,-0.9271,-1.6510,-0.9271,1.6510,0.0*%
%ADD61CUSTOMSHAPE61*%

%ADD62R,1.8542X0.6604*%
G04:AMPARAMS|DCode=63|XSize=1.58mm|YSize=0.6mm|CornerRadius=0.075mm|HoleSize=0mm|Usage=FLASHONLY|Rotation=90.000|XOffset=0mm|YOffset=0mm|HoleType=Round|Shape=RoundedRectangle|*
%AMROUNDEDRECTD63*
21,1,1.5800,0.4500,0,0,90.0*
21,1,1.4300,0.6000,0,0,90.0*
1,1,0.1500,0.2250,0.7150*
1,1,0.1500,0.2250,-0.7150*
1,1,0.1500,-0.2250,-0.7150*
1,1,0.1500,-0.2250,0.7150*
%
%ADD63ROUNDEDRECTD63*%
%ADD64R,8.5000X8.0000*%
%ADD65R,4.1500X4.6500*%
%ADD66R,5.0900X6.3200*%
%ADD67R,1.5000X1.2000*%
G04:AMPARAMS|DCode=68|XSize=3.02mm|YSize=0.97mm|CornerRadius=0.2425mm|HoleSize=0mm|Usage=FLASHONLY|Rotation=90.000|XOffset=0mm|YOffset=0mm|HoleType=Round|Shape=RoundedRectangle|*
%AMROUNDEDRECTD68*
21,1,3.0200,0.4850,0,0,90.0*
21,1,2.5350,0.9700,0,0,90.0*
1,1,0.4850,0.2425,1.2675*
1,1,0.4850,0.2425,-1.2675*
1,1,0.4850,-0.2425,-1.2675*
1,1,0.4850,-0.2425,1.2675*
%
%ADD68ROUNDEDRECTD68*%
%ADD69R,1.4000X2.1000*%
%ADD70R,1.3700X2.4300*%
%ADD71R,1.5748X0.6096*%
G36*
X813750Y1439750D02*
Y1434500D01*
X811827Y1432578D01*
X808790Y1432170D01*
X808790Y1442330D01*
X811170D01*
X813750Y1439750D01*
D02*
G37*
G36*
X803960Y1432045D02*
X801580D01*
X799000Y1434625D01*
Y1439875D01*
X800923Y1441797D01*
X803960Y1442205D01*
X803960Y1432045D01*
D02*
G37*
G36*
X990750Y1439500D02*
Y1434250D01*
X988828Y1432328D01*
X985790Y1431920D01*
X985790Y1442080D01*
X988170D01*
X990750Y1439500D01*
D02*
G37*
G36*
X980960Y1431795D02*
X978580D01*
X976000Y1434375D01*
Y1439625D01*
X977923Y1441548D01*
X980960Y1441955D01*
X980960Y1431795D01*
D02*
G37*
G36*
X991500Y1376750D02*
Y1371500D01*
X989577Y1369577D01*
X986540Y1369170D01*
X986540Y1379330D01*
X988920D01*
X991500Y1376750D01*
D02*
G37*
G36*
X981710Y1369045D02*
X979330D01*
X976750Y1371625D01*
Y1376875D01*
X978672Y1378797D01*
X981710Y1379205D01*
X981710Y1369045D01*
D02*
G37*
G36*
X814000Y1376500D02*
Y1371250D01*
X812077Y1369328D01*
X809040Y1368920D01*
X809040Y1379080D01*
X811420D01*
X814000Y1376500D01*
D02*
G37*
G36*
X804210Y1368795D02*
X801830D01*
X799250Y1371375D01*
Y1376625D01*
X801173Y1378548D01*
X804210Y1378955D01*
X804210Y1368795D01*
D02*
G37*
G36*
X991500Y1334250D02*
Y1329000D01*
X989577Y1327077D01*
X986540Y1326670D01*
X986540Y1336830D01*
X988920D01*
X991500Y1334250D01*
D02*
G37*
G36*
X981710Y1326545D02*
X979330D01*
X976750Y1329125D01*
Y1334375D01*
X978672Y1336297D01*
X981710Y1336705D01*
X981710Y1326545D01*
D02*
G37*
G36*
X812750Y1333500D02*
Y1328250D01*
X810827Y1326328D01*
X807790Y1325920D01*
X807790Y1336080D01*
X810170D01*
X812750Y1333500D01*
D02*
G37*
G36*
X802960Y1325795D02*
X800580D01*
X798000Y1328375D01*
Y1333625D01*
X799923Y1335547D01*
X802960Y1335955D01*
X802960Y1325795D01*
D02*
G37*
G36*
X872750Y1165000D02*
Y1149500D01*
X900500D01*
Y1131250D01*
X824750D01*
Y1149332D01*
X826750Y1149939D01*
X826906Y1149706D01*
X828394Y1148711D01*
X830150Y1148362D01*
X831906Y1148711D01*
X833394Y1149706D01*
X834389Y1151194D01*
X834738Y1152950D01*
Y1156844D01*
X834938Y1157850D01*
X834589Y1159606D01*
X833594Y1161094D01*
X832106Y1162089D01*
X830350Y1162438D01*
X830150D01*
X828394Y1162089D01*
X826906Y1161094D01*
X826750Y1160861D01*
X824750Y1161468D01*
Y1177494D01*
X872750D01*
Y1165000D01*
D02*
G37*
G36*
X927500Y1177500D02*
Y1141750D01*
X904500D01*
Y1151000D01*
X900798D01*
X900500Y1151124D01*
X874500D01*
Y1178750D01*
X927500D01*
Y1177500D01*
D02*
G37*
G36*
X1036000Y1199750D02*
Y1152000D01*
X978000D01*
Y1140250D01*
X947000D01*
Y1179750D01*
X996750D01*
X1016500Y1200000D01*
X1036000D01*
Y1199750D01*
D02*
G37*
G36*
X1205750Y1060000D02*
X883500D01*
Y1128250D01*
X1060750D01*
Y1262500D01*
X1205750D01*
Y1060000D01*
D02*
G37*
G36*
X1408250Y1059652D02*
X1406834Y1058240D01*
X1403000Y1058250D01*
X1218750Y1058750D01*
Y1386750D01*
Y1392500D01*
X1408250D01*
Y1059652D01*
D02*
G37*
G36*
X881250Y738971D02*
X880500Y737124D01*
X856250D01*
Y790750D01*
X843250D01*
Y813500D01*
X784250D01*
Y838000D01*
X823250D01*
Y844000D01*
X881250D01*
X881250Y738971D01*
D02*
G37*
G36*
X834250Y760750D02*
X854000D01*
Y735500D01*
X880500D01*
Y716500D01*
X826000D01*
Y725336D01*
X827290Y726802D01*
X828000Y726802D01*
X846038D01*
Y735898D01*
X828000D01*
X827440Y735898D01*
X826576Y736709D01*
X826000Y737364D01*
Y752500D01*
X815250D01*
Y767250D01*
X786500D01*
Y810750D01*
X834250D01*
Y760750D01*
D02*
G37*
G36*
X819250Y858000D02*
Y842500D01*
X781000D01*
Y719500D01*
Y712000D01*
X845250D01*
Y682000D01*
X841823Y678573D01*
X840000Y679578D01*
X840000Y680760D01*
Y692000D01*
X823500D01*
Y679000D01*
X838097D01*
X839422Y679000D01*
X840427Y677177D01*
X823000Y659750D01*
Y632250D01*
Y630000D01*
X806250D01*
Y650250D01*
Y657750D01*
X801750D01*
Y674250D01*
X788750D01*
Y657750D01*
X743000D01*
Y677250D01*
X716750D01*
Y725750D01*
Y858000D01*
X819250Y858000D01*
D02*
G37*
G36*
X875441Y649517D02*
X856087Y630163D01*
X855424Y629170D01*
X855191Y628000D01*
X855191Y628000D01*
Y604521D01*
X853191Y603985D01*
X852548Y605100D01*
X850850Y606798D01*
X848770Y607999D01*
X846451Y608620D01*
X844049D01*
X841730Y607999D01*
X839650Y606798D01*
X837952Y605100D01*
X836751Y603020D01*
X836130Y600701D01*
Y598299D01*
X836751Y595980D01*
X837952Y593900D01*
X839650Y592202D01*
X841730Y591002D01*
X844049Y590380D01*
X846451D01*
X848770Y591002D01*
X850850Y592202D01*
X852548Y593900D01*
X853191Y595015D01*
X855191Y594479D01*
Y583767D01*
X843674Y572250D01*
X775250D01*
Y629750D01*
X775500D01*
Y654250D01*
X777293Y654750D01*
X801250D01*
Y634500D01*
Y625000D01*
X825000D01*
Y646000D01*
Y655500D01*
X875441D01*
Y649517D01*
D02*
G37*
G36*
X879941Y642752D02*
Y597500D01*
X879941Y597500D01*
X880174Y596329D01*
X880837Y595337D01*
X886250Y589924D01*
Y572250D01*
X854939D01*
X854174Y574098D01*
X860413Y580337D01*
X861076Y581329D01*
X861309Y582500D01*
Y626733D01*
X878093Y643518D01*
X879941Y642752D01*
D02*
G37*
%LPC*%
G36*
X857800Y1162394D02*
X853300D01*
X852422Y1162219D01*
X851678Y1161722D01*
X851181Y1160978D01*
X851006Y1160100D01*
Y1145800D01*
X851181Y1144922D01*
X851678Y1144178D01*
X852422Y1143681D01*
X853300Y1143506D01*
X857800D01*
X858678Y1143681D01*
X859422Y1144178D01*
X859919Y1144922D01*
X860094Y1145800D01*
Y1160100D01*
X859919Y1160978D01*
X859422Y1161722D01*
X858678Y1162219D01*
X857800Y1162394D01*
D02*
G37*
G36*
X1358382Y1385200D02*
X1355618D01*
X1352947Y1384484D01*
X1350553Y1383102D01*
X1348598Y1381147D01*
X1347216Y1378753D01*
X1346500Y1376082D01*
Y1373318D01*
X1347216Y1370647D01*
X1348598Y1368253D01*
X1350553Y1366298D01*
X1352947Y1364916D01*
X1355618Y1364200D01*
X1358382D01*
X1361053Y1364916D01*
X1363447Y1366298D01*
X1365402Y1368253D01*
X1366784Y1370647D01*
X1367500Y1373318D01*
Y1376082D01*
X1366784Y1378753D01*
X1365402Y1381147D01*
X1363447Y1383102D01*
X1361053Y1384484D01*
X1358382Y1385200D01*
D02*
G37*
G36*
Y1309000D02*
X1355618D01*
X1352947Y1308284D01*
X1350553Y1306902D01*
X1348598Y1304947D01*
X1347216Y1302553D01*
X1346500Y1299882D01*
Y1297118D01*
X1347216Y1294447D01*
X1348598Y1292053D01*
X1350553Y1290098D01*
X1352947Y1288716D01*
X1355618Y1288000D01*
X1358382D01*
X1361053Y1288716D01*
X1363447Y1290098D01*
X1365402Y1292053D01*
X1366784Y1294447D01*
X1367500Y1297118D01*
Y1299882D01*
X1366784Y1302553D01*
X1365402Y1304947D01*
X1363447Y1306902D01*
X1361053Y1308284D01*
X1358382Y1309000D01*
D02*
G37*
G36*
X1333750Y1272059D02*
X1332579Y1271826D01*
X1331587Y1271163D01*
X1330924Y1270171D01*
X1330691Y1269000D01*
Y1267250D01*
X1330924Y1266079D01*
X1331587Y1265087D01*
X1332579Y1264424D01*
X1333750Y1264191D01*
X1334921Y1264424D01*
X1335913Y1265087D01*
X1336576Y1266079D01*
X1336809Y1267250D01*
Y1269000D01*
X1336576Y1270171D01*
X1335913Y1271163D01*
X1334921Y1271826D01*
X1333750Y1272059D01*
D02*
G37*
G36*
X1332982Y1334400D02*
X1330218D01*
X1327547Y1333684D01*
X1325153Y1332302D01*
X1323198Y1330347D01*
X1321816Y1327953D01*
X1321100Y1325282D01*
Y1322518D01*
X1321816Y1319847D01*
X1323198Y1317453D01*
X1325044Y1315607D01*
Y1292092D01*
X1325267Y1290396D01*
X1325922Y1288814D01*
X1326964Y1287457D01*
X1338952Y1275468D01*
X1339572Y1273972D01*
X1340614Y1272614D01*
X1345250Y1267978D01*
Y1260750D01*
X1358250D01*
Y1268574D01*
X1358306Y1269000D01*
Y1270750D01*
X1358250Y1271176D01*
Y1277250D01*
X1354522D01*
X1351548Y1280224D01*
X1350928Y1281720D01*
X1349886Y1283078D01*
X1338156Y1294808D01*
Y1315607D01*
X1340002Y1317453D01*
X1341384Y1319847D01*
X1342100Y1322518D01*
Y1325282D01*
X1341384Y1327953D01*
X1340002Y1330347D01*
X1338047Y1332302D01*
X1335653Y1333684D01*
X1332982Y1334400D01*
D02*
G37*
G36*
X863750Y788309D02*
X862579Y788076D01*
X861587Y787413D01*
X860924Y786421D01*
X860691Y785250D01*
X860924Y784080D01*
X861587Y783087D01*
X864837Y779837D01*
X865829Y779174D01*
X867000Y778941D01*
X868170Y779174D01*
X869163Y779837D01*
X869826Y780829D01*
X870059Y782000D01*
X869826Y783170D01*
X869163Y784163D01*
X865913Y787413D01*
X864921Y788076D01*
X863750Y788309D01*
D02*
G37*
G36*
X875000Y770250D02*
X858500D01*
Y757250D01*
X875000D01*
Y770250D01*
D02*
G37*
G36*
X822500Y779309D02*
X821329Y779076D01*
X820337Y778413D01*
X819674Y777421D01*
X819441Y776250D01*
X819674Y775079D01*
X820337Y774087D01*
X823337Y771087D01*
X823337Y771087D01*
X826837Y767587D01*
X827830Y766924D01*
X829000Y766691D01*
X830171Y766924D01*
X831163Y767587D01*
X831826Y768579D01*
X832059Y769750D01*
X831826Y770920D01*
X831163Y771913D01*
X827663Y775413D01*
X827663Y775413D01*
X824663Y778413D01*
X823671Y779076D01*
X822500Y779309D01*
D02*
G37*
G36*
X861250Y732385D02*
X860079Y732152D01*
X859087Y731489D01*
X858424Y730497D01*
X858191Y729326D01*
Y729000D01*
X858191Y729000D01*
X858424Y727830D01*
X859087Y726837D01*
X862587Y723337D01*
X863579Y722674D01*
X864750Y722441D01*
X864750Y722441D01*
X866500D01*
X867671Y722674D01*
X868663Y723337D01*
X869326Y724330D01*
X869559Y725500D01*
X869326Y726671D01*
X868663Y727663D01*
X867671Y728326D01*
X866500Y728559D01*
X866017D01*
X864069Y730507D01*
X863413Y731489D01*
X862421Y732152D01*
X861250Y732385D01*
D02*
G37*
G36*
X765000Y842809D02*
X763000D01*
X761830Y842576D01*
X760837Y841913D01*
X760174Y840920D01*
X759941Y839750D01*
X760174Y838579D01*
X760837Y837587D01*
X761830Y836924D01*
X763000Y836691D01*
X765000D01*
X766171Y836924D01*
X767163Y837587D01*
X767826Y838579D01*
X768059Y839750D01*
X767826Y840920D01*
X767163Y841913D01*
X766171Y842576D01*
X765000Y842809D01*
D02*
G37*
G36*
X773500Y827750D02*
X757000D01*
Y814750D01*
X773500D01*
Y827750D01*
D02*
G37*
G36*
X742632Y781450D02*
X739868D01*
X737197Y780734D01*
X734803Y779352D01*
X732848Y777397D01*
X731466Y775003D01*
X730750Y772332D01*
Y769568D01*
X731466Y766897D01*
X732848Y764503D01*
X734803Y762548D01*
X737197Y761166D01*
X739868Y760450D01*
X742632D01*
X745303Y761166D01*
X747697Y762548D01*
X749652Y764503D01*
X751034Y766897D01*
X751750Y769568D01*
Y772332D01*
X751034Y775003D01*
X749652Y777397D01*
X747697Y779352D01*
X745303Y780734D01*
X742632Y781450D01*
D02*
G37*
G36*
X777150Y730650D02*
X756150D01*
Y709650D01*
X773854D01*
X774150Y709591D01*
X774446Y709650D01*
X777150D01*
Y712354D01*
X777209Y712650D01*
X777150Y712946D01*
Y730650D01*
D02*
G37*
G36*
X742632Y705250D02*
X739868D01*
X737197Y704534D01*
X734803Y703152D01*
X732848Y701197D01*
X731466Y698803D01*
X730750Y696132D01*
Y693368D01*
X731466Y690697D01*
X732848Y688303D01*
X734803Y686348D01*
X737197Y684966D01*
X739868Y684250D01*
X742632D01*
X745303Y684966D01*
X747697Y686348D01*
X749652Y688303D01*
X751034Y690697D01*
X751750Y693368D01*
Y696132D01*
X751034Y698803D01*
X749652Y701197D01*
X747697Y703152D01*
X745303Y704534D01*
X742632Y705250D01*
D02*
G37*
G36*
X798500Y692500D02*
X782000D01*
Y679500D01*
X798500D01*
Y692500D01*
D02*
G37*
G36*
X819250Y692250D02*
X802750D01*
Y679250D01*
X819250D01*
Y692250D01*
D02*
G37*
G36*
X846000Y648059D02*
X844250D01*
X843080Y647826D01*
X842087Y647163D01*
X841424Y646171D01*
X841191Y645000D01*
X841424Y643829D01*
X842087Y642837D01*
X843080Y642174D01*
X844250Y641941D01*
X846000D01*
X847170Y642174D01*
X848163Y642837D01*
X848826Y643829D01*
X849059Y645000D01*
X848826Y646171D01*
X848163Y647163D01*
X847170Y647826D01*
X846000Y648059D01*
D02*
G37*
G36*
X852500Y633500D02*
X836000D01*
Y620500D01*
X852500D01*
Y633500D01*
D02*
G37*
%LPD*%
D12*
X803710Y1437250D02*
X808790D01*
X802710Y1331000D02*
X807790D01*
X803960Y1374000D02*
X809040D01*
X980710Y1437000D02*
X985790D01*
X981460Y1331750D02*
X986540D01*
X981460Y1374250D02*
X986540D01*
D14*
X811330Y1437250D02*
D03*
X810330Y1331000D02*
D03*
X800170D02*
D03*
X978170Y1437000D02*
D03*
X978920Y1374250D02*
D03*
Y1331750D02*
D03*
X801420Y1374000D02*
D03*
X801170Y1437250D02*
D03*
X811580Y1374000D02*
D03*
X988330Y1437000D02*
D03*
X989080Y1331750D02*
D03*
Y1374250D02*
D03*
D15*
X1130000Y579750D02*
D03*
X1110000D02*
D03*
Y561750D02*
D03*
X1130000D02*
D03*
X1322500Y458750D02*
D03*
X1321750Y405500D02*
D03*
X1011250Y572750D02*
D03*
X852000Y544000D02*
D03*
X999000Y536500D02*
D03*
X992250Y397000D02*
D03*
X844250Y645000D02*
D03*
X886250Y1160000D02*
D03*
Y1142000D02*
D03*
X705250Y1200000D02*
D03*
X864250Y1437500D02*
D03*
X790250Y1168750D02*
D03*
X705250Y1182000D02*
D03*
X790250Y1129500D02*
D03*
X789750Y1073000D02*
D03*
X864250Y1455500D02*
D03*
X790250Y1150750D02*
D03*
Y1111500D02*
D03*
X789750Y1091000D02*
D03*
X790250Y704000D02*
D03*
Y686000D02*
D03*
X831750Y703500D02*
D03*
Y685500D02*
D03*
X811000Y703750D02*
D03*
Y685750D02*
D03*
X802750Y544000D02*
D03*
X827500Y543750D02*
D03*
X844250Y627000D02*
D03*
X992250Y415000D02*
D03*
X999000Y518500D02*
D03*
X799750Y758750D02*
D03*
X765250Y821250D02*
D03*
X947500Y660750D02*
D03*
X866750Y763750D02*
D03*
X1034000Y573000D02*
D03*
X765250Y839250D02*
D03*
X1034000Y555000D02*
D03*
X802750Y526000D02*
D03*
X1011250Y590750D02*
D03*
X852000Y526000D02*
D03*
X827500Y525750D02*
D03*
X1321750Y423500D02*
D03*
X1322500Y440750D02*
D03*
X968000Y417500D02*
D03*
Y399500D02*
D03*
X799750Y776750D02*
D03*
X866500Y725500D02*
D03*
X866750Y781750D02*
D03*
X947500Y678750D02*
D03*
X866500Y743500D02*
D03*
D17*
X872250Y901250D02*
D03*
X1184750Y496000D02*
D03*
X1010000Y764500D02*
D03*
X966500Y765000D02*
D03*
X1184000Y529250D02*
D03*
X1165000Y425750D02*
D03*
X1011750Y398750D02*
D03*
X1028000Y764500D02*
D03*
X984500Y765000D02*
D03*
X815000Y1415250D02*
D03*
X797000D02*
D03*
X796500Y1352750D02*
D03*
X797000Y1394750D02*
D03*
X973500Y1415500D02*
D03*
Y1395250D02*
D03*
X974000Y1353000D02*
D03*
X814500Y1352750D02*
D03*
X1333750Y1269000D02*
D03*
X1351750D02*
D03*
X1045250Y1189000D02*
D03*
X1045000Y1165000D02*
D03*
X724750Y1471500D02*
D03*
X1027250Y1189000D02*
D03*
X1027000Y1165000D02*
D03*
X706750Y1471500D02*
D03*
X795250Y666000D02*
D03*
X843500Y773250D02*
D03*
X854250Y901250D02*
D03*
X1029750Y398750D02*
D03*
X1183000Y425750D02*
D03*
X1183000Y445250D02*
D03*
X1166000Y529250D02*
D03*
X1053750Y588000D02*
D03*
X813250Y666000D02*
D03*
X1165000Y445250D02*
D03*
X1071750Y588000D02*
D03*
X1166750Y496000D02*
D03*
X825500Y773250D02*
D03*
X815000Y1394750D02*
D03*
X992000Y1353000D02*
D03*
X991500Y1395250D02*
D03*
Y1415500D02*
D03*
D22*
X813420Y1435160D02*
G03*
X813870Y1437250I-4630J2090D01*
G01*
X811330Y1432851D02*
G03*
X813420Y1435160I-2540J4399D01*
G01*
X813870Y1437250D02*
G03*
X808790Y1442330I-5080J0D01*
G01*
X803710D02*
G03*
X803710Y1432170I0J-5080D01*
G01*
X808790D02*
G03*
X811330Y1432851I0J5080D01*
G01*
X810330Y1335399D02*
G03*
X807790Y1336080I-2540J-4399D01*
G01*
Y1325920D02*
G03*
X812870Y1331000I0J5080D01*
G01*
X812420Y1333090D02*
G03*
X810330Y1335399I-4630J-2090D01*
G01*
X812870Y1331000D02*
G03*
X812420Y1333090I-5080J0D01*
G01*
X811580Y1378399D02*
G03*
X809040Y1379080I-2540J-4399D01*
G01*
X813670Y1376090D02*
G03*
X811580Y1378399I-4630J-2090D01*
G01*
X814120Y1374000D02*
G03*
X813670Y1376090I-5080J0D01*
G01*
X802710Y1336080D02*
G03*
X802710Y1325920I0J-5080D01*
G01*
X811580Y1369601D02*
G03*
X814120Y1374000I-2540J4399D01*
G01*
X809040Y1368920D02*
G03*
X811580Y1369601I0J5080D01*
G01*
X803960Y1379080D02*
G03*
X803960Y1368920I0J-5080D01*
G01*
X980710Y1442080D02*
G03*
X980710Y1431920I0J-5080D01*
G01*
X985790D02*
G03*
X988330Y1432601I0J5080D01*
G01*
D02*
G03*
X985790Y1442080I-2540J4399D01*
G01*
X981460Y1336830D02*
G03*
X981460Y1326670I0J-5080D01*
G01*
X986540D02*
G03*
X989080Y1336149I0J5080D01*
G01*
D02*
G03*
X986540Y1336830I-2540J-4399D01*
G01*
X981460Y1379330D02*
G03*
X981460Y1369170I0J-5080D01*
G01*
X986540D02*
G03*
X989080Y1378649I0J5080D01*
G01*
D02*
G03*
X986540Y1379330I-2540J-4399D01*
G01*
X808790Y1437250D02*
Y1442330D01*
X803710Y1432170D02*
Y1442330D01*
X808790Y1432170D02*
Y1437250D01*
X807790Y1331000D02*
Y1336080D01*
Y1325920D02*
Y1331000D01*
X809040Y1374000D02*
Y1379080D01*
Y1368920D02*
Y1374000D01*
X802710Y1325920D02*
Y1336080D01*
X803960Y1368920D02*
Y1379080D01*
X980710Y1431920D02*
Y1442080D01*
X985790Y1431920D02*
Y1437000D01*
Y1442080D01*
X986540Y1326670D02*
Y1331750D01*
X981460Y1326670D02*
Y1336830D01*
X986540Y1331750D02*
Y1336830D01*
X981460Y1369170D02*
Y1379330D01*
X986540Y1369170D02*
Y1374250D01*
Y1379330D01*
D32*
X1137750Y1411750D02*
D03*
X1172750D02*
D03*
X1137750Y1436750D02*
D03*
X1172750D02*
D03*
X1341750Y1437000D02*
D03*
Y1412000D02*
D03*
X1306750Y1437000D02*
D03*
Y1412000D02*
D03*
D36*
X1181250Y499500D02*
X1184750Y496000D01*
X1181250Y499500D02*
Y505500D01*
X1184750Y494250D02*
Y496000D01*
X1162875Y510000D02*
X1176750D01*
X1154875Y502000D02*
X1162875Y510000D01*
X1176750D02*
X1181250Y505500D01*
X1176750Y486250D02*
X1184750Y494250D01*
X1159871Y486250D02*
X1176750D01*
X1135000Y492000D02*
X1154121D01*
X1159871Y486250D01*
X1129250Y578750D02*
X1130250Y579750D01*
X1129750Y580000D02*
X1130000Y579750D01*
X1129500D02*
X1129750Y579500D01*
X1130000Y579750D01*
X1135000Y502000D02*
X1154875D01*
X1116562D02*
X1135000D01*
X1110000Y578750D02*
X1129250D01*
X1108250Y579750D02*
X1110000D01*
X1107250Y578750D02*
X1110000D01*
X1095500Y516265D02*
X1107941Y503824D01*
X1114500Y503250D02*
X1115312D01*
X1116562Y502000D01*
X1107941Y503824D02*
X1113926D01*
X1114500Y503250D01*
X1095500Y567000D02*
X1107250Y578750D01*
X1095500Y516265D02*
Y536500D01*
Y567000D01*
X1028000Y764500D02*
X1028500Y764000D01*
X1028000D02*
Y764500D01*
Y750114D02*
Y764000D01*
X984500Y737750D02*
Y765000D01*
X948000Y713500D02*
X960250D01*
X975750Y729000D02*
X984500Y737750D01*
X1129750Y562000D02*
X1131750Y564000D01*
X1129850Y561900D02*
X1130150D01*
X1131750Y564000D02*
X1154706D01*
X863750Y785250D02*
X867000Y782000D01*
X1100500Y536500D02*
Y554000D01*
X1108250Y561750D01*
X1110000D01*
X1130000D01*
X1129750Y561500D02*
X1130000Y561750D01*
X1130150Y561900D01*
X1129750Y562000D02*
X1129850Y561900D01*
X1130150D02*
X1131750Y563500D01*
X999000Y536000D02*
X1001250D01*
X1004250Y533000D02*
X1010500D01*
X1002000D02*
X1004250D01*
X1010500D02*
X1021000Y522500D01*
X999000Y536000D02*
X1002000Y533000D01*
X1021000Y517000D02*
Y522500D01*
X1200250Y762000D02*
Y771500D01*
X1160750Y722500D02*
X1200250Y762000D01*
X1184000Y527500D02*
X1184500Y528000D01*
Y529500D01*
X1172500Y517500D02*
X1184000Y529000D01*
X1025250Y722500D02*
X1160750D01*
X1184000Y529000D02*
Y529250D01*
X1161250Y517500D02*
X1172500D01*
X1016007Y517000D02*
X1021000D01*
X1150750Y507000D02*
X1161250Y517500D01*
X1135000Y507000D02*
X1150750D01*
X1135000Y435000D02*
X1144250Y425750D01*
X1164660D01*
X1135000Y435000D02*
Y442000D01*
X1011750Y400500D02*
X1033750Y422500D01*
X1040500Y416693D02*
Y422500D01*
X1033750D02*
X1040500D01*
X1011750Y398500D02*
Y398750D01*
Y400500D01*
X1010250Y397000D02*
X1011750Y398500D01*
X959750Y657000D02*
X1025250Y722500D01*
X959750Y631000D02*
Y657000D01*
X1001250Y536000D02*
X1004250Y533000D01*
X1010250Y397000D02*
X1010250Y397000D01*
X992250D02*
X1010250D01*
X992250D02*
X993000Y397750D01*
X992250Y397000D02*
X992250Y397000D01*
X992250D02*
X992250D01*
X844250Y645000D02*
X846000D01*
X1006386Y728500D02*
X1028000Y750114D01*
X975250Y728500D02*
X1006386D01*
X960250Y713500D02*
X975250Y728500D01*
X972500Y1300500D02*
Y1325330D01*
X978920Y1331750D01*
X958500Y1353830D02*
X978920Y1374250D01*
X958500Y1314500D02*
Y1353830D01*
X944750Y1328250D02*
Y1349750D01*
X957500Y1362500D01*
X1070250Y519750D02*
X1070500Y520000D01*
Y536500D01*
X1094000Y497000D02*
X1135000D01*
X1093750Y497250D02*
X1094000Y497000D01*
X1135000D02*
X1165750D01*
X1069250Y399500D02*
X1075500Y405750D01*
Y422500D01*
X957500Y1362500D02*
Y1429000D01*
X1029750Y1257000D02*
Y1301150D01*
X1016750Y1314150D02*
X1029750Y1301150D01*
X1003000Y1230250D02*
X1029750Y1257000D01*
X907600Y1230250D02*
X1003000D01*
X887850Y1210500D02*
X907600Y1230250D01*
X842850Y1099550D02*
Y1113412D01*
X850188Y1120750D01*
X964272Y794500D02*
X1084750D01*
X1085250Y794000D01*
X883000Y706864D02*
X960886Y784750D01*
X883000Y597500D02*
Y706864D01*
X878500Y648250D02*
Y708728D01*
X960886Y784750D02*
X1102000D01*
X1074188Y777750D02*
X1075938Y776000D01*
X1076750D01*
X878500Y708728D02*
X964272Y794500D01*
X927500Y645250D02*
Y745000D01*
X960250Y777750D01*
X1074188D01*
X763000Y839750D02*
X765000D01*
X1057250Y443750D02*
Y485750D01*
X1056750Y443250D02*
X1057250Y443750D01*
X1034500Y508500D02*
X1057250Y485750D01*
X984000Y579750D02*
X1034500Y529250D01*
Y508500D02*
Y529250D01*
X984000Y569250D02*
X984250Y569000D01*
X900750Y579750D02*
X984000D01*
X893789Y569250D02*
X984000D01*
X933250Y555750D02*
X933553Y555447D01*
X978000Y507000D02*
X1021000D01*
X933553Y551447D02*
Y555447D01*
Y551447D02*
X978000Y507000D01*
X975750Y502000D02*
X1021000D01*
X921500Y556250D02*
X975750Y502000D01*
X921500Y556250D02*
Y561750D01*
X971099Y497000D02*
X1021000D01*
X933364Y526250D02*
X972614Y487000D01*
X932750Y526250D02*
X933364D01*
X972614Y487000D02*
X1021000D01*
X860039Y535500D02*
X893789Y569250D01*
X840000Y554750D02*
Y564250D01*
X900000Y561250D02*
X925000Y536250D01*
X962000Y477000D02*
X962000Y477000D01*
X1021000D01*
X925000Y523500D02*
Y536250D01*
Y523500D02*
X966500Y482000D01*
X1021000D01*
X899000Y488950D02*
X910700Y477250D01*
X948449D01*
X950207Y475493D01*
Y474793D02*
Y475493D01*
Y474793D02*
X962250Y462750D01*
X969750D01*
X979000Y472000D01*
X1021000D01*
X858250Y628000D02*
X878500Y648250D01*
X858250Y582500D02*
Y628000D01*
X864750Y725500D02*
X866500D01*
X861250Y729000D02*
X864750Y725500D01*
X861250Y729000D02*
Y729326D01*
X850188Y1120750D02*
X851000D01*
X813420Y1435160D02*
X815000Y1433580D01*
Y1415250D02*
Y1433580D01*
X811330Y1437250D02*
X813420Y1435160D01*
X814750Y1413250D02*
X817440Y1415940D01*
X837800D01*
X811500Y1418750D02*
X815000Y1415250D01*
X710800Y1260228D02*
Y1262045D01*
X760850Y1210500D02*
Y1211995D01*
X710800Y1262045D02*
X760850Y1211995D01*
X710800Y1262045D02*
Y1263540D01*
X705250Y1200000D02*
Y1254678D01*
X710800Y1260228D01*
X781250Y1368250D02*
Y1427250D01*
X791250Y1437250D01*
X801170D01*
X762000Y1349000D02*
X781250Y1368250D01*
X965500Y1437000D02*
X978170D01*
X957500Y1429000D02*
X965500Y1437000D01*
X814500Y1352750D02*
X814890Y1353140D01*
X810330Y1331000D02*
X812420Y1333090D01*
X814500Y1335170D01*
Y1352750D01*
Y1354500D01*
X762000Y1331750D02*
Y1349000D01*
X789000Y1304000D02*
Y1319830D01*
X800170Y1331000D01*
X775500Y1318000D02*
Y1348080D01*
X801420Y1374000D01*
X813670Y1376090D02*
X815000Y1377420D01*
X811580Y1374000D02*
X813670Y1376090D01*
X815000Y1393250D02*
Y1394750D01*
Y1377420D02*
Y1393250D01*
X825410Y1352750D02*
X837800Y1365140D01*
X814500Y1352750D02*
X825410D01*
X817710Y1390540D02*
X837800D01*
X815000Y1393250D02*
X817710Y1390540D01*
X814750Y1389750D02*
Y1391500D01*
X1333750Y1267250D02*
Y1269000D01*
X887750Y1415750D02*
X889750D01*
X788500Y1168750D02*
X790250D01*
X788500Y1129500D02*
X789750D01*
X790250D01*
X792000D01*
X786250Y1076500D02*
X789250Y1073500D01*
X789750Y1073000D01*
X705000Y1181000D02*
X707500Y1178500D01*
X790250Y1150750D02*
X790500D01*
X792000D01*
X790250Y1111500D02*
X791743Y1112993D01*
X710800Y1441340D02*
Y1444652D01*
X873036Y1278130D02*
X1006130D01*
X862225Y1288940D02*
X873036Y1278130D01*
X837800Y1288940D02*
X862225D01*
X1006130Y1278130D02*
X1016750Y1288750D01*
X1006130Y1252730D02*
X1016750Y1263350D01*
X862225Y1263540D02*
X873036Y1252730D01*
X837800Y1263540D02*
X862225D01*
X873036Y1252730D02*
X1006130D01*
X840000Y564250D02*
X858250Y582500D01*
X994000Y415000D02*
X1012000Y433000D01*
X992250Y415000D02*
X994000D01*
X1012000Y433000D02*
X1043243D01*
X978500Y623750D02*
X978750Y623500D01*
X999250Y518250D02*
X1001000D01*
X768750Y641000D02*
X768993Y641243D01*
X788750Y685750D02*
X789750D01*
X766650Y720150D02*
X774150Y712650D01*
X763250Y821500D02*
X765000D01*
X766750D01*
X810750Y685500D02*
X811250Y686000D01*
X830500Y686250D02*
X831250Y685500D01*
X978500Y623750D02*
Y656451D01*
X1012048Y690000D02*
X1111250D01*
X978500Y656451D02*
X1012048Y690000D01*
X844000Y774000D02*
Y775500D01*
X854250Y901250D02*
X854500D01*
X1029750Y399250D02*
Y400500D01*
Y399250D02*
X1030500Y398500D01*
Y401250D01*
X1033250Y404000D01*
X1036000D01*
X1045500Y413500D01*
Y422500D01*
Y430743D01*
X1043243Y433000D02*
X1045500Y430743D01*
X1147257Y447000D02*
X1158757Y435500D01*
X1135000Y447000D02*
X1147257D01*
X1135000Y512000D02*
X1148500D01*
X1165750Y529250D01*
X1171243Y435500D02*
X1175743Y440000D01*
X1158757Y435500D02*
X1171243D01*
X1175743Y440000D02*
X1179500D01*
X1183000Y425750D02*
X1185950Y428700D01*
X1182500Y425750D02*
X1183000D01*
X1182500D02*
X1183090Y426340D01*
X1179500Y440000D02*
X1183090Y443590D01*
X1161625Y524875D02*
X1165750Y529000D01*
X1183090Y443590D02*
Y445390D01*
Y426340D02*
Y443590D01*
X1165750Y527250D02*
Y529000D01*
Y527250D02*
X1166000Y527500D01*
X1165750Y529000D02*
Y529250D01*
Y529000D02*
X1166000Y529250D01*
Y527500D02*
Y529250D01*
X1168500Y527875D02*
Y530000D01*
X1001000Y518250D02*
X1004250Y515000D01*
Y513757D02*
Y515000D01*
X1006007Y512000D02*
X1021000D01*
X1001000Y518250D02*
X1004250Y515000D01*
Y513757D02*
X1006007Y512000D01*
X1045500Y447000D02*
Y479250D01*
X1045250Y446750D02*
X1045500Y447000D01*
X1032750Y492000D02*
X1045500Y479250D01*
X1130000Y414000D02*
X1193500D01*
X1203500Y424000D01*
X1115500Y422500D02*
X1121500D01*
X1130000Y414000D01*
X1046000Y394250D02*
X1046688D01*
X1065500Y413062D01*
Y422500D01*
X1201000Y409250D02*
X1215750Y424000D01*
X1115507Y409250D02*
X1201000D01*
X1110500Y414257D02*
Y422500D01*
Y414257D02*
X1115507Y409250D01*
X989250Y460000D02*
X996250Y467000D01*
X1021000D01*
X1053750Y559850D02*
Y562000D01*
Y557700D02*
Y559850D01*
X1048900Y555000D02*
X1053750Y559850D01*
X1034000Y555000D02*
X1048900D01*
X1054250Y557200D02*
X1060500Y550950D01*
X1053750Y557700D02*
X1054250Y557200D01*
X1060500Y536500D02*
Y550950D01*
X1053750Y562000D02*
X1054250Y562500D01*
Y557200D02*
Y562500D01*
X812500Y535500D02*
X859993D01*
X881189Y514350D02*
X899000D01*
X860039Y535500D02*
X881189Y514350D01*
X804500Y527500D02*
X812500Y535500D01*
X791500Y527500D02*
X804500D01*
X772500Y508500D02*
X791500Y527500D01*
X766500Y508500D02*
X772500D01*
X761000Y499500D02*
Y503000D01*
X766500Y508500D01*
X761000Y408500D02*
Y499500D01*
X1165000Y445250D02*
Y447000D01*
X1160000Y452000D02*
X1165000Y447000D01*
X1135000Y452000D02*
X1160000D01*
X1165000Y443500D02*
Y445250D01*
X1111257Y550500D02*
X1230338D01*
X1105500Y544743D02*
X1111257Y550500D01*
X1230338D02*
X1239338Y541500D01*
X1242650D01*
X1105500Y536500D02*
Y544743D01*
X1022500Y600250D02*
X1075493D01*
X1085500Y536500D02*
Y590243D01*
X1075493Y600250D02*
X1085500Y590243D01*
X1013000Y590750D02*
X1022500Y600250D01*
X1011250Y590750D02*
X1013000D01*
X927500Y645250D02*
X960500Y612250D01*
X980000D01*
X1001500Y590750D02*
X1011250D01*
X980000Y612250D02*
X1001500Y590750D01*
X1071750Y563000D02*
X1072250Y562500D01*
X1071000Y563750D02*
X1071750Y563000D01*
Y588000D01*
X1072250Y557200D02*
Y562500D01*
X1065500Y536500D02*
Y550450D01*
X1072250Y557200D01*
X989750Y438000D02*
Y438250D01*
X1008500Y457000D01*
X1021000D01*
X1002250Y462000D02*
X1021000D01*
X989500Y449250D02*
X1002250Y462000D01*
X937000Y464600D02*
X939342Y466942D01*
X1095500Y404886D02*
X1106636Y393750D01*
X1261719Y419564D02*
Y432369D01*
X1106636Y393750D02*
X1235905D01*
X1261719Y419564D01*
X1095500Y404886D02*
Y422500D01*
X1261719Y432369D02*
X1290000Y460650D01*
X1221500Y462000D02*
X1267779Y508279D01*
X1135000Y462000D02*
X1221500D01*
X1267779Y508279D02*
X1341129D01*
X1389750Y556900D01*
X1070500Y411500D02*
Y422500D01*
X1059053Y400053D02*
X1070500Y411500D01*
X1058500Y396000D02*
X1059053Y396553D01*
Y400053D01*
X1215000Y411000D02*
X1227750Y423750D01*
X1215000Y411000D02*
Y411000D01*
X1105500Y408000D02*
Y422500D01*
X1208750Y404750D02*
X1215000Y411000D01*
X1108750Y404750D02*
X1208750D01*
X1105500Y408000D02*
X1108750Y404750D01*
X1203550Y477000D02*
X1268050Y541500D01*
X1135000Y477000D02*
X1203550D01*
X1110500Y528257D02*
Y536500D01*
X1101500Y519257D02*
X1110500Y528257D01*
X851750Y526000D02*
X853250Y524500D01*
X827750Y526000D02*
X852250D01*
X851750Y526000D02*
X852000D01*
X827500Y525750D02*
X827750Y526000D01*
X827500Y499500D02*
Y525750D01*
Y408500D02*
Y499500D01*
X1215000Y398250D02*
X1240250Y423500D01*
X1108500Y398250D02*
X1215000D01*
X1100500Y406250D02*
Y422500D01*
Y406250D02*
X1108500Y398250D01*
X1135000Y457000D02*
X1238250D01*
X1238500Y457250D01*
X1135000Y467000D02*
X1218950D01*
X1293450Y541500D01*
X1145438Y536500D02*
X1149938Y541000D01*
X1115500Y536500D02*
X1145438D01*
X1149938Y541000D02*
X1150750D01*
X1321750Y423500D02*
X1334800D01*
X1342380Y415920D01*
X1342380D01*
X1348500Y409800D01*
Y409800D02*
Y409800D01*
X883000Y597500D02*
X900750Y579750D01*
X1008000Y442000D02*
X1021000D01*
X966750Y432000D02*
X998000D01*
X1008000Y442000D01*
X946000Y452750D02*
X966750Y432000D01*
X909800Y452750D02*
X946000D01*
X899000Y463550D02*
X909800Y452750D01*
X999996Y427500D02*
X1009996Y437500D01*
X909650Y427500D02*
X999996D01*
X899000Y438150D02*
X909650Y427500D01*
X1009996Y437500D02*
X1045107D01*
X1050500Y432107D01*
Y422500D02*
Y432107D01*
X1115000Y472000D02*
X1115000Y472000D01*
X1135000D01*
X908150Y624250D02*
X936500D01*
X896050Y599500D02*
Y612150D01*
X908150Y624250D01*
X1165750Y497000D02*
X1166750Y496000D01*
X1115250Y517500D02*
X1115750Y517000D01*
X1135000D01*
X1090500Y403522D02*
X1105022Y389000D01*
X1243750D02*
X1290000Y435250D01*
X1105022Y389000D02*
X1243750D01*
X1090500Y403522D02*
Y422500D01*
X1021000Y492000D02*
X1032750D01*
X964500Y403000D02*
X968000Y399500D01*
X946350Y415850D02*
X959200Y403000D01*
X964500D01*
X945750Y415850D02*
X946350D01*
X1322500Y440750D02*
X1339638D01*
X1080250Y449250D02*
X1080500Y449000D01*
X1339638Y440750D02*
X1345188Y435200D01*
X1348500D01*
X1080500Y422500D02*
Y449000D01*
X822500Y776250D02*
X825500Y773250D01*
X829000Y769750D01*
X1016750Y1314150D02*
Y1339550D01*
X812330Y1392080D02*
X815000Y1394750D01*
X947500Y678750D02*
X949250D01*
X989080Y1336149D02*
Y1350080D01*
Y1331750D02*
Y1336149D01*
Y1350080D02*
X992000Y1353000D01*
X997250Y1358250D02*
X1003950Y1364950D01*
X1016750D01*
X992000Y1354750D02*
X995500Y1358250D01*
X992000Y1353000D02*
Y1354750D01*
X995500Y1358250D02*
X997250D01*
X989080Y1378649D02*
Y1392830D01*
Y1374250D02*
Y1378649D01*
X1008538Y1395250D02*
X1013438Y1390350D01*
X989080Y1392830D02*
X991500Y1395250D01*
X1013438Y1390350D02*
X1016750D01*
X991500Y1395250D02*
X1008538D01*
X988330Y1432601D02*
Y1437000D01*
Y1418670D02*
Y1432601D01*
Y1418670D02*
X991500Y1415500D01*
X991750Y1415750D01*
X1016750D01*
D37*
X889750Y1314150D02*
X947250Y1371650D01*
Y1448750D01*
X912482Y1362282D02*
Y1362282D01*
X889750Y1339550D02*
X912482Y1362282D01*
Y1362282D02*
X935750Y1385550D01*
Y1453513D01*
X924250Y1399450D02*
Y1459750D01*
X1018473Y1496750D02*
X1018473Y1496750D01*
X956487Y1508250D02*
X1324000D01*
X961250Y1496750D02*
X1018473D01*
X889750Y1390350D02*
X912750Y1413350D01*
X889750Y1364950D02*
X924250Y1399450D01*
Y1459750D02*
X961250Y1496750D01*
X1018473Y1496750D02*
X1316250D01*
X912750Y1413350D02*
Y1464513D01*
X956487Y1508250D01*
X1331600Y1292092D02*
X1345250Y1278442D01*
X1331600Y1292092D02*
Y1323900D01*
X1351750Y1269000D02*
Y1270750D01*
X1345250Y1277250D02*
Y1278442D01*
Y1277250D02*
X1351750Y1270750D01*
X864250Y1437500D02*
X866000D01*
X886747Y1416753D01*
X888747D02*
X889750Y1415750D01*
X886747Y1416753D02*
X888747D01*
X1045000Y1164750D02*
X1045250Y1165000D01*
X709250Y1181000D02*
X739000Y1151250D01*
X787308Y1168750D02*
X790500D01*
X789750Y1129500D02*
X789750Y1129500D01*
X765931Y1147373D02*
X787308Y1168750D01*
X725250Y1431808D02*
Y1471250D01*
X710800Y1415940D02*
Y1417358D01*
X725250Y1431808D01*
X705000Y1181000D02*
X709250D01*
X787631Y1127381D02*
X789750Y1129500D01*
X789250Y1073500D02*
X789500D01*
X788000Y1073000D02*
X789500D01*
X785950Y1075050D02*
X788000Y1073000D01*
X765931Y1127381D02*
Y1147373D01*
X739000Y1151250D02*
X764400Y1125850D01*
X739000Y1075050D02*
Y1151250D01*
X765931Y1127381D02*
X787631D01*
X764400Y1125850D02*
X765931Y1127381D01*
X739000Y1075050D02*
X785950D01*
X789750Y1111500D02*
X790500D01*
X789750Y1091000D02*
Y1111500D01*
X783950Y1104450D02*
X790500Y1111000D01*
X764400Y1100450D02*
X768400Y1096450D01*
X888332Y1441150D02*
X889750D01*
X864250Y1455500D02*
X873982D01*
X888332Y1441150D01*
X792000Y1150750D02*
X792250Y1150500D01*
X807483Y1118983D02*
Y1142017D01*
X800000Y1111500D02*
X807483Y1118983D01*
X792250Y1150500D02*
X799000D01*
X807483Y1142017D01*
X791500Y1111500D02*
X800000D01*
X709797Y1442343D02*
X710800Y1441340D01*
X706250Y1467308D02*
Y1471250D01*
X709797Y1442343D02*
Y1463761D01*
X706250Y1467308D02*
X709797Y1463761D01*
X790500Y1111000D02*
X791000Y1111500D01*
X768400Y1104450D02*
X783950D01*
X764400Y1100450D02*
X768400Y1104450D01*
X1274000Y1412000D02*
X1306750D01*
X1028764Y1485250D02*
X1258500D01*
X1306750Y1437000D01*
X1351967Y1416467D02*
X1363250Y1427750D01*
X1324000Y1508250D02*
X1363250Y1469000D01*
Y1427750D02*
Y1469000D01*
X1348666Y1416467D02*
X1351967D01*
X1341750Y1411500D02*
X1343699D01*
X1348666Y1416467D01*
X1341750Y1437000D02*
Y1471250D01*
X1316250Y1496750D02*
X1341750Y1471250D01*
X972250Y1473750D02*
X1212250D01*
X1274000Y1412000D01*
X947250Y1448750D02*
X972250Y1473750D01*
X967487Y1485250D02*
X1028763D01*
X935750Y1453513D02*
X967487Y1485250D01*
X1028763D02*
X1028764Y1485250D01*
D38*
X1389750Y531500D02*
D03*
X937000Y439200D02*
D03*
X899000Y412750D02*
D03*
X837800Y1441340D02*
D03*
X1389750Y435100D02*
D03*
X1348500Y409800D02*
D03*
X1290000Y435250D02*
D03*
X1016750Y1441150D02*
D03*
D39*
X1348500Y460600D02*
D03*
X870650Y599500D02*
D03*
X837800Y1415940D02*
D03*
X889750Y1263350D02*
D03*
X710800Y1263540D02*
D03*
X889750Y1288750D02*
D03*
X710800Y1288940D02*
D03*
X837800Y1365140D02*
D03*
Y1390540D02*
D03*
X710800Y1415940D02*
D03*
X837800Y1263540D02*
D03*
Y1288940D02*
D03*
Y1339740D02*
D03*
Y1314340D02*
D03*
X710800Y1339740D02*
D03*
Y1365140D02*
D03*
Y1314340D02*
D03*
Y1390540D02*
D03*
X710800Y1441340D02*
D03*
X889750Y1415750D02*
D03*
X889750Y1441150D02*
D03*
X1016750Y1288750D02*
D03*
Y1263350D02*
D03*
X899000Y539750D02*
D03*
X845250Y599500D02*
D03*
X937000Y490000D02*
D03*
X1290000Y486050D02*
D03*
X1389750Y485900D02*
D03*
X1348500Y486000D02*
D03*
X1389750Y582300D02*
D03*
X1242650Y582500D02*
D03*
X1268050D02*
D03*
X899000Y514350D02*
D03*
X1242650Y541500D02*
D03*
X937000Y464600D02*
D03*
X1290000Y460650D02*
D03*
X1389750Y556900D02*
D03*
X1389750Y460500D02*
D03*
X1293450Y582500D02*
D03*
X1268050Y541500D02*
D03*
X1318850Y582500D02*
D03*
Y541500D02*
D03*
X1293450D02*
D03*
X1217250Y582500D02*
D03*
X899000Y488950D02*
D03*
Y463550D02*
D03*
Y438150D02*
D03*
X896050Y599500D02*
D03*
X921450D02*
D03*
X946850D02*
D03*
X1348500Y435200D02*
D03*
X1016750Y1314150D02*
D03*
Y1339550D02*
D03*
Y1364950D02*
D03*
Y1390350D02*
D03*
Y1415750D02*
D03*
X889750Y1314150D02*
D03*
Y1364950D02*
D03*
Y1339550D02*
D03*
Y1390350D02*
D03*
D40*
X726750Y458300D02*
D03*
X989450Y1210500D02*
D03*
X735450D02*
D03*
X760850D02*
D03*
X786250D02*
D03*
X1357000Y1298500D02*
D03*
Y1374700D02*
D03*
X1331600Y1323900D02*
D03*
X739000Y1151250D02*
D03*
X764400Y1125850D02*
D03*
X739000Y1075050D02*
D03*
X811650Y1210500D02*
D03*
X837050D02*
D03*
X862450D02*
D03*
X726750Y407500D02*
D03*
Y432900D02*
D03*
Y661500D02*
D03*
X741250Y694750D02*
D03*
Y770950D02*
D03*
X766650Y745550D02*
D03*
X726750Y534500D02*
D03*
Y559900D02*
D03*
Y483700D02*
D03*
Y509100D02*
D03*
Y610700D02*
D03*
Y585300D02*
D03*
X938650Y1210500D02*
D03*
X913250D02*
D03*
X887850D02*
D03*
D41*
X1331600Y1349300D02*
D03*
X764400Y1100450D02*
D03*
X766650Y720150D02*
D03*
X726750Y636100D02*
D03*
D42*
X964050Y1210500D02*
D03*
D43*
X1344250Y582500D02*
D03*
Y541500D02*
D03*
X972250Y599500D02*
D03*
D44*
X949250Y560500D02*
D03*
X1340001Y850001D02*
D03*
X1345001Y840001D02*
D03*
X1340001Y830000D02*
D03*
X1345001Y820000D02*
D03*
Y800000D02*
D03*
X1340001Y790000D02*
D03*
X1345001Y780000D02*
D03*
X1340001Y770000D02*
D03*
X1345001Y760000D02*
D03*
X1340001Y750000D02*
D03*
X1345001Y740000D02*
D03*
X1340001Y730000D02*
D03*
X1345001Y720000D02*
D03*
X1330001Y850001D02*
D03*
X1335001Y840001D02*
D03*
X1330001Y830000D02*
D03*
Y790000D02*
D03*
X1335001Y780000D02*
D03*
X1330001Y770000D02*
D03*
X1335001Y760000D02*
D03*
X1330001Y750000D02*
D03*
X1335001Y740000D02*
D03*
X1330001Y730000D02*
D03*
X1320001Y850001D02*
D03*
X1325001Y840001D02*
D03*
X1320001Y830000D02*
D03*
Y810000D02*
D03*
X1325001Y800000D02*
D03*
X1320001Y790000D02*
D03*
X1325001Y780000D02*
D03*
X1320001Y770000D02*
D03*
X1325001Y760000D02*
D03*
X1320001Y750000D02*
D03*
X1325001Y740000D02*
D03*
X1320001Y730000D02*
D03*
Y710000D02*
D03*
X1310001Y830000D02*
D03*
X1315001Y820000D02*
D03*
X1310001Y810000D02*
D03*
X1315001Y800000D02*
D03*
X1310001Y790000D02*
D03*
X1315001Y780000D02*
D03*
X1310001Y770000D02*
D03*
X1315001Y760000D02*
D03*
Y720000D02*
D03*
X1310001Y710000D02*
D03*
X1300001Y830000D02*
D03*
X1305001Y820000D02*
D03*
X1300001Y810000D02*
D03*
X1305001Y800000D02*
D03*
X1300001Y790000D02*
D03*
X1305001Y780000D02*
D03*
X1300001Y770000D02*
D03*
X1305001Y760000D02*
D03*
X1300001Y730000D02*
D03*
X1305001Y720000D02*
D03*
X1300001Y710000D02*
D03*
X1290001Y850001D02*
D03*
X1295001Y840001D02*
D03*
X1290001Y830000D02*
D03*
X1295001Y820000D02*
D03*
Y800000D02*
D03*
X1290001Y790000D02*
D03*
X1295001Y780000D02*
D03*
X1290001Y770000D02*
D03*
X1295001Y760000D02*
D03*
X1290001Y750000D02*
D03*
X1295001Y740000D02*
D03*
X1290001Y730000D02*
D03*
X1295001Y720000D02*
D03*
X1280001Y850001D02*
D03*
X1285001Y840001D02*
D03*
X1280001Y830000D02*
D03*
Y790000D02*
D03*
X1285001Y780000D02*
D03*
X1280001Y770000D02*
D03*
X1285001Y760000D02*
D03*
X1280001Y750000D02*
D03*
X1285001Y740000D02*
D03*
X1280001Y730000D02*
D03*
X1270001Y850001D02*
D03*
X1275001Y840001D02*
D03*
X1270001Y830000D02*
D03*
Y810000D02*
D03*
Y790000D02*
D03*
X1275001Y780000D02*
D03*
X1270001Y770000D02*
D03*
X1275001Y760000D02*
D03*
X1270001Y750000D02*
D03*
X1275001Y740000D02*
D03*
X1270001Y730000D02*
D03*
Y710000D02*
D03*
X1260001Y830000D02*
D03*
X1265001Y820000D02*
D03*
X1260001Y810000D02*
D03*
X1265001Y800000D02*
D03*
X1260001Y790000D02*
D03*
X1265001Y780000D02*
D03*
X1260001Y770000D02*
D03*
X1265001Y760000D02*
D03*
Y720000D02*
D03*
X1260001Y710000D02*
D03*
X1250001Y830000D02*
D03*
X1255001Y820000D02*
D03*
X1250001Y810000D02*
D03*
X1255001Y800000D02*
D03*
X1250001Y790000D02*
D03*
X1255001Y780000D02*
D03*
X1250001Y770000D02*
D03*
X1255001Y760000D02*
D03*
X1250001Y730000D02*
D03*
X1255001Y720000D02*
D03*
X1250001Y710000D02*
D03*
X1240001Y850001D02*
D03*
X1245001Y840001D02*
D03*
X1240001Y830000D02*
D03*
X1245001Y820000D02*
D03*
Y800000D02*
D03*
X1240001Y790000D02*
D03*
X1245001Y780000D02*
D03*
X1240001Y770000D02*
D03*
X1245001Y760000D02*
D03*
X1240001Y750000D02*
D03*
X1245001Y740000D02*
D03*
X1240001Y730000D02*
D03*
X1245001Y720000D02*
D03*
X1230001Y850001D02*
D03*
X1235001Y840001D02*
D03*
X1230001Y830000D02*
D03*
Y790000D02*
D03*
X1235001Y780000D02*
D03*
X1230001Y770000D02*
D03*
X1235001Y760000D02*
D03*
X1230001Y750000D02*
D03*
X1235001Y740000D02*
D03*
X1230001Y730000D02*
D03*
X1220001Y850001D02*
D03*
X1225001Y840001D02*
D03*
X1220001Y830000D02*
D03*
Y810000D02*
D03*
X1225001Y780000D02*
D03*
Y760000D02*
D03*
X1220001Y750000D02*
D03*
X1225001Y740000D02*
D03*
X1220001Y730000D02*
D03*
Y710000D02*
D03*
X1210001Y830000D02*
D03*
X1215001Y820000D02*
D03*
X1210001Y810000D02*
D03*
X1215001Y720000D02*
D03*
X1210001Y710000D02*
D03*
X1200001Y830000D02*
D03*
X1205001Y820000D02*
D03*
X1200001Y810000D02*
D03*
X1205001Y720000D02*
D03*
X1200001Y710000D02*
D03*
X1190001Y850001D02*
D03*
X1195001Y840001D02*
D03*
X1190001Y830000D02*
D03*
X1195001Y820000D02*
D03*
Y740000D02*
D03*
X1190001Y730000D02*
D03*
X1195001Y720000D02*
D03*
X1180001Y850001D02*
D03*
X1185001Y840001D02*
D03*
X1180001Y830000D02*
D03*
Y730000D02*
D03*
X1170001Y850001D02*
D03*
X1175001Y840001D02*
D03*
X1170001Y830000D02*
D03*
Y810000D02*
D03*
Y750000D02*
D03*
Y710000D02*
D03*
X1160001Y830000D02*
D03*
X1165001Y820000D02*
D03*
X1160001Y810000D02*
D03*
Y710000D02*
D03*
X1150001Y830000D02*
D03*
X1155001Y820000D02*
D03*
X1150001Y810000D02*
D03*
Y490000D02*
D03*
X1140001Y850001D02*
D03*
X1145001Y840001D02*
D03*
X1140001Y830000D02*
D03*
X1145001Y820000D02*
D03*
X1130001Y850001D02*
D03*
X1135001Y840001D02*
D03*
X1130001Y830000D02*
D03*
X1120001Y850001D02*
D03*
X1125001Y840001D02*
D03*
X1120001Y830000D02*
D03*
Y810000D02*
D03*
Y490000D02*
D03*
X1110001Y830000D02*
D03*
X1115001Y820000D02*
D03*
X1110001Y810000D02*
D03*
Y490000D02*
D03*
X1100001Y830000D02*
D03*
X1105001Y820000D02*
D03*
X1100001Y810000D02*
D03*
Y490000D02*
D03*
X1090001Y830000D02*
D03*
X1095001Y820000D02*
D03*
X1090001Y810000D02*
D03*
Y490000D02*
D03*
X1080001Y830000D02*
D03*
Y490000D02*
D03*
X1070001Y810000D02*
D03*
Y490000D02*
D03*
X1065001Y860001D02*
D03*
Y840001D02*
D03*
X1060001Y830000D02*
D03*
X1065001Y820000D02*
D03*
X1060001Y810000D02*
D03*
X1055001Y860001D02*
D03*
X1050001Y830000D02*
D03*
X1055001Y820000D02*
D03*
X1050001Y810000D02*
D03*
X1045001Y860001D02*
D03*
X1040001Y830000D02*
D03*
X1045001Y820000D02*
D03*
X1040001Y810000D02*
D03*
X1035001Y860001D02*
D03*
X1030001Y830000D02*
D03*
X1025001Y860001D02*
D03*
X1020001Y830000D02*
D03*
Y810000D02*
D03*
X1015001Y840001D02*
D03*
X1010001Y830000D02*
D03*
X1015001Y820000D02*
D03*
X1010001Y810000D02*
D03*
X1000001Y830000D02*
D03*
X1005001Y820000D02*
D03*
X1000001Y810000D02*
D03*
X995001Y880001D02*
D03*
X990001Y850001D02*
D03*
Y830000D02*
D03*
X995001Y820000D02*
D03*
X990001Y810000D02*
D03*
X980001Y890001D02*
D03*
X985001Y880001D02*
D03*
X980001Y850001D02*
D03*
X985001Y840001D02*
D03*
X980001Y830000D02*
D03*
X975001Y900001D02*
D03*
X970001Y890001D02*
D03*
X975001Y880001D02*
D03*
X970001Y850001D02*
D03*
X975001Y840001D02*
D03*
X970001Y830000D02*
D03*
Y550000D02*
D03*
X975001Y540000D02*
D03*
X965001Y900001D02*
D03*
X960001Y890001D02*
D03*
X965001Y880001D02*
D03*
Y840001D02*
D03*
X960001Y830000D02*
D03*
X965001Y820000D02*
D03*
X960001Y810000D02*
D03*
X965001Y560000D02*
D03*
Y540000D02*
D03*
X955001Y900001D02*
D03*
X950001Y890001D02*
D03*
X955001Y840001D02*
D03*
X950001Y830000D02*
D03*
X955001Y820000D02*
D03*
X950001Y810000D02*
D03*
X945001Y900001D02*
D03*
Y840001D02*
D03*
Y820000D02*
D03*
X940001Y810000D02*
D03*
X930001Y890001D02*
D03*
X935001Y820000D02*
D03*
X930001Y810000D02*
D03*
X920001Y930001D02*
D03*
Y890001D02*
D03*
Y830000D02*
D03*
X925001Y820000D02*
D03*
X920001Y810000D02*
D03*
Y790000D02*
D03*
Y770000D02*
D03*
Y730000D02*
D03*
Y710000D02*
D03*
Y690000D02*
D03*
Y670000D02*
D03*
Y650000D02*
D03*
X910001Y870001D02*
D03*
Y850001D02*
D03*
X900001Y890001D02*
D03*
Y850001D02*
D03*
X905001Y840001D02*
D03*
X900001Y830000D02*
D03*
X905001Y820000D02*
D03*
X900001Y810000D02*
D03*
X905001Y800000D02*
D03*
X900001Y790000D02*
D03*
X905001Y780000D02*
D03*
X900001Y770000D02*
D03*
X905001Y760000D02*
D03*
X900001Y750000D02*
D03*
X905001Y720000D02*
D03*
X900001Y710000D02*
D03*
X905001Y700000D02*
D03*
X900001Y690000D02*
D03*
X905001Y680000D02*
D03*
X900001Y670000D02*
D03*
X905001Y660000D02*
D03*
X900001Y650000D02*
D03*
X905001Y640000D02*
D03*
X900001Y630000D02*
D03*
X890001Y890001D02*
D03*
Y850001D02*
D03*
X895001Y840001D02*
D03*
X968750Y927750D02*
D03*
X1340001Y850001D02*
D03*
X1330001D02*
D03*
X1335001Y840001D02*
D03*
X1325001D02*
D03*
X1320001Y850001D02*
D03*
X1345001Y840001D02*
D03*
X1340001Y830000D02*
D03*
X1345001Y820000D02*
D03*
X1330001Y830000D02*
D03*
X1320001D02*
D03*
X1295001Y840001D02*
D03*
X1290001Y850001D02*
D03*
X1285001Y840001D02*
D03*
X1290001Y830000D02*
D03*
X1310001D02*
D03*
X1305001Y820000D02*
D03*
X1315001D02*
D03*
X1300001Y830000D02*
D03*
X1295001Y820000D02*
D03*
X1345001Y800000D02*
D03*
X1320001Y810000D02*
D03*
X1315001Y800000D02*
D03*
X1325001D02*
D03*
X1340001Y790000D02*
D03*
X1330001D02*
D03*
X1325001Y780000D02*
D03*
X1320001Y790000D02*
D03*
X1315001Y780000D02*
D03*
X1310001Y810000D02*
D03*
X1300001D02*
D03*
X1305001Y800000D02*
D03*
X1295001D02*
D03*
X1280001Y790000D02*
D03*
X1310001D02*
D03*
X1300001D02*
D03*
X1295001Y780000D02*
D03*
X1290001Y790000D02*
D03*
X1285001Y780000D02*
D03*
X1280001Y850001D02*
D03*
X1270001D02*
D03*
X1275001Y840001D02*
D03*
X1270001Y830000D02*
D03*
X1280001D02*
D03*
X1240001Y850001D02*
D03*
X1235001Y840001D02*
D03*
X1245001D02*
D03*
X1230001Y850001D02*
D03*
X1220001D02*
D03*
X1225001Y840001D02*
D03*
X1260001Y830000D02*
D03*
X1250001D02*
D03*
X1255001Y820000D02*
D03*
X1230001Y830000D02*
D03*
X1240001D02*
D03*
X1265001Y820000D02*
D03*
X1260001Y810000D02*
D03*
X1270001Y790000D02*
D03*
Y810000D02*
D03*
X1265001Y780000D02*
D03*
Y800000D02*
D03*
X1260001Y790000D02*
D03*
X1250001Y810000D02*
D03*
X1245001Y800000D02*
D03*
X1255001D02*
D03*
X1245001Y820000D02*
D03*
X1230001Y790000D02*
D03*
X1250001D02*
D03*
X1240001D02*
D03*
X1245001Y780000D02*
D03*
X1225001D02*
D03*
X1235001D02*
D03*
X1345001D02*
D03*
X1340001Y770000D02*
D03*
X1335001Y760000D02*
D03*
Y780000D02*
D03*
X1330001Y770000D02*
D03*
X1325001Y760000D02*
D03*
X1345001D02*
D03*
X1340001Y750000D02*
D03*
X1345001Y740000D02*
D03*
X1330001Y750000D02*
D03*
X1320001D02*
D03*
X1335001Y740000D02*
D03*
X1310001Y770000D02*
D03*
X1305001Y780000D02*
D03*
X1320001Y770000D02*
D03*
X1300001D02*
D03*
X1290001D02*
D03*
X1295001Y760000D02*
D03*
X1315001D02*
D03*
X1305001D02*
D03*
X1290001Y750000D02*
D03*
X1295001Y740000D02*
D03*
X1340001Y730000D02*
D03*
X1330001D02*
D03*
X1325001Y740000D02*
D03*
X1320001Y730000D02*
D03*
X1345001Y720000D02*
D03*
X1320001Y710000D02*
D03*
X1290001Y730000D02*
D03*
X1300001D02*
D03*
X1315001Y720000D02*
D03*
X1305001D02*
D03*
X1310001Y710000D02*
D03*
X1295001Y720000D02*
D03*
X1300001Y710000D02*
D03*
X1275001Y780000D02*
D03*
X1270001Y770000D02*
D03*
X1280001D02*
D03*
X1260001D02*
D03*
X1255001Y760000D02*
D03*
X1265001D02*
D03*
X1285001D02*
D03*
X1275001D02*
D03*
X1280001Y750000D02*
D03*
X1270001D02*
D03*
X1255001Y780000D02*
D03*
X1240001Y770000D02*
D03*
X1250001D02*
D03*
X1230001D02*
D03*
X1225001Y760000D02*
D03*
X1235001D02*
D03*
X1245001D02*
D03*
X1230001Y750000D02*
D03*
X1240001D02*
D03*
X1220001D02*
D03*
X1225001Y740000D02*
D03*
X1285001D02*
D03*
X1275001D02*
D03*
X1280001Y730000D02*
D03*
X1270001D02*
D03*
X1265001Y720000D02*
D03*
X1270001Y710000D02*
D03*
X1245001Y740000D02*
D03*
X1240001Y730000D02*
D03*
X1250001D02*
D03*
X1235001Y740000D02*
D03*
X1220001Y730000D02*
D03*
X1230001D02*
D03*
X1255001Y720000D02*
D03*
X1250001Y710000D02*
D03*
X1260001D02*
D03*
X1245001Y720000D02*
D03*
X1190001Y850001D02*
D03*
X1180001D02*
D03*
X1170001D02*
D03*
X1195001Y840001D02*
D03*
X1185001D02*
D03*
X1190001Y830000D02*
D03*
X1175001Y840001D02*
D03*
X1145001D02*
D03*
X1140001Y830000D02*
D03*
X1130001Y850001D02*
D03*
X1120001D02*
D03*
X1140001D02*
D03*
X1135001Y840001D02*
D03*
X1125001D02*
D03*
X1130001Y830000D02*
D03*
X1210001D02*
D03*
X1200001D02*
D03*
X1220001D02*
D03*
X1170001D02*
D03*
X1160001D02*
D03*
X1180001D02*
D03*
X1205001Y820000D02*
D03*
X1195001D02*
D03*
X1215001D02*
D03*
X1155001D02*
D03*
X1165001D02*
D03*
X1120001Y830000D02*
D03*
X1110001D02*
D03*
X1150001D02*
D03*
X1090001D02*
D03*
X1080001D02*
D03*
X1100001D02*
D03*
X1145001Y820000D02*
D03*
X1115001D02*
D03*
X1095001D02*
D03*
X1105001D02*
D03*
X872250Y901250D02*
D03*
X1055001Y820000D02*
D03*
X1045001D02*
D03*
X1065001D02*
D03*
X1015001D02*
D03*
X1005001D02*
D03*
X995001D02*
D03*
X1220001Y810000D02*
D03*
X1210001D02*
D03*
X1200001D02*
D03*
X1195001Y740000D02*
D03*
Y720000D02*
D03*
X1215001D02*
D03*
X1210001Y710000D02*
D03*
X1220001D02*
D03*
X1205001Y720000D02*
D03*
X1200001Y710000D02*
D03*
X1170001Y810000D02*
D03*
Y750000D02*
D03*
X1160001Y810000D02*
D03*
X1150001D02*
D03*
X1190001Y730000D02*
D03*
X1180001D02*
D03*
X1160001Y710000D02*
D03*
X1170001D02*
D03*
X1130250Y579750D02*
D03*
X1050001Y810000D02*
D03*
X1060001D02*
D03*
X1020001D02*
D03*
X1040001D02*
D03*
X1110001D02*
D03*
X1100001D02*
D03*
X1120001D02*
D03*
X1070001D02*
D03*
X1090001D02*
D03*
X1010001D02*
D03*
X1000001D02*
D03*
X990001D02*
D03*
X1010250Y764750D02*
D03*
X967000D02*
D03*
X1110000Y578750D02*
D03*
X1114500Y503250D02*
D03*
X1004077Y742808D02*
D03*
X978677Y709808D02*
D03*
X1028000Y764000D02*
D03*
X984750Y764500D02*
D03*
X1173500Y563500D02*
D03*
X948000Y713750D02*
D03*
X948750Y695250D02*
D03*
X1200250Y771500D02*
D03*
X1184500Y529500D02*
D03*
X1321750Y404750D02*
D03*
X1164660Y425750D02*
D03*
X1011250Y572000D02*
D03*
X959750Y631000D02*
D03*
X851750Y543750D02*
D03*
X999000Y536000D02*
D03*
X1011750Y398500D02*
D03*
X992250Y397000D02*
D03*
X946000Y399250D02*
D03*
X780000Y600000D02*
D03*
X785000Y610000D02*
D03*
X780000Y620000D02*
D03*
Y640000D02*
D03*
X790000Y600000D02*
D03*
X795000Y610000D02*
D03*
X790000Y620000D02*
D03*
X800000Y600000D02*
D03*
X805000Y610000D02*
D03*
X800000Y620000D02*
D03*
X815000Y590000D02*
D03*
X810000Y600000D02*
D03*
X815000Y610000D02*
D03*
X820000Y580000D02*
D03*
X825000Y590000D02*
D03*
X820000Y600000D02*
D03*
X825000Y610000D02*
D03*
X830000Y580000D02*
D03*
X835000Y590000D02*
D03*
X830000Y600000D02*
D03*
X835000Y610000D02*
D03*
X830000Y620000D02*
D03*
X840001Y580000D02*
D03*
X865001Y610000D02*
D03*
X860001Y640000D02*
D03*
X865001Y650000D02*
D03*
X870001Y580000D02*
D03*
Y620000D02*
D03*
X875001Y630000D02*
D03*
X880001Y580000D02*
D03*
X1322750Y458750D02*
D03*
X950750Y928250D02*
D03*
X891250Y921750D02*
D03*
X1055000Y742250D02*
D03*
X910750Y927700D02*
D03*
X972500Y1300500D02*
D03*
X958500Y1314500D02*
D03*
X944750Y1328250D02*
D03*
X973500Y1395250D02*
D03*
Y1415000D02*
D03*
X1070250Y519750D02*
D03*
X1093750Y497250D02*
D03*
X1069250Y399500D02*
D03*
X1085250Y794000D02*
D03*
X1015001Y1180001D02*
D03*
X1010001Y1170001D02*
D03*
X1015001Y1160001D02*
D03*
X1005001Y1180001D02*
D03*
X1000001Y1170001D02*
D03*
X1005001Y1160001D02*
D03*
X990001Y1170001D02*
D03*
X995001Y1160001D02*
D03*
X980001Y1170001D02*
D03*
X985001Y1160001D02*
D03*
X970001Y1170001D02*
D03*
X975001Y1160001D02*
D03*
X970001Y1150001D02*
D03*
X950001Y1170001D02*
D03*
Y1150001D02*
D03*
X875001Y800000D02*
D03*
X865001D02*
D03*
X850001Y830000D02*
D03*
Y810000D02*
D03*
X855000Y800000D02*
D03*
X840001Y830000D02*
D03*
X845000Y820000D02*
D03*
X830000Y830000D02*
D03*
X835000Y820000D02*
D03*
X820000Y830000D02*
D03*
X825000Y820000D02*
D03*
X815000D02*
D03*
X825000Y670000D02*
D03*
X815000Y850001D02*
D03*
X785000D02*
D03*
X775000D02*
D03*
Y810000D02*
D03*
X770000Y800000D02*
D03*
X775000Y790000D02*
D03*
X770000Y780000D02*
D03*
X775000Y770000D02*
D03*
X770000Y760000D02*
D03*
Y700000D02*
D03*
X775000Y690000D02*
D03*
X765000Y850001D02*
D03*
Y810000D02*
D03*
X760000Y800000D02*
D03*
X765000Y790000D02*
D03*
X760000Y780000D02*
D03*
X765000Y770000D02*
D03*
X760000Y760000D02*
D03*
Y700000D02*
D03*
X765000Y690000D02*
D03*
X755000Y850001D02*
D03*
X750000Y840001D02*
D03*
X755000Y830000D02*
D03*
X750000Y820000D02*
D03*
X755000Y810000D02*
D03*
X750000Y800000D02*
D03*
X755000Y790000D02*
D03*
Y770000D02*
D03*
X750000Y760000D02*
D03*
Y740000D02*
D03*
Y720000D02*
D03*
X755000Y690000D02*
D03*
X745000Y850001D02*
D03*
X740000Y840001D02*
D03*
X745000Y830000D02*
D03*
X740000Y820000D02*
D03*
X745000Y810000D02*
D03*
X740000Y800000D02*
D03*
X745000Y790000D02*
D03*
Y750000D02*
D03*
X740000Y740000D02*
D03*
X745000Y730000D02*
D03*
X740000Y720000D02*
D03*
X745000Y710000D02*
D03*
X735000Y850001D02*
D03*
X730000Y840001D02*
D03*
X735000Y830000D02*
D03*
X730000Y820000D02*
D03*
X735000Y810000D02*
D03*
X730000Y800000D02*
D03*
X735000Y790000D02*
D03*
X730000Y780000D02*
D03*
Y760000D02*
D03*
X735000Y750000D02*
D03*
X730000Y740000D02*
D03*
X735000Y730000D02*
D03*
X730000Y720000D02*
D03*
X735000Y710000D02*
D03*
X725000Y850001D02*
D03*
X720000Y840001D02*
D03*
X725000Y830000D02*
D03*
X720000Y820000D02*
D03*
X725000Y810000D02*
D03*
X720000Y800000D02*
D03*
X725000Y790000D02*
D03*
X720000Y780000D02*
D03*
X725000Y770000D02*
D03*
X720000Y760000D02*
D03*
X725000Y750000D02*
D03*
X720000Y740000D02*
D03*
X725000Y730000D02*
D03*
X720000Y720000D02*
D03*
X725000Y710000D02*
D03*
X720000Y700000D02*
D03*
X725000Y690000D02*
D03*
X1056750Y443250D02*
D03*
X984250Y569000D02*
D03*
X933250Y555750D02*
D03*
X971099Y497000D02*
D03*
X921500Y561750D02*
D03*
X840000Y554750D02*
D03*
X900000Y561250D02*
D03*
X962000Y477000D02*
D03*
X932750Y526250D02*
D03*
X815836Y740500D02*
D03*
X851000Y1120750D02*
D03*
X797500Y1415250D02*
D03*
X796750Y1394500D02*
D03*
X974000Y1353000D02*
D03*
X817450Y1152950D02*
D03*
Y1099550D02*
D03*
X796500Y1352750D02*
D03*
X705250Y1200000D02*
D03*
X806250Y408000D02*
D03*
X789000Y1304000D02*
D03*
X775500Y1318000D02*
D03*
X762000Y1331750D02*
D03*
X1200001Y1250001D02*
D03*
Y1230001D02*
D03*
Y1210001D02*
D03*
Y1190001D02*
D03*
Y1170001D02*
D03*
Y1150001D02*
D03*
Y1130001D02*
D03*
Y1110001D02*
D03*
Y1090001D02*
D03*
Y1070001D02*
D03*
X1190001Y1250001D02*
D03*
X1195001Y1240001D02*
D03*
X1190001Y1230001D02*
D03*
X1195001Y1220001D02*
D03*
X1190001Y1210001D02*
D03*
X1195001Y1200001D02*
D03*
X1190001Y1190001D02*
D03*
X1195001Y1180001D02*
D03*
X1190001Y1170001D02*
D03*
X1195001Y1160001D02*
D03*
X1190001Y1150001D02*
D03*
X1195001Y1140001D02*
D03*
X1190001Y1130001D02*
D03*
X1195001Y1120001D02*
D03*
X1190001Y1110001D02*
D03*
X1195001Y1100001D02*
D03*
X1190001Y1090001D02*
D03*
X1195001Y1080001D02*
D03*
X1190001Y1070001D02*
D03*
X1180001Y1250001D02*
D03*
X1185001Y1240001D02*
D03*
X1180001Y1230001D02*
D03*
X1185001Y1220001D02*
D03*
X1180001Y1210001D02*
D03*
X1185001Y1200001D02*
D03*
X1180001Y1190001D02*
D03*
X1185001Y1180001D02*
D03*
X1180001Y1170001D02*
D03*
X1185001Y1160001D02*
D03*
X1180001Y1150001D02*
D03*
X1185001Y1140001D02*
D03*
X1180001Y1130001D02*
D03*
X1185001Y1120001D02*
D03*
X1180001Y1110001D02*
D03*
X1185001Y1100001D02*
D03*
X1180001Y1090001D02*
D03*
X1185001Y1080001D02*
D03*
X1180001Y1070001D02*
D03*
X1170001Y1250001D02*
D03*
X1175001Y1240001D02*
D03*
X1170001Y1230001D02*
D03*
X1175001Y1220001D02*
D03*
X1170001Y1210001D02*
D03*
X1175001Y1200001D02*
D03*
X1170001Y1190001D02*
D03*
X1175001Y1180001D02*
D03*
X1170001Y1170001D02*
D03*
X1175001Y1160001D02*
D03*
X1170001Y1150001D02*
D03*
X1175001Y1140001D02*
D03*
X1170001Y1130001D02*
D03*
X1175001Y1120001D02*
D03*
X1170001Y1110001D02*
D03*
X1175001Y1100001D02*
D03*
X1170001Y1090001D02*
D03*
X1175001Y1080001D02*
D03*
X1170001Y1070001D02*
D03*
X1160001Y1250001D02*
D03*
X1165001Y1240001D02*
D03*
X1160001Y1230001D02*
D03*
X1165001Y1220001D02*
D03*
X1160001Y1210001D02*
D03*
X1165001Y1200001D02*
D03*
X1160001Y1190001D02*
D03*
X1165001Y1180001D02*
D03*
X1160001Y1170001D02*
D03*
X1165001Y1160001D02*
D03*
X1160001Y1150001D02*
D03*
X1165001Y1140001D02*
D03*
X1160001Y1130001D02*
D03*
X1165001Y1120001D02*
D03*
X1160001Y1110001D02*
D03*
X1165001Y1100001D02*
D03*
X1160001Y1090001D02*
D03*
X1165001Y1080001D02*
D03*
X1160001Y1070001D02*
D03*
X1150001Y1250001D02*
D03*
X1155001Y1160001D02*
D03*
X1150001Y1150001D02*
D03*
X1155001Y1140001D02*
D03*
X1150001Y1130001D02*
D03*
X1155001Y1120001D02*
D03*
X1150001Y1110001D02*
D03*
X1155001Y1100001D02*
D03*
X1150001Y1090001D02*
D03*
X1155001Y1080001D02*
D03*
X1150001Y1070001D02*
D03*
X1140001Y1250001D02*
D03*
Y1150001D02*
D03*
X1145001Y1140001D02*
D03*
X1140001Y1130001D02*
D03*
X1145001Y1120001D02*
D03*
X1140001Y1110001D02*
D03*
X1145001Y1100001D02*
D03*
X1140001Y1090001D02*
D03*
X1145001Y1080001D02*
D03*
X1140001Y1070001D02*
D03*
X1130001Y1250001D02*
D03*
Y1150001D02*
D03*
X1135001Y1140001D02*
D03*
X1130001Y1130001D02*
D03*
X1135001Y1120001D02*
D03*
X1130001Y1110001D02*
D03*
X1135001Y1100001D02*
D03*
X1130001Y1090001D02*
D03*
X1135001Y1080001D02*
D03*
X1130001Y1070001D02*
D03*
X1120001Y1250001D02*
D03*
Y1150001D02*
D03*
X1125001Y1140001D02*
D03*
X1120001Y1130001D02*
D03*
X1125001Y1120001D02*
D03*
X1120001Y1110001D02*
D03*
X1125001Y1100001D02*
D03*
X1120001Y1090001D02*
D03*
X1125001Y1080001D02*
D03*
X1120001Y1070001D02*
D03*
X1110001Y1250001D02*
D03*
Y1150001D02*
D03*
X1115001Y1140001D02*
D03*
X1110001Y1130001D02*
D03*
X1115001Y1120001D02*
D03*
X1110001Y1110001D02*
D03*
X1115001Y1100001D02*
D03*
X1110001Y1090001D02*
D03*
X1115001Y1080001D02*
D03*
X1110001Y1070001D02*
D03*
X1100001Y1250001D02*
D03*
Y1150001D02*
D03*
X1105001Y1140001D02*
D03*
X1100001Y1130001D02*
D03*
X1105001Y1120001D02*
D03*
X1100001Y1110001D02*
D03*
X1105001Y1100001D02*
D03*
X1100001Y1090001D02*
D03*
X1105001Y1080001D02*
D03*
X1100001Y1070001D02*
D03*
X1090001Y1250001D02*
D03*
Y1150001D02*
D03*
X1095001Y1140001D02*
D03*
X1090001Y1130001D02*
D03*
X1095001Y1120001D02*
D03*
X1090001Y1110001D02*
D03*
X1095001Y1100001D02*
D03*
X1090001Y1090001D02*
D03*
X1095001Y1080001D02*
D03*
X1090001Y1070001D02*
D03*
X1080001Y1250001D02*
D03*
Y1150001D02*
D03*
X1085001Y1140001D02*
D03*
X1080001Y1130001D02*
D03*
X1085001Y1120001D02*
D03*
X1080001Y1110001D02*
D03*
X1085001Y1100001D02*
D03*
X1080001Y1090001D02*
D03*
X1085001Y1080001D02*
D03*
X1080001Y1070001D02*
D03*
X1070001Y1250001D02*
D03*
Y1150001D02*
D03*
X1075001Y1140001D02*
D03*
X1070001Y1130001D02*
D03*
X1075001Y1120001D02*
D03*
X1070001Y1110001D02*
D03*
X1075001Y1100001D02*
D03*
X1070001Y1090001D02*
D03*
X1075001Y1080001D02*
D03*
X1070001Y1070001D02*
D03*
X1065001Y1120001D02*
D03*
X1060001Y1110001D02*
D03*
X1065001Y1100001D02*
D03*
X1060001Y1090001D02*
D03*
X1065001Y1080001D02*
D03*
X1060001Y1070001D02*
D03*
X1050001D02*
D03*
X1040001D02*
D03*
X1030001D02*
D03*
X1020001D02*
D03*
X1010001D02*
D03*
X1005001Y1120001D02*
D03*
X1000001Y1110001D02*
D03*
X1005001Y1100001D02*
D03*
X1000001Y1090001D02*
D03*
X1005001Y1080001D02*
D03*
X1000001Y1070001D02*
D03*
X995001Y1120001D02*
D03*
X990001Y1110001D02*
D03*
X995001Y1100001D02*
D03*
X990001Y1090001D02*
D03*
X995001Y1080001D02*
D03*
X990001Y1070001D02*
D03*
X985001Y1120001D02*
D03*
X980001Y1110001D02*
D03*
X985001Y1100001D02*
D03*
X980001Y1090001D02*
D03*
X985001Y1080001D02*
D03*
X980001Y1070001D02*
D03*
X975001Y1120001D02*
D03*
X970001Y1110001D02*
D03*
X975001Y1100001D02*
D03*
X970001Y1090001D02*
D03*
X975001Y1080001D02*
D03*
X970001Y1070001D02*
D03*
X905001Y1120001D02*
D03*
X900001Y1110001D02*
D03*
X905001Y1100001D02*
D03*
X900001Y1090001D02*
D03*
X905001Y1080001D02*
D03*
X900001Y1070001D02*
D03*
X895001Y1120001D02*
D03*
X890001Y1110001D02*
D03*
X895001Y1100001D02*
D03*
X890001Y1090001D02*
D03*
X895001Y1080001D02*
D03*
X890001Y1070001D02*
D03*
X864250Y1437500D02*
D03*
X1351750Y1269000D02*
D03*
X1045250Y1189000D02*
D03*
Y1165000D02*
D03*
X1045000Y1137250D02*
D03*
X1025250Y1137000D02*
D03*
X790500Y1168750D02*
D03*
X725250Y1471250D02*
D03*
X705000Y1181000D02*
D03*
X789750Y1129500D02*
D03*
X789500Y1073500D02*
D03*
X1027750Y1188250D02*
D03*
X1026750Y1165500D02*
D03*
X960860Y1159650D02*
D03*
X864250Y1455500D02*
D03*
X855550Y1152950D02*
D03*
Y1099550D02*
D03*
X790500Y1150500D02*
D03*
X706250Y1471250D02*
D03*
X790500Y1111000D02*
D03*
X789750Y1091000D02*
D03*
X806250Y498750D02*
D03*
X873000Y408500D02*
D03*
X827500Y543000D02*
D03*
X803000Y544250D02*
D03*
X843500Y627250D02*
D03*
X999250Y518250D02*
D03*
X978750Y623500D02*
D03*
X768750Y641000D02*
D03*
X794750Y665250D02*
D03*
X789750Y685750D02*
D03*
X765000Y821500D02*
D03*
X799750Y758250D02*
D03*
X946750Y660250D02*
D03*
X811250Y686000D02*
D03*
X831250Y685500D02*
D03*
X844000Y774000D02*
D03*
X854500Y901250D02*
D03*
X866000Y763500D02*
D03*
X1030500Y398500D02*
D03*
X1182500Y425750D02*
D03*
X1183090Y445390D02*
D03*
X1165750Y529250D02*
D03*
X1034000Y573000D02*
D03*
X1053500Y587500D02*
D03*
X1111250Y690000D02*
D03*
X872750Y499750D02*
D03*
X1045250Y446750D02*
D03*
X1203500Y424000D02*
D03*
X1046000Y394250D02*
D03*
X1215750Y424000D02*
D03*
X989250Y460000D02*
D03*
X1076750Y776000D02*
D03*
X989750Y438000D02*
D03*
X989500Y449250D02*
D03*
X1058500Y396000D02*
D03*
X1227750Y423750D02*
D03*
X1101500Y519257D02*
D03*
X852250Y526000D02*
D03*
X1240250Y423500D02*
D03*
X1238500Y457250D02*
D03*
X1150750Y541000D02*
D03*
X1102000Y784750D02*
D03*
X1115000Y472000D02*
D03*
X936500Y624250D02*
D03*
X1115250Y517500D02*
D03*
X968000Y417500D02*
D03*
X1080250Y449250D02*
D03*
X947250Y678500D02*
D03*
X1029000Y709500D02*
D03*
D45*
X830150Y1152950D02*
Y1157850D01*
X830350D01*
D54*
X1135000Y502000D02*
D03*
Y492000D02*
D03*
Y507000D02*
D03*
Y442000D02*
D03*
X1021000Y517000D02*
D03*
Y512000D02*
D03*
X1135000Y447000D02*
D03*
Y512000D02*
D03*
X1021000Y467000D02*
D03*
X1135000Y487000D02*
D03*
X1021000Y462000D02*
D03*
Y482000D02*
D03*
Y502000D02*
D03*
Y457000D02*
D03*
Y477000D02*
D03*
X1135000Y517000D02*
D03*
Y497000D02*
D03*
Y482000D02*
D03*
Y477000D02*
D03*
Y472000D02*
D03*
Y467000D02*
D03*
Y457000D02*
D03*
Y452000D02*
D03*
X1021000Y442000D02*
D03*
Y447000D02*
D03*
Y452000D02*
D03*
Y472000D02*
D03*
Y487000D02*
D03*
Y492000D02*
D03*
Y507000D02*
D03*
Y497000D02*
D03*
X1135000Y462000D02*
D03*
D55*
X1095500Y536500D02*
D03*
X1100500D02*
D03*
X1040500Y422500D02*
D03*
X1045500D02*
D03*
X1075500D02*
D03*
X1080500D02*
D03*
X1090500D02*
D03*
X1095500D02*
D03*
X1040500Y536500D02*
D03*
X1045500D02*
D03*
X1050500D02*
D03*
X1055500D02*
D03*
X1060500D02*
D03*
X1065500D02*
D03*
X1075500D02*
D03*
X1080500D02*
D03*
X1085500D02*
D03*
X1090500D02*
D03*
X1105500D02*
D03*
X1115500D02*
D03*
X1110500Y422500D02*
D03*
X1105500D02*
D03*
X1100500D02*
D03*
X1085500D02*
D03*
X1070500D02*
D03*
X1065500D02*
D03*
X1060500D02*
D03*
X1055500D02*
D03*
X1050500D02*
D03*
X1115500D02*
D03*
X1070500Y536500D02*
D03*
X1110500D02*
D03*
D56*
X1154706Y564000D02*
D03*
X1173294D02*
D03*
D57*
X947750Y713750D02*
D03*
Y695162D02*
D03*
D58*
X945750Y399650D02*
D03*
Y415850D02*
D03*
D59*
X792250Y584000D02*
D03*
D60*
Y642000D02*
D03*
X815250D02*
D03*
X769250D02*
D03*
D61*
X865516Y824750D02*
D03*
D62*
X799984D02*
D03*
Y801763D02*
D03*
Y847737D02*
D03*
D63*
X817450Y1099550D02*
D03*
Y1152950D02*
D03*
X855550D02*
D03*
Y1099550D02*
D03*
X830150Y1152950D02*
D03*
X842850D02*
D03*
Y1099550D02*
D03*
X830150D02*
D03*
D64*
X1281750Y1204250D02*
D03*
X1111750D02*
D03*
D65*
X1034900Y1099750D02*
D03*
D66*
X938000Y1094350D02*
D03*
D67*
X1044750Y1137250D02*
D03*
X1025050D02*
D03*
D68*
X960860Y1159650D02*
D03*
X915140D02*
D03*
D69*
X806500Y408500D02*
D03*
X873000D02*
D03*
Y499500D02*
D03*
X806500D02*
D03*
X761000D02*
D03*
Y408500D02*
D03*
X827500Y499500D02*
D03*
Y408500D02*
D03*
D70*
X1054250Y562500D02*
D03*
X1072250D02*
D03*
D71*
X836664Y749650D02*
D03*
X815836Y740500D02*
D03*
X836664Y731350D02*
D03*
M02*
