G04*
G04 #@! TF.GenerationSoftware,Altium Limited,Altium Designer,26.4.1 (12)*
G04*
G04 Layer_Color=65535*
%FSLAX44Y44*%
%MOMM*%
G71*
G04*
G04 #@! TF.SameCoordinates,DF97135C-EA84-44B9-BAFA-11E43E9B2FB1*
G04*
G04*
G04 #@! TF.FilePolarity,Positive*
G04*
G01*
G75*
%ADD10C,0.2000*%
%ADD11C,0.1270*%
%ADD12C,0.1524*%
%ADD13C,0.0500*%
D10*
X911250Y890250D02*
G03*
X911250Y890250I-1000J0D01*
G01*
X1335277Y796408D02*
G03*
X1335277Y796408I-1000J0D01*
G01*
Y694808D02*
G03*
X1335277Y694808I-1000J0D01*
G01*
X925750Y843500D02*
Y845500D01*
X937250Y843500D02*
Y845500D01*
X892250Y868250D02*
Y870250D01*
X903750Y868250D02*
Y870250D01*
X956500Y859500D02*
Y861500D01*
X945000Y859500D02*
Y861500D01*
X958500Y933750D02*
X960500D01*
X958500Y922250D02*
X960500D01*
X897000Y911750D02*
Y913750D01*
X885500Y911750D02*
Y913750D01*
X977250Y862000D02*
X979250D01*
X977250Y873500D02*
X979250D01*
D11*
X935950Y906450D02*
Y924050D01*
X904550Y906450D02*
Y924050D01*
X964977Y840408D02*
X995777D01*
X1317177D02*
X1347977D01*
X964977Y815408D02*
X970377D01*
X1342577D02*
X1347977D01*
Y840408D01*
X964977Y815408D02*
Y840408D01*
Y713808D02*
Y738808D01*
Y713808D02*
X970377D01*
X964977Y738808D02*
X995777D01*
X1317177D02*
X1347977D01*
X1342577Y713808D02*
X1347977D01*
Y738808D01*
D12*
X1148326Y789478D02*
X1163814D01*
X1148326Y766872D02*
X1163814D01*
D13*
X937346Y884193D02*
X937770Y884616D01*
Y885462D01*
X937346Y885885D01*
X936923D01*
X936500Y885462D01*
Y884616D01*
X936077Y884193D01*
X935654D01*
X935230Y884616D01*
Y885462D01*
X935654Y885885D01*
X937770Y883346D02*
X935230D01*
Y882077D01*
X935654Y881654D01*
X936077D01*
X936500Y882077D01*
Y883346D01*
Y882077D01*
X936923Y881654D01*
X937346D01*
X937770Y882077D01*
Y883346D01*
Y880807D02*
Y879114D01*
X937346D01*
X935654Y880807D01*
X935230D01*
X929057Y864846D02*
X928634Y865270D01*
X927788D01*
X927364Y864846D01*
Y863154D01*
X927788Y862730D01*
X928634D01*
X929057Y863154D01*
X929904Y864846D02*
X930327Y865270D01*
X931173D01*
X931596Y864846D01*
Y864423D01*
X931173Y864000D01*
X930750D01*
X931173D01*
X931596Y863577D01*
Y863154D01*
X931173Y862730D01*
X930327D01*
X929904Y863154D01*
X934136Y865270D02*
X932443D01*
Y864000D01*
X933289Y864423D01*
X933712D01*
X934136Y864000D01*
Y863154D01*
X933712Y862730D01*
X932866D01*
X932443Y863154D01*
X896134Y886980D02*
Y889520D01*
X897404D01*
X897827Y889096D01*
Y888250D01*
X897404Y887827D01*
X896134D01*
X896981D02*
X897827Y886980D01*
X900366D02*
X898673D01*
X900366Y888673D01*
Y889096D01*
X899943Y889520D01*
X899096D01*
X898673Y889096D01*
X948690Y864869D02*
Y862330D01*
X949960D01*
X950383Y862753D01*
Y863176D01*
X949960Y863600D01*
X948690D01*
X949960D01*
X950383Y864023D01*
Y864446D01*
X949960Y864869D01*
X948690D01*
X951229Y862330D02*
X952076D01*
X951652D01*
Y864869D01*
X951229Y864446D01*
X1186180Y780626D02*
X1184064D01*
X1183640Y780203D01*
Y779356D01*
X1184064Y778933D01*
X1186180D01*
X1183640Y776817D02*
X1186180D01*
X1184910Y778087D01*
Y776394D01*
X954634Y878480D02*
Y881020D01*
X955904D01*
X956327Y880596D01*
Y879750D01*
X955904Y879327D01*
X954634D01*
X955480D02*
X956327Y878480D01*
X957173Y881020D02*
X958866D01*
Y880596D01*
X957173Y878904D01*
Y878480D01*
X998730Y869616D02*
X1001270D01*
Y868346D01*
X1000846Y867923D01*
X1000000D01*
X999577Y868346D01*
Y869616D01*
Y868770D02*
X998730Y867923D01*
X1001270Y865384D02*
X1000846Y866230D01*
X1000000Y867077D01*
X999154D01*
X998730Y866654D01*
Y865807D01*
X999154Y865384D01*
X999577D01*
X1000000Y865807D01*
Y867077D01*
X940270Y932473D02*
Y933320D01*
Y932896D01*
X938154D01*
X937730Y933320D01*
Y933743D01*
X938154Y934166D01*
X937730Y930357D02*
X940270D01*
X939000Y931627D01*
Y929934D01*
X889557Y933846D02*
X889134Y934270D01*
X888288D01*
X887864Y933846D01*
Y932154D01*
X888288Y931730D01*
X889134D01*
X889557Y932154D01*
X892096Y931730D02*
X890404D01*
X892096Y933423D01*
Y933846D01*
X891673Y934270D01*
X890827D01*
X890404Y933846D01*
X894636Y931730D02*
X892943D01*
X894636Y933423D01*
Y933846D01*
X894212Y934270D01*
X893366D01*
X892943Y933846D01*
X981846Y927270D02*
X982270Y927693D01*
Y928539D01*
X981846Y928962D01*
X980154D01*
X979731Y928539D01*
Y927693D01*
X980154Y927270D01*
X979731Y924730D02*
Y926423D01*
X981423Y924730D01*
X981846D01*
X982270Y925154D01*
Y926000D01*
X981846Y926423D01*
X979731Y923884D02*
Y923038D01*
Y923461D01*
X982270D01*
X981846Y923884D01*
M02*
