G04*
G04 #@! TF.GenerationSoftware,Altium Limited,Altium Designer,26.3.0 (6)*
G04*
G04 Layer_Color=8421504*
%FSLAX44Y44*%
%MOMM*%
G71*
G04*
G04 #@! TF.SameCoordinates,88606CE5-52C3-4128-B641-D15695FA68BD*
G04*
G04*
G04 #@! TF.FilePolarity,Positive*
G04*
G01*
G75*
%ADD15R,0.9080X0.2548*%
%ADD16R,1.7526X1.5494*%
%ADD17R,1.0200X1.9000*%
D15*
X1648796Y1797500D02*
D03*
X1619904Y1792500D02*
D03*
X1648796D02*
D03*
Y1802500D02*
D03*
Y1807500D02*
D03*
X1619904D02*
D03*
Y1802500D02*
D03*
Y1797500D02*
D03*
D16*
X1634350Y1800000D02*
D03*
D17*
X1558557Y1731633D02*
D03*
X1583957Y1764633D02*
D03*
X1609357Y1731633D02*
D03*
X1507757D02*
D03*
X1736357Y1866233D02*
D03*
X1761757Y1833233D02*
D03*
X1710957D02*
D03*
X1685557Y1866233D02*
D03*
X1736357Y1764633D02*
D03*
X1685557D02*
D03*
X1634757Y1866233D02*
D03*
X1583957D02*
D03*
X1558557Y1833233D02*
D03*
X1660157D02*
D03*
X1634757Y1764633D02*
D03*
X1609357Y1833233D02*
D03*
X1660157Y1731633D02*
D03*
X1710957D02*
D03*
X1761757D02*
D03*
X1507757Y1833233D02*
D03*
X1533157Y1764633D02*
D03*
X1812557Y1833233D02*
D03*
X1533157Y1866233D02*
D03*
X1482357D02*
D03*
X1456957Y1833233D02*
D03*
Y1731633D02*
D03*
X1482357Y1764633D02*
D03*
X1787157Y1866233D02*
D03*
Y1764633D02*
D03*
X1812557Y1731633D02*
D03*
M02*
