M48
;Layer_Color=9474304
;FILE_FORMAT=4:4
METRIC,LZ
;TYPE=PLATED
T01F00S00C0.3000
T02F00S00C0.6350
T03F00S00C0.7112
T04F00S00C0.8128
T05F00S00C1.0160
T06F00S00C1.3000
%
T01
X01606804Y01446928
X0160539Y01513586
X01590184Y01537462
X01747012Y01475342
Y01457342
X01748282Y0143521
Y0141721
X01586484Y01447182
Y01465182
X0158739Y01513586
X01566164Y0157353
X01551432Y01573784
X01537208Y0157353
X01417938Y01558544
X01421494Y01538478
X01403494
X01382268Y01538986
X01405128Y01496544
Y01483614
X01404366Y0146304
X01390142Y01463294
X01388364Y01445768
X01419098Y01463294
X01433212Y01418844
X01451212
X01468374Y01412494
X01485392Y01411986
X01499108
X01511808Y01411732
X0153151Y01610614
X0154951
X01566562Y0161036
X01584562
X01474106Y0160274
X01455674Y01594214
X01448816Y01710182
X01419606Y01709928
X01306322Y01679448
X0124079
Y01702435
X01211182Y01704848
X01193182
X0119866Y01679702
X0121666
X01200294Y01660144
X01198626Y016241
X01218438Y01625744
X01193546Y01762396
Y01780396
X01307592Y0176668
Y0174868
X01286112Y0184912
X01268112
X01268002Y01871472
X01286002
X01286764Y01895094
X01268764
X01347629Y01910465
X0139805Y0188849
X01396526Y01948688
X01414526
X01444244Y01946656
X01444498Y01928114
X01452372Y01973072
X01326642Y0198247
X01317244Y01964182
X01507757Y01833233
X01558557
X01583957Y01866233
Y01764633
X01634757
X01685557
X01736357
X01761757Y01731633
X01710957
X01660157
X01609357
Y01833233
X01660157
X01710957
X01761757
X01736357Y01866233
X01685557
X01634757
X01623552Y01609598
X0160809
X02034032Y01774842
Y01792842
X01993392Y01935006
X01992884Y01953514
X0187579Y0200268
X01875282Y02021222
X01665986Y0203073
X01663954Y02072132
Y02115566
X0159998Y02098548
X0159871Y02058162
Y02013966
X01571752Y0201665
X01473962Y02110994
X01363472Y02101342
X01367282Y0207518
X01367536Y02030476
T02
X01712468Y01422908
Y01448308
Y01473708
X01828292Y0147447
Y0144907
Y0142367
T03
X01222712Y01770126
X01281132Y01770888
Y0179324
Y0174625
T04
X01707388Y02000504
Y02025904
Y02051304
Y02076704
Y02102104
Y02127504
Y02152904
Y02178304
X01834388Y02178304
Y02152904
Y02127504
Y02102104
Y02076704
Y02051304
Y02025904
Y02000504
X01532852Y01998476
Y02023876
Y02049276
Y02074676
Y02100076
Y02125476
Y02150876
Y02176276
X01405852Y02176276
Y02150876
Y02125476
Y02100076
Y02074676
Y02049276
Y02023876
Y01998476
T05
X0178435Y01426464
Y01451864
Y01477264
Y01502664
X0187452Y01499616
Y01525016
Y01550416
Y01474216
Y01448816
Y01423416
X0139192Y014224
X0136652
X0134112
X0131572
X0129032
X0126492
X01334262Y01519174
Y01544574
Y01569974
X01392174Y01712468
Y01737868
Y01763268
Y01788668
Y01814068
Y01839468
X01668272Y01604518
X01693672
X01719072
X01744472
X01769872
X01810258Y01602994
X01835658
X01861058
X01874012Y02052828
Y02078228
Y02103628
Y02129028
X01571498Y02126488
Y02101088
Y02075688
Y02050288
T06
X01212342Y01851406
Y01901406
X01213358Y01999996
Y02049996
M30
