G04*
G04 #@! TF.GenerationSoftware,Altium Limited,Altium Designer,26.3.0 (6)*
G04*
G04 Layer_Physical_Order=1*
G04 Layer_Color=255*
%FSLAX44Y44*%
%MOMM*%
G71*
G04*
G04 #@! TF.SameCoordinates,88606CE5-52C3-4128-B641-D15695FA68BD*
G04*
G04*
G04 #@! TF.FilePolarity,Positive*
G04*
G01*
G75*
%ADD15R,0.9080X0.2548*%
%ADD16R,1.7526X1.5494*%
%ADD17R,1.0200X1.9000*%
%ADD22C,1.5240*%
%ADD26R,1.5240X1.5240*%
%ADD30C,0.3500*%
%ADD31C,0.3000*%
%ADD32R,1.5240X1.5240*%
%ADD33C,1.3208*%
%ADD34C,0.9850*%
%ADD35R,1.9500X1.9500*%
%ADD36C,1.9500*%
%ADD37R,1.3208X1.3208*%
%ADD38R,0.9850X0.9850*%
%ADD39C,0.6000*%
%ADD40C,1.2700*%
D15*
X1648796Y1797500D02*
D03*
X1619904Y1792500D02*
D03*
X1648796D02*
D03*
Y1802500D02*
D03*
Y1807500D02*
D03*
X1619904D02*
D03*
Y1802500D02*
D03*
Y1797500D02*
D03*
D16*
X1634350Y1800000D02*
D03*
D17*
X1558557Y1731633D02*
D03*
X1583957Y1764633D02*
D03*
X1609357Y1731633D02*
D03*
X1507757D02*
D03*
X1736357Y1866233D02*
D03*
X1761757Y1833233D02*
D03*
X1710957D02*
D03*
X1685557Y1866233D02*
D03*
X1736357Y1764633D02*
D03*
X1685557D02*
D03*
X1634757Y1866233D02*
D03*
X1583957D02*
D03*
X1558557Y1833233D02*
D03*
X1660157D02*
D03*
X1634757Y1764633D02*
D03*
X1609357Y1833233D02*
D03*
X1660157Y1731633D02*
D03*
X1710957D02*
D03*
X1761757D02*
D03*
X1507757Y1833233D02*
D03*
X1533157Y1764633D02*
D03*
X1812557Y1833233D02*
D03*
X1533157Y1866233D02*
D03*
X1482357D02*
D03*
X1456957Y1833233D02*
D03*
Y1731633D02*
D03*
X1482357Y1764633D02*
D03*
X1787157Y1866233D02*
D03*
Y1764633D02*
D03*
X1812557Y1731633D02*
D03*
D22*
X1784350Y1451864D02*
D03*
Y1477264D02*
D03*
X1861058Y1602994D02*
D03*
X1769872Y1604518D02*
D03*
X1784350Y1502664D02*
D03*
X1874520Y1423416D02*
D03*
X1392174Y1737868D02*
D03*
X1334262Y1569974D02*
D03*
X1264920Y1422400D02*
D03*
X1392174Y1763268D02*
D03*
Y1788668D02*
D03*
Y1814068D02*
D03*
Y1839468D02*
D03*
X1571498Y2101088D02*
D03*
Y2126488D02*
D03*
Y2075688D02*
D03*
X1874012Y2078228D02*
D03*
Y2103628D02*
D03*
Y2129028D02*
D03*
X1334262Y1544574D02*
D03*
X1366520Y1422400D02*
D03*
X1290320D02*
D03*
X1315720D02*
D03*
X1341120D02*
D03*
X1874520Y1499616D02*
D03*
X1693672Y1604518D02*
D03*
X1744472D02*
D03*
X1835658Y1602994D02*
D03*
X1874520Y1525016D02*
D03*
X1719072Y1604518D02*
D03*
X1874520Y1448816D02*
D03*
Y1474216D02*
D03*
D26*
X1334262Y1519174D02*
D03*
X1392174Y1712468D02*
D03*
X1784350Y1426464D02*
D03*
X1571498Y2050288D02*
D03*
X1874012Y2052828D02*
D03*
X1874520Y1550416D02*
D03*
D30*
X1635338Y1532526D02*
X1636014D01*
X1634023Y1531212D02*
X1635338Y1532526D01*
X1596434Y1531212D02*
X1634023D01*
X1590184Y1537462D02*
X1596434Y1531212D01*
X1349248Y1735558D02*
X1382268Y1702538D01*
X1334088Y1839134D02*
X1349248Y1823974D01*
Y1735558D02*
Y1823974D01*
X1329088Y1837022D02*
X1344168Y1821942D01*
Y1733567D02*
Y1821942D01*
Y1733567D02*
X1376024Y1701710D01*
X1334088Y1839134D02*
Y1944319D01*
X1329088Y1837022D02*
Y1946390D01*
X1338580Y1731010D02*
X1371024Y1698566D01*
X1324088Y1833640D02*
X1338580Y1819148D01*
Y1731010D02*
Y1819148D01*
X1371024Y1647122D02*
Y1698566D01*
X1376024Y1645052D02*
Y1701710D01*
X1324088Y1833640D02*
Y1948461D01*
X1332992Y1727200D02*
Y1816100D01*
X1319022Y1830070D02*
X1332992Y1816100D01*
Y1727200D02*
X1365758Y1694434D01*
X1322324Y1720850D02*
X1354328Y1688846D01*
X1309446Y1824801D02*
X1322324Y1811922D01*
Y1720850D02*
Y1811922D01*
X1319022Y1830070D02*
Y1950466D01*
X1581150Y1789176D02*
X1581826D01*
X1585150Y1792500D01*
X1619904D01*
X1566672Y1713738D02*
X1583957Y1731023D01*
Y1764633D01*
X1447292Y1712468D02*
X1453562Y1718738D01*
X1634350Y1800000D02*
X1635366D01*
X1631850Y1797500D02*
X1634350Y1800000D01*
X1421638Y1678686D02*
Y1728978D01*
Y1819742D01*
Y1612138D02*
Y1678686D01*
Y1583351D02*
Y1612138D01*
X1409065Y1848104D02*
X1431544Y1825625D01*
X1438783Y1729359D02*
X1438910Y1729486D01*
X1443990Y1695663D02*
X1467065Y1718738D01*
X1431544Y1557528D02*
X1475486Y1513586D01*
X1438783Y1618192D02*
Y1729359D01*
X1449150Y1638433D02*
X1465111Y1622472D01*
X1443990Y1636522D02*
X1467358Y1613154D01*
X1449150Y1638433D02*
Y1693752D01*
X1469136Y1713738D01*
X1431544Y1557528D02*
Y1825625D01*
X1443990Y1636522D02*
Y1695663D01*
X1453562Y1718738D02*
X1467065D01*
X1471422Y1708658D02*
X1574038D01*
X1597013Y1731633D02*
X1609357D01*
X1574038Y1708658D02*
X1597013Y1731633D01*
X1454150Y1691386D02*
X1471422Y1708658D01*
X1467065Y1718738D02*
X1550062D01*
X1558557Y1727233D01*
X1469136Y1713738D02*
X1566672D01*
X1438402Y1560154D02*
Y1560830D01*
X1438529Y1617939D02*
X1438656Y1618065D01*
X1438402Y1560830D02*
X1438529Y1560957D01*
Y1617939D01*
X1438402Y1560154D02*
X1443482Y1555074D01*
X1475557Y1506444D02*
X1482628D01*
X1424686Y1557315D02*
X1475557Y1506444D01*
X1424686Y1557315D02*
Y1577594D01*
X1482628Y1506444D02*
X1483360Y1505712D01*
X1390904Y1880108D02*
Y1900682D01*
Y1880108D02*
X1407638Y1863374D01*
X1408315D01*
X1410188Y1862602D02*
X1418456Y1854334D01*
X1409086Y1862602D02*
X1410188D01*
X1418456Y1854334D02*
X1425702Y1847088D01*
X1418456Y1854334D02*
Y1854334D01*
X1408315Y1863374D02*
X1409086Y1862602D01*
X1438656Y1729740D02*
X1438910Y1729486D01*
X1438656Y1729740D02*
Y1834134D01*
X1425702Y1847088D02*
X1438656Y1834134D01*
X1425702Y1847088D02*
Y1849120D01*
X1421638Y1583351D02*
X1424208Y1580781D01*
Y1578072D02*
Y1580781D01*
Y1578072D02*
X1424686Y1577594D01*
X1597262Y1505458D02*
X1605390Y1513586D01*
X1483360Y1505712D02*
X1515364D01*
X1515872Y1506220D01*
X1516634Y1505458D01*
X1597262D01*
X1383538Y1873631D02*
X1409065Y1848104D01*
X1400810D02*
X1409065D01*
X1392174Y1839468D02*
X1400810Y1848104D01*
X1383538Y1873631D02*
Y1896364D01*
X1420368Y1821012D02*
X1421638Y1819742D01*
X1420368Y1821012D02*
Y1821688D01*
X1384228Y1827856D02*
X1393758D01*
X1399926Y1821688D01*
X1378538Y1833546D02*
Y1863920D01*
Y1833546D02*
X1384228Y1827856D01*
X1399926Y1821688D02*
X1420368D01*
X1412748Y1709420D02*
Y1794626D01*
X1392740Y1814634D02*
X1412748Y1794626D01*
X1378538Y1863920D02*
Y1894293D01*
X1425702Y1849120D02*
X1465326D01*
X1382546Y1909040D02*
X1390904Y1900682D01*
X1367814Y1909040D02*
X1382546D01*
X1558557Y1727233D02*
Y1731633D01*
X1357266Y1903984D02*
X1375918D01*
X1350518Y1910732D02*
X1357266Y1903984D01*
X1375918D02*
X1383538Y1896364D01*
X1317498Y1973275D02*
Y2154936D01*
X1309446Y1965223D02*
X1317498Y1973275D01*
X1309446Y1824801D02*
Y1965223D01*
X1317498Y2154936D02*
X1338838Y2176276D01*
X1339088Y1902968D02*
X1343072Y1898984D01*
X1334088Y1944319D02*
X1362841Y1973072D01*
X1324088Y1948461D02*
X1382522Y2006895D01*
X1319022Y1950466D02*
X1326642Y1958086D01*
X1342390Y1919732D02*
X1357122D01*
X1339088Y1916430D02*
X1342390Y1919732D01*
X1339088Y1902968D02*
Y1916430D01*
X1343072Y1898984D02*
X1373847D01*
X1329088Y1946390D02*
X1360770Y1978072D01*
X1373847Y1898984D02*
X1378538Y1894293D01*
X1493803Y1873983D02*
X1529807D01*
X1398050Y1888490D02*
X1479296D01*
X1493803Y1873983D01*
X1382522Y2039882D02*
X1404616Y2061976D01*
X1382522Y2006895D02*
Y2039882D01*
X1360770Y1978072D02*
X1385448D01*
X1362841Y1973072D02*
X1433068D01*
X1326642Y1958086D02*
Y1982470D01*
X1354328Y1499108D02*
Y1688846D01*
X1473962Y2110994D02*
X1544066D01*
X1553972Y2120900D01*
X1452372Y1973072D02*
X1455166Y1975866D01*
X1682750Y1975866D01*
X1382268Y1538986D02*
Y1702538D01*
X1404616Y2061976D02*
X1407088D01*
X1415706Y2070594D01*
Y2079095D01*
X1406579Y2088222D02*
X1415706Y2079095D01*
X1406579Y2088222D02*
Y2099349D01*
X1405852Y2100076D02*
X1406579Y2099349D01*
X1376018Y1645045D02*
X1376024Y1645052D01*
X1385448Y1978072D02*
X1405852Y1998476D01*
X1371018Y1647116D02*
X1371024Y1647122D01*
X1460754Y2000758D02*
Y2095974D01*
X1433068Y1973072D02*
X1460754Y2000758D01*
X1371018Y1517724D02*
X1405128Y1483614D01*
X1371018Y1517724D02*
Y1647116D01*
X1405852Y2100076D02*
Y2125476D01*
X1376018Y1533953D02*
X1405128Y1504843D01*
X1376018Y1533953D02*
Y1645045D01*
X1405128Y1496544D02*
Y1504843D01*
X1338838Y2176276D02*
X1405852D01*
X1354328Y1499108D02*
X1390142Y1463294D01*
X1405852Y2150876D02*
X1460754Y2095974D01*
X1365758Y1514145D02*
Y1694434D01*
Y1514145D02*
X1402539Y1477364D01*
X1686560Y2148332D02*
X1707388Y2127504D01*
X1568450Y2148332D02*
X1686560D01*
X1553972Y2133854D02*
X1568450Y2148332D01*
X1553972Y2120900D02*
Y2133854D01*
X1707388Y2102104D02*
Y2127504D01*
X1402539Y1477364D02*
X1405028D01*
X1419098Y1463294D01*
X1682750Y1975866D02*
X1707388Y2000504D01*
X1357122Y1919732D02*
X1367814Y1909040D01*
X1290320Y1422400D02*
X1313688Y1445768D01*
X1388364D01*
X1465326Y1849120D02*
X1481213Y1833233D01*
X1507757D01*
X1583957Y1866233D02*
Y1870633D01*
X1580607Y1873983D02*
X1583957Y1870633D01*
X1529807Y1873983D02*
X1533157Y1870633D01*
Y1866233D02*
Y1870633D01*
D31*
X1503680Y1533398D02*
X1520808Y1550526D01*
X1636014D01*
X1327150Y1723136D02*
Y1813814D01*
Y1723136D02*
X1361008Y1689278D01*
X1314196Y1826768D02*
X1327150Y1813814D01*
X1595120Y1807464D02*
X1595138Y1807482D01*
X1605084Y1797500D02*
X1619904D01*
X1630834Y1802500D02*
X1631850D01*
X1595138Y1807482D02*
X1619886D01*
X1619904Y1807500D01*
X1631850Y1802500D02*
X1632076Y1802274D01*
X1600084Y1802500D02*
X1605084Y1797500D01*
X1659062Y1789242D02*
X1659636Y1788668D01*
X1654868Y1789242D02*
X1659062D01*
X1651610Y1792500D02*
X1654868Y1789242D01*
X1648796Y1792500D02*
X1651610D01*
X1671418Y1797656D02*
X1671574Y1797812D01*
X1648952Y1797656D02*
X1671418D01*
X1648796Y1797500D02*
X1648952Y1797656D01*
X1658482Y1802500D02*
X1663192Y1807210D01*
X1648796Y1802500D02*
X1658482D01*
X1663192Y1807210D02*
X1676908D01*
X1767078Y1443736D02*
X1784350Y1426464D01*
X1767078Y1443736D02*
Y1464564D01*
X1784350Y1451864D02*
Y1453656D01*
X1588262Y1615694D02*
X1615948D01*
X1767078Y1464564D01*
X1616312Y1621694D02*
X1784350Y1453656D01*
X1603756Y1621694D02*
X1616312D01*
X1721071Y1442941D02*
X1735726Y1457596D01*
X1740408D01*
X1721071Y1442941D02*
Y1442941D01*
X1711960Y1433830D02*
X1721071Y1442941D01*
X1666722Y1433830D02*
X1711960D01*
X1740065Y1435121D02*
X1740154Y1435210D01*
X1740065Y1430693D02*
Y1435121D01*
X1719834Y1410462D02*
X1740065Y1430693D01*
X1515065Y1410462D02*
X1719834D01*
X1650720Y1417828D02*
X1666722Y1433830D01*
X1499108Y1411986D02*
X1504950Y1417828D01*
X1650720D01*
X1511808Y1411732D02*
X1512382Y1411158D01*
X1514369D01*
X1515065Y1410462D01*
X1592580Y1758188D02*
X1613154Y1778762D01*
X1592580Y1737868D02*
Y1758188D01*
X1613154Y1778762D02*
X1677162D01*
X1687576Y1789176D01*
Y1796542D01*
X1676908Y1807210D02*
X1687576Y1796542D01*
X1595120Y1807464D02*
X1600084Y1802500D01*
X1520437Y1570228D02*
X1536700D01*
X1508252Y1582413D02*
X1520437Y1570228D01*
X1508252Y1582413D02*
Y1603756D01*
X1514285Y1586723D02*
Y1604836D01*
X1520873Y1580135D02*
X1540001D01*
X1514285Y1586723D02*
X1520873Y1580135D01*
X1499290Y1612718D02*
X1508252Y1603756D01*
X1518920Y1590682D02*
Y1609090D01*
X1523880Y1585722D02*
X1547876D01*
X1518920Y1590682D02*
X1523880Y1585722D01*
X1635366Y1800000D02*
X1642866Y1807500D01*
X1630834Y1802500D02*
X1631969Y1801365D01*
X1642866Y1807500D02*
X1648796D01*
X1632330Y1801726D02*
X1634056Y1800000D01*
X1619904Y1797500D02*
X1631850D01*
X1625834Y1807500D02*
X1630834Y1802500D01*
X1619904D02*
X1630834D01*
X1600084D02*
X1619904D01*
Y1807500D02*
X1625834D01*
X1501902Y1617218D02*
X1514285Y1604836D01*
X1505966Y1622044D02*
X1518920Y1609090D01*
X1472946Y1622044D02*
X1505966D01*
X1470365Y1617218D02*
X1501902D01*
X1454150Y1640840D02*
Y1691386D01*
Y1640840D02*
X1472946Y1622044D01*
X1465111Y1622472D02*
X1470365Y1617218D01*
X1467358Y1613154D02*
X1467794Y1612718D01*
X1499290D01*
X1590421Y1566689D02*
X1590438Y1566672D01*
X1590421Y1566689D02*
Y1596881D01*
X1590404Y1596898D02*
X1590421Y1596881D01*
X1480157Y1520886D02*
X1482664D01*
X1482852Y1520698D02*
X1598278D01*
X1482664Y1520886D02*
X1482852Y1520698D01*
X1480156Y1520885D02*
X1480157Y1520886D01*
X1477670Y1520885D02*
X1480156D01*
X1443482Y1555074D02*
X1477670Y1520885D01*
X1547876Y1585722D02*
X1554396Y1579202D01*
Y1579202D02*
Y1579202D01*
Y1579202D02*
X1565148Y1568450D01*
X1540001Y1580135D02*
X1551686Y1568450D01*
X1475486Y1513586D02*
X1587390D01*
X1317244Y1963973D02*
Y1964182D01*
X1314196Y1960925D02*
X1317244Y1963973D01*
X1314196Y1826768D02*
Y1960925D01*
X1660325Y1473839D02*
X1712337D01*
X1712468Y1473708D01*
X1613712Y1427226D02*
X1660325Y1473839D01*
X1483106Y1427226D02*
X1613712D01*
X1468374Y1412494D02*
X1483106Y1427226D01*
X1646682Y1422654D02*
X1672336Y1448308D01*
X1485392Y1411986D02*
X1496060Y1422654D01*
X1646682D01*
X1672336Y1448308D02*
X1712468D01*
X1361008Y1506398D02*
Y1689278D01*
Y1506398D02*
X1404366Y1463040D01*
X1598278Y1520698D02*
X1605390Y1513586D01*
D32*
X1391920Y1422400D02*
D03*
X1810258Y1602994D02*
D03*
X1668272Y1604518D02*
D03*
D33*
X1834388Y2152904D02*
D03*
X1532852Y2150876D02*
D03*
X1834388Y2178304D02*
D03*
X1532852Y2176276D02*
D03*
X1834388Y2025904D02*
D03*
X1532852Y2023876D02*
D03*
X1405852Y2150876D02*
D03*
Y2176276D02*
D03*
Y2125476D02*
D03*
Y2100076D02*
D03*
Y2074676D02*
D03*
X1532852Y2125476D02*
D03*
Y2100076D02*
D03*
Y2049276D02*
D03*
Y2074676D02*
D03*
X1405852Y2023876D02*
D03*
Y2049276D02*
D03*
X1707388Y2178304D02*
D03*
Y2076704D02*
D03*
Y2051304D02*
D03*
Y2025904D02*
D03*
Y2127504D02*
D03*
Y2102104D02*
D03*
X1834388Y2076704D02*
D03*
Y2102104D02*
D03*
Y2051304D02*
D03*
Y2127504D02*
D03*
X1707388Y2152904D02*
D03*
D34*
X1828292Y1423670D02*
D03*
X1712468Y1422908D02*
D03*
X1828292Y1449070D02*
D03*
X1712468Y1448308D02*
D03*
D35*
X1212342Y1901406D02*
D03*
X1213358Y2049996D02*
D03*
D36*
Y1999996D02*
D03*
X1212342Y1851406D02*
D03*
D37*
X1834388Y2000504D02*
D03*
X1532852Y1998476D02*
D03*
X1405852Y1998476D02*
D03*
X1707388Y2000504D02*
D03*
D38*
X1712468Y1473708D02*
D03*
X1828292Y1474470D02*
D03*
D39*
X1503680Y1533398D02*
D03*
X1636014Y1550526D02*
D03*
Y1532526D02*
D03*
X1368806Y1812036D02*
D03*
X1581150Y1789176D02*
D03*
X1603756Y1621694D02*
D03*
X1624389Y1594703D02*
D03*
X1740408Y1457596D02*
D03*
X1740154Y1435210D02*
D03*
X1740408Y1475596D02*
D03*
X1671574Y1797812D02*
D03*
X1499108Y1411986D02*
D03*
X1349728Y1467866D02*
D03*
X1298956Y1594722D02*
D03*
X1193546Y1762396D02*
D03*
X1433212Y1418844D02*
D03*
X1421494Y1538478D02*
D03*
X1417938Y1558544D02*
D03*
X1367536Y2030476D02*
D03*
X1367282Y2075180D02*
D03*
X1363472Y2101342D02*
D03*
X1586484Y1447182D02*
D03*
X1740154Y1417210D02*
D03*
X1590184Y1537462D02*
D03*
X1665986Y2030730D02*
D03*
X1663954Y2072132D02*
D03*
Y2115566D02*
D03*
X1659636Y1788668D02*
D03*
X1588262Y1615694D02*
D03*
X1511808Y1411732D02*
D03*
X1447292Y1712468D02*
D03*
X1592580Y1737868D02*
D03*
X1595120Y1807464D02*
D03*
X1536700Y1570228D02*
D03*
X1634350Y1800000D02*
D03*
X1599980Y2098548D02*
D03*
X1598710Y2058162D02*
D03*
Y2013966D02*
D03*
X1541890Y1730756D02*
D03*
X1474106Y1602740D02*
D03*
X1455674Y1594214D02*
D03*
X1608438Y1566672D02*
D03*
X1608184Y1537462D02*
D03*
X1606804Y1446928D02*
D03*
X1586484Y1465182D02*
D03*
X1451212Y1418844D02*
D03*
X1309260Y2052066D02*
D03*
Y2013966D02*
D03*
X1308498Y2083816D02*
D03*
X1286764Y1895094D02*
D03*
X1286002Y1871472D02*
D03*
X1286112Y1849120D02*
D03*
X1271778Y1950610D02*
D03*
X1193546Y1780396D02*
D03*
X1307592Y1766680D02*
D03*
X1254904Y1587246D02*
D03*
X1403494Y1538478D02*
D03*
X1253202Y1462024D02*
D03*
Y1553024D02*
D03*
X1218438Y1625744D02*
D03*
X1193182Y1704848D02*
D03*
X1198660Y1679702D02*
D03*
X1198626Y1624100D02*
D03*
X1197102Y1539240D02*
D03*
X1181574Y1516634D02*
D03*
Y1425634D02*
D03*
X1421638Y1678686D02*
D03*
X1571752Y1998108D02*
D03*
X1284224Y1996440D02*
D03*
X1266224D02*
D03*
X1286510Y2016794D02*
D03*
X1264920Y2016396D02*
D03*
X1286510Y2034794D02*
D03*
X1264920Y2034396D02*
D03*
X1875790Y2002680D02*
D03*
X1271270Y1969118D02*
D03*
X1571752Y2016650D02*
D03*
X1875282Y2021222D02*
D03*
X1438402Y1560830D02*
D03*
X1407160Y1863852D02*
D03*
X1438402Y1834388D02*
D03*
X1438910Y1729486D02*
D03*
X1438656Y1618742D02*
D03*
X1424686Y1577594D02*
D03*
X1421638Y1612138D02*
D03*
X1420368Y1821688D02*
D03*
X1421638Y1728978D02*
D03*
X1412748Y1709420D02*
D03*
X1515872Y1505458D02*
D03*
X1516126Y1520952D02*
D03*
X1482852Y1505966D02*
D03*
Y1521460D02*
D03*
X1551686Y1568450D02*
D03*
X1565148D02*
D03*
X1538114Y1597152D02*
D03*
X1556114D02*
D03*
X1611630Y1597406D02*
D03*
X1572404Y1596898D02*
D03*
X1390904Y1900682D02*
D03*
X1583957Y1764633D02*
D03*
X1587390Y1513586D02*
D03*
X1347629Y1910465D02*
D03*
X1609357Y1731633D02*
D03*
X1378538Y1863920D02*
D03*
X1343072Y1898984D02*
D03*
X1390900Y1929740D02*
D03*
X1507757Y1731633D02*
D03*
X1566020Y1765046D02*
D03*
X1533157Y1764633D02*
D03*
X1548020Y1765046D02*
D03*
X1523890Y1730756D02*
D03*
X1517506Y1764284D02*
D03*
X1499506D02*
D03*
X1488424Y1733550D02*
D03*
X1473724D02*
D03*
X1317244Y1964182D02*
D03*
X1485392Y1411986D02*
D03*
X1468374Y1412494D02*
D03*
X1473962Y2110994D02*
D03*
X1326642Y1982470D02*
D03*
X1452372Y1973072D02*
D03*
X1405128Y1483614D02*
D03*
Y1496544D02*
D03*
X1390142Y1463294D02*
D03*
X1382268Y1538986D02*
D03*
X1419098Y1463294D02*
D03*
X1404366Y1463040D02*
D03*
X1388364Y1445768D02*
D03*
X1306322Y1679448D02*
D03*
X1216660Y1679702D02*
D03*
X1240790Y1679448D02*
D03*
X1200294Y1660144D02*
D03*
X1736357Y1866233D02*
D03*
X1710957Y1833233D02*
D03*
X1761757D02*
D03*
X1685557Y1866233D02*
D03*
X1736357Y1764633D02*
D03*
X1761757Y1731633D02*
D03*
X1685557Y1764633D02*
D03*
X1634757Y1866233D02*
D03*
X1583957D02*
D03*
X1660157Y1833233D02*
D03*
X1634757Y1764633D02*
D03*
X1609357Y1833233D02*
D03*
X1558557D02*
D03*
X1660157Y1731633D02*
D03*
X1710957D02*
D03*
X1605390Y1513586D02*
D03*
X1590404Y1596898D02*
D03*
X1590438Y1566672D02*
D03*
X1444498Y1928114D02*
D03*
X1414526Y1948688D02*
D03*
X1507757Y1833233D02*
D03*
X1307592Y1748680D02*
D03*
X1240790Y1702435D02*
D03*
X1211182Y1704848D02*
D03*
X1268112Y1849120D02*
D03*
X1268002Y1871472D02*
D03*
X1268764Y1895094D02*
D03*
X1444244Y1946656D02*
D03*
X1396526Y1948688D02*
D03*
X1398050Y1888490D02*
D03*
D40*
X1222712Y1770126D02*
D03*
X1281132Y1770888D02*
D03*
Y1793240D02*
D03*
Y1746250D02*
D03*
M02*
