G04*
G04 #@! TF.GenerationSoftware,Altium Limited,Altium Designer,26.3.0 (6)*
G04*
G04 Layer_Physical_Order=3*
G04 Layer_Color=128*
%FSLAX44Y44*%
%MOMM*%
G71*
G04*
G04 #@! TF.SameCoordinates,88606CE5-52C3-4128-B641-D15695FA68BD*
G04*
G04*
G04 #@! TF.FilePolarity,Negative*
G04*
G01*
G75*
%ADD19C,1.7272*%
%ADD41C,0.5080*%
%ADD42C,1.0160*%
%ADD43C,2.0320*%
%ADD44C,1.8288*%
G04:AMPARAMS|DCode=45|XSize=2.3368mm|YSize=2.3368mm|CornerRadius=0mm|HoleSize=0mm|Usage=FLASHONLY|Rotation=0.000|XOffset=0mm|YOffset=0mm|HoleType=Round|Shape=Relief|Width=0.254mm|Gap=0.254mm|Entries=4|*
%AMTHD45*
7,0,0,2.3368,1.8288,0.2540,45*
%
%ADD45THD45*%
G04:AMPARAMS|DCode=46|XSize=2.54mm|YSize=2.54mm|CornerRadius=0mm|HoleSize=0mm|Usage=FLASHONLY|Rotation=0.000|XOffset=0mm|YOffset=0mm|HoleType=Round|Shape=Relief|Width=0.254mm|Gap=0.254mm|Entries=4|*
%AMTHD46*
7,0,0,2.5400,2.0320,0.2540,45*
%
%ADD46THD46*%
G04:AMPARAMS|DCode=48|XSize=2.824mm|YSize=2.824mm|CornerRadius=0mm|HoleSize=0mm|Usage=FLASHONLY|Rotation=0.000|XOffset=0mm|YOffset=0mm|HoleType=Round|Shape=Relief|Width=0.254mm|Gap=0.254mm|Entries=4|*
%AMTHD48*
7,0,0,2.8240,2.3160,0.2540,45*
%
%ADD48THD48*%
%ADD49C,2.3160*%
%ADD50C,1.6510*%
%ADD51C,1.3160*%
G04:AMPARAMS|DCode=52|XSize=1.824mm|YSize=1.824mm|CornerRadius=0mm|HoleSize=0mm|Usage=FLASHONLY|Rotation=0.000|XOffset=0mm|YOffset=0mm|HoleType=Round|Shape=Relief|Width=0.254mm|Gap=0.254mm|Entries=4|*
%AMTHD52*
7,0,0,1.8240,1.3160,0.2540,45*
%
%ADD52THD52*%
G04:AMPARAMS|DCode=53|XSize=2.2352mm|YSize=2.2352mm|CornerRadius=0mm|HoleSize=0mm|Usage=FLASHONLY|Rotation=0.000|XOffset=0mm|YOffset=0mm|HoleType=Round|Shape=Relief|Width=0.254mm|Gap=0.254mm|Entries=4|*
%AMTHD53*
7,0,0,2.2352,1.7272,0.2540,45*
%
%ADD53THD53*%
G36*
X1900000Y1966350D02*
Y1902350D01*
X1497482D01*
X1492507Y1903138D01*
X1487716Y1904694D01*
X1483228Y1906981D01*
X1479153Y1909942D01*
X1475592Y1913503D01*
X1472631Y1917578D01*
X1470344Y1922066D01*
X1468788Y1926857D01*
X1468000Y1931832D01*
Y1936868D01*
X1468788Y1941843D01*
X1470344Y1946634D01*
X1472631Y1951122D01*
X1475592Y1955197D01*
X1479153Y1958758D01*
X1483228Y1961719D01*
X1487716Y1964006D01*
X1492507Y1965562D01*
X1497482Y1966350D01*
X1500000D01*
X1900000Y1966350D01*
D02*
G37*
G36*
Y1697650D02*
Y1633650D01*
X1497482D01*
X1492507Y1634438D01*
X1487716Y1635994D01*
X1483228Y1638281D01*
X1479153Y1641242D01*
X1475592Y1644803D01*
X1472631Y1648878D01*
X1470344Y1653366D01*
X1468788Y1658157D01*
X1468000Y1663132D01*
Y1668168D01*
X1468788Y1673143D01*
X1470344Y1677934D01*
X1472631Y1682422D01*
X1475592Y1686497D01*
X1479153Y1690058D01*
X1483228Y1693019D01*
X1487716Y1695306D01*
X1492507Y1696862D01*
X1497482Y1697650D01*
X1500000D01*
X1900000Y1697650D01*
D02*
G37*
D19*
X1281132Y1793240D02*
D03*
D41*
X1547622Y1586300D02*
Y1630934D01*
Y1586300D02*
X1548962Y1584960D01*
X1614678Y1633474D02*
X1619758D01*
X1418082Y1830070D02*
X1481328Y1766824D01*
X1418082Y1830070D02*
Y1848104D01*
X1481328Y1725422D02*
Y1766824D01*
X1377188Y1888998D02*
X1418082Y1848104D01*
X1377188Y1888998D02*
Y1951736D01*
X1800606Y2042668D02*
X1900000D01*
X1769618Y2011680D02*
X1800606Y2042668D01*
X1625854Y2011680D02*
X1769618D01*
X1606550Y2030984D02*
X1625854Y2011680D01*
X1558798Y2030984D02*
X1606550D01*
X1521206Y2068576D02*
X1558798Y2030984D01*
X1521206Y2068576D02*
Y2090928D01*
X1451102Y2161032D02*
X1521206Y2090928D01*
X1303274Y2161032D02*
X1451102D01*
X1198118Y2055876D02*
X1303274Y2161032D01*
X1198118Y1990598D02*
Y2055876D01*
Y1990598D02*
X1223518Y1965198D01*
X1373124Y1801622D02*
X1445006D01*
X1326388Y1754886D02*
X1373124Y1801622D01*
X1445006D02*
X1454658Y1791970D01*
X1619758Y1584960D02*
Y1633474D01*
X1548962Y1584960D02*
X1619758D01*
X1467358Y1981708D02*
X1480312Y1968754D01*
X1407160Y1981708D02*
X1467358D01*
X1326388Y1743964D02*
Y1754886D01*
X1532346Y1748282D02*
X1540710D01*
X1435627Y1750568D02*
X1490111Y1696084D01*
X1406779Y1750568D02*
X1435627D01*
X1504572Y1748282D02*
X1509522D01*
X1497076Y1740786D02*
X1500188Y1743898D01*
X1481328Y1725422D02*
X1488186Y1718564D01*
X1492504D01*
X1497076Y1723136D01*
Y1725422D01*
X1483228Y1832488D02*
Y1906981D01*
Y1832488D02*
X1528318Y1787398D01*
X1554988D01*
X1566164Y1776222D01*
Y1759277D02*
Y1776222D01*
X1555169Y1748282D02*
X1566164Y1759277D01*
X1509522Y1748282D02*
X1555169D01*
X1500188Y1743898D02*
X1504572Y1748282D01*
X1497076Y1725422D02*
Y1740786D01*
X1377188Y1951736D02*
X1407160Y1981708D01*
X1480312Y1968754D02*
X1499108D01*
X1384808Y1750568D02*
X1406779D01*
X1363726Y1729486D02*
X1384808Y1750568D01*
X1363726Y1683766D02*
Y1729486D01*
X1315974Y1636014D02*
X1363726Y1683766D01*
X1203452Y1636014D02*
X1315974D01*
X1183132Y1656334D02*
X1203452Y1636014D01*
X1183132Y1656334D02*
Y1681734D01*
X1193546Y1692148D01*
X1207770D01*
X1189736Y1846012D02*
Y1862328D01*
X1206754Y1879346D01*
X1224280D01*
X1256284Y1911350D01*
X1293876D01*
X1326388Y1878838D01*
Y1743964D02*
Y1878838D01*
X1274572Y1692148D02*
X1326388Y1743964D01*
X1207770Y1692148D02*
X1274572D01*
X1202182Y1697736D02*
X1207770Y1692148D01*
X1202182Y1697736D02*
Y1721866D01*
X1237996Y1757680D01*
X1290828D01*
X1295654Y1762506D01*
Y1803146D01*
X1282700Y1816100D02*
X1295654Y1803146D01*
X1219648Y1816100D02*
X1282700D01*
X1189736Y1846012D02*
X1219648Y1816100D01*
X1475232Y2024634D02*
X1532763Y1967103D01*
X1475232Y2024634D02*
Y2088642D01*
X1440942Y2122932D02*
X1475232Y2088642D01*
X1342390Y2122932D02*
X1440942D01*
X1319276Y2099818D02*
X1342390Y2122932D01*
X1319276Y1999742D02*
Y2099818D01*
X1284732Y1965198D02*
X1319276Y1999742D01*
X1223518Y1965198D02*
X1284732D01*
X1475327Y1955197D02*
X1475592D01*
D42*
X1156970Y2200000D02*
X1900000D01*
X1156970Y1400000D02*
Y2200000D01*
Y1400000D02*
X1900000D01*
Y1633650D01*
X1497482D02*
X1900000D01*
X1492507Y1634438D02*
X1497482Y1633650D01*
X1487716Y1635994D02*
X1492507Y1634438D01*
X1483228Y1638281D02*
X1487716Y1635994D01*
X1479153Y1641242D02*
X1483228Y1638281D01*
X1475592Y1644803D02*
X1479153Y1641242D01*
X1472631Y1648878D02*
X1475592Y1644803D01*
X1470344Y1653366D02*
X1472631Y1648878D01*
X1468788Y1658157D02*
X1470344Y1653366D01*
X1468000Y1663132D02*
X1468788Y1658157D01*
X1468000Y1663132D02*
Y1668168D01*
X1468788Y1673143D01*
X1470344Y1677934D01*
X1472631Y1682422D01*
X1475592Y1686497D01*
X1479153Y1690058D01*
X1483228Y1693019D01*
X1487716Y1695306D01*
X1492507Y1696862D01*
X1497482Y1697650D01*
X1500000D01*
X1900000Y1697650D01*
Y1902350D01*
Y1966350D02*
Y2200000D01*
X1497482Y1902350D02*
X1900000D01*
X1492507Y1903138D02*
X1497482Y1902350D01*
X1487716Y1904694D02*
X1492507Y1903138D01*
X1483228Y1906981D02*
X1487716Y1904694D01*
X1479153Y1909942D02*
X1483228Y1906981D01*
X1475592Y1913503D02*
X1479153Y1909942D01*
X1472631Y1917578D02*
X1475592Y1913503D01*
X1470344Y1922066D02*
X1472631Y1917578D01*
X1468788Y1926857D02*
X1470344Y1922066D01*
X1468000Y1931832D02*
X1468788Y1926857D01*
X1468000Y1931832D02*
Y1936868D01*
X1468788Y1941843D01*
X1470344Y1946634D01*
X1472631Y1951122D01*
X1475592Y1955197D01*
X1479153Y1958758D01*
X1483228Y1961719D01*
X1487716Y1964006D01*
X1492507Y1965562D01*
X1497482Y1966350D01*
X1500000D01*
X1900000Y1966350D01*
D43*
X1784350Y1451864D02*
D03*
Y1426464D02*
D03*
X1861058Y1602994D02*
D03*
X1769872Y1604518D02*
D03*
X1784350Y1502664D02*
D03*
X1874520Y1423416D02*
D03*
X1392174Y1737868D02*
D03*
X1334262Y1569974D02*
D03*
X1264920Y1422400D02*
D03*
X1392174Y1763268D02*
D03*
Y1788668D02*
D03*
Y1814068D02*
D03*
Y1839468D02*
D03*
X1571498Y2101088D02*
D03*
Y2050288D02*
D03*
Y2126488D02*
D03*
Y2075688D02*
D03*
X1874012Y2078228D02*
D03*
Y2052828D02*
D03*
Y2103628D02*
D03*
Y2129028D02*
D03*
X1334262Y1544574D02*
D03*
X1366520Y1422400D02*
D03*
X1290320D02*
D03*
X1315720D02*
D03*
X1341120D02*
D03*
X1874520Y1499616D02*
D03*
X1668272Y1604518D02*
D03*
X1693672D02*
D03*
X1744472D02*
D03*
X1874520Y1550416D02*
D03*
X1835658Y1602994D02*
D03*
X1874520Y1525016D02*
D03*
X1719072Y1604518D02*
D03*
X1874520Y1448816D02*
D03*
Y1474216D02*
D03*
D44*
X1834388Y2178304D02*
D03*
X1532852Y2176276D02*
D03*
X1834388Y2025904D02*
D03*
X1532852Y2023876D02*
D03*
X1405852Y2150876D02*
D03*
Y2176276D02*
D03*
Y2125476D02*
D03*
Y2100076D02*
D03*
Y1998476D02*
D03*
Y2074676D02*
D03*
X1532852Y2125476D02*
D03*
Y2100076D02*
D03*
Y2049276D02*
D03*
Y2074676D02*
D03*
X1405852Y2023876D02*
D03*
Y2049276D02*
D03*
X1707388Y2178304D02*
D03*
Y2076704D02*
D03*
Y2000504D02*
D03*
Y2051304D02*
D03*
Y2025904D02*
D03*
Y2127504D02*
D03*
Y2102104D02*
D03*
X1834388Y2076704D02*
D03*
Y2102104D02*
D03*
Y2051304D02*
D03*
Y2127504D02*
D03*
X1707388Y2152904D02*
D03*
D45*
X1834388Y2152904D02*
D03*
X1532852Y2150876D02*
D03*
X1834388Y2000504D02*
D03*
X1532852Y1998476D02*
D03*
D46*
X1334262Y1519174D02*
D03*
X1391920Y1422400D02*
D03*
X1392174Y1712468D02*
D03*
X1784350Y1477264D02*
D03*
X1810258Y1602994D02*
D03*
D48*
X1213358Y1999996D02*
D03*
X1212342Y1851406D02*
D03*
D49*
Y1901406D02*
D03*
X1213358Y2049996D02*
D03*
D50*
X1828292Y1423670D02*
D03*
X1712468Y1422908D02*
D03*
X1828292Y1449070D02*
D03*
X1712468Y1448308D02*
D03*
Y1473708D02*
D03*
X1828292Y1474470D02*
D03*
D51*
X1503680Y1533398D02*
D03*
X1636014Y1550526D02*
D03*
X1581150Y1789176D02*
D03*
X1603756Y1621694D02*
D03*
X1740408Y1457596D02*
D03*
X1740154Y1435210D02*
D03*
X1671574Y1797812D02*
D03*
X1499108Y1411986D02*
D03*
X1659636Y1788668D02*
D03*
X1588262Y1615694D02*
D03*
X1511808Y1411732D02*
D03*
X1447292Y1712468D02*
D03*
X1592580Y1737868D02*
D03*
X1595120Y1807464D02*
D03*
X1536700Y1570228D02*
D03*
X1634350Y1800000D02*
D03*
X1599980Y2098548D02*
D03*
X1598710Y2058162D02*
D03*
Y2013966D02*
D03*
X1541890Y1730756D02*
D03*
X1474106Y1602740D02*
D03*
X1455674Y1594214D02*
D03*
X1608438Y1566672D02*
D03*
X1608184Y1537462D02*
D03*
X1606804Y1446928D02*
D03*
X1586484Y1465182D02*
D03*
X1451212Y1418844D02*
D03*
X1309260Y2052066D02*
D03*
Y2013966D02*
D03*
X1308498Y2083816D02*
D03*
X1286764Y1895094D02*
D03*
X1286002Y1871472D02*
D03*
X1286112Y1849120D02*
D03*
X1271778Y1950610D02*
D03*
X1193546Y1780396D02*
D03*
X1307592Y1766680D02*
D03*
X1254904Y1587246D02*
D03*
X1403494Y1538478D02*
D03*
X1253202Y1462024D02*
D03*
Y1553024D02*
D03*
X1218438Y1625744D02*
D03*
X1193182Y1704848D02*
D03*
X1198660Y1679702D02*
D03*
X1198626Y1624100D02*
D03*
X1197102Y1539240D02*
D03*
X1181574Y1516634D02*
D03*
Y1425634D02*
D03*
X1421638Y1678686D02*
D03*
X1284224Y1996440D02*
D03*
X1286510Y2034794D02*
D03*
X1264920Y2034396D02*
D03*
X1271270Y1969118D02*
D03*
X1571752Y2016650D02*
D03*
X1875282Y2021222D02*
D03*
X1438402Y1560830D02*
D03*
X1407160Y1863852D02*
D03*
X1438402Y1834388D02*
D03*
X1438910Y1729486D02*
D03*
X1438656Y1618742D02*
D03*
X1424686Y1577594D02*
D03*
X1421638Y1612138D02*
D03*
X1420368Y1821688D02*
D03*
X1421638Y1728978D02*
D03*
X1412748Y1709420D02*
D03*
X1515872Y1505458D02*
D03*
X1516126Y1520952D02*
D03*
X1482852Y1505966D02*
D03*
Y1521460D02*
D03*
X1551686Y1568450D02*
D03*
X1565148D02*
D03*
X1538114Y1597152D02*
D03*
X1390904Y1900682D02*
D03*
X1583957Y1764633D02*
D03*
X1587390Y1513586D02*
D03*
X1347629Y1910465D02*
D03*
X1609357Y1731633D02*
D03*
X1378538Y1863920D02*
D03*
X1343072Y1898984D02*
D03*
X1566020Y1765046D02*
D03*
X1517506Y1764284D02*
D03*
X1317244Y1964182D02*
D03*
X1485392Y1411986D02*
D03*
X1468374Y1412494D02*
D03*
X1473962Y2110994D02*
D03*
X1326642Y1982470D02*
D03*
X1452372Y1973072D02*
D03*
X1405128Y1483614D02*
D03*
Y1496544D02*
D03*
X1390142Y1463294D02*
D03*
X1382268Y1538986D02*
D03*
X1419098Y1463294D02*
D03*
X1404366Y1463040D02*
D03*
X1388364Y1445768D02*
D03*
X1736357Y1866233D02*
D03*
X1710957Y1833233D02*
D03*
X1761757D02*
D03*
X1685557Y1866233D02*
D03*
X1736357Y1764633D02*
D03*
X1761757Y1731633D02*
D03*
X1685557Y1764633D02*
D03*
X1634757Y1866233D02*
D03*
X1583957D02*
D03*
X1660157Y1833233D02*
D03*
X1634757Y1764633D02*
D03*
X1609357Y1833233D02*
D03*
X1558557D02*
D03*
X1660157Y1731633D02*
D03*
X1710957D02*
D03*
X1605390Y1513586D02*
D03*
X1590404Y1596898D02*
D03*
X1590438Y1566672D02*
D03*
X1444498Y1928114D02*
D03*
X1414526Y1948688D02*
D03*
X1507757Y1833233D02*
D03*
X1398050Y1888490D02*
D03*
D52*
X1636014Y1532526D02*
D03*
X1368806Y1812036D02*
D03*
X1624389Y1594703D02*
D03*
X1740408Y1475596D02*
D03*
X1349728Y1467866D02*
D03*
X1298956Y1594722D02*
D03*
X1193546Y1762396D02*
D03*
X1433212Y1418844D02*
D03*
X1421494Y1538478D02*
D03*
X1417938Y1558544D02*
D03*
X1367536Y2030476D02*
D03*
X1367282Y2075180D02*
D03*
X1363472Y2101342D02*
D03*
X1586484Y1447182D02*
D03*
X1740154Y1417210D02*
D03*
X1590184Y1537462D02*
D03*
X1665986Y2030730D02*
D03*
X1663954Y2072132D02*
D03*
Y2115566D02*
D03*
X1571752Y1998108D02*
D03*
X1266224Y1996440D02*
D03*
X1286510Y2016794D02*
D03*
X1264920Y2016396D02*
D03*
X1875790Y2002680D02*
D03*
X1556114Y1597152D02*
D03*
X1611630Y1597406D02*
D03*
X1572404Y1596898D02*
D03*
X1390900Y1929740D02*
D03*
X1507757Y1731633D02*
D03*
X1533157Y1764633D02*
D03*
X1548020Y1765046D02*
D03*
X1523890Y1730756D02*
D03*
X1499506Y1764284D02*
D03*
X1488424Y1733550D02*
D03*
X1473724D02*
D03*
X1306322Y1679448D02*
D03*
X1216660Y1679702D02*
D03*
X1240790Y1679448D02*
D03*
X1200294Y1660144D02*
D03*
X1307592Y1748680D02*
D03*
X1240790Y1702435D02*
D03*
X1211182Y1704848D02*
D03*
X1268112Y1849120D02*
D03*
X1268002Y1871472D02*
D03*
X1268764Y1895094D02*
D03*
X1444244Y1946656D02*
D03*
X1396526Y1948688D02*
D03*
D53*
X1222712Y1770126D02*
D03*
X1281132Y1770888D02*
D03*
Y1746250D02*
D03*
M02*
