G04*
G04 #@! TF.GenerationSoftware,Altium Limited,Altium Designer,26.3.0 (6)*
G04*
G04 Layer_Color=32896*
%FSLAX44Y44*%
%MOMM*%
G71*
G04*
G04 #@! TF.SameCoordinates,88606CE5-52C3-4128-B641-D15695FA68BD*
G04*
G04*
G04 #@! TF.FilePolarity,Positive*
G04*
G01*
G75*
%ADD10C,0.2000*%
%ADD11C,0.1524*%
%ADD12C,0.1270*%
%ADD14C,0.1000*%
%ADD83C,0.1500*%
D10*
X1259358Y2049996D02*
G03*
X1259358Y2049996I-1000J0D01*
G01*
X1393174Y1693268D02*
G03*
X1393174Y1693268I-1000J0D01*
G01*
X1470777Y1978376D02*
G03*
X1470777Y1978376I-1000J0D01*
G01*
X1772313Y1980404D02*
G03*
X1772313Y1980404I-1000J0D01*
G01*
X1875012Y2033628D02*
G03*
X1875012Y2033628I-1000J0D01*
G01*
X1254452Y1570024D02*
G03*
X1254452Y1570024I-1000J0D01*
G01*
X1335262Y1499974D02*
G03*
X1335262Y1499974I-1000J0D01*
G01*
X1182824Y1533634D02*
G03*
X1182824Y1533634I-1000J0D01*
G01*
X1412120Y1422400D02*
G03*
X1412120Y1422400I-1000J0D01*
G01*
X1510972Y1577848D02*
G03*
X1510972Y1577848I-1000J0D01*
G01*
X1792058Y1602994D02*
G03*
X1792058Y1602994I-1000J0D01*
G01*
X1875520Y1569616D02*
G03*
X1875520Y1569616I-1000J0D01*
G01*
X1829292Y1493670D02*
G03*
X1829292Y1493670I-1000J0D01*
G01*
X1572498Y2031088D02*
G03*
X1572498Y2031088I-1000J0D01*
G01*
X1298712Y1793126D02*
G03*
X1298712Y1793126I-1000J0D01*
G01*
X1322628Y1467866D02*
G03*
X1322628Y1467866I-1000J0D01*
G01*
X1429350Y1930240D02*
G03*
X1429350Y1930240I-1000J0D01*
G01*
X1650072Y1604518D02*
G03*
X1650072Y1604518I-1000J0D01*
G01*
X1713468Y1492908D02*
G03*
X1713468Y1492908I-1000J0D01*
G01*
X1258342Y1901406D02*
G03*
X1258342Y1901406I-1000J0D01*
G01*
X1785350Y1407264D02*
G03*
X1785350Y1407264I-1000J0D01*
G01*
X1641764Y1540526D02*
Y1542526D01*
X1630264Y1540526D02*
Y1542526D01*
X1746158Y1465596D02*
Y1467596D01*
X1734658Y1465596D02*
Y1467596D01*
X1734404Y1425210D02*
Y1427210D01*
X1745904Y1425210D02*
Y1427210D01*
X1266028Y1958610D02*
Y1960610D01*
X1277528Y1958610D02*
Y1960610D01*
X1546114Y1591402D02*
X1548114D01*
X1546114Y1602902D02*
X1548114D01*
X1379474Y1699768D02*
X1404874D01*
X1379474Y1852168D02*
X1404874D01*
Y1699768D02*
Y1852168D01*
X1379474Y1699768D02*
Y1852168D01*
X1531890Y1725006D02*
X1533890D01*
X1531890Y1736506D02*
X1533890D01*
X1393152Y2188976D02*
X1546402D01*
X1393152Y1985776D02*
Y2188976D01*
Y1985776D02*
X1546402D01*
Y2188976D01*
X1847938Y1987804D02*
Y2191004D01*
X1694688Y1987804D02*
X1847938D01*
X1694688D02*
Y2191004D01*
X1847938D01*
X1353379Y1918465D02*
Y1920465D01*
X1341879Y1918465D02*
Y1920465D01*
X1280760Y2024794D02*
Y2026794D01*
X1292260Y2024794D02*
Y2026794D01*
X1259170Y2024396D02*
Y2026396D01*
X1270670Y2024396D02*
Y2026396D01*
X1317260Y2008216D02*
X1319260D01*
X1317260Y2019716D02*
X1319260D01*
X1274224Y1990690D02*
X1276224D01*
X1274224Y2002190D02*
X1276224D01*
X1317260Y2046316D02*
X1319260D01*
X1317260Y2057816D02*
X1319260D01*
X1316498Y2078066D02*
X1318498D01*
X1316498Y2089566D02*
X1318498D01*
X1861312Y2040128D02*
Y2141728D01*
X1886712Y2040128D02*
Y2141728D01*
X1861312D02*
X1886712D01*
X1861312Y2040128D02*
X1886712D01*
X1321562Y1506474D02*
X1346962D01*
X1321562Y1582674D02*
X1346962D01*
Y1506474D02*
Y1582674D01*
X1321562Y1506474D02*
Y1582674D01*
X1205102Y1533490D02*
X1207102D01*
X1205102Y1544990D02*
X1207102D01*
X1252220Y1409700D02*
X1404620D01*
X1252220Y1435100D02*
X1404620D01*
X1252220Y1409700D02*
Y1435100D01*
X1404620Y1409700D02*
Y1435100D01*
X1407938Y1564294D02*
X1409938D01*
X1407938Y1552794D02*
X1409938D01*
X1411494Y1532728D02*
X1413494D01*
X1411494Y1544228D02*
X1413494D01*
X1507506Y1758534D02*
X1509506D01*
X1507506Y1770034D02*
X1509506D01*
X1580404Y1591148D02*
X1582404D01*
X1580404Y1602648D02*
X1582404D01*
X1482106Y1608490D02*
X1484106D01*
X1482106Y1596990D02*
X1484106D01*
X1797558Y1615694D02*
X1873758D01*
X1797558Y1590294D02*
X1873758D01*
Y1615694D01*
X1797558Y1590294D02*
Y1615694D01*
X1595390Y1519336D02*
X1597390D01*
X1595390Y1507836D02*
X1597390D01*
X1887220Y1410716D02*
Y1563116D01*
X1861820Y1410716D02*
Y1563116D01*
Y1410716D02*
X1887220D01*
X1861820Y1563116D02*
X1887220D01*
X1815592Y1487170D02*
X1840992D01*
X1815592Y1410970D02*
X1840992D01*
X1815592D02*
Y1487170D01*
X1840992Y1410970D02*
Y1487170D01*
X1441212Y1424594D02*
X1443212D01*
X1441212Y1413094D02*
X1443212D01*
X1558798Y2037588D02*
X1584198D01*
X1558798Y2139188D02*
X1584198D01*
Y2037588D02*
Y2139188D01*
X1558798Y2037588D02*
Y2139188D01*
X1199296Y1770396D02*
Y1772396D01*
X1187796Y1770396D02*
Y1772396D01*
X1313342Y1756680D02*
Y1758680D01*
X1301842Y1756680D02*
Y1758680D01*
X1655572Y1617218D02*
X1782572D01*
X1655572Y1591818D02*
X1782572D01*
Y1617218D01*
X1655572Y1591818D02*
Y1617218D01*
X1699768Y1486408D02*
X1725168D01*
X1699768Y1410208D02*
X1725168D01*
X1699768D02*
Y1486408D01*
X1725168Y1410208D02*
Y1486408D01*
X1771650Y1413764D02*
Y1515364D01*
X1797050Y1413764D02*
Y1515364D01*
X1771650D02*
X1797050D01*
X1771650Y1413764D02*
X1797050D01*
X1598438Y1560922D02*
X1600438D01*
X1598438Y1572422D02*
X1600438D01*
X1450248Y1936114D02*
Y1938114D01*
X1438748Y1936114D02*
Y1938114D01*
X1404526Y1942938D02*
X1406526D01*
X1404526Y1954438D02*
X1406526D01*
X1276764Y1889344D02*
X1278764D01*
X1276764Y1900844D02*
X1278764D01*
X1276002Y1865722D02*
X1278002D01*
X1276002Y1877222D02*
X1278002D01*
X1276112Y1843370D02*
X1278112D01*
X1276112Y1854870D02*
X1278112D01*
X1262904Y1581496D02*
X1264904D01*
X1262904Y1592996D02*
X1264904D01*
X1293206Y1584722D02*
Y1586722D01*
X1304706Y1584722D02*
Y1586722D01*
X1556020Y1770796D02*
X1558020D01*
X1556020Y1759296D02*
X1558020D01*
X1355426Y1951078D02*
X1357426D01*
X1355426Y1939578D02*
X1357426D01*
X1362112Y1918289D02*
Y1920289D01*
X1373612Y1918289D02*
Y1920289D01*
X1406050Y1882740D02*
X1408050D01*
X1406050Y1894240D02*
X1408050D01*
X1206660Y1673952D02*
X1208660D01*
X1206660Y1685452D02*
X1208660D01*
X1201182Y1699098D02*
X1203182D01*
X1201182Y1710598D02*
X1203182D01*
X1449924Y1584214D02*
Y1586214D01*
X1461424Y1584214D02*
Y1586214D01*
X1208294Y1665894D02*
X1210294D01*
X1208294Y1654394D02*
X1210294D01*
X1612554Y1454928D02*
Y1456928D01*
X1601054Y1454928D02*
Y1456928D01*
X1592234Y1455182D02*
Y1457182D01*
X1580734Y1455182D02*
Y1457182D01*
X1204376Y1633600D02*
Y1635600D01*
X1192876Y1633600D02*
Y1635600D01*
X1598184Y1531712D02*
X1600184D01*
X1598184Y1543212D02*
X1600184D01*
X1607980Y2092798D02*
X1609980D01*
X1607980Y2104298D02*
X1609980D01*
X1880524Y2011442D02*
Y2013442D01*
X1869024Y2011442D02*
Y2013442D01*
X1341026Y1493174D02*
X1343026D01*
X1341026Y1481674D02*
X1343026D01*
X1606710Y2052412D02*
X1608710D01*
X1606710Y2063912D02*
X1608710D01*
X1606710Y2008216D02*
X1608710D01*
X1606710Y2019716D02*
X1608710D01*
X1577502Y2006108D02*
Y2008108D01*
X1566002Y2006108D02*
Y2008108D01*
X1212688Y1633744D02*
Y1635744D01*
X1224188Y1633744D02*
Y1635744D01*
D11*
X1238377Y1633347D02*
G03*
X1238377Y1633347I-1270J0D01*
G01*
X1253871Y1644777D02*
Y1714119D01*
X1293241D01*
Y1644777D02*
Y1714119D01*
X1253871Y1644777D02*
X1293241D01*
D12*
X1293452Y1507524D02*
G03*
X1293452Y1507524I-17500J0D01*
G01*
X1221824Y1471134D02*
G03*
X1221824Y1471134I-17500J0D01*
G01*
X1454870Y1554044D02*
G03*
X1454870Y1554044I-1000J0D01*
G01*
X1455284Y1553044D02*
G03*
X1455284Y1553044I-1414J0D01*
G01*
X1454870D02*
G03*
X1454870Y1553044I-1000J0D01*
G01*
X1455284D02*
G03*
X1455284Y1553044I-1414J0D01*
G01*
X1456106D02*
G03*
X1456106Y1553044I-2236J0D01*
G01*
X1456698D02*
G03*
X1456698Y1553044I-2828J0D01*
G01*
X1468870Y1529044D02*
G03*
X1468870Y1529044I-1000J0D01*
G01*
X1470106Y1528044D02*
G03*
X1470106Y1528044I-2236J0D01*
G01*
X1469284D02*
G03*
X1469284Y1528044I-1414J0D01*
G01*
X1471476D02*
G03*
X1471476Y1528044I-3605J0D01*
G01*
X1470698D02*
G03*
X1470698Y1528044I-2828J0D01*
G01*
X1472113D02*
G03*
X1472113Y1528044I-4243J0D01*
G01*
X1472870D02*
G03*
X1472870Y1528044I-5000J0D01*
G01*
X1473527D02*
G03*
X1473527Y1528044I-5657J0D01*
G01*
X1473701D02*
G03*
X1473701Y1528044I-5831J0D01*
G01*
X1172358Y2074996D02*
X1248358D01*
X1172358Y1974996D02*
X1248358D01*
X1172358D02*
Y2074996D01*
X1248358Y1974996D02*
Y2074996D01*
X1305949Y1477501D02*
Y1537445D01*
X1245980Y1477501D02*
X1305949D01*
X1245980D02*
Y1537521D01*
X1305924D01*
X1174352Y1501131D02*
X1234296D01*
X1174352Y1441111D02*
Y1501131D01*
Y1441111D02*
X1234321D01*
Y1501055D01*
X1453870Y1541044D02*
X1545870D01*
Y1449044D02*
Y1541044D01*
X1453870Y1449044D02*
X1545870D01*
X1453870D02*
Y1541044D01*
X1234212Y1790226D02*
Y1802626D01*
X1269212D01*
X1234212Y1737626D02*
Y1750026D01*
Y1737626D02*
X1269212D01*
X1340778Y1463366D02*
X1342478D01*
X1340778Y1472366D02*
X1342478D01*
X1394550Y1935940D02*
X1412150D01*
X1394550Y1904540D02*
X1412150D01*
X1247342Y1826406D02*
Y1926406D01*
X1171342Y1826406D02*
Y1926406D01*
Y1826406D02*
X1247342D01*
X1171342Y1926406D02*
X1247342D01*
D14*
X1631524Y1523205D02*
Y1519207D01*
X1633523D01*
X1634189Y1519873D01*
Y1521206D01*
X1633523Y1521872D01*
X1631524D01*
X1632856D02*
X1634189Y1523205D01*
X1635522D02*
X1636855D01*
X1636189D01*
Y1519207D01*
X1635522Y1519873D01*
X1641520Y1519207D02*
X1638855D01*
Y1521206D01*
X1640188Y1520540D01*
X1640854D01*
X1641520Y1521206D01*
Y1522539D01*
X1640854Y1523205D01*
X1639521D01*
X1638855Y1522539D01*
X1743486Y1488583D02*
Y1492581D01*
X1741487D01*
X1740820Y1491915D01*
Y1490582D01*
X1741487Y1489915D01*
X1743486D01*
X1742153D02*
X1740820Y1488583D01*
X1739488Y1491915D02*
X1738821Y1492581D01*
X1737488D01*
X1736822Y1491915D01*
Y1491248D01*
X1737488Y1490582D01*
X1736822Y1489915D01*
Y1489249D01*
X1737488Y1488583D01*
X1738821D01*
X1739488Y1489249D01*
Y1489915D01*
X1738821Y1490582D01*
X1739488Y1491248D01*
Y1491915D01*
X1738821Y1490582D02*
X1737488D01*
X1742216Y1445547D02*
Y1449545D01*
X1740217D01*
X1739550Y1448879D01*
Y1447546D01*
X1740217Y1446880D01*
X1742216D01*
X1740883D02*
X1739550Y1445547D01*
X1738218Y1446213D02*
X1737551Y1445547D01*
X1736218D01*
X1735552Y1446213D01*
Y1448879D01*
X1736218Y1449545D01*
X1737551D01*
X1738218Y1448879D01*
Y1448212D01*
X1737551Y1447546D01*
X1735552D01*
X1245870Y1963415D02*
X1244537D01*
X1245204D01*
Y1966747D01*
X1244537Y1967413D01*
X1243871D01*
X1243204Y1966747D01*
X1247203Y1967413D02*
X1248536D01*
X1247869D01*
Y1963415D01*
X1247203Y1964081D01*
X1266414Y1939511D02*
Y1935513D01*
X1268413D01*
X1269080Y1936179D01*
Y1937512D01*
X1268413Y1938178D01*
X1266414D01*
X1267747D02*
X1269080Y1939511D01*
X1273078D02*
X1270412D01*
X1273078Y1936846D01*
Y1936179D01*
X1272412Y1935513D01*
X1271079D01*
X1270412Y1936179D01*
X1548939Y1586293D02*
X1549605Y1586959D01*
X1550938D01*
X1551604Y1586293D01*
Y1583627D01*
X1550938Y1582961D01*
X1549605D01*
X1548939Y1583627D01*
X1547606Y1582961D02*
X1546273D01*
X1546939D01*
Y1586959D01*
X1547606Y1586293D01*
X1541608Y1582961D02*
X1544273D01*
X1541608Y1585627D01*
Y1586293D01*
X1542274Y1586959D01*
X1543607D01*
X1544273Y1586293D01*
X1395777Y1862549D02*
X1397110D01*
X1396443D01*
Y1859217D01*
X1397110Y1858551D01*
X1397776D01*
X1398442Y1859217D01*
X1394444Y1858551D02*
X1393111D01*
X1393777D01*
Y1862549D01*
X1394444Y1861883D01*
X1388446Y1858551D02*
X1391111D01*
X1388446Y1861216D01*
Y1861883D01*
X1389112Y1862549D01*
X1390445D01*
X1391111Y1861883D01*
X1388509Y2047344D02*
Y2051343D01*
X1387176Y2050010D01*
X1385843Y2051343D01*
Y2047344D01*
X1381844Y2050676D02*
X1382511Y2051343D01*
X1383844D01*
X1384510Y2050676D01*
Y2050010D01*
X1383844Y2049343D01*
X1382511D01*
X1381844Y2048677D01*
Y2048010D01*
X1382511Y2047344D01*
X1383844D01*
X1384510Y2048010D01*
X1377846Y2047344D02*
X1380512D01*
X1377846Y2050010D01*
Y2050676D01*
X1378512Y2051343D01*
X1379845D01*
X1380512Y2050676D01*
X1388255Y2071982D02*
Y2075981D01*
X1386922Y2074648D01*
X1385589Y2075981D01*
Y2071982D01*
X1381591Y2075314D02*
X1382257Y2075981D01*
X1383590D01*
X1384256Y2075314D01*
Y2074648D01*
X1383590Y2073981D01*
X1382257D01*
X1381591Y2073315D01*
Y2072648D01*
X1382257Y2071982D01*
X1383590D01*
X1384256Y2072648D01*
X1380258Y2075314D02*
X1379591Y2075981D01*
X1378258D01*
X1377592Y2075314D01*
Y2074648D01*
X1378258Y2073981D01*
X1378925D01*
X1378258D01*
X1377592Y2073315D01*
Y2072648D01*
X1378258Y2071982D01*
X1379591D01*
X1380258Y2072648D01*
X1389017Y2020420D02*
Y2024419D01*
X1387684Y2023086D01*
X1386351Y2024419D01*
Y2020420D01*
X1382352Y2023752D02*
X1383019Y2024419D01*
X1384352D01*
X1385018Y2023752D01*
Y2023086D01*
X1384352Y2022419D01*
X1383019D01*
X1382352Y2021753D01*
Y2021086D01*
X1383019Y2020420D01*
X1384352D01*
X1385018Y2021086D01*
X1381020Y2020420D02*
X1379687D01*
X1380353D01*
Y2024419D01*
X1381020Y2023752D01*
X1389017Y1992988D02*
Y1996987D01*
X1386351Y1992988D01*
Y1996987D01*
X1382352D02*
X1385018D01*
Y1992988D01*
X1382352D01*
X1385018Y1994987D02*
X1383685D01*
X1381020Y1992988D02*
Y1996987D01*
X1378354Y1992988D01*
Y1996987D01*
X1377021Y1992988D02*
Y1995654D01*
X1375688Y1996987D01*
X1374355Y1995654D01*
Y1992988D01*
Y1994987D01*
X1377021D01*
X1373022Y1996987D02*
Y1992988D01*
X1371023D01*
X1370356Y1993654D01*
Y1994321D01*
X1371023Y1994987D01*
X1373022D01*
X1371023D01*
X1370356Y1995654D01*
Y1996320D01*
X1371023Y1996987D01*
X1373022D01*
X1388255Y2123036D02*
Y2127035D01*
X1385589Y2123036D01*
Y2127035D01*
X1381591Y2126368D02*
X1382257Y2127035D01*
X1383590D01*
X1384256Y2126368D01*
Y2125702D01*
X1383590Y2125035D01*
X1382257D01*
X1381591Y2124369D01*
Y2123702D01*
X1382257Y2123036D01*
X1383590D01*
X1384256Y2123702D01*
X1380258Y2127035D02*
Y2123036D01*
X1377592D01*
X1376259D02*
Y2127035D01*
X1374259D01*
X1373593Y2126368D01*
Y2125035D01*
X1374259Y2124369D01*
X1376259D01*
X1388001Y2097382D02*
Y2101381D01*
X1385335Y2097382D01*
Y2101381D01*
X1384002Y2097382D02*
Y2101381D01*
X1382003D01*
X1381337Y2100714D01*
Y2099381D01*
X1382003Y2098715D01*
X1384002D01*
X1382669D02*
X1381337Y2097382D01*
X1377338Y2100714D02*
X1378004Y2101381D01*
X1379337D01*
X1380004Y2100714D01*
Y2100048D01*
X1379337Y2099381D01*
X1378004D01*
X1377338Y2098715D01*
Y2098048D01*
X1378004Y2097382D01*
X1379337D01*
X1380004Y2098048D01*
X1376005Y2101381D02*
X1373339D01*
X1374672D01*
Y2097382D01*
X1385843Y2151260D02*
X1386510Y2151927D01*
X1387843D01*
X1388509Y2151260D01*
Y2150594D01*
X1387843Y2149927D01*
X1386510D01*
X1385843Y2149261D01*
Y2148594D01*
X1386510Y2147928D01*
X1387843D01*
X1388509Y2148594D01*
X1384510Y2151927D02*
X1381844D01*
X1383177D01*
Y2147928D01*
X1377846Y2151927D02*
X1380512D01*
Y2147928D01*
X1377846D01*
X1380512Y2149927D02*
X1379179D01*
X1376513Y2147928D02*
Y2151927D01*
X1374514D01*
X1373847Y2151260D01*
Y2149927D01*
X1374514Y2149261D01*
X1376513D01*
X1388763Y2177835D02*
Y2173836D01*
X1386764D01*
X1386097Y2174502D01*
Y2177168D01*
X1386764Y2177835D01*
X1388763D01*
X1384764D02*
X1383431D01*
X1384098D01*
Y2173836D01*
X1384764D01*
X1383431D01*
X1381432D02*
Y2177835D01*
X1379433D01*
X1378766Y2177168D01*
Y2175835D01*
X1379433Y2175169D01*
X1381432D01*
X1380099D02*
X1378766Y2173836D01*
X1509920Y2046970D02*
X1512586D01*
X1509920Y2049636D01*
Y2050302D01*
X1510587Y2050969D01*
X1511920D01*
X1512586Y2050302D01*
X1508587Y2050969D02*
Y2046970D01*
X1506588D01*
X1505921Y2047636D01*
Y2048303D01*
X1506588Y2048969D01*
X1508587D01*
X1506588D01*
X1505921Y2049636D01*
Y2050302D01*
X1506588Y2050969D01*
X1508587D01*
X1509666Y2072116D02*
X1512332D01*
X1509666Y2074782D01*
Y2075448D01*
X1510333Y2076115D01*
X1511666D01*
X1512332Y2075448D01*
X1508333Y2072116D02*
Y2074782D01*
X1507000Y2076115D01*
X1505668Y2074782D01*
Y2072116D01*
Y2074115D01*
X1508333D01*
X1512332Y2123170D02*
X1510999D01*
X1511666D01*
Y2127169D01*
X1512332Y2126502D01*
X1509000Y2127169D02*
Y2123170D01*
X1507000D01*
X1506334Y2123836D01*
Y2124503D01*
X1507000Y2125169D01*
X1509000D01*
X1507000D01*
X1506334Y2125836D01*
Y2126502D01*
X1507000Y2127169D01*
X1509000D01*
X1511824Y2097516D02*
X1510491D01*
X1511158D01*
Y2101515D01*
X1511824Y2100848D01*
X1508492Y2097516D02*
Y2100182D01*
X1507159Y2101515D01*
X1505826Y2100182D01*
Y2097516D01*
Y2099515D01*
X1508492D01*
X1861202Y2179842D02*
X1861869Y2180509D01*
X1863202D01*
X1863868Y2179842D01*
Y2177176D01*
X1863202Y2176510D01*
X1861869D01*
X1861202Y2177176D01*
Y2178509D01*
X1862535D01*
X1859869Y2176510D02*
Y2180509D01*
X1857204Y2176510D01*
Y2180509D01*
X1855871D02*
Y2176510D01*
X1853871D01*
X1853205Y2177176D01*
Y2179842D01*
X1853871Y2180509D01*
X1855871D01*
X1864630Y2024364D02*
Y2028363D01*
X1862631D01*
X1861964Y2027696D01*
Y2026363D01*
X1862631Y2025697D01*
X1864630D01*
X1857966Y2027696D02*
X1858632Y2028363D01*
X1859965D01*
X1860631Y2027696D01*
Y2025030D01*
X1859965Y2024364D01*
X1858632D01*
X1857966Y2025030D01*
Y2026363D01*
X1859298D01*
X1856633Y2024364D02*
Y2028363D01*
X1853967Y2024364D01*
Y2028363D01*
X1852634D02*
Y2024364D01*
X1850635D01*
X1849968Y2025030D01*
Y2027696D01*
X1850635Y2028363D01*
X1852634D01*
X1868440Y2152569D02*
Y2149903D01*
X1867107Y2148570D01*
X1865774Y2149903D01*
Y2152569D01*
X1864441D02*
Y2148570D01*
X1862442D01*
X1861776Y2149236D01*
Y2151902D01*
X1862442Y2152569D01*
X1864441D01*
X1860443D02*
Y2148570D01*
X1858443D01*
X1857777Y2149236D01*
Y2151902D01*
X1858443Y2152569D01*
X1860443D01*
X1688228Y2154696D02*
X1688895Y2155363D01*
X1690228D01*
X1690894Y2154696D01*
Y2154030D01*
X1690228Y2153363D01*
X1688895D01*
X1688228Y2152697D01*
Y2152030D01*
X1688895Y2151364D01*
X1690228D01*
X1690894Y2152030D01*
X1686895Y2155363D02*
X1684229D01*
X1685562D01*
Y2151364D01*
X1680231Y2155363D02*
X1682897D01*
Y2151364D01*
X1680231D01*
X1682897Y2153363D02*
X1681564D01*
X1678898Y2151364D02*
Y2155363D01*
X1676899D01*
X1676232Y2154696D01*
Y2153363D01*
X1676899Y2152697D01*
X1678898D01*
X1690386Y2125964D02*
Y2129963D01*
X1687720Y2125964D01*
Y2129963D01*
X1683721Y2129296D02*
X1684388Y2129963D01*
X1685721D01*
X1686387Y2129296D01*
Y2128630D01*
X1685721Y2127963D01*
X1684388D01*
X1683721Y2127297D01*
Y2126630D01*
X1684388Y2125964D01*
X1685721D01*
X1686387Y2126630D01*
X1682389Y2129963D02*
Y2125964D01*
X1679723D01*
X1678390D02*
Y2129963D01*
X1676391D01*
X1675724Y2129296D01*
Y2127963D01*
X1676391Y2127297D01*
X1678390D01*
X1689878Y2100564D02*
Y2104563D01*
X1687212Y2100564D01*
Y2104563D01*
X1685879Y2100564D02*
Y2104563D01*
X1683880D01*
X1683214Y2103896D01*
Y2102563D01*
X1683880Y2101897D01*
X1685879D01*
X1684546D02*
X1683214Y2100564D01*
X1679215Y2103896D02*
X1679881Y2104563D01*
X1681214D01*
X1681881Y2103896D01*
Y2103230D01*
X1681214Y2102563D01*
X1679881D01*
X1679215Y2101897D01*
Y2101230D01*
X1679881Y2100564D01*
X1681214D01*
X1681881Y2101230D01*
X1677882Y2104563D02*
X1675216D01*
X1676549D01*
Y2100564D01*
X1689624Y2074910D02*
Y2078909D01*
X1688291Y2077576D01*
X1686958Y2078909D01*
Y2074910D01*
X1682959Y2078242D02*
X1683626Y2078909D01*
X1684959D01*
X1685625Y2078242D01*
Y2077576D01*
X1684959Y2076909D01*
X1683626D01*
X1682959Y2076243D01*
Y2075576D01*
X1683626Y2074910D01*
X1684959D01*
X1685625Y2075576D01*
X1681627Y2078242D02*
X1680960Y2078909D01*
X1679627D01*
X1678961Y2078242D01*
Y2077576D01*
X1679627Y2076909D01*
X1680294D01*
X1679627D01*
X1678961Y2076243D01*
Y2075576D01*
X1679627Y2074910D01*
X1680960D01*
X1681627Y2075576D01*
X1690132Y2049002D02*
Y2053001D01*
X1688799Y2051668D01*
X1687466Y2053001D01*
Y2049002D01*
X1683468Y2052334D02*
X1684134Y2053001D01*
X1685467D01*
X1686133Y2052334D01*
Y2051668D01*
X1685467Y2051001D01*
X1684134D01*
X1683468Y2050335D01*
Y2049668D01*
X1684134Y2049002D01*
X1685467D01*
X1686133Y2049668D01*
X1679469Y2049002D02*
X1682135D01*
X1679469Y2051668D01*
Y2052334D01*
X1680135Y2053001D01*
X1681468D01*
X1682135Y2052334D01*
X1691188Y2022118D02*
Y2026117D01*
X1689855Y2024784D01*
X1688522Y2026117D01*
Y2022118D01*
X1684523Y2025450D02*
X1685190Y2026117D01*
X1686523D01*
X1687189Y2025450D01*
Y2024784D01*
X1686523Y2024117D01*
X1685190D01*
X1684523Y2023451D01*
Y2022784D01*
X1685190Y2022118D01*
X1686523D01*
X1687189Y2022784D01*
X1683191Y2022118D02*
X1681858D01*
X1682524D01*
Y2026117D01*
X1683191Y2025450D01*
X1691402Y1997948D02*
Y2001947D01*
X1688736Y1997948D01*
Y2001947D01*
X1684738D02*
X1687403D01*
Y1997948D01*
X1684738D01*
X1687403Y1999947D02*
X1686070D01*
X1683405Y1997948D02*
Y2001947D01*
X1680739Y1997948D01*
Y2001947D01*
X1679406Y1997948D02*
Y2000614D01*
X1678073Y2001947D01*
X1676740Y2000614D01*
Y1997948D01*
Y1999947D01*
X1679406D01*
X1675407Y2001947D02*
Y1997948D01*
X1673408D01*
X1672741Y1998614D01*
Y1999281D01*
X1673408Y1999947D01*
X1675407D01*
X1673408D01*
X1672741Y2000614D01*
Y2001280D01*
X1673408Y2001947D01*
X1675407D01*
X1689370Y2179747D02*
Y2175748D01*
X1687371D01*
X1686704Y2176414D01*
Y2179080D01*
X1687371Y2179747D01*
X1689370D01*
X1685371D02*
X1684038D01*
X1684705D01*
Y2175748D01*
X1685371D01*
X1684038D01*
X1682039D02*
Y2179747D01*
X1680040D01*
X1679373Y2179080D01*
Y2177747D01*
X1680040Y2177081D01*
X1682039D01*
X1680706D02*
X1679373Y2175748D01*
X1857518Y2125456D02*
X1856185D01*
X1856852D01*
Y2129455D01*
X1857518Y2128788D01*
X1854186Y2129455D02*
Y2125456D01*
X1852186D01*
X1851520Y2126122D01*
Y2126789D01*
X1852186Y2127455D01*
X1854186D01*
X1852186D01*
X1851520Y2128122D01*
Y2128788D01*
X1852186Y2129455D01*
X1854186D01*
X1857772Y2100056D02*
X1856439D01*
X1857106D01*
Y2104055D01*
X1857772Y2103388D01*
X1854440Y2100056D02*
Y2102722D01*
X1853107Y2104055D01*
X1851774Y2102722D01*
Y2100056D01*
Y2102055D01*
X1854440D01*
X1855614Y2075164D02*
X1858280D01*
X1855614Y2077830D01*
Y2078496D01*
X1856281Y2079163D01*
X1857614D01*
X1858280Y2078496D01*
X1854281Y2075164D02*
Y2077830D01*
X1852948Y2079163D01*
X1851615Y2077830D01*
Y2075164D01*
Y2077163D01*
X1854281D01*
X1855360Y2049764D02*
X1858026D01*
X1855360Y2052430D01*
Y2053096D01*
X1856027Y2053763D01*
X1857360D01*
X1858026Y2053096D01*
X1854027Y2053763D02*
Y2049764D01*
X1852028D01*
X1851362Y2050430D01*
Y2051097D01*
X1852028Y2051763D01*
X1854027D01*
X1852028D01*
X1851362Y2052430D01*
Y2053096D01*
X1852028Y2053763D01*
X1854027D01*
X1864274Y2000941D02*
Y1998275D01*
X1862941Y1996942D01*
X1861608Y1998275D01*
Y2000941D01*
X1860275Y1996942D02*
Y2000941D01*
X1858942Y1999608D01*
X1857610Y2000941D01*
Y1996942D01*
X1854277Y2000941D02*
X1855610D01*
X1856277Y2000274D01*
Y1997608D01*
X1855610Y1996942D01*
X1854277D01*
X1853611Y1997608D01*
Y2000274D01*
X1854277Y2000941D01*
X1852278D02*
X1849612D01*
X1850945D01*
Y1996942D01*
X1524524Y1999407D02*
Y1996741D01*
X1523191Y1995408D01*
X1521858Y1996741D01*
Y1999407D01*
X1520525Y1995408D02*
Y1999407D01*
X1519192Y1998074D01*
X1517859Y1999407D01*
Y1995408D01*
X1514527Y1999407D02*
X1515860D01*
X1516527Y1998740D01*
Y1996074D01*
X1515860Y1995408D01*
X1514527D01*
X1513861Y1996074D01*
Y1998740D01*
X1514527Y1999407D01*
X1512528D02*
X1509862D01*
X1511195D01*
Y1995408D01*
X1517920Y2151299D02*
Y2148633D01*
X1516587Y2147300D01*
X1515254Y2148633D01*
Y2151299D01*
X1513921D02*
Y2147300D01*
X1511922D01*
X1511255Y2147966D01*
Y2150632D01*
X1511922Y2151299D01*
X1513921D01*
X1509923D02*
Y2147300D01*
X1507923D01*
X1507257Y2147966D01*
Y2150632D01*
X1507923Y2151299D01*
X1509923D01*
X1523254Y2020300D02*
Y2024299D01*
X1521255D01*
X1520588Y2023632D01*
Y2022299D01*
X1521255Y2021633D01*
X1523254D01*
X1516590Y2023632D02*
X1517256Y2024299D01*
X1518589D01*
X1519255Y2023632D01*
Y2020966D01*
X1518589Y2020300D01*
X1517256D01*
X1516590Y2020966D01*
Y2022299D01*
X1517922D01*
X1515257Y2020300D02*
Y2024299D01*
X1512591Y2020300D01*
Y2024299D01*
X1511258D02*
Y2020300D01*
X1509259D01*
X1508592Y2020966D01*
Y2023632D01*
X1509259Y2024299D01*
X1511258D01*
X1516016Y2177810D02*
X1516683Y2178477D01*
X1518016D01*
X1518682Y2177810D01*
Y2175144D01*
X1518016Y2174478D01*
X1516683D01*
X1516016Y2175144D01*
Y2176477D01*
X1517349D01*
X1514683Y2174478D02*
Y2178477D01*
X1512018Y2174478D01*
Y2178477D01*
X1510685D02*
Y2174478D01*
X1508685D01*
X1508019Y2175144D01*
Y2177810D01*
X1508685Y2178477D01*
X1510685D01*
X1614154Y1508744D02*
X1616820D01*
Y1510743D01*
X1616153Y1511410D01*
X1614154D01*
Y1512743D02*
X1614820D01*
Y1513409D01*
X1614154D01*
Y1512743D01*
Y1516075D02*
X1616820D01*
Y1516741D01*
X1616153Y1517408D01*
X1614154D01*
X1616153D01*
X1616820Y1518074D01*
X1616153Y1518741D01*
X1614154D01*
Y1520074D02*
X1614820D01*
Y1520740D01*
X1614154D01*
Y1520074D01*
X1653535Y2086244D02*
X1654202Y2086911D01*
X1655535D01*
X1656201Y2086244D01*
Y2085578D01*
X1655535Y2084911D01*
X1654202D01*
X1653535Y2084245D01*
Y2083578D01*
X1654202Y2082912D01*
X1655535D01*
X1656201Y2083578D01*
X1652202Y2086911D02*
Y2082912D01*
X1650203D01*
X1649536Y2083578D01*
Y2084245D01*
X1650203Y2084911D01*
X1652202D01*
X1650203D01*
X1649536Y2085578D01*
Y2086244D01*
X1650203Y2086911D01*
X1652202D01*
X1648204Y2086244D02*
X1647537Y2086911D01*
X1646204D01*
X1645538Y2086244D01*
Y2085578D01*
X1646204Y2084911D01*
X1646871D01*
X1646204D01*
X1645538Y2084245D01*
Y2083578D01*
X1646204Y2082912D01*
X1647537D01*
X1648204Y2083578D01*
X1644205Y2082245D02*
X1641539D01*
X1640206Y2082912D02*
Y2086911D01*
X1638873Y2085578D01*
X1637540Y2086911D01*
Y2082912D01*
X1636207Y2086911D02*
Y2082912D01*
X1634208D01*
X1633542Y2083578D01*
Y2086244D01*
X1634208Y2086911D01*
X1636207D01*
X1629543Y2082912D02*
X1632209D01*
X1629543Y2085578D01*
Y2086244D01*
X1630209Y2086911D01*
X1631542D01*
X1632209Y2086244D01*
X1356705Y2069988D02*
X1357371Y2070655D01*
X1358704D01*
X1359371Y2069988D01*
Y2069322D01*
X1358704Y2068655D01*
X1357371D01*
X1356705Y2067989D01*
Y2067322D01*
X1357371Y2066656D01*
X1358704D01*
X1359371Y2067322D01*
X1355372Y2070655D02*
Y2066656D01*
X1353372D01*
X1352706Y2067322D01*
Y2067989D01*
X1353372Y2068655D01*
X1355372D01*
X1353372D01*
X1352706Y2069322D01*
Y2069988D01*
X1353372Y2070655D01*
X1355372D01*
X1351373Y2069988D02*
X1350707Y2070655D01*
X1349374D01*
X1348707Y2069988D01*
Y2069322D01*
X1349374Y2068655D01*
X1350040D01*
X1349374D01*
X1348707Y2067989D01*
Y2067322D01*
X1349374Y2066656D01*
X1350707D01*
X1351373Y2067322D01*
X1347374Y2065989D02*
X1344709D01*
X1343376Y2066656D02*
Y2070655D01*
X1342043Y2069322D01*
X1340710Y2070655D01*
Y2066656D01*
X1339377Y2070655D02*
Y2066656D01*
X1337378D01*
X1336711Y2067322D01*
Y2069988D01*
X1337378Y2070655D01*
X1339377D01*
X1335378Y2066656D02*
X1334046D01*
X1334712D01*
Y2070655D01*
X1335378Y2069988D01*
X1655313Y2044842D02*
X1655980Y2045509D01*
X1657312D01*
X1657979Y2044842D01*
Y2044176D01*
X1657312Y2043509D01*
X1655980D01*
X1655313Y2042843D01*
Y2042176D01*
X1655980Y2041510D01*
X1657312D01*
X1657979Y2042176D01*
X1653980Y2045509D02*
Y2041510D01*
X1651981D01*
X1651315Y2042176D01*
Y2042843D01*
X1651981Y2043509D01*
X1653980D01*
X1651981D01*
X1651315Y2044176D01*
Y2044842D01*
X1651981Y2045509D01*
X1653980D01*
X1647316Y2041510D02*
X1649982D01*
X1647316Y2044176D01*
Y2044842D01*
X1647982Y2045509D01*
X1649315D01*
X1649982Y2044842D01*
X1645983Y2040843D02*
X1643317D01*
X1641984Y2041510D02*
Y2045509D01*
X1640651Y2044176D01*
X1639318Y2045509D01*
Y2041510D01*
X1637986Y2045509D02*
Y2041510D01*
X1635986D01*
X1635320Y2042176D01*
Y2044842D01*
X1635986Y2045509D01*
X1637986D01*
X1631321Y2041510D02*
X1633987D01*
X1631321Y2044176D01*
Y2044842D01*
X1631987Y2045509D01*
X1633320D01*
X1633987Y2044842D01*
X1356197Y2037730D02*
X1356863Y2038397D01*
X1358196D01*
X1358862Y2037730D01*
Y2037064D01*
X1358196Y2036397D01*
X1356863D01*
X1356197Y2035731D01*
Y2035064D01*
X1356863Y2034398D01*
X1358196D01*
X1358862Y2035064D01*
X1354864Y2038397D02*
Y2034398D01*
X1352865D01*
X1352198Y2035064D01*
Y2035731D01*
X1352865Y2036397D01*
X1354864D01*
X1352865D01*
X1352198Y2037064D01*
Y2037730D01*
X1352865Y2038397D01*
X1354864D01*
X1348199Y2034398D02*
X1350865D01*
X1348199Y2037064D01*
Y2037730D01*
X1348866Y2038397D01*
X1350199D01*
X1350865Y2037730D01*
X1346866Y2033731D02*
X1344201D01*
X1342868Y2034398D02*
Y2038397D01*
X1341535Y2037064D01*
X1340202Y2038397D01*
Y2034398D01*
X1338869Y2038397D02*
Y2034398D01*
X1336870D01*
X1336203Y2035064D01*
Y2037730D01*
X1336870Y2038397D01*
X1338869D01*
X1334870Y2034398D02*
X1333537D01*
X1334204D01*
Y2038397D01*
X1334870Y2037730D01*
X1653456Y2000646D02*
X1654122Y2001313D01*
X1655455D01*
X1656122Y2000646D01*
Y1999980D01*
X1655455Y1999313D01*
X1654122D01*
X1653456Y1998647D01*
Y1997980D01*
X1654122Y1997314D01*
X1655455D01*
X1656122Y1997980D01*
X1652123Y2001313D02*
Y1997314D01*
X1650124D01*
X1649457Y1997980D01*
Y1998647D01*
X1650124Y1999313D01*
X1652123D01*
X1650124D01*
X1649457Y1999980D01*
Y2000646D01*
X1650124Y2001313D01*
X1652123D01*
X1648124Y1997314D02*
X1646792D01*
X1647458D01*
Y2001313D01*
X1648124Y2000646D01*
X1644792Y1996647D02*
X1642126D01*
X1640793Y1997314D02*
Y2001313D01*
X1639460Y1999980D01*
X1638128Y2001313D01*
Y1997314D01*
X1636795Y2001313D02*
Y1997314D01*
X1634795D01*
X1634129Y1997980D01*
Y2000646D01*
X1634795Y2001313D01*
X1636795D01*
X1630130Y1997314D02*
X1632796D01*
X1630130Y1999980D01*
Y2000646D01*
X1630797Y2001313D01*
X1632130D01*
X1632796Y2000646D01*
X1356879Y1997598D02*
X1357546Y1998265D01*
X1358879D01*
X1359545Y1997598D01*
Y1996932D01*
X1358879Y1996265D01*
X1357546D01*
X1356879Y1995599D01*
Y1994932D01*
X1357546Y1994266D01*
X1358879D01*
X1359545Y1994932D01*
X1355547Y1998265D02*
Y1994266D01*
X1353547D01*
X1352881Y1994932D01*
Y1995599D01*
X1353547Y1996265D01*
X1355547D01*
X1353547D01*
X1352881Y1996932D01*
Y1997598D01*
X1353547Y1998265D01*
X1355547D01*
X1351548Y1994266D02*
X1350215D01*
X1350882D01*
Y1998265D01*
X1351548Y1997598D01*
X1348216Y1993599D02*
X1345550D01*
X1344217Y1994266D02*
Y1998265D01*
X1342884Y1996932D01*
X1341551Y1998265D01*
Y1994266D01*
X1340218Y1998265D02*
Y1994266D01*
X1338219D01*
X1337552Y1994932D01*
Y1997598D01*
X1338219Y1998265D01*
X1340218D01*
X1336220Y1994266D02*
X1334887D01*
X1335553D01*
Y1998265D01*
X1336220Y1997598D01*
X1722532Y1495265D02*
X1723865D01*
X1723199D01*
Y1491933D01*
X1723865Y1491267D01*
X1724532D01*
X1725198Y1491933D01*
X1718534Y1495265D02*
X1719867Y1494599D01*
X1721200Y1493266D01*
Y1491933D01*
X1720533Y1491267D01*
X1719200D01*
X1718534Y1491933D01*
Y1492600D01*
X1719200Y1493266D01*
X1721200D01*
X1288255Y2048827D02*
X1288922Y2049493D01*
X1290255D01*
X1290921Y2048827D01*
Y2046161D01*
X1290255Y2045495D01*
X1288922D01*
X1288255Y2046161D01*
X1286922Y2048827D02*
X1286256Y2049493D01*
X1284923D01*
X1284257Y2048827D01*
Y2048161D01*
X1284923Y2047494D01*
X1285590D01*
X1284923D01*
X1284257Y2046828D01*
Y2046161D01*
X1284923Y2045495D01*
X1286256D01*
X1286922Y2046161D01*
X1282924Y2045495D02*
X1281591D01*
X1282257D01*
Y2049493D01*
X1282924Y2048827D01*
X1266824Y2048065D02*
X1267490Y2048731D01*
X1268823D01*
X1269490Y2048065D01*
Y2045399D01*
X1268823Y2044733D01*
X1267490D01*
X1266824Y2045399D01*
X1265491Y2048065D02*
X1264824Y2048731D01*
X1263492D01*
X1262825Y2048065D01*
Y2047399D01*
X1263492Y2046732D01*
X1264158D01*
X1263492D01*
X1262825Y2046066D01*
Y2045399D01*
X1263492Y2044733D01*
X1264824D01*
X1265491Y2045399D01*
X1261492Y2048065D02*
X1260826Y2048731D01*
X1259493D01*
X1258826Y2048065D01*
Y2045399D01*
X1259493Y2044733D01*
X1260826D01*
X1261492Y2045399D01*
Y2048065D01*
X1296987Y1994028D02*
X1297653Y1993362D01*
Y1992029D01*
X1296987Y1991362D01*
X1294321D01*
X1293655Y1992029D01*
Y1993362D01*
X1294321Y1994028D01*
X1293655Y1998027D02*
Y1995361D01*
X1296320Y1998027D01*
X1296987D01*
X1297653Y1997361D01*
Y1996028D01*
X1296987Y1995361D01*
X1294321Y1999360D02*
X1293655Y2000026D01*
Y2001359D01*
X1294321Y2002026D01*
X1296987D01*
X1297653Y2001359D01*
Y2000026D01*
X1296987Y1999360D01*
X1296320D01*
X1295654Y2000026D01*
Y2002026D01*
X1277650Y1638775D02*
Y1635443D01*
X1276984Y1634777D01*
X1275651D01*
X1274984Y1635443D01*
Y1638775D01*
X1273652Y1638109D02*
X1272985Y1638775D01*
X1271652D01*
X1270986Y1638109D01*
Y1637442D01*
X1271652Y1636776D01*
X1272319D01*
X1271652D01*
X1270986Y1636110D01*
Y1635443D01*
X1271652Y1634777D01*
X1272985D01*
X1273652Y1635443D01*
X1178895Y1707039D02*
X1178229Y1707705D01*
Y1709038D01*
X1178895Y1709704D01*
X1181561D01*
X1182227Y1709038D01*
Y1707705D01*
X1181561Y1707039D01*
X1178895Y1705706D02*
X1178229Y1705039D01*
Y1703706D01*
X1178895Y1703040D01*
X1179561D01*
X1180228Y1703706D01*
X1180894Y1703040D01*
X1181561D01*
X1182227Y1703706D01*
Y1705039D01*
X1181561Y1705706D01*
X1180894D01*
X1180228Y1705039D01*
X1179561Y1705706D01*
X1178895D01*
X1180228Y1705039D02*
Y1703706D01*
X1184119Y1680876D02*
X1183453Y1681543D01*
Y1682876D01*
X1184119Y1683542D01*
X1186785D01*
X1187451Y1682876D01*
Y1681543D01*
X1186785Y1680876D01*
X1183453Y1679544D02*
Y1676878D01*
X1184119D01*
X1186785Y1679544D01*
X1187451D01*
X1199038Y1611041D02*
X1199705Y1611707D01*
X1201038D01*
X1201704Y1611041D01*
Y1608375D01*
X1201038Y1607709D01*
X1199705D01*
X1199038Y1608375D01*
X1195040Y1611707D02*
X1196373Y1611041D01*
X1197706Y1609708D01*
Y1608375D01*
X1197039Y1607709D01*
X1195706D01*
X1195040Y1608375D01*
Y1609042D01*
X1195706Y1609708D01*
X1197706D01*
X1811856Y1977248D02*
Y1981247D01*
X1809857D01*
X1809191Y1980580D01*
Y1979247D01*
X1809857Y1978581D01*
X1811856D01*
X1807858Y1977248D02*
X1806525D01*
X1807191D01*
Y1981247D01*
X1807858Y1980580D01*
X1804525Y1976581D02*
X1801860D01*
X1800527Y1977248D02*
Y1981247D01*
X1799194Y1979914D01*
X1797861Y1981247D01*
Y1977248D01*
X1796528Y1981247D02*
Y1977248D01*
X1794529D01*
X1793862Y1977914D01*
Y1980580D01*
X1794529Y1981247D01*
X1796528D01*
X1789864Y1977248D02*
X1792529D01*
X1789864Y1979914D01*
Y1980580D01*
X1790530Y1981247D01*
X1791863D01*
X1792529Y1980580D01*
X1501310Y1975470D02*
Y1979469D01*
X1499311D01*
X1498644Y1978802D01*
Y1977469D01*
X1499311Y1976803D01*
X1501310D01*
X1497311Y1975470D02*
X1495978D01*
X1496645D01*
Y1979469D01*
X1497311Y1978802D01*
X1493979Y1974803D02*
X1491313D01*
X1489980Y1975470D02*
Y1979469D01*
X1488647Y1978136D01*
X1487314Y1979469D01*
Y1975470D01*
X1485982Y1979469D02*
Y1975470D01*
X1483982D01*
X1483316Y1976136D01*
Y1978802D01*
X1483982Y1979469D01*
X1485982D01*
X1481983Y1975470D02*
X1480650D01*
X1481317D01*
Y1979469D01*
X1481983Y1978802D01*
X1508473Y1564768D02*
X1504475Y1567434D01*
X1508473D02*
X1504475Y1564768D01*
Y1568767D02*
Y1570100D01*
Y1569433D01*
X1508473D01*
X1507807Y1568767D01*
X1441988Y1560035D02*
Y1556703D01*
X1441322Y1556037D01*
X1439989D01*
X1439322Y1556703D01*
Y1560035D01*
X1435990Y1556037D02*
Y1560035D01*
X1437990Y1558036D01*
X1435324D01*
X1254378Y1813781D02*
Y1810449D01*
X1253711Y1809783D01*
X1252378D01*
X1251712Y1810449D01*
Y1813781D01*
X1250379Y1809783D02*
X1249046D01*
X1249713D01*
Y1813781D01*
X1250379Y1813115D01*
X1279270Y1454467D02*
X1279936Y1455133D01*
X1281269D01*
X1281936Y1454467D01*
Y1453801D01*
X1281269Y1453134D01*
X1279936D01*
X1279270Y1452468D01*
Y1451801D01*
X1279936Y1451135D01*
X1281269D01*
X1281936Y1451801D01*
X1277937Y1455133D02*
Y1451135D01*
X1276604Y1452468D01*
X1275271Y1451135D01*
Y1455133D01*
X1271272Y1451135D02*
X1273938D01*
X1271272Y1453801D01*
Y1454467D01*
X1271939Y1455133D01*
X1273272D01*
X1273938Y1454467D01*
X1206467Y1417891D02*
X1207134Y1418557D01*
X1208467D01*
X1209133Y1417891D01*
Y1417224D01*
X1208467Y1416558D01*
X1207134D01*
X1206467Y1415892D01*
Y1415225D01*
X1207134Y1414559D01*
X1208467D01*
X1209133Y1415225D01*
X1205134Y1418557D02*
Y1414559D01*
X1203802Y1415892D01*
X1202469Y1414559D01*
Y1418557D01*
X1201136Y1414559D02*
X1199803D01*
X1200469D01*
Y1418557D01*
X1201136Y1417891D01*
X1618784Y2111614D02*
Y2115613D01*
X1616784D01*
X1616118Y2114946D01*
Y2113613D01*
X1616784Y2112947D01*
X1618784D01*
X1617451D02*
X1616118Y2111614D01*
X1614785D02*
X1613452D01*
X1614119D01*
Y2115613D01*
X1614785Y2114946D01*
X1609453Y2111614D02*
Y2115613D01*
X1611453Y2113613D01*
X1608787D01*
X1607454Y2110947D02*
X1604788D01*
X1603455Y2111614D02*
Y2115613D01*
X1602122Y2114280D01*
X1600790Y2115613D01*
Y2111614D01*
X1599457Y2115613D02*
Y2111614D01*
X1597457D01*
X1596791Y2112280D01*
Y2114946D01*
X1597457Y2115613D01*
X1599457D01*
X1592792Y2111614D02*
X1595458D01*
X1592792Y2114280D01*
Y2114946D01*
X1593459Y2115613D01*
X1594792D01*
X1595458Y2114946D01*
X1327905Y2096374D02*
Y2100373D01*
X1325906D01*
X1325240Y2099706D01*
Y2098373D01*
X1325906Y2097707D01*
X1327905D01*
X1326572D02*
X1325240Y2096374D01*
X1323907D02*
X1322574D01*
X1323240D01*
Y2100373D01*
X1323907Y2099706D01*
X1318575Y2096374D02*
Y2100373D01*
X1320574Y2098373D01*
X1317908D01*
X1316576Y2095707D02*
X1313910D01*
X1312577Y2096374D02*
Y2100373D01*
X1311244Y2099040D01*
X1309911Y2100373D01*
Y2096374D01*
X1308578Y2100373D02*
Y2096374D01*
X1306579D01*
X1305912Y2097040D01*
Y2099706D01*
X1306579Y2100373D01*
X1308578D01*
X1304580Y2096374D02*
X1303247D01*
X1303913D01*
Y2100373D01*
X1304580Y2099706D01*
X1618276Y2070720D02*
Y2074719D01*
X1616276D01*
X1615610Y2074052D01*
Y2072719D01*
X1616276Y2072053D01*
X1618276D01*
X1616943D02*
X1615610Y2070720D01*
X1614277D02*
X1612944D01*
X1613611D01*
Y2074719D01*
X1614277Y2074052D01*
X1610945D02*
X1610278Y2074719D01*
X1608945D01*
X1608279Y2074052D01*
Y2073386D01*
X1608945Y2072719D01*
X1609612D01*
X1608945D01*
X1608279Y2072053D01*
Y2071386D01*
X1608945Y2070720D01*
X1610278D01*
X1610945Y2071386D01*
X1606946Y2070053D02*
X1604280D01*
X1602947Y2070720D02*
Y2074719D01*
X1601615Y2073386D01*
X1600282Y2074719D01*
Y2070720D01*
X1598949Y2074719D02*
Y2070720D01*
X1596949D01*
X1596283Y2071386D01*
Y2074052D01*
X1596949Y2074719D01*
X1598949D01*
X1592284Y2070720D02*
X1594950D01*
X1592284Y2073386D01*
Y2074052D01*
X1592951Y2074719D01*
X1594284D01*
X1594950Y2074052D01*
X1330699Y2064116D02*
Y2068115D01*
X1328700D01*
X1328033Y2067448D01*
Y2066115D01*
X1328700Y2065449D01*
X1330699D01*
X1329366D02*
X1328033Y2064116D01*
X1326701D02*
X1325368D01*
X1326034D01*
Y2068115D01*
X1326701Y2067448D01*
X1323368D02*
X1322702Y2068115D01*
X1321369D01*
X1320703Y2067448D01*
Y2066782D01*
X1321369Y2066115D01*
X1322036D01*
X1321369D01*
X1320703Y2065449D01*
Y2064782D01*
X1321369Y2064116D01*
X1322702D01*
X1323368Y2064782D01*
X1319370Y2063449D02*
X1316704D01*
X1315371Y2064116D02*
Y2068115D01*
X1314038Y2066782D01*
X1312705Y2068115D01*
Y2064116D01*
X1311372Y2068115D02*
Y2064116D01*
X1309373D01*
X1308707Y2064782D01*
Y2067448D01*
X1309373Y2068115D01*
X1311372D01*
X1307374Y2064116D02*
X1306041D01*
X1306707D01*
Y2068115D01*
X1307374Y2067448D01*
X1618276Y2026524D02*
Y2030523D01*
X1616276D01*
X1615610Y2029856D01*
Y2028523D01*
X1616276Y2027857D01*
X1618276D01*
X1616943D02*
X1615610Y2026524D01*
X1614277D02*
X1612944D01*
X1613611D01*
Y2030523D01*
X1614277Y2029856D01*
X1608279Y2026524D02*
X1610945D01*
X1608279Y2029190D01*
Y2029856D01*
X1608945Y2030523D01*
X1610278D01*
X1610945Y2029856D01*
X1606946Y2025857D02*
X1604280D01*
X1602947Y2026524D02*
Y2030523D01*
X1601615Y2029190D01*
X1600282Y2030523D01*
Y2026524D01*
X1598949Y2030523D02*
Y2026524D01*
X1596949D01*
X1596283Y2027190D01*
Y2029856D01*
X1596949Y2030523D01*
X1598949D01*
X1592284Y2026524D02*
X1594950D01*
X1592284Y2029190D01*
Y2029856D01*
X1592951Y2030523D01*
X1594284D01*
X1594950Y2029856D01*
X1327397Y2027286D02*
Y2031285D01*
X1325398D01*
X1324731Y2030618D01*
Y2029285D01*
X1325398Y2028619D01*
X1327397D01*
X1326064D02*
X1324731Y2027286D01*
X1323399D02*
X1322066D01*
X1322732D01*
Y2031285D01*
X1323399Y2030618D01*
X1317401Y2027286D02*
X1320066D01*
X1317401Y2029952D01*
Y2030618D01*
X1318067Y2031285D01*
X1319400D01*
X1320066Y2030618D01*
X1316068Y2026619D02*
X1313402D01*
X1312069Y2027286D02*
Y2031285D01*
X1310736Y2029952D01*
X1309403Y2031285D01*
Y2027286D01*
X1308070Y2031285D02*
Y2027286D01*
X1306071D01*
X1305405Y2027952D01*
Y2030618D01*
X1306071Y2031285D01*
X1308070D01*
X1304072Y2027286D02*
X1302739D01*
X1303405D01*
Y2031285D01*
X1304072Y2030618D01*
X1360965Y1481822D02*
X1364963D01*
Y1483821D01*
X1364297Y1484488D01*
X1362964D01*
X1362298Y1483821D01*
Y1481822D01*
Y1483155D02*
X1360965Y1484488D01*
Y1485821D02*
Y1487154D01*
Y1486487D01*
X1364963D01*
X1364297Y1485821D01*
X1360965Y1489153D02*
Y1490486D01*
Y1489819D01*
X1364963D01*
X1364297Y1489153D01*
X1304208Y1606727D02*
Y1610725D01*
X1302209D01*
X1301543Y1610059D01*
Y1608726D01*
X1302209Y1608060D01*
X1304208D01*
X1302876D02*
X1301543Y1606727D01*
X1300210D02*
X1298877D01*
X1299543D01*
Y1610725D01*
X1300210Y1610059D01*
X1296877D02*
X1296211Y1610725D01*
X1294878D01*
X1294212Y1610059D01*
Y1607393D01*
X1294878Y1606727D01*
X1296211D01*
X1296877Y1607393D01*
Y1610059D01*
X1334803Y1948914D02*
X1330805D01*
Y1946915D01*
X1331471Y1946248D01*
X1332804D01*
X1333470Y1946915D01*
Y1948914D01*
Y1947581D02*
X1334803Y1946248D01*
X1330805Y1944915D02*
Y1942250D01*
X1331471D01*
X1334137Y1944915D01*
X1334803D01*
X1431291Y1891060D02*
X1427293D01*
Y1889061D01*
X1427959Y1888394D01*
X1429292D01*
X1429958Y1889061D01*
Y1891060D01*
Y1889727D02*
X1431291Y1888394D01*
X1427293Y1884396D02*
X1427959Y1885729D01*
X1429292Y1887062D01*
X1430625D01*
X1431291Y1886395D01*
Y1885062D01*
X1430625Y1884396D01*
X1429958D01*
X1429292Y1885062D01*
Y1887062D01*
X1352486Y1940436D02*
Y1944435D01*
X1350486D01*
X1349820Y1943768D01*
Y1942435D01*
X1350486Y1941769D01*
X1352486D01*
X1351153D02*
X1349820Y1940436D01*
X1345821Y1944435D02*
X1348487D01*
Y1942435D01*
X1347154Y1943102D01*
X1346487D01*
X1345821Y1942435D01*
Y1941102D01*
X1346487Y1940436D01*
X1347820D01*
X1348487Y1941102D01*
X1189305Y1663222D02*
X1185307D01*
Y1661223D01*
X1185973Y1660556D01*
X1187306D01*
X1187972Y1661223D01*
Y1663222D01*
Y1661889D02*
X1189305Y1660556D01*
Y1657224D02*
X1185307D01*
X1187306Y1659224D01*
Y1656558D01*
X1221516Y1608979D02*
Y1612977D01*
X1219517D01*
X1218850Y1612311D01*
Y1610978D01*
X1219517Y1610311D01*
X1221516D01*
X1220183D02*
X1218850Y1608979D01*
X1217518Y1612311D02*
X1216851Y1612977D01*
X1215518D01*
X1214852Y1612311D01*
Y1611644D01*
X1215518Y1610978D01*
X1216185D01*
X1215518D01*
X1214852Y1610311D01*
Y1609645D01*
X1215518Y1608979D01*
X1216851D01*
X1217518Y1609645D01*
X1619791Y1564006D02*
X1623789D01*
Y1566006D01*
X1623123Y1566672D01*
X1621790D01*
X1621124Y1566006D01*
Y1564006D01*
Y1565339D02*
X1619791Y1566672D01*
Y1568005D02*
Y1569338D01*
Y1568671D01*
X1623789D01*
X1623123Y1568005D01*
X1885104Y2152443D02*
X1886437D01*
X1885770D01*
Y2149110D01*
X1886437Y2148444D01*
X1887103D01*
X1887770Y2149110D01*
X1883771Y2148444D02*
X1882438D01*
X1883105D01*
Y2152443D01*
X1883771Y2151776D01*
X1880439D02*
X1879772Y2152443D01*
X1878439D01*
X1877773Y2151776D01*
Y2151110D01*
X1878439Y2150443D01*
X1879106D01*
X1878439D01*
X1877773Y2149777D01*
Y2149110D01*
X1878439Y2148444D01*
X1879772D01*
X1880439Y2149110D01*
X1876440Y2147777D02*
X1873774D01*
X1872441Y2148444D02*
Y2152443D01*
X1871109Y2151110D01*
X1869776Y2152443D01*
Y2148444D01*
X1868443Y2152443D02*
Y2148444D01*
X1866443D01*
X1865777Y2149110D01*
Y2151776D01*
X1866443Y2152443D01*
X1868443D01*
X1861778Y2148444D02*
X1864444D01*
X1861778Y2151110D01*
Y2151776D01*
X1862445Y2152443D01*
X1863778D01*
X1864444Y2151776D01*
X1585226Y2150411D02*
X1586558D01*
X1585892D01*
Y2147078D01*
X1586558Y2146412D01*
X1587225D01*
X1587891Y2147078D01*
X1583893Y2146412D02*
X1582560D01*
X1583226D01*
Y2150411D01*
X1583893Y2149744D01*
X1580560D02*
X1579894Y2150411D01*
X1578561D01*
X1577895Y2149744D01*
Y2149078D01*
X1578561Y2148411D01*
X1579227D01*
X1578561D01*
X1577895Y2147745D01*
Y2147078D01*
X1578561Y2146412D01*
X1579894D01*
X1580560Y2147078D01*
X1576562Y2145745D02*
X1573896D01*
X1572563Y2146412D02*
Y2150411D01*
X1571230Y2149078D01*
X1569897Y2150411D01*
Y2146412D01*
X1568564Y2150411D02*
Y2146412D01*
X1566565D01*
X1565898Y2147078D01*
Y2149744D01*
X1566565Y2150411D01*
X1568564D01*
X1564566Y2146412D02*
X1563233D01*
X1563899D01*
Y2150411D01*
X1564566Y2149744D01*
X1645953Y1616598D02*
Y1617931D01*
Y1617265D01*
X1649285D01*
X1649951Y1617931D01*
Y1618598D01*
X1649285Y1619264D01*
X1649951Y1615265D02*
Y1613932D01*
Y1614599D01*
X1645953D01*
X1646619Y1615265D01*
X1649951Y1611933D02*
Y1610600D01*
Y1611266D01*
X1645953D01*
X1646619Y1611933D01*
X1794049Y1523459D02*
X1795381D01*
X1794715D01*
Y1520127D01*
X1795381Y1519461D01*
X1796048D01*
X1796714Y1520127D01*
X1792716Y1519461D02*
X1791383D01*
X1792049D01*
Y1523459D01*
X1792716Y1522793D01*
X1789383D02*
X1788717Y1523459D01*
X1787384D01*
X1786718Y1522793D01*
Y1520127D01*
X1787384Y1519461D01*
X1788717D01*
X1789383Y1520127D01*
Y1522793D01*
X1412715Y1413098D02*
Y1411765D01*
Y1412431D01*
X1409383D01*
X1408717Y1411765D01*
Y1411098D01*
X1409383Y1410432D01*
Y1414430D02*
X1408717Y1415097D01*
Y1416430D01*
X1409383Y1417096D01*
X1412049D01*
X1412715Y1416430D01*
Y1415097D01*
X1412049Y1414430D01*
X1411382D01*
X1410716Y1415097D01*
Y1417096D01*
X1885854Y1571973D02*
X1887187D01*
X1886521D01*
Y1568641D01*
X1887187Y1567975D01*
X1887854D01*
X1888520Y1568641D01*
X1884522Y1571307D02*
X1883855Y1571973D01*
X1882522D01*
X1881856Y1571307D01*
Y1570641D01*
X1882522Y1569974D01*
X1881856Y1569308D01*
Y1568641D01*
X1882522Y1567975D01*
X1883855D01*
X1884522Y1568641D01*
Y1569308D01*
X1883855Y1569974D01*
X1884522Y1570641D01*
Y1571307D01*
X1883855Y1569974D02*
X1882522D01*
X1838102Y1495773D02*
X1839435D01*
X1838769D01*
Y1492441D01*
X1839435Y1491775D01*
X1840102D01*
X1840768Y1492441D01*
X1836770Y1495773D02*
X1834104D01*
Y1495107D01*
X1836770Y1492441D01*
Y1491775D01*
X1430749Y1916272D02*
Y1914939D01*
Y1915605D01*
X1427417D01*
X1426751Y1914939D01*
Y1914272D01*
X1427417Y1913606D01*
X1430749Y1920270D02*
Y1917604D01*
X1428750D01*
X1429417Y1918937D01*
Y1919604D01*
X1428750Y1920270D01*
X1427417D01*
X1426751Y1919604D01*
Y1918271D01*
X1427417Y1917604D01*
X1788701Y1613312D02*
Y1614645D01*
Y1613979D01*
X1792033D01*
X1792699Y1614645D01*
Y1615312D01*
X1792033Y1615978D01*
X1792699Y1609980D02*
X1788701D01*
X1790700Y1611980D01*
Y1609314D01*
X1325784Y1590515D02*
X1327117D01*
X1326451D01*
Y1587183D01*
X1327117Y1586517D01*
X1327784D01*
X1328450Y1587183D01*
X1324452Y1589849D02*
X1323785Y1590515D01*
X1322452D01*
X1321786Y1589849D01*
Y1589182D01*
X1322452Y1588516D01*
X1323119D01*
X1322452D01*
X1321786Y1587850D01*
Y1587183D01*
X1322452Y1586517D01*
X1323785D01*
X1324452Y1587183D01*
X1240694Y1936679D02*
X1242027D01*
X1241361D01*
Y1933347D01*
X1242027Y1932681D01*
X1242694D01*
X1243360Y1933347D01*
X1236696Y1932681D02*
X1239362D01*
X1236696Y1935347D01*
Y1936013D01*
X1237362Y1936679D01*
X1238695D01*
X1239362Y1936013D01*
X1500853Y1731646D02*
Y1728980D01*
X1498854D01*
Y1730313D01*
Y1728980D01*
X1496855D01*
X1500853Y1732979D02*
X1496855D01*
Y1735645D01*
Y1739644D02*
Y1736978D01*
X1499521Y1739644D01*
X1500187D01*
X1500853Y1738977D01*
Y1737644D01*
X1500187Y1736978D01*
X1641029Y1595661D02*
Y1592995D01*
X1639030D01*
Y1594328D01*
Y1592995D01*
X1637031D01*
X1641029Y1596994D02*
X1637031D01*
Y1599659D01*
Y1600992D02*
Y1602325D01*
Y1601659D01*
X1641029D01*
X1640363Y1600992D01*
X1361661Y1465200D02*
X1357663D01*
Y1467200D01*
X1358329Y1467866D01*
X1360995D01*
X1361661Y1467200D01*
Y1465200D01*
X1357663Y1469199D02*
Y1470532D01*
Y1469865D01*
X1361661D01*
X1360995Y1469199D01*
X1888094Y2021073D02*
X1887427Y2021740D01*
Y2023073D01*
X1888094Y2023739D01*
X1890760D01*
X1891426Y2023073D01*
Y2021740D01*
X1890760Y2021073D01*
X1891426Y2017074D02*
Y2019740D01*
X1888760Y2017074D01*
X1888094D01*
X1887427Y2017741D01*
Y2019074D01*
X1888094Y2019740D01*
Y2015742D02*
X1887427Y2015075D01*
Y2013742D01*
X1888094Y2013076D01*
X1888760D01*
X1889427Y2013742D01*
X1890093Y2013076D01*
X1890760D01*
X1891426Y2013742D01*
Y2015075D01*
X1890760Y2015742D01*
X1890093D01*
X1889427Y2015075D01*
X1888760Y2015742D01*
X1888094D01*
X1889427Y2015075D02*
Y2013742D01*
X1892093Y2011743D02*
Y2009077D01*
X1891426Y2007744D02*
X1887427D01*
X1888760Y2006411D01*
X1887427Y2005078D01*
X1891426D01*
X1887427Y2003746D02*
X1891426D01*
Y2001746D01*
X1890760Y2001080D01*
X1888094D01*
X1887427Y2001746D01*
Y2003746D01*
X1891426Y1997081D02*
Y1999747D01*
X1888760Y1997081D01*
X1888094D01*
X1887427Y1997747D01*
Y1999080D01*
X1888094Y1999747D01*
X1584035Y1987184D02*
X1584701Y1987851D01*
X1586034D01*
X1586700Y1987184D01*
Y1984518D01*
X1586034Y1983852D01*
X1584701D01*
X1584035Y1984518D01*
X1580036Y1983852D02*
X1582702D01*
X1580036Y1986518D01*
Y1987184D01*
X1580703Y1987851D01*
X1582035D01*
X1582702Y1987184D01*
X1578703D02*
X1578037Y1987851D01*
X1576704D01*
X1576037Y1987184D01*
Y1986518D01*
X1576704Y1985851D01*
X1576037Y1985185D01*
Y1984518D01*
X1576704Y1983852D01*
X1578037D01*
X1578703Y1984518D01*
Y1985185D01*
X1578037Y1985851D01*
X1578703Y1986518D01*
Y1987184D01*
X1578037Y1985851D02*
X1576704D01*
X1574704Y1983185D02*
X1572039D01*
X1570706Y1983852D02*
Y1987851D01*
X1569373Y1986518D01*
X1568040Y1987851D01*
Y1983852D01*
X1566707Y1987851D02*
Y1983852D01*
X1564708D01*
X1564041Y1984518D01*
Y1987184D01*
X1564708Y1987851D01*
X1566707D01*
X1562708Y1983852D02*
X1561375D01*
X1562042D01*
Y1987851D01*
X1562708Y1987184D01*
X1238805Y1590420D02*
X1238139Y1591086D01*
Y1592419D01*
X1238805Y1593086D01*
X1241471D01*
X1242137Y1592419D01*
Y1591086D01*
X1241471Y1590420D01*
X1242137Y1586421D02*
Y1589087D01*
X1239472Y1586421D01*
X1238805D01*
X1238139Y1587088D01*
Y1588420D01*
X1238805Y1589087D01*
X1238139Y1585088D02*
Y1582422D01*
X1238805D01*
X1241471Y1585088D01*
X1242137D01*
X1369512Y1943736D02*
X1370178Y1944403D01*
X1371511D01*
X1372177Y1943736D01*
Y1941071D01*
X1371511Y1940404D01*
X1370178D01*
X1369512Y1941071D01*
X1365513Y1940404D02*
X1368179D01*
X1365513Y1943070D01*
Y1943736D01*
X1366179Y1944403D01*
X1367512D01*
X1368179Y1943736D01*
X1361514Y1944403D02*
X1362847Y1943736D01*
X1364180Y1942404D01*
Y1941071D01*
X1363514Y1940404D01*
X1362181D01*
X1361514Y1941071D01*
Y1941737D01*
X1362181Y1942404D01*
X1364180D01*
X1577403Y1763904D02*
X1578069Y1763238D01*
Y1761905D01*
X1577403Y1761238D01*
X1574737D01*
X1574071Y1761905D01*
Y1763238D01*
X1574737Y1763904D01*
X1574071Y1767903D02*
Y1765237D01*
X1576736Y1767903D01*
X1577403D01*
X1578069Y1767236D01*
Y1765904D01*
X1577403Y1765237D01*
X1578069Y1771902D02*
Y1769236D01*
X1576070D01*
X1576736Y1770569D01*
Y1771235D01*
X1576070Y1771902D01*
X1574737D01*
X1574071Y1771235D01*
Y1769902D01*
X1574737Y1769236D01*
X1490171Y1761364D02*
X1490837Y1760698D01*
Y1759365D01*
X1490171Y1758698D01*
X1487505D01*
X1486839Y1759365D01*
Y1760698D01*
X1487505Y1761364D01*
X1486839Y1765363D02*
Y1762697D01*
X1489505Y1765363D01*
X1490171D01*
X1490837Y1764697D01*
Y1763364D01*
X1490171Y1762697D01*
X1486839Y1768695D02*
X1490837D01*
X1488838Y1766696D01*
Y1769362D01*
X1511999Y1732914D02*
X1511333Y1733580D01*
Y1734913D01*
X1511999Y1735580D01*
X1514665D01*
X1515331Y1734913D01*
Y1733580D01*
X1514665Y1732914D01*
X1515331Y1728915D02*
Y1731581D01*
X1512666Y1728915D01*
X1511999D01*
X1511333Y1729581D01*
Y1730914D01*
X1511999Y1731581D01*
Y1727582D02*
X1511333Y1726916D01*
Y1725583D01*
X1511999Y1724916D01*
X1512666D01*
X1513332Y1725583D01*
Y1726249D01*
Y1725583D01*
X1513998Y1724916D01*
X1514665D01*
X1515331Y1725583D01*
Y1726916D01*
X1514665Y1727582D01*
X1427163Y1951354D02*
X1426497Y1952020D01*
Y1953353D01*
X1427163Y1954020D01*
X1429829D01*
X1430495Y1953353D01*
Y1952020D01*
X1429829Y1951354D01*
X1430495Y1947355D02*
Y1950021D01*
X1427829Y1947355D01*
X1427163D01*
X1426497Y1948022D01*
Y1949354D01*
X1427163Y1950021D01*
X1430495Y1943356D02*
Y1946022D01*
X1427829Y1943356D01*
X1427163D01*
X1426497Y1944023D01*
Y1945356D01*
X1427163Y1946022D01*
X1446243Y1916493D02*
X1446910Y1917159D01*
X1448243D01*
X1448909Y1916493D01*
Y1913827D01*
X1448243Y1913161D01*
X1446910D01*
X1446243Y1913827D01*
X1442245Y1913161D02*
X1444910D01*
X1442245Y1915827D01*
Y1916493D01*
X1442911Y1917159D01*
X1444244D01*
X1444910Y1916493D01*
X1440912Y1913161D02*
X1439579D01*
X1440245D01*
Y1917159D01*
X1440912Y1916493D01*
X1227645Y1537590D02*
X1228311Y1536924D01*
Y1535591D01*
X1227645Y1534924D01*
X1224979D01*
X1224313Y1535591D01*
Y1536924D01*
X1224979Y1537590D01*
X1224313Y1541589D02*
Y1538923D01*
X1226979Y1541589D01*
X1227645D01*
X1228311Y1540923D01*
Y1539590D01*
X1227645Y1538923D01*
Y1542922D02*
X1228311Y1543588D01*
Y1544921D01*
X1227645Y1545588D01*
X1224979D01*
X1224313Y1544921D01*
Y1543588D01*
X1224979Y1542922D01*
X1227645D01*
X1611931Y1434147D02*
X1612597Y1434813D01*
X1613930D01*
X1614596Y1434147D01*
Y1431481D01*
X1613930Y1430815D01*
X1612597D01*
X1611931Y1431481D01*
X1610598Y1430815D02*
X1609265D01*
X1609931D01*
Y1434813D01*
X1610598Y1434147D01*
X1607265Y1431481D02*
X1606599Y1430815D01*
X1605266D01*
X1604600Y1431481D01*
Y1434147D01*
X1605266Y1434813D01*
X1606599D01*
X1607265Y1434147D01*
Y1433481D01*
X1606599Y1432814D01*
X1604600D01*
X1390477Y1541827D02*
X1389811Y1542493D01*
Y1543826D01*
X1390477Y1544492D01*
X1393143D01*
X1393809Y1543826D01*
Y1542493D01*
X1393143Y1541827D01*
X1393809Y1540494D02*
Y1539161D01*
Y1539827D01*
X1389811D01*
X1390477Y1540494D01*
Y1537161D02*
X1389811Y1536495D01*
Y1535162D01*
X1390477Y1534496D01*
X1391143D01*
X1391810Y1535162D01*
X1392477Y1534496D01*
X1393143D01*
X1393809Y1535162D01*
Y1536495D01*
X1393143Y1537161D01*
X1392477D01*
X1391810Y1536495D01*
X1391143Y1537161D01*
X1390477D01*
X1391810Y1536495D02*
Y1535162D01*
X1419907Y1420669D02*
X1419241Y1421335D01*
Y1422668D01*
X1419907Y1423334D01*
X1422573D01*
X1423239Y1422668D01*
Y1421335D01*
X1422573Y1420669D01*
X1423239Y1419336D02*
Y1418003D01*
Y1418669D01*
X1419241D01*
X1419907Y1419336D01*
X1419241Y1416003D02*
Y1413338D01*
X1419907D01*
X1422573Y1416003D01*
X1423239D01*
X1589833Y1434257D02*
X1590499Y1434923D01*
X1591832D01*
X1592498Y1434257D01*
Y1431591D01*
X1591832Y1430925D01*
X1590499D01*
X1589833Y1431591D01*
X1588500Y1430925D02*
X1587167D01*
X1587833D01*
Y1434923D01*
X1588500Y1434257D01*
X1582502Y1434923D02*
X1583835Y1434257D01*
X1585167Y1432924D01*
Y1431591D01*
X1584501Y1430925D01*
X1583168D01*
X1582502Y1431591D01*
Y1432258D01*
X1583168Y1432924D01*
X1585167D01*
X1618789Y1539287D02*
X1618123Y1539953D01*
Y1541286D01*
X1618789Y1541952D01*
X1621455D01*
X1622121Y1541286D01*
Y1539953D01*
X1621455Y1539287D01*
X1622121Y1537954D02*
Y1536621D01*
Y1537287D01*
X1618123D01*
X1618789Y1537954D01*
X1618123Y1531956D02*
Y1534621D01*
X1620122D01*
X1619456Y1533289D01*
Y1532622D01*
X1620122Y1531956D01*
X1621455D01*
X1622121Y1532622D01*
Y1533955D01*
X1621455Y1534621D01*
X1387793Y1560369D02*
X1387127Y1561035D01*
Y1562368D01*
X1387793Y1563034D01*
X1390459D01*
X1391125Y1562368D01*
Y1561035D01*
X1390459Y1560369D01*
X1391125Y1559036D02*
Y1557703D01*
Y1558369D01*
X1387127D01*
X1387793Y1559036D01*
X1391125Y1553704D02*
X1387127D01*
X1389126Y1555703D01*
Y1553038D01*
X1599495Y1599231D02*
X1598829Y1599897D01*
Y1601230D01*
X1599495Y1601896D01*
X1602161D01*
X1602827Y1601230D01*
Y1599897D01*
X1602161Y1599231D01*
X1602827Y1597898D02*
Y1596565D01*
Y1597231D01*
X1598829D01*
X1599495Y1597898D01*
Y1594565D02*
X1598829Y1593899D01*
Y1592566D01*
X1599495Y1591900D01*
X1600161D01*
X1600828Y1592566D01*
Y1593233D01*
Y1592566D01*
X1601494Y1591900D01*
X1602161D01*
X1602827Y1592566D01*
Y1593899D01*
X1602161Y1594565D01*
X1622107Y1511666D02*
X1622773Y1510999D01*
Y1509666D01*
X1622107Y1509000D01*
X1619441D01*
X1618775Y1509666D01*
Y1510999D01*
X1619441Y1511666D01*
X1618775Y1512999D02*
Y1514332D01*
Y1513665D01*
X1622773D01*
X1622107Y1512999D01*
X1618775Y1516331D02*
Y1517664D01*
Y1516998D01*
X1622773D01*
X1622107Y1516331D01*
X1504759Y1600661D02*
X1505425Y1599995D01*
Y1598662D01*
X1504759Y1597996D01*
X1502093D01*
X1501427Y1598662D01*
Y1599995D01*
X1502093Y1600661D01*
X1501427Y1601994D02*
Y1603327D01*
Y1602661D01*
X1505425D01*
X1504759Y1601994D01*
Y1605327D02*
X1505425Y1605993D01*
Y1607326D01*
X1504759Y1607992D01*
X1502093D01*
X1501427Y1607326D01*
Y1605993D01*
X1502093Y1605327D01*
X1504759D01*
X1456086Y1608391D02*
X1456753Y1609057D01*
X1458086D01*
X1458752Y1608391D01*
Y1605725D01*
X1458086Y1605059D01*
X1456753D01*
X1456086Y1605725D01*
X1454754D02*
X1454087Y1605059D01*
X1452754D01*
X1452088Y1605725D01*
Y1608391D01*
X1452754Y1609057D01*
X1454087D01*
X1454754Y1608391D01*
Y1607724D01*
X1454087Y1607058D01*
X1452088D01*
X1194720Y1797985D02*
X1195387Y1798651D01*
X1196720D01*
X1197386Y1797985D01*
Y1795319D01*
X1196720Y1794653D01*
X1195387D01*
X1194720Y1795319D01*
X1190722Y1798651D02*
X1193388D01*
Y1796652D01*
X1192055Y1797319D01*
X1191388D01*
X1190722Y1796652D01*
Y1795319D01*
X1191388Y1794653D01*
X1192721D01*
X1193388Y1795319D01*
X1307688Y1780985D02*
X1307021Y1780319D01*
X1305688D01*
X1305022Y1780985D01*
Y1783651D01*
X1305688Y1784317D01*
X1307021D01*
X1307688Y1783651D01*
X1311020Y1784317D02*
Y1780319D01*
X1309020Y1782318D01*
X1311686D01*
X1300145Y1848200D02*
X1300811Y1847533D01*
Y1846200D01*
X1300145Y1845534D01*
X1297479D01*
X1296813Y1846200D01*
Y1847533D01*
X1297479Y1848200D01*
X1300145Y1849532D02*
X1300811Y1850199D01*
Y1851532D01*
X1300145Y1852198D01*
X1299478D01*
X1298812Y1851532D01*
Y1850865D01*
Y1851532D01*
X1298146Y1852198D01*
X1297479D01*
X1296813Y1851532D01*
Y1850199D01*
X1297479Y1849532D01*
X1300179Y1870552D02*
X1300845Y1869885D01*
Y1868552D01*
X1300179Y1867886D01*
X1297513D01*
X1296847Y1868552D01*
Y1869885D01*
X1297513Y1870552D01*
X1296847Y1874550D02*
Y1871884D01*
X1299512Y1874550D01*
X1300179D01*
X1300845Y1873884D01*
Y1872551D01*
X1300179Y1871884D01*
X1301593Y1894586D02*
X1302259Y1893920D01*
Y1892587D01*
X1301593Y1891920D01*
X1298927D01*
X1298261Y1892587D01*
Y1893920D01*
X1298927Y1894586D01*
X1298261Y1895919D02*
Y1897252D01*
Y1896585D01*
X1302259D01*
X1301593Y1895919D01*
D83*
X1350861Y1523262D02*
X1353527D01*
X1354860Y1521929D01*
X1353527Y1520596D01*
X1350861D01*
Y1519263D02*
X1354860D01*
Y1517264D01*
X1354194Y1516597D01*
X1351528D01*
X1350861Y1517264D01*
Y1519263D01*
Y1515265D02*
X1354860D01*
Y1513265D01*
X1354194Y1512599D01*
X1351528D01*
X1350861Y1513265D01*
Y1515265D01*
X1354747Y1536422D02*
X1350748D01*
Y1538421D01*
X1351414Y1539088D01*
X1352081D01*
X1352747Y1538421D01*
Y1536422D01*
Y1538421D01*
X1353414Y1539088D01*
X1354080D01*
X1354747Y1538421D01*
Y1536422D01*
Y1542420D02*
Y1541087D01*
X1354080Y1540421D01*
X1351414D01*
X1350748Y1541087D01*
Y1542420D01*
X1351414Y1543087D01*
X1354080D01*
X1354747Y1542420D01*
Y1546419D02*
Y1545086D01*
X1354080Y1544419D01*
X1351414D01*
X1350748Y1545086D01*
Y1546419D01*
X1351414Y1547085D01*
X1354080D01*
X1354747Y1546419D01*
Y1548418D02*
Y1551084D01*
Y1549751D01*
X1350748D01*
X1354080Y1552417D02*
X1354747Y1553083D01*
Y1554416D01*
X1354080Y1555083D01*
X1351414D01*
X1350748Y1554416D01*
Y1553083D01*
X1351414Y1552417D01*
X1354080D01*
Y1568298D02*
X1354747Y1567631D01*
Y1566298D01*
X1354080Y1565632D01*
X1351414D01*
X1350748Y1566298D01*
Y1567631D01*
X1351414Y1568298D01*
X1352747D01*
Y1566965D01*
X1350748Y1569631D02*
X1354747D01*
X1350748Y1572296D01*
X1354747D01*
Y1573629D02*
X1350748D01*
Y1575629D01*
X1351414Y1576295D01*
X1354080D01*
X1354747Y1575629D01*
Y1573629D01*
X1843302Y1585633D02*
Y1581634D01*
X1841303D01*
X1840636Y1582300D01*
Y1582967D01*
X1841303Y1583633D01*
X1843302D01*
X1841303D01*
X1840636Y1584300D01*
Y1584966D01*
X1841303Y1585633D01*
X1843302D01*
X1837304D02*
X1838637D01*
X1839303Y1584966D01*
Y1582300D01*
X1838637Y1581634D01*
X1837304D01*
X1836638Y1582300D01*
Y1584966D01*
X1837304Y1585633D01*
X1833305D02*
X1834638D01*
X1835305Y1584966D01*
Y1582300D01*
X1834638Y1581634D01*
X1833305D01*
X1832639Y1582300D01*
Y1584966D01*
X1833305Y1585633D01*
X1831306D02*
X1828640D01*
X1829973D01*
Y1581634D01*
X1827307D02*
X1825974D01*
X1826641D01*
Y1585633D01*
X1827307Y1584966D01*
X1707412Y1500797D02*
Y1497464D01*
X1706746Y1496798D01*
X1705413D01*
X1704746Y1497464D01*
Y1500797D01*
X1703413Y1496798D02*
Y1499464D01*
X1702080Y1500797D01*
X1700748Y1499464D01*
Y1496798D01*
Y1498797D01*
X1703413D01*
X1699415Y1496798D02*
Y1500797D01*
X1697415D01*
X1696749Y1500130D01*
Y1498797D01*
X1697415Y1498131D01*
X1699415D01*
X1698082D02*
X1696749Y1496798D01*
X1695416Y1500797D02*
X1692750D01*
X1694083D01*
Y1496798D01*
X1708428Y1490194D02*
Y1494193D01*
X1706429D01*
X1705762Y1493526D01*
Y1492193D01*
X1706429Y1491527D01*
X1708428D01*
X1704429Y1490194D02*
Y1494193D01*
X1702430D01*
X1701763Y1493526D01*
Y1492193D01*
X1702430Y1491527D01*
X1704429D01*
X1703096D02*
X1701763Y1490194D01*
X1698431Y1494193D02*
X1699764D01*
X1700431Y1493526D01*
Y1490860D01*
X1699764Y1490194D01*
X1698431D01*
X1697765Y1490860D01*
Y1493526D01*
X1698431Y1494193D01*
X1693766Y1493526D02*
X1694433Y1494193D01*
X1695766D01*
X1696432Y1493526D01*
Y1490860D01*
X1695766Y1490194D01*
X1694433D01*
X1693766Y1490860D01*
Y1492193D01*
X1695099D01*
X1823490Y1494193D02*
Y1490194D01*
X1821491D01*
X1820824Y1490860D01*
Y1493526D01*
X1821491Y1494193D01*
X1823490D01*
X1819491Y1490194D02*
Y1492860D01*
X1818158Y1494193D01*
X1816826Y1492860D01*
Y1490194D01*
Y1492193D01*
X1819491D01*
X1815493Y1494193D02*
X1812827D01*
X1814160D01*
Y1490194D01*
X1811494D02*
Y1492860D01*
X1810161Y1494193D01*
X1808828Y1492860D01*
Y1490194D01*
Y1492193D01*
X1811494D01*
X1854860Y1550168D02*
X1855527Y1550835D01*
X1856860D01*
X1857526Y1550168D01*
Y1547502D01*
X1856860Y1546836D01*
X1855527D01*
X1854860Y1547502D01*
X1850862Y1550168D02*
X1851528Y1550835D01*
X1852861D01*
X1853527Y1550168D01*
Y1549502D01*
X1852861Y1548835D01*
X1851528D01*
X1850862Y1548169D01*
Y1547502D01*
X1851528Y1546836D01*
X1852861D01*
X1853527Y1547502D01*
X1846863Y1546836D02*
X1849529D01*
X1846863Y1549502D01*
Y1550168D01*
X1847529Y1550835D01*
X1848862D01*
X1849529Y1550168D01*
X1865274Y1584712D02*
X1865941Y1585379D01*
X1867274D01*
X1867940Y1584712D01*
Y1582046D01*
X1867274Y1581380D01*
X1865941D01*
X1865274Y1582046D01*
Y1583379D01*
X1866607D01*
X1863941Y1581380D02*
Y1585379D01*
X1861275Y1581380D01*
Y1585379D01*
X1859943D02*
Y1581380D01*
X1857943D01*
X1857277Y1582046D01*
Y1584712D01*
X1857943Y1585379D01*
X1859943D01*
X1813076Y1584871D02*
Y1582205D01*
X1811743Y1580872D01*
X1810410Y1582205D01*
Y1584871D01*
X1809077D02*
Y1580872D01*
X1807078D01*
X1806411Y1581538D01*
Y1584204D01*
X1807078Y1584871D01*
X1809077D01*
X1805079D02*
Y1580872D01*
X1803079D01*
X1802413Y1581538D01*
Y1584204D01*
X1803079Y1584871D01*
X1805079D01*
X1844826Y1625003D02*
Y1621004D01*
X1842827D01*
X1842160Y1621670D01*
Y1622337D01*
X1842827Y1623003D01*
X1844826D01*
X1842827D01*
X1842160Y1623670D01*
Y1624336D01*
X1842827Y1625003D01*
X1844826D01*
X1838828D02*
X1840161D01*
X1840827Y1624336D01*
Y1621670D01*
X1840161Y1621004D01*
X1838828D01*
X1838161Y1621670D01*
Y1624336D01*
X1838828Y1625003D01*
X1834829D02*
X1836162D01*
X1836829Y1624336D01*
Y1621670D01*
X1836162Y1621004D01*
X1834829D01*
X1834163Y1621670D01*
Y1624336D01*
X1834829Y1625003D01*
X1832830D02*
X1830164D01*
X1831497D01*
Y1621004D01*
X1828831D02*
X1827498D01*
X1828165D01*
Y1625003D01*
X1828831Y1624336D01*
X1178838Y1937790D02*
Y1935124D01*
X1186204Y1814361D02*
X1183538D01*
X1184871Y1815694D02*
Y1813028D01*
X1179600Y2086126D02*
Y2083460D01*
Y1964729D02*
X1176934D01*
X1178267Y1966062D02*
Y1963396D01*
X1372894Y1791119D02*
X1371561D01*
X1372228D01*
Y1787120D01*
X1372894D01*
X1371561D01*
X1366896Y1790452D02*
X1367562Y1791119D01*
X1368895D01*
X1369562Y1790452D01*
Y1787786D01*
X1368895Y1787120D01*
X1367562D01*
X1366896Y1787786D01*
X1362897Y1790452D02*
X1363564Y1791119D01*
X1364897D01*
X1365563Y1790452D01*
Y1787786D01*
X1364897Y1787120D01*
X1363564D01*
X1362897Y1787786D01*
Y1789119D01*
X1364230D01*
X1369942Y1763244D02*
Y1766576D01*
Y1765243D01*
X1370608D01*
X1369275D01*
X1369942D01*
Y1766576D01*
X1369275Y1767243D01*
X1367276Y1763244D02*
Y1767243D01*
X1365943Y1765910D01*
X1364610Y1767243D01*
Y1763244D01*
X1368196Y1739652D02*
X1368863Y1740319D01*
X1370196D01*
X1370862Y1739652D01*
Y1738986D01*
X1370196Y1738319D01*
X1368863D01*
X1368196Y1737653D01*
Y1736986D01*
X1368863Y1736320D01*
X1370196D01*
X1370862Y1736986D01*
X1366863Y1740319D02*
Y1736320D01*
Y1738319D01*
X1364198D01*
Y1740319D01*
Y1736320D01*
X1372640Y1714411D02*
Y1711745D01*
X1371307Y1710412D01*
X1369974Y1711745D01*
Y1714411D01*
X1368641D02*
Y1710412D01*
X1366642D01*
X1365975Y1711078D01*
Y1713744D01*
X1366642Y1714411D01*
X1368641D01*
X1364643D02*
Y1710412D01*
X1362643D01*
X1361977Y1711078D01*
Y1713744D01*
X1362643Y1714411D01*
X1364643D01*
X1369879Y1815503D02*
X1371212D01*
X1371878Y1814836D01*
Y1812170D01*
X1371212Y1811504D01*
X1369879D01*
X1369212Y1812170D01*
Y1814836D01*
X1369879Y1815503D01*
X1365213Y1814836D02*
X1365880Y1815503D01*
X1367213D01*
X1367879Y1814836D01*
Y1814170D01*
X1367213Y1813503D01*
X1365880D01*
X1365213Y1812837D01*
Y1812170D01*
X1365880Y1811504D01*
X1367213D01*
X1367879Y1812170D01*
X1371244Y1842014D02*
X1371911Y1842681D01*
X1373244D01*
X1373910Y1842014D01*
Y1839348D01*
X1373244Y1838682D01*
X1371911D01*
X1371244Y1839348D01*
Y1840681D01*
X1372577D01*
X1369911Y1838682D02*
Y1842681D01*
X1367245Y1838682D01*
Y1842681D01*
X1365913D02*
Y1838682D01*
X1363913D01*
X1363247Y1839348D01*
Y1842014D01*
X1363913Y1842681D01*
X1365913D01*
X1808886Y1425200D02*
X1809553Y1425867D01*
X1810886D01*
X1811552Y1425200D01*
Y1422534D01*
X1810886Y1421868D01*
X1809553D01*
X1808886Y1422534D01*
Y1423867D01*
X1810219D01*
X1807553Y1421868D02*
Y1425867D01*
X1804888Y1421868D01*
Y1425867D01*
X1803555D02*
Y1421868D01*
X1801555D01*
X1800889Y1422534D01*
Y1425200D01*
X1801555Y1425867D01*
X1803555D01*
X1811552Y1447776D02*
Y1451775D01*
X1809553D01*
X1808886Y1451108D01*
Y1449775D01*
X1809553Y1449109D01*
X1811552D01*
X1810219D02*
X1808886Y1447776D01*
X1807553Y1451775D02*
X1804888Y1447776D01*
Y1451775D02*
X1807553Y1447776D01*
X1811806Y1477175D02*
X1809140D01*
X1810473D01*
Y1473176D01*
X1807807Y1477175D02*
X1805141Y1473176D01*
Y1477175D02*
X1807807Y1473176D01*
X1693062Y1424946D02*
X1693729Y1425613D01*
X1695062D01*
X1695728Y1424946D01*
Y1422280D01*
X1695062Y1421614D01*
X1693729D01*
X1693062Y1422280D01*
Y1423613D01*
X1694395D01*
X1691729Y1421614D02*
Y1425613D01*
X1689064Y1421614D01*
Y1425613D01*
X1687731D02*
Y1421614D01*
X1685731D01*
X1685065Y1422280D01*
Y1424946D01*
X1685731Y1425613D01*
X1687731D01*
X1318095Y1488718D02*
Y1486052D01*
Y1487385D01*
X1322094D01*
X1318095Y1482054D02*
Y1484719D01*
X1322094D01*
Y1482054D01*
X1320095Y1484719D02*
Y1483386D01*
X1318762Y1478055D02*
X1318095Y1478721D01*
Y1480054D01*
X1318762Y1480721D01*
X1319428D01*
X1320095Y1480054D01*
Y1478721D01*
X1320761Y1478055D01*
X1321428D01*
X1322094Y1478721D01*
Y1480054D01*
X1321428Y1480721D01*
X1318095Y1476722D02*
Y1474056D01*
Y1475389D01*
X1322094D01*
X1167916Y1482114D02*
X1163917D01*
Y1480115D01*
X1164584Y1479448D01*
X1165917D01*
X1166583Y1480115D01*
Y1482114D01*
Y1480781D02*
X1167916Y1479448D01*
X1164584Y1475450D02*
X1163917Y1476116D01*
Y1477449D01*
X1164584Y1478115D01*
X1165250D01*
X1165917Y1477449D01*
Y1476116D01*
X1166583Y1475450D01*
X1167250D01*
X1167916Y1476116D01*
Y1477449D01*
X1167250Y1478115D01*
X1163917Y1474117D02*
Y1471451D01*
Y1472784D01*
X1167916D01*
X1755164Y1581380D02*
Y1585379D01*
X1753165D01*
X1752498Y1584712D01*
Y1583379D01*
X1753165Y1582713D01*
X1755164D01*
X1753831D02*
X1752498Y1581380D01*
X1748499Y1585379D02*
X1751165D01*
Y1581380D01*
X1748499D01*
X1751165Y1583379D02*
X1749832D01*
X1747167Y1584712D02*
X1746500Y1585379D01*
X1745167D01*
X1744501Y1584712D01*
Y1584046D01*
X1745167Y1583379D01*
X1745834D01*
X1745167D01*
X1744501Y1582713D01*
Y1582046D01*
X1745167Y1581380D01*
X1746500D01*
X1747167Y1582046D01*
X1728748Y1580872D02*
Y1584871D01*
X1726749D01*
X1726082Y1584204D01*
Y1582871D01*
X1726749Y1582205D01*
X1728748D01*
X1727415D02*
X1726082Y1580872D01*
X1722083Y1584871D02*
X1724749D01*
Y1580872D01*
X1722083D01*
X1724749Y1582871D02*
X1723416D01*
X1718085Y1580872D02*
X1720751D01*
X1718085Y1583538D01*
Y1584204D01*
X1718751Y1584871D01*
X1720084D01*
X1720751Y1584204D01*
X1702586Y1580872D02*
Y1584871D01*
X1700587D01*
X1699920Y1584204D01*
Y1582871D01*
X1700587Y1582205D01*
X1702586D01*
X1701253D02*
X1699920Y1580872D01*
X1695921Y1584871D02*
X1698587D01*
Y1580872D01*
X1695921D01*
X1698587Y1582871D02*
X1697254D01*
X1694589Y1580872D02*
X1693256D01*
X1693922D01*
Y1584871D01*
X1694589Y1584204D01*
X1679472Y1585125D02*
Y1581126D01*
X1678139Y1582459D01*
X1676806Y1581126D01*
Y1585125D01*
X1675473D02*
Y1581126D01*
Y1582459D01*
X1672807Y1585125D01*
X1674807Y1583125D01*
X1672807Y1581126D01*
X1671475Y1585125D02*
Y1581792D01*
X1670808Y1581126D01*
X1669475D01*
X1668809Y1581792D01*
Y1585125D01*
X1667476Y1581126D02*
Y1585125D01*
X1665477D01*
X1664810Y1584458D01*
Y1583125D01*
X1665477Y1582459D01*
X1667476D01*
X1778914Y1584712D02*
X1779581Y1585379D01*
X1780914D01*
X1781580Y1584712D01*
Y1582046D01*
X1780914Y1581380D01*
X1779581D01*
X1778914Y1582046D01*
Y1583379D01*
X1780247D01*
X1777581Y1581380D02*
Y1585379D01*
X1774915Y1581380D01*
Y1585379D01*
X1773583D02*
Y1581380D01*
X1771583D01*
X1770917Y1582046D01*
Y1584712D01*
X1771583Y1585379D01*
X1773583D01*
X1284248Y1573441D02*
X1281582D01*
X1282915D01*
Y1569442D01*
X1277583Y1573441D02*
X1280249D01*
Y1569442D01*
X1277583D01*
X1280249Y1571441D02*
X1278916D01*
X1273585Y1572774D02*
X1274251Y1573441D01*
X1275584D01*
X1276251Y1572774D01*
Y1572108D01*
X1275584Y1571441D01*
X1274251D01*
X1273585Y1570775D01*
Y1570108D01*
X1274251Y1569442D01*
X1275584D01*
X1276251Y1570108D01*
X1272252Y1573441D02*
X1269586D01*
X1270919D01*
Y1569442D01*
X1319682Y1443742D02*
X1320349Y1444409D01*
X1321682D01*
X1322348Y1443742D01*
Y1443076D01*
X1321682Y1442409D01*
X1320349D01*
X1319682Y1441743D01*
Y1441076D01*
X1320349Y1440410D01*
X1321682D01*
X1322348Y1441076D01*
X1318349Y1444409D02*
Y1440410D01*
X1317016Y1441743D01*
X1315683Y1440410D01*
Y1444409D01*
X1312351D02*
X1313684D01*
X1314351Y1443742D01*
Y1441076D01*
X1313684Y1440410D01*
X1312351D01*
X1311685Y1441076D01*
Y1443742D01*
X1312351Y1444409D01*
X1346352Y1442472D02*
X1347019Y1443139D01*
X1348352D01*
X1349018Y1442472D01*
Y1441806D01*
X1348352Y1441139D01*
X1347019D01*
X1346352Y1440473D01*
Y1439806D01*
X1347019Y1439140D01*
X1348352D01*
X1349018Y1439806D01*
X1345019Y1443139D02*
Y1439140D01*
X1343686Y1440473D01*
X1342354Y1439140D01*
Y1443139D01*
X1338355Y1442472D02*
X1339021Y1443139D01*
X1340354D01*
X1341021Y1442472D01*
Y1439806D01*
X1340354Y1439140D01*
X1339021D01*
X1338355Y1439806D01*
X1337022Y1443139D02*
Y1439140D01*
X1334356D01*
X1333023Y1443139D02*
Y1439140D01*
Y1440473D01*
X1330357Y1443139D01*
X1332357Y1441139D01*
X1330357Y1439140D01*
X1370990Y1441710D02*
X1371657Y1442377D01*
X1372990D01*
X1373656Y1441710D01*
Y1441044D01*
X1372990Y1440377D01*
X1371657D01*
X1370990Y1439711D01*
Y1439044D01*
X1371657Y1438378D01*
X1372990D01*
X1373656Y1439044D01*
X1369657Y1442377D02*
Y1438378D01*
X1368324Y1439711D01*
X1366991Y1438378D01*
Y1442377D01*
X1365659D02*
Y1438378D01*
X1363659D01*
X1362993Y1439044D01*
Y1441710D01*
X1363659Y1442377D01*
X1365659D01*
X1361660D02*
X1360327D01*
X1360993D01*
Y1438378D01*
X1361660D01*
X1360327D01*
X1356328Y1442377D02*
X1357661D01*
X1358328Y1441710D01*
Y1439044D01*
X1357661Y1438378D01*
X1356328D01*
X1355662Y1439044D01*
Y1441710D01*
X1356328Y1442377D01*
X1399564Y1443647D02*
Y1440981D01*
X1398231Y1439648D01*
X1396898Y1440981D01*
Y1443647D01*
X1395565D02*
Y1439648D01*
X1393566D01*
X1392899Y1440314D01*
Y1442980D01*
X1393566Y1443647D01*
X1395565D01*
X1391567D02*
Y1439648D01*
X1389567D01*
X1388901Y1440314D01*
Y1442980D01*
X1389567Y1443647D01*
X1391567D01*
X1298726Y1440156D02*
Y1444155D01*
X1296060Y1440156D01*
Y1444155D01*
X1294727Y1440156D02*
Y1444155D01*
X1292728D01*
X1292061Y1443488D01*
Y1442155D01*
X1292728Y1441489D01*
X1294727D01*
X1293394D02*
X1292061Y1440156D01*
X1288063Y1443488D02*
X1288729Y1444155D01*
X1290062D01*
X1290729Y1443488D01*
Y1442822D01*
X1290062Y1442155D01*
X1288729D01*
X1288063Y1441489D01*
Y1440822D01*
X1288729Y1440156D01*
X1290062D01*
X1290729Y1440822D01*
X1286730Y1444155D02*
X1284064D01*
X1285397D01*
Y1440156D01*
X1265834Y1443488D02*
X1266501Y1444155D01*
X1267834D01*
X1268500Y1443488D01*
Y1440822D01*
X1267834Y1440156D01*
X1266501D01*
X1265834Y1440822D01*
Y1442155D01*
X1267167D01*
X1264501Y1440156D02*
Y1444155D01*
X1261835Y1440156D01*
Y1444155D01*
X1260503D02*
Y1440156D01*
X1258503D01*
X1257837Y1440822D01*
Y1443488D01*
X1258503Y1444155D01*
X1260503D01*
X1855368Y1424184D02*
X1856035Y1424851D01*
X1857368D01*
X1858034Y1424184D01*
Y1421518D01*
X1857368Y1420852D01*
X1856035D01*
X1855368Y1421518D01*
Y1422851D01*
X1856701D01*
X1854035Y1420852D02*
Y1424851D01*
X1851369Y1420852D01*
Y1424851D01*
X1850037D02*
Y1420852D01*
X1848037D01*
X1847371Y1421518D01*
Y1424184D01*
X1848037Y1424851D01*
X1850037D01*
X1858034Y1446760D02*
Y1450759D01*
X1856701Y1449426D01*
X1855368Y1450759D01*
Y1446760D01*
X1852036Y1450759D02*
X1853369D01*
X1854035Y1450092D01*
Y1447426D01*
X1853369Y1446760D01*
X1852036D01*
X1851369Y1447426D01*
Y1450092D01*
X1852036Y1450759D01*
X1847371Y1450092D02*
X1848037Y1450759D01*
X1849370D01*
X1850037Y1450092D01*
Y1449426D01*
X1849370Y1448759D01*
X1848037D01*
X1847371Y1448093D01*
Y1447426D01*
X1848037Y1446760D01*
X1849370D01*
X1850037Y1447426D01*
X1846038Y1450759D02*
X1844705D01*
X1845372D01*
Y1446760D01*
X1846038D01*
X1844705D01*
X1855114Y1527054D02*
X1855781Y1527721D01*
X1857114D01*
X1857780Y1527054D01*
Y1524388D01*
X1857114Y1523722D01*
X1855781D01*
X1855114Y1524388D01*
X1851116Y1527054D02*
X1851782Y1527721D01*
X1853115D01*
X1853781Y1527054D01*
Y1526388D01*
X1853115Y1525721D01*
X1851782D01*
X1851116Y1525055D01*
Y1524388D01*
X1851782Y1523722D01*
X1853115D01*
X1853781Y1524388D01*
X1849783Y1523722D02*
X1848450D01*
X1849116D01*
Y1527721D01*
X1849783Y1527054D01*
X1855114Y1501146D02*
X1855781Y1501813D01*
X1857114D01*
X1857780Y1501146D01*
Y1500480D01*
X1857114Y1499813D01*
X1855781D01*
X1855114Y1499147D01*
Y1498480D01*
X1855781Y1497814D01*
X1857114D01*
X1857780Y1498480D01*
X1851116Y1501146D02*
X1851782Y1501813D01*
X1853115D01*
X1853781Y1501146D01*
Y1498480D01*
X1853115Y1497814D01*
X1851782D01*
X1851116Y1498480D01*
X1849783Y1501813D02*
Y1497814D01*
X1847117D01*
X1845784Y1501813D02*
Y1497814D01*
Y1499147D01*
X1843118Y1501813D01*
X1845117Y1499813D01*
X1843118Y1497814D01*
X1858034Y1471652D02*
Y1475651D01*
X1856701Y1474318D01*
X1855368Y1475651D01*
Y1471652D01*
X1854035Y1475651D02*
X1852702D01*
X1853369D01*
Y1471652D01*
X1854035D01*
X1852702D01*
X1848037Y1474984D02*
X1848704Y1475651D01*
X1850037D01*
X1850703Y1474984D01*
Y1474318D01*
X1850037Y1473651D01*
X1848704D01*
X1848037Y1472985D01*
Y1472318D01*
X1848704Y1471652D01*
X1850037D01*
X1850703Y1472318D01*
X1844705Y1475651D02*
X1846038D01*
X1846704Y1474984D01*
Y1472318D01*
X1846038Y1471652D01*
X1844705D01*
X1844039Y1472318D01*
Y1474984D01*
X1844705Y1475651D01*
X1764944Y1504702D02*
X1765611Y1505369D01*
X1766944D01*
X1767610Y1504702D01*
Y1502036D01*
X1766944Y1501370D01*
X1765611D01*
X1764944Y1502036D01*
Y1503369D01*
X1766277D01*
X1763611Y1501370D02*
Y1505369D01*
X1760945Y1501370D01*
Y1505369D01*
X1759613D02*
Y1501370D01*
X1757613D01*
X1756947Y1502036D01*
Y1504702D01*
X1757613Y1505369D01*
X1759613D01*
X1767102Y1479715D02*
Y1477049D01*
X1765769Y1475716D01*
X1764436Y1477049D01*
Y1479715D01*
X1763103D02*
Y1475716D01*
X1761104D01*
X1760437Y1476382D01*
Y1479048D01*
X1761104Y1479715D01*
X1763103D01*
X1759105D02*
Y1475716D01*
X1757105D01*
X1756439Y1476382D01*
Y1479048D01*
X1757105Y1479715D01*
X1759105D01*
X1763674Y1455426D02*
X1764341Y1456093D01*
X1765674D01*
X1766340Y1455426D01*
Y1454760D01*
X1765674Y1454093D01*
X1764341D01*
X1763674Y1453427D01*
Y1452760D01*
X1764341Y1452094D01*
X1765674D01*
X1766340Y1452760D01*
X1762341Y1456093D02*
Y1452094D01*
X1760342D01*
X1759675Y1452760D01*
Y1455426D01*
X1760342Y1456093D01*
X1762341D01*
X1758343Y1452094D02*
Y1454760D01*
X1757010Y1456093D01*
X1755677Y1454760D01*
Y1452094D01*
Y1454093D01*
X1758343D01*
X1763928Y1429264D02*
X1764595Y1429931D01*
X1765928D01*
X1766594Y1429264D01*
Y1428598D01*
X1765928Y1427931D01*
X1764595D01*
X1763928Y1427265D01*
Y1426598D01*
X1764595Y1425932D01*
X1765928D01*
X1766594Y1426598D01*
X1759930Y1429264D02*
X1760596Y1429931D01*
X1761929D01*
X1762595Y1429264D01*
Y1426598D01*
X1761929Y1425932D01*
X1760596D01*
X1759930Y1426598D01*
X1758597Y1429931D02*
Y1425932D01*
X1755931D01*
X1695768Y1447562D02*
Y1451561D01*
X1693769D01*
X1693102Y1450894D01*
Y1449561D01*
X1693769Y1448895D01*
X1695768D01*
X1694435D02*
X1693102Y1447562D01*
X1691769Y1451561D02*
X1689104Y1447562D01*
Y1451561D02*
X1691769Y1447562D01*
X1695728Y1475651D02*
X1693062D01*
X1694395D01*
Y1471652D01*
X1691729Y1475651D02*
X1689064Y1471652D01*
Y1475651D02*
X1691729Y1471652D01*
X1384211Y1810742D02*
Y1813408D01*
Y1812075D01*
X1380212D01*
X1384211Y1817406D02*
Y1814741D01*
X1380212D01*
Y1817406D01*
X1382211Y1814741D02*
Y1816074D01*
X1383544Y1821405D02*
X1384211Y1820739D01*
Y1819406D01*
X1383544Y1818739D01*
X1382878D01*
X1382211Y1819406D01*
Y1820739D01*
X1381545Y1821405D01*
X1380878D01*
X1380212Y1820739D01*
Y1819406D01*
X1380878Y1818739D01*
X1384211Y1822738D02*
Y1825404D01*
Y1824071D01*
X1380212D01*
X1733828Y1621512D02*
Y1625511D01*
X1731829D01*
X1731162Y1624844D01*
Y1623511D01*
X1731829Y1622845D01*
X1733828D01*
X1732495D02*
X1731162Y1621512D01*
X1727164Y1625511D02*
X1729829D01*
Y1621512D01*
X1727164D01*
X1729829Y1623511D02*
X1728496D01*
X1723165Y1624844D02*
X1723831Y1625511D01*
X1725164D01*
X1725831Y1624844D01*
Y1624178D01*
X1725164Y1623511D01*
X1723831D01*
X1723165Y1622845D01*
Y1622178D01*
X1723831Y1621512D01*
X1725164D01*
X1725831Y1622178D01*
X1719166Y1625511D02*
X1721832D01*
Y1621512D01*
X1719166D01*
X1721832Y1623511D02*
X1720499D01*
X1717833Y1621512D02*
Y1625511D01*
X1715834D01*
X1715167Y1624844D01*
Y1623511D01*
X1715834Y1622845D01*
X1717833D01*
X1716500D02*
X1715167Y1621512D01*
X1713835Y1625511D02*
Y1622845D01*
X1712502Y1621512D01*
X1711169Y1622845D01*
Y1625511D01*
X1707170D02*
X1709836D01*
Y1621512D01*
X1707170D01*
X1709836Y1623511D02*
X1708503D01*
X1705837Y1625511D02*
Y1621512D01*
X1703838D01*
X1703171Y1622178D01*
Y1624844D01*
X1703838Y1625511D01*
X1705837D01*
X1242562Y1426362D02*
X1241895Y1427029D01*
Y1428362D01*
X1242562Y1429028D01*
X1243228D01*
X1243895Y1428362D01*
Y1427029D01*
X1244561Y1426362D01*
X1245228D01*
X1245894Y1427029D01*
Y1428362D01*
X1245228Y1429028D01*
X1241895Y1425029D02*
X1245894D01*
X1244561Y1423696D01*
X1245894Y1422363D01*
X1241895D01*
Y1421031D02*
X1245894D01*
Y1419031D01*
X1245228Y1418365D01*
X1242562D01*
X1241895Y1419031D01*
Y1421031D01*
X1864766Y1570996D02*
X1865433Y1571663D01*
X1866766D01*
X1867432Y1570996D01*
Y1570330D01*
X1866766Y1569663D01*
X1865433D01*
X1864766Y1568997D01*
Y1568330D01*
X1865433Y1567664D01*
X1866766D01*
X1867432Y1568330D01*
X1863433Y1567664D02*
Y1571663D01*
X1861434D01*
X1860768Y1570996D01*
Y1569663D01*
X1861434Y1568997D01*
X1863433D01*
X1859435Y1571663D02*
X1858102D01*
X1858768D01*
Y1567664D01*
X1859435D01*
X1858102D01*
X1782850Y1523363D02*
X1781517D01*
X1782184D01*
Y1519364D01*
X1782850D01*
X1781517D01*
X1776852D02*
X1779518D01*
X1776852Y1522030D01*
Y1522696D01*
X1777518Y1523363D01*
X1778851D01*
X1779518Y1522696D01*
X1772853D02*
X1773520Y1523363D01*
X1774853D01*
X1775519Y1522696D01*
Y1520030D01*
X1774853Y1519364D01*
X1773520D01*
X1772853Y1520030D01*
X1823490Y1500543D02*
Y1497210D01*
X1822824Y1496544D01*
X1821491D01*
X1820824Y1497210D01*
Y1500543D01*
X1819491Y1496544D02*
Y1499210D01*
X1818158Y1500543D01*
X1816826Y1499210D01*
Y1496544D01*
Y1498543D01*
X1819491D01*
X1815493Y1496544D02*
Y1500543D01*
X1813493D01*
X1812827Y1499876D01*
Y1498543D01*
X1813493Y1497877D01*
X1815493D01*
X1814160D02*
X1812827Y1496544D01*
X1811494Y1500543D02*
X1808828D01*
X1810161D01*
Y1496544D01*
X1162393Y1887244D02*
X1165059D01*
X1166392Y1885911D01*
X1165059Y1884578D01*
X1162393D01*
X1163060Y1880580D02*
X1162393Y1881246D01*
Y1882579D01*
X1163060Y1883245D01*
X1165726D01*
X1166392Y1882579D01*
Y1881246D01*
X1165726Y1880580D01*
X1163060Y1876581D02*
X1162393Y1877247D01*
Y1878580D01*
X1163060Y1879247D01*
X1165726D01*
X1166392Y1878580D01*
Y1877247D01*
X1165726Y1876581D01*
X1162393Y2033294D02*
X1165059D01*
X1166392Y2031961D01*
X1165059Y2030628D01*
X1162393D01*
X1166392Y2029295D02*
X1162393D01*
X1163726Y2027962D01*
X1162393Y2026629D01*
X1166392D01*
X1162393Y2023297D02*
Y2024630D01*
X1163060Y2025297D01*
X1165726D01*
X1166392Y2024630D01*
Y2023297D01*
X1165726Y2022631D01*
X1163060D01*
X1162393Y2023297D01*
Y2021298D02*
Y2018632D01*
Y2019965D01*
X1166392D01*
M02*
